%TF.GenerationSoftware,KiCad,Pcbnew,9.0.0-9.0.0-2~ubuntu22.04.1*%
%TF.CreationDate,2025-03-23T14:44:27+01:00*%
%TF.ProjectId,PCB_controller,5043425f-636f-46e7-9472-6f6c6c65722e,rev?*%
%TF.SameCoordinates,Original*%
%TF.FileFunction,Soldermask,Bot*%
%TF.FilePolarity,Negative*%
%FSLAX46Y46*%
G04 Gerber Fmt 4.6, Leading zero omitted, Abs format (unit mm)*
G04 Created by KiCad (PCBNEW 9.0.0-9.0.0-2~ubuntu22.04.1) date 2025-03-23 14:44:27*
%MOMM*%
%LPD*%
G01*
G04 APERTURE LIST*
G04 Aperture macros list*
%AMRoundRect*
0 Rectangle with rounded corners*
0 $1 Rounding radius*
0 $2 $3 $4 $5 $6 $7 $8 $9 X,Y pos of 4 corners*
0 Add a 4 corners polygon primitive as box body*
4,1,4,$2,$3,$4,$5,$6,$7,$8,$9,$2,$3,0*
0 Add four circle primitives for the rounded corners*
1,1,$1+$1,$2,$3*
1,1,$1+$1,$4,$5*
1,1,$1+$1,$6,$7*
1,1,$1+$1,$8,$9*
0 Add four rect primitives between the rounded corners*
20,1,$1+$1,$2,$3,$4,$5,0*
20,1,$1+$1,$4,$5,$6,$7,0*
20,1,$1+$1,$6,$7,$8,$9,0*
20,1,$1+$1,$8,$9,$2,$3,0*%
G04 Aperture macros list end*
%ADD10RoundRect,0.250000X-0.725000X0.600000X-0.725000X-0.600000X0.725000X-0.600000X0.725000X0.600000X0*%
%ADD11O,1.950000X1.700000*%
%ADD12C,0.800000*%
%ADD13C,6.400000*%
%ADD14RoundRect,0.250000X0.600000X0.725000X-0.600000X0.725000X-0.600000X-0.725000X0.600000X-0.725000X0*%
%ADD15O,1.700000X1.950000*%
%ADD16RoundRect,0.250000X0.600000X0.750000X-0.600000X0.750000X-0.600000X-0.750000X0.600000X-0.750000X0*%
%ADD17O,1.700000X2.000000*%
G04 APERTURE END LIST*
D10*
%TO.C,J3*%
X162787500Y-114750000D03*
D11*
X162787500Y-117250000D03*
X162787500Y-119750000D03*
X162787500Y-122250000D03*
%TD*%
D12*
%TO.C,H1*%
X159600000Y-59000000D03*
X160302944Y-57302944D03*
X160302944Y-60697056D03*
X162000000Y-56600000D03*
D13*
X162000000Y-59000000D03*
D12*
X162000000Y-61400000D03*
X163697056Y-57302944D03*
X163697056Y-60697056D03*
X164400000Y-59000000D03*
%TD*%
D14*
%TO.C,J2*%
X146250000Y-131000000D03*
D15*
X143750000Y-131000000D03*
X141250000Y-131000000D03*
X138750000Y-131000000D03*
X136250000Y-131000000D03*
X133750000Y-131000000D03*
%TD*%
D12*
%TO.C,H3*%
X124600000Y-59000000D03*
X125302944Y-57302944D03*
X125302944Y-60697056D03*
X127000000Y-56600000D03*
D13*
X127000000Y-59000000D03*
D12*
X127000000Y-61400000D03*
X128697056Y-57302944D03*
X128697056Y-60697056D03*
X129400000Y-59000000D03*
%TD*%
%TO.C,H2*%
X124600000Y-130000000D03*
X125302944Y-128302944D03*
X125302944Y-131697056D03*
X127000000Y-127600000D03*
D13*
X127000000Y-130000000D03*
D12*
X127000000Y-132400000D03*
X128697056Y-128302944D03*
X128697056Y-131697056D03*
X129400000Y-130000000D03*
%TD*%
%TO.C,H4*%
X159600000Y-130000000D03*
X160302944Y-128302944D03*
X160302944Y-131697056D03*
X162000000Y-127600000D03*
D13*
X162000000Y-130000000D03*
D12*
X162000000Y-132400000D03*
X163697056Y-128302944D03*
X163697056Y-131697056D03*
X164400000Y-130000000D03*
%TD*%
D16*
%TO.C,J1*%
X155287500Y-131000000D03*
D17*
X152787500Y-131000000D03*
%TD*%
M02*
