M48
; DRILL file {KiCad 9.0.0-9.0.0-2~ubuntu24.04.1} date 2025-03-20T14:26:12+0100
; FORMAT={-:-/ absolute / inch / decimal}
; #@! TF.CreationDate,2025-03-20T14:26:12+01:00
; #@! TF.GenerationSoftware,Kicad,Pcbnew,9.0.0-9.0.0-2~ubuntu24.04.1
; #@! TF.FileFunction,Plated,1,4,PTH
FMAT,2
INCH
; #@! TA.AperFunction,Plated,PTH,ViaDrill
T1C0.0118
; #@! TA.AperFunction,Plated,PTH,ComponentDrill
T2C0.0197
; #@! TA.AperFunction,Plated,PTH,ViaDrill
T3C0.0236
; #@! TA.AperFunction,Plated,PTH,ComponentDrill
T4C0.0374
; #@! TA.AperFunction,Plated,PTH,ComponentDrill
T5C0.0394
; #@! TA.AperFunction,Plated,PTH,ComponentDrill
T6C0.1260
%
G90
G05
T1
X4.9016Y-4.3898
X4.9646Y-4.1575
X4.9705Y-3.0413
X4.9764Y-4.0709
X4.9803Y-4.2756
X5.0098Y-3.5433
X5.0197Y-3.9075
X5.0315Y-2.7244
X5.0315Y-3.1969
X5.0354Y-3.6693
X5.0354Y-4.4882
X5.1181Y-4.3268
X5.1378Y-3.0709
X5.1417Y-4.7992
X5.1417Y-4.8622
X5.1575Y-2.5591
X5.1673Y-3.5138
X5.2165Y-4.9902
X5.2598Y-2.7244
X5.2638Y-3.1969
X5.2638Y-3.6693
X5.2638Y-4.4882
X5.2657Y-2.372
X5.2677Y-4.3307
X5.2717Y-4.0748
X5.2953Y-2.2343
X5.3268Y-4.0541
X5.3465Y-3.4252
X5.3504Y-3.9016
X5.3504Y-4.878
X5.3583Y-2.9528
X5.3661Y-2.6732
X5.3661Y-3.1535
X5.3661Y-3.6181
X5.3661Y-4.4409
X5.3839Y-2.6083
X5.3937Y-4.378
X5.3976Y-4.7008
X5.4213Y-2.8386
X5.4606Y-2.5
X5.4646Y-4.2874
X5.4646Y-5.0236
X5.4724Y-2.2362
X5.4843Y-4.3543
X5.4921Y-4.4606
X5.5039Y-2.4803
X5.5039Y-2.9528
X5.5039Y-3.4252
X5.5118Y-3.1535
X5.5157Y-2.6772
X5.5405Y-4.0287
X5.5591Y-4.1654
X5.563Y-3.9213
X5.5748Y-4.0236
X5.5787Y-4.9921
X5.5945Y-4.2008
X5.6024Y-2.4331
X5.6024Y-2.9055
X5.6024Y-3.378
X5.6142Y-4.4449
X5.6142Y-4.878
X5.6299Y-3.061
X5.6339Y-4.2333
X5.6457Y-4.0118
X5.6496Y-3.622
X5.6496Y-3.685
X5.6772Y-4.0118
X5.6988Y-4.5768
X5.7087Y-2.5295
X5.7126Y-4.3543
X5.7175Y-4.0394
X5.7441Y-4.0236
X5.7469Y-4.0799
X5.748Y-4.9449
X5.752Y-4.1142
X5.7795Y-3.937
X5.7874Y-4.4685
X5.8268Y-3.0807
X5.8307Y-2.4331
X5.8307Y-3.6457
X5.8307Y-3.9409
X5.8346Y-2.9055
X5.8346Y-3.752
X5.8386Y-3.378
X5.8386Y-4.0551
X5.8543Y-4.0157
X5.8543Y-4.1535
X5.8661Y-2.5984
X5.8661Y-5.0098
X5.876Y-3.5138
X5.8819Y-4.1024
X5.9055Y-4.3307
X5.9803Y-2.9016
X5.9921Y-4.3425
X6.0039Y-2.6772
X6.0118Y-3.9016
X6.0157Y-2.9528
X6.0157Y-3.4252
X6.0236Y-3.1575
X6.0276Y-3.622
X6.0315Y-4.0945
X6.0472Y-4.8543
X6.063Y-4.5472
X6.0748Y-4.6181
X6.0787Y-4.4882
X6.0787Y-4.6732
X6.1142Y-2.9055
X6.1142Y-3.378
X6.1142Y-3.8504
X6.1142Y-4.3228
X6.122Y-4.0256
X6.1319Y-2.3524
X6.1319Y-3.5728
X6.1713Y-4.9213
X6.1909Y-4.4094
X6.2008Y-4.7736
X6.2106Y-2.5098
X6.2106Y-3.0315
X6.2303Y-3.5039
X6.2717Y-4.4961
X6.3091Y-3.9961
X6.3465Y-2.9055
X6.3465Y-3.378
X6.3681Y-3.1004
X6.4252Y-4.3228
X6.4291Y-3.8504
T2
X4.9055Y-2.3228
X4.9055Y-5.1181
X4.9332Y-2.256
X4.9332Y-2.3896
X4.9332Y-5.0513
X4.9332Y-5.1849
X5.0Y-2.2283
X5.0Y-2.4173
X5.0Y-5.0236
X5.0Y-5.2126
X5.0668Y-2.256
X5.0668Y-2.3896
X5.0668Y-5.0513
X5.0668Y-5.1849
X5.0945Y-2.3228
X5.0945Y-5.1181
X6.2835Y-2.3228
X6.2835Y-5.1181
X6.3111Y-2.256
X6.3111Y-2.3896
X6.3111Y-5.0513
X6.3111Y-5.1849
X6.378Y-2.2283
X6.378Y-2.4173
X6.378Y-5.0236
X6.378Y-5.2126
X6.4448Y-2.256
X6.4448Y-2.3896
X6.4448Y-5.0513
X6.4448Y-5.1849
X6.4724Y-2.3228
X6.4724Y-5.1181
T3
X5.3622Y-4.7717
X5.8268Y-4.5787
X5.9685Y-4.9646
T4
X5.2657Y-5.1575
X5.3642Y-5.1575
X5.4626Y-5.1575
X5.561Y-5.1575
X5.6594Y-5.1575
X5.7579Y-5.1575
X6.409Y-4.5177
X6.409Y-4.6161
X6.409Y-4.7146
X6.409Y-4.813
T5
X6.0153Y-5.1575
X6.1137Y-5.1575
T6
X5.0Y-2.3228
X5.0Y-5.1181
X6.378Y-2.3228
X6.378Y-5.1181
M30
