%TF.GenerationSoftware,KiCad,Pcbnew,9.0.0-9.0.0-2~ubuntu22.04.1*%
%TF.CreationDate,2025-03-23T14:44:27+01:00*%
%TF.ProjectId,PCB_controller,5043425f-636f-46e7-9472-6f6c6c65722e,rev?*%
%TF.SameCoordinates,Original*%
%TF.FileFunction,Copper,L2,Inr*%
%TF.FilePolarity,Positive*%
%FSLAX46Y46*%
G04 Gerber Fmt 4.6, Leading zero omitted, Abs format (unit mm)*
G04 Created by KiCad (PCBNEW 9.0.0-9.0.0-2~ubuntu22.04.1) date 2025-03-23 14:44:27*
%MOMM*%
%LPD*%
G01*
G04 APERTURE LIST*
G04 Aperture macros list*
%AMRoundRect*
0 Rectangle with rounded corners*
0 $1 Rounding radius*
0 $2 $3 $4 $5 $6 $7 $8 $9 X,Y pos of 4 corners*
0 Add a 4 corners polygon primitive as box body*
4,1,4,$2,$3,$4,$5,$6,$7,$8,$9,$2,$3,0*
0 Add four circle primitives for the rounded corners*
1,1,$1+$1,$2,$3*
1,1,$1+$1,$4,$5*
1,1,$1+$1,$6,$7*
1,1,$1+$1,$8,$9*
0 Add four rect primitives between the rounded corners*
20,1,$1+$1,$2,$3,$4,$5,0*
20,1,$1+$1,$4,$5,$6,$7,0*
20,1,$1+$1,$6,$7,$8,$9,0*
20,1,$1+$1,$8,$9,$2,$3,0*%
G04 Aperture macros list end*
%TA.AperFunction,ComponentPad*%
%ADD10RoundRect,0.250000X-0.725000X0.600000X-0.725000X-0.600000X0.725000X-0.600000X0.725000X0.600000X0*%
%TD*%
%TA.AperFunction,ComponentPad*%
%ADD11O,1.950000X1.700000*%
%TD*%
%TA.AperFunction,ComponentPad*%
%ADD12C,0.800000*%
%TD*%
%TA.AperFunction,ComponentPad*%
%ADD13C,6.400000*%
%TD*%
%TA.AperFunction,ComponentPad*%
%ADD14RoundRect,0.250000X0.600000X0.725000X-0.600000X0.725000X-0.600000X-0.725000X0.600000X-0.725000X0*%
%TD*%
%TA.AperFunction,ComponentPad*%
%ADD15O,1.700000X1.950000*%
%TD*%
%TA.AperFunction,ComponentPad*%
%ADD16RoundRect,0.250000X0.600000X0.750000X-0.600000X0.750000X-0.600000X-0.750000X0.600000X-0.750000X0*%
%TD*%
%TA.AperFunction,ComponentPad*%
%ADD17O,1.700000X2.000000*%
%TD*%
%TA.AperFunction,ViaPad*%
%ADD18C,0.450000*%
%TD*%
%TA.AperFunction,ViaPad*%
%ADD19C,1.200000*%
%TD*%
G04 APERTURE END LIST*
D10*
%TO.N,GND*%
%TO.C,J3*%
X162787500Y-114750000D03*
D11*
%TO.N,+5V*%
X162787500Y-117250000D03*
%TO.N,I2C1_SDA*%
X162787500Y-119750000D03*
%TO.N,I2C1_SCL*%
X162787500Y-122250000D03*
%TD*%
D12*
%TO.N,GND*%
%TO.C,H1*%
X159600000Y-59000000D03*
X160302944Y-57302944D03*
X160302944Y-60697056D03*
X162000000Y-56600000D03*
D13*
X162000000Y-59000000D03*
D12*
X162000000Y-61400000D03*
X163697056Y-57302944D03*
X163697056Y-60697056D03*
X164400000Y-59000000D03*
%TD*%
D14*
%TO.N,unconnected-(J2-Pin_1-Pad1)*%
%TO.C,J2*%
X146250000Y-131000000D03*
D15*
%TO.N,+5V*%
X143750000Y-131000000D03*
%TO.N,GND*%
X141250000Y-131000000D03*
%TO.N,UART2_HC05_TX*%
X138750000Y-131000000D03*
%TO.N,UART2_HC05_RX*%
X136250000Y-131000000D03*
%TO.N,unconnected-(J2-Pin_6-Pad6)*%
X133750000Y-131000000D03*
%TD*%
D12*
%TO.N,GND*%
%TO.C,H3*%
X124600000Y-59000000D03*
X125302944Y-57302944D03*
X125302944Y-60697056D03*
X127000000Y-56600000D03*
D13*
X127000000Y-59000000D03*
D12*
X127000000Y-61400000D03*
X128697056Y-57302944D03*
X128697056Y-60697056D03*
X129400000Y-59000000D03*
%TD*%
%TO.N,GND*%
%TO.C,H2*%
X124600000Y-130000000D03*
X125302944Y-128302944D03*
X125302944Y-131697056D03*
X127000000Y-127600000D03*
D13*
X127000000Y-130000000D03*
D12*
X127000000Y-132400000D03*
X128697056Y-128302944D03*
X128697056Y-131697056D03*
X129400000Y-130000000D03*
%TD*%
%TO.N,GND*%
%TO.C,H4*%
X159600000Y-130000000D03*
X160302944Y-128302944D03*
X160302944Y-131697056D03*
X162000000Y-127600000D03*
D13*
X162000000Y-130000000D03*
D12*
X162000000Y-132400000D03*
X163697056Y-128302944D03*
X163697056Y-131697056D03*
X164400000Y-130000000D03*
%TD*%
D16*
%TO.N,+5V*%
%TO.C,J1*%
X155287500Y-131000000D03*
D17*
%TO.N,GND*%
X152787500Y-131000000D03*
%TD*%
D18*
%TO.N,GND*%
X127250000Y-90000000D03*
X141700000Y-126800000D03*
X133700000Y-93200000D03*
X142600000Y-112900000D03*
X146000000Y-125600000D03*
X138800000Y-108900000D03*
X127900000Y-114000000D03*
X143500000Y-93600000D03*
X160250000Y-101500000D03*
X155300000Y-73800000D03*
X126100000Y-105600000D03*
X142300000Y-73800000D03*
X130500000Y-78000000D03*
X155300000Y-109800000D03*
X153600000Y-123300000D03*
X139800000Y-63000000D03*
X145971232Y-103628768D03*
X127800000Y-81200000D03*
X148100000Y-61800000D03*
X131000000Y-65000000D03*
X136300000Y-67900000D03*
X161200000Y-85800000D03*
X155500000Y-102250000D03*
X133700000Y-81200000D03*
X157250000Y-112000000D03*
X155750000Y-90750000D03*
X163200000Y-109800000D03*
X149400000Y-104200000D03*
X155750000Y-59750000D03*
X136300000Y-112800000D03*
X126250000Y-77250000D03*
X144750000Y-116250000D03*
X149250000Y-89250000D03*
X157500000Y-121250000D03*
X142300000Y-85800000D03*
X156750000Y-125000000D03*
X157750000Y-77000000D03*
X152200000Y-110300000D03*
X136300000Y-91900000D03*
X133750000Y-60250000D03*
X139800000Y-87000000D03*
X143500000Y-92000000D03*
X131250000Y-89250000D03*
X148100000Y-100100000D03*
X133600000Y-69200000D03*
X163300000Y-97800000D03*
X149000000Y-66000000D03*
X152700000Y-99100000D03*
X132500000Y-126750000D03*
X152800000Y-87000000D03*
X133700000Y-114000000D03*
X159300000Y-114200000D03*
X130600000Y-123500000D03*
X150000000Y-110000000D03*
X155300000Y-85800000D03*
X148000000Y-78250000D03*
X127800000Y-69200000D03*
X130600000Y-121900000D03*
X149000000Y-127250000D03*
X139800000Y-75000000D03*
X145000000Y-64250000D03*
X142600000Y-123900000D03*
X134500000Y-56750000D03*
X142300000Y-61800000D03*
X161750000Y-78750000D03*
X158250000Y-89000000D03*
X148300000Y-85800000D03*
X143000000Y-77750000D03*
X161200000Y-73800000D03*
X127900000Y-93200000D03*
X127500000Y-99250000D03*
X148700000Y-102000000D03*
X137000000Y-111200000D03*
X157750000Y-63750000D03*
X155300000Y-97800000D03*
X136750000Y-66250000D03*
X124500000Y-111500000D03*
X152800000Y-75000000D03*
X136300000Y-80100000D03*
X126500000Y-108600000D03*
X148200000Y-73800000D03*
X147000000Y-113500000D03*
%TO.N,+3.3V*%
X152500000Y-68000000D03*
X153200000Y-104000000D03*
X136100000Y-75000000D03*
X135800000Y-87000000D03*
X139000000Y-56800000D03*
X139300000Y-110600000D03*
X154400000Y-118700000D03*
X135900000Y-99100000D03*
X153000000Y-80200000D03*
X153100000Y-92000000D03*
X140000000Y-80100000D03*
X137100000Y-119400000D03*
X126400000Y-103400000D03*
X146800000Y-100000000D03*
X135900000Y-123900000D03*
X140100000Y-68000000D03*
D19*
X148000000Y-116300000D03*
D18*
X154400000Y-114000000D03*
X148300000Y-103000000D03*
D19*
%TO.N,+5V*%
X151600000Y-126100000D03*
X136200000Y-121200000D03*
D18*
%TO.N,BTN_4*%
X148700000Y-105500000D03*
X151900000Y-73700000D03*
%TO.N,BTN_7*%
X137700000Y-72100000D03*
X141300000Y-99600000D03*
%TO.N,BTN_8*%
X146100000Y-104500000D03*
X138700000Y-63500000D03*
%TO.N,BTN_11*%
X139500000Y-113300000D03*
X141200000Y-105800000D03*
%TO.N,UART2_HC05_TX*%
X138800000Y-127600000D03*
X145100000Y-110600000D03*
%TO.N,I2C1_SDA*%
X154000000Y-115500000D03*
X142100000Y-106700000D03*
%TO.N,I2C1_SCL*%
X143100000Y-107525000D03*
X154300000Y-117300000D03*
%TO.N,UART1_DEBUG_RX*%
X130000000Y-109900000D03*
X143400000Y-101900000D03*
%TO.N,SWCLK*%
X140728768Y-102328768D03*
X135300000Y-102975000D03*
%TO.N,SWDIO*%
X141600000Y-102200000D03*
X133900000Y-103500000D03*
%TO.N,UART1_DEBUG_TX*%
X133800000Y-110000000D03*
X144200000Y-101900000D03*
%TO.N,LED2*%
X148200000Y-95300000D03*
X145900000Y-102200000D03*
%TO.N,LED1*%
X148100000Y-92600000D03*
X145225000Y-102600000D03*
%TD*%
%TA.AperFunction,Conductor*%
%TO.N,+5V*%
G36*
X165993004Y-111725185D02*
G01*
X166038759Y-111777989D01*
X166049964Y-111829584D01*
X166048458Y-113999349D01*
X166037050Y-130425771D01*
X166037050Y-130425772D01*
X166037044Y-130433940D01*
X166037000Y-130434108D01*
X166037000Y-130497035D01*
X166036851Y-130503033D01*
X166020447Y-130836928D01*
X166019254Y-130849037D01*
X165970651Y-131176694D01*
X165968277Y-131188630D01*
X165887792Y-131509944D01*
X165884259Y-131521588D01*
X165772670Y-131833459D01*
X165768014Y-131844702D01*
X165626385Y-132144151D01*
X165620648Y-132154883D01*
X165450362Y-132438988D01*
X165443602Y-132449106D01*
X165246275Y-132715170D01*
X165238555Y-132724576D01*
X165016111Y-132970006D01*
X165007506Y-132978611D01*
X164762076Y-133201055D01*
X164752670Y-133208775D01*
X164486606Y-133406102D01*
X164476488Y-133412862D01*
X164192383Y-133583148D01*
X164181651Y-133588885D01*
X163882202Y-133730514D01*
X163870959Y-133735170D01*
X163559088Y-133846759D01*
X163547444Y-133850292D01*
X163226130Y-133930777D01*
X163214194Y-133933151D01*
X162886537Y-133981754D01*
X162874428Y-133982947D01*
X162559489Y-133998419D01*
X162540531Y-133999351D01*
X162534449Y-133999500D01*
X126540551Y-133999500D01*
X126534468Y-133999351D01*
X126514400Y-133998365D01*
X126200571Y-133982947D01*
X126188462Y-133981754D01*
X125860805Y-133933151D01*
X125848869Y-133930777D01*
X125527555Y-133850292D01*
X125515911Y-133846759D01*
X125204040Y-133735170D01*
X125192801Y-133730515D01*
X124893344Y-133588883D01*
X124882621Y-133583150D01*
X124598511Y-133412862D01*
X124588393Y-133406102D01*
X124322329Y-133208775D01*
X124312923Y-133201055D01*
X124273975Y-133165755D01*
X124067486Y-132978604D01*
X124058895Y-132970013D01*
X123836444Y-132724576D01*
X123828724Y-132715170D01*
X123631397Y-132449106D01*
X123624637Y-132438988D01*
X123621861Y-132434356D01*
X123454344Y-132154871D01*
X123448620Y-132144163D01*
X123306979Y-131844688D01*
X123302329Y-131833459D01*
X123302006Y-131832557D01*
X123217878Y-131597434D01*
X123190740Y-131521588D01*
X123187207Y-131509944D01*
X123106719Y-131188617D01*
X123104348Y-131176694D01*
X123087902Y-131065826D01*
X123055745Y-130849037D01*
X123054552Y-130836927D01*
X123038149Y-130503032D01*
X123038000Y-130497038D01*
X123038000Y-130497035D01*
X123038000Y-130434108D01*
X123037954Y-130433938D01*
X123037533Y-129828031D01*
X123499500Y-129828031D01*
X123499500Y-130171969D01*
X123505403Y-130231903D01*
X123533210Y-130514249D01*
X123600308Y-130851572D01*
X123700150Y-131180706D01*
X123831770Y-131498464D01*
X123831772Y-131498469D01*
X123993893Y-131801775D01*
X123993904Y-131801793D01*
X124184975Y-132087751D01*
X124184985Y-132087765D01*
X124403176Y-132353632D01*
X124646367Y-132596823D01*
X124646372Y-132596827D01*
X124646373Y-132596828D01*
X124912240Y-132815019D01*
X125198213Y-133006100D01*
X125198222Y-133006105D01*
X125198224Y-133006106D01*
X125501530Y-133168227D01*
X125501532Y-133168227D01*
X125501538Y-133168231D01*
X125819295Y-133299850D01*
X126148422Y-133399690D01*
X126485750Y-133466789D01*
X126828031Y-133500500D01*
X126828034Y-133500500D01*
X127171966Y-133500500D01*
X127171969Y-133500500D01*
X127514250Y-133466789D01*
X127851578Y-133399690D01*
X128180705Y-133299850D01*
X128498462Y-133168231D01*
X128801787Y-133006100D01*
X129087760Y-132815019D01*
X129353627Y-132596828D01*
X129596828Y-132353627D01*
X129815019Y-132087760D01*
X130006100Y-131801787D01*
X130168231Y-131498462D01*
X130299850Y-131180705D01*
X130399690Y-130851578D01*
X130413043Y-130784448D01*
X132599500Y-130784448D01*
X132599500Y-131215551D01*
X132627829Y-131394410D01*
X132683787Y-131566636D01*
X132683788Y-131566639D01*
X132766006Y-131727997D01*
X132872441Y-131874494D01*
X132872445Y-131874499D01*
X133000500Y-132002554D01*
X133000505Y-132002558D01*
X133117765Y-132087751D01*
X133147006Y-132108996D01*
X133236750Y-132154723D01*
X133308360Y-132191211D01*
X133308363Y-132191212D01*
X133385304Y-132216211D01*
X133480591Y-132247171D01*
X133563429Y-132260291D01*
X133659449Y-132275500D01*
X133659454Y-132275500D01*
X133840551Y-132275500D01*
X133927259Y-132261765D01*
X134019409Y-132247171D01*
X134191639Y-132191211D01*
X134352994Y-132108996D01*
X134499501Y-132002553D01*
X134627553Y-131874501D01*
X134733996Y-131727994D01*
X134816211Y-131566639D01*
X134872171Y-131394409D01*
X134877527Y-131360594D01*
X134907456Y-131297459D01*
X134966768Y-131260528D01*
X135036630Y-131261526D01*
X135094863Y-131300136D01*
X135122473Y-131360594D01*
X135127829Y-131394410D01*
X135183787Y-131566636D01*
X135183788Y-131566639D01*
X135266006Y-131727997D01*
X135372441Y-131874494D01*
X135372445Y-131874499D01*
X135500500Y-132002554D01*
X135500505Y-132002558D01*
X135617765Y-132087751D01*
X135647006Y-132108996D01*
X135736750Y-132154723D01*
X135808360Y-132191211D01*
X135808363Y-132191212D01*
X135885304Y-132216211D01*
X135980591Y-132247171D01*
X136063429Y-132260291D01*
X136159449Y-132275500D01*
X136159454Y-132275500D01*
X136340551Y-132275500D01*
X136427259Y-132261765D01*
X136519409Y-132247171D01*
X136691639Y-132191211D01*
X136852994Y-132108996D01*
X136999501Y-132002553D01*
X137127553Y-131874501D01*
X137233996Y-131727994D01*
X137316211Y-131566639D01*
X137372171Y-131394409D01*
X137377527Y-131360594D01*
X137407456Y-131297459D01*
X137466768Y-131260528D01*
X137536630Y-131261526D01*
X137594863Y-131300136D01*
X137622473Y-131360594D01*
X137627829Y-131394410D01*
X137683787Y-131566636D01*
X137683788Y-131566639D01*
X137766006Y-131727997D01*
X137872441Y-131874494D01*
X137872445Y-131874499D01*
X138000500Y-132002554D01*
X138000505Y-132002558D01*
X138117765Y-132087751D01*
X138147006Y-132108996D01*
X138236750Y-132154723D01*
X138308360Y-132191211D01*
X138308363Y-132191212D01*
X138385304Y-132216211D01*
X138480591Y-132247171D01*
X138563429Y-132260291D01*
X138659449Y-132275500D01*
X138659454Y-132275500D01*
X138840551Y-132275500D01*
X138927259Y-132261765D01*
X139019409Y-132247171D01*
X139191639Y-132191211D01*
X139352994Y-132108996D01*
X139499501Y-132002553D01*
X139627553Y-131874501D01*
X139733996Y-131727994D01*
X139816211Y-131566639D01*
X139872171Y-131394409D01*
X139877527Y-131360594D01*
X139907456Y-131297459D01*
X139966768Y-131260528D01*
X140036630Y-131261526D01*
X140094863Y-131300136D01*
X140122473Y-131360594D01*
X140127829Y-131394410D01*
X140183787Y-131566636D01*
X140183788Y-131566639D01*
X140266006Y-131727997D01*
X140372441Y-131874494D01*
X140372445Y-131874499D01*
X140500500Y-132002554D01*
X140500505Y-132002558D01*
X140617765Y-132087751D01*
X140647006Y-132108996D01*
X140736750Y-132154723D01*
X140808360Y-132191211D01*
X140808363Y-132191212D01*
X140885304Y-132216211D01*
X140980591Y-132247171D01*
X141063429Y-132260291D01*
X141159449Y-132275500D01*
X141159454Y-132275500D01*
X141340551Y-132275500D01*
X141427259Y-132261765D01*
X141519409Y-132247171D01*
X141691639Y-132191211D01*
X141852994Y-132108996D01*
X141999501Y-132002553D01*
X142127553Y-131874501D01*
X142233996Y-131727994D01*
X142277563Y-131642488D01*
X142325537Y-131591692D01*
X142393358Y-131574897D01*
X142459493Y-131597434D01*
X142498533Y-131642488D01*
X142595379Y-131832557D01*
X142720272Y-132004459D01*
X142720276Y-132004464D01*
X142870535Y-132154723D01*
X142870540Y-132154727D01*
X143042442Y-132279620D01*
X143231782Y-132376095D01*
X143433871Y-132441757D01*
X143500000Y-132452231D01*
X143500000Y-131404145D01*
X143566657Y-131442630D01*
X143687465Y-131475000D01*
X143812535Y-131475000D01*
X143933343Y-131442630D01*
X144000000Y-131404145D01*
X144000000Y-132452230D01*
X144066126Y-132441757D01*
X144066129Y-132441757D01*
X144268217Y-132376095D01*
X144457557Y-132279620D01*
X144629459Y-132154727D01*
X144629464Y-132154723D01*
X144779721Y-132004466D01*
X144898893Y-131840439D01*
X144954223Y-131797773D01*
X145023836Y-131791794D01*
X145085632Y-131824399D01*
X145114566Y-131867833D01*
X145165638Y-131997341D01*
X145257077Y-132117922D01*
X145377656Y-132209360D01*
X145377657Y-132209360D01*
X145377658Y-132209361D01*
X145518436Y-132264877D01*
X145606898Y-132275500D01*
X145606903Y-132275500D01*
X146893097Y-132275500D01*
X146893102Y-132275500D01*
X146981564Y-132264877D01*
X147122342Y-132209361D01*
X147242922Y-132117922D01*
X147334361Y-131997342D01*
X147389877Y-131856564D01*
X147400500Y-131768102D01*
X147400500Y-130759448D01*
X151637000Y-130759448D01*
X151637000Y-131240551D01*
X151665329Y-131419410D01*
X151721287Y-131591636D01*
X151721288Y-131591639D01*
X151777164Y-131701300D01*
X151790767Y-131727997D01*
X151803506Y-131752997D01*
X151909941Y-131899494D01*
X151909945Y-131899499D01*
X152038000Y-132027554D01*
X152038005Y-132027558D01*
X152120855Y-132087751D01*
X152184506Y-132133996D01*
X152289984Y-132187740D01*
X152345860Y-132216211D01*
X152345863Y-132216212D01*
X152369550Y-132223908D01*
X152518091Y-132272171D01*
X152600929Y-132285291D01*
X152696949Y-132300500D01*
X152696954Y-132300500D01*
X152878051Y-132300500D01*
X152964759Y-132286765D01*
X153056909Y-132272171D01*
X153229139Y-132216211D01*
X153390494Y-132133996D01*
X153537001Y-132027553D01*
X153665053Y-131899501D01*
X153683217Y-131874501D01*
X153713690Y-131832557D01*
X153722124Y-131820948D01*
X153777454Y-131778282D01*
X153847067Y-131772303D01*
X153908862Y-131804908D01*
X153943220Y-131865746D01*
X153945801Y-131881230D01*
X153947994Y-131902697D01*
X154003141Y-132069119D01*
X154003143Y-132069124D01*
X154095184Y-132218345D01*
X154219154Y-132342315D01*
X154368375Y-132434356D01*
X154368380Y-132434358D01*
X154534802Y-132489505D01*
X154534809Y-132489506D01*
X154637519Y-132499999D01*
X155037499Y-132499999D01*
X155037500Y-132499998D01*
X155037500Y-131433012D01*
X155094507Y-131465925D01*
X155221674Y-131500000D01*
X155353326Y-131500000D01*
X155480493Y-131465925D01*
X155537500Y-131433012D01*
X155537500Y-132499999D01*
X155937472Y-132499999D01*
X155937486Y-132499998D01*
X156040197Y-132489505D01*
X156206619Y-132434358D01*
X156206624Y-132434356D01*
X156355845Y-132342315D01*
X156479815Y-132218345D01*
X156571856Y-132069124D01*
X156571858Y-132069119D01*
X156627005Y-131902697D01*
X156627006Y-131902690D01*
X156637499Y-131799986D01*
X156637500Y-131799973D01*
X156637500Y-131250000D01*
X155720512Y-131250000D01*
X155753425Y-131192993D01*
X155787500Y-131065826D01*
X155787500Y-130934174D01*
X155753425Y-130807007D01*
X155720512Y-130750000D01*
X156637499Y-130750000D01*
X156637499Y-130200028D01*
X156637498Y-130200013D01*
X156627005Y-130097302D01*
X156571858Y-129930880D01*
X156571854Y-129930871D01*
X156546696Y-129890083D01*
X156546695Y-129890081D01*
X156508422Y-129828031D01*
X158499500Y-129828031D01*
X158499500Y-130171969D01*
X158505403Y-130231903D01*
X158533210Y-130514249D01*
X158600308Y-130851572D01*
X158700150Y-131180706D01*
X158831770Y-131498464D01*
X158831772Y-131498469D01*
X158993893Y-131801775D01*
X158993904Y-131801793D01*
X159184975Y-132087751D01*
X159184985Y-132087765D01*
X159403176Y-132353632D01*
X159646367Y-132596823D01*
X159646372Y-132596827D01*
X159646373Y-132596828D01*
X159912240Y-132815019D01*
X160198213Y-133006100D01*
X160198222Y-133006105D01*
X160198224Y-133006106D01*
X160501530Y-133168227D01*
X160501532Y-133168227D01*
X160501538Y-133168231D01*
X160819295Y-133299850D01*
X161148422Y-133399690D01*
X161485750Y-133466789D01*
X161828031Y-133500500D01*
X161828034Y-133500500D01*
X162171966Y-133500500D01*
X162171969Y-133500500D01*
X162514250Y-133466789D01*
X162851578Y-133399690D01*
X163180705Y-133299850D01*
X163498462Y-133168231D01*
X163801787Y-133006100D01*
X164087760Y-132815019D01*
X164353627Y-132596828D01*
X164596828Y-132353627D01*
X164815019Y-132087760D01*
X165006100Y-131801787D01*
X165168231Y-131498462D01*
X165299850Y-131180705D01*
X165399690Y-130851578D01*
X165466789Y-130514250D01*
X165500500Y-130171969D01*
X165500500Y-129828031D01*
X165466789Y-129485750D01*
X165399690Y-129148422D01*
X165299850Y-128819295D01*
X165168231Y-128501538D01*
X165006100Y-128198213D01*
X164815019Y-127912240D01*
X164596828Y-127646373D01*
X164596827Y-127646372D01*
X164596823Y-127646367D01*
X164353632Y-127403176D01*
X164087765Y-127184985D01*
X164087764Y-127184984D01*
X164087760Y-127184981D01*
X163801787Y-126993900D01*
X163801782Y-126993897D01*
X163801775Y-126993893D01*
X163498469Y-126831772D01*
X163498464Y-126831770D01*
X163492964Y-126829492D01*
X163372503Y-126779595D01*
X163180706Y-126700150D01*
X162851572Y-126600308D01*
X162514248Y-126533210D01*
X162514249Y-126533210D01*
X162256456Y-126507821D01*
X162171969Y-126499500D01*
X161828031Y-126499500D01*
X161749966Y-126507188D01*
X161485750Y-126533210D01*
X161148427Y-126600308D01*
X160819293Y-126700150D01*
X160501535Y-126831770D01*
X160501530Y-126831772D01*
X160198224Y-126993893D01*
X160198206Y-126993904D01*
X159912248Y-127184975D01*
X159912234Y-127184985D01*
X159646367Y-127403176D01*
X159403176Y-127646367D01*
X159184985Y-127912234D01*
X159184975Y-127912248D01*
X158993904Y-128198206D01*
X158993893Y-128198224D01*
X158831772Y-128501530D01*
X158831770Y-128501535D01*
X158700150Y-128819293D01*
X158600308Y-129148427D01*
X158533210Y-129485750D01*
X158508650Y-129735123D01*
X158499500Y-129828031D01*
X156508422Y-129828031D01*
X156479819Y-129781659D01*
X156479816Y-129781655D01*
X156355845Y-129657684D01*
X156206624Y-129565643D01*
X156206619Y-129565641D01*
X156040197Y-129510494D01*
X156040190Y-129510493D01*
X155937486Y-129500000D01*
X155537500Y-129500000D01*
X155537500Y-130566988D01*
X155480493Y-130534075D01*
X155353326Y-130500000D01*
X155221674Y-130500000D01*
X155094507Y-130534075D01*
X155037500Y-130566988D01*
X155037500Y-129500000D01*
X154637528Y-129500000D01*
X154637512Y-129500001D01*
X154534802Y-129510494D01*
X154368380Y-129565641D01*
X154368375Y-129565643D01*
X154219154Y-129657684D01*
X154095184Y-129781654D01*
X154003143Y-129930875D01*
X154003141Y-129930880D01*
X153947994Y-130097302D01*
X153947991Y-130097317D01*
X153945799Y-130118773D01*
X153919401Y-130183464D01*
X153862219Y-130223613D01*
X153792408Y-130226474D01*
X153732132Y-130191138D01*
X153722123Y-130179050D01*
X153716978Y-130171969D01*
X153696250Y-130143438D01*
X153665056Y-130100502D01*
X153536999Y-129972445D01*
X153536994Y-129972441D01*
X153390497Y-129866006D01*
X153390496Y-129866005D01*
X153390494Y-129866004D01*
X153338800Y-129839664D01*
X153229139Y-129783788D01*
X153229136Y-129783787D01*
X153056910Y-129727829D01*
X152878051Y-129699500D01*
X152878046Y-129699500D01*
X152696954Y-129699500D01*
X152696949Y-129699500D01*
X152518089Y-129727829D01*
X152345863Y-129783787D01*
X152345860Y-129783788D01*
X152184502Y-129866006D01*
X152038005Y-129972441D01*
X152038000Y-129972445D01*
X151909945Y-130100500D01*
X151909941Y-130100505D01*
X151803506Y-130247002D01*
X151721288Y-130408360D01*
X151721287Y-130408363D01*
X151665329Y-130580589D01*
X151637000Y-130759448D01*
X147400500Y-130759448D01*
X147400500Y-130231898D01*
X147389877Y-130143436D01*
X147334361Y-130002658D01*
X147334360Y-130002657D01*
X147334360Y-130002656D01*
X147242922Y-129882077D01*
X147122343Y-129790639D01*
X146981561Y-129735122D01*
X146935926Y-129729642D01*
X146893102Y-129724500D01*
X145606898Y-129724500D01*
X145567853Y-129729188D01*
X145518438Y-129735122D01*
X145377656Y-129790639D01*
X145257077Y-129882077D01*
X145165638Y-130002658D01*
X145114566Y-130132166D01*
X145071660Y-130187309D01*
X145005752Y-130210502D01*
X144937768Y-130194381D01*
X144898894Y-130159560D01*
X144779727Y-129995540D01*
X144779723Y-129995535D01*
X144629464Y-129845276D01*
X144629459Y-129845272D01*
X144457557Y-129720379D01*
X144268215Y-129623903D01*
X144066124Y-129558241D01*
X144000000Y-129547768D01*
X144000000Y-130595854D01*
X143933343Y-130557370D01*
X143812535Y-130525000D01*
X143687465Y-130525000D01*
X143566657Y-130557370D01*
X143500000Y-130595854D01*
X143500000Y-129547768D01*
X143499999Y-129547768D01*
X143433875Y-129558241D01*
X143231784Y-129623903D01*
X143042442Y-129720379D01*
X142870540Y-129845272D01*
X142870535Y-129845276D01*
X142720276Y-129995535D01*
X142720272Y-129995540D01*
X142595379Y-130167442D01*
X142498533Y-130357511D01*
X142450558Y-130408307D01*
X142382737Y-130425102D01*
X142316602Y-130402564D01*
X142277563Y-130357511D01*
X142233996Y-130272006D01*
X142181701Y-130200028D01*
X142127558Y-130125505D01*
X142127554Y-130125500D01*
X141999499Y-129997445D01*
X141999494Y-129997441D01*
X141852997Y-129891006D01*
X141852996Y-129891005D01*
X141852994Y-129891004D01*
X141801300Y-129864664D01*
X141691639Y-129808788D01*
X141691636Y-129808787D01*
X141519410Y-129752829D01*
X141340551Y-129724500D01*
X141340546Y-129724500D01*
X141159454Y-129724500D01*
X141159449Y-129724500D01*
X140980589Y-129752829D01*
X140808363Y-129808787D01*
X140808360Y-129808788D01*
X140647002Y-129891006D01*
X140500505Y-129997441D01*
X140500500Y-129997445D01*
X140372445Y-130125500D01*
X140372441Y-130125505D01*
X140266006Y-130272002D01*
X140183788Y-130433360D01*
X140183787Y-130433363D01*
X140127829Y-130605589D01*
X140122473Y-130639406D01*
X140092543Y-130702540D01*
X140033232Y-130739471D01*
X139963369Y-130738473D01*
X139905137Y-130699863D01*
X139877527Y-130639406D01*
X139874438Y-130619905D01*
X139872171Y-130605591D01*
X139842493Y-130514249D01*
X139816212Y-130433363D01*
X139816211Y-130433360D01*
X139777563Y-130357511D01*
X139733996Y-130272006D01*
X139681701Y-130200028D01*
X139627558Y-130125505D01*
X139627554Y-130125500D01*
X139499499Y-129997445D01*
X139499494Y-129997441D01*
X139352997Y-129891006D01*
X139352996Y-129891005D01*
X139352994Y-129891004D01*
X139301300Y-129864664D01*
X139191639Y-129808788D01*
X139191636Y-129808787D01*
X139019410Y-129752829D01*
X138840551Y-129724500D01*
X138840546Y-129724500D01*
X138659454Y-129724500D01*
X138659449Y-129724500D01*
X138480589Y-129752829D01*
X138308363Y-129808787D01*
X138308360Y-129808788D01*
X138147002Y-129891006D01*
X138000505Y-129997441D01*
X138000500Y-129997445D01*
X137872445Y-130125500D01*
X137872441Y-130125505D01*
X137766006Y-130272002D01*
X137683788Y-130433360D01*
X137683787Y-130433363D01*
X137627829Y-130605589D01*
X137622473Y-130639406D01*
X137592543Y-130702540D01*
X137533232Y-130739471D01*
X137463369Y-130738473D01*
X137405137Y-130699863D01*
X137377527Y-130639406D01*
X137374438Y-130619905D01*
X137372171Y-130605591D01*
X137342493Y-130514249D01*
X137316212Y-130433363D01*
X137316211Y-130433360D01*
X137277563Y-130357511D01*
X137233996Y-130272006D01*
X137181701Y-130200028D01*
X137127558Y-130125505D01*
X137127554Y-130125500D01*
X136999499Y-129997445D01*
X136999494Y-129997441D01*
X136852997Y-129891006D01*
X136852996Y-129891005D01*
X136852994Y-129891004D01*
X136801300Y-129864664D01*
X136691639Y-129808788D01*
X136691636Y-129808787D01*
X136519410Y-129752829D01*
X136340551Y-129724500D01*
X136340546Y-129724500D01*
X136159454Y-129724500D01*
X136159449Y-129724500D01*
X135980589Y-129752829D01*
X135808363Y-129808787D01*
X135808360Y-129808788D01*
X135647002Y-129891006D01*
X135500505Y-129997441D01*
X135500500Y-129997445D01*
X135372445Y-130125500D01*
X135372441Y-130125505D01*
X135266006Y-130272002D01*
X135183788Y-130433360D01*
X135183787Y-130433363D01*
X135127829Y-130605589D01*
X135122473Y-130639406D01*
X135092543Y-130702540D01*
X135033232Y-130739471D01*
X134963369Y-130738473D01*
X134905137Y-130699863D01*
X134877527Y-130639406D01*
X134874438Y-130619905D01*
X134872171Y-130605591D01*
X134842493Y-130514249D01*
X134816212Y-130433363D01*
X134816211Y-130433360D01*
X134777563Y-130357511D01*
X134733996Y-130272006D01*
X134681701Y-130200028D01*
X134627558Y-130125505D01*
X134627554Y-130125500D01*
X134499499Y-129997445D01*
X134499494Y-129997441D01*
X134352997Y-129891006D01*
X134352996Y-129891005D01*
X134352994Y-129891004D01*
X134301300Y-129864664D01*
X134191639Y-129808788D01*
X134191636Y-129808787D01*
X134019410Y-129752829D01*
X133840551Y-129724500D01*
X133840546Y-129724500D01*
X133659454Y-129724500D01*
X133659449Y-129724500D01*
X133480589Y-129752829D01*
X133308363Y-129808787D01*
X133308360Y-129808788D01*
X133147002Y-129891006D01*
X133000505Y-129997441D01*
X133000500Y-129997445D01*
X132872445Y-130125500D01*
X132872441Y-130125505D01*
X132766006Y-130272002D01*
X132683788Y-130433360D01*
X132683787Y-130433363D01*
X132627829Y-130605589D01*
X132599500Y-130784448D01*
X130413043Y-130784448D01*
X130466789Y-130514250D01*
X130500500Y-130171969D01*
X130500500Y-129828031D01*
X130466789Y-129485750D01*
X130399690Y-129148422D01*
X130299850Y-128819295D01*
X130168231Y-128501538D01*
X130006100Y-128198213D01*
X129815019Y-127912240D01*
X129596828Y-127646373D01*
X129596827Y-127646372D01*
X129596823Y-127646367D01*
X129481273Y-127530817D01*
X138274500Y-127530817D01*
X138274500Y-127669183D01*
X138302988Y-127775500D01*
X138310312Y-127802835D01*
X138310313Y-127802838D01*
X138379492Y-127922661D01*
X138379494Y-127922664D01*
X138379495Y-127922665D01*
X138477335Y-128020505D01*
X138597164Y-128089688D01*
X138730817Y-128125500D01*
X138730819Y-128125500D01*
X138869181Y-128125500D01*
X138869183Y-128125500D01*
X139002836Y-128089688D01*
X139122665Y-128020505D01*
X139220505Y-127922665D01*
X139289688Y-127802836D01*
X139325500Y-127669183D01*
X139325500Y-127530817D01*
X139289688Y-127397164D01*
X139227637Y-127289688D01*
X139220507Y-127277338D01*
X139220503Y-127277333D01*
X139122666Y-127179496D01*
X139122661Y-127179492D01*
X139002838Y-127110313D01*
X139002837Y-127110312D01*
X139002836Y-127110312D01*
X138869183Y-127074500D01*
X138730817Y-127074500D01*
X138597164Y-127110312D01*
X138597161Y-127110313D01*
X138477338Y-127179492D01*
X138477333Y-127179496D01*
X138379496Y-127277333D01*
X138379492Y-127277338D01*
X138310313Y-127397161D01*
X138310312Y-127397164D01*
X138274500Y-127530817D01*
X129481273Y-127530817D01*
X129353632Y-127403176D01*
X129087765Y-127184985D01*
X129087764Y-127184984D01*
X129087760Y-127184981D01*
X128801787Y-126993900D01*
X128801782Y-126993897D01*
X128801775Y-126993893D01*
X128498469Y-126831772D01*
X128498464Y-126831770D01*
X128492972Y-126829495D01*
X128295663Y-126747767D01*
X128180706Y-126700150D01*
X128116974Y-126680817D01*
X131974500Y-126680817D01*
X131974500Y-126819183D01*
X131987898Y-126869183D01*
X132010312Y-126952835D01*
X132010313Y-126952838D01*
X132079492Y-127072661D01*
X132079494Y-127072664D01*
X132079495Y-127072665D01*
X132177335Y-127170505D01*
X132297164Y-127239688D01*
X132430817Y-127275500D01*
X132430819Y-127275500D01*
X132569181Y-127275500D01*
X132569183Y-127275500D01*
X132702836Y-127239688D01*
X132822665Y-127170505D01*
X132920505Y-127072665D01*
X132989688Y-126952836D01*
X133025500Y-126819183D01*
X133025500Y-126680817D01*
X132989688Y-126547164D01*
X132920505Y-126427335D01*
X132822665Y-126329495D01*
X132822664Y-126329494D01*
X132822661Y-126329492D01*
X132702838Y-126260313D01*
X132702837Y-126260312D01*
X132702836Y-126260312D01*
X132569183Y-126224500D01*
X132430817Y-126224500D01*
X132297164Y-126260312D01*
X132297161Y-126260313D01*
X132177338Y-126329492D01*
X132177333Y-126329496D01*
X132079496Y-126427333D01*
X132079492Y-126427338D01*
X132010313Y-126547161D01*
X132010312Y-126547164D01*
X131974500Y-126680817D01*
X128116974Y-126680817D01*
X127851572Y-126600308D01*
X127514248Y-126533210D01*
X127514249Y-126533210D01*
X127256456Y-126507821D01*
X127171969Y-126499500D01*
X126828031Y-126499500D01*
X126749966Y-126507188D01*
X126485750Y-126533210D01*
X126148427Y-126600308D01*
X125819293Y-126700150D01*
X125501535Y-126831770D01*
X125501530Y-126831772D01*
X125198224Y-126993893D01*
X125198206Y-126993904D01*
X124912248Y-127184975D01*
X124912234Y-127184985D01*
X124646367Y-127403176D01*
X124403176Y-127646367D01*
X124184985Y-127912234D01*
X124184975Y-127912248D01*
X123993904Y-128198206D01*
X123993893Y-128198224D01*
X123831772Y-128501530D01*
X123831770Y-128501535D01*
X123700150Y-128819293D01*
X123600308Y-129148427D01*
X123533210Y-129485750D01*
X123508650Y-129735123D01*
X123499500Y-129828031D01*
X123037533Y-129828031D01*
X123033091Y-123430817D01*
X130074500Y-123430817D01*
X130074500Y-123569183D01*
X130088831Y-123622665D01*
X130110312Y-123702835D01*
X130110313Y-123702838D01*
X130179492Y-123822661D01*
X130179494Y-123822664D01*
X130179495Y-123822665D01*
X130277335Y-123920505D01*
X130397164Y-123989688D01*
X130530817Y-124025500D01*
X130530819Y-124025500D01*
X130669181Y-124025500D01*
X130669183Y-124025500D01*
X130802836Y-123989688D01*
X130922665Y-123920505D01*
X131020505Y-123822665D01*
X131089688Y-123702836D01*
X131125500Y-123569183D01*
X131125500Y-123430817D01*
X131089688Y-123297164D01*
X131020505Y-123177335D01*
X130922665Y-123079495D01*
X130922664Y-123079494D01*
X130922661Y-123079492D01*
X130802838Y-123010313D01*
X130802837Y-123010312D01*
X130802836Y-123010312D01*
X130669183Y-122974500D01*
X130530817Y-122974500D01*
X130397164Y-123010312D01*
X130397161Y-123010313D01*
X130277338Y-123079492D01*
X130277333Y-123079496D01*
X130179496Y-123177333D01*
X130179492Y-123177338D01*
X130110313Y-123297161D01*
X130110312Y-123297164D01*
X130074500Y-123430817D01*
X123033091Y-123430817D01*
X123032084Y-121980589D01*
X123031980Y-121830817D01*
X130074500Y-121830817D01*
X130074500Y-121969183D01*
X130107878Y-122093750D01*
X130110312Y-122102835D01*
X130110313Y-122102838D01*
X130179492Y-122222661D01*
X130179494Y-122222664D01*
X130179495Y-122222665D01*
X130277335Y-122320505D01*
X130397164Y-122389688D01*
X130530817Y-122425500D01*
X130530819Y-122425500D01*
X130669181Y-122425500D01*
X130669183Y-122425500D01*
X130802836Y-122389688D01*
X130922665Y-122320505D01*
X131020505Y-122222665D01*
X131089688Y-122102836D01*
X131125500Y-121969183D01*
X131125500Y-121830817D01*
X131089688Y-121697164D01*
X131020505Y-121577335D01*
X130922665Y-121479495D01*
X130922664Y-121479494D01*
X130922661Y-121479492D01*
X130802838Y-121410313D01*
X130802837Y-121410312D01*
X130802836Y-121410312D01*
X130669183Y-121374500D01*
X130530817Y-121374500D01*
X130397164Y-121410312D01*
X130397161Y-121410313D01*
X130277338Y-121479492D01*
X130277333Y-121479496D01*
X130179496Y-121577333D01*
X130179492Y-121577338D01*
X130110313Y-121697161D01*
X130110312Y-121697164D01*
X130074500Y-121830817D01*
X123031980Y-121830817D01*
X123031974Y-121822776D01*
X123031852Y-121647002D01*
X123031006Y-120429584D01*
X123050644Y-120362533D01*
X123103416Y-120316741D01*
X123155006Y-120305500D01*
X136970500Y-120305500D01*
X137037539Y-120325185D01*
X137083294Y-120377989D01*
X137094500Y-120429500D01*
X137094500Y-122270500D01*
X137074815Y-122337539D01*
X137022011Y-122383294D01*
X136970500Y-122394500D01*
X133624000Y-122394500D01*
X133623991Y-122394500D01*
X133623990Y-122394501D01*
X133559064Y-122401481D01*
X133559052Y-122401483D01*
X133507546Y-122412688D01*
X133469345Y-122423644D01*
X133469341Y-122423646D01*
X133372431Y-122480323D01*
X133372428Y-122480325D01*
X133319623Y-122526081D01*
X133319612Y-122526091D01*
X133277451Y-122570807D01*
X133277445Y-122570816D01*
X133226560Y-122670890D01*
X133206877Y-122737921D01*
X133206876Y-122737928D01*
X133201618Y-122774500D01*
X133194500Y-122824002D01*
X133194500Y-126277211D01*
X133201166Y-126340682D01*
X133211873Y-126391089D01*
X133211877Y-126391104D01*
X133222146Y-126427930D01*
X133222147Y-126427932D01*
X133222148Y-126427934D01*
X133277874Y-126525399D01*
X133277878Y-126525403D01*
X133277881Y-126525408D01*
X133279989Y-126527889D01*
X133323109Y-126578649D01*
X133323117Y-126578656D01*
X133323121Y-126578661D01*
X133367425Y-126621262D01*
X133367428Y-126621264D01*
X133467003Y-126673130D01*
X133487060Y-126679233D01*
X133533844Y-126693470D01*
X133533843Y-126693470D01*
X133547061Y-126695502D01*
X133619789Y-126706688D01*
X141056563Y-126779595D01*
X141123404Y-126799936D01*
X141168639Y-126853186D01*
X141175119Y-126871493D01*
X141196914Y-126952835D01*
X141210312Y-127002835D01*
X141210313Y-127002838D01*
X141279492Y-127122661D01*
X141279494Y-127122663D01*
X141279495Y-127122665D01*
X141377335Y-127220505D01*
X141377336Y-127220506D01*
X141377338Y-127220507D01*
X141410559Y-127239687D01*
X141497164Y-127289688D01*
X141630817Y-127325500D01*
X141630819Y-127325500D01*
X141769181Y-127325500D01*
X141769183Y-127325500D01*
X141902836Y-127289688D01*
X142022665Y-127220505D01*
X142062353Y-127180817D01*
X148474500Y-127180817D01*
X148474500Y-127319183D01*
X148476193Y-127325499D01*
X148510312Y-127452835D01*
X148510313Y-127452838D01*
X148579492Y-127572661D01*
X148579494Y-127572664D01*
X148579495Y-127572665D01*
X148677335Y-127670505D01*
X148797164Y-127739688D01*
X148930817Y-127775500D01*
X148930819Y-127775500D01*
X149069181Y-127775500D01*
X149069183Y-127775500D01*
X149202836Y-127739688D01*
X149322665Y-127670505D01*
X149420505Y-127572665D01*
X149489688Y-127452836D01*
X149525500Y-127319183D01*
X149525500Y-127180817D01*
X149489688Y-127047164D01*
X149435228Y-126952836D01*
X149420507Y-126927338D01*
X149420503Y-126927333D01*
X149322666Y-126829496D01*
X149322661Y-126829492D01*
X149202838Y-126760313D01*
X149202837Y-126760312D01*
X149202836Y-126760312D01*
X149069183Y-126724500D01*
X148930817Y-126724500D01*
X148797164Y-126760312D01*
X148797161Y-126760313D01*
X148677338Y-126829492D01*
X148677333Y-126829496D01*
X148579496Y-126927333D01*
X148579492Y-126927338D01*
X148510313Y-127047161D01*
X148510312Y-127047164D01*
X148474500Y-127180817D01*
X142062353Y-127180817D01*
X142120505Y-127122665D01*
X142189688Y-127002836D01*
X142221502Y-126884102D01*
X142257866Y-126824444D01*
X142320713Y-126793915D01*
X142342491Y-126792204D01*
X143571789Y-126804257D01*
X143638261Y-126797605D01*
X143690988Y-126786405D01*
X143730658Y-126775132D01*
X143827571Y-126718453D01*
X143880375Y-126672698D01*
X143880382Y-126672690D01*
X143880387Y-126672686D01*
X143922548Y-126627970D01*
X143922553Y-126627965D01*
X143973439Y-126527889D01*
X143993124Y-126460850D01*
X144005500Y-126374778D01*
X144005500Y-125530817D01*
X145474500Y-125530817D01*
X145474500Y-125669182D01*
X145510312Y-125802835D01*
X145510313Y-125802838D01*
X145579492Y-125922661D01*
X145579494Y-125922664D01*
X145579495Y-125922665D01*
X145677335Y-126020505D01*
X145797164Y-126089688D01*
X145930817Y-126125500D01*
X145930819Y-126125500D01*
X146069181Y-126125500D01*
X146069183Y-126125500D01*
X146202836Y-126089688D01*
X146322665Y-126020505D01*
X146420505Y-125922665D01*
X146489688Y-125802836D01*
X146525500Y-125669183D01*
X146525500Y-125530817D01*
X146489688Y-125397164D01*
X146420505Y-125277335D01*
X146322665Y-125179495D01*
X146322664Y-125179494D01*
X146322661Y-125179492D01*
X146202838Y-125110313D01*
X146202837Y-125110312D01*
X146202836Y-125110312D01*
X146069183Y-125074500D01*
X145930817Y-125074500D01*
X145797164Y-125110312D01*
X145797161Y-125110313D01*
X145677338Y-125179492D01*
X145677333Y-125179496D01*
X145579496Y-125277333D01*
X145579492Y-125277338D01*
X145510313Y-125397161D01*
X145510312Y-125397164D01*
X145474500Y-125530817D01*
X144005500Y-125530817D01*
X144005500Y-124930817D01*
X156224500Y-124930817D01*
X156224500Y-125069183D01*
X156235521Y-125110312D01*
X156260312Y-125202835D01*
X156260313Y-125202838D01*
X156329492Y-125322661D01*
X156329494Y-125322664D01*
X156329495Y-125322665D01*
X156427335Y-125420505D01*
X156547164Y-125489688D01*
X156680817Y-125525500D01*
X156680819Y-125525500D01*
X156819181Y-125525500D01*
X156819183Y-125525500D01*
X156952836Y-125489688D01*
X157072665Y-125420505D01*
X157170505Y-125322665D01*
X157239688Y-125202836D01*
X157275500Y-125069183D01*
X157275500Y-124930817D01*
X157239688Y-124797164D01*
X157170505Y-124677335D01*
X157072665Y-124579495D01*
X157072664Y-124579494D01*
X157072661Y-124579492D01*
X156952838Y-124510313D01*
X156952837Y-124510312D01*
X156952836Y-124510312D01*
X156819183Y-124474500D01*
X156680817Y-124474500D01*
X156547164Y-124510312D01*
X156547161Y-124510313D01*
X156427338Y-124579492D01*
X156427333Y-124579496D01*
X156329496Y-124677333D01*
X156329492Y-124677338D01*
X156260313Y-124797161D01*
X156260312Y-124797164D01*
X156224500Y-124930817D01*
X144005500Y-124930817D01*
X144005500Y-123230817D01*
X153074500Y-123230817D01*
X153074500Y-123369183D01*
X153082892Y-123400500D01*
X153110312Y-123502835D01*
X153110313Y-123502838D01*
X153179492Y-123622661D01*
X153179494Y-123622664D01*
X153179495Y-123622665D01*
X153277335Y-123720505D01*
X153397164Y-123789688D01*
X153530817Y-123825500D01*
X153530819Y-123825500D01*
X153669181Y-123825500D01*
X153669183Y-123825500D01*
X153802836Y-123789688D01*
X153922665Y-123720505D01*
X154020505Y-123622665D01*
X154089688Y-123502836D01*
X154125500Y-123369183D01*
X154125500Y-123230817D01*
X154089688Y-123097164D01*
X154039544Y-123010312D01*
X154020507Y-122977338D01*
X154020503Y-122977333D01*
X153922666Y-122879496D01*
X153922661Y-122879492D01*
X153802838Y-122810313D01*
X153802837Y-122810312D01*
X153802836Y-122810312D01*
X153669183Y-122774500D01*
X153530817Y-122774500D01*
X153397164Y-122810312D01*
X153397161Y-122810313D01*
X153277338Y-122879492D01*
X153277333Y-122879496D01*
X153179496Y-122977333D01*
X153179492Y-122977338D01*
X153110313Y-123097161D01*
X153110312Y-123097164D01*
X153074500Y-123230817D01*
X144005500Y-123230817D01*
X144005500Y-122326566D01*
X144025185Y-122259527D01*
X144077989Y-122213772D01*
X144128648Y-122202569D01*
X157159658Y-122113317D01*
X157169514Y-122113090D01*
X157177511Y-122112777D01*
X157272325Y-122093749D01*
X157337789Y-122069332D01*
X157392938Y-122042160D01*
X157419252Y-122017968D01*
X157481924Y-121987088D01*
X157551345Y-121994993D01*
X157587621Y-122018455D01*
X157589844Y-122020522D01*
X157597210Y-122027373D01*
X157697633Y-122077572D01*
X157764806Y-122096797D01*
X157764813Y-122096798D01*
X157764810Y-122096798D01*
X157797889Y-122101322D01*
X157850958Y-122108582D01*
X158178941Y-122106336D01*
X158242811Y-122099137D01*
X158293473Y-122087934D01*
X158330658Y-122077200D01*
X158427571Y-122020521D01*
X158480375Y-121974766D01*
X158480382Y-121974758D01*
X158480387Y-121974754D01*
X158522548Y-121930038D01*
X158522553Y-121930033D01*
X158573439Y-121829957D01*
X158593124Y-121762918D01*
X158605500Y-121676846D01*
X158605500Y-117000000D01*
X161335269Y-117000000D01*
X162383354Y-117000000D01*
X162344870Y-117066657D01*
X162312500Y-117187465D01*
X162312500Y-117312535D01*
X162344870Y-117433343D01*
X162383354Y-117500000D01*
X161335269Y-117500000D01*
X161345742Y-117566126D01*
X161345742Y-117566129D01*
X161411404Y-117768217D01*
X161507879Y-117957557D01*
X161632772Y-118129459D01*
X161632776Y-118129464D01*
X161783035Y-118279723D01*
X161783040Y-118279727D01*
X161954942Y-118404620D01*
X162145011Y-118501466D01*
X162195807Y-118549441D01*
X162212602Y-118617262D01*
X162190065Y-118683397D01*
X162145012Y-118722435D01*
X162059504Y-118766004D01*
X161913005Y-118872441D01*
X161913000Y-118872445D01*
X161784945Y-119000500D01*
X161784941Y-119000505D01*
X161678506Y-119147002D01*
X161596288Y-119308360D01*
X161596287Y-119308363D01*
X161540329Y-119480589D01*
X161512000Y-119659448D01*
X161512000Y-119840551D01*
X161540329Y-120019410D01*
X161596287Y-120191636D01*
X161596288Y-120191639D01*
X161678506Y-120352997D01*
X161784941Y-120499494D01*
X161784945Y-120499499D01*
X161913000Y-120627554D01*
X161913005Y-120627558D01*
X162040787Y-120720396D01*
X162059506Y-120733996D01*
X162164984Y-120787740D01*
X162220860Y-120816211D01*
X162220863Y-120816212D01*
X162306976Y-120844191D01*
X162393091Y-120872171D01*
X162417791Y-120876083D01*
X162426906Y-120877527D01*
X162490040Y-120907457D01*
X162526971Y-120966768D01*
X162525973Y-121036631D01*
X162487363Y-121094863D01*
X162426906Y-121122473D01*
X162393089Y-121127829D01*
X162220863Y-121183787D01*
X162220860Y-121183788D01*
X162059502Y-121266006D01*
X161913005Y-121372441D01*
X161913000Y-121372445D01*
X161784945Y-121500500D01*
X161784941Y-121500505D01*
X161678506Y-121647002D01*
X161596288Y-121808360D01*
X161596287Y-121808363D01*
X161540329Y-121980589D01*
X161512000Y-122159448D01*
X161512000Y-122340551D01*
X161540329Y-122519410D01*
X161596287Y-122691636D01*
X161596288Y-122691639D01*
X161678506Y-122852997D01*
X161784941Y-122999494D01*
X161784945Y-122999499D01*
X161913000Y-123127554D01*
X161913005Y-123127558D01*
X162040787Y-123220396D01*
X162059506Y-123233996D01*
X162164984Y-123287740D01*
X162220860Y-123316211D01*
X162220863Y-123316212D01*
X162306976Y-123344191D01*
X162393091Y-123372171D01*
X162475929Y-123385291D01*
X162571949Y-123400500D01*
X162571954Y-123400500D01*
X163003051Y-123400500D01*
X163089759Y-123386765D01*
X163181909Y-123372171D01*
X163354139Y-123316211D01*
X163515494Y-123233996D01*
X163662001Y-123127553D01*
X163790053Y-122999501D01*
X163896496Y-122852994D01*
X163978711Y-122691639D01*
X164034671Y-122519409D01*
X164053349Y-122401481D01*
X164063000Y-122340551D01*
X164063000Y-122159448D01*
X164046519Y-122055397D01*
X164034671Y-121980591D01*
X163986008Y-121830819D01*
X163978712Y-121808363D01*
X163978711Y-121808360D01*
X163950240Y-121752484D01*
X163896496Y-121647006D01*
X163845880Y-121577338D01*
X163790058Y-121500505D01*
X163790054Y-121500500D01*
X163661999Y-121372445D01*
X163661994Y-121372441D01*
X163515497Y-121266006D01*
X163515496Y-121266005D01*
X163515494Y-121266004D01*
X163453076Y-121234200D01*
X163354139Y-121183788D01*
X163354136Y-121183787D01*
X163181910Y-121127829D01*
X163148094Y-121122473D01*
X163084959Y-121092544D01*
X163048028Y-121033232D01*
X163049026Y-120963370D01*
X163087636Y-120905137D01*
X163148094Y-120877527D01*
X163155888Y-120876292D01*
X163181909Y-120872171D01*
X163354139Y-120816211D01*
X163515494Y-120733996D01*
X163662001Y-120627553D01*
X163790053Y-120499501D01*
X163896496Y-120352994D01*
X163978711Y-120191639D01*
X164034671Y-120019409D01*
X164049265Y-119927259D01*
X164063000Y-119840551D01*
X164063000Y-119659448D01*
X164046519Y-119555397D01*
X164034671Y-119480591D01*
X163978711Y-119308361D01*
X163978711Y-119308360D01*
X163950240Y-119252484D01*
X163896496Y-119147006D01*
X163882896Y-119128287D01*
X163790058Y-119000505D01*
X163790054Y-119000500D01*
X163661999Y-118872445D01*
X163661994Y-118872441D01*
X163515493Y-118766003D01*
X163515492Y-118766002D01*
X163429988Y-118722435D01*
X163379192Y-118674461D01*
X163362397Y-118606640D01*
X163384935Y-118540505D01*
X163429988Y-118501466D01*
X163620058Y-118404620D01*
X163791959Y-118279727D01*
X163791964Y-118279723D01*
X163942223Y-118129464D01*
X163942227Y-118129459D01*
X164067120Y-117957557D01*
X164163595Y-117768217D01*
X164229257Y-117566129D01*
X164229257Y-117566126D01*
X164239731Y-117500000D01*
X163191646Y-117500000D01*
X163230130Y-117433343D01*
X163262500Y-117312535D01*
X163262500Y-117187465D01*
X163230130Y-117066657D01*
X163191646Y-117000000D01*
X164239731Y-117000000D01*
X164229257Y-116933873D01*
X164229257Y-116933870D01*
X164163595Y-116731782D01*
X164067120Y-116542442D01*
X163942227Y-116370540D01*
X163942223Y-116370535D01*
X163791964Y-116220276D01*
X163791959Y-116220272D01*
X163627939Y-116101105D01*
X163585273Y-116045775D01*
X163579294Y-115976162D01*
X163611899Y-115914367D01*
X163655331Y-115885433D01*
X163784842Y-115834361D01*
X163905422Y-115742922D01*
X163996861Y-115622342D01*
X164052377Y-115481564D01*
X164063000Y-115393102D01*
X164063000Y-114106898D01*
X164052377Y-114018436D01*
X163996861Y-113877658D01*
X163996860Y-113877657D01*
X163996860Y-113877656D01*
X163905422Y-113757077D01*
X163784843Y-113665639D01*
X163644061Y-113610122D01*
X163598426Y-113604642D01*
X163555602Y-113599500D01*
X162019398Y-113599500D01*
X161980353Y-113604188D01*
X161930938Y-113610122D01*
X161790156Y-113665639D01*
X161669577Y-113757077D01*
X161578139Y-113877656D01*
X161522622Y-114018438D01*
X161516688Y-114067853D01*
X161512000Y-114106898D01*
X161512000Y-115393102D01*
X161517626Y-115439954D01*
X161522622Y-115481561D01*
X161578139Y-115622343D01*
X161669577Y-115742922D01*
X161790158Y-115834361D01*
X161790160Y-115834362D01*
X161919665Y-115885433D01*
X161974809Y-115928338D01*
X161998002Y-115994246D01*
X161981881Y-116062231D01*
X161947060Y-116101105D01*
X161783040Y-116220272D01*
X161783035Y-116220276D01*
X161632776Y-116370535D01*
X161632772Y-116370540D01*
X161507879Y-116542442D01*
X161411404Y-116731782D01*
X161345742Y-116933870D01*
X161345742Y-116933873D01*
X161335269Y-117000000D01*
X158605500Y-117000000D01*
X158605500Y-114510865D01*
X158625185Y-114443826D01*
X158677989Y-114398071D01*
X158747147Y-114388127D01*
X158810703Y-114417152D01*
X158836885Y-114448863D01*
X158879495Y-114522665D01*
X158977335Y-114620505D01*
X159097164Y-114689688D01*
X159230817Y-114725500D01*
X159230819Y-114725500D01*
X159369181Y-114725500D01*
X159369183Y-114725500D01*
X159502836Y-114689688D01*
X159622665Y-114620505D01*
X159720505Y-114522665D01*
X159789688Y-114402836D01*
X159825500Y-114269183D01*
X159825500Y-114130817D01*
X159789688Y-113997164D01*
X159727317Y-113889134D01*
X159720507Y-113877338D01*
X159720503Y-113877333D01*
X159622666Y-113779496D01*
X159622661Y-113779492D01*
X159502838Y-113710313D01*
X159502837Y-113710312D01*
X159502836Y-113710312D01*
X159369183Y-113674500D01*
X159230817Y-113674500D01*
X159097164Y-113710312D01*
X159097161Y-113710313D01*
X158977338Y-113779492D01*
X158977333Y-113779496D01*
X158879496Y-113877333D01*
X158879492Y-113877338D01*
X158836887Y-113951134D01*
X158786320Y-113999349D01*
X158717713Y-114012573D01*
X158652849Y-113986605D01*
X158612320Y-113929691D01*
X158605500Y-113889134D01*
X158605500Y-111829500D01*
X158625185Y-111762461D01*
X158677989Y-111716706D01*
X158729500Y-111705500D01*
X165925965Y-111705500D01*
X165993004Y-111725185D01*
G37*
%TD.AperFunction*%
%TD*%
%TA.AperFunction,Conductor*%
%TO.N,+3.3V*%
G36*
X162590532Y-55000648D02*
G01*
X162924429Y-55017052D01*
X162936537Y-55018245D01*
X163039646Y-55033539D01*
X163264199Y-55066849D01*
X163276117Y-55069219D01*
X163597451Y-55149709D01*
X163609088Y-55153240D01*
X163680306Y-55178722D01*
X163920967Y-55264832D01*
X163932188Y-55269479D01*
X164231663Y-55411120D01*
X164242371Y-55416844D01*
X164526488Y-55587137D01*
X164536603Y-55593895D01*
X164588319Y-55632250D01*
X164802670Y-55791224D01*
X164812076Y-55798944D01*
X165057513Y-56021395D01*
X165066104Y-56029986D01*
X165111235Y-56079780D01*
X165288555Y-56275423D01*
X165296275Y-56284829D01*
X165493602Y-56550893D01*
X165500362Y-56561011D01*
X165647213Y-56806018D01*
X165670648Y-56845116D01*
X165676383Y-56855844D01*
X165813854Y-57146503D01*
X165818014Y-57155297D01*
X165822670Y-57166540D01*
X165934259Y-57478411D01*
X165937792Y-57490055D01*
X166018277Y-57811369D01*
X166020651Y-57823305D01*
X166069254Y-58150962D01*
X166070447Y-58163072D01*
X166086848Y-58496923D01*
X166086997Y-58503093D01*
X166063447Y-92416080D01*
X166050442Y-111143984D01*
X166050350Y-111276086D01*
X166030619Y-111343112D01*
X165977783Y-111388830D01*
X165926350Y-111400000D01*
X158300000Y-111400000D01*
X158300000Y-121676846D01*
X158280315Y-121743885D01*
X158227511Y-121789640D01*
X158176849Y-121800843D01*
X157848866Y-121803089D01*
X157781693Y-121783864D01*
X157735578Y-121731375D01*
X157725161Y-121662286D01*
X157753750Y-121598533D01*
X157760336Y-121591410D01*
X157761258Y-121590487D01*
X157761263Y-121590485D01*
X157840485Y-121511263D01*
X157896503Y-121414237D01*
X157925500Y-121306018D01*
X157925500Y-121193982D01*
X157896503Y-121085763D01*
X157840485Y-120988737D01*
X157761263Y-120909515D01*
X157664237Y-120853497D01*
X157556018Y-120824500D01*
X157443982Y-120824500D01*
X157335763Y-120853497D01*
X157335760Y-120853498D01*
X157238740Y-120909513D01*
X157238734Y-120909517D01*
X157159517Y-120988734D01*
X157159513Y-120988740D01*
X157103498Y-121085760D01*
X157103497Y-121085763D01*
X157074500Y-121193982D01*
X157074500Y-121306018D01*
X157103497Y-121414237D01*
X157159515Y-121511263D01*
X157159517Y-121511265D01*
X157244398Y-121596146D01*
X157277883Y-121657469D01*
X157272899Y-121727161D01*
X157231027Y-121783094D01*
X157165563Y-121807511D01*
X157157566Y-121807824D01*
X143700000Y-121899999D01*
X143700000Y-126374778D01*
X143680315Y-126441817D01*
X143627511Y-126487572D01*
X143574784Y-126498772D01*
X142033616Y-126483662D01*
X141966773Y-126463321D01*
X141962077Y-126459985D01*
X141864239Y-126403498D01*
X141864238Y-126403497D01*
X141864237Y-126403497D01*
X141756018Y-126374500D01*
X141643982Y-126374500D01*
X141535763Y-126403497D01*
X141535762Y-126403497D01*
X141436882Y-126460585D01*
X141373667Y-126477191D01*
X133622784Y-126401203D01*
X133555941Y-126380862D01*
X133510706Y-126327612D01*
X133500000Y-126277209D01*
X133500000Y-123843982D01*
X142174500Y-123843982D01*
X142174500Y-123956018D01*
X142203497Y-124064237D01*
X142259515Y-124161263D01*
X142338737Y-124240485D01*
X142435763Y-124296503D01*
X142543982Y-124325500D01*
X142543984Y-124325500D01*
X142656016Y-124325500D01*
X142656018Y-124325500D01*
X142764237Y-124296503D01*
X142861263Y-124240485D01*
X142940485Y-124161263D01*
X142996503Y-124064237D01*
X143025500Y-123956018D01*
X143025500Y-123843982D01*
X142996503Y-123735763D01*
X142940485Y-123638737D01*
X142861263Y-123559515D01*
X142764237Y-123503497D01*
X142656018Y-123474500D01*
X142543982Y-123474500D01*
X142435763Y-123503497D01*
X142435760Y-123503498D01*
X142338740Y-123559513D01*
X142338734Y-123559517D01*
X142259517Y-123638734D01*
X142259513Y-123638740D01*
X142203498Y-123735760D01*
X142203497Y-123735763D01*
X142174500Y-123843982D01*
X133500000Y-123843982D01*
X133500000Y-122824000D01*
X133519685Y-122756961D01*
X133572489Y-122711206D01*
X133624000Y-122700000D01*
X137400000Y-122700000D01*
X137400000Y-120000000D01*
X123154623Y-120000000D01*
X123087584Y-119980315D01*
X123041829Y-119927511D01*
X123030623Y-119876086D01*
X123028948Y-117464236D01*
X123028795Y-117243982D01*
X153874500Y-117243982D01*
X153874500Y-117356018D01*
X153903497Y-117464237D01*
X153959515Y-117561263D01*
X154038737Y-117640485D01*
X154135763Y-117696503D01*
X154243982Y-117725500D01*
X154243984Y-117725500D01*
X154356016Y-117725500D01*
X154356018Y-117725500D01*
X154464237Y-117696503D01*
X154561263Y-117640485D01*
X154640485Y-117561263D01*
X154696503Y-117464237D01*
X154725500Y-117356018D01*
X154725500Y-117243982D01*
X154696503Y-117135763D01*
X154640485Y-117038737D01*
X154561263Y-116959515D01*
X154464237Y-116903497D01*
X154356018Y-116874500D01*
X154243982Y-116874500D01*
X154135763Y-116903497D01*
X154135760Y-116903498D01*
X154038740Y-116959513D01*
X154038734Y-116959517D01*
X153959517Y-117038734D01*
X153959513Y-117038740D01*
X153903498Y-117135760D01*
X153903497Y-117135763D01*
X153874500Y-117243982D01*
X123028795Y-117243982D01*
X123028066Y-116193982D01*
X144324500Y-116193982D01*
X144324500Y-116306018D01*
X144353497Y-116414237D01*
X144409515Y-116511263D01*
X144488737Y-116590485D01*
X144585763Y-116646503D01*
X144693982Y-116675500D01*
X144693984Y-116675500D01*
X144806016Y-116675500D01*
X144806018Y-116675500D01*
X144914237Y-116646503D01*
X145011263Y-116590485D01*
X145090485Y-116511263D01*
X145146503Y-116414237D01*
X145175500Y-116306018D01*
X145175500Y-116193982D01*
X145146503Y-116085763D01*
X145090485Y-115988737D01*
X145011263Y-115909515D01*
X144914237Y-115853497D01*
X144806018Y-115824500D01*
X144693982Y-115824500D01*
X144585763Y-115853497D01*
X144585760Y-115853498D01*
X144488740Y-115909513D01*
X144488734Y-115909517D01*
X144409517Y-115988734D01*
X144409513Y-115988740D01*
X144353498Y-116085760D01*
X144353497Y-116085763D01*
X144324500Y-116193982D01*
X123028066Y-116193982D01*
X123027545Y-115443982D01*
X153574500Y-115443982D01*
X153574500Y-115556017D01*
X153603497Y-115664236D01*
X153603498Y-115664239D01*
X153622169Y-115696579D01*
X153659515Y-115761263D01*
X153738737Y-115840485D01*
X153835763Y-115896503D01*
X153943982Y-115925500D01*
X153943984Y-115925500D01*
X154056016Y-115925500D01*
X154056018Y-115925500D01*
X154164237Y-115896503D01*
X154261263Y-115840485D01*
X154340485Y-115761263D01*
X154396503Y-115664237D01*
X154425500Y-115556018D01*
X154425500Y-115443982D01*
X154396503Y-115335763D01*
X154340485Y-115238737D01*
X154261263Y-115159515D01*
X154164237Y-115103497D01*
X154056018Y-115074500D01*
X153943982Y-115074500D01*
X153835763Y-115103497D01*
X153835760Y-115103498D01*
X153738740Y-115159513D01*
X153738734Y-115159517D01*
X153659517Y-115238734D01*
X153659513Y-115238740D01*
X153603498Y-115335760D01*
X153603497Y-115335763D01*
X153574500Y-115443982D01*
X123027545Y-115443982D01*
X123027185Y-114926292D01*
X123026504Y-113943982D01*
X127474500Y-113943982D01*
X127474500Y-114056018D01*
X127503497Y-114164237D01*
X127559515Y-114261263D01*
X127638737Y-114340485D01*
X127735763Y-114396503D01*
X127843982Y-114425500D01*
X127843984Y-114425500D01*
X127956016Y-114425500D01*
X127956018Y-114425500D01*
X128064237Y-114396503D01*
X128161263Y-114340485D01*
X128240485Y-114261263D01*
X128296503Y-114164237D01*
X128325500Y-114056018D01*
X128325500Y-113943982D01*
X133274500Y-113943982D01*
X133274500Y-114056018D01*
X133303497Y-114164237D01*
X133359515Y-114261263D01*
X133438737Y-114340485D01*
X133535763Y-114396503D01*
X133643982Y-114425500D01*
X133643984Y-114425500D01*
X133756016Y-114425500D01*
X133756018Y-114425500D01*
X133864237Y-114396503D01*
X133961263Y-114340485D01*
X134040485Y-114261263D01*
X134096503Y-114164237D01*
X134125500Y-114056018D01*
X134125500Y-113943982D01*
X134096503Y-113835763D01*
X134040485Y-113738737D01*
X133961263Y-113659515D01*
X133864237Y-113603497D01*
X133756018Y-113574500D01*
X133643982Y-113574500D01*
X133535763Y-113603497D01*
X133535760Y-113603498D01*
X133438740Y-113659513D01*
X133438734Y-113659517D01*
X133359517Y-113738734D01*
X133359513Y-113738740D01*
X133303498Y-113835760D01*
X133303497Y-113835763D01*
X133274500Y-113943982D01*
X128325500Y-113943982D01*
X128296503Y-113835763D01*
X128240485Y-113738737D01*
X128161263Y-113659515D01*
X128064237Y-113603497D01*
X127956018Y-113574500D01*
X127843982Y-113574500D01*
X127735763Y-113603497D01*
X127735760Y-113603498D01*
X127638740Y-113659513D01*
X127638734Y-113659517D01*
X127559517Y-113738734D01*
X127559513Y-113738740D01*
X127503498Y-113835760D01*
X127503497Y-113835763D01*
X127474500Y-113943982D01*
X123026504Y-113943982D01*
X123026498Y-113935941D01*
X123026018Y-113243982D01*
X139074500Y-113243982D01*
X139074500Y-113356018D01*
X139103497Y-113464237D01*
X139159515Y-113561263D01*
X139238737Y-113640485D01*
X139335763Y-113696503D01*
X139443982Y-113725500D01*
X139443984Y-113725500D01*
X139556016Y-113725500D01*
X139556018Y-113725500D01*
X139664237Y-113696503D01*
X139761263Y-113640485D01*
X139840485Y-113561263D01*
X139896503Y-113464237D01*
X139901930Y-113443982D01*
X146574500Y-113443982D01*
X146574500Y-113556018D01*
X146603497Y-113664237D01*
X146659515Y-113761263D01*
X146738737Y-113840485D01*
X146835763Y-113896503D01*
X146943982Y-113925500D01*
X146943984Y-113925500D01*
X147056016Y-113925500D01*
X147056018Y-113925500D01*
X147164237Y-113896503D01*
X147261263Y-113840485D01*
X147340485Y-113761263D01*
X147396503Y-113664237D01*
X147425500Y-113556018D01*
X147425500Y-113443982D01*
X147396503Y-113335763D01*
X147340485Y-113238737D01*
X147261263Y-113159515D01*
X147164237Y-113103497D01*
X147056018Y-113074500D01*
X146943982Y-113074500D01*
X146835763Y-113103497D01*
X146835760Y-113103498D01*
X146738740Y-113159513D01*
X146738734Y-113159517D01*
X146659517Y-113238734D01*
X146659513Y-113238740D01*
X146603498Y-113335760D01*
X146603497Y-113335763D01*
X146574500Y-113443982D01*
X139901930Y-113443982D01*
X139925500Y-113356018D01*
X139925500Y-113243982D01*
X139896503Y-113135763D01*
X139840485Y-113038737D01*
X139761263Y-112959515D01*
X139664237Y-112903497D01*
X139556018Y-112874500D01*
X139443982Y-112874500D01*
X139335763Y-112903497D01*
X139335760Y-112903498D01*
X139238740Y-112959513D01*
X139238734Y-112959517D01*
X139159517Y-113038734D01*
X139159513Y-113038740D01*
X139103498Y-113135760D01*
X139103497Y-113135763D01*
X139074500Y-113243982D01*
X123026018Y-113243982D01*
X123025671Y-112743982D01*
X135874500Y-112743982D01*
X135874500Y-112856018D01*
X135903497Y-112964237D01*
X135959515Y-113061263D01*
X136038737Y-113140485D01*
X136135763Y-113196503D01*
X136243982Y-113225500D01*
X136243984Y-113225500D01*
X136356016Y-113225500D01*
X136356018Y-113225500D01*
X136464237Y-113196503D01*
X136561263Y-113140485D01*
X136640485Y-113061263D01*
X136696503Y-112964237D01*
X136725500Y-112856018D01*
X136725500Y-112843982D01*
X142174500Y-112843982D01*
X142174500Y-112956018D01*
X142203497Y-113064237D01*
X142259515Y-113161263D01*
X142338737Y-113240485D01*
X142435763Y-113296503D01*
X142543982Y-113325500D01*
X142543984Y-113325500D01*
X142656016Y-113325500D01*
X142656018Y-113325500D01*
X142764237Y-113296503D01*
X142861263Y-113240485D01*
X142940485Y-113161263D01*
X142996503Y-113064237D01*
X143025500Y-112956018D01*
X143025500Y-112843982D01*
X142996503Y-112735763D01*
X142940485Y-112638737D01*
X142861263Y-112559515D01*
X142764237Y-112503497D01*
X142656018Y-112474500D01*
X142543982Y-112474500D01*
X142435763Y-112503497D01*
X142435760Y-112503498D01*
X142338740Y-112559513D01*
X142338734Y-112559517D01*
X142259517Y-112638734D01*
X142259513Y-112638740D01*
X142203498Y-112735760D01*
X142203497Y-112735763D01*
X142174500Y-112843982D01*
X136725500Y-112843982D01*
X136725500Y-112743982D01*
X136696503Y-112635763D01*
X136640485Y-112538737D01*
X136561263Y-112459515D01*
X136464237Y-112403497D01*
X136356018Y-112374500D01*
X136243982Y-112374500D01*
X136135763Y-112403497D01*
X136135760Y-112403498D01*
X136038740Y-112459513D01*
X136038734Y-112459517D01*
X135959517Y-112538734D01*
X135959513Y-112538740D01*
X135903498Y-112635760D01*
X135903497Y-112635763D01*
X135874500Y-112743982D01*
X123025671Y-112743982D01*
X123025665Y-112735941D01*
X123025115Y-111943982D01*
X156824500Y-111943982D01*
X156824500Y-112056018D01*
X156853497Y-112164237D01*
X156909515Y-112261263D01*
X156988737Y-112340485D01*
X157085763Y-112396503D01*
X157193982Y-112425500D01*
X157193984Y-112425500D01*
X157306016Y-112425500D01*
X157306018Y-112425500D01*
X157414237Y-112396503D01*
X157511263Y-112340485D01*
X157590485Y-112261263D01*
X157646503Y-112164237D01*
X157675500Y-112056018D01*
X157675500Y-111943982D01*
X157646503Y-111835763D01*
X157590485Y-111738737D01*
X157511263Y-111659515D01*
X157414237Y-111603497D01*
X157306018Y-111574500D01*
X157193982Y-111574500D01*
X157085763Y-111603497D01*
X157085760Y-111603498D01*
X156988740Y-111659513D01*
X156988734Y-111659517D01*
X156909517Y-111738734D01*
X156909513Y-111738740D01*
X156853498Y-111835760D01*
X156853497Y-111835763D01*
X156824500Y-111943982D01*
X123025115Y-111943982D01*
X123024768Y-111443982D01*
X124074500Y-111443982D01*
X124074500Y-111556018D01*
X124103497Y-111664237D01*
X124159515Y-111761263D01*
X124238737Y-111840485D01*
X124335763Y-111896503D01*
X124443982Y-111925500D01*
X124443984Y-111925500D01*
X124556016Y-111925500D01*
X124556018Y-111925500D01*
X124664237Y-111896503D01*
X124761263Y-111840485D01*
X124840485Y-111761263D01*
X124896503Y-111664237D01*
X124925500Y-111556018D01*
X124925500Y-111443982D01*
X124896503Y-111335763D01*
X124840485Y-111238737D01*
X124761263Y-111159515D01*
X124734359Y-111143982D01*
X136574500Y-111143982D01*
X136574500Y-111256018D01*
X136603497Y-111364237D01*
X136659515Y-111461263D01*
X136738737Y-111540485D01*
X136835763Y-111596503D01*
X136943982Y-111625500D01*
X136943984Y-111625500D01*
X137056016Y-111625500D01*
X137056018Y-111625500D01*
X137164237Y-111596503D01*
X137261263Y-111540485D01*
X137340485Y-111461263D01*
X137396503Y-111364237D01*
X137425500Y-111256018D01*
X137425500Y-111143982D01*
X137396503Y-111035763D01*
X137340485Y-110938737D01*
X137261263Y-110859515D01*
X137164237Y-110803497D01*
X137056018Y-110774500D01*
X136943982Y-110774500D01*
X136835763Y-110803497D01*
X136835760Y-110803498D01*
X136738740Y-110859513D01*
X136738734Y-110859517D01*
X136659517Y-110938734D01*
X136659513Y-110938740D01*
X136603498Y-111035760D01*
X136603497Y-111035763D01*
X136574500Y-111143982D01*
X124734359Y-111143982D01*
X124664237Y-111103497D01*
X124556018Y-111074500D01*
X124443982Y-111074500D01*
X124335763Y-111103497D01*
X124335760Y-111103498D01*
X124238740Y-111159513D01*
X124238734Y-111159517D01*
X124159517Y-111238734D01*
X124159513Y-111238740D01*
X124103498Y-111335760D01*
X124103497Y-111335763D01*
X124074500Y-111443982D01*
X123024768Y-111443982D01*
X123024762Y-111435941D01*
X123024143Y-110543982D01*
X144674500Y-110543982D01*
X144674500Y-110656018D01*
X144703497Y-110764237D01*
X144759515Y-110861263D01*
X144838737Y-110940485D01*
X144935763Y-110996503D01*
X145043982Y-111025500D01*
X145043984Y-111025500D01*
X145156016Y-111025500D01*
X145156018Y-111025500D01*
X145264237Y-110996503D01*
X145361263Y-110940485D01*
X145440485Y-110861263D01*
X145496503Y-110764237D01*
X145525500Y-110656018D01*
X145525500Y-110543982D01*
X145496503Y-110435763D01*
X145440485Y-110338737D01*
X145361263Y-110259515D01*
X145264237Y-110203497D01*
X145156018Y-110174500D01*
X145043982Y-110174500D01*
X144935763Y-110203497D01*
X144935760Y-110203498D01*
X144838740Y-110259513D01*
X144838734Y-110259517D01*
X144759517Y-110338734D01*
X144759513Y-110338740D01*
X144703498Y-110435760D01*
X144703497Y-110435763D01*
X144674500Y-110543982D01*
X123024143Y-110543982D01*
X123023657Y-109843982D01*
X129574500Y-109843982D01*
X129574500Y-109956018D01*
X129603497Y-110064237D01*
X129659515Y-110161263D01*
X129738737Y-110240485D01*
X129835763Y-110296503D01*
X129943982Y-110325500D01*
X129943984Y-110325500D01*
X130056016Y-110325500D01*
X130056018Y-110325500D01*
X130164237Y-110296503D01*
X130261263Y-110240485D01*
X130340485Y-110161263D01*
X130396503Y-110064237D01*
X130425500Y-109956018D01*
X130425500Y-109943982D01*
X133374500Y-109943982D01*
X133374500Y-110056018D01*
X133403497Y-110164237D01*
X133459515Y-110261263D01*
X133538737Y-110340485D01*
X133635763Y-110396503D01*
X133743982Y-110425500D01*
X133743984Y-110425500D01*
X133856016Y-110425500D01*
X133856018Y-110425500D01*
X133964237Y-110396503D01*
X134061263Y-110340485D01*
X134140485Y-110261263D01*
X134196503Y-110164237D01*
X134225500Y-110056018D01*
X134225500Y-109943982D01*
X149574500Y-109943982D01*
X149574500Y-110056018D01*
X149603497Y-110164237D01*
X149659515Y-110261263D01*
X149738737Y-110340485D01*
X149835763Y-110396503D01*
X149943982Y-110425500D01*
X149943984Y-110425500D01*
X150056016Y-110425500D01*
X150056018Y-110425500D01*
X150164237Y-110396503D01*
X150261263Y-110340485D01*
X150340485Y-110261263D01*
X150350462Y-110243982D01*
X151774500Y-110243982D01*
X151774500Y-110356018D01*
X151803497Y-110464237D01*
X151859515Y-110561263D01*
X151938737Y-110640485D01*
X152035763Y-110696503D01*
X152143982Y-110725500D01*
X152143984Y-110725500D01*
X152256016Y-110725500D01*
X152256018Y-110725500D01*
X152364237Y-110696503D01*
X152461263Y-110640485D01*
X152540485Y-110561263D01*
X152596503Y-110464237D01*
X152625500Y-110356018D01*
X152625500Y-110243982D01*
X152596503Y-110135763D01*
X152540485Y-110038737D01*
X152461263Y-109959515D01*
X152364237Y-109903497D01*
X152256018Y-109874500D01*
X152143982Y-109874500D01*
X152035763Y-109903497D01*
X152035760Y-109903498D01*
X151938740Y-109959513D01*
X151938734Y-109959517D01*
X151859517Y-110038734D01*
X151859513Y-110038740D01*
X151803498Y-110135760D01*
X151803497Y-110135763D01*
X151774500Y-110243982D01*
X150350462Y-110243982D01*
X150396503Y-110164237D01*
X150425500Y-110056018D01*
X150425500Y-109943982D01*
X150396503Y-109835763D01*
X150343513Y-109743982D01*
X154874500Y-109743982D01*
X154874500Y-109856018D01*
X154903497Y-109964237D01*
X154959515Y-110061263D01*
X155038737Y-110140485D01*
X155135763Y-110196503D01*
X155243982Y-110225500D01*
X155243984Y-110225500D01*
X155356016Y-110225500D01*
X155356018Y-110225500D01*
X155464237Y-110196503D01*
X155561263Y-110140485D01*
X155640485Y-110061263D01*
X155696503Y-109964237D01*
X155725500Y-109856018D01*
X155725500Y-109743982D01*
X162774500Y-109743982D01*
X162774500Y-109856018D01*
X162803497Y-109964237D01*
X162859515Y-110061263D01*
X162938737Y-110140485D01*
X163035763Y-110196503D01*
X163143982Y-110225500D01*
X163143984Y-110225500D01*
X163256016Y-110225500D01*
X163256018Y-110225500D01*
X163364237Y-110196503D01*
X163461263Y-110140485D01*
X163540485Y-110061263D01*
X163596503Y-109964237D01*
X163625500Y-109856018D01*
X163625500Y-109743982D01*
X163596503Y-109635763D01*
X163540485Y-109538737D01*
X163461263Y-109459515D01*
X163364237Y-109403497D01*
X163256018Y-109374500D01*
X163143982Y-109374500D01*
X163035763Y-109403497D01*
X163035760Y-109403498D01*
X162938740Y-109459513D01*
X162938734Y-109459517D01*
X162859517Y-109538734D01*
X162859513Y-109538740D01*
X162803498Y-109635760D01*
X162803497Y-109635763D01*
X162774500Y-109743982D01*
X155725500Y-109743982D01*
X155696503Y-109635763D01*
X155640485Y-109538737D01*
X155561263Y-109459515D01*
X155464237Y-109403497D01*
X155356018Y-109374500D01*
X155243982Y-109374500D01*
X155135763Y-109403497D01*
X155135760Y-109403498D01*
X155038740Y-109459513D01*
X155038734Y-109459517D01*
X154959517Y-109538734D01*
X154959513Y-109538740D01*
X154903498Y-109635760D01*
X154903497Y-109635763D01*
X154874500Y-109743982D01*
X150343513Y-109743982D01*
X150340485Y-109738737D01*
X150261263Y-109659515D01*
X150164237Y-109603497D01*
X150056018Y-109574500D01*
X149943982Y-109574500D01*
X149835763Y-109603497D01*
X149835760Y-109603498D01*
X149738740Y-109659513D01*
X149738734Y-109659517D01*
X149659517Y-109738734D01*
X149659513Y-109738740D01*
X149603498Y-109835760D01*
X149603497Y-109835763D01*
X149574500Y-109943982D01*
X134225500Y-109943982D01*
X134196503Y-109835763D01*
X134140485Y-109738737D01*
X134061263Y-109659515D01*
X133964237Y-109603497D01*
X133856018Y-109574500D01*
X133743982Y-109574500D01*
X133635763Y-109603497D01*
X133635760Y-109603498D01*
X133538740Y-109659513D01*
X133538734Y-109659517D01*
X133459517Y-109738734D01*
X133459513Y-109738740D01*
X133403498Y-109835760D01*
X133403497Y-109835763D01*
X133374500Y-109943982D01*
X130425500Y-109943982D01*
X130425500Y-109843982D01*
X130396503Y-109735763D01*
X130340485Y-109638737D01*
X130261263Y-109559515D01*
X130164237Y-109503497D01*
X130056018Y-109474500D01*
X129943982Y-109474500D01*
X129835763Y-109503497D01*
X129835760Y-109503498D01*
X129738740Y-109559513D01*
X129738734Y-109559517D01*
X129659517Y-109638734D01*
X129659513Y-109638740D01*
X129603498Y-109735760D01*
X129603497Y-109735763D01*
X129574500Y-109843982D01*
X123023657Y-109843982D01*
X123023651Y-109835941D01*
X123022754Y-108543982D01*
X126074500Y-108543982D01*
X126074500Y-108656018D01*
X126103497Y-108764237D01*
X126159515Y-108861263D01*
X126238737Y-108940485D01*
X126335763Y-108996503D01*
X126443982Y-109025500D01*
X126443984Y-109025500D01*
X126556016Y-109025500D01*
X126556018Y-109025500D01*
X126664237Y-108996503D01*
X126761263Y-108940485D01*
X126840485Y-108861263D01*
X126850462Y-108843982D01*
X138374500Y-108843982D01*
X138374500Y-108956018D01*
X138403497Y-109064237D01*
X138459515Y-109161263D01*
X138538737Y-109240485D01*
X138635763Y-109296503D01*
X138743982Y-109325500D01*
X138743984Y-109325500D01*
X138856016Y-109325500D01*
X138856018Y-109325500D01*
X138964237Y-109296503D01*
X139061263Y-109240485D01*
X139140485Y-109161263D01*
X139196503Y-109064237D01*
X139225500Y-108956018D01*
X139225500Y-108843982D01*
X139196503Y-108735763D01*
X139140485Y-108638737D01*
X139061263Y-108559515D01*
X138964237Y-108503497D01*
X138856018Y-108474500D01*
X138743982Y-108474500D01*
X138635763Y-108503497D01*
X138635760Y-108503498D01*
X138538740Y-108559513D01*
X138538734Y-108559517D01*
X138459517Y-108638734D01*
X138459513Y-108638740D01*
X138403498Y-108735760D01*
X138403497Y-108735763D01*
X138374500Y-108843982D01*
X126850462Y-108843982D01*
X126896503Y-108764237D01*
X126925500Y-108656018D01*
X126925500Y-108543982D01*
X126896503Y-108435763D01*
X126840485Y-108338737D01*
X126761263Y-108259515D01*
X126664237Y-108203497D01*
X126556018Y-108174500D01*
X126443982Y-108174500D01*
X126335763Y-108203497D01*
X126335760Y-108203498D01*
X126238740Y-108259513D01*
X126238734Y-108259517D01*
X126159517Y-108338734D01*
X126159513Y-108338740D01*
X126103498Y-108435760D01*
X126103497Y-108435763D01*
X126074500Y-108543982D01*
X123022754Y-108543982D01*
X123022748Y-108535941D01*
X123022008Y-107468982D01*
X142674500Y-107468982D01*
X142674500Y-107581018D01*
X142703497Y-107689237D01*
X142759515Y-107786263D01*
X142838737Y-107865485D01*
X142935763Y-107921503D01*
X143043982Y-107950500D01*
X143043984Y-107950500D01*
X143156016Y-107950500D01*
X143156018Y-107950500D01*
X143264237Y-107921503D01*
X143361263Y-107865485D01*
X143440485Y-107786263D01*
X143496503Y-107689237D01*
X143525500Y-107581018D01*
X143525500Y-107468982D01*
X143496503Y-107360763D01*
X143440485Y-107263737D01*
X143361263Y-107184515D01*
X143264237Y-107128497D01*
X143156018Y-107099500D01*
X143043982Y-107099500D01*
X142935763Y-107128497D01*
X142935760Y-107128498D01*
X142838740Y-107184513D01*
X142838734Y-107184517D01*
X142759517Y-107263734D01*
X142759513Y-107263740D01*
X142703498Y-107360760D01*
X142703497Y-107360763D01*
X142674500Y-107468982D01*
X123022008Y-107468982D01*
X123022002Y-107460941D01*
X123021435Y-106643982D01*
X141674500Y-106643982D01*
X141674500Y-106756018D01*
X141703497Y-106864237D01*
X141759515Y-106961263D01*
X141838737Y-107040485D01*
X141935763Y-107096503D01*
X142043982Y-107125500D01*
X142043984Y-107125500D01*
X142156016Y-107125500D01*
X142156018Y-107125500D01*
X142264237Y-107096503D01*
X142361263Y-107040485D01*
X142440485Y-106961263D01*
X142496503Y-106864237D01*
X142525500Y-106756018D01*
X142525500Y-106643982D01*
X142496503Y-106535763D01*
X142440485Y-106438737D01*
X142361263Y-106359515D01*
X142264237Y-106303497D01*
X142156018Y-106274500D01*
X142043982Y-106274500D01*
X141935763Y-106303497D01*
X141935760Y-106303498D01*
X141838740Y-106359513D01*
X141838734Y-106359517D01*
X141759517Y-106438734D01*
X141759513Y-106438740D01*
X141703498Y-106535760D01*
X141703497Y-106535763D01*
X141674500Y-106643982D01*
X123021435Y-106643982D01*
X123020671Y-105543982D01*
X125674500Y-105543982D01*
X125674500Y-105656018D01*
X125703497Y-105764237D01*
X125759515Y-105861263D01*
X125838737Y-105940485D01*
X125935763Y-105996503D01*
X126043982Y-106025500D01*
X126043984Y-106025500D01*
X126156016Y-106025500D01*
X126156018Y-106025500D01*
X126264237Y-105996503D01*
X126361263Y-105940485D01*
X126440485Y-105861263D01*
X126496503Y-105764237D01*
X126501930Y-105743982D01*
X140774500Y-105743982D01*
X140774500Y-105856018D01*
X140803497Y-105964237D01*
X140859515Y-106061263D01*
X140938737Y-106140485D01*
X141035763Y-106196503D01*
X141143982Y-106225500D01*
X141143984Y-106225500D01*
X141256016Y-106225500D01*
X141256018Y-106225500D01*
X141364237Y-106196503D01*
X141461263Y-106140485D01*
X141540485Y-106061263D01*
X141596503Y-105964237D01*
X141625500Y-105856018D01*
X141625500Y-105743982D01*
X141596503Y-105635763D01*
X141540485Y-105538737D01*
X141461263Y-105459515D01*
X141434359Y-105443982D01*
X148274500Y-105443982D01*
X148274500Y-105556018D01*
X148303497Y-105664237D01*
X148359515Y-105761263D01*
X148438737Y-105840485D01*
X148535763Y-105896503D01*
X148643982Y-105925500D01*
X148643984Y-105925500D01*
X148756016Y-105925500D01*
X148756018Y-105925500D01*
X148864237Y-105896503D01*
X148961263Y-105840485D01*
X149040485Y-105761263D01*
X149096503Y-105664237D01*
X149125500Y-105556018D01*
X149125500Y-105443982D01*
X149096503Y-105335763D01*
X149040485Y-105238737D01*
X148961263Y-105159515D01*
X148864237Y-105103497D01*
X148756018Y-105074500D01*
X148643982Y-105074500D01*
X148535763Y-105103497D01*
X148535760Y-105103498D01*
X148438740Y-105159513D01*
X148438734Y-105159517D01*
X148359517Y-105238734D01*
X148359513Y-105238740D01*
X148303498Y-105335760D01*
X148303497Y-105335763D01*
X148274500Y-105443982D01*
X141434359Y-105443982D01*
X141364237Y-105403497D01*
X141256018Y-105374500D01*
X141143982Y-105374500D01*
X141035763Y-105403497D01*
X141035760Y-105403498D01*
X140938740Y-105459513D01*
X140938734Y-105459517D01*
X140859517Y-105538734D01*
X140859513Y-105538740D01*
X140803498Y-105635760D01*
X140803497Y-105635763D01*
X140774500Y-105743982D01*
X126501930Y-105743982D01*
X126525500Y-105656018D01*
X126525500Y-105543982D01*
X126496503Y-105435763D01*
X126440485Y-105338737D01*
X126361263Y-105259515D01*
X126264237Y-105203497D01*
X126156018Y-105174500D01*
X126043982Y-105174500D01*
X125935763Y-105203497D01*
X125935760Y-105203498D01*
X125838740Y-105259513D01*
X125838734Y-105259517D01*
X125759517Y-105338734D01*
X125759513Y-105338740D01*
X125703498Y-105435760D01*
X125703497Y-105435763D01*
X125674500Y-105543982D01*
X123020671Y-105543982D01*
X123020665Y-105535941D01*
X123019213Y-103443982D01*
X133474500Y-103443982D01*
X133474500Y-103556018D01*
X133503497Y-103664237D01*
X133559515Y-103761263D01*
X133638737Y-103840485D01*
X133735763Y-103896503D01*
X133843982Y-103925500D01*
X133843984Y-103925500D01*
X133956016Y-103925500D01*
X133956018Y-103925500D01*
X134064237Y-103896503D01*
X134161263Y-103840485D01*
X134240485Y-103761263D01*
X134296503Y-103664237D01*
X134321017Y-103572750D01*
X145545732Y-103572750D01*
X145545732Y-103684786D01*
X145566225Y-103761265D01*
X145574729Y-103793004D01*
X145574730Y-103793007D01*
X145580787Y-103803498D01*
X145630747Y-103890031D01*
X145709969Y-103969253D01*
X145756168Y-103995926D01*
X145772276Y-104005226D01*
X145820492Y-104055793D01*
X145833715Y-104124400D01*
X145807747Y-104189265D01*
X145797958Y-104200293D01*
X145759518Y-104238733D01*
X145759513Y-104238740D01*
X145703498Y-104335760D01*
X145703497Y-104335763D01*
X145674500Y-104443982D01*
X145674500Y-104556018D01*
X145703497Y-104664237D01*
X145759515Y-104761263D01*
X145838737Y-104840485D01*
X145935763Y-104896503D01*
X146043982Y-104925500D01*
X146043984Y-104925500D01*
X146156016Y-104925500D01*
X146156018Y-104925500D01*
X146264237Y-104896503D01*
X146361263Y-104840485D01*
X146440485Y-104761263D01*
X146496503Y-104664237D01*
X146525500Y-104556018D01*
X146525500Y-104443982D01*
X146496503Y-104335763D01*
X146440485Y-104238737D01*
X146361263Y-104159515D01*
X146334359Y-104143982D01*
X148974500Y-104143982D01*
X148974500Y-104256018D01*
X149003497Y-104364237D01*
X149059515Y-104461263D01*
X149138737Y-104540485D01*
X149235763Y-104596503D01*
X149343982Y-104625500D01*
X149343984Y-104625500D01*
X149456016Y-104625500D01*
X149456018Y-104625500D01*
X149564237Y-104596503D01*
X149661263Y-104540485D01*
X149740485Y-104461263D01*
X149796503Y-104364237D01*
X149825500Y-104256018D01*
X149825500Y-104143982D01*
X149796503Y-104035763D01*
X149740485Y-103938737D01*
X149661263Y-103859515D01*
X149564237Y-103803497D01*
X149456018Y-103774500D01*
X149343982Y-103774500D01*
X149235763Y-103803497D01*
X149235760Y-103803498D01*
X149138740Y-103859513D01*
X149138734Y-103859517D01*
X149059517Y-103938734D01*
X149059513Y-103938740D01*
X149003498Y-104035760D01*
X149003497Y-104035763D01*
X148974500Y-104143982D01*
X146334359Y-104143982D01*
X146291240Y-104119087D01*
X146284240Y-104113575D01*
X146268949Y-104092072D01*
X146250739Y-104072974D01*
X146249018Y-104064044D01*
X146243749Y-104056635D01*
X146242510Y-104030275D01*
X146237517Y-104004366D01*
X146240895Y-103995926D01*
X146240469Y-103986842D01*
X146253678Y-103963995D01*
X146263485Y-103939502D01*
X146273267Y-103928480D01*
X146311717Y-103890031D01*
X146367735Y-103793005D01*
X146396732Y-103684786D01*
X146396732Y-103572750D01*
X146367735Y-103464531D01*
X146311717Y-103367505D01*
X146232495Y-103288283D01*
X146135469Y-103232265D01*
X146027250Y-103203268D01*
X145915214Y-103203268D01*
X145806995Y-103232265D01*
X145806992Y-103232266D01*
X145709972Y-103288281D01*
X145709966Y-103288285D01*
X145630749Y-103367502D01*
X145630745Y-103367508D01*
X145574730Y-103464528D01*
X145574729Y-103464531D01*
X145545732Y-103572750D01*
X134321017Y-103572750D01*
X134325500Y-103556018D01*
X134325500Y-103443982D01*
X134296503Y-103335763D01*
X134240485Y-103238737D01*
X134161263Y-103159515D01*
X134064237Y-103103497D01*
X133956018Y-103074500D01*
X133843982Y-103074500D01*
X133735763Y-103103497D01*
X133735760Y-103103498D01*
X133638740Y-103159513D01*
X133638734Y-103159517D01*
X133559517Y-103238734D01*
X133559513Y-103238740D01*
X133503498Y-103335760D01*
X133503497Y-103335763D01*
X133474500Y-103443982D01*
X123019213Y-103443982D01*
X123019207Y-103435941D01*
X123018848Y-102918982D01*
X134874500Y-102918982D01*
X134874500Y-103031017D01*
X134903497Y-103139236D01*
X134903498Y-103139239D01*
X134915206Y-103159517D01*
X134959515Y-103236263D01*
X135038737Y-103315485D01*
X135135763Y-103371503D01*
X135243982Y-103400500D01*
X135243984Y-103400500D01*
X135356016Y-103400500D01*
X135356018Y-103400500D01*
X135464237Y-103371503D01*
X135561263Y-103315485D01*
X135640485Y-103236263D01*
X135696503Y-103139237D01*
X135725500Y-103031018D01*
X135725500Y-102918982D01*
X135696503Y-102810763D01*
X135640485Y-102713737D01*
X135561263Y-102634515D01*
X135484218Y-102590033D01*
X135464239Y-102578498D01*
X135464238Y-102578497D01*
X135464237Y-102578497D01*
X135356018Y-102549500D01*
X135243982Y-102549500D01*
X135135763Y-102578497D01*
X135135760Y-102578498D01*
X135038740Y-102634513D01*
X135038734Y-102634517D01*
X134959517Y-102713734D01*
X134959513Y-102713740D01*
X134903498Y-102810760D01*
X134903497Y-102810763D01*
X134874500Y-102918982D01*
X123018848Y-102918982D01*
X123018842Y-102910941D01*
X123018399Y-102272750D01*
X140303268Y-102272750D01*
X140303268Y-102384786D01*
X140332064Y-102492252D01*
X140332265Y-102493004D01*
X140332266Y-102493007D01*
X140342804Y-102511259D01*
X140388283Y-102590031D01*
X140467505Y-102669253D01*
X140564531Y-102725271D01*
X140672750Y-102754268D01*
X140672752Y-102754268D01*
X140784784Y-102754268D01*
X140784786Y-102754268D01*
X140893005Y-102725271D01*
X140990031Y-102669253D01*
X141069253Y-102590031D01*
X141105226Y-102527724D01*
X141155792Y-102479508D01*
X141224399Y-102466284D01*
X141289264Y-102492252D01*
X141300294Y-102502042D01*
X141338737Y-102540485D01*
X141435763Y-102596503D01*
X141543982Y-102625500D01*
X141543984Y-102625500D01*
X141656016Y-102625500D01*
X141656018Y-102625500D01*
X141764237Y-102596503D01*
X141855206Y-102543982D01*
X144799500Y-102543982D01*
X144799500Y-102656018D01*
X144828497Y-102764237D01*
X144884515Y-102861263D01*
X144963737Y-102940485D01*
X145060763Y-102996503D01*
X145168982Y-103025500D01*
X145168984Y-103025500D01*
X145281016Y-103025500D01*
X145281018Y-103025500D01*
X145389237Y-102996503D01*
X145486263Y-102940485D01*
X145565485Y-102861263D01*
X145621503Y-102764237D01*
X145638997Y-102698946D01*
X145675360Y-102639288D01*
X145738207Y-102608758D01*
X145790862Y-102611266D01*
X145843982Y-102625500D01*
X145843984Y-102625500D01*
X145956016Y-102625500D01*
X145956018Y-102625500D01*
X146064237Y-102596503D01*
X146161263Y-102540485D01*
X146240485Y-102461263D01*
X146296503Y-102364237D01*
X146325500Y-102256018D01*
X146325500Y-102143982D01*
X146296503Y-102035763D01*
X146243513Y-101943982D01*
X148274500Y-101943982D01*
X148274500Y-102056018D01*
X148303497Y-102164237D01*
X148359515Y-102261263D01*
X148438737Y-102340485D01*
X148535763Y-102396503D01*
X148643982Y-102425500D01*
X148643984Y-102425500D01*
X148756016Y-102425500D01*
X148756018Y-102425500D01*
X148864237Y-102396503D01*
X148961263Y-102340485D01*
X149040485Y-102261263D01*
X149079330Y-102193982D01*
X155074500Y-102193982D01*
X155074500Y-102306018D01*
X155103497Y-102414237D01*
X155159515Y-102511263D01*
X155238737Y-102590485D01*
X155335763Y-102646503D01*
X155443982Y-102675500D01*
X155443984Y-102675500D01*
X155556016Y-102675500D01*
X155556018Y-102675500D01*
X155664237Y-102646503D01*
X155761263Y-102590485D01*
X155840485Y-102511263D01*
X155896503Y-102414237D01*
X155925500Y-102306018D01*
X155925500Y-102193982D01*
X155896503Y-102085763D01*
X155840485Y-101988737D01*
X155761263Y-101909515D01*
X155674664Y-101859517D01*
X155664239Y-101853498D01*
X155664238Y-101853497D01*
X155664237Y-101853497D01*
X155556018Y-101824500D01*
X155443982Y-101824500D01*
X155335763Y-101853497D01*
X155335760Y-101853498D01*
X155238740Y-101909513D01*
X155238734Y-101909517D01*
X155159517Y-101988734D01*
X155159513Y-101988740D01*
X155103498Y-102085760D01*
X155103497Y-102085763D01*
X155074500Y-102193982D01*
X149079330Y-102193982D01*
X149096503Y-102164237D01*
X149125500Y-102056018D01*
X149125500Y-101943982D01*
X149096503Y-101835763D01*
X149040485Y-101738737D01*
X148961263Y-101659515D01*
X148864237Y-101603497D01*
X148756018Y-101574500D01*
X148643982Y-101574500D01*
X148535763Y-101603497D01*
X148535760Y-101603498D01*
X148438740Y-101659513D01*
X148438734Y-101659517D01*
X148359517Y-101738734D01*
X148359513Y-101738740D01*
X148303498Y-101835760D01*
X148303497Y-101835763D01*
X148274500Y-101943982D01*
X146243513Y-101943982D01*
X146240485Y-101938737D01*
X146161263Y-101859515D01*
X146064237Y-101803497D01*
X145956018Y-101774500D01*
X145843982Y-101774500D01*
X145735763Y-101803497D01*
X145735760Y-101803498D01*
X145638740Y-101859513D01*
X145638734Y-101859517D01*
X145559517Y-101938734D01*
X145559513Y-101938740D01*
X145503498Y-102035760D01*
X145503497Y-102035761D01*
X145486003Y-102101052D01*
X145449637Y-102160712D01*
X145386790Y-102191241D01*
X145334136Y-102188733D01*
X145281018Y-102174500D01*
X145168982Y-102174500D01*
X145060763Y-102203497D01*
X145060760Y-102203498D01*
X144963740Y-102259513D01*
X144963734Y-102259517D01*
X144884517Y-102338734D01*
X144884513Y-102338740D01*
X144828498Y-102435760D01*
X144828497Y-102435763D01*
X144799500Y-102543982D01*
X141855206Y-102543982D01*
X141861263Y-102540485D01*
X141940485Y-102461263D01*
X141996503Y-102364237D01*
X142025500Y-102256018D01*
X142025500Y-102143982D01*
X141996503Y-102035763D01*
X141940485Y-101938737D01*
X141861263Y-101859515D01*
X141834359Y-101843982D01*
X142974500Y-101843982D01*
X142974500Y-101956018D01*
X143001295Y-102056017D01*
X143003497Y-102064236D01*
X143003498Y-102064239D01*
X143015923Y-102085760D01*
X143059515Y-102161263D01*
X143138737Y-102240485D01*
X143235763Y-102296503D01*
X143343982Y-102325500D01*
X143343984Y-102325500D01*
X143456016Y-102325500D01*
X143456018Y-102325500D01*
X143564237Y-102296503D01*
X143661263Y-102240485D01*
X143712319Y-102189429D01*
X143773642Y-102155944D01*
X143843334Y-102160928D01*
X143887681Y-102189429D01*
X143938737Y-102240485D01*
X144035763Y-102296503D01*
X144143982Y-102325500D01*
X144143984Y-102325500D01*
X144256016Y-102325500D01*
X144256018Y-102325500D01*
X144364237Y-102296503D01*
X144461263Y-102240485D01*
X144540485Y-102161263D01*
X144596503Y-102064237D01*
X144625500Y-101956018D01*
X144625500Y-101843982D01*
X144596503Y-101735763D01*
X144540485Y-101638737D01*
X144461263Y-101559515D01*
X144364237Y-101503497D01*
X144256018Y-101474500D01*
X144143982Y-101474500D01*
X144035763Y-101503497D01*
X144035760Y-101503498D01*
X143938740Y-101559513D01*
X143938734Y-101559517D01*
X143887681Y-101610571D01*
X143826358Y-101644056D01*
X143756666Y-101639072D01*
X143712319Y-101610571D01*
X143661265Y-101559517D01*
X143661263Y-101559515D01*
X143564237Y-101503497D01*
X143456018Y-101474500D01*
X143343982Y-101474500D01*
X143235763Y-101503497D01*
X143235760Y-101503498D01*
X143138740Y-101559513D01*
X143138734Y-101559517D01*
X143059517Y-101638734D01*
X143059513Y-101638740D01*
X143003498Y-101735760D01*
X143003497Y-101735763D01*
X142974500Y-101843982D01*
X141834359Y-101843982D01*
X141764237Y-101803497D01*
X141656018Y-101774500D01*
X141543982Y-101774500D01*
X141435763Y-101803497D01*
X141435760Y-101803498D01*
X141338740Y-101859513D01*
X141338734Y-101859517D01*
X141259517Y-101938734D01*
X141259511Y-101938743D01*
X141223540Y-102001045D01*
X141172973Y-102049260D01*
X141104366Y-102062482D01*
X141039501Y-102036514D01*
X141028473Y-102026725D01*
X140990033Y-101988285D01*
X140990031Y-101988283D01*
X140913303Y-101943984D01*
X140893007Y-101932266D01*
X140893006Y-101932265D01*
X140893005Y-101932265D01*
X140784786Y-101903268D01*
X140672750Y-101903268D01*
X140564531Y-101932265D01*
X140564528Y-101932266D01*
X140467508Y-101988281D01*
X140467502Y-101988285D01*
X140388285Y-102067502D01*
X140388281Y-102067508D01*
X140332266Y-102164528D01*
X140332265Y-102164531D01*
X140303268Y-102272750D01*
X123018399Y-102272750D01*
X123018393Y-102264709D01*
X123017823Y-101443982D01*
X159824500Y-101443982D01*
X159824500Y-101556018D01*
X159853497Y-101664237D01*
X159909515Y-101761263D01*
X159988737Y-101840485D01*
X160085763Y-101896503D01*
X160193982Y-101925500D01*
X160193984Y-101925500D01*
X160306016Y-101925500D01*
X160306018Y-101925500D01*
X160414237Y-101896503D01*
X160511263Y-101840485D01*
X160590485Y-101761263D01*
X160646503Y-101664237D01*
X160675500Y-101556018D01*
X160675500Y-101443982D01*
X160646503Y-101335763D01*
X160590485Y-101238737D01*
X160511263Y-101159515D01*
X160414237Y-101103497D01*
X160306018Y-101074500D01*
X160193982Y-101074500D01*
X160085763Y-101103497D01*
X160085760Y-101103498D01*
X159988740Y-101159513D01*
X159988734Y-101159517D01*
X159909517Y-101238734D01*
X159909513Y-101238740D01*
X159853498Y-101335760D01*
X159853497Y-101335763D01*
X159824500Y-101443982D01*
X123017823Y-101443982D01*
X123016851Y-100043982D01*
X147674500Y-100043982D01*
X147674500Y-100156018D01*
X147703497Y-100264237D01*
X147759515Y-100361263D01*
X147838737Y-100440485D01*
X147935763Y-100496503D01*
X148043982Y-100525500D01*
X148043984Y-100525500D01*
X148156016Y-100525500D01*
X148156018Y-100525500D01*
X148264237Y-100496503D01*
X148361263Y-100440485D01*
X148440485Y-100361263D01*
X148496503Y-100264237D01*
X148525500Y-100156018D01*
X148525500Y-100043982D01*
X148496503Y-99935763D01*
X148440485Y-99838737D01*
X148361263Y-99759515D01*
X148264237Y-99703497D01*
X148156018Y-99674500D01*
X148043982Y-99674500D01*
X147935763Y-99703497D01*
X147935760Y-99703498D01*
X147838740Y-99759513D01*
X147838734Y-99759517D01*
X147759517Y-99838734D01*
X147759513Y-99838740D01*
X147703498Y-99935760D01*
X147703497Y-99935763D01*
X147674500Y-100043982D01*
X123016851Y-100043982D01*
X123016261Y-99193982D01*
X127074500Y-99193982D01*
X127074500Y-99306018D01*
X127103497Y-99414237D01*
X127159515Y-99511263D01*
X127238737Y-99590485D01*
X127335763Y-99646503D01*
X127443982Y-99675500D01*
X127443984Y-99675500D01*
X127556016Y-99675500D01*
X127556018Y-99675500D01*
X127664237Y-99646503D01*
X127761263Y-99590485D01*
X127807766Y-99543982D01*
X140874500Y-99543982D01*
X140874500Y-99656018D01*
X140903497Y-99764237D01*
X140959515Y-99861263D01*
X141038737Y-99940485D01*
X141135763Y-99996503D01*
X141243982Y-100025500D01*
X141243984Y-100025500D01*
X141356016Y-100025500D01*
X141356018Y-100025500D01*
X141464237Y-99996503D01*
X141561263Y-99940485D01*
X141640485Y-99861263D01*
X141696503Y-99764237D01*
X141725500Y-99656018D01*
X141725500Y-99543982D01*
X141696503Y-99435763D01*
X141640485Y-99338737D01*
X141561263Y-99259515D01*
X141464237Y-99203497D01*
X141356018Y-99174500D01*
X141243982Y-99174500D01*
X141135763Y-99203497D01*
X141135760Y-99203498D01*
X141038740Y-99259513D01*
X141038734Y-99259517D01*
X140959517Y-99338734D01*
X140959513Y-99338740D01*
X140903498Y-99435760D01*
X140903497Y-99435763D01*
X140874500Y-99543982D01*
X127807766Y-99543982D01*
X127840485Y-99511263D01*
X127896503Y-99414237D01*
X127925500Y-99306018D01*
X127925500Y-99193982D01*
X127896503Y-99085763D01*
X127872381Y-99043982D01*
X152274500Y-99043982D01*
X152274500Y-99156018D01*
X152303497Y-99264237D01*
X152359515Y-99361263D01*
X152438737Y-99440485D01*
X152535763Y-99496503D01*
X152643982Y-99525500D01*
X152643984Y-99525500D01*
X152756016Y-99525500D01*
X152756018Y-99525500D01*
X152864237Y-99496503D01*
X152961263Y-99440485D01*
X153040485Y-99361263D01*
X153096503Y-99264237D01*
X153125500Y-99156018D01*
X153125500Y-99043982D01*
X153096503Y-98935763D01*
X153040485Y-98838737D01*
X152961263Y-98759515D01*
X152864237Y-98703497D01*
X152756018Y-98674500D01*
X152643982Y-98674500D01*
X152535763Y-98703497D01*
X152535760Y-98703498D01*
X152438740Y-98759513D01*
X152438734Y-98759517D01*
X152359517Y-98838734D01*
X152359513Y-98838740D01*
X152303498Y-98935760D01*
X152303497Y-98935763D01*
X152274500Y-99043982D01*
X127872381Y-99043982D01*
X127840485Y-98988737D01*
X127761263Y-98909515D01*
X127664237Y-98853497D01*
X127556018Y-98824500D01*
X127443982Y-98824500D01*
X127335763Y-98853497D01*
X127335760Y-98853498D01*
X127238740Y-98909513D01*
X127238734Y-98909517D01*
X127159517Y-98988734D01*
X127159513Y-98988740D01*
X127103498Y-99085760D01*
X127103497Y-99085763D01*
X127074500Y-99193982D01*
X123016261Y-99193982D01*
X123016255Y-99185941D01*
X123015254Y-97743982D01*
X154874500Y-97743982D01*
X154874500Y-97856018D01*
X154903497Y-97964237D01*
X154959515Y-98061263D01*
X155038737Y-98140485D01*
X155135763Y-98196503D01*
X155243982Y-98225500D01*
X155243984Y-98225500D01*
X155356016Y-98225500D01*
X155356018Y-98225500D01*
X155464237Y-98196503D01*
X155561263Y-98140485D01*
X155640485Y-98061263D01*
X155696503Y-97964237D01*
X155725500Y-97856018D01*
X155725500Y-97743982D01*
X162874500Y-97743982D01*
X162874500Y-97856018D01*
X162903497Y-97964237D01*
X162959515Y-98061263D01*
X163038737Y-98140485D01*
X163135763Y-98196503D01*
X163243982Y-98225500D01*
X163243984Y-98225500D01*
X163356016Y-98225500D01*
X163356018Y-98225500D01*
X163464237Y-98196503D01*
X163561263Y-98140485D01*
X163640485Y-98061263D01*
X163696503Y-97964237D01*
X163725500Y-97856018D01*
X163725500Y-97743982D01*
X163696503Y-97635763D01*
X163640485Y-97538737D01*
X163561263Y-97459515D01*
X163464237Y-97403497D01*
X163356018Y-97374500D01*
X163243982Y-97374500D01*
X163135763Y-97403497D01*
X163135760Y-97403498D01*
X163038740Y-97459513D01*
X163038734Y-97459517D01*
X162959517Y-97538734D01*
X162959513Y-97538740D01*
X162903498Y-97635760D01*
X162903497Y-97635763D01*
X162874500Y-97743982D01*
X155725500Y-97743982D01*
X155696503Y-97635763D01*
X155640485Y-97538737D01*
X155561263Y-97459515D01*
X155464237Y-97403497D01*
X155356018Y-97374500D01*
X155243982Y-97374500D01*
X155135763Y-97403497D01*
X155135760Y-97403498D01*
X155038740Y-97459513D01*
X155038734Y-97459517D01*
X154959517Y-97538734D01*
X154959513Y-97538740D01*
X154903498Y-97635760D01*
X154903497Y-97635763D01*
X154874500Y-97743982D01*
X123015254Y-97743982D01*
X123015248Y-97735941D01*
X123013518Y-95243982D01*
X147774500Y-95243982D01*
X147774500Y-95356018D01*
X147803497Y-95464237D01*
X147859515Y-95561263D01*
X147938737Y-95640485D01*
X148035763Y-95696503D01*
X148143982Y-95725500D01*
X148143984Y-95725500D01*
X148256016Y-95725500D01*
X148256018Y-95725500D01*
X148364237Y-95696503D01*
X148461263Y-95640485D01*
X148540485Y-95561263D01*
X148596503Y-95464237D01*
X148625500Y-95356018D01*
X148625500Y-95243982D01*
X148596503Y-95135763D01*
X148540485Y-95038737D01*
X148461263Y-94959515D01*
X148364237Y-94903497D01*
X148256018Y-94874500D01*
X148143982Y-94874500D01*
X148035763Y-94903497D01*
X148035760Y-94903498D01*
X147938740Y-94959513D01*
X147938734Y-94959517D01*
X147859517Y-95038734D01*
X147859513Y-95038740D01*
X147803498Y-95135760D01*
X147803497Y-95135763D01*
X147774500Y-95243982D01*
X123013518Y-95243982D01*
X123013512Y-95235941D01*
X123012059Y-93143982D01*
X127474500Y-93143982D01*
X127474500Y-93256018D01*
X127503497Y-93364237D01*
X127559515Y-93461263D01*
X127638737Y-93540485D01*
X127735763Y-93596503D01*
X127843982Y-93625500D01*
X127843984Y-93625500D01*
X127956016Y-93625500D01*
X127956018Y-93625500D01*
X128064237Y-93596503D01*
X128161263Y-93540485D01*
X128240485Y-93461263D01*
X128296503Y-93364237D01*
X128325500Y-93256018D01*
X128325500Y-93143982D01*
X133274500Y-93143982D01*
X133274500Y-93256018D01*
X133303497Y-93364237D01*
X133359515Y-93461263D01*
X133438737Y-93540485D01*
X133535763Y-93596503D01*
X133643982Y-93625500D01*
X133643984Y-93625500D01*
X133756016Y-93625500D01*
X133756018Y-93625500D01*
X133864237Y-93596503D01*
X133955206Y-93543982D01*
X143074500Y-93543982D01*
X143074500Y-93656018D01*
X143103497Y-93764237D01*
X143159515Y-93861263D01*
X143238737Y-93940485D01*
X143335763Y-93996503D01*
X143443982Y-94025500D01*
X143443984Y-94025500D01*
X143556016Y-94025500D01*
X143556018Y-94025500D01*
X143664237Y-93996503D01*
X143761263Y-93940485D01*
X143840485Y-93861263D01*
X143896503Y-93764237D01*
X143925500Y-93656018D01*
X143925500Y-93543982D01*
X143896503Y-93435763D01*
X143840485Y-93338737D01*
X143761263Y-93259515D01*
X143664237Y-93203497D01*
X143556018Y-93174500D01*
X143443982Y-93174500D01*
X143335763Y-93203497D01*
X143335760Y-93203498D01*
X143238740Y-93259513D01*
X143238734Y-93259517D01*
X143159517Y-93338734D01*
X143159513Y-93338740D01*
X143103498Y-93435760D01*
X143103497Y-93435763D01*
X143074500Y-93543982D01*
X133955206Y-93543982D01*
X133961263Y-93540485D01*
X134040485Y-93461263D01*
X134096503Y-93364237D01*
X134125500Y-93256018D01*
X134125500Y-93143982D01*
X134096503Y-93035763D01*
X134040485Y-92938737D01*
X133961263Y-92859515D01*
X133864237Y-92803497D01*
X133756018Y-92774500D01*
X133643982Y-92774500D01*
X133535763Y-92803497D01*
X133535760Y-92803498D01*
X133438740Y-92859513D01*
X133438734Y-92859517D01*
X133359517Y-92938734D01*
X133359513Y-92938740D01*
X133303498Y-93035760D01*
X133303497Y-93035763D01*
X133274500Y-93143982D01*
X128325500Y-93143982D01*
X128296503Y-93035763D01*
X128240485Y-92938737D01*
X128161263Y-92859515D01*
X128064237Y-92803497D01*
X127956018Y-92774500D01*
X127843982Y-92774500D01*
X127735763Y-92803497D01*
X127735760Y-92803498D01*
X127638740Y-92859513D01*
X127638734Y-92859517D01*
X127559517Y-92938734D01*
X127559513Y-92938740D01*
X127503498Y-93035760D01*
X127503497Y-93035763D01*
X127474500Y-93143982D01*
X123012059Y-93143982D01*
X123012053Y-93135941D01*
X123011642Y-92543982D01*
X147674500Y-92543982D01*
X147674500Y-92656018D01*
X147703497Y-92764237D01*
X147759515Y-92861263D01*
X147838737Y-92940485D01*
X147935763Y-92996503D01*
X148043982Y-93025500D01*
X148043984Y-93025500D01*
X148156016Y-93025500D01*
X148156018Y-93025500D01*
X148264237Y-92996503D01*
X148361263Y-92940485D01*
X148440485Y-92861263D01*
X148496503Y-92764237D01*
X148525500Y-92656018D01*
X148525500Y-92543982D01*
X148496503Y-92435763D01*
X148440485Y-92338737D01*
X148361263Y-92259515D01*
X148264237Y-92203497D01*
X148156018Y-92174500D01*
X148043982Y-92174500D01*
X147935763Y-92203497D01*
X147935760Y-92203498D01*
X147838740Y-92259513D01*
X147838734Y-92259517D01*
X147759517Y-92338734D01*
X147759513Y-92338740D01*
X147703498Y-92435760D01*
X147703497Y-92435763D01*
X147674500Y-92543982D01*
X123011642Y-92543982D01*
X123011539Y-92396501D01*
X123011156Y-91843982D01*
X135874500Y-91843982D01*
X135874500Y-91956018D01*
X135903497Y-92064237D01*
X135959515Y-92161263D01*
X136038737Y-92240485D01*
X136135763Y-92296503D01*
X136243982Y-92325500D01*
X136243984Y-92325500D01*
X136356016Y-92325500D01*
X136356018Y-92325500D01*
X136464237Y-92296503D01*
X136561263Y-92240485D01*
X136640485Y-92161263D01*
X136696503Y-92064237D01*
X136725500Y-91956018D01*
X136725500Y-91943982D01*
X143074500Y-91943982D01*
X143074500Y-92056018D01*
X143103497Y-92164237D01*
X143159515Y-92261263D01*
X143238737Y-92340485D01*
X143335763Y-92396503D01*
X143443982Y-92425500D01*
X143443984Y-92425500D01*
X143556016Y-92425500D01*
X143556018Y-92425500D01*
X143664237Y-92396503D01*
X143761263Y-92340485D01*
X143840485Y-92261263D01*
X143896503Y-92164237D01*
X143925500Y-92056018D01*
X143925500Y-91943982D01*
X143896503Y-91835763D01*
X143840485Y-91738737D01*
X143761263Y-91659515D01*
X143664237Y-91603497D01*
X143556018Y-91574500D01*
X143443982Y-91574500D01*
X143335763Y-91603497D01*
X143335760Y-91603498D01*
X143238740Y-91659513D01*
X143238734Y-91659517D01*
X143159517Y-91738734D01*
X143159513Y-91738740D01*
X143103498Y-91835760D01*
X143103497Y-91835763D01*
X143074500Y-91943982D01*
X136725500Y-91943982D01*
X136725500Y-91843982D01*
X136696503Y-91735763D01*
X136640485Y-91638737D01*
X136561263Y-91559515D01*
X136464237Y-91503497D01*
X136356018Y-91474500D01*
X136243982Y-91474500D01*
X136135763Y-91503497D01*
X136135760Y-91503498D01*
X136038740Y-91559513D01*
X136038734Y-91559517D01*
X135959517Y-91638734D01*
X135959513Y-91638740D01*
X135903498Y-91735760D01*
X135903497Y-91735763D01*
X135874500Y-91843982D01*
X123011156Y-91843982D01*
X123010692Y-91175499D01*
X123010358Y-90693982D01*
X155324500Y-90693982D01*
X155324500Y-90806018D01*
X155353497Y-90914237D01*
X155409515Y-91011263D01*
X155488737Y-91090485D01*
X155585763Y-91146503D01*
X155693982Y-91175500D01*
X155693984Y-91175500D01*
X155806016Y-91175500D01*
X155806018Y-91175500D01*
X155914237Y-91146503D01*
X156011263Y-91090485D01*
X156090485Y-91011263D01*
X156146503Y-90914237D01*
X156175500Y-90806018D01*
X156175500Y-90693982D01*
X156146503Y-90585763D01*
X156090485Y-90488737D01*
X156011263Y-90409515D01*
X155914237Y-90353497D01*
X155806018Y-90324500D01*
X155693982Y-90324500D01*
X155585763Y-90353497D01*
X155585760Y-90353498D01*
X155488740Y-90409513D01*
X155488734Y-90409517D01*
X155409517Y-90488734D01*
X155409513Y-90488740D01*
X155353498Y-90585760D01*
X155353497Y-90585763D01*
X155324500Y-90693982D01*
X123010358Y-90693982D01*
X123010352Y-90685941D01*
X123009837Y-89943982D01*
X126824500Y-89943982D01*
X126824500Y-90056018D01*
X126853497Y-90164237D01*
X126909515Y-90261263D01*
X126988737Y-90340485D01*
X127085763Y-90396503D01*
X127193982Y-90425500D01*
X127193984Y-90425500D01*
X127306016Y-90425500D01*
X127306018Y-90425500D01*
X127414237Y-90396503D01*
X127511263Y-90340485D01*
X127590485Y-90261263D01*
X127646503Y-90164237D01*
X127675500Y-90056018D01*
X127675500Y-89943982D01*
X127646503Y-89835763D01*
X127590485Y-89738737D01*
X127511263Y-89659515D01*
X127414237Y-89603497D01*
X127306018Y-89574500D01*
X127193982Y-89574500D01*
X127085763Y-89603497D01*
X127085760Y-89603498D01*
X126988740Y-89659513D01*
X126988734Y-89659517D01*
X126909517Y-89738734D01*
X126909513Y-89738740D01*
X126853498Y-89835760D01*
X126853497Y-89835763D01*
X126824500Y-89943982D01*
X123009837Y-89943982D01*
X123009316Y-89193982D01*
X130824500Y-89193982D01*
X130824500Y-89306018D01*
X130853497Y-89414237D01*
X130909515Y-89511263D01*
X130988737Y-89590485D01*
X131085763Y-89646503D01*
X131193982Y-89675500D01*
X131193984Y-89675500D01*
X131306016Y-89675500D01*
X131306018Y-89675500D01*
X131414237Y-89646503D01*
X131511263Y-89590485D01*
X131590485Y-89511263D01*
X131646503Y-89414237D01*
X131675500Y-89306018D01*
X131675500Y-89193982D01*
X148824500Y-89193982D01*
X148824500Y-89306018D01*
X148853497Y-89414237D01*
X148909515Y-89511263D01*
X148988737Y-89590485D01*
X149085763Y-89646503D01*
X149193982Y-89675500D01*
X149193984Y-89675500D01*
X149306016Y-89675500D01*
X149306018Y-89675500D01*
X149414237Y-89646503D01*
X149511263Y-89590485D01*
X149590485Y-89511263D01*
X149646503Y-89414237D01*
X149675500Y-89306018D01*
X149675500Y-89193982D01*
X149646503Y-89085763D01*
X149590485Y-88988737D01*
X149545730Y-88943982D01*
X157824500Y-88943982D01*
X157824500Y-89056018D01*
X157853497Y-89164237D01*
X157909515Y-89261263D01*
X157988737Y-89340485D01*
X158085763Y-89396503D01*
X158193982Y-89425500D01*
X158193984Y-89425500D01*
X158306016Y-89425500D01*
X158306018Y-89425500D01*
X158414237Y-89396503D01*
X158511263Y-89340485D01*
X158590485Y-89261263D01*
X158646503Y-89164237D01*
X158675500Y-89056018D01*
X158675500Y-88943982D01*
X158646503Y-88835763D01*
X158590485Y-88738737D01*
X158511263Y-88659515D01*
X158414237Y-88603497D01*
X158306018Y-88574500D01*
X158193982Y-88574500D01*
X158085763Y-88603497D01*
X158085760Y-88603498D01*
X157988740Y-88659513D01*
X157988734Y-88659517D01*
X157909517Y-88738734D01*
X157909513Y-88738740D01*
X157853498Y-88835760D01*
X157853497Y-88835763D01*
X157824500Y-88943982D01*
X149545730Y-88943982D01*
X149511263Y-88909515D01*
X149414237Y-88853497D01*
X149306018Y-88824500D01*
X149193982Y-88824500D01*
X149085763Y-88853497D01*
X149085760Y-88853498D01*
X148988740Y-88909513D01*
X148988734Y-88909517D01*
X148909517Y-88988734D01*
X148909513Y-88988740D01*
X148853498Y-89085760D01*
X148853497Y-89085763D01*
X148824500Y-89193982D01*
X131675500Y-89193982D01*
X131646503Y-89085763D01*
X131590485Y-88988737D01*
X131511263Y-88909515D01*
X131414237Y-88853497D01*
X131306018Y-88824500D01*
X131193982Y-88824500D01*
X131085763Y-88853497D01*
X131085760Y-88853498D01*
X130988740Y-88909513D01*
X130988734Y-88909517D01*
X130909517Y-88988734D01*
X130909513Y-88988740D01*
X130853498Y-89085760D01*
X130853497Y-89085763D01*
X130824500Y-89193982D01*
X123009316Y-89193982D01*
X123009310Y-89185941D01*
X123007754Y-86943982D01*
X139374500Y-86943982D01*
X139374500Y-87056018D01*
X139403497Y-87164237D01*
X139459515Y-87261263D01*
X139538737Y-87340485D01*
X139635763Y-87396503D01*
X139743982Y-87425500D01*
X139743984Y-87425500D01*
X139856016Y-87425500D01*
X139856018Y-87425500D01*
X139964237Y-87396503D01*
X140061263Y-87340485D01*
X140140485Y-87261263D01*
X140196503Y-87164237D01*
X140225500Y-87056018D01*
X140225500Y-86943982D01*
X152374500Y-86943982D01*
X152374500Y-87056018D01*
X152403497Y-87164237D01*
X152459515Y-87261263D01*
X152538737Y-87340485D01*
X152635763Y-87396503D01*
X152743982Y-87425500D01*
X152743984Y-87425500D01*
X152856016Y-87425500D01*
X152856018Y-87425500D01*
X152964237Y-87396503D01*
X153061263Y-87340485D01*
X153140485Y-87261263D01*
X153196503Y-87164237D01*
X153225500Y-87056018D01*
X153225500Y-86943982D01*
X153196503Y-86835763D01*
X153140485Y-86738737D01*
X153061263Y-86659515D01*
X152964237Y-86603497D01*
X152856018Y-86574500D01*
X152743982Y-86574500D01*
X152635763Y-86603497D01*
X152635760Y-86603498D01*
X152538740Y-86659513D01*
X152538734Y-86659517D01*
X152459517Y-86738734D01*
X152459513Y-86738740D01*
X152403498Y-86835760D01*
X152403497Y-86835763D01*
X152374500Y-86943982D01*
X140225500Y-86943982D01*
X140196503Y-86835763D01*
X140140485Y-86738737D01*
X140061263Y-86659515D01*
X139964237Y-86603497D01*
X139856018Y-86574500D01*
X139743982Y-86574500D01*
X139635763Y-86603497D01*
X139635760Y-86603498D01*
X139538740Y-86659513D01*
X139538734Y-86659517D01*
X139459517Y-86738734D01*
X139459513Y-86738740D01*
X139403498Y-86835760D01*
X139403497Y-86835763D01*
X139374500Y-86943982D01*
X123007754Y-86943982D01*
X123007748Y-86935941D01*
X123006921Y-85743982D01*
X141874500Y-85743982D01*
X141874500Y-85856018D01*
X141903497Y-85964237D01*
X141959515Y-86061263D01*
X142038737Y-86140485D01*
X142135763Y-86196503D01*
X142243982Y-86225500D01*
X142243984Y-86225500D01*
X142356016Y-86225500D01*
X142356018Y-86225500D01*
X142464237Y-86196503D01*
X142561263Y-86140485D01*
X142640485Y-86061263D01*
X142696503Y-85964237D01*
X142725500Y-85856018D01*
X142725500Y-85743982D01*
X147874500Y-85743982D01*
X147874500Y-85856018D01*
X147903497Y-85964237D01*
X147959515Y-86061263D01*
X148038737Y-86140485D01*
X148135763Y-86196503D01*
X148243982Y-86225500D01*
X148243984Y-86225500D01*
X148356016Y-86225500D01*
X148356018Y-86225500D01*
X148464237Y-86196503D01*
X148561263Y-86140485D01*
X148640485Y-86061263D01*
X148696503Y-85964237D01*
X148725500Y-85856018D01*
X148725500Y-85743982D01*
X154874500Y-85743982D01*
X154874500Y-85856018D01*
X154903497Y-85964237D01*
X154959515Y-86061263D01*
X155038737Y-86140485D01*
X155135763Y-86196503D01*
X155243982Y-86225500D01*
X155243984Y-86225500D01*
X155356016Y-86225500D01*
X155356018Y-86225500D01*
X155464237Y-86196503D01*
X155561263Y-86140485D01*
X155640485Y-86061263D01*
X155696503Y-85964237D01*
X155725500Y-85856018D01*
X155725500Y-85743982D01*
X160774500Y-85743982D01*
X160774500Y-85856018D01*
X160803497Y-85964237D01*
X160859515Y-86061263D01*
X160938737Y-86140485D01*
X161035763Y-86196503D01*
X161143982Y-86225500D01*
X161143984Y-86225500D01*
X161256016Y-86225500D01*
X161256018Y-86225500D01*
X161364237Y-86196503D01*
X161461263Y-86140485D01*
X161540485Y-86061263D01*
X161596503Y-85964237D01*
X161625500Y-85856018D01*
X161625500Y-85743982D01*
X161596503Y-85635763D01*
X161540485Y-85538737D01*
X161461263Y-85459515D01*
X161364237Y-85403497D01*
X161256018Y-85374500D01*
X161143982Y-85374500D01*
X161035763Y-85403497D01*
X161035760Y-85403498D01*
X160938740Y-85459513D01*
X160938734Y-85459517D01*
X160859517Y-85538734D01*
X160859513Y-85538740D01*
X160803498Y-85635760D01*
X160803497Y-85635763D01*
X160774500Y-85743982D01*
X155725500Y-85743982D01*
X155696503Y-85635763D01*
X155640485Y-85538737D01*
X155561263Y-85459515D01*
X155464237Y-85403497D01*
X155356018Y-85374500D01*
X155243982Y-85374500D01*
X155135763Y-85403497D01*
X155135760Y-85403498D01*
X155038740Y-85459513D01*
X155038734Y-85459517D01*
X154959517Y-85538734D01*
X154959513Y-85538740D01*
X154903498Y-85635760D01*
X154903497Y-85635763D01*
X154874500Y-85743982D01*
X148725500Y-85743982D01*
X148696503Y-85635763D01*
X148640485Y-85538737D01*
X148561263Y-85459515D01*
X148464237Y-85403497D01*
X148356018Y-85374500D01*
X148243982Y-85374500D01*
X148135763Y-85403497D01*
X148135760Y-85403498D01*
X148038740Y-85459513D01*
X148038734Y-85459517D01*
X147959517Y-85538734D01*
X147959513Y-85538740D01*
X147903498Y-85635760D01*
X147903497Y-85635763D01*
X147874500Y-85743982D01*
X142725500Y-85743982D01*
X142696503Y-85635763D01*
X142640485Y-85538737D01*
X142561263Y-85459515D01*
X142464237Y-85403497D01*
X142356018Y-85374500D01*
X142243982Y-85374500D01*
X142135763Y-85403497D01*
X142135760Y-85403498D01*
X142038740Y-85459513D01*
X142038734Y-85459517D01*
X141959517Y-85538734D01*
X141959513Y-85538740D01*
X141903498Y-85635760D01*
X141903497Y-85635763D01*
X141874500Y-85743982D01*
X123006921Y-85743982D01*
X123006915Y-85735941D01*
X123003726Y-81143982D01*
X127374500Y-81143982D01*
X127374500Y-81256018D01*
X127403497Y-81364237D01*
X127459515Y-81461263D01*
X127538737Y-81540485D01*
X127635763Y-81596503D01*
X127743982Y-81625500D01*
X127743984Y-81625500D01*
X127856016Y-81625500D01*
X127856018Y-81625500D01*
X127964237Y-81596503D01*
X128061263Y-81540485D01*
X128140485Y-81461263D01*
X128196503Y-81364237D01*
X128225500Y-81256018D01*
X128225500Y-81143982D01*
X133274500Y-81143982D01*
X133274500Y-81256018D01*
X133303497Y-81364237D01*
X133359515Y-81461263D01*
X133438737Y-81540485D01*
X133535763Y-81596503D01*
X133643982Y-81625500D01*
X133643984Y-81625500D01*
X133756016Y-81625500D01*
X133756018Y-81625500D01*
X133864237Y-81596503D01*
X133961263Y-81540485D01*
X134040485Y-81461263D01*
X134096503Y-81364237D01*
X134125500Y-81256018D01*
X134125500Y-81143982D01*
X134096503Y-81035763D01*
X134040485Y-80938737D01*
X133961263Y-80859515D01*
X133864237Y-80803497D01*
X133756018Y-80774500D01*
X133643982Y-80774500D01*
X133535763Y-80803497D01*
X133535760Y-80803498D01*
X133438740Y-80859513D01*
X133438734Y-80859517D01*
X133359517Y-80938734D01*
X133359513Y-80938740D01*
X133303498Y-81035760D01*
X133303497Y-81035763D01*
X133274500Y-81143982D01*
X128225500Y-81143982D01*
X128196503Y-81035763D01*
X128140485Y-80938737D01*
X128061263Y-80859515D01*
X127964237Y-80803497D01*
X127856018Y-80774500D01*
X127743982Y-80774500D01*
X127635763Y-80803497D01*
X127635760Y-80803498D01*
X127538740Y-80859513D01*
X127538734Y-80859517D01*
X127459517Y-80938734D01*
X127459513Y-80938740D01*
X127403498Y-81035760D01*
X127403497Y-81035763D01*
X127374500Y-81143982D01*
X123003726Y-81143982D01*
X123003720Y-81135941D01*
X123002962Y-80043982D01*
X135874500Y-80043982D01*
X135874500Y-80156018D01*
X135903497Y-80264237D01*
X135959515Y-80361263D01*
X136038737Y-80440485D01*
X136135763Y-80496503D01*
X136243982Y-80525500D01*
X136243984Y-80525500D01*
X136356016Y-80525500D01*
X136356018Y-80525500D01*
X136464237Y-80496503D01*
X136561263Y-80440485D01*
X136640485Y-80361263D01*
X136696503Y-80264237D01*
X136725500Y-80156018D01*
X136725500Y-80043982D01*
X136696503Y-79935763D01*
X136640485Y-79838737D01*
X136561263Y-79759515D01*
X136464237Y-79703497D01*
X136356018Y-79674500D01*
X136243982Y-79674500D01*
X136135763Y-79703497D01*
X136135760Y-79703498D01*
X136038740Y-79759513D01*
X136038734Y-79759517D01*
X135959517Y-79838734D01*
X135959513Y-79838740D01*
X135903498Y-79935760D01*
X135903497Y-79935763D01*
X135874500Y-80043982D01*
X123002962Y-80043982D01*
X123002956Y-80035941D01*
X123002025Y-78693982D01*
X161324500Y-78693982D01*
X161324500Y-78806018D01*
X161353497Y-78914237D01*
X161409515Y-79011263D01*
X161488737Y-79090485D01*
X161585763Y-79146503D01*
X161693982Y-79175500D01*
X161693984Y-79175500D01*
X161806016Y-79175500D01*
X161806018Y-79175500D01*
X161914237Y-79146503D01*
X162011263Y-79090485D01*
X162090485Y-79011263D01*
X162146503Y-78914237D01*
X162175500Y-78806018D01*
X162175500Y-78693982D01*
X162146503Y-78585763D01*
X162090485Y-78488737D01*
X162011263Y-78409515D01*
X161914237Y-78353497D01*
X161806018Y-78324500D01*
X161693982Y-78324500D01*
X161585763Y-78353497D01*
X161585760Y-78353498D01*
X161488740Y-78409513D01*
X161488734Y-78409517D01*
X161409517Y-78488734D01*
X161409513Y-78488740D01*
X161353498Y-78585760D01*
X161353497Y-78585763D01*
X161324500Y-78693982D01*
X123002025Y-78693982D01*
X123001504Y-77943982D01*
X130074500Y-77943982D01*
X130074500Y-78056018D01*
X130103497Y-78164237D01*
X130159515Y-78261263D01*
X130238737Y-78340485D01*
X130335763Y-78396503D01*
X130443982Y-78425500D01*
X130443984Y-78425500D01*
X130556016Y-78425500D01*
X130556018Y-78425500D01*
X130664237Y-78396503D01*
X130761263Y-78340485D01*
X130840485Y-78261263D01*
X130879330Y-78193982D01*
X147574500Y-78193982D01*
X147574500Y-78306018D01*
X147603497Y-78414237D01*
X147659515Y-78511263D01*
X147738737Y-78590485D01*
X147835763Y-78646503D01*
X147943982Y-78675500D01*
X147943984Y-78675500D01*
X148056016Y-78675500D01*
X148056018Y-78675500D01*
X148164237Y-78646503D01*
X148261263Y-78590485D01*
X148340485Y-78511263D01*
X148396503Y-78414237D01*
X148425500Y-78306018D01*
X148425500Y-78193982D01*
X148396503Y-78085763D01*
X148340485Y-77988737D01*
X148261263Y-77909515D01*
X148164237Y-77853497D01*
X148056018Y-77824500D01*
X147943982Y-77824500D01*
X147835763Y-77853497D01*
X147835760Y-77853498D01*
X147738740Y-77909513D01*
X147738734Y-77909517D01*
X147659517Y-77988734D01*
X147659513Y-77988740D01*
X147603498Y-78085760D01*
X147603497Y-78085763D01*
X147574500Y-78193982D01*
X130879330Y-78193982D01*
X130896503Y-78164237D01*
X130925500Y-78056018D01*
X130925500Y-77943982D01*
X130896503Y-77835763D01*
X130840485Y-77738737D01*
X130795730Y-77693982D01*
X142574500Y-77693982D01*
X142574500Y-77806018D01*
X142603497Y-77914237D01*
X142659515Y-78011263D01*
X142738737Y-78090485D01*
X142835763Y-78146503D01*
X142943982Y-78175500D01*
X142943984Y-78175500D01*
X143056016Y-78175500D01*
X143056018Y-78175500D01*
X143164237Y-78146503D01*
X143261263Y-78090485D01*
X143340485Y-78011263D01*
X143396503Y-77914237D01*
X143425500Y-77806018D01*
X143425500Y-77693982D01*
X143396503Y-77585763D01*
X143340485Y-77488737D01*
X143261263Y-77409515D01*
X143164237Y-77353497D01*
X143056018Y-77324500D01*
X142943982Y-77324500D01*
X142835763Y-77353497D01*
X142835760Y-77353498D01*
X142738740Y-77409513D01*
X142738734Y-77409517D01*
X142659517Y-77488734D01*
X142659513Y-77488740D01*
X142603498Y-77585760D01*
X142603497Y-77585763D01*
X142574500Y-77693982D01*
X130795730Y-77693982D01*
X130761263Y-77659515D01*
X130664237Y-77603497D01*
X130556018Y-77574500D01*
X130443982Y-77574500D01*
X130335763Y-77603497D01*
X130335760Y-77603498D01*
X130238740Y-77659513D01*
X130238734Y-77659517D01*
X130159517Y-77738734D01*
X130159513Y-77738740D01*
X130103498Y-77835760D01*
X130103497Y-77835763D01*
X130074500Y-77943982D01*
X123001504Y-77943982D01*
X123001498Y-77935941D01*
X123000983Y-77193982D01*
X125824500Y-77193982D01*
X125824500Y-77306018D01*
X125853497Y-77414237D01*
X125909515Y-77511263D01*
X125988737Y-77590485D01*
X126085763Y-77646503D01*
X126193982Y-77675500D01*
X126193984Y-77675500D01*
X126306016Y-77675500D01*
X126306018Y-77675500D01*
X126414237Y-77646503D01*
X126511263Y-77590485D01*
X126590485Y-77511263D01*
X126646503Y-77414237D01*
X126675500Y-77306018D01*
X126675500Y-77193982D01*
X126646503Y-77085763D01*
X126590485Y-76988737D01*
X126545730Y-76943982D01*
X157324500Y-76943982D01*
X157324500Y-77056018D01*
X157353497Y-77164237D01*
X157409515Y-77261263D01*
X157488737Y-77340485D01*
X157585763Y-77396503D01*
X157693982Y-77425500D01*
X157693984Y-77425500D01*
X157806016Y-77425500D01*
X157806018Y-77425500D01*
X157914237Y-77396503D01*
X158011263Y-77340485D01*
X158090485Y-77261263D01*
X158146503Y-77164237D01*
X158175500Y-77056018D01*
X158175500Y-76943982D01*
X158146503Y-76835763D01*
X158090485Y-76738737D01*
X158011263Y-76659515D01*
X157914237Y-76603497D01*
X157806018Y-76574500D01*
X157693982Y-76574500D01*
X157585763Y-76603497D01*
X157585760Y-76603498D01*
X157488740Y-76659513D01*
X157488734Y-76659517D01*
X157409517Y-76738734D01*
X157409513Y-76738740D01*
X157353498Y-76835760D01*
X157353497Y-76835763D01*
X157324500Y-76943982D01*
X126545730Y-76943982D01*
X126511263Y-76909515D01*
X126414237Y-76853497D01*
X126306018Y-76824500D01*
X126193982Y-76824500D01*
X126085763Y-76853497D01*
X126085760Y-76853498D01*
X125988740Y-76909513D01*
X125988734Y-76909517D01*
X125909517Y-76988734D01*
X125909513Y-76988740D01*
X125853498Y-77085760D01*
X125853497Y-77085763D01*
X125824500Y-77193982D01*
X123000983Y-77193982D01*
X122999420Y-74943982D01*
X139374500Y-74943982D01*
X139374500Y-75056018D01*
X139403497Y-75164237D01*
X139459515Y-75261263D01*
X139538737Y-75340485D01*
X139635763Y-75396503D01*
X139743982Y-75425500D01*
X139743984Y-75425500D01*
X139856016Y-75425500D01*
X139856018Y-75425500D01*
X139964237Y-75396503D01*
X140061263Y-75340485D01*
X140140485Y-75261263D01*
X140196503Y-75164237D01*
X140225500Y-75056018D01*
X140225500Y-74943982D01*
X152374500Y-74943982D01*
X152374500Y-75056018D01*
X152403497Y-75164237D01*
X152459515Y-75261263D01*
X152538737Y-75340485D01*
X152635763Y-75396503D01*
X152743982Y-75425500D01*
X152743984Y-75425500D01*
X152856016Y-75425500D01*
X152856018Y-75425500D01*
X152964237Y-75396503D01*
X153061263Y-75340485D01*
X153140485Y-75261263D01*
X153196503Y-75164237D01*
X153225500Y-75056018D01*
X153225500Y-74943982D01*
X153196503Y-74835763D01*
X153140485Y-74738737D01*
X153061263Y-74659515D01*
X152964237Y-74603497D01*
X152856018Y-74574500D01*
X152743982Y-74574500D01*
X152635763Y-74603497D01*
X152635760Y-74603498D01*
X152538740Y-74659513D01*
X152538734Y-74659517D01*
X152459517Y-74738734D01*
X152459513Y-74738740D01*
X152403498Y-74835760D01*
X152403497Y-74835763D01*
X152374500Y-74943982D01*
X140225500Y-74943982D01*
X140196503Y-74835763D01*
X140140485Y-74738737D01*
X140061263Y-74659515D01*
X139964237Y-74603497D01*
X139856018Y-74574500D01*
X139743982Y-74574500D01*
X139635763Y-74603497D01*
X139635760Y-74603498D01*
X139538740Y-74659513D01*
X139538734Y-74659517D01*
X139459517Y-74738734D01*
X139459513Y-74738740D01*
X139403498Y-74835760D01*
X139403497Y-74835763D01*
X139374500Y-74943982D01*
X122999420Y-74943982D01*
X122999414Y-74935941D01*
X122998587Y-73743982D01*
X141874500Y-73743982D01*
X141874500Y-73856018D01*
X141903497Y-73964237D01*
X141959515Y-74061263D01*
X142038737Y-74140485D01*
X142135763Y-74196503D01*
X142243982Y-74225500D01*
X142243984Y-74225500D01*
X142356016Y-74225500D01*
X142356018Y-74225500D01*
X142464237Y-74196503D01*
X142561263Y-74140485D01*
X142640485Y-74061263D01*
X142696503Y-73964237D01*
X142725500Y-73856018D01*
X142725500Y-73743982D01*
X147774500Y-73743982D01*
X147774500Y-73856018D01*
X147803497Y-73964237D01*
X147859515Y-74061263D01*
X147938737Y-74140485D01*
X148035763Y-74196503D01*
X148143982Y-74225500D01*
X148143984Y-74225500D01*
X148256016Y-74225500D01*
X148256018Y-74225500D01*
X148364237Y-74196503D01*
X148461263Y-74140485D01*
X148540485Y-74061263D01*
X148596503Y-73964237D01*
X148625500Y-73856018D01*
X148625500Y-73743982D01*
X148598705Y-73643982D01*
X151474500Y-73643982D01*
X151474500Y-73756018D01*
X151503497Y-73864237D01*
X151559515Y-73961263D01*
X151638737Y-74040485D01*
X151735763Y-74096503D01*
X151843982Y-74125500D01*
X151843984Y-74125500D01*
X151956016Y-74125500D01*
X151956018Y-74125500D01*
X152064237Y-74096503D01*
X152161263Y-74040485D01*
X152240485Y-73961263D01*
X152296503Y-73864237D01*
X152325500Y-73756018D01*
X152325500Y-73743982D01*
X154874500Y-73743982D01*
X154874500Y-73856018D01*
X154903497Y-73964237D01*
X154959515Y-74061263D01*
X155038737Y-74140485D01*
X155135763Y-74196503D01*
X155243982Y-74225500D01*
X155243984Y-74225500D01*
X155356016Y-74225500D01*
X155356018Y-74225500D01*
X155464237Y-74196503D01*
X155561263Y-74140485D01*
X155640485Y-74061263D01*
X155696503Y-73964237D01*
X155725500Y-73856018D01*
X155725500Y-73743982D01*
X160774500Y-73743982D01*
X160774500Y-73856018D01*
X160803497Y-73964237D01*
X160859515Y-74061263D01*
X160938737Y-74140485D01*
X161035763Y-74196503D01*
X161143982Y-74225500D01*
X161143984Y-74225500D01*
X161256016Y-74225500D01*
X161256018Y-74225500D01*
X161364237Y-74196503D01*
X161461263Y-74140485D01*
X161540485Y-74061263D01*
X161596503Y-73964237D01*
X161625500Y-73856018D01*
X161625500Y-73743982D01*
X161596503Y-73635763D01*
X161540485Y-73538737D01*
X161461263Y-73459515D01*
X161364237Y-73403497D01*
X161256018Y-73374500D01*
X161143982Y-73374500D01*
X161035763Y-73403497D01*
X161035760Y-73403498D01*
X160938740Y-73459513D01*
X160938734Y-73459517D01*
X160859517Y-73538734D01*
X160859513Y-73538740D01*
X160803498Y-73635760D01*
X160803497Y-73635763D01*
X160774500Y-73743982D01*
X155725500Y-73743982D01*
X155696503Y-73635763D01*
X155640485Y-73538737D01*
X155561263Y-73459515D01*
X155464237Y-73403497D01*
X155356018Y-73374500D01*
X155243982Y-73374500D01*
X155135763Y-73403497D01*
X155135760Y-73403498D01*
X155038740Y-73459513D01*
X155038734Y-73459517D01*
X154959517Y-73538734D01*
X154959513Y-73538740D01*
X154903498Y-73635760D01*
X154903497Y-73635763D01*
X154874500Y-73743982D01*
X152325500Y-73743982D01*
X152325500Y-73643982D01*
X152296503Y-73535763D01*
X152240485Y-73438737D01*
X152161263Y-73359515D01*
X152064237Y-73303497D01*
X151956018Y-73274500D01*
X151843982Y-73274500D01*
X151735763Y-73303497D01*
X151735760Y-73303498D01*
X151638740Y-73359513D01*
X151638734Y-73359517D01*
X151559517Y-73438734D01*
X151559513Y-73438740D01*
X151503498Y-73535760D01*
X151503497Y-73535763D01*
X151474500Y-73643982D01*
X148598705Y-73643982D01*
X148596503Y-73635763D01*
X148540485Y-73538737D01*
X148461263Y-73459515D01*
X148364237Y-73403497D01*
X148256018Y-73374500D01*
X148143982Y-73374500D01*
X148035763Y-73403497D01*
X148035760Y-73403498D01*
X147938740Y-73459513D01*
X147938734Y-73459517D01*
X147859517Y-73538734D01*
X147859513Y-73538740D01*
X147803498Y-73635760D01*
X147803497Y-73635763D01*
X147774500Y-73743982D01*
X142725500Y-73743982D01*
X142696503Y-73635763D01*
X142640485Y-73538737D01*
X142561263Y-73459515D01*
X142464237Y-73403497D01*
X142356018Y-73374500D01*
X142243982Y-73374500D01*
X142135763Y-73403497D01*
X142135760Y-73403498D01*
X142038740Y-73459513D01*
X142038734Y-73459517D01*
X141959517Y-73538734D01*
X141959513Y-73538740D01*
X141903498Y-73635760D01*
X141903497Y-73635763D01*
X141874500Y-73743982D01*
X122998587Y-73743982D01*
X122998581Y-73735941D01*
X122997406Y-72043982D01*
X137274500Y-72043982D01*
X137274500Y-72156018D01*
X137303497Y-72264237D01*
X137359515Y-72361263D01*
X137438737Y-72440485D01*
X137535763Y-72496503D01*
X137643982Y-72525500D01*
X137643984Y-72525500D01*
X137756016Y-72525500D01*
X137756018Y-72525500D01*
X137864237Y-72496503D01*
X137961263Y-72440485D01*
X138040485Y-72361263D01*
X138096503Y-72264237D01*
X138125500Y-72156018D01*
X138125500Y-72043982D01*
X138096503Y-71935763D01*
X138040485Y-71838737D01*
X137961263Y-71759515D01*
X137864237Y-71703497D01*
X137756018Y-71674500D01*
X137643982Y-71674500D01*
X137535763Y-71703497D01*
X137535760Y-71703498D01*
X137438740Y-71759513D01*
X137438734Y-71759517D01*
X137359517Y-71838734D01*
X137359513Y-71838740D01*
X137303498Y-71935760D01*
X137303497Y-71935763D01*
X137274500Y-72043982D01*
X122997406Y-72043982D01*
X122997400Y-72035941D01*
X122995545Y-69364236D01*
X122995392Y-69143982D01*
X127374500Y-69143982D01*
X127374500Y-69256018D01*
X127403497Y-69364237D01*
X127459515Y-69461263D01*
X127538737Y-69540485D01*
X127635763Y-69596503D01*
X127743982Y-69625500D01*
X127743984Y-69625500D01*
X127856016Y-69625500D01*
X127856018Y-69625500D01*
X127964237Y-69596503D01*
X128061263Y-69540485D01*
X128140485Y-69461263D01*
X128196503Y-69364237D01*
X128225500Y-69256018D01*
X128225500Y-69143982D01*
X133174500Y-69143982D01*
X133174500Y-69256018D01*
X133203497Y-69364237D01*
X133259515Y-69461263D01*
X133338737Y-69540485D01*
X133435763Y-69596503D01*
X133543982Y-69625500D01*
X133543984Y-69625500D01*
X133656016Y-69625500D01*
X133656018Y-69625500D01*
X133764237Y-69596503D01*
X133861263Y-69540485D01*
X133940485Y-69461263D01*
X133996503Y-69364237D01*
X134025500Y-69256018D01*
X134025500Y-69143982D01*
X133996503Y-69035763D01*
X133940485Y-68938737D01*
X133861263Y-68859515D01*
X133764237Y-68803497D01*
X133656018Y-68774500D01*
X133543982Y-68774500D01*
X133435763Y-68803497D01*
X133435760Y-68803498D01*
X133338740Y-68859513D01*
X133338734Y-68859517D01*
X133259517Y-68938734D01*
X133259513Y-68938740D01*
X133203498Y-69035760D01*
X133203497Y-69035763D01*
X133174500Y-69143982D01*
X128225500Y-69143982D01*
X128196503Y-69035763D01*
X128140485Y-68938737D01*
X128061263Y-68859515D01*
X127964237Y-68803497D01*
X127856018Y-68774500D01*
X127743982Y-68774500D01*
X127635763Y-68803497D01*
X127635760Y-68803498D01*
X127538740Y-68859513D01*
X127538734Y-68859517D01*
X127459517Y-68938734D01*
X127459513Y-68938740D01*
X127403498Y-69035760D01*
X127403497Y-69035763D01*
X127374500Y-69143982D01*
X122995392Y-69143982D01*
X122994489Y-67843982D01*
X135874500Y-67843982D01*
X135874500Y-67956018D01*
X135903497Y-68064237D01*
X135959515Y-68161263D01*
X136038737Y-68240485D01*
X136135763Y-68296503D01*
X136243982Y-68325500D01*
X136243984Y-68325500D01*
X136356016Y-68325500D01*
X136356018Y-68325500D01*
X136464237Y-68296503D01*
X136561263Y-68240485D01*
X136640485Y-68161263D01*
X136696503Y-68064237D01*
X136725500Y-67956018D01*
X136725500Y-67843982D01*
X136696503Y-67735763D01*
X136640485Y-67638737D01*
X136561263Y-67559515D01*
X136464237Y-67503497D01*
X136356018Y-67474500D01*
X136243982Y-67474500D01*
X136135763Y-67503497D01*
X136135760Y-67503498D01*
X136038740Y-67559513D01*
X136038734Y-67559517D01*
X135959517Y-67638734D01*
X135959513Y-67638740D01*
X135903498Y-67735760D01*
X135903497Y-67735763D01*
X135874500Y-67843982D01*
X122994489Y-67843982D01*
X122993343Y-66193982D01*
X136324500Y-66193982D01*
X136324500Y-66306018D01*
X136353497Y-66414237D01*
X136409515Y-66511263D01*
X136488737Y-66590485D01*
X136585763Y-66646503D01*
X136693982Y-66675500D01*
X136693984Y-66675500D01*
X136806016Y-66675500D01*
X136806018Y-66675500D01*
X136914237Y-66646503D01*
X137011263Y-66590485D01*
X137090485Y-66511263D01*
X137146503Y-66414237D01*
X137175500Y-66306018D01*
X137175500Y-66193982D01*
X137146503Y-66085763D01*
X137090485Y-65988737D01*
X137045730Y-65943982D01*
X148574500Y-65943982D01*
X148574500Y-66056018D01*
X148603497Y-66164237D01*
X148659515Y-66261263D01*
X148738737Y-66340485D01*
X148835763Y-66396503D01*
X148943982Y-66425500D01*
X148943984Y-66425500D01*
X149056016Y-66425500D01*
X149056018Y-66425500D01*
X149164237Y-66396503D01*
X149261263Y-66340485D01*
X149340485Y-66261263D01*
X149396503Y-66164237D01*
X149425500Y-66056018D01*
X149425500Y-65943982D01*
X149396503Y-65835763D01*
X149340485Y-65738737D01*
X149261263Y-65659515D01*
X149164237Y-65603497D01*
X149056018Y-65574500D01*
X148943982Y-65574500D01*
X148835763Y-65603497D01*
X148835760Y-65603498D01*
X148738740Y-65659513D01*
X148738734Y-65659517D01*
X148659517Y-65738734D01*
X148659513Y-65738740D01*
X148603498Y-65835760D01*
X148603497Y-65835763D01*
X148574500Y-65943982D01*
X137045730Y-65943982D01*
X137011263Y-65909515D01*
X136914237Y-65853497D01*
X136806018Y-65824500D01*
X136693982Y-65824500D01*
X136585763Y-65853497D01*
X136585760Y-65853498D01*
X136488740Y-65909513D01*
X136488734Y-65909517D01*
X136409517Y-65988734D01*
X136409513Y-65988740D01*
X136353498Y-66085760D01*
X136353497Y-66085763D01*
X136324500Y-66193982D01*
X122993343Y-66193982D01*
X122992475Y-64943982D01*
X130574500Y-64943982D01*
X130574500Y-65056018D01*
X130603497Y-65164237D01*
X130659515Y-65261263D01*
X130738737Y-65340485D01*
X130835763Y-65396503D01*
X130943982Y-65425500D01*
X130943984Y-65425500D01*
X131056016Y-65425500D01*
X131056018Y-65425500D01*
X131164237Y-65396503D01*
X131261263Y-65340485D01*
X131340485Y-65261263D01*
X131396503Y-65164237D01*
X131425500Y-65056018D01*
X131425500Y-64943982D01*
X131396503Y-64835763D01*
X131340485Y-64738737D01*
X131261263Y-64659515D01*
X131164237Y-64603497D01*
X131056018Y-64574500D01*
X130943982Y-64574500D01*
X130835763Y-64603497D01*
X130835760Y-64603498D01*
X130738740Y-64659513D01*
X130738734Y-64659517D01*
X130659517Y-64738734D01*
X130659513Y-64738740D01*
X130603498Y-64835760D01*
X130603497Y-64835763D01*
X130574500Y-64943982D01*
X122992475Y-64943982D01*
X122991954Y-64193982D01*
X144574500Y-64193982D01*
X144574500Y-64306018D01*
X144603497Y-64414237D01*
X144659515Y-64511263D01*
X144738737Y-64590485D01*
X144835763Y-64646503D01*
X144943982Y-64675500D01*
X144943984Y-64675500D01*
X145056016Y-64675500D01*
X145056018Y-64675500D01*
X145164237Y-64646503D01*
X145261263Y-64590485D01*
X145340485Y-64511263D01*
X145396503Y-64414237D01*
X145425500Y-64306018D01*
X145425500Y-64193982D01*
X145396503Y-64085763D01*
X145340485Y-63988737D01*
X145261263Y-63909515D01*
X145164237Y-63853497D01*
X145056018Y-63824500D01*
X144943982Y-63824500D01*
X144835763Y-63853497D01*
X144835760Y-63853498D01*
X144738740Y-63909513D01*
X144738734Y-63909517D01*
X144659517Y-63988734D01*
X144659513Y-63988740D01*
X144603498Y-64085760D01*
X144603497Y-64085763D01*
X144574500Y-64193982D01*
X122991954Y-64193982D01*
X122991433Y-63443982D01*
X138274500Y-63443982D01*
X138274500Y-63556018D01*
X138303497Y-63664237D01*
X138359515Y-63761263D01*
X138438737Y-63840485D01*
X138535763Y-63896503D01*
X138643982Y-63925500D01*
X138643984Y-63925500D01*
X138756016Y-63925500D01*
X138756018Y-63925500D01*
X138864237Y-63896503D01*
X138961263Y-63840485D01*
X139040485Y-63761263D01*
X139079330Y-63693982D01*
X157324500Y-63693982D01*
X157324500Y-63806018D01*
X157353497Y-63914237D01*
X157409515Y-64011263D01*
X157488737Y-64090485D01*
X157585763Y-64146503D01*
X157693982Y-64175500D01*
X157693984Y-64175500D01*
X157806016Y-64175500D01*
X157806018Y-64175500D01*
X157914237Y-64146503D01*
X158011263Y-64090485D01*
X158090485Y-64011263D01*
X158146503Y-63914237D01*
X158175500Y-63806018D01*
X158175500Y-63693982D01*
X158146503Y-63585763D01*
X158090485Y-63488737D01*
X158011263Y-63409515D01*
X157914237Y-63353497D01*
X157806018Y-63324500D01*
X157693982Y-63324500D01*
X157585763Y-63353497D01*
X157585760Y-63353498D01*
X157488740Y-63409513D01*
X157488734Y-63409517D01*
X157409517Y-63488734D01*
X157409513Y-63488740D01*
X157353498Y-63585760D01*
X157353497Y-63585763D01*
X157324500Y-63693982D01*
X139079330Y-63693982D01*
X139096503Y-63664237D01*
X139125500Y-63556018D01*
X139125500Y-63443982D01*
X139096503Y-63335763D01*
X139040485Y-63238737D01*
X138961263Y-63159515D01*
X138864237Y-63103497D01*
X138756018Y-63074500D01*
X138643982Y-63074500D01*
X138535763Y-63103497D01*
X138535760Y-63103498D01*
X138438740Y-63159513D01*
X138438734Y-63159517D01*
X138359517Y-63238734D01*
X138359513Y-63238740D01*
X138303498Y-63335760D01*
X138303497Y-63335763D01*
X138274500Y-63443982D01*
X122991433Y-63443982D01*
X122991086Y-62943982D01*
X139374500Y-62943982D01*
X139374500Y-63056018D01*
X139403497Y-63164237D01*
X139459515Y-63261263D01*
X139538737Y-63340485D01*
X139635763Y-63396503D01*
X139743982Y-63425500D01*
X139743984Y-63425500D01*
X139856016Y-63425500D01*
X139856018Y-63425500D01*
X139964237Y-63396503D01*
X140061263Y-63340485D01*
X140140485Y-63261263D01*
X140196503Y-63164237D01*
X140225500Y-63056018D01*
X140225500Y-62943982D01*
X140196503Y-62835763D01*
X140140485Y-62738737D01*
X140061263Y-62659515D01*
X139964237Y-62603497D01*
X139856018Y-62574500D01*
X139743982Y-62574500D01*
X139635763Y-62603497D01*
X139635760Y-62603498D01*
X139538740Y-62659513D01*
X139538734Y-62659517D01*
X139459517Y-62738734D01*
X139459513Y-62738740D01*
X139403498Y-62835760D01*
X139403497Y-62835763D01*
X139374500Y-62943982D01*
X122991086Y-62943982D01*
X122988231Y-58832947D01*
X123599500Y-58832947D01*
X123599500Y-59167052D01*
X123632247Y-59499548D01*
X123632250Y-59499565D01*
X123697425Y-59827230D01*
X123697428Y-59827241D01*
X123794418Y-60146977D01*
X123884829Y-60365247D01*
X123905121Y-60414237D01*
X123922278Y-60455656D01*
X123922280Y-60455661D01*
X124079769Y-60750303D01*
X124079780Y-60750321D01*
X124265393Y-61028109D01*
X124265403Y-61028123D01*
X124477361Y-61286395D01*
X124713604Y-61522638D01*
X124713609Y-61522642D01*
X124713610Y-61522643D01*
X124971882Y-61734601D01*
X125249685Y-61920224D01*
X125249694Y-61920229D01*
X125249696Y-61920230D01*
X125544338Y-62077719D01*
X125544340Y-62077719D01*
X125544346Y-62077723D01*
X125853024Y-62205582D01*
X126172749Y-62302569D01*
X126172755Y-62302570D01*
X126172758Y-62302571D01*
X126172769Y-62302574D01*
X126378243Y-62343444D01*
X126500441Y-62367751D01*
X126832944Y-62400500D01*
X126832947Y-62400500D01*
X127167053Y-62400500D01*
X127167056Y-62400500D01*
X127499559Y-62367751D01*
X127661757Y-62335487D01*
X127827230Y-62302574D01*
X127827241Y-62302571D01*
X127827241Y-62302570D01*
X127827251Y-62302569D01*
X128146976Y-62205582D01*
X128455654Y-62077723D01*
X128750315Y-61920224D01*
X129014078Y-61743982D01*
X141874500Y-61743982D01*
X141874500Y-61856018D01*
X141903497Y-61964237D01*
X141959515Y-62061263D01*
X142038737Y-62140485D01*
X142135763Y-62196503D01*
X142243982Y-62225500D01*
X142243984Y-62225500D01*
X142356016Y-62225500D01*
X142356018Y-62225500D01*
X142464237Y-62196503D01*
X142561263Y-62140485D01*
X142640485Y-62061263D01*
X142696503Y-61964237D01*
X142725500Y-61856018D01*
X142725500Y-61743982D01*
X147674500Y-61743982D01*
X147674500Y-61856018D01*
X147703497Y-61964237D01*
X147759515Y-62061263D01*
X147838737Y-62140485D01*
X147935763Y-62196503D01*
X148043982Y-62225500D01*
X148043984Y-62225500D01*
X148156016Y-62225500D01*
X148156018Y-62225500D01*
X148264237Y-62196503D01*
X148361263Y-62140485D01*
X148440485Y-62061263D01*
X148496503Y-61964237D01*
X148525500Y-61856018D01*
X148525500Y-61743982D01*
X148496503Y-61635763D01*
X148440485Y-61538737D01*
X148361263Y-61459515D01*
X148264237Y-61403497D01*
X148156018Y-61374500D01*
X148043982Y-61374500D01*
X147935763Y-61403497D01*
X147935760Y-61403498D01*
X147838740Y-61459513D01*
X147838734Y-61459517D01*
X147759517Y-61538734D01*
X147759513Y-61538740D01*
X147703498Y-61635760D01*
X147703497Y-61635763D01*
X147674500Y-61743982D01*
X142725500Y-61743982D01*
X142696503Y-61635763D01*
X142640485Y-61538737D01*
X142561263Y-61459515D01*
X142464237Y-61403497D01*
X142356018Y-61374500D01*
X142243982Y-61374500D01*
X142135763Y-61403497D01*
X142135760Y-61403498D01*
X142038740Y-61459513D01*
X142038734Y-61459517D01*
X141959517Y-61538734D01*
X141959513Y-61538740D01*
X141903498Y-61635760D01*
X141903497Y-61635763D01*
X141874500Y-61743982D01*
X129014078Y-61743982D01*
X129028118Y-61734601D01*
X129286390Y-61522643D01*
X129522643Y-61286390D01*
X129734601Y-61028118D01*
X129920224Y-60750315D01*
X130077723Y-60455654D01*
X130186111Y-60193982D01*
X133324500Y-60193982D01*
X133324500Y-60306018D01*
X133353497Y-60414237D01*
X133409515Y-60511263D01*
X133488737Y-60590485D01*
X133585763Y-60646503D01*
X133693982Y-60675500D01*
X133693984Y-60675500D01*
X133806016Y-60675500D01*
X133806018Y-60675500D01*
X133914237Y-60646503D01*
X134011263Y-60590485D01*
X134090485Y-60511263D01*
X134146503Y-60414237D01*
X134175500Y-60306018D01*
X134175500Y-60193982D01*
X134146503Y-60085763D01*
X134090485Y-59988737D01*
X134011263Y-59909515D01*
X133914237Y-59853497D01*
X133806018Y-59824500D01*
X133693982Y-59824500D01*
X133585763Y-59853497D01*
X133585760Y-59853498D01*
X133488740Y-59909513D01*
X133488734Y-59909517D01*
X133409517Y-59988734D01*
X133409513Y-59988740D01*
X133353498Y-60085760D01*
X133353497Y-60085763D01*
X133324500Y-60193982D01*
X130186111Y-60193982D01*
X130205582Y-60146976D01*
X130302569Y-59827251D01*
X130302571Y-59827241D01*
X130302574Y-59827230D01*
X130329079Y-59693982D01*
X155324500Y-59693982D01*
X155324500Y-59806018D01*
X155353497Y-59914237D01*
X155409515Y-60011263D01*
X155488737Y-60090485D01*
X155585763Y-60146503D01*
X155693982Y-60175500D01*
X155693984Y-60175500D01*
X155806016Y-60175500D01*
X155806018Y-60175500D01*
X155914237Y-60146503D01*
X156011263Y-60090485D01*
X156090485Y-60011263D01*
X156146503Y-59914237D01*
X156175500Y-59806018D01*
X156175500Y-59693982D01*
X156146503Y-59585763D01*
X156090485Y-59488737D01*
X156011263Y-59409515D01*
X155914237Y-59353497D01*
X155806018Y-59324500D01*
X155693982Y-59324500D01*
X155585763Y-59353497D01*
X155585760Y-59353498D01*
X155488740Y-59409513D01*
X155488734Y-59409517D01*
X155409517Y-59488734D01*
X155409513Y-59488740D01*
X155353498Y-59585760D01*
X155353497Y-59585763D01*
X155324500Y-59693982D01*
X130329079Y-59693982D01*
X130335507Y-59661664D01*
X130350605Y-59585760D01*
X130367751Y-59499559D01*
X130400500Y-59167056D01*
X130400500Y-58832947D01*
X158599500Y-58832947D01*
X158599500Y-59167052D01*
X158632247Y-59499548D01*
X158632250Y-59499565D01*
X158697425Y-59827230D01*
X158697428Y-59827241D01*
X158794418Y-60146977D01*
X158884829Y-60365247D01*
X158905121Y-60414237D01*
X158922278Y-60455656D01*
X158922280Y-60455661D01*
X159079769Y-60750303D01*
X159079780Y-60750321D01*
X159265393Y-61028109D01*
X159265403Y-61028123D01*
X159477361Y-61286395D01*
X159713604Y-61522638D01*
X159713609Y-61522642D01*
X159713610Y-61522643D01*
X159971882Y-61734601D01*
X160249685Y-61920224D01*
X160249694Y-61920229D01*
X160249696Y-61920230D01*
X160544338Y-62077719D01*
X160544340Y-62077719D01*
X160544346Y-62077723D01*
X160853024Y-62205582D01*
X161172749Y-62302569D01*
X161172755Y-62302570D01*
X161172758Y-62302571D01*
X161172769Y-62302574D01*
X161378243Y-62343444D01*
X161500441Y-62367751D01*
X161832944Y-62400500D01*
X161832947Y-62400500D01*
X162167053Y-62400500D01*
X162167056Y-62400500D01*
X162499559Y-62367751D01*
X162661757Y-62335487D01*
X162827230Y-62302574D01*
X162827241Y-62302571D01*
X162827241Y-62302570D01*
X162827251Y-62302569D01*
X163146976Y-62205582D01*
X163455654Y-62077723D01*
X163750315Y-61920224D01*
X164028118Y-61734601D01*
X164286390Y-61522643D01*
X164522643Y-61286390D01*
X164734601Y-61028118D01*
X164920224Y-60750315D01*
X165077723Y-60455654D01*
X165205582Y-60146976D01*
X165302569Y-59827251D01*
X165302571Y-59827241D01*
X165302574Y-59827230D01*
X165350604Y-59585763D01*
X165367751Y-59499559D01*
X165400500Y-59167056D01*
X165400500Y-58832944D01*
X165367751Y-58500441D01*
X165328578Y-58303504D01*
X165302574Y-58172769D01*
X165302571Y-58172758D01*
X165302570Y-58172755D01*
X165302569Y-58172749D01*
X165205582Y-57853024D01*
X165077723Y-57544346D01*
X165067374Y-57524985D01*
X164920230Y-57249696D01*
X164920229Y-57249694D01*
X164920224Y-57249685D01*
X164734601Y-56971882D01*
X164522643Y-56713610D01*
X164522642Y-56713609D01*
X164522638Y-56713604D01*
X164286395Y-56477361D01*
X164028123Y-56265403D01*
X164028122Y-56265402D01*
X164028118Y-56265399D01*
X163750315Y-56079776D01*
X163750310Y-56079773D01*
X163750303Y-56079769D01*
X163455661Y-55922280D01*
X163455656Y-55922278D01*
X163146977Y-55794418D01*
X162827241Y-55697428D01*
X162827230Y-55697425D01*
X162499565Y-55632250D01*
X162499548Y-55632247D01*
X162248108Y-55607483D01*
X162167056Y-55599500D01*
X161832944Y-55599500D01*
X161757982Y-55606883D01*
X161500451Y-55632247D01*
X161500434Y-55632250D01*
X161172769Y-55697425D01*
X161172758Y-55697428D01*
X160853022Y-55794418D01*
X160544343Y-55922278D01*
X160544338Y-55922280D01*
X160249696Y-56079769D01*
X160249678Y-56079780D01*
X159971890Y-56265393D01*
X159971876Y-56265403D01*
X159713604Y-56477361D01*
X159477361Y-56713604D01*
X159265403Y-56971876D01*
X159265393Y-56971890D01*
X159079780Y-57249678D01*
X159079769Y-57249696D01*
X158922280Y-57544338D01*
X158922278Y-57544343D01*
X158794418Y-57853022D01*
X158697428Y-58172758D01*
X158697425Y-58172769D01*
X158632250Y-58500434D01*
X158632247Y-58500451D01*
X158606883Y-58757982D01*
X158599792Y-58829986D01*
X158599500Y-58832947D01*
X130400500Y-58832947D01*
X130400500Y-58832944D01*
X130367751Y-58500441D01*
X130328578Y-58303504D01*
X130302574Y-58172769D01*
X130302571Y-58172758D01*
X130302570Y-58172755D01*
X130302569Y-58172749D01*
X130205582Y-57853024D01*
X130077723Y-57544346D01*
X130067374Y-57524985D01*
X129920230Y-57249696D01*
X129920229Y-57249694D01*
X129920224Y-57249685D01*
X129734601Y-56971882D01*
X129598480Y-56806018D01*
X129564424Y-56764520D01*
X129522638Y-56713604D01*
X129503016Y-56693982D01*
X134074500Y-56693982D01*
X134074500Y-56806018D01*
X134103497Y-56914237D01*
X134159515Y-57011263D01*
X134238737Y-57090485D01*
X134335763Y-57146503D01*
X134443982Y-57175500D01*
X134443984Y-57175500D01*
X134556016Y-57175500D01*
X134556018Y-57175500D01*
X134664237Y-57146503D01*
X134761263Y-57090485D01*
X134840485Y-57011263D01*
X134896503Y-56914237D01*
X134925500Y-56806018D01*
X134925500Y-56693982D01*
X134896503Y-56585763D01*
X134840485Y-56488737D01*
X134761263Y-56409515D01*
X134664237Y-56353497D01*
X134556018Y-56324500D01*
X134443982Y-56324500D01*
X134335763Y-56353497D01*
X134335760Y-56353498D01*
X134238740Y-56409513D01*
X134238734Y-56409517D01*
X134159517Y-56488734D01*
X134159513Y-56488740D01*
X134103498Y-56585760D01*
X134103497Y-56585763D01*
X134074500Y-56693982D01*
X129503016Y-56693982D01*
X129286395Y-56477361D01*
X129028123Y-56265403D01*
X129028122Y-56265402D01*
X129028118Y-56265399D01*
X128750315Y-56079776D01*
X128750310Y-56079773D01*
X128750303Y-56079769D01*
X128455661Y-55922280D01*
X128455656Y-55922278D01*
X128146977Y-55794418D01*
X127827241Y-55697428D01*
X127827230Y-55697425D01*
X127499565Y-55632250D01*
X127499548Y-55632247D01*
X127248108Y-55607483D01*
X127167056Y-55599500D01*
X126832944Y-55599500D01*
X126757982Y-55606883D01*
X126500451Y-55632247D01*
X126500434Y-55632250D01*
X126172769Y-55697425D01*
X126172758Y-55697428D01*
X125853022Y-55794418D01*
X125544343Y-55922278D01*
X125544338Y-55922280D01*
X125249696Y-56079769D01*
X125249678Y-56079780D01*
X124971890Y-56265393D01*
X124971876Y-56265403D01*
X124713604Y-56477361D01*
X124477361Y-56713604D01*
X124265403Y-56971876D01*
X124265393Y-56971890D01*
X124079780Y-57249678D01*
X124079769Y-57249696D01*
X123922280Y-57544338D01*
X123922278Y-57544343D01*
X123794418Y-57853022D01*
X123697428Y-58172758D01*
X123697425Y-58172769D01*
X123632250Y-58500434D01*
X123632247Y-58500451D01*
X123606883Y-58757982D01*
X123599792Y-58829986D01*
X123599500Y-58832947D01*
X122988231Y-58832947D01*
X122988002Y-58503086D01*
X122988151Y-58496922D01*
X123004552Y-58163072D01*
X123005745Y-58150962D01*
X123054349Y-57823296D01*
X123056718Y-57811385D01*
X123137210Y-57490043D01*
X123140740Y-57478411D01*
X123252335Y-57166525D01*
X123256976Y-57155318D01*
X123398624Y-56855828D01*
X123404340Y-56845136D01*
X123574645Y-56560998D01*
X123581388Y-56550905D01*
X123778732Y-56284818D01*
X123786435Y-56275433D01*
X124008905Y-56029975D01*
X124017475Y-56021405D01*
X124262933Y-55798935D01*
X124272318Y-55791232D01*
X124538405Y-55593888D01*
X124548498Y-55587145D01*
X124832636Y-55416840D01*
X124843328Y-55411124D01*
X125142818Y-55269476D01*
X125154025Y-55264835D01*
X125465912Y-55153239D01*
X125477543Y-55149710D01*
X125798885Y-55069218D01*
X125810796Y-55066849D01*
X126138462Y-55018244D01*
X126150568Y-55017052D01*
X126484467Y-55000648D01*
X126490551Y-55000500D01*
X126553392Y-55000500D01*
X162521608Y-55000500D01*
X162584449Y-55000500D01*
X162590532Y-55000648D01*
G37*
%TD.AperFunction*%
%TD*%
M02*
