%TF.GenerationSoftware,KiCad,Pcbnew,9.0.0-9.0.0-2~ubuntu24.04.1*%
%TF.CreationDate,2025-03-20T14:26:08+01:00*%
%TF.ProjectId,PCB_controller,5043425f-636f-46e7-9472-6f6c6c65722e,rev?*%
%TF.SameCoordinates,Original*%
%TF.FileFunction,Legend,Top*%
%TF.FilePolarity,Positive*%
%FSLAX46Y46*%
G04 Gerber Fmt 4.6, Leading zero omitted, Abs format (unit mm)*
G04 Created by KiCad (PCBNEW 9.0.0-9.0.0-2~ubuntu24.04.1) date 2025-03-20 14:26:08*
%MOMM*%
%LPD*%
G01*
G04 APERTURE LIST*
%ADD10C,0.200000*%
%ADD11C,0.150000*%
%ADD12C,0.100000*%
%ADD13C,0.125000*%
%ADD14C,0.120000*%
G04 APERTURE END LIST*
D10*
G36*
X142010891Y-93202240D02*
G01*
X142077964Y-93269313D01*
X142113416Y-93340218D01*
X142155387Y-93508099D01*
X142155387Y-93626337D01*
X142113416Y-93794218D01*
X142077963Y-93865124D01*
X142010892Y-93932197D01*
X141905827Y-93967219D01*
X141783959Y-93967219D01*
X141783959Y-93167219D01*
X141905827Y-93167219D01*
X142010891Y-93202240D01*
G37*
G36*
X143418879Y-94278330D02*
G01*
X139758562Y-94278330D01*
X139758562Y-93067219D01*
X139869673Y-93067219D01*
X139869673Y-94067219D01*
X139871594Y-94086728D01*
X139886526Y-94122776D01*
X139914116Y-94150366D01*
X139950164Y-94165298D01*
X139969673Y-94167219D01*
X140445863Y-94167219D01*
X140465372Y-94165298D01*
X140501420Y-94150366D01*
X140529010Y-94122776D01*
X140543942Y-94086728D01*
X140543942Y-94047710D01*
X140529010Y-94011662D01*
X140501420Y-93984072D01*
X140465372Y-93969140D01*
X140445863Y-93967219D01*
X140069673Y-93967219D01*
X140069673Y-93067219D01*
X140679197Y-93067219D01*
X140679197Y-94067219D01*
X140681118Y-94086728D01*
X140696050Y-94122776D01*
X140723640Y-94150366D01*
X140759688Y-94165298D01*
X140779197Y-94167219D01*
X141255387Y-94167219D01*
X141274896Y-94165298D01*
X141310944Y-94150366D01*
X141338534Y-94122776D01*
X141353466Y-94086728D01*
X141353466Y-94047710D01*
X141338534Y-94011662D01*
X141310944Y-93984072D01*
X141274896Y-93969140D01*
X141255387Y-93967219D01*
X140879197Y-93967219D01*
X140879197Y-93643409D01*
X141112530Y-93643409D01*
X141132039Y-93641488D01*
X141168087Y-93626556D01*
X141195677Y-93598966D01*
X141210609Y-93562918D01*
X141210609Y-93523900D01*
X141195677Y-93487852D01*
X141168087Y-93460262D01*
X141132039Y-93445330D01*
X141112530Y-93443409D01*
X140879197Y-93443409D01*
X140879197Y-93167219D01*
X141255387Y-93167219D01*
X141274896Y-93165298D01*
X141310944Y-93150366D01*
X141338534Y-93122776D01*
X141353466Y-93086728D01*
X141353466Y-93067219D01*
X141583959Y-93067219D01*
X141583959Y-94067219D01*
X141585880Y-94086728D01*
X141600812Y-94122776D01*
X141628402Y-94150366D01*
X141664450Y-94165298D01*
X141683959Y-94167219D01*
X141922054Y-94167219D01*
X141931927Y-94166246D01*
X141934561Y-94166434D01*
X141938024Y-94165646D01*
X141941563Y-94165298D01*
X141944005Y-94164286D01*
X141953677Y-94162087D01*
X142096533Y-94114468D01*
X142114434Y-94106477D01*
X142117149Y-94104122D01*
X142120469Y-94102747D01*
X142135622Y-94090310D01*
X142178222Y-94047710D01*
X142490642Y-94047710D01*
X142490642Y-94086728D01*
X142505574Y-94122776D01*
X142533164Y-94150366D01*
X142569212Y-94165298D01*
X142588721Y-94167219D01*
X143207768Y-94167219D01*
X143227277Y-94165298D01*
X143263325Y-94150366D01*
X143290915Y-94122776D01*
X143305847Y-94086728D01*
X143305847Y-94047710D01*
X143290915Y-94011662D01*
X143263325Y-93984072D01*
X143227277Y-93969140D01*
X143207768Y-93967219D01*
X142830143Y-93967219D01*
X143230860Y-93566501D01*
X143243296Y-93551347D01*
X143244670Y-93548028D01*
X143247026Y-93545313D01*
X143255017Y-93527413D01*
X143302636Y-93384556D01*
X143304835Y-93374883D01*
X143305847Y-93372442D01*
X143306195Y-93368904D01*
X143306983Y-93365441D01*
X143306795Y-93362806D01*
X143307768Y-93352933D01*
X143307768Y-93257695D01*
X143305847Y-93238186D01*
X143304471Y-93234865D01*
X143304217Y-93231282D01*
X143297211Y-93212973D01*
X143249592Y-93117736D01*
X143244306Y-93109339D01*
X143243296Y-93106899D01*
X143241042Y-93104153D01*
X143239149Y-93101145D01*
X143237151Y-93099412D01*
X143230859Y-93091746D01*
X143183241Y-93044127D01*
X143175570Y-93037832D01*
X143173841Y-93035838D01*
X143170833Y-93033944D01*
X143168087Y-93031691D01*
X143165647Y-93030680D01*
X143157251Y-93025395D01*
X143062013Y-92977776D01*
X143043705Y-92970770D01*
X143040121Y-92970515D01*
X143036801Y-92969140D01*
X143017292Y-92967219D01*
X142779197Y-92967219D01*
X142759688Y-92969140D01*
X142756367Y-92970515D01*
X142752784Y-92970770D01*
X142734475Y-92977776D01*
X142639238Y-93025395D01*
X142630841Y-93030680D01*
X142628401Y-93031691D01*
X142625655Y-93033944D01*
X142622647Y-93035838D01*
X142620914Y-93037835D01*
X142613248Y-93044128D01*
X142565629Y-93091746D01*
X142553193Y-93106900D01*
X142538261Y-93142948D01*
X142538261Y-93181966D01*
X142553193Y-93218014D01*
X142580783Y-93245604D01*
X142616831Y-93260536D01*
X142655849Y-93260536D01*
X142691897Y-93245604D01*
X142707051Y-93233168D01*
X142743194Y-93197023D01*
X142802804Y-93167219D01*
X142993685Y-93167219D01*
X143053294Y-93197024D01*
X143077963Y-93221692D01*
X143107768Y-93281302D01*
X143107768Y-93336706D01*
X143072746Y-93441770D01*
X142518010Y-93996508D01*
X142505574Y-94011662D01*
X142490642Y-94047710D01*
X142178222Y-94047710D01*
X142230860Y-93995071D01*
X142237152Y-93987404D01*
X142239149Y-93985673D01*
X142241042Y-93982665D01*
X142243297Y-93979918D01*
X142244308Y-93977476D01*
X142249592Y-93969082D01*
X142297211Y-93873845D01*
X142297757Y-93872416D01*
X142298187Y-93871837D01*
X142301108Y-93863660D01*
X142304217Y-93855536D01*
X142304268Y-93854815D01*
X142304782Y-93853377D01*
X142352401Y-93662901D01*
X142352901Y-93659519D01*
X142353466Y-93658156D01*
X142354189Y-93650805D01*
X142355269Y-93643508D01*
X142355051Y-93642049D01*
X142355387Y-93638647D01*
X142355387Y-93495790D01*
X142355051Y-93492387D01*
X142355269Y-93490929D01*
X142354189Y-93483631D01*
X142353466Y-93476281D01*
X142352901Y-93474917D01*
X142352401Y-93471536D01*
X142304782Y-93281060D01*
X142304268Y-93279621D01*
X142304217Y-93278901D01*
X142301108Y-93270776D01*
X142298187Y-93262600D01*
X142297757Y-93262020D01*
X142297211Y-93260592D01*
X142249592Y-93165355D01*
X142244305Y-93156956D01*
X142243296Y-93154519D01*
X142241044Y-93151775D01*
X142239149Y-93148764D01*
X142237151Y-93147031D01*
X142230860Y-93139365D01*
X142135622Y-93044127D01*
X142120468Y-93031691D01*
X142117149Y-93030316D01*
X142114434Y-93027961D01*
X142096533Y-93019970D01*
X141953677Y-92972351D01*
X141944005Y-92970151D01*
X141941563Y-92969140D01*
X141938024Y-92968791D01*
X141934561Y-92968004D01*
X141931927Y-92968191D01*
X141922054Y-92967219D01*
X141683959Y-92967219D01*
X141664450Y-92969140D01*
X141628402Y-92984072D01*
X141600812Y-93011662D01*
X141585880Y-93047710D01*
X141583959Y-93067219D01*
X141353466Y-93067219D01*
X141353466Y-93047710D01*
X141338534Y-93011662D01*
X141310944Y-92984072D01*
X141274896Y-92969140D01*
X141255387Y-92967219D01*
X140779197Y-92967219D01*
X140759688Y-92969140D01*
X140723640Y-92984072D01*
X140696050Y-93011662D01*
X140681118Y-93047710D01*
X140679197Y-93067219D01*
X140069673Y-93067219D01*
X140067752Y-93047710D01*
X140052820Y-93011662D01*
X140025230Y-92984072D01*
X139989182Y-92969140D01*
X139950164Y-92969140D01*
X139914116Y-92984072D01*
X139886526Y-93011662D01*
X139871594Y-93047710D01*
X139869673Y-93067219D01*
X139758562Y-93067219D01*
X139758562Y-92856108D01*
X143418879Y-92856108D01*
X143418879Y-94278330D01*
G37*
G36*
X130552212Y-124178330D02*
G01*
X126560483Y-124178330D01*
X126560483Y-123566757D01*
X126671594Y-123566757D01*
X126671594Y-123605775D01*
X126686526Y-123641823D01*
X126714116Y-123669413D01*
X126750164Y-123684345D01*
X126769673Y-123686266D01*
X127050625Y-123686266D01*
X127050625Y-123967219D01*
X127052546Y-123986728D01*
X127067478Y-124022776D01*
X127095068Y-124050366D01*
X127131116Y-124065298D01*
X127170134Y-124065298D01*
X127206182Y-124050366D01*
X127233772Y-124022776D01*
X127248704Y-123986728D01*
X127250625Y-123967219D01*
X127250625Y-123686266D01*
X127531578Y-123686266D01*
X127551087Y-123684345D01*
X127587135Y-123669413D01*
X127614725Y-123641823D01*
X127629657Y-123605775D01*
X127629657Y-123566757D01*
X127614725Y-123530709D01*
X127587135Y-123503119D01*
X127551087Y-123488187D01*
X127531578Y-123486266D01*
X127250625Y-123486266D01*
X127250625Y-123205314D01*
X127248704Y-123185805D01*
X127233772Y-123149757D01*
X127206182Y-123122167D01*
X127170134Y-123107235D01*
X127131116Y-123107235D01*
X127095068Y-123122167D01*
X127067478Y-123149757D01*
X127052546Y-123185805D01*
X127050625Y-123205314D01*
X127050625Y-123486266D01*
X126769673Y-123486266D01*
X126750164Y-123488187D01*
X126714116Y-123503119D01*
X126686526Y-123530709D01*
X126671594Y-123566757D01*
X126560483Y-123566757D01*
X126560483Y-122947710D01*
X127814451Y-122947710D01*
X127814451Y-122986728D01*
X127829383Y-123022776D01*
X127856973Y-123050366D01*
X127893021Y-123065298D01*
X127912530Y-123067219D01*
X128311200Y-123067219D01*
X128122986Y-123282321D01*
X128116956Y-123290754D01*
X128115097Y-123292614D01*
X128114366Y-123294377D01*
X128111585Y-123298268D01*
X128106380Y-123313656D01*
X128100165Y-123328662D01*
X128100165Y-123332035D01*
X128099085Y-123335229D01*
X128100165Y-123351431D01*
X128100165Y-123367680D01*
X128101455Y-123370795D01*
X128101680Y-123374161D01*
X128108880Y-123388721D01*
X128115097Y-123403728D01*
X128117481Y-123406112D01*
X128118977Y-123409136D01*
X128131202Y-123419833D01*
X128142687Y-123431318D01*
X128145801Y-123432608D01*
X128148341Y-123434830D01*
X128163729Y-123440034D01*
X128178735Y-123446250D01*
X128183494Y-123446718D01*
X128185302Y-123447330D01*
X128187926Y-123447155D01*
X128198244Y-123448171D01*
X128317494Y-123448171D01*
X128377103Y-123477976D01*
X128401772Y-123502644D01*
X128431577Y-123562254D01*
X128431577Y-123753135D01*
X128401772Y-123812743D01*
X128377103Y-123837413D01*
X128317494Y-123867219D01*
X128078994Y-123867219D01*
X128019384Y-123837414D01*
X127983241Y-123801270D01*
X127968088Y-123788833D01*
X127932040Y-123773902D01*
X127893022Y-123773901D01*
X127856973Y-123788832D01*
X127829383Y-123816422D01*
X127814452Y-123852470D01*
X127814451Y-123891488D01*
X127829382Y-123927537D01*
X127841819Y-123942690D01*
X127889437Y-123990310D01*
X127897105Y-123996603D01*
X127898837Y-123998600D01*
X127901845Y-124000493D01*
X127904591Y-124002747D01*
X127907031Y-124003757D01*
X127915428Y-124009043D01*
X128010665Y-124056662D01*
X128028974Y-124063668D01*
X128032557Y-124063922D01*
X128035878Y-124065298D01*
X128055387Y-124067219D01*
X128341101Y-124067219D01*
X128360610Y-124065298D01*
X128363930Y-124063922D01*
X128367514Y-124063668D01*
X128385822Y-124056662D01*
X128481060Y-124009043D01*
X128489455Y-124003758D01*
X128491897Y-124002747D01*
X128494644Y-124000491D01*
X128497650Y-123998600D01*
X128499380Y-123996605D01*
X128507050Y-123990310D01*
X128554669Y-123942690D01*
X128560961Y-123935023D01*
X128562958Y-123933292D01*
X128564851Y-123930284D01*
X128567106Y-123927537D01*
X128568117Y-123925095D01*
X128573401Y-123916701D01*
X128621020Y-123821464D01*
X128628026Y-123803155D01*
X128628280Y-123799571D01*
X128629656Y-123796251D01*
X128631577Y-123776742D01*
X128631577Y-123538647D01*
X128629656Y-123519138D01*
X128628280Y-123515817D01*
X128628026Y-123512234D01*
X128621020Y-123493925D01*
X128573401Y-123398688D01*
X128568115Y-123390291D01*
X128567105Y-123387851D01*
X128564851Y-123385105D01*
X128562958Y-123382097D01*
X128560960Y-123380364D01*
X128554668Y-123372698D01*
X128507050Y-123325079D01*
X128499379Y-123318784D01*
X128497650Y-123316790D01*
X128494642Y-123314896D01*
X128491896Y-123312643D01*
X128489456Y-123311632D01*
X128481060Y-123306347D01*
X128402212Y-123266923D01*
X128606835Y-123033069D01*
X128612864Y-123024635D01*
X128614724Y-123022776D01*
X128615454Y-123021012D01*
X128618236Y-123017122D01*
X128623440Y-123001733D01*
X128629656Y-122986728D01*
X128629656Y-122983354D01*
X128630736Y-122980161D01*
X128630707Y-122979726D01*
X128718077Y-122979726D01*
X128722424Y-122998842D01*
X129055757Y-123998841D01*
X129063748Y-124016742D01*
X129068431Y-124022141D01*
X129071626Y-124028531D01*
X129081097Y-124036746D01*
X129089313Y-124046218D01*
X129095701Y-124049412D01*
X129101102Y-124054096D01*
X129113003Y-124058063D01*
X129124212Y-124063667D01*
X129131336Y-124064173D01*
X129138118Y-124066434D01*
X129150627Y-124065544D01*
X129163132Y-124066434D01*
X129169910Y-124064174D01*
X129177038Y-124063668D01*
X129188254Y-124058059D01*
X129200148Y-124054095D01*
X129205545Y-124049414D01*
X129211937Y-124046218D01*
X129220155Y-124036742D01*
X129229624Y-124028530D01*
X129232817Y-124022143D01*
X129237502Y-124016742D01*
X129245493Y-123998842D01*
X129578826Y-122998842D01*
X129583173Y-122979727D01*
X129580898Y-122947710D01*
X129623975Y-122947710D01*
X129623975Y-122986728D01*
X129638907Y-123022776D01*
X129666497Y-123050366D01*
X129702545Y-123065298D01*
X129722054Y-123067219D01*
X130120724Y-123067219D01*
X129932510Y-123282321D01*
X129926480Y-123290754D01*
X129924621Y-123292614D01*
X129923890Y-123294377D01*
X129921109Y-123298268D01*
X129915904Y-123313656D01*
X129909689Y-123328662D01*
X129909689Y-123332035D01*
X129908609Y-123335229D01*
X129909689Y-123351431D01*
X129909689Y-123367680D01*
X129910979Y-123370795D01*
X129911204Y-123374161D01*
X129918404Y-123388721D01*
X129924621Y-123403728D01*
X129927005Y-123406112D01*
X129928501Y-123409136D01*
X129940726Y-123419833D01*
X129952211Y-123431318D01*
X129955325Y-123432608D01*
X129957865Y-123434830D01*
X129973253Y-123440034D01*
X129988259Y-123446250D01*
X129993018Y-123446718D01*
X129994826Y-123447330D01*
X129997450Y-123447155D01*
X130007768Y-123448171D01*
X130127018Y-123448171D01*
X130186627Y-123477976D01*
X130211296Y-123502644D01*
X130241101Y-123562254D01*
X130241101Y-123753135D01*
X130211296Y-123812743D01*
X130186627Y-123837413D01*
X130127018Y-123867219D01*
X129888518Y-123867219D01*
X129828908Y-123837414D01*
X129792765Y-123801270D01*
X129777612Y-123788833D01*
X129741564Y-123773902D01*
X129702546Y-123773901D01*
X129666497Y-123788832D01*
X129638907Y-123816422D01*
X129623976Y-123852470D01*
X129623975Y-123891488D01*
X129638906Y-123927537D01*
X129651343Y-123942690D01*
X129698961Y-123990310D01*
X129706629Y-123996603D01*
X129708361Y-123998600D01*
X129711369Y-124000493D01*
X129714115Y-124002747D01*
X129716555Y-124003757D01*
X129724952Y-124009043D01*
X129820189Y-124056662D01*
X129838498Y-124063668D01*
X129842081Y-124063922D01*
X129845402Y-124065298D01*
X129864911Y-124067219D01*
X130150625Y-124067219D01*
X130170134Y-124065298D01*
X130173454Y-124063922D01*
X130177038Y-124063668D01*
X130195346Y-124056662D01*
X130290584Y-124009043D01*
X130298979Y-124003758D01*
X130301421Y-124002747D01*
X130304168Y-124000491D01*
X130307174Y-123998600D01*
X130308904Y-123996605D01*
X130316574Y-123990310D01*
X130364193Y-123942690D01*
X130370485Y-123935023D01*
X130372482Y-123933292D01*
X130374375Y-123930284D01*
X130376630Y-123927537D01*
X130377641Y-123925095D01*
X130382925Y-123916701D01*
X130430544Y-123821464D01*
X130437550Y-123803155D01*
X130437804Y-123799571D01*
X130439180Y-123796251D01*
X130441101Y-123776742D01*
X130441101Y-123538647D01*
X130439180Y-123519138D01*
X130437804Y-123515817D01*
X130437550Y-123512234D01*
X130430544Y-123493925D01*
X130382925Y-123398688D01*
X130377639Y-123390291D01*
X130376629Y-123387851D01*
X130374375Y-123385105D01*
X130372482Y-123382097D01*
X130370484Y-123380364D01*
X130364192Y-123372698D01*
X130316574Y-123325079D01*
X130308903Y-123318784D01*
X130307174Y-123316790D01*
X130304166Y-123314896D01*
X130301420Y-123312643D01*
X130298980Y-123311632D01*
X130290584Y-123306347D01*
X130211736Y-123266923D01*
X130416359Y-123033069D01*
X130422388Y-123024635D01*
X130424248Y-123022776D01*
X130424978Y-123021012D01*
X130427760Y-123017122D01*
X130432964Y-123001733D01*
X130439180Y-122986728D01*
X130439180Y-122983354D01*
X130440260Y-122980161D01*
X130439180Y-122963958D01*
X130439180Y-122947710D01*
X130437889Y-122944594D01*
X130437665Y-122941229D01*
X130430462Y-122926663D01*
X130424248Y-122911662D01*
X130421864Y-122909278D01*
X130420369Y-122906254D01*
X130408135Y-122895549D01*
X130396658Y-122884072D01*
X130393544Y-122882782D01*
X130391005Y-122880560D01*
X130375613Y-122875354D01*
X130360610Y-122869140D01*
X130355850Y-122868671D01*
X130354043Y-122868060D01*
X130351418Y-122868234D01*
X130341101Y-122867219D01*
X129722054Y-122867219D01*
X129702545Y-122869140D01*
X129666497Y-122884072D01*
X129638907Y-122911662D01*
X129623975Y-122947710D01*
X129580898Y-122947710D01*
X129580407Y-122940807D01*
X129562957Y-122905908D01*
X129533481Y-122880343D01*
X129496465Y-122868004D01*
X129457545Y-122870771D01*
X129422646Y-122888220D01*
X129397081Y-122917696D01*
X129389090Y-122935597D01*
X129150625Y-123650991D01*
X128912160Y-122935596D01*
X128904169Y-122917696D01*
X128878604Y-122888220D01*
X128843705Y-122870770D01*
X128804785Y-122868004D01*
X128767769Y-122880342D01*
X128738293Y-122905907D01*
X128720843Y-122940806D01*
X128718077Y-122979726D01*
X128630707Y-122979726D01*
X128629656Y-122963958D01*
X128629656Y-122947710D01*
X128628365Y-122944594D01*
X128628141Y-122941229D01*
X128620938Y-122926663D01*
X128614724Y-122911662D01*
X128612340Y-122909278D01*
X128610845Y-122906254D01*
X128598611Y-122895549D01*
X128587134Y-122884072D01*
X128584020Y-122882782D01*
X128581481Y-122880560D01*
X128566089Y-122875354D01*
X128551086Y-122869140D01*
X128546326Y-122868671D01*
X128544519Y-122868060D01*
X128541894Y-122868234D01*
X128531577Y-122867219D01*
X127912530Y-122867219D01*
X127893021Y-122869140D01*
X127856973Y-122884072D01*
X127829383Y-122911662D01*
X127814451Y-122947710D01*
X126560483Y-122947710D01*
X126560483Y-122756108D01*
X130552212Y-122756108D01*
X130552212Y-124178330D01*
G37*
G36*
X130494284Y-122578330D02*
G01*
X127360483Y-122578330D01*
X127360483Y-121966757D01*
X127471594Y-121966757D01*
X127471594Y-122005775D01*
X127486526Y-122041823D01*
X127514116Y-122069413D01*
X127550164Y-122084345D01*
X127569673Y-122086266D01*
X127850625Y-122086266D01*
X127850625Y-122367219D01*
X127852546Y-122386728D01*
X127867478Y-122422776D01*
X127895068Y-122450366D01*
X127931116Y-122465298D01*
X127970134Y-122465298D01*
X128006182Y-122450366D01*
X128033772Y-122422776D01*
X128048704Y-122386728D01*
X128050625Y-122367219D01*
X128050625Y-122086266D01*
X128331578Y-122086266D01*
X128351087Y-122084345D01*
X128387135Y-122069413D01*
X128414725Y-122041823D01*
X128429657Y-122005775D01*
X128429657Y-121966757D01*
X128414725Y-121930709D01*
X128387135Y-121903119D01*
X128351087Y-121888187D01*
X128331578Y-121886266D01*
X128050625Y-121886266D01*
X128050625Y-121853062D01*
X128660616Y-121853062D01*
X128662070Y-121857880D01*
X128662070Y-121862918D01*
X128667666Y-121876427D01*
X128671887Y-121890417D01*
X128675074Y-121894313D01*
X128677002Y-121898966D01*
X128687338Y-121909302D01*
X128696594Y-121920615D01*
X128701031Y-121922995D01*
X128704592Y-121926556D01*
X128718097Y-121932150D01*
X128730978Y-121939060D01*
X128735987Y-121939560D01*
X128740640Y-121941488D01*
X128755261Y-121941488D01*
X128769802Y-121942942D01*
X128774621Y-121941488D01*
X128779658Y-121941488D01*
X128793167Y-121935891D01*
X128807157Y-121931671D01*
X128811053Y-121928483D01*
X128815706Y-121926556D01*
X128830860Y-121914120D01*
X128867003Y-121877975D01*
X128926613Y-121848171D01*
X129117494Y-121848171D01*
X129177103Y-121877976D01*
X129201772Y-121902644D01*
X129231577Y-121962254D01*
X129231577Y-122153135D01*
X129201772Y-122212743D01*
X129177103Y-122237413D01*
X129117494Y-122267219D01*
X128926613Y-122267219D01*
X128867003Y-122237414D01*
X128830860Y-122201270D01*
X128815707Y-122188833D01*
X128779659Y-122173902D01*
X128740641Y-122173901D01*
X128704592Y-122188832D01*
X128677002Y-122216422D01*
X128662071Y-122252470D01*
X128662070Y-122291488D01*
X128677001Y-122327537D01*
X128689438Y-122342690D01*
X128737056Y-122390310D01*
X128744724Y-122396603D01*
X128746456Y-122398600D01*
X128749464Y-122400493D01*
X128752210Y-122402747D01*
X128754650Y-122403757D01*
X128763047Y-122409043D01*
X128858284Y-122456662D01*
X128876593Y-122463668D01*
X128880176Y-122463922D01*
X128883497Y-122465298D01*
X128903006Y-122467219D01*
X129141101Y-122467219D01*
X129160610Y-122465298D01*
X129163930Y-122463922D01*
X129167514Y-122463668D01*
X129185822Y-122456662D01*
X129281060Y-122409043D01*
X129289455Y-122403758D01*
X129291897Y-122402747D01*
X129294644Y-122400491D01*
X129297650Y-122398600D01*
X129299380Y-122396605D01*
X129307050Y-122390310D01*
X129354669Y-122342690D01*
X129360961Y-122335023D01*
X129362958Y-122333292D01*
X129364851Y-122330284D01*
X129367106Y-122327537D01*
X129368117Y-122325095D01*
X129373401Y-122316701D01*
X129421020Y-122221464D01*
X129428026Y-122203155D01*
X129428280Y-122199571D01*
X129429656Y-122196251D01*
X129431577Y-122176742D01*
X129431577Y-121938647D01*
X129429656Y-121919138D01*
X129428280Y-121915817D01*
X129428026Y-121912234D01*
X129421020Y-121893925D01*
X129373401Y-121798688D01*
X129368115Y-121790291D01*
X129367105Y-121787851D01*
X129364851Y-121785105D01*
X129362958Y-121782097D01*
X129360960Y-121780364D01*
X129354668Y-121772698D01*
X129307050Y-121725079D01*
X129299379Y-121718784D01*
X129297650Y-121716790D01*
X129294642Y-121714896D01*
X129291896Y-121712643D01*
X129289456Y-121711632D01*
X129281060Y-121706347D01*
X129185822Y-121658728D01*
X129167514Y-121651722D01*
X129163930Y-121651467D01*
X129160610Y-121650092D01*
X129141101Y-121648171D01*
X128903006Y-121648171D01*
X128883497Y-121650092D01*
X128880176Y-121651467D01*
X128879839Y-121651491D01*
X128898267Y-121467219D01*
X129283958Y-121467219D01*
X129303467Y-121465298D01*
X129339515Y-121450366D01*
X129367105Y-121422776D01*
X129382037Y-121386728D01*
X129382037Y-121379726D01*
X129518077Y-121379726D01*
X129522424Y-121398842D01*
X129855757Y-122398841D01*
X129863748Y-122416742D01*
X129868431Y-122422141D01*
X129871626Y-122428531D01*
X129881097Y-122436746D01*
X129889313Y-122446218D01*
X129895701Y-122449412D01*
X129901102Y-122454096D01*
X129913003Y-122458063D01*
X129924212Y-122463667D01*
X129931336Y-122464173D01*
X129938118Y-122466434D01*
X129950627Y-122465544D01*
X129963132Y-122466434D01*
X129969910Y-122464174D01*
X129977038Y-122463668D01*
X129988254Y-122458059D01*
X130000148Y-122454095D01*
X130005545Y-122449414D01*
X130011937Y-122446218D01*
X130020155Y-122436742D01*
X130029624Y-122428530D01*
X130032817Y-122422143D01*
X130037502Y-122416742D01*
X130045493Y-122398842D01*
X130378826Y-121398842D01*
X130383173Y-121379727D01*
X130380407Y-121340807D01*
X130362957Y-121305908D01*
X130333481Y-121280343D01*
X130296465Y-121268004D01*
X130257545Y-121270771D01*
X130222646Y-121288220D01*
X130197081Y-121317696D01*
X130189090Y-121335597D01*
X129950625Y-122050991D01*
X129712160Y-121335596D01*
X129704169Y-121317696D01*
X129678604Y-121288220D01*
X129643705Y-121270770D01*
X129604785Y-121268004D01*
X129567769Y-121280342D01*
X129538293Y-121305907D01*
X129520843Y-121340806D01*
X129518077Y-121379726D01*
X129382037Y-121379726D01*
X129382037Y-121347710D01*
X129367105Y-121311662D01*
X129339515Y-121284072D01*
X129303467Y-121269140D01*
X129283958Y-121267219D01*
X128807768Y-121267219D01*
X128800551Y-121267929D01*
X128798115Y-121267686D01*
X128795736Y-121268403D01*
X128788259Y-121269140D01*
X128774749Y-121274736D01*
X128760760Y-121278957D01*
X128756863Y-121282144D01*
X128752211Y-121284072D01*
X128741874Y-121294408D01*
X128730562Y-121303664D01*
X128728181Y-121308101D01*
X128724621Y-121311662D01*
X128719026Y-121325167D01*
X128712117Y-121338048D01*
X128710640Y-121345412D01*
X128709689Y-121347710D01*
X128709689Y-121350160D01*
X128708264Y-121357269D01*
X128660645Y-121833459D01*
X128660616Y-121853062D01*
X128050625Y-121853062D01*
X128050625Y-121605314D01*
X128048704Y-121585805D01*
X128033772Y-121549757D01*
X128006182Y-121522167D01*
X127970134Y-121507235D01*
X127931116Y-121507235D01*
X127895068Y-121522167D01*
X127867478Y-121549757D01*
X127852546Y-121585805D01*
X127850625Y-121605314D01*
X127850625Y-121886266D01*
X127569673Y-121886266D01*
X127550164Y-121888187D01*
X127514116Y-121903119D01*
X127486526Y-121930709D01*
X127471594Y-121966757D01*
X127360483Y-121966757D01*
X127360483Y-121156108D01*
X130494284Y-121156108D01*
X130494284Y-122578330D01*
G37*
G36*
X142010891Y-91602240D02*
G01*
X142077964Y-91669313D01*
X142113416Y-91740218D01*
X142155387Y-91908099D01*
X142155387Y-92026337D01*
X142113416Y-92194218D01*
X142077963Y-92265124D01*
X142010892Y-92332197D01*
X141905827Y-92367219D01*
X141783959Y-92367219D01*
X141783959Y-91567219D01*
X141905827Y-91567219D01*
X142010891Y-91602240D01*
G37*
G36*
X143416958Y-92678330D02*
G01*
X139758562Y-92678330D01*
X139758562Y-91467219D01*
X139869673Y-91467219D01*
X139869673Y-92467219D01*
X139871594Y-92486728D01*
X139886526Y-92522776D01*
X139914116Y-92550366D01*
X139950164Y-92565298D01*
X139969673Y-92567219D01*
X140445863Y-92567219D01*
X140465372Y-92565298D01*
X140501420Y-92550366D01*
X140529010Y-92522776D01*
X140543942Y-92486728D01*
X140543942Y-92447710D01*
X140529010Y-92411662D01*
X140501420Y-92384072D01*
X140465372Y-92369140D01*
X140445863Y-92367219D01*
X140069673Y-92367219D01*
X140069673Y-91467219D01*
X140679197Y-91467219D01*
X140679197Y-92467219D01*
X140681118Y-92486728D01*
X140696050Y-92522776D01*
X140723640Y-92550366D01*
X140759688Y-92565298D01*
X140779197Y-92567219D01*
X141255387Y-92567219D01*
X141274896Y-92565298D01*
X141310944Y-92550366D01*
X141338534Y-92522776D01*
X141353466Y-92486728D01*
X141353466Y-92447710D01*
X141338534Y-92411662D01*
X141310944Y-92384072D01*
X141274896Y-92369140D01*
X141255387Y-92367219D01*
X140879197Y-92367219D01*
X140879197Y-92043409D01*
X141112530Y-92043409D01*
X141132039Y-92041488D01*
X141168087Y-92026556D01*
X141195677Y-91998966D01*
X141210609Y-91962918D01*
X141210609Y-91923900D01*
X141195677Y-91887852D01*
X141168087Y-91860262D01*
X141132039Y-91845330D01*
X141112530Y-91843409D01*
X140879197Y-91843409D01*
X140879197Y-91567219D01*
X141255387Y-91567219D01*
X141274896Y-91565298D01*
X141310944Y-91550366D01*
X141338534Y-91522776D01*
X141353466Y-91486728D01*
X141353466Y-91467219D01*
X141583959Y-91467219D01*
X141583959Y-92467219D01*
X141585880Y-92486728D01*
X141600812Y-92522776D01*
X141628402Y-92550366D01*
X141664450Y-92565298D01*
X141683959Y-92567219D01*
X141922054Y-92567219D01*
X141931927Y-92566246D01*
X141934561Y-92566434D01*
X141938024Y-92565646D01*
X141941563Y-92565298D01*
X141944005Y-92564286D01*
X141953677Y-92562087D01*
X142096533Y-92514468D01*
X142114434Y-92506477D01*
X142117149Y-92504122D01*
X142120469Y-92502747D01*
X142135622Y-92490310D01*
X142230860Y-92395071D01*
X142237152Y-92387404D01*
X142239149Y-92385673D01*
X142241042Y-92382665D01*
X142243297Y-92379918D01*
X142244308Y-92377476D01*
X142249592Y-92369082D01*
X142297211Y-92273845D01*
X142297757Y-92272416D01*
X142298187Y-92271837D01*
X142301108Y-92263660D01*
X142304217Y-92255536D01*
X142304268Y-92254815D01*
X142304782Y-92253377D01*
X142352401Y-92062901D01*
X142352901Y-92059519D01*
X142353466Y-92058156D01*
X142354189Y-92050805D01*
X142355269Y-92043508D01*
X142355051Y-92042049D01*
X142355387Y-92038647D01*
X142355387Y-91895790D01*
X142355051Y-91892387D01*
X142355269Y-91890929D01*
X142354189Y-91883631D01*
X142353466Y-91876281D01*
X142352901Y-91874917D01*
X142352401Y-91871536D01*
X142319623Y-91740426D01*
X142537125Y-91740426D01*
X142539891Y-91779346D01*
X142557340Y-91814245D01*
X142586817Y-91839809D01*
X142623833Y-91852148D01*
X142662753Y-91849382D01*
X142681061Y-91842376D01*
X142776299Y-91794757D01*
X142784695Y-91789471D01*
X142787135Y-91788461D01*
X142789881Y-91786207D01*
X142792889Y-91784314D01*
X142794618Y-91782319D01*
X142802289Y-91776025D01*
X142822054Y-91756260D01*
X142822054Y-92367219D01*
X142636340Y-92367219D01*
X142616831Y-92369140D01*
X142580783Y-92384072D01*
X142553193Y-92411662D01*
X142538261Y-92447710D01*
X142538261Y-92486728D01*
X142553193Y-92522776D01*
X142580783Y-92550366D01*
X142616831Y-92565298D01*
X142636340Y-92567219D01*
X143207768Y-92567219D01*
X143227277Y-92565298D01*
X143263325Y-92550366D01*
X143290915Y-92522776D01*
X143305847Y-92486728D01*
X143305847Y-92447710D01*
X143290915Y-92411662D01*
X143263325Y-92384072D01*
X143227277Y-92369140D01*
X143207768Y-92367219D01*
X143022054Y-92367219D01*
X143022054Y-91467219D01*
X143022047Y-91467148D01*
X143022054Y-91467114D01*
X143022033Y-91467012D01*
X143020133Y-91447710D01*
X143016343Y-91438561D01*
X143014402Y-91428854D01*
X143008950Y-91420713D01*
X143005201Y-91411662D01*
X142998201Y-91404662D01*
X142992691Y-91396434D01*
X142984536Y-91390997D01*
X142977611Y-91384072D01*
X142968467Y-91380284D01*
X142960226Y-91374790D01*
X142950612Y-91372888D01*
X142941563Y-91369140D01*
X142931662Y-91369140D01*
X142921950Y-91367219D01*
X142912345Y-91369140D01*
X142902545Y-91369140D01*
X142893396Y-91372929D01*
X142883689Y-91374871D01*
X142875548Y-91380322D01*
X142866497Y-91384072D01*
X142859497Y-91391071D01*
X142851269Y-91396582D01*
X142838980Y-91411588D01*
X142838907Y-91411662D01*
X142838893Y-91411694D01*
X142838849Y-91411749D01*
X142749105Y-91546365D01*
X142672341Y-91623128D01*
X142591619Y-91663490D01*
X142575028Y-91673933D01*
X142549464Y-91703410D01*
X142537125Y-91740426D01*
X142319623Y-91740426D01*
X142304782Y-91681060D01*
X142304268Y-91679621D01*
X142304217Y-91678901D01*
X142301108Y-91670776D01*
X142298187Y-91662600D01*
X142297757Y-91662020D01*
X142297211Y-91660592D01*
X142249592Y-91565355D01*
X142244305Y-91556956D01*
X142243296Y-91554519D01*
X142241044Y-91551775D01*
X142239149Y-91548764D01*
X142237151Y-91547031D01*
X142230860Y-91539365D01*
X142135622Y-91444127D01*
X142120468Y-91431691D01*
X142117149Y-91430316D01*
X142114434Y-91427961D01*
X142096533Y-91419970D01*
X141953677Y-91372351D01*
X141944005Y-91370151D01*
X141941563Y-91369140D01*
X141938024Y-91368791D01*
X141934561Y-91368004D01*
X141931927Y-91368191D01*
X141922054Y-91367219D01*
X141683959Y-91367219D01*
X141664450Y-91369140D01*
X141628402Y-91384072D01*
X141600812Y-91411662D01*
X141585880Y-91447710D01*
X141583959Y-91467219D01*
X141353466Y-91467219D01*
X141353466Y-91447710D01*
X141338534Y-91411662D01*
X141310944Y-91384072D01*
X141274896Y-91369140D01*
X141255387Y-91367219D01*
X140779197Y-91367219D01*
X140759688Y-91369140D01*
X140723640Y-91384072D01*
X140696050Y-91411662D01*
X140681118Y-91447710D01*
X140679197Y-91467219D01*
X140069673Y-91467219D01*
X140067752Y-91447710D01*
X140052820Y-91411662D01*
X140025230Y-91384072D01*
X139989182Y-91369140D01*
X139950164Y-91369140D01*
X139914116Y-91384072D01*
X139886526Y-91411662D01*
X139871594Y-91447710D01*
X139869673Y-91467219D01*
X139758562Y-91467219D01*
X139758562Y-91256108D01*
X143416958Y-91256108D01*
X143416958Y-92678330D01*
G37*
X125483504Y-93314285D02*
X125521600Y-93352381D01*
X125521600Y-93352381D02*
X125559695Y-93466666D01*
X125559695Y-93466666D02*
X125559695Y-93542857D01*
X125559695Y-93542857D02*
X125521600Y-93657143D01*
X125521600Y-93657143D02*
X125445409Y-93733333D01*
X125445409Y-93733333D02*
X125369219Y-93771428D01*
X125369219Y-93771428D02*
X125216838Y-93809524D01*
X125216838Y-93809524D02*
X125102552Y-93809524D01*
X125102552Y-93809524D02*
X124950171Y-93771428D01*
X124950171Y-93771428D02*
X124873980Y-93733333D01*
X124873980Y-93733333D02*
X124797790Y-93657143D01*
X124797790Y-93657143D02*
X124759695Y-93542857D01*
X124759695Y-93542857D02*
X124759695Y-93466666D01*
X124759695Y-93466666D02*
X124797790Y-93352381D01*
X124797790Y-93352381D02*
X124835885Y-93314285D01*
X125559695Y-92552381D02*
X125559695Y-93009524D01*
X125559695Y-92780952D02*
X124759695Y-92780952D01*
X124759695Y-92780952D02*
X124873980Y-92857143D01*
X124873980Y-92857143D02*
X124950171Y-92933333D01*
X124950171Y-92933333D02*
X124988266Y-93009524D01*
X124759695Y-91866666D02*
X124759695Y-92019047D01*
X124759695Y-92019047D02*
X124797790Y-92095238D01*
X124797790Y-92095238D02*
X124835885Y-92133333D01*
X124835885Y-92133333D02*
X124950171Y-92209523D01*
X124950171Y-92209523D02*
X125102552Y-92247619D01*
X125102552Y-92247619D02*
X125407314Y-92247619D01*
X125407314Y-92247619D02*
X125483504Y-92209523D01*
X125483504Y-92209523D02*
X125521600Y-92171428D01*
X125521600Y-92171428D02*
X125559695Y-92095238D01*
X125559695Y-92095238D02*
X125559695Y-91942857D01*
X125559695Y-91942857D02*
X125521600Y-91866666D01*
X125521600Y-91866666D02*
X125483504Y-91828571D01*
X125483504Y-91828571D02*
X125407314Y-91790476D01*
X125407314Y-91790476D02*
X125216838Y-91790476D01*
X125216838Y-91790476D02*
X125140647Y-91828571D01*
X125140647Y-91828571D02*
X125102552Y-91866666D01*
X125102552Y-91866666D02*
X125064457Y-91942857D01*
X125064457Y-91942857D02*
X125064457Y-92095238D01*
X125064457Y-92095238D02*
X125102552Y-92171428D01*
X125102552Y-92171428D02*
X125140647Y-92209523D01*
X125140647Y-92209523D02*
X125216838Y-92247619D01*
D11*
X150319580Y-103766666D02*
X150367200Y-103814285D01*
X150367200Y-103814285D02*
X150414819Y-103957142D01*
X150414819Y-103957142D02*
X150414819Y-104052380D01*
X150414819Y-104052380D02*
X150367200Y-104195237D01*
X150367200Y-104195237D02*
X150271961Y-104290475D01*
X150271961Y-104290475D02*
X150176723Y-104338094D01*
X150176723Y-104338094D02*
X149986247Y-104385713D01*
X149986247Y-104385713D02*
X149843390Y-104385713D01*
X149843390Y-104385713D02*
X149652914Y-104338094D01*
X149652914Y-104338094D02*
X149557676Y-104290475D01*
X149557676Y-104290475D02*
X149462438Y-104195237D01*
X149462438Y-104195237D02*
X149414819Y-104052380D01*
X149414819Y-104052380D02*
X149414819Y-103957142D01*
X149414819Y-103957142D02*
X149462438Y-103814285D01*
X149462438Y-103814285D02*
X149510057Y-103766666D01*
X149414819Y-102909523D02*
X149414819Y-103099999D01*
X149414819Y-103099999D02*
X149462438Y-103195237D01*
X149462438Y-103195237D02*
X149510057Y-103242856D01*
X149510057Y-103242856D02*
X149652914Y-103338094D01*
X149652914Y-103338094D02*
X149843390Y-103385713D01*
X149843390Y-103385713D02*
X150224342Y-103385713D01*
X150224342Y-103385713D02*
X150319580Y-103338094D01*
X150319580Y-103338094D02*
X150367200Y-103290475D01*
X150367200Y-103290475D02*
X150414819Y-103195237D01*
X150414819Y-103195237D02*
X150414819Y-103004761D01*
X150414819Y-103004761D02*
X150367200Y-102909523D01*
X150367200Y-102909523D02*
X150319580Y-102861904D01*
X150319580Y-102861904D02*
X150224342Y-102814285D01*
X150224342Y-102814285D02*
X149986247Y-102814285D01*
X149986247Y-102814285D02*
X149891009Y-102861904D01*
X149891009Y-102861904D02*
X149843390Y-102909523D01*
X149843390Y-102909523D02*
X149795771Y-103004761D01*
X149795771Y-103004761D02*
X149795771Y-103195237D01*
X149795771Y-103195237D02*
X149843390Y-103290475D01*
X149843390Y-103290475D02*
X149891009Y-103338094D01*
X149891009Y-103338094D02*
X149986247Y-103385713D01*
D10*
X164459695Y-83733332D02*
X164078742Y-83999999D01*
X164459695Y-84190475D02*
X163659695Y-84190475D01*
X163659695Y-84190475D02*
X163659695Y-83885713D01*
X163659695Y-83885713D02*
X163697790Y-83809523D01*
X163697790Y-83809523D02*
X163735885Y-83771428D01*
X163735885Y-83771428D02*
X163812076Y-83733332D01*
X163812076Y-83733332D02*
X163926361Y-83733332D01*
X163926361Y-83733332D02*
X164002552Y-83771428D01*
X164002552Y-83771428D02*
X164040647Y-83809523D01*
X164040647Y-83809523D02*
X164078742Y-83885713D01*
X164078742Y-83885713D02*
X164078742Y-84190475D01*
X163659695Y-83009523D02*
X163659695Y-83390475D01*
X163659695Y-83390475D02*
X164040647Y-83428571D01*
X164040647Y-83428571D02*
X164002552Y-83390475D01*
X164002552Y-83390475D02*
X163964457Y-83314285D01*
X163964457Y-83314285D02*
X163964457Y-83123809D01*
X163964457Y-83123809D02*
X164002552Y-83047618D01*
X164002552Y-83047618D02*
X164040647Y-83009523D01*
X164040647Y-83009523D02*
X164116838Y-82971428D01*
X164116838Y-82971428D02*
X164307314Y-82971428D01*
X164307314Y-82971428D02*
X164383504Y-83009523D01*
X164383504Y-83009523D02*
X164421600Y-83047618D01*
X164421600Y-83047618D02*
X164459695Y-83123809D01*
X164459695Y-83123809D02*
X164459695Y-83314285D01*
X164459695Y-83314285D02*
X164421600Y-83390475D01*
X164421600Y-83390475D02*
X164383504Y-83428571D01*
X151159695Y-82014285D02*
X150778742Y-82280952D01*
X151159695Y-82471428D02*
X150359695Y-82471428D01*
X150359695Y-82471428D02*
X150359695Y-82166666D01*
X150359695Y-82166666D02*
X150397790Y-82090476D01*
X150397790Y-82090476D02*
X150435885Y-82052381D01*
X150435885Y-82052381D02*
X150512076Y-82014285D01*
X150512076Y-82014285D02*
X150626361Y-82014285D01*
X150626361Y-82014285D02*
X150702552Y-82052381D01*
X150702552Y-82052381D02*
X150740647Y-82090476D01*
X150740647Y-82090476D02*
X150778742Y-82166666D01*
X150778742Y-82166666D02*
X150778742Y-82471428D01*
X151159695Y-81252381D02*
X151159695Y-81709524D01*
X151159695Y-81480952D02*
X150359695Y-81480952D01*
X150359695Y-81480952D02*
X150473980Y-81557143D01*
X150473980Y-81557143D02*
X150550171Y-81633333D01*
X150550171Y-81633333D02*
X150588266Y-81709524D01*
X150359695Y-80757142D02*
X150359695Y-80680952D01*
X150359695Y-80680952D02*
X150397790Y-80604761D01*
X150397790Y-80604761D02*
X150435885Y-80566666D01*
X150435885Y-80566666D02*
X150512076Y-80528571D01*
X150512076Y-80528571D02*
X150664457Y-80490476D01*
X150664457Y-80490476D02*
X150854933Y-80490476D01*
X150854933Y-80490476D02*
X151007314Y-80528571D01*
X151007314Y-80528571D02*
X151083504Y-80566666D01*
X151083504Y-80566666D02*
X151121600Y-80604761D01*
X151121600Y-80604761D02*
X151159695Y-80680952D01*
X151159695Y-80680952D02*
X151159695Y-80757142D01*
X151159695Y-80757142D02*
X151121600Y-80833333D01*
X151121600Y-80833333D02*
X151083504Y-80871428D01*
X151083504Y-80871428D02*
X151007314Y-80909523D01*
X151007314Y-80909523D02*
X150854933Y-80947619D01*
X150854933Y-80947619D02*
X150664457Y-80947619D01*
X150664457Y-80947619D02*
X150512076Y-80909523D01*
X150512076Y-80909523D02*
X150435885Y-80871428D01*
X150435885Y-80871428D02*
X150397790Y-80833333D01*
X150397790Y-80833333D02*
X150359695Y-80757142D01*
D12*
X156954167Y-71909800D02*
X157097024Y-71957419D01*
X157097024Y-71957419D02*
X157335119Y-71957419D01*
X157335119Y-71957419D02*
X157430357Y-71909800D01*
X157430357Y-71909800D02*
X157477976Y-71862180D01*
X157477976Y-71862180D02*
X157525595Y-71766942D01*
X157525595Y-71766942D02*
X157525595Y-71671704D01*
X157525595Y-71671704D02*
X157477976Y-71576466D01*
X157477976Y-71576466D02*
X157430357Y-71528847D01*
X157430357Y-71528847D02*
X157335119Y-71481228D01*
X157335119Y-71481228D02*
X157144643Y-71433609D01*
X157144643Y-71433609D02*
X157049405Y-71385990D01*
X157049405Y-71385990D02*
X157001786Y-71338371D01*
X157001786Y-71338371D02*
X156954167Y-71243133D01*
X156954167Y-71243133D02*
X156954167Y-71147895D01*
X156954167Y-71147895D02*
X157001786Y-71052657D01*
X157001786Y-71052657D02*
X157049405Y-71005038D01*
X157049405Y-71005038D02*
X157144643Y-70957419D01*
X157144643Y-70957419D02*
X157382738Y-70957419D01*
X157382738Y-70957419D02*
X157525595Y-71005038D01*
X157858929Y-70957419D02*
X158097024Y-71957419D01*
X158097024Y-71957419D02*
X158287500Y-71243133D01*
X158287500Y-71243133D02*
X158477976Y-71957419D01*
X158477976Y-71957419D02*
X158716072Y-70957419D01*
X159525595Y-71290752D02*
X159525595Y-71957419D01*
X159287500Y-70909800D02*
X159049405Y-71624085D01*
X159049405Y-71624085D02*
X159668452Y-71624085D01*
D11*
X158742319Y-123333333D02*
X159456604Y-123333333D01*
X159456604Y-123333333D02*
X159599461Y-123380952D01*
X159599461Y-123380952D02*
X159694700Y-123476190D01*
X159694700Y-123476190D02*
X159742319Y-123619047D01*
X159742319Y-123619047D02*
X159742319Y-123714285D01*
X158742319Y-122952380D02*
X158742319Y-122333333D01*
X158742319Y-122333333D02*
X159123271Y-122666666D01*
X159123271Y-122666666D02*
X159123271Y-122523809D01*
X159123271Y-122523809D02*
X159170890Y-122428571D01*
X159170890Y-122428571D02*
X159218509Y-122380952D01*
X159218509Y-122380952D02*
X159313747Y-122333333D01*
X159313747Y-122333333D02*
X159551842Y-122333333D01*
X159551842Y-122333333D02*
X159647080Y-122380952D01*
X159647080Y-122380952D02*
X159694700Y-122428571D01*
X159694700Y-122428571D02*
X159742319Y-122523809D01*
X159742319Y-122523809D02*
X159742319Y-122809523D01*
X159742319Y-122809523D02*
X159694700Y-122904761D01*
X159694700Y-122904761D02*
X159647080Y-122952380D01*
D10*
X125559695Y-86614285D02*
X125178742Y-86880952D01*
X125559695Y-87071428D02*
X124759695Y-87071428D01*
X124759695Y-87071428D02*
X124759695Y-86766666D01*
X124759695Y-86766666D02*
X124797790Y-86690476D01*
X124797790Y-86690476D02*
X124835885Y-86652381D01*
X124835885Y-86652381D02*
X124912076Y-86614285D01*
X124912076Y-86614285D02*
X125026361Y-86614285D01*
X125026361Y-86614285D02*
X125102552Y-86652381D01*
X125102552Y-86652381D02*
X125140647Y-86690476D01*
X125140647Y-86690476D02*
X125178742Y-86766666D01*
X125178742Y-86766666D02*
X125178742Y-87071428D01*
X125559695Y-85852381D02*
X125559695Y-86309524D01*
X125559695Y-86080952D02*
X124759695Y-86080952D01*
X124759695Y-86080952D02*
X124873980Y-86157143D01*
X124873980Y-86157143D02*
X124950171Y-86233333D01*
X124950171Y-86233333D02*
X124988266Y-86309524D01*
X125102552Y-85395238D02*
X125064457Y-85471428D01*
X125064457Y-85471428D02*
X125026361Y-85509523D01*
X125026361Y-85509523D02*
X124950171Y-85547619D01*
X124950171Y-85547619D02*
X124912076Y-85547619D01*
X124912076Y-85547619D02*
X124835885Y-85509523D01*
X124835885Y-85509523D02*
X124797790Y-85471428D01*
X124797790Y-85471428D02*
X124759695Y-85395238D01*
X124759695Y-85395238D02*
X124759695Y-85242857D01*
X124759695Y-85242857D02*
X124797790Y-85166666D01*
X124797790Y-85166666D02*
X124835885Y-85128571D01*
X124835885Y-85128571D02*
X124912076Y-85090476D01*
X124912076Y-85090476D02*
X124950171Y-85090476D01*
X124950171Y-85090476D02*
X125026361Y-85128571D01*
X125026361Y-85128571D02*
X125064457Y-85166666D01*
X125064457Y-85166666D02*
X125102552Y-85242857D01*
X125102552Y-85242857D02*
X125102552Y-85395238D01*
X125102552Y-85395238D02*
X125140647Y-85471428D01*
X125140647Y-85471428D02*
X125178742Y-85509523D01*
X125178742Y-85509523D02*
X125254933Y-85547619D01*
X125254933Y-85547619D02*
X125407314Y-85547619D01*
X125407314Y-85547619D02*
X125483504Y-85509523D01*
X125483504Y-85509523D02*
X125521600Y-85471428D01*
X125521600Y-85471428D02*
X125559695Y-85395238D01*
X125559695Y-85395238D02*
X125559695Y-85242857D01*
X125559695Y-85242857D02*
X125521600Y-85166666D01*
X125521600Y-85166666D02*
X125483504Y-85128571D01*
X125483504Y-85128571D02*
X125407314Y-85090476D01*
X125407314Y-85090476D02*
X125254933Y-85090476D01*
X125254933Y-85090476D02*
X125178742Y-85128571D01*
X125178742Y-85128571D02*
X125140647Y-85166666D01*
X125140647Y-85166666D02*
X125102552Y-85242857D01*
X151259695Y-69614285D02*
X150878742Y-69880952D01*
X151259695Y-70071428D02*
X150459695Y-70071428D01*
X150459695Y-70071428D02*
X150459695Y-69766666D01*
X150459695Y-69766666D02*
X150497790Y-69690476D01*
X150497790Y-69690476D02*
X150535885Y-69652381D01*
X150535885Y-69652381D02*
X150612076Y-69614285D01*
X150612076Y-69614285D02*
X150726361Y-69614285D01*
X150726361Y-69614285D02*
X150802552Y-69652381D01*
X150802552Y-69652381D02*
X150840647Y-69690476D01*
X150840647Y-69690476D02*
X150878742Y-69766666D01*
X150878742Y-69766666D02*
X150878742Y-70071428D01*
X151259695Y-68852381D02*
X151259695Y-69309524D01*
X151259695Y-69080952D02*
X150459695Y-69080952D01*
X150459695Y-69080952D02*
X150573980Y-69157143D01*
X150573980Y-69157143D02*
X150650171Y-69233333D01*
X150650171Y-69233333D02*
X150688266Y-69309524D01*
X150535885Y-68547619D02*
X150497790Y-68509523D01*
X150497790Y-68509523D02*
X150459695Y-68433333D01*
X150459695Y-68433333D02*
X150459695Y-68242857D01*
X150459695Y-68242857D02*
X150497790Y-68166666D01*
X150497790Y-68166666D02*
X150535885Y-68128571D01*
X150535885Y-68128571D02*
X150612076Y-68090476D01*
X150612076Y-68090476D02*
X150688266Y-68090476D01*
X150688266Y-68090476D02*
X150802552Y-68128571D01*
X150802552Y-68128571D02*
X151259695Y-68585714D01*
X151259695Y-68585714D02*
X151259695Y-68090476D01*
X143983504Y-111833332D02*
X144021600Y-111871428D01*
X144021600Y-111871428D02*
X144059695Y-111985713D01*
X144059695Y-111985713D02*
X144059695Y-112061904D01*
X144059695Y-112061904D02*
X144021600Y-112176190D01*
X144021600Y-112176190D02*
X143945409Y-112252380D01*
X143945409Y-112252380D02*
X143869219Y-112290475D01*
X143869219Y-112290475D02*
X143716838Y-112328571D01*
X143716838Y-112328571D02*
X143602552Y-112328571D01*
X143602552Y-112328571D02*
X143450171Y-112290475D01*
X143450171Y-112290475D02*
X143373980Y-112252380D01*
X143373980Y-112252380D02*
X143297790Y-112176190D01*
X143297790Y-112176190D02*
X143259695Y-112061904D01*
X143259695Y-112061904D02*
X143259695Y-111985713D01*
X143259695Y-111985713D02*
X143297790Y-111871428D01*
X143297790Y-111871428D02*
X143335885Y-111833332D01*
X143335885Y-111528571D02*
X143297790Y-111490475D01*
X143297790Y-111490475D02*
X143259695Y-111414285D01*
X143259695Y-111414285D02*
X143259695Y-111223809D01*
X143259695Y-111223809D02*
X143297790Y-111147618D01*
X143297790Y-111147618D02*
X143335885Y-111109523D01*
X143335885Y-111109523D02*
X143412076Y-111071428D01*
X143412076Y-111071428D02*
X143488266Y-111071428D01*
X143488266Y-111071428D02*
X143602552Y-111109523D01*
X143602552Y-111109523D02*
X144059695Y-111566666D01*
X144059695Y-111566666D02*
X144059695Y-111071428D01*
X151059695Y-84133332D02*
X150678742Y-84399999D01*
X151059695Y-84590475D02*
X150259695Y-84590475D01*
X150259695Y-84590475D02*
X150259695Y-84285713D01*
X150259695Y-84285713D02*
X150297790Y-84209523D01*
X150297790Y-84209523D02*
X150335885Y-84171428D01*
X150335885Y-84171428D02*
X150412076Y-84133332D01*
X150412076Y-84133332D02*
X150526361Y-84133332D01*
X150526361Y-84133332D02*
X150602552Y-84171428D01*
X150602552Y-84171428D02*
X150640647Y-84209523D01*
X150640647Y-84209523D02*
X150678742Y-84285713D01*
X150678742Y-84285713D02*
X150678742Y-84590475D01*
X151059695Y-83752380D02*
X151059695Y-83599999D01*
X151059695Y-83599999D02*
X151021600Y-83523809D01*
X151021600Y-83523809D02*
X150983504Y-83485713D01*
X150983504Y-83485713D02*
X150869219Y-83409523D01*
X150869219Y-83409523D02*
X150716838Y-83371428D01*
X150716838Y-83371428D02*
X150412076Y-83371428D01*
X150412076Y-83371428D02*
X150335885Y-83409523D01*
X150335885Y-83409523D02*
X150297790Y-83447618D01*
X150297790Y-83447618D02*
X150259695Y-83523809D01*
X150259695Y-83523809D02*
X150259695Y-83676190D01*
X150259695Y-83676190D02*
X150297790Y-83752380D01*
X150297790Y-83752380D02*
X150335885Y-83790475D01*
X150335885Y-83790475D02*
X150412076Y-83828571D01*
X150412076Y-83828571D02*
X150602552Y-83828571D01*
X150602552Y-83828571D02*
X150678742Y-83790475D01*
X150678742Y-83790475D02*
X150716838Y-83752380D01*
X150716838Y-83752380D02*
X150754933Y-83676190D01*
X150754933Y-83676190D02*
X150754933Y-83523809D01*
X150754933Y-83523809D02*
X150716838Y-83447618D01*
X150716838Y-83447618D02*
X150678742Y-83409523D01*
X150678742Y-83409523D02*
X150602552Y-83371428D01*
X125283504Y-69314285D02*
X125321600Y-69352381D01*
X125321600Y-69352381D02*
X125359695Y-69466666D01*
X125359695Y-69466666D02*
X125359695Y-69542857D01*
X125359695Y-69542857D02*
X125321600Y-69657143D01*
X125321600Y-69657143D02*
X125245409Y-69733333D01*
X125245409Y-69733333D02*
X125169219Y-69771428D01*
X125169219Y-69771428D02*
X125016838Y-69809524D01*
X125016838Y-69809524D02*
X124902552Y-69809524D01*
X124902552Y-69809524D02*
X124750171Y-69771428D01*
X124750171Y-69771428D02*
X124673980Y-69733333D01*
X124673980Y-69733333D02*
X124597790Y-69657143D01*
X124597790Y-69657143D02*
X124559695Y-69542857D01*
X124559695Y-69542857D02*
X124559695Y-69466666D01*
X124559695Y-69466666D02*
X124597790Y-69352381D01*
X124597790Y-69352381D02*
X124635885Y-69314285D01*
X125359695Y-68552381D02*
X125359695Y-69009524D01*
X125359695Y-68780952D02*
X124559695Y-68780952D01*
X124559695Y-68780952D02*
X124673980Y-68857143D01*
X124673980Y-68857143D02*
X124750171Y-68933333D01*
X124750171Y-68933333D02*
X124788266Y-69009524D01*
X124559695Y-68285714D02*
X124559695Y-67790476D01*
X124559695Y-67790476D02*
X124864457Y-68057142D01*
X124864457Y-68057142D02*
X124864457Y-67942857D01*
X124864457Y-67942857D02*
X124902552Y-67866666D01*
X124902552Y-67866666D02*
X124940647Y-67828571D01*
X124940647Y-67828571D02*
X125016838Y-67790476D01*
X125016838Y-67790476D02*
X125207314Y-67790476D01*
X125207314Y-67790476D02*
X125283504Y-67828571D01*
X125283504Y-67828571D02*
X125321600Y-67866666D01*
X125321600Y-67866666D02*
X125359695Y-67942857D01*
X125359695Y-67942857D02*
X125359695Y-68171428D01*
X125359695Y-68171428D02*
X125321600Y-68247619D01*
X125321600Y-68247619D02*
X125283504Y-68285714D01*
D12*
X156954167Y-83909800D02*
X157097024Y-83957419D01*
X157097024Y-83957419D02*
X157335119Y-83957419D01*
X157335119Y-83957419D02*
X157430357Y-83909800D01*
X157430357Y-83909800D02*
X157477976Y-83862180D01*
X157477976Y-83862180D02*
X157525595Y-83766942D01*
X157525595Y-83766942D02*
X157525595Y-83671704D01*
X157525595Y-83671704D02*
X157477976Y-83576466D01*
X157477976Y-83576466D02*
X157430357Y-83528847D01*
X157430357Y-83528847D02*
X157335119Y-83481228D01*
X157335119Y-83481228D02*
X157144643Y-83433609D01*
X157144643Y-83433609D02*
X157049405Y-83385990D01*
X157049405Y-83385990D02*
X157001786Y-83338371D01*
X157001786Y-83338371D02*
X156954167Y-83243133D01*
X156954167Y-83243133D02*
X156954167Y-83147895D01*
X156954167Y-83147895D02*
X157001786Y-83052657D01*
X157001786Y-83052657D02*
X157049405Y-83005038D01*
X157049405Y-83005038D02*
X157144643Y-82957419D01*
X157144643Y-82957419D02*
X157382738Y-82957419D01*
X157382738Y-82957419D02*
X157525595Y-83005038D01*
X157858929Y-82957419D02*
X158097024Y-83957419D01*
X158097024Y-83957419D02*
X158287500Y-83243133D01*
X158287500Y-83243133D02*
X158477976Y-83957419D01*
X158477976Y-83957419D02*
X158716072Y-82957419D01*
X159001786Y-82957419D02*
X159620833Y-82957419D01*
X159620833Y-82957419D02*
X159287500Y-83338371D01*
X159287500Y-83338371D02*
X159430357Y-83338371D01*
X159430357Y-83338371D02*
X159525595Y-83385990D01*
X159525595Y-83385990D02*
X159573214Y-83433609D01*
X159573214Y-83433609D02*
X159620833Y-83528847D01*
X159620833Y-83528847D02*
X159620833Y-83766942D01*
X159620833Y-83766942D02*
X159573214Y-83862180D01*
X159573214Y-83862180D02*
X159525595Y-83909800D01*
X159525595Y-83909800D02*
X159430357Y-83957419D01*
X159430357Y-83957419D02*
X159144643Y-83957419D01*
X159144643Y-83957419D02*
X159049405Y-83909800D01*
X159049405Y-83909800D02*
X159001786Y-83862180D01*
X156954167Y-95909800D02*
X157097024Y-95957419D01*
X157097024Y-95957419D02*
X157335119Y-95957419D01*
X157335119Y-95957419D02*
X157430357Y-95909800D01*
X157430357Y-95909800D02*
X157477976Y-95862180D01*
X157477976Y-95862180D02*
X157525595Y-95766942D01*
X157525595Y-95766942D02*
X157525595Y-95671704D01*
X157525595Y-95671704D02*
X157477976Y-95576466D01*
X157477976Y-95576466D02*
X157430357Y-95528847D01*
X157430357Y-95528847D02*
X157335119Y-95481228D01*
X157335119Y-95481228D02*
X157144643Y-95433609D01*
X157144643Y-95433609D02*
X157049405Y-95385990D01*
X157049405Y-95385990D02*
X157001786Y-95338371D01*
X157001786Y-95338371D02*
X156954167Y-95243133D01*
X156954167Y-95243133D02*
X156954167Y-95147895D01*
X156954167Y-95147895D02*
X157001786Y-95052657D01*
X157001786Y-95052657D02*
X157049405Y-95005038D01*
X157049405Y-95005038D02*
X157144643Y-94957419D01*
X157144643Y-94957419D02*
X157382738Y-94957419D01*
X157382738Y-94957419D02*
X157525595Y-95005038D01*
X157858929Y-94957419D02*
X158097024Y-95957419D01*
X158097024Y-95957419D02*
X158287500Y-95243133D01*
X158287500Y-95243133D02*
X158477976Y-95957419D01*
X158477976Y-95957419D02*
X158716072Y-94957419D01*
X159049405Y-95052657D02*
X159097024Y-95005038D01*
X159097024Y-95005038D02*
X159192262Y-94957419D01*
X159192262Y-94957419D02*
X159430357Y-94957419D01*
X159430357Y-94957419D02*
X159525595Y-95005038D01*
X159525595Y-95005038D02*
X159573214Y-95052657D01*
X159573214Y-95052657D02*
X159620833Y-95147895D01*
X159620833Y-95147895D02*
X159620833Y-95243133D01*
X159620833Y-95243133D02*
X159573214Y-95385990D01*
X159573214Y-95385990D02*
X159001786Y-95957419D01*
X159001786Y-95957419D02*
X159620833Y-95957419D01*
D13*
X134378571Y-121324809D02*
X134211905Y-121086714D01*
X134092857Y-121324809D02*
X134092857Y-120824809D01*
X134092857Y-120824809D02*
X134283333Y-120824809D01*
X134283333Y-120824809D02*
X134330952Y-120848619D01*
X134330952Y-120848619D02*
X134354762Y-120872428D01*
X134354762Y-120872428D02*
X134378571Y-120920047D01*
X134378571Y-120920047D02*
X134378571Y-120991476D01*
X134378571Y-120991476D02*
X134354762Y-121039095D01*
X134354762Y-121039095D02*
X134330952Y-121062904D01*
X134330952Y-121062904D02*
X134283333Y-121086714D01*
X134283333Y-121086714D02*
X134092857Y-121086714D01*
X134569048Y-120872428D02*
X134592857Y-120848619D01*
X134592857Y-120848619D02*
X134640476Y-120824809D01*
X134640476Y-120824809D02*
X134759524Y-120824809D01*
X134759524Y-120824809D02*
X134807143Y-120848619D01*
X134807143Y-120848619D02*
X134830952Y-120872428D01*
X134830952Y-120872428D02*
X134854762Y-120920047D01*
X134854762Y-120920047D02*
X134854762Y-120967666D01*
X134854762Y-120967666D02*
X134830952Y-121039095D01*
X134830952Y-121039095D02*
X134545238Y-121324809D01*
X134545238Y-121324809D02*
X134854762Y-121324809D01*
X135307142Y-120824809D02*
X135069047Y-120824809D01*
X135069047Y-120824809D02*
X135045238Y-121062904D01*
X135045238Y-121062904D02*
X135069047Y-121039095D01*
X135069047Y-121039095D02*
X135116666Y-121015285D01*
X135116666Y-121015285D02*
X135235714Y-121015285D01*
X135235714Y-121015285D02*
X135283333Y-121039095D01*
X135283333Y-121039095D02*
X135307142Y-121062904D01*
X135307142Y-121062904D02*
X135330952Y-121110523D01*
X135330952Y-121110523D02*
X135330952Y-121229571D01*
X135330952Y-121229571D02*
X135307142Y-121277190D01*
X135307142Y-121277190D02*
X135283333Y-121301000D01*
X135283333Y-121301000D02*
X135235714Y-121324809D01*
X135235714Y-121324809D02*
X135116666Y-121324809D01*
X135116666Y-121324809D02*
X135069047Y-121301000D01*
X135069047Y-121301000D02*
X135045238Y-121277190D01*
D10*
X158283504Y-116314285D02*
X158321600Y-116352381D01*
X158321600Y-116352381D02*
X158359695Y-116466666D01*
X158359695Y-116466666D02*
X158359695Y-116542857D01*
X158359695Y-116542857D02*
X158321600Y-116657143D01*
X158321600Y-116657143D02*
X158245409Y-116733333D01*
X158245409Y-116733333D02*
X158169219Y-116771428D01*
X158169219Y-116771428D02*
X158016838Y-116809524D01*
X158016838Y-116809524D02*
X157902552Y-116809524D01*
X157902552Y-116809524D02*
X157750171Y-116771428D01*
X157750171Y-116771428D02*
X157673980Y-116733333D01*
X157673980Y-116733333D02*
X157597790Y-116657143D01*
X157597790Y-116657143D02*
X157559695Y-116542857D01*
X157559695Y-116542857D02*
X157559695Y-116466666D01*
X157559695Y-116466666D02*
X157597790Y-116352381D01*
X157597790Y-116352381D02*
X157635885Y-116314285D01*
X157635885Y-116009524D02*
X157597790Y-115971428D01*
X157597790Y-115971428D02*
X157559695Y-115895238D01*
X157559695Y-115895238D02*
X157559695Y-115704762D01*
X157559695Y-115704762D02*
X157597790Y-115628571D01*
X157597790Y-115628571D02*
X157635885Y-115590476D01*
X157635885Y-115590476D02*
X157712076Y-115552381D01*
X157712076Y-115552381D02*
X157788266Y-115552381D01*
X157788266Y-115552381D02*
X157902552Y-115590476D01*
X157902552Y-115590476D02*
X158359695Y-116047619D01*
X158359695Y-116047619D02*
X158359695Y-115552381D01*
X157559695Y-115057142D02*
X157559695Y-114980952D01*
X157559695Y-114980952D02*
X157597790Y-114904761D01*
X157597790Y-114904761D02*
X157635885Y-114866666D01*
X157635885Y-114866666D02*
X157712076Y-114828571D01*
X157712076Y-114828571D02*
X157864457Y-114790476D01*
X157864457Y-114790476D02*
X158054933Y-114790476D01*
X158054933Y-114790476D02*
X158207314Y-114828571D01*
X158207314Y-114828571D02*
X158283504Y-114866666D01*
X158283504Y-114866666D02*
X158321600Y-114904761D01*
X158321600Y-114904761D02*
X158359695Y-114980952D01*
X158359695Y-114980952D02*
X158359695Y-115057142D01*
X158359695Y-115057142D02*
X158321600Y-115133333D01*
X158321600Y-115133333D02*
X158283504Y-115171428D01*
X158283504Y-115171428D02*
X158207314Y-115209523D01*
X158207314Y-115209523D02*
X158054933Y-115247619D01*
X158054933Y-115247619D02*
X157864457Y-115247619D01*
X157864457Y-115247619D02*
X157712076Y-115209523D01*
X157712076Y-115209523D02*
X157635885Y-115171428D01*
X157635885Y-115171428D02*
X157597790Y-115133333D01*
X157597790Y-115133333D02*
X157559695Y-115057142D01*
D11*
X153247080Y-121666666D02*
X153294700Y-121714285D01*
X153294700Y-121714285D02*
X153342319Y-121857142D01*
X153342319Y-121857142D02*
X153342319Y-121952380D01*
X153342319Y-121952380D02*
X153294700Y-122095237D01*
X153294700Y-122095237D02*
X153199461Y-122190475D01*
X153199461Y-122190475D02*
X153104223Y-122238094D01*
X153104223Y-122238094D02*
X152913747Y-122285713D01*
X152913747Y-122285713D02*
X152770890Y-122285713D01*
X152770890Y-122285713D02*
X152580414Y-122238094D01*
X152580414Y-122238094D02*
X152485176Y-122190475D01*
X152485176Y-122190475D02*
X152389938Y-122095237D01*
X152389938Y-122095237D02*
X152342319Y-121952380D01*
X152342319Y-121952380D02*
X152342319Y-121857142D01*
X152342319Y-121857142D02*
X152389938Y-121714285D01*
X152389938Y-121714285D02*
X152437557Y-121666666D01*
X152342319Y-121333332D02*
X152342319Y-120666666D01*
X152342319Y-120666666D02*
X153342319Y-121095237D01*
D10*
X164459695Y-81433332D02*
X164078742Y-81699999D01*
X164459695Y-81890475D02*
X163659695Y-81890475D01*
X163659695Y-81890475D02*
X163659695Y-81585713D01*
X163659695Y-81585713D02*
X163697790Y-81509523D01*
X163697790Y-81509523D02*
X163735885Y-81471428D01*
X163735885Y-81471428D02*
X163812076Y-81433332D01*
X163812076Y-81433332D02*
X163926361Y-81433332D01*
X163926361Y-81433332D02*
X164002552Y-81471428D01*
X164002552Y-81471428D02*
X164040647Y-81509523D01*
X164040647Y-81509523D02*
X164078742Y-81585713D01*
X164078742Y-81585713D02*
X164078742Y-81890475D01*
X163659695Y-80747618D02*
X163659695Y-80899999D01*
X163659695Y-80899999D02*
X163697790Y-80976190D01*
X163697790Y-80976190D02*
X163735885Y-81014285D01*
X163735885Y-81014285D02*
X163850171Y-81090475D01*
X163850171Y-81090475D02*
X164002552Y-81128571D01*
X164002552Y-81128571D02*
X164307314Y-81128571D01*
X164307314Y-81128571D02*
X164383504Y-81090475D01*
X164383504Y-81090475D02*
X164421600Y-81052380D01*
X164421600Y-81052380D02*
X164459695Y-80976190D01*
X164459695Y-80976190D02*
X164459695Y-80823809D01*
X164459695Y-80823809D02*
X164421600Y-80747618D01*
X164421600Y-80747618D02*
X164383504Y-80709523D01*
X164383504Y-80709523D02*
X164307314Y-80671428D01*
X164307314Y-80671428D02*
X164116838Y-80671428D01*
X164116838Y-80671428D02*
X164040647Y-80709523D01*
X164040647Y-80709523D02*
X164002552Y-80747618D01*
X164002552Y-80747618D02*
X163964457Y-80823809D01*
X163964457Y-80823809D02*
X163964457Y-80976190D01*
X163964457Y-80976190D02*
X164002552Y-81052380D01*
X164002552Y-81052380D02*
X164040647Y-81090475D01*
X164040647Y-81090475D02*
X164116838Y-81128571D01*
D13*
X134378571Y-124624809D02*
X134211905Y-124386714D01*
X134092857Y-124624809D02*
X134092857Y-124124809D01*
X134092857Y-124124809D02*
X134283333Y-124124809D01*
X134283333Y-124124809D02*
X134330952Y-124148619D01*
X134330952Y-124148619D02*
X134354762Y-124172428D01*
X134354762Y-124172428D02*
X134378571Y-124220047D01*
X134378571Y-124220047D02*
X134378571Y-124291476D01*
X134378571Y-124291476D02*
X134354762Y-124339095D01*
X134354762Y-124339095D02*
X134330952Y-124362904D01*
X134330952Y-124362904D02*
X134283333Y-124386714D01*
X134283333Y-124386714D02*
X134092857Y-124386714D01*
X134569048Y-124172428D02*
X134592857Y-124148619D01*
X134592857Y-124148619D02*
X134640476Y-124124809D01*
X134640476Y-124124809D02*
X134759524Y-124124809D01*
X134759524Y-124124809D02*
X134807143Y-124148619D01*
X134807143Y-124148619D02*
X134830952Y-124172428D01*
X134830952Y-124172428D02*
X134854762Y-124220047D01*
X134854762Y-124220047D02*
X134854762Y-124267666D01*
X134854762Y-124267666D02*
X134830952Y-124339095D01*
X134830952Y-124339095D02*
X134545238Y-124624809D01*
X134545238Y-124624809D02*
X134854762Y-124624809D01*
X135283333Y-124124809D02*
X135188095Y-124124809D01*
X135188095Y-124124809D02*
X135140476Y-124148619D01*
X135140476Y-124148619D02*
X135116666Y-124172428D01*
X135116666Y-124172428D02*
X135069047Y-124243857D01*
X135069047Y-124243857D02*
X135045238Y-124339095D01*
X135045238Y-124339095D02*
X135045238Y-124529571D01*
X135045238Y-124529571D02*
X135069047Y-124577190D01*
X135069047Y-124577190D02*
X135092857Y-124601000D01*
X135092857Y-124601000D02*
X135140476Y-124624809D01*
X135140476Y-124624809D02*
X135235714Y-124624809D01*
X135235714Y-124624809D02*
X135283333Y-124601000D01*
X135283333Y-124601000D02*
X135307142Y-124577190D01*
X135307142Y-124577190D02*
X135330952Y-124529571D01*
X135330952Y-124529571D02*
X135330952Y-124410523D01*
X135330952Y-124410523D02*
X135307142Y-124362904D01*
X135307142Y-124362904D02*
X135283333Y-124339095D01*
X135283333Y-124339095D02*
X135235714Y-124315285D01*
X135235714Y-124315285D02*
X135140476Y-124315285D01*
X135140476Y-124315285D02*
X135092857Y-124339095D01*
X135092857Y-124339095D02*
X135069047Y-124362904D01*
X135069047Y-124362904D02*
X135045238Y-124410523D01*
D10*
X164759695Y-95733332D02*
X164378742Y-95999999D01*
X164759695Y-96190475D02*
X163959695Y-96190475D01*
X163959695Y-96190475D02*
X163959695Y-95885713D01*
X163959695Y-95885713D02*
X163997790Y-95809523D01*
X163997790Y-95809523D02*
X164035885Y-95771428D01*
X164035885Y-95771428D02*
X164112076Y-95733332D01*
X164112076Y-95733332D02*
X164226361Y-95733332D01*
X164226361Y-95733332D02*
X164302552Y-95771428D01*
X164302552Y-95771428D02*
X164340647Y-95809523D01*
X164340647Y-95809523D02*
X164378742Y-95885713D01*
X164378742Y-95885713D02*
X164378742Y-96190475D01*
X163959695Y-95466666D02*
X163959695Y-94971428D01*
X163959695Y-94971428D02*
X164264457Y-95238094D01*
X164264457Y-95238094D02*
X164264457Y-95123809D01*
X164264457Y-95123809D02*
X164302552Y-95047618D01*
X164302552Y-95047618D02*
X164340647Y-95009523D01*
X164340647Y-95009523D02*
X164416838Y-94971428D01*
X164416838Y-94971428D02*
X164607314Y-94971428D01*
X164607314Y-94971428D02*
X164683504Y-95009523D01*
X164683504Y-95009523D02*
X164721600Y-95047618D01*
X164721600Y-95047618D02*
X164759695Y-95123809D01*
X164759695Y-95123809D02*
X164759695Y-95352380D01*
X164759695Y-95352380D02*
X164721600Y-95428571D01*
X164721600Y-95428571D02*
X164683504Y-95466666D01*
X151183504Y-74614285D02*
X151221600Y-74652381D01*
X151221600Y-74652381D02*
X151259695Y-74766666D01*
X151259695Y-74766666D02*
X151259695Y-74842857D01*
X151259695Y-74842857D02*
X151221600Y-74957143D01*
X151221600Y-74957143D02*
X151145409Y-75033333D01*
X151145409Y-75033333D02*
X151069219Y-75071428D01*
X151069219Y-75071428D02*
X150916838Y-75109524D01*
X150916838Y-75109524D02*
X150802552Y-75109524D01*
X150802552Y-75109524D02*
X150650171Y-75071428D01*
X150650171Y-75071428D02*
X150573980Y-75033333D01*
X150573980Y-75033333D02*
X150497790Y-74957143D01*
X150497790Y-74957143D02*
X150459695Y-74842857D01*
X150459695Y-74842857D02*
X150459695Y-74766666D01*
X150459695Y-74766666D02*
X150497790Y-74652381D01*
X150497790Y-74652381D02*
X150535885Y-74614285D01*
X151259695Y-73852381D02*
X151259695Y-74309524D01*
X151259695Y-74080952D02*
X150459695Y-74080952D01*
X150459695Y-74080952D02*
X150573980Y-74157143D01*
X150573980Y-74157143D02*
X150650171Y-74233333D01*
X150650171Y-74233333D02*
X150688266Y-74309524D01*
X150535885Y-73547619D02*
X150497790Y-73509523D01*
X150497790Y-73509523D02*
X150459695Y-73433333D01*
X150459695Y-73433333D02*
X150459695Y-73242857D01*
X150459695Y-73242857D02*
X150497790Y-73166666D01*
X150497790Y-73166666D02*
X150535885Y-73128571D01*
X150535885Y-73128571D02*
X150612076Y-73090476D01*
X150612076Y-73090476D02*
X150688266Y-73090476D01*
X150688266Y-73090476D02*
X150802552Y-73128571D01*
X150802552Y-73128571D02*
X151259695Y-73585714D01*
X151259695Y-73585714D02*
X151259695Y-73090476D01*
X164383504Y-110414285D02*
X164421600Y-110452381D01*
X164421600Y-110452381D02*
X164459695Y-110566666D01*
X164459695Y-110566666D02*
X164459695Y-110642857D01*
X164459695Y-110642857D02*
X164421600Y-110757143D01*
X164421600Y-110757143D02*
X164345409Y-110833333D01*
X164345409Y-110833333D02*
X164269219Y-110871428D01*
X164269219Y-110871428D02*
X164116838Y-110909524D01*
X164116838Y-110909524D02*
X164002552Y-110909524D01*
X164002552Y-110909524D02*
X163850171Y-110871428D01*
X163850171Y-110871428D02*
X163773980Y-110833333D01*
X163773980Y-110833333D02*
X163697790Y-110757143D01*
X163697790Y-110757143D02*
X163659695Y-110642857D01*
X163659695Y-110642857D02*
X163659695Y-110566666D01*
X163659695Y-110566666D02*
X163697790Y-110452381D01*
X163697790Y-110452381D02*
X163735885Y-110414285D01*
X164459695Y-109652381D02*
X164459695Y-110109524D01*
X164459695Y-109880952D02*
X163659695Y-109880952D01*
X163659695Y-109880952D02*
X163773980Y-109957143D01*
X163773980Y-109957143D02*
X163850171Y-110033333D01*
X163850171Y-110033333D02*
X163888266Y-110109524D01*
X164459695Y-109271428D02*
X164459695Y-109119047D01*
X164459695Y-109119047D02*
X164421600Y-109042857D01*
X164421600Y-109042857D02*
X164383504Y-109004761D01*
X164383504Y-109004761D02*
X164269219Y-108928571D01*
X164269219Y-108928571D02*
X164116838Y-108890476D01*
X164116838Y-108890476D02*
X163812076Y-108890476D01*
X163812076Y-108890476D02*
X163735885Y-108928571D01*
X163735885Y-108928571D02*
X163697790Y-108966666D01*
X163697790Y-108966666D02*
X163659695Y-109042857D01*
X163659695Y-109042857D02*
X163659695Y-109195238D01*
X163659695Y-109195238D02*
X163697790Y-109271428D01*
X163697790Y-109271428D02*
X163735885Y-109309523D01*
X163735885Y-109309523D02*
X163812076Y-109347619D01*
X163812076Y-109347619D02*
X164002552Y-109347619D01*
X164002552Y-109347619D02*
X164078742Y-109309523D01*
X164078742Y-109309523D02*
X164116838Y-109271428D01*
X164116838Y-109271428D02*
X164154933Y-109195238D01*
X164154933Y-109195238D02*
X164154933Y-109042857D01*
X164154933Y-109042857D02*
X164116838Y-108966666D01*
X164116838Y-108966666D02*
X164078742Y-108928571D01*
X164078742Y-108928571D02*
X164002552Y-108890476D01*
D13*
X147278571Y-91324809D02*
X147111905Y-91086714D01*
X146992857Y-91324809D02*
X146992857Y-90824809D01*
X146992857Y-90824809D02*
X147183333Y-90824809D01*
X147183333Y-90824809D02*
X147230952Y-90848619D01*
X147230952Y-90848619D02*
X147254762Y-90872428D01*
X147254762Y-90872428D02*
X147278571Y-90920047D01*
X147278571Y-90920047D02*
X147278571Y-90991476D01*
X147278571Y-90991476D02*
X147254762Y-91039095D01*
X147254762Y-91039095D02*
X147230952Y-91062904D01*
X147230952Y-91062904D02*
X147183333Y-91086714D01*
X147183333Y-91086714D02*
X146992857Y-91086714D01*
X147469048Y-90872428D02*
X147492857Y-90848619D01*
X147492857Y-90848619D02*
X147540476Y-90824809D01*
X147540476Y-90824809D02*
X147659524Y-90824809D01*
X147659524Y-90824809D02*
X147707143Y-90848619D01*
X147707143Y-90848619D02*
X147730952Y-90872428D01*
X147730952Y-90872428D02*
X147754762Y-90920047D01*
X147754762Y-90920047D02*
X147754762Y-90967666D01*
X147754762Y-90967666D02*
X147730952Y-91039095D01*
X147730952Y-91039095D02*
X147445238Y-91324809D01*
X147445238Y-91324809D02*
X147754762Y-91324809D01*
X148040476Y-91039095D02*
X147992857Y-91015285D01*
X147992857Y-91015285D02*
X147969047Y-90991476D01*
X147969047Y-90991476D02*
X147945238Y-90943857D01*
X147945238Y-90943857D02*
X147945238Y-90920047D01*
X147945238Y-90920047D02*
X147969047Y-90872428D01*
X147969047Y-90872428D02*
X147992857Y-90848619D01*
X147992857Y-90848619D02*
X148040476Y-90824809D01*
X148040476Y-90824809D02*
X148135714Y-90824809D01*
X148135714Y-90824809D02*
X148183333Y-90848619D01*
X148183333Y-90848619D02*
X148207142Y-90872428D01*
X148207142Y-90872428D02*
X148230952Y-90920047D01*
X148230952Y-90920047D02*
X148230952Y-90943857D01*
X148230952Y-90943857D02*
X148207142Y-90991476D01*
X148207142Y-90991476D02*
X148183333Y-91015285D01*
X148183333Y-91015285D02*
X148135714Y-91039095D01*
X148135714Y-91039095D02*
X148040476Y-91039095D01*
X148040476Y-91039095D02*
X147992857Y-91062904D01*
X147992857Y-91062904D02*
X147969047Y-91086714D01*
X147969047Y-91086714D02*
X147945238Y-91134333D01*
X147945238Y-91134333D02*
X147945238Y-91229571D01*
X147945238Y-91229571D02*
X147969047Y-91277190D01*
X147969047Y-91277190D02*
X147992857Y-91301000D01*
X147992857Y-91301000D02*
X148040476Y-91324809D01*
X148040476Y-91324809D02*
X148135714Y-91324809D01*
X148135714Y-91324809D02*
X148183333Y-91301000D01*
X148183333Y-91301000D02*
X148207142Y-91277190D01*
X148207142Y-91277190D02*
X148230952Y-91229571D01*
X148230952Y-91229571D02*
X148230952Y-91134333D01*
X148230952Y-91134333D02*
X148207142Y-91086714D01*
X148207142Y-91086714D02*
X148183333Y-91062904D01*
X148183333Y-91062904D02*
X148135714Y-91039095D01*
D11*
X161188095Y-63754819D02*
X161188095Y-62754819D01*
X161188095Y-63231009D02*
X161759523Y-63231009D01*
X161759523Y-63754819D02*
X161759523Y-62754819D01*
X162759523Y-63754819D02*
X162188095Y-63754819D01*
X162473809Y-63754819D02*
X162473809Y-62754819D01*
X162473809Y-62754819D02*
X162378571Y-62897676D01*
X162378571Y-62897676D02*
X162283333Y-62992914D01*
X162283333Y-62992914D02*
X162188095Y-63040533D01*
X145366666Y-127454819D02*
X145366666Y-128169104D01*
X145366666Y-128169104D02*
X145319047Y-128311961D01*
X145319047Y-128311961D02*
X145223809Y-128407200D01*
X145223809Y-128407200D02*
X145080952Y-128454819D01*
X145080952Y-128454819D02*
X144985714Y-128454819D01*
X145795238Y-127550057D02*
X145842857Y-127502438D01*
X145842857Y-127502438D02*
X145938095Y-127454819D01*
X145938095Y-127454819D02*
X146176190Y-127454819D01*
X146176190Y-127454819D02*
X146271428Y-127502438D01*
X146271428Y-127502438D02*
X146319047Y-127550057D01*
X146319047Y-127550057D02*
X146366666Y-127645295D01*
X146366666Y-127645295D02*
X146366666Y-127740533D01*
X146366666Y-127740533D02*
X146319047Y-127883390D01*
X146319047Y-127883390D02*
X145747619Y-128454819D01*
X145747619Y-128454819D02*
X146366666Y-128454819D01*
D10*
X125383504Y-81514285D02*
X125421600Y-81552381D01*
X125421600Y-81552381D02*
X125459695Y-81666666D01*
X125459695Y-81666666D02*
X125459695Y-81742857D01*
X125459695Y-81742857D02*
X125421600Y-81857143D01*
X125421600Y-81857143D02*
X125345409Y-81933333D01*
X125345409Y-81933333D02*
X125269219Y-81971428D01*
X125269219Y-81971428D02*
X125116838Y-82009524D01*
X125116838Y-82009524D02*
X125002552Y-82009524D01*
X125002552Y-82009524D02*
X124850171Y-81971428D01*
X124850171Y-81971428D02*
X124773980Y-81933333D01*
X124773980Y-81933333D02*
X124697790Y-81857143D01*
X124697790Y-81857143D02*
X124659695Y-81742857D01*
X124659695Y-81742857D02*
X124659695Y-81666666D01*
X124659695Y-81666666D02*
X124697790Y-81552381D01*
X124697790Y-81552381D02*
X124735885Y-81514285D01*
X125459695Y-80752381D02*
X125459695Y-81209524D01*
X125459695Y-80980952D02*
X124659695Y-80980952D01*
X124659695Y-80980952D02*
X124773980Y-81057143D01*
X124773980Y-81057143D02*
X124850171Y-81133333D01*
X124850171Y-81133333D02*
X124888266Y-81209524D01*
X124659695Y-80028571D02*
X124659695Y-80409523D01*
X124659695Y-80409523D02*
X125040647Y-80447619D01*
X125040647Y-80447619D02*
X125002552Y-80409523D01*
X125002552Y-80409523D02*
X124964457Y-80333333D01*
X124964457Y-80333333D02*
X124964457Y-80142857D01*
X124964457Y-80142857D02*
X125002552Y-80066666D01*
X125002552Y-80066666D02*
X125040647Y-80028571D01*
X125040647Y-80028571D02*
X125116838Y-79990476D01*
X125116838Y-79990476D02*
X125307314Y-79990476D01*
X125307314Y-79990476D02*
X125383504Y-80028571D01*
X125383504Y-80028571D02*
X125421600Y-80066666D01*
X125421600Y-80066666D02*
X125459695Y-80142857D01*
X125459695Y-80142857D02*
X125459695Y-80333333D01*
X125459695Y-80333333D02*
X125421600Y-80409523D01*
X125421600Y-80409523D02*
X125383504Y-80447619D01*
D11*
X155654819Y-113040357D02*
X155178628Y-113373690D01*
X155654819Y-113611785D02*
X154654819Y-113611785D01*
X154654819Y-113611785D02*
X154654819Y-113230833D01*
X154654819Y-113230833D02*
X154702438Y-113135595D01*
X154702438Y-113135595D02*
X154750057Y-113087976D01*
X154750057Y-113087976D02*
X154845295Y-113040357D01*
X154845295Y-113040357D02*
X154988152Y-113040357D01*
X154988152Y-113040357D02*
X155083390Y-113087976D01*
X155083390Y-113087976D02*
X155131009Y-113135595D01*
X155131009Y-113135595D02*
X155178628Y-113230833D01*
X155178628Y-113230833D02*
X155178628Y-113611785D01*
X154750057Y-112659404D02*
X154702438Y-112611785D01*
X154702438Y-112611785D02*
X154654819Y-112516547D01*
X154654819Y-112516547D02*
X154654819Y-112278452D01*
X154654819Y-112278452D02*
X154702438Y-112183214D01*
X154702438Y-112183214D02*
X154750057Y-112135595D01*
X154750057Y-112135595D02*
X154845295Y-112087976D01*
X154845295Y-112087976D02*
X154940533Y-112087976D01*
X154940533Y-112087976D02*
X155083390Y-112135595D01*
X155083390Y-112135595D02*
X155654819Y-112707023D01*
X155654819Y-112707023D02*
X155654819Y-112087976D01*
X154988152Y-111230833D02*
X155654819Y-111230833D01*
X154607200Y-111468928D02*
X155321485Y-111707023D01*
X155321485Y-111707023D02*
X155321485Y-111087976D01*
D12*
X143954167Y-59909800D02*
X144097024Y-59957419D01*
X144097024Y-59957419D02*
X144335119Y-59957419D01*
X144335119Y-59957419D02*
X144430357Y-59909800D01*
X144430357Y-59909800D02*
X144477976Y-59862180D01*
X144477976Y-59862180D02*
X144525595Y-59766942D01*
X144525595Y-59766942D02*
X144525595Y-59671704D01*
X144525595Y-59671704D02*
X144477976Y-59576466D01*
X144477976Y-59576466D02*
X144430357Y-59528847D01*
X144430357Y-59528847D02*
X144335119Y-59481228D01*
X144335119Y-59481228D02*
X144144643Y-59433609D01*
X144144643Y-59433609D02*
X144049405Y-59385990D01*
X144049405Y-59385990D02*
X144001786Y-59338371D01*
X144001786Y-59338371D02*
X143954167Y-59243133D01*
X143954167Y-59243133D02*
X143954167Y-59147895D01*
X143954167Y-59147895D02*
X144001786Y-59052657D01*
X144001786Y-59052657D02*
X144049405Y-59005038D01*
X144049405Y-59005038D02*
X144144643Y-58957419D01*
X144144643Y-58957419D02*
X144382738Y-58957419D01*
X144382738Y-58957419D02*
X144525595Y-59005038D01*
X144858929Y-58957419D02*
X145097024Y-59957419D01*
X145097024Y-59957419D02*
X145287500Y-59243133D01*
X145287500Y-59243133D02*
X145477976Y-59957419D01*
X145477976Y-59957419D02*
X145716072Y-58957419D01*
X146239881Y-59385990D02*
X146144643Y-59338371D01*
X146144643Y-59338371D02*
X146097024Y-59290752D01*
X146097024Y-59290752D02*
X146049405Y-59195514D01*
X146049405Y-59195514D02*
X146049405Y-59147895D01*
X146049405Y-59147895D02*
X146097024Y-59052657D01*
X146097024Y-59052657D02*
X146144643Y-59005038D01*
X146144643Y-59005038D02*
X146239881Y-58957419D01*
X146239881Y-58957419D02*
X146430357Y-58957419D01*
X146430357Y-58957419D02*
X146525595Y-59005038D01*
X146525595Y-59005038D02*
X146573214Y-59052657D01*
X146573214Y-59052657D02*
X146620833Y-59147895D01*
X146620833Y-59147895D02*
X146620833Y-59195514D01*
X146620833Y-59195514D02*
X146573214Y-59290752D01*
X146573214Y-59290752D02*
X146525595Y-59338371D01*
X146525595Y-59338371D02*
X146430357Y-59385990D01*
X146430357Y-59385990D02*
X146239881Y-59385990D01*
X146239881Y-59385990D02*
X146144643Y-59433609D01*
X146144643Y-59433609D02*
X146097024Y-59481228D01*
X146097024Y-59481228D02*
X146049405Y-59576466D01*
X146049405Y-59576466D02*
X146049405Y-59766942D01*
X146049405Y-59766942D02*
X146097024Y-59862180D01*
X146097024Y-59862180D02*
X146144643Y-59909800D01*
X146144643Y-59909800D02*
X146239881Y-59957419D01*
X146239881Y-59957419D02*
X146430357Y-59957419D01*
X146430357Y-59957419D02*
X146525595Y-59909800D01*
X146525595Y-59909800D02*
X146573214Y-59862180D01*
X146573214Y-59862180D02*
X146620833Y-59766942D01*
X146620833Y-59766942D02*
X146620833Y-59576466D01*
X146620833Y-59576466D02*
X146573214Y-59481228D01*
X146573214Y-59481228D02*
X146525595Y-59433609D01*
X146525595Y-59433609D02*
X146430357Y-59385990D01*
D10*
X125459695Y-116514285D02*
X125078742Y-116780952D01*
X125459695Y-116971428D02*
X124659695Y-116971428D01*
X124659695Y-116971428D02*
X124659695Y-116666666D01*
X124659695Y-116666666D02*
X124697790Y-116590476D01*
X124697790Y-116590476D02*
X124735885Y-116552381D01*
X124735885Y-116552381D02*
X124812076Y-116514285D01*
X124812076Y-116514285D02*
X124926361Y-116514285D01*
X124926361Y-116514285D02*
X125002552Y-116552381D01*
X125002552Y-116552381D02*
X125040647Y-116590476D01*
X125040647Y-116590476D02*
X125078742Y-116666666D01*
X125078742Y-116666666D02*
X125078742Y-116971428D01*
X124735885Y-116209524D02*
X124697790Y-116171428D01*
X124697790Y-116171428D02*
X124659695Y-116095238D01*
X124659695Y-116095238D02*
X124659695Y-115904762D01*
X124659695Y-115904762D02*
X124697790Y-115828571D01*
X124697790Y-115828571D02*
X124735885Y-115790476D01*
X124735885Y-115790476D02*
X124812076Y-115752381D01*
X124812076Y-115752381D02*
X124888266Y-115752381D01*
X124888266Y-115752381D02*
X125002552Y-115790476D01*
X125002552Y-115790476D02*
X125459695Y-116247619D01*
X125459695Y-116247619D02*
X125459695Y-115752381D01*
X125459695Y-114990476D02*
X125459695Y-115447619D01*
X125459695Y-115219047D02*
X124659695Y-115219047D01*
X124659695Y-115219047D02*
X124773980Y-115295238D01*
X124773980Y-115295238D02*
X124850171Y-115371428D01*
X124850171Y-115371428D02*
X124888266Y-115447619D01*
X147366667Y-99483504D02*
X147328571Y-99521600D01*
X147328571Y-99521600D02*
X147214286Y-99559695D01*
X147214286Y-99559695D02*
X147138095Y-99559695D01*
X147138095Y-99559695D02*
X147023809Y-99521600D01*
X147023809Y-99521600D02*
X146947619Y-99445409D01*
X146947619Y-99445409D02*
X146909524Y-99369219D01*
X146909524Y-99369219D02*
X146871428Y-99216838D01*
X146871428Y-99216838D02*
X146871428Y-99102552D01*
X146871428Y-99102552D02*
X146909524Y-98950171D01*
X146909524Y-98950171D02*
X146947619Y-98873980D01*
X146947619Y-98873980D02*
X147023809Y-98797790D01*
X147023809Y-98797790D02*
X147138095Y-98759695D01*
X147138095Y-98759695D02*
X147214286Y-98759695D01*
X147214286Y-98759695D02*
X147328571Y-98797790D01*
X147328571Y-98797790D02*
X147366667Y-98835885D01*
X148052381Y-99026361D02*
X148052381Y-99559695D01*
X147861905Y-98721600D02*
X147671428Y-99293028D01*
X147671428Y-99293028D02*
X148166667Y-99293028D01*
D11*
X129704166Y-99824819D02*
X129704166Y-100539104D01*
X129704166Y-100539104D02*
X129656547Y-100681961D01*
X129656547Y-100681961D02*
X129561309Y-100777200D01*
X129561309Y-100777200D02*
X129418452Y-100824819D01*
X129418452Y-100824819D02*
X129323214Y-100824819D01*
X130608928Y-100158152D02*
X130608928Y-100824819D01*
X130370833Y-99777200D02*
X130132738Y-100491485D01*
X130132738Y-100491485D02*
X130751785Y-100491485D01*
D12*
X128977976Y-95909800D02*
X129120833Y-95957419D01*
X129120833Y-95957419D02*
X129358928Y-95957419D01*
X129358928Y-95957419D02*
X129454166Y-95909800D01*
X129454166Y-95909800D02*
X129501785Y-95862180D01*
X129501785Y-95862180D02*
X129549404Y-95766942D01*
X129549404Y-95766942D02*
X129549404Y-95671704D01*
X129549404Y-95671704D02*
X129501785Y-95576466D01*
X129501785Y-95576466D02*
X129454166Y-95528847D01*
X129454166Y-95528847D02*
X129358928Y-95481228D01*
X129358928Y-95481228D02*
X129168452Y-95433609D01*
X129168452Y-95433609D02*
X129073214Y-95385990D01*
X129073214Y-95385990D02*
X129025595Y-95338371D01*
X129025595Y-95338371D02*
X128977976Y-95243133D01*
X128977976Y-95243133D02*
X128977976Y-95147895D01*
X128977976Y-95147895D02*
X129025595Y-95052657D01*
X129025595Y-95052657D02*
X129073214Y-95005038D01*
X129073214Y-95005038D02*
X129168452Y-94957419D01*
X129168452Y-94957419D02*
X129406547Y-94957419D01*
X129406547Y-94957419D02*
X129549404Y-95005038D01*
X129882738Y-94957419D02*
X130120833Y-95957419D01*
X130120833Y-95957419D02*
X130311309Y-95243133D01*
X130311309Y-95243133D02*
X130501785Y-95957419D01*
X130501785Y-95957419D02*
X130739881Y-94957419D01*
X131644642Y-95957419D02*
X131073214Y-95957419D01*
X131358928Y-95957419D02*
X131358928Y-94957419D01*
X131358928Y-94957419D02*
X131263690Y-95100276D01*
X131263690Y-95100276D02*
X131168452Y-95195514D01*
X131168452Y-95195514D02*
X131073214Y-95243133D01*
X132263690Y-94957419D02*
X132358928Y-94957419D01*
X132358928Y-94957419D02*
X132454166Y-95005038D01*
X132454166Y-95005038D02*
X132501785Y-95052657D01*
X132501785Y-95052657D02*
X132549404Y-95147895D01*
X132549404Y-95147895D02*
X132597023Y-95338371D01*
X132597023Y-95338371D02*
X132597023Y-95576466D01*
X132597023Y-95576466D02*
X132549404Y-95766942D01*
X132549404Y-95766942D02*
X132501785Y-95862180D01*
X132501785Y-95862180D02*
X132454166Y-95909800D01*
X132454166Y-95909800D02*
X132358928Y-95957419D01*
X132358928Y-95957419D02*
X132263690Y-95957419D01*
X132263690Y-95957419D02*
X132168452Y-95909800D01*
X132168452Y-95909800D02*
X132120833Y-95862180D01*
X132120833Y-95862180D02*
X132073214Y-95766942D01*
X132073214Y-95766942D02*
X132025595Y-95576466D01*
X132025595Y-95576466D02*
X132025595Y-95338371D01*
X132025595Y-95338371D02*
X132073214Y-95147895D01*
X132073214Y-95147895D02*
X132120833Y-95052657D01*
X132120833Y-95052657D02*
X132168452Y-95005038D01*
X132168452Y-95005038D02*
X132263690Y-94957419D01*
D10*
X151559695Y-57514285D02*
X151178742Y-57780952D01*
X151559695Y-57971428D02*
X150759695Y-57971428D01*
X150759695Y-57971428D02*
X150759695Y-57666666D01*
X150759695Y-57666666D02*
X150797790Y-57590476D01*
X150797790Y-57590476D02*
X150835885Y-57552381D01*
X150835885Y-57552381D02*
X150912076Y-57514285D01*
X150912076Y-57514285D02*
X151026361Y-57514285D01*
X151026361Y-57514285D02*
X151102552Y-57552381D01*
X151102552Y-57552381D02*
X151140647Y-57590476D01*
X151140647Y-57590476D02*
X151178742Y-57666666D01*
X151178742Y-57666666D02*
X151178742Y-57971428D01*
X151559695Y-56752381D02*
X151559695Y-57209524D01*
X151559695Y-56980952D02*
X150759695Y-56980952D01*
X150759695Y-56980952D02*
X150873980Y-57057143D01*
X150873980Y-57057143D02*
X150950171Y-57133333D01*
X150950171Y-57133333D02*
X150988266Y-57209524D01*
X150759695Y-56066666D02*
X150759695Y-56219047D01*
X150759695Y-56219047D02*
X150797790Y-56295238D01*
X150797790Y-56295238D02*
X150835885Y-56333333D01*
X150835885Y-56333333D02*
X150950171Y-56409523D01*
X150950171Y-56409523D02*
X151102552Y-56447619D01*
X151102552Y-56447619D02*
X151407314Y-56447619D01*
X151407314Y-56447619D02*
X151483504Y-56409523D01*
X151483504Y-56409523D02*
X151521600Y-56371428D01*
X151521600Y-56371428D02*
X151559695Y-56295238D01*
X151559695Y-56295238D02*
X151559695Y-56142857D01*
X151559695Y-56142857D02*
X151521600Y-56066666D01*
X151521600Y-56066666D02*
X151483504Y-56028571D01*
X151483504Y-56028571D02*
X151407314Y-55990476D01*
X151407314Y-55990476D02*
X151216838Y-55990476D01*
X151216838Y-55990476D02*
X151140647Y-56028571D01*
X151140647Y-56028571D02*
X151102552Y-56066666D01*
X151102552Y-56066666D02*
X151064457Y-56142857D01*
X151064457Y-56142857D02*
X151064457Y-56295238D01*
X151064457Y-56295238D02*
X151102552Y-56371428D01*
X151102552Y-56371428D02*
X151140647Y-56409523D01*
X151140647Y-56409523D02*
X151216838Y-56447619D01*
X125459695Y-98414285D02*
X125078742Y-98680952D01*
X125459695Y-98871428D02*
X124659695Y-98871428D01*
X124659695Y-98871428D02*
X124659695Y-98566666D01*
X124659695Y-98566666D02*
X124697790Y-98490476D01*
X124697790Y-98490476D02*
X124735885Y-98452381D01*
X124735885Y-98452381D02*
X124812076Y-98414285D01*
X124812076Y-98414285D02*
X124926361Y-98414285D01*
X124926361Y-98414285D02*
X125002552Y-98452381D01*
X125002552Y-98452381D02*
X125040647Y-98490476D01*
X125040647Y-98490476D02*
X125078742Y-98566666D01*
X125078742Y-98566666D02*
X125078742Y-98871428D01*
X124735885Y-98109524D02*
X124697790Y-98071428D01*
X124697790Y-98071428D02*
X124659695Y-97995238D01*
X124659695Y-97995238D02*
X124659695Y-97804762D01*
X124659695Y-97804762D02*
X124697790Y-97728571D01*
X124697790Y-97728571D02*
X124735885Y-97690476D01*
X124735885Y-97690476D02*
X124812076Y-97652381D01*
X124812076Y-97652381D02*
X124888266Y-97652381D01*
X124888266Y-97652381D02*
X125002552Y-97690476D01*
X125002552Y-97690476D02*
X125459695Y-98147619D01*
X125459695Y-98147619D02*
X125459695Y-97652381D01*
X124659695Y-97157142D02*
X124659695Y-97080952D01*
X124659695Y-97080952D02*
X124697790Y-97004761D01*
X124697790Y-97004761D02*
X124735885Y-96966666D01*
X124735885Y-96966666D02*
X124812076Y-96928571D01*
X124812076Y-96928571D02*
X124964457Y-96890476D01*
X124964457Y-96890476D02*
X125154933Y-96890476D01*
X125154933Y-96890476D02*
X125307314Y-96928571D01*
X125307314Y-96928571D02*
X125383504Y-96966666D01*
X125383504Y-96966666D02*
X125421600Y-97004761D01*
X125421600Y-97004761D02*
X125459695Y-97080952D01*
X125459695Y-97080952D02*
X125459695Y-97157142D01*
X125459695Y-97157142D02*
X125421600Y-97233333D01*
X125421600Y-97233333D02*
X125383504Y-97271428D01*
X125383504Y-97271428D02*
X125307314Y-97309523D01*
X125307314Y-97309523D02*
X125154933Y-97347619D01*
X125154933Y-97347619D02*
X124964457Y-97347619D01*
X124964457Y-97347619D02*
X124812076Y-97309523D01*
X124812076Y-97309523D02*
X124735885Y-97271428D01*
X124735885Y-97271428D02*
X124697790Y-97233333D01*
X124697790Y-97233333D02*
X124659695Y-97157142D01*
D12*
X129454167Y-71909800D02*
X129597024Y-71957419D01*
X129597024Y-71957419D02*
X129835119Y-71957419D01*
X129835119Y-71957419D02*
X129930357Y-71909800D01*
X129930357Y-71909800D02*
X129977976Y-71862180D01*
X129977976Y-71862180D02*
X130025595Y-71766942D01*
X130025595Y-71766942D02*
X130025595Y-71671704D01*
X130025595Y-71671704D02*
X129977976Y-71576466D01*
X129977976Y-71576466D02*
X129930357Y-71528847D01*
X129930357Y-71528847D02*
X129835119Y-71481228D01*
X129835119Y-71481228D02*
X129644643Y-71433609D01*
X129644643Y-71433609D02*
X129549405Y-71385990D01*
X129549405Y-71385990D02*
X129501786Y-71338371D01*
X129501786Y-71338371D02*
X129454167Y-71243133D01*
X129454167Y-71243133D02*
X129454167Y-71147895D01*
X129454167Y-71147895D02*
X129501786Y-71052657D01*
X129501786Y-71052657D02*
X129549405Y-71005038D01*
X129549405Y-71005038D02*
X129644643Y-70957419D01*
X129644643Y-70957419D02*
X129882738Y-70957419D01*
X129882738Y-70957419D02*
X130025595Y-71005038D01*
X130358929Y-70957419D02*
X130597024Y-71957419D01*
X130597024Y-71957419D02*
X130787500Y-71243133D01*
X130787500Y-71243133D02*
X130977976Y-71957419D01*
X130977976Y-71957419D02*
X131216072Y-70957419D01*
X131501786Y-70957419D02*
X132168452Y-70957419D01*
X132168452Y-70957419D02*
X131739881Y-71957419D01*
D10*
X164459695Y-69333332D02*
X164078742Y-69599999D01*
X164459695Y-69790475D02*
X163659695Y-69790475D01*
X163659695Y-69790475D02*
X163659695Y-69485713D01*
X163659695Y-69485713D02*
X163697790Y-69409523D01*
X163697790Y-69409523D02*
X163735885Y-69371428D01*
X163735885Y-69371428D02*
X163812076Y-69333332D01*
X163812076Y-69333332D02*
X163926361Y-69333332D01*
X163926361Y-69333332D02*
X164002552Y-69371428D01*
X164002552Y-69371428D02*
X164040647Y-69409523D01*
X164040647Y-69409523D02*
X164078742Y-69485713D01*
X164078742Y-69485713D02*
X164078742Y-69790475D01*
X164002552Y-68876190D02*
X163964457Y-68952380D01*
X163964457Y-68952380D02*
X163926361Y-68990475D01*
X163926361Y-68990475D02*
X163850171Y-69028571D01*
X163850171Y-69028571D02*
X163812076Y-69028571D01*
X163812076Y-69028571D02*
X163735885Y-68990475D01*
X163735885Y-68990475D02*
X163697790Y-68952380D01*
X163697790Y-68952380D02*
X163659695Y-68876190D01*
X163659695Y-68876190D02*
X163659695Y-68723809D01*
X163659695Y-68723809D02*
X163697790Y-68647618D01*
X163697790Y-68647618D02*
X163735885Y-68609523D01*
X163735885Y-68609523D02*
X163812076Y-68571428D01*
X163812076Y-68571428D02*
X163850171Y-68571428D01*
X163850171Y-68571428D02*
X163926361Y-68609523D01*
X163926361Y-68609523D02*
X163964457Y-68647618D01*
X163964457Y-68647618D02*
X164002552Y-68723809D01*
X164002552Y-68723809D02*
X164002552Y-68876190D01*
X164002552Y-68876190D02*
X164040647Y-68952380D01*
X164040647Y-68952380D02*
X164078742Y-68990475D01*
X164078742Y-68990475D02*
X164154933Y-69028571D01*
X164154933Y-69028571D02*
X164307314Y-69028571D01*
X164307314Y-69028571D02*
X164383504Y-68990475D01*
X164383504Y-68990475D02*
X164421600Y-68952380D01*
X164421600Y-68952380D02*
X164459695Y-68876190D01*
X164459695Y-68876190D02*
X164459695Y-68723809D01*
X164459695Y-68723809D02*
X164421600Y-68647618D01*
X164421600Y-68647618D02*
X164383504Y-68609523D01*
X164383504Y-68609523D02*
X164307314Y-68571428D01*
X164307314Y-68571428D02*
X164154933Y-68571428D01*
X164154933Y-68571428D02*
X164078742Y-68609523D01*
X164078742Y-68609523D02*
X164040647Y-68647618D01*
X164040647Y-68647618D02*
X164002552Y-68723809D01*
X164383504Y-74266785D02*
X164421600Y-74304881D01*
X164421600Y-74304881D02*
X164459695Y-74419166D01*
X164459695Y-74419166D02*
X164459695Y-74495357D01*
X164459695Y-74495357D02*
X164421600Y-74609643D01*
X164421600Y-74609643D02*
X164345409Y-74685833D01*
X164345409Y-74685833D02*
X164269219Y-74723928D01*
X164269219Y-74723928D02*
X164116838Y-74762024D01*
X164116838Y-74762024D02*
X164002552Y-74762024D01*
X164002552Y-74762024D02*
X163850171Y-74723928D01*
X163850171Y-74723928D02*
X163773980Y-74685833D01*
X163773980Y-74685833D02*
X163697790Y-74609643D01*
X163697790Y-74609643D02*
X163659695Y-74495357D01*
X163659695Y-74495357D02*
X163659695Y-74419166D01*
X163659695Y-74419166D02*
X163697790Y-74304881D01*
X163697790Y-74304881D02*
X163735885Y-74266785D01*
X164459695Y-73504881D02*
X164459695Y-73962024D01*
X164459695Y-73733452D02*
X163659695Y-73733452D01*
X163659695Y-73733452D02*
X163773980Y-73809643D01*
X163773980Y-73809643D02*
X163850171Y-73885833D01*
X163850171Y-73885833D02*
X163888266Y-73962024D01*
X163659695Y-73009642D02*
X163659695Y-72933452D01*
X163659695Y-72933452D02*
X163697790Y-72857261D01*
X163697790Y-72857261D02*
X163735885Y-72819166D01*
X163735885Y-72819166D02*
X163812076Y-72781071D01*
X163812076Y-72781071D02*
X163964457Y-72742976D01*
X163964457Y-72742976D02*
X164154933Y-72742976D01*
X164154933Y-72742976D02*
X164307314Y-72781071D01*
X164307314Y-72781071D02*
X164383504Y-72819166D01*
X164383504Y-72819166D02*
X164421600Y-72857261D01*
X164421600Y-72857261D02*
X164459695Y-72933452D01*
X164459695Y-72933452D02*
X164459695Y-73009642D01*
X164459695Y-73009642D02*
X164421600Y-73085833D01*
X164421600Y-73085833D02*
X164383504Y-73123928D01*
X164383504Y-73123928D02*
X164307314Y-73162023D01*
X164307314Y-73162023D02*
X164154933Y-73200119D01*
X164154933Y-73200119D02*
X163964457Y-73200119D01*
X163964457Y-73200119D02*
X163812076Y-73162023D01*
X163812076Y-73162023D02*
X163735885Y-73123928D01*
X163735885Y-73123928D02*
X163697790Y-73085833D01*
X163697790Y-73085833D02*
X163659695Y-73009642D01*
X164759695Y-93433332D02*
X164378742Y-93699999D01*
X164759695Y-93890475D02*
X163959695Y-93890475D01*
X163959695Y-93890475D02*
X163959695Y-93585713D01*
X163959695Y-93585713D02*
X163997790Y-93509523D01*
X163997790Y-93509523D02*
X164035885Y-93471428D01*
X164035885Y-93471428D02*
X164112076Y-93433332D01*
X164112076Y-93433332D02*
X164226361Y-93433332D01*
X164226361Y-93433332D02*
X164302552Y-93471428D01*
X164302552Y-93471428D02*
X164340647Y-93509523D01*
X164340647Y-93509523D02*
X164378742Y-93585713D01*
X164378742Y-93585713D02*
X164378742Y-93890475D01*
X164226361Y-92747618D02*
X164759695Y-92747618D01*
X163921600Y-92938094D02*
X164493028Y-93128571D01*
X164493028Y-93128571D02*
X164493028Y-92633332D01*
D11*
X155654819Y-121142857D02*
X155178628Y-121476190D01*
X155654819Y-121714285D02*
X154654819Y-121714285D01*
X154654819Y-121714285D02*
X154654819Y-121333333D01*
X154654819Y-121333333D02*
X154702438Y-121238095D01*
X154702438Y-121238095D02*
X154750057Y-121190476D01*
X154750057Y-121190476D02*
X154845295Y-121142857D01*
X154845295Y-121142857D02*
X154988152Y-121142857D01*
X154988152Y-121142857D02*
X155083390Y-121190476D01*
X155083390Y-121190476D02*
X155131009Y-121238095D01*
X155131009Y-121238095D02*
X155178628Y-121333333D01*
X155178628Y-121333333D02*
X155178628Y-121714285D01*
X154750057Y-120761904D02*
X154702438Y-120714285D01*
X154702438Y-120714285D02*
X154654819Y-120619047D01*
X154654819Y-120619047D02*
X154654819Y-120380952D01*
X154654819Y-120380952D02*
X154702438Y-120285714D01*
X154702438Y-120285714D02*
X154750057Y-120238095D01*
X154750057Y-120238095D02*
X154845295Y-120190476D01*
X154845295Y-120190476D02*
X154940533Y-120190476D01*
X154940533Y-120190476D02*
X155083390Y-120238095D01*
X155083390Y-120238095D02*
X155654819Y-120809523D01*
X155654819Y-120809523D02*
X155654819Y-120190476D01*
X154654819Y-119857142D02*
X154654819Y-119238095D01*
X154654819Y-119238095D02*
X155035771Y-119571428D01*
X155035771Y-119571428D02*
X155035771Y-119428571D01*
X155035771Y-119428571D02*
X155083390Y-119333333D01*
X155083390Y-119333333D02*
X155131009Y-119285714D01*
X155131009Y-119285714D02*
X155226247Y-119238095D01*
X155226247Y-119238095D02*
X155464342Y-119238095D01*
X155464342Y-119238095D02*
X155559580Y-119285714D01*
X155559580Y-119285714D02*
X155607200Y-119333333D01*
X155607200Y-119333333D02*
X155654819Y-119428571D01*
X155654819Y-119428571D02*
X155654819Y-119714285D01*
X155654819Y-119714285D02*
X155607200Y-119809523D01*
X155607200Y-119809523D02*
X155559580Y-119857142D01*
D10*
X140666667Y-111483504D02*
X140628571Y-111521600D01*
X140628571Y-111521600D02*
X140514286Y-111559695D01*
X140514286Y-111559695D02*
X140438095Y-111559695D01*
X140438095Y-111559695D02*
X140323809Y-111521600D01*
X140323809Y-111521600D02*
X140247619Y-111445409D01*
X140247619Y-111445409D02*
X140209524Y-111369219D01*
X140209524Y-111369219D02*
X140171428Y-111216838D01*
X140171428Y-111216838D02*
X140171428Y-111102552D01*
X140171428Y-111102552D02*
X140209524Y-110950171D01*
X140209524Y-110950171D02*
X140247619Y-110873980D01*
X140247619Y-110873980D02*
X140323809Y-110797790D01*
X140323809Y-110797790D02*
X140438095Y-110759695D01*
X140438095Y-110759695D02*
X140514286Y-110759695D01*
X140514286Y-110759695D02*
X140628571Y-110797790D01*
X140628571Y-110797790D02*
X140666667Y-110835885D01*
X141428571Y-111559695D02*
X140971428Y-111559695D01*
X141200000Y-111559695D02*
X141200000Y-110759695D01*
X141200000Y-110759695D02*
X141123809Y-110873980D01*
X141123809Y-110873980D02*
X141047619Y-110950171D01*
X141047619Y-110950171D02*
X140971428Y-110988266D01*
X125459695Y-119114285D02*
X125078742Y-119380952D01*
X125459695Y-119571428D02*
X124659695Y-119571428D01*
X124659695Y-119571428D02*
X124659695Y-119266666D01*
X124659695Y-119266666D02*
X124697790Y-119190476D01*
X124697790Y-119190476D02*
X124735885Y-119152381D01*
X124735885Y-119152381D02*
X124812076Y-119114285D01*
X124812076Y-119114285D02*
X124926361Y-119114285D01*
X124926361Y-119114285D02*
X125002552Y-119152381D01*
X125002552Y-119152381D02*
X125040647Y-119190476D01*
X125040647Y-119190476D02*
X125078742Y-119266666D01*
X125078742Y-119266666D02*
X125078742Y-119571428D01*
X124735885Y-118809524D02*
X124697790Y-118771428D01*
X124697790Y-118771428D02*
X124659695Y-118695238D01*
X124659695Y-118695238D02*
X124659695Y-118504762D01*
X124659695Y-118504762D02*
X124697790Y-118428571D01*
X124697790Y-118428571D02*
X124735885Y-118390476D01*
X124735885Y-118390476D02*
X124812076Y-118352381D01*
X124812076Y-118352381D02*
X124888266Y-118352381D01*
X124888266Y-118352381D02*
X125002552Y-118390476D01*
X125002552Y-118390476D02*
X125459695Y-118847619D01*
X125459695Y-118847619D02*
X125459695Y-118352381D01*
X124735885Y-118047619D02*
X124697790Y-118009523D01*
X124697790Y-118009523D02*
X124659695Y-117933333D01*
X124659695Y-117933333D02*
X124659695Y-117742857D01*
X124659695Y-117742857D02*
X124697790Y-117666666D01*
X124697790Y-117666666D02*
X124735885Y-117628571D01*
X124735885Y-117628571D02*
X124812076Y-117590476D01*
X124812076Y-117590476D02*
X124888266Y-117590476D01*
X124888266Y-117590476D02*
X125002552Y-117628571D01*
X125002552Y-117628571D02*
X125459695Y-118085714D01*
X125459695Y-118085714D02*
X125459695Y-117590476D01*
X144209524Y-95359695D02*
X144209524Y-94559695D01*
X144209524Y-94559695D02*
X144400000Y-94559695D01*
X144400000Y-94559695D02*
X144514286Y-94597790D01*
X144514286Y-94597790D02*
X144590476Y-94673980D01*
X144590476Y-94673980D02*
X144628571Y-94750171D01*
X144628571Y-94750171D02*
X144666667Y-94902552D01*
X144666667Y-94902552D02*
X144666667Y-95016838D01*
X144666667Y-95016838D02*
X144628571Y-95169219D01*
X144628571Y-95169219D02*
X144590476Y-95245409D01*
X144590476Y-95245409D02*
X144514286Y-95321600D01*
X144514286Y-95321600D02*
X144400000Y-95359695D01*
X144400000Y-95359695D02*
X144209524Y-95359695D01*
X144933333Y-94559695D02*
X145428571Y-94559695D01*
X145428571Y-94559695D02*
X145161905Y-94864457D01*
X145161905Y-94864457D02*
X145276190Y-94864457D01*
X145276190Y-94864457D02*
X145352381Y-94902552D01*
X145352381Y-94902552D02*
X145390476Y-94940647D01*
X145390476Y-94940647D02*
X145428571Y-95016838D01*
X145428571Y-95016838D02*
X145428571Y-95207314D01*
X145428571Y-95207314D02*
X145390476Y-95283504D01*
X145390476Y-95283504D02*
X145352381Y-95321600D01*
X145352381Y-95321600D02*
X145276190Y-95359695D01*
X145276190Y-95359695D02*
X145047619Y-95359695D01*
X145047619Y-95359695D02*
X144971428Y-95321600D01*
X144971428Y-95321600D02*
X144933333Y-95283504D01*
D11*
X140097080Y-122442857D02*
X140144700Y-122490476D01*
X140144700Y-122490476D02*
X140192319Y-122633333D01*
X140192319Y-122633333D02*
X140192319Y-122728571D01*
X140192319Y-122728571D02*
X140144700Y-122871428D01*
X140144700Y-122871428D02*
X140049461Y-122966666D01*
X140049461Y-122966666D02*
X139954223Y-123014285D01*
X139954223Y-123014285D02*
X139763747Y-123061904D01*
X139763747Y-123061904D02*
X139620890Y-123061904D01*
X139620890Y-123061904D02*
X139430414Y-123014285D01*
X139430414Y-123014285D02*
X139335176Y-122966666D01*
X139335176Y-122966666D02*
X139239938Y-122871428D01*
X139239938Y-122871428D02*
X139192319Y-122728571D01*
X139192319Y-122728571D02*
X139192319Y-122633333D01*
X139192319Y-122633333D02*
X139239938Y-122490476D01*
X139239938Y-122490476D02*
X139287557Y-122442857D01*
X140192319Y-121490476D02*
X140192319Y-122061904D01*
X140192319Y-121776190D02*
X139192319Y-121776190D01*
X139192319Y-121776190D02*
X139335176Y-121871428D01*
X139335176Y-121871428D02*
X139430414Y-121966666D01*
X139430414Y-121966666D02*
X139478033Y-122061904D01*
X139620890Y-120919047D02*
X139573271Y-121014285D01*
X139573271Y-121014285D02*
X139525652Y-121061904D01*
X139525652Y-121061904D02*
X139430414Y-121109523D01*
X139430414Y-121109523D02*
X139382795Y-121109523D01*
X139382795Y-121109523D02*
X139287557Y-121061904D01*
X139287557Y-121061904D02*
X139239938Y-121014285D01*
X139239938Y-121014285D02*
X139192319Y-120919047D01*
X139192319Y-120919047D02*
X139192319Y-120728571D01*
X139192319Y-120728571D02*
X139239938Y-120633333D01*
X139239938Y-120633333D02*
X139287557Y-120585714D01*
X139287557Y-120585714D02*
X139382795Y-120538095D01*
X139382795Y-120538095D02*
X139430414Y-120538095D01*
X139430414Y-120538095D02*
X139525652Y-120585714D01*
X139525652Y-120585714D02*
X139573271Y-120633333D01*
X139573271Y-120633333D02*
X139620890Y-120728571D01*
X139620890Y-120728571D02*
X139620890Y-120919047D01*
X139620890Y-120919047D02*
X139668509Y-121014285D01*
X139668509Y-121014285D02*
X139716128Y-121061904D01*
X139716128Y-121061904D02*
X139811366Y-121109523D01*
X139811366Y-121109523D02*
X140001842Y-121109523D01*
X140001842Y-121109523D02*
X140097080Y-121061904D01*
X140097080Y-121061904D02*
X140144700Y-121014285D01*
X140144700Y-121014285D02*
X140192319Y-120919047D01*
X140192319Y-120919047D02*
X140192319Y-120728571D01*
X140192319Y-120728571D02*
X140144700Y-120633333D01*
X140144700Y-120633333D02*
X140097080Y-120585714D01*
X140097080Y-120585714D02*
X140001842Y-120538095D01*
X140001842Y-120538095D02*
X139811366Y-120538095D01*
X139811366Y-120538095D02*
X139716128Y-120585714D01*
X139716128Y-120585714D02*
X139668509Y-120633333D01*
X139668509Y-120633333D02*
X139620890Y-120728571D01*
D10*
X136666667Y-110183504D02*
X136628571Y-110221600D01*
X136628571Y-110221600D02*
X136514286Y-110259695D01*
X136514286Y-110259695D02*
X136438095Y-110259695D01*
X136438095Y-110259695D02*
X136323809Y-110221600D01*
X136323809Y-110221600D02*
X136247619Y-110145409D01*
X136247619Y-110145409D02*
X136209524Y-110069219D01*
X136209524Y-110069219D02*
X136171428Y-109916838D01*
X136171428Y-109916838D02*
X136171428Y-109802552D01*
X136171428Y-109802552D02*
X136209524Y-109650171D01*
X136209524Y-109650171D02*
X136247619Y-109573980D01*
X136247619Y-109573980D02*
X136323809Y-109497790D01*
X136323809Y-109497790D02*
X136438095Y-109459695D01*
X136438095Y-109459695D02*
X136514286Y-109459695D01*
X136514286Y-109459695D02*
X136628571Y-109497790D01*
X136628571Y-109497790D02*
X136666667Y-109535885D01*
X136933333Y-109459695D02*
X137428571Y-109459695D01*
X137428571Y-109459695D02*
X137161905Y-109764457D01*
X137161905Y-109764457D02*
X137276190Y-109764457D01*
X137276190Y-109764457D02*
X137352381Y-109802552D01*
X137352381Y-109802552D02*
X137390476Y-109840647D01*
X137390476Y-109840647D02*
X137428571Y-109916838D01*
X137428571Y-109916838D02*
X137428571Y-110107314D01*
X137428571Y-110107314D02*
X137390476Y-110183504D01*
X137390476Y-110183504D02*
X137352381Y-110221600D01*
X137352381Y-110221600D02*
X137276190Y-110259695D01*
X137276190Y-110259695D02*
X137047619Y-110259695D01*
X137047619Y-110259695D02*
X136971428Y-110221600D01*
X136971428Y-110221600D02*
X136933333Y-110183504D01*
D12*
X128977976Y-116709800D02*
X129120833Y-116757419D01*
X129120833Y-116757419D02*
X129358928Y-116757419D01*
X129358928Y-116757419D02*
X129454166Y-116709800D01*
X129454166Y-116709800D02*
X129501785Y-116662180D01*
X129501785Y-116662180D02*
X129549404Y-116566942D01*
X129549404Y-116566942D02*
X129549404Y-116471704D01*
X129549404Y-116471704D02*
X129501785Y-116376466D01*
X129501785Y-116376466D02*
X129454166Y-116328847D01*
X129454166Y-116328847D02*
X129358928Y-116281228D01*
X129358928Y-116281228D02*
X129168452Y-116233609D01*
X129168452Y-116233609D02*
X129073214Y-116185990D01*
X129073214Y-116185990D02*
X129025595Y-116138371D01*
X129025595Y-116138371D02*
X128977976Y-116043133D01*
X128977976Y-116043133D02*
X128977976Y-115947895D01*
X128977976Y-115947895D02*
X129025595Y-115852657D01*
X129025595Y-115852657D02*
X129073214Y-115805038D01*
X129073214Y-115805038D02*
X129168452Y-115757419D01*
X129168452Y-115757419D02*
X129406547Y-115757419D01*
X129406547Y-115757419D02*
X129549404Y-115805038D01*
X129882738Y-115757419D02*
X130120833Y-116757419D01*
X130120833Y-116757419D02*
X130311309Y-116043133D01*
X130311309Y-116043133D02*
X130501785Y-116757419D01*
X130501785Y-116757419D02*
X130739881Y-115757419D01*
X131644642Y-116757419D02*
X131073214Y-116757419D01*
X131358928Y-116757419D02*
X131358928Y-115757419D01*
X131358928Y-115757419D02*
X131263690Y-115900276D01*
X131263690Y-115900276D02*
X131168452Y-115995514D01*
X131168452Y-115995514D02*
X131073214Y-116043133D01*
X132597023Y-116757419D02*
X132025595Y-116757419D01*
X132311309Y-116757419D02*
X132311309Y-115757419D01*
X132311309Y-115757419D02*
X132216071Y-115900276D01*
X132216071Y-115900276D02*
X132120833Y-115995514D01*
X132120833Y-115995514D02*
X132025595Y-116043133D01*
D10*
X125383504Y-114114285D02*
X125421600Y-114152381D01*
X125421600Y-114152381D02*
X125459695Y-114266666D01*
X125459695Y-114266666D02*
X125459695Y-114342857D01*
X125459695Y-114342857D02*
X125421600Y-114457143D01*
X125421600Y-114457143D02*
X125345409Y-114533333D01*
X125345409Y-114533333D02*
X125269219Y-114571428D01*
X125269219Y-114571428D02*
X125116838Y-114609524D01*
X125116838Y-114609524D02*
X125002552Y-114609524D01*
X125002552Y-114609524D02*
X124850171Y-114571428D01*
X124850171Y-114571428D02*
X124773980Y-114533333D01*
X124773980Y-114533333D02*
X124697790Y-114457143D01*
X124697790Y-114457143D02*
X124659695Y-114342857D01*
X124659695Y-114342857D02*
X124659695Y-114266666D01*
X124659695Y-114266666D02*
X124697790Y-114152381D01*
X124697790Y-114152381D02*
X124735885Y-114114285D01*
X125459695Y-113352381D02*
X125459695Y-113809524D01*
X125459695Y-113580952D02*
X124659695Y-113580952D01*
X124659695Y-113580952D02*
X124773980Y-113657143D01*
X124773980Y-113657143D02*
X124850171Y-113733333D01*
X124850171Y-113733333D02*
X124888266Y-113809524D01*
X124659695Y-113085714D02*
X124659695Y-112552380D01*
X124659695Y-112552380D02*
X125459695Y-112895238D01*
X131509524Y-120959695D02*
X131509524Y-120159695D01*
X131509524Y-120159695D02*
X131700000Y-120159695D01*
X131700000Y-120159695D02*
X131814286Y-120197790D01*
X131814286Y-120197790D02*
X131890476Y-120273980D01*
X131890476Y-120273980D02*
X131928571Y-120350171D01*
X131928571Y-120350171D02*
X131966667Y-120502552D01*
X131966667Y-120502552D02*
X131966667Y-120616838D01*
X131966667Y-120616838D02*
X131928571Y-120769219D01*
X131928571Y-120769219D02*
X131890476Y-120845409D01*
X131890476Y-120845409D02*
X131814286Y-120921600D01*
X131814286Y-120921600D02*
X131700000Y-120959695D01*
X131700000Y-120959695D02*
X131509524Y-120959695D01*
X132271428Y-120235885D02*
X132309524Y-120197790D01*
X132309524Y-120197790D02*
X132385714Y-120159695D01*
X132385714Y-120159695D02*
X132576190Y-120159695D01*
X132576190Y-120159695D02*
X132652381Y-120197790D01*
X132652381Y-120197790D02*
X132690476Y-120235885D01*
X132690476Y-120235885D02*
X132728571Y-120312076D01*
X132728571Y-120312076D02*
X132728571Y-120388266D01*
X132728571Y-120388266D02*
X132690476Y-120502552D01*
X132690476Y-120502552D02*
X132233333Y-120959695D01*
X132233333Y-120959695D02*
X132728571Y-120959695D01*
D12*
X156954167Y-107909800D02*
X157097024Y-107957419D01*
X157097024Y-107957419D02*
X157335119Y-107957419D01*
X157335119Y-107957419D02*
X157430357Y-107909800D01*
X157430357Y-107909800D02*
X157477976Y-107862180D01*
X157477976Y-107862180D02*
X157525595Y-107766942D01*
X157525595Y-107766942D02*
X157525595Y-107671704D01*
X157525595Y-107671704D02*
X157477976Y-107576466D01*
X157477976Y-107576466D02*
X157430357Y-107528847D01*
X157430357Y-107528847D02*
X157335119Y-107481228D01*
X157335119Y-107481228D02*
X157144643Y-107433609D01*
X157144643Y-107433609D02*
X157049405Y-107385990D01*
X157049405Y-107385990D02*
X157001786Y-107338371D01*
X157001786Y-107338371D02*
X156954167Y-107243133D01*
X156954167Y-107243133D02*
X156954167Y-107147895D01*
X156954167Y-107147895D02*
X157001786Y-107052657D01*
X157001786Y-107052657D02*
X157049405Y-107005038D01*
X157049405Y-107005038D02*
X157144643Y-106957419D01*
X157144643Y-106957419D02*
X157382738Y-106957419D01*
X157382738Y-106957419D02*
X157525595Y-107005038D01*
X157858929Y-106957419D02*
X158097024Y-107957419D01*
X158097024Y-107957419D02*
X158287500Y-107243133D01*
X158287500Y-107243133D02*
X158477976Y-107957419D01*
X158477976Y-107957419D02*
X158716072Y-106957419D01*
X159620833Y-107957419D02*
X159049405Y-107957419D01*
X159335119Y-107957419D02*
X159335119Y-106957419D01*
X159335119Y-106957419D02*
X159239881Y-107100276D01*
X159239881Y-107100276D02*
X159144643Y-107195514D01*
X159144643Y-107195514D02*
X159049405Y-107243133D01*
X129454167Y-83909800D02*
X129597024Y-83957419D01*
X129597024Y-83957419D02*
X129835119Y-83957419D01*
X129835119Y-83957419D02*
X129930357Y-83909800D01*
X129930357Y-83909800D02*
X129977976Y-83862180D01*
X129977976Y-83862180D02*
X130025595Y-83766942D01*
X130025595Y-83766942D02*
X130025595Y-83671704D01*
X130025595Y-83671704D02*
X129977976Y-83576466D01*
X129977976Y-83576466D02*
X129930357Y-83528847D01*
X129930357Y-83528847D02*
X129835119Y-83481228D01*
X129835119Y-83481228D02*
X129644643Y-83433609D01*
X129644643Y-83433609D02*
X129549405Y-83385990D01*
X129549405Y-83385990D02*
X129501786Y-83338371D01*
X129501786Y-83338371D02*
X129454167Y-83243133D01*
X129454167Y-83243133D02*
X129454167Y-83147895D01*
X129454167Y-83147895D02*
X129501786Y-83052657D01*
X129501786Y-83052657D02*
X129549405Y-83005038D01*
X129549405Y-83005038D02*
X129644643Y-82957419D01*
X129644643Y-82957419D02*
X129882738Y-82957419D01*
X129882738Y-82957419D02*
X130025595Y-83005038D01*
X130358929Y-82957419D02*
X130597024Y-83957419D01*
X130597024Y-83957419D02*
X130787500Y-83243133D01*
X130787500Y-83243133D02*
X130977976Y-83957419D01*
X130977976Y-83957419D02*
X131216072Y-82957419D01*
X131644643Y-83957419D02*
X131835119Y-83957419D01*
X131835119Y-83957419D02*
X131930357Y-83909800D01*
X131930357Y-83909800D02*
X131977976Y-83862180D01*
X131977976Y-83862180D02*
X132073214Y-83719323D01*
X132073214Y-83719323D02*
X132120833Y-83528847D01*
X132120833Y-83528847D02*
X132120833Y-83147895D01*
X132120833Y-83147895D02*
X132073214Y-83052657D01*
X132073214Y-83052657D02*
X132025595Y-83005038D01*
X132025595Y-83005038D02*
X131930357Y-82957419D01*
X131930357Y-82957419D02*
X131739881Y-82957419D01*
X131739881Y-82957419D02*
X131644643Y-83005038D01*
X131644643Y-83005038D02*
X131597024Y-83052657D01*
X131597024Y-83052657D02*
X131549405Y-83147895D01*
X131549405Y-83147895D02*
X131549405Y-83385990D01*
X131549405Y-83385990D02*
X131597024Y-83481228D01*
X131597024Y-83481228D02*
X131644643Y-83528847D01*
X131644643Y-83528847D02*
X131739881Y-83576466D01*
X131739881Y-83576466D02*
X131930357Y-83576466D01*
X131930357Y-83576466D02*
X132025595Y-83528847D01*
X132025595Y-83528847D02*
X132073214Y-83481228D01*
X132073214Y-83481228D02*
X132120833Y-83385990D01*
D11*
X147625595Y-121254819D02*
X147625595Y-122064342D01*
X147625595Y-122064342D02*
X147673214Y-122159580D01*
X147673214Y-122159580D02*
X147720833Y-122207200D01*
X147720833Y-122207200D02*
X147816071Y-122254819D01*
X147816071Y-122254819D02*
X148006547Y-122254819D01*
X148006547Y-122254819D02*
X148101785Y-122207200D01*
X148101785Y-122207200D02*
X148149404Y-122159580D01*
X148149404Y-122159580D02*
X148197023Y-122064342D01*
X148197023Y-122064342D02*
X148197023Y-121254819D01*
X148625595Y-121350057D02*
X148673214Y-121302438D01*
X148673214Y-121302438D02*
X148768452Y-121254819D01*
X148768452Y-121254819D02*
X149006547Y-121254819D01*
X149006547Y-121254819D02*
X149101785Y-121302438D01*
X149101785Y-121302438D02*
X149149404Y-121350057D01*
X149149404Y-121350057D02*
X149197023Y-121445295D01*
X149197023Y-121445295D02*
X149197023Y-121540533D01*
X149197023Y-121540533D02*
X149149404Y-121683390D01*
X149149404Y-121683390D02*
X148577976Y-122254819D01*
X148577976Y-122254819D02*
X149197023Y-122254819D01*
D12*
X143954167Y-71909800D02*
X144097024Y-71957419D01*
X144097024Y-71957419D02*
X144335119Y-71957419D01*
X144335119Y-71957419D02*
X144430357Y-71909800D01*
X144430357Y-71909800D02*
X144477976Y-71862180D01*
X144477976Y-71862180D02*
X144525595Y-71766942D01*
X144525595Y-71766942D02*
X144525595Y-71671704D01*
X144525595Y-71671704D02*
X144477976Y-71576466D01*
X144477976Y-71576466D02*
X144430357Y-71528847D01*
X144430357Y-71528847D02*
X144335119Y-71481228D01*
X144335119Y-71481228D02*
X144144643Y-71433609D01*
X144144643Y-71433609D02*
X144049405Y-71385990D01*
X144049405Y-71385990D02*
X144001786Y-71338371D01*
X144001786Y-71338371D02*
X143954167Y-71243133D01*
X143954167Y-71243133D02*
X143954167Y-71147895D01*
X143954167Y-71147895D02*
X144001786Y-71052657D01*
X144001786Y-71052657D02*
X144049405Y-71005038D01*
X144049405Y-71005038D02*
X144144643Y-70957419D01*
X144144643Y-70957419D02*
X144382738Y-70957419D01*
X144382738Y-70957419D02*
X144525595Y-71005038D01*
X144858929Y-70957419D02*
X145097024Y-71957419D01*
X145097024Y-71957419D02*
X145287500Y-71243133D01*
X145287500Y-71243133D02*
X145477976Y-71957419D01*
X145477976Y-71957419D02*
X145716072Y-70957419D01*
X146525595Y-70957419D02*
X146335119Y-70957419D01*
X146335119Y-70957419D02*
X146239881Y-71005038D01*
X146239881Y-71005038D02*
X146192262Y-71052657D01*
X146192262Y-71052657D02*
X146097024Y-71195514D01*
X146097024Y-71195514D02*
X146049405Y-71385990D01*
X146049405Y-71385990D02*
X146049405Y-71766942D01*
X146049405Y-71766942D02*
X146097024Y-71862180D01*
X146097024Y-71862180D02*
X146144643Y-71909800D01*
X146144643Y-71909800D02*
X146239881Y-71957419D01*
X146239881Y-71957419D02*
X146430357Y-71957419D01*
X146430357Y-71957419D02*
X146525595Y-71909800D01*
X146525595Y-71909800D02*
X146573214Y-71862180D01*
X146573214Y-71862180D02*
X146620833Y-71766942D01*
X146620833Y-71766942D02*
X146620833Y-71528847D01*
X146620833Y-71528847D02*
X146573214Y-71433609D01*
X146573214Y-71433609D02*
X146525595Y-71385990D01*
X146525595Y-71385990D02*
X146430357Y-71338371D01*
X146430357Y-71338371D02*
X146239881Y-71338371D01*
X146239881Y-71338371D02*
X146144643Y-71385990D01*
X146144643Y-71385990D02*
X146097024Y-71433609D01*
X146097024Y-71433609D02*
X146049405Y-71528847D01*
D10*
X164459695Y-105433332D02*
X164078742Y-105699999D01*
X164459695Y-105890475D02*
X163659695Y-105890475D01*
X163659695Y-105890475D02*
X163659695Y-105585713D01*
X163659695Y-105585713D02*
X163697790Y-105509523D01*
X163697790Y-105509523D02*
X163735885Y-105471428D01*
X163735885Y-105471428D02*
X163812076Y-105433332D01*
X163812076Y-105433332D02*
X163926361Y-105433332D01*
X163926361Y-105433332D02*
X164002552Y-105471428D01*
X164002552Y-105471428D02*
X164040647Y-105509523D01*
X164040647Y-105509523D02*
X164078742Y-105585713D01*
X164078742Y-105585713D02*
X164078742Y-105890475D01*
X164459695Y-104671428D02*
X164459695Y-105128571D01*
X164459695Y-104899999D02*
X163659695Y-104899999D01*
X163659695Y-104899999D02*
X163773980Y-104976190D01*
X163773980Y-104976190D02*
X163850171Y-105052380D01*
X163850171Y-105052380D02*
X163888266Y-105128571D01*
D11*
X126238095Y-63954819D02*
X126238095Y-62954819D01*
X126238095Y-63431009D02*
X126809523Y-63431009D01*
X126809523Y-63954819D02*
X126809523Y-62954819D01*
X127190476Y-62954819D02*
X127809523Y-62954819D01*
X127809523Y-62954819D02*
X127476190Y-63335771D01*
X127476190Y-63335771D02*
X127619047Y-63335771D01*
X127619047Y-63335771D02*
X127714285Y-63383390D01*
X127714285Y-63383390D02*
X127761904Y-63431009D01*
X127761904Y-63431009D02*
X127809523Y-63526247D01*
X127809523Y-63526247D02*
X127809523Y-63764342D01*
X127809523Y-63764342D02*
X127761904Y-63859580D01*
X127761904Y-63859580D02*
X127714285Y-63907200D01*
X127714285Y-63907200D02*
X127619047Y-63954819D01*
X127619047Y-63954819D02*
X127333333Y-63954819D01*
X127333333Y-63954819D02*
X127238095Y-63907200D01*
X127238095Y-63907200D02*
X127190476Y-63859580D01*
X126238095Y-126254819D02*
X126238095Y-125254819D01*
X126238095Y-125731009D02*
X126809523Y-125731009D01*
X126809523Y-126254819D02*
X126809523Y-125254819D01*
X127238095Y-125350057D02*
X127285714Y-125302438D01*
X127285714Y-125302438D02*
X127380952Y-125254819D01*
X127380952Y-125254819D02*
X127619047Y-125254819D01*
X127619047Y-125254819D02*
X127714285Y-125302438D01*
X127714285Y-125302438D02*
X127761904Y-125350057D01*
X127761904Y-125350057D02*
X127809523Y-125445295D01*
X127809523Y-125445295D02*
X127809523Y-125540533D01*
X127809523Y-125540533D02*
X127761904Y-125683390D01*
X127761904Y-125683390D02*
X127190476Y-126254819D01*
X127190476Y-126254819D02*
X127809523Y-126254819D01*
D10*
X164383504Y-85933332D02*
X164421600Y-85971428D01*
X164421600Y-85971428D02*
X164459695Y-86085713D01*
X164459695Y-86085713D02*
X164459695Y-86161904D01*
X164459695Y-86161904D02*
X164421600Y-86276190D01*
X164421600Y-86276190D02*
X164345409Y-86352380D01*
X164345409Y-86352380D02*
X164269219Y-86390475D01*
X164269219Y-86390475D02*
X164116838Y-86428571D01*
X164116838Y-86428571D02*
X164002552Y-86428571D01*
X164002552Y-86428571D02*
X163850171Y-86390475D01*
X163850171Y-86390475D02*
X163773980Y-86352380D01*
X163773980Y-86352380D02*
X163697790Y-86276190D01*
X163697790Y-86276190D02*
X163659695Y-86161904D01*
X163659695Y-86161904D02*
X163659695Y-86085713D01*
X163659695Y-86085713D02*
X163697790Y-85971428D01*
X163697790Y-85971428D02*
X163735885Y-85933332D01*
X164459695Y-85552380D02*
X164459695Y-85399999D01*
X164459695Y-85399999D02*
X164421600Y-85323809D01*
X164421600Y-85323809D02*
X164383504Y-85285713D01*
X164383504Y-85285713D02*
X164269219Y-85209523D01*
X164269219Y-85209523D02*
X164116838Y-85171428D01*
X164116838Y-85171428D02*
X163812076Y-85171428D01*
X163812076Y-85171428D02*
X163735885Y-85209523D01*
X163735885Y-85209523D02*
X163697790Y-85247618D01*
X163697790Y-85247618D02*
X163659695Y-85323809D01*
X163659695Y-85323809D02*
X163659695Y-85476190D01*
X163659695Y-85476190D02*
X163697790Y-85552380D01*
X163697790Y-85552380D02*
X163735885Y-85590475D01*
X163735885Y-85590475D02*
X163812076Y-85628571D01*
X163812076Y-85628571D02*
X164002552Y-85628571D01*
X164002552Y-85628571D02*
X164078742Y-85590475D01*
X164078742Y-85590475D02*
X164116838Y-85552380D01*
X164116838Y-85552380D02*
X164154933Y-85476190D01*
X164154933Y-85476190D02*
X164154933Y-85323809D01*
X164154933Y-85323809D02*
X164116838Y-85247618D01*
X164116838Y-85247618D02*
X164078742Y-85209523D01*
X164078742Y-85209523D02*
X164002552Y-85171428D01*
D12*
X143954167Y-83909800D02*
X144097024Y-83957419D01*
X144097024Y-83957419D02*
X144335119Y-83957419D01*
X144335119Y-83957419D02*
X144430357Y-83909800D01*
X144430357Y-83909800D02*
X144477976Y-83862180D01*
X144477976Y-83862180D02*
X144525595Y-83766942D01*
X144525595Y-83766942D02*
X144525595Y-83671704D01*
X144525595Y-83671704D02*
X144477976Y-83576466D01*
X144477976Y-83576466D02*
X144430357Y-83528847D01*
X144430357Y-83528847D02*
X144335119Y-83481228D01*
X144335119Y-83481228D02*
X144144643Y-83433609D01*
X144144643Y-83433609D02*
X144049405Y-83385990D01*
X144049405Y-83385990D02*
X144001786Y-83338371D01*
X144001786Y-83338371D02*
X143954167Y-83243133D01*
X143954167Y-83243133D02*
X143954167Y-83147895D01*
X143954167Y-83147895D02*
X144001786Y-83052657D01*
X144001786Y-83052657D02*
X144049405Y-83005038D01*
X144049405Y-83005038D02*
X144144643Y-82957419D01*
X144144643Y-82957419D02*
X144382738Y-82957419D01*
X144382738Y-82957419D02*
X144525595Y-83005038D01*
X144858929Y-82957419D02*
X145097024Y-83957419D01*
X145097024Y-83957419D02*
X145287500Y-83243133D01*
X145287500Y-83243133D02*
X145477976Y-83957419D01*
X145477976Y-83957419D02*
X145716072Y-82957419D01*
X146573214Y-82957419D02*
X146097024Y-82957419D01*
X146097024Y-82957419D02*
X146049405Y-83433609D01*
X146049405Y-83433609D02*
X146097024Y-83385990D01*
X146097024Y-83385990D02*
X146192262Y-83338371D01*
X146192262Y-83338371D02*
X146430357Y-83338371D01*
X146430357Y-83338371D02*
X146525595Y-83385990D01*
X146525595Y-83385990D02*
X146573214Y-83433609D01*
X146573214Y-83433609D02*
X146620833Y-83528847D01*
X146620833Y-83528847D02*
X146620833Y-83766942D01*
X146620833Y-83766942D02*
X146573214Y-83862180D01*
X146573214Y-83862180D02*
X146525595Y-83909800D01*
X146525595Y-83909800D02*
X146430357Y-83957419D01*
X146430357Y-83957419D02*
X146192262Y-83957419D01*
X146192262Y-83957419D02*
X146097024Y-83909800D01*
X146097024Y-83909800D02*
X146049405Y-83862180D01*
D10*
X164459695Y-71533332D02*
X164078742Y-71799999D01*
X164459695Y-71990475D02*
X163659695Y-71990475D01*
X163659695Y-71990475D02*
X163659695Y-71685713D01*
X163659695Y-71685713D02*
X163697790Y-71609523D01*
X163697790Y-71609523D02*
X163735885Y-71571428D01*
X163735885Y-71571428D02*
X163812076Y-71533332D01*
X163812076Y-71533332D02*
X163926361Y-71533332D01*
X163926361Y-71533332D02*
X164002552Y-71571428D01*
X164002552Y-71571428D02*
X164040647Y-71609523D01*
X164040647Y-71609523D02*
X164078742Y-71685713D01*
X164078742Y-71685713D02*
X164078742Y-71990475D01*
X163659695Y-71266666D02*
X163659695Y-70733332D01*
X163659695Y-70733332D02*
X164459695Y-71076190D01*
X151483504Y-62814285D02*
X151521600Y-62852381D01*
X151521600Y-62852381D02*
X151559695Y-62966666D01*
X151559695Y-62966666D02*
X151559695Y-63042857D01*
X151559695Y-63042857D02*
X151521600Y-63157143D01*
X151521600Y-63157143D02*
X151445409Y-63233333D01*
X151445409Y-63233333D02*
X151369219Y-63271428D01*
X151369219Y-63271428D02*
X151216838Y-63309524D01*
X151216838Y-63309524D02*
X151102552Y-63309524D01*
X151102552Y-63309524D02*
X150950171Y-63271428D01*
X150950171Y-63271428D02*
X150873980Y-63233333D01*
X150873980Y-63233333D02*
X150797790Y-63157143D01*
X150797790Y-63157143D02*
X150759695Y-63042857D01*
X150759695Y-63042857D02*
X150759695Y-62966666D01*
X150759695Y-62966666D02*
X150797790Y-62852381D01*
X150797790Y-62852381D02*
X150835885Y-62814285D01*
X151559695Y-62052381D02*
X151559695Y-62509524D01*
X151559695Y-62280952D02*
X150759695Y-62280952D01*
X150759695Y-62280952D02*
X150873980Y-62357143D01*
X150873980Y-62357143D02*
X150950171Y-62433333D01*
X150950171Y-62433333D02*
X150988266Y-62509524D01*
X151026361Y-61366666D02*
X151559695Y-61366666D01*
X150721600Y-61557142D02*
X151293028Y-61747619D01*
X151293028Y-61747619D02*
X151293028Y-61252380D01*
D11*
X136662319Y-105761904D02*
X137471842Y-105761904D01*
X137471842Y-105761904D02*
X137567080Y-105714285D01*
X137567080Y-105714285D02*
X137614700Y-105666666D01*
X137614700Y-105666666D02*
X137662319Y-105571428D01*
X137662319Y-105571428D02*
X137662319Y-105380952D01*
X137662319Y-105380952D02*
X137614700Y-105285714D01*
X137614700Y-105285714D02*
X137567080Y-105238095D01*
X137567080Y-105238095D02*
X137471842Y-105190476D01*
X137471842Y-105190476D02*
X136662319Y-105190476D01*
X137662319Y-104190476D02*
X137662319Y-104761904D01*
X137662319Y-104476190D02*
X136662319Y-104476190D01*
X136662319Y-104476190D02*
X136805176Y-104571428D01*
X136805176Y-104571428D02*
X136900414Y-104666666D01*
X136900414Y-104666666D02*
X136948033Y-104761904D01*
D10*
X125359695Y-71864285D02*
X124978742Y-72130952D01*
X125359695Y-72321428D02*
X124559695Y-72321428D01*
X124559695Y-72321428D02*
X124559695Y-72016666D01*
X124559695Y-72016666D02*
X124597790Y-71940476D01*
X124597790Y-71940476D02*
X124635885Y-71902381D01*
X124635885Y-71902381D02*
X124712076Y-71864285D01*
X124712076Y-71864285D02*
X124826361Y-71864285D01*
X124826361Y-71864285D02*
X124902552Y-71902381D01*
X124902552Y-71902381D02*
X124940647Y-71940476D01*
X124940647Y-71940476D02*
X124978742Y-72016666D01*
X124978742Y-72016666D02*
X124978742Y-72321428D01*
X125359695Y-71102381D02*
X125359695Y-71559524D01*
X125359695Y-71330952D02*
X124559695Y-71330952D01*
X124559695Y-71330952D02*
X124673980Y-71407143D01*
X124673980Y-71407143D02*
X124750171Y-71483333D01*
X124750171Y-71483333D02*
X124788266Y-71559524D01*
X124559695Y-70835714D02*
X124559695Y-70340476D01*
X124559695Y-70340476D02*
X124864457Y-70607142D01*
X124864457Y-70607142D02*
X124864457Y-70492857D01*
X124864457Y-70492857D02*
X124902552Y-70416666D01*
X124902552Y-70416666D02*
X124940647Y-70378571D01*
X124940647Y-70378571D02*
X125016838Y-70340476D01*
X125016838Y-70340476D02*
X125207314Y-70340476D01*
X125207314Y-70340476D02*
X125283504Y-70378571D01*
X125283504Y-70378571D02*
X125321600Y-70416666D01*
X125321600Y-70416666D02*
X125359695Y-70492857D01*
X125359695Y-70492857D02*
X125359695Y-70721428D01*
X125359695Y-70721428D02*
X125321600Y-70797619D01*
X125321600Y-70797619D02*
X125283504Y-70835714D01*
X125459695Y-95814285D02*
X125078742Y-96080952D01*
X125459695Y-96271428D02*
X124659695Y-96271428D01*
X124659695Y-96271428D02*
X124659695Y-95966666D01*
X124659695Y-95966666D02*
X124697790Y-95890476D01*
X124697790Y-95890476D02*
X124735885Y-95852381D01*
X124735885Y-95852381D02*
X124812076Y-95814285D01*
X124812076Y-95814285D02*
X124926361Y-95814285D01*
X124926361Y-95814285D02*
X125002552Y-95852381D01*
X125002552Y-95852381D02*
X125040647Y-95890476D01*
X125040647Y-95890476D02*
X125078742Y-95966666D01*
X125078742Y-95966666D02*
X125078742Y-96271428D01*
X125459695Y-95052381D02*
X125459695Y-95509524D01*
X125459695Y-95280952D02*
X124659695Y-95280952D01*
X124659695Y-95280952D02*
X124773980Y-95357143D01*
X124773980Y-95357143D02*
X124850171Y-95433333D01*
X124850171Y-95433333D02*
X124888266Y-95509524D01*
X125459695Y-94671428D02*
X125459695Y-94519047D01*
X125459695Y-94519047D02*
X125421600Y-94442857D01*
X125421600Y-94442857D02*
X125383504Y-94404761D01*
X125383504Y-94404761D02*
X125269219Y-94328571D01*
X125269219Y-94328571D02*
X125116838Y-94290476D01*
X125116838Y-94290476D02*
X124812076Y-94290476D01*
X124812076Y-94290476D02*
X124735885Y-94328571D01*
X124735885Y-94328571D02*
X124697790Y-94366666D01*
X124697790Y-94366666D02*
X124659695Y-94442857D01*
X124659695Y-94442857D02*
X124659695Y-94595238D01*
X124659695Y-94595238D02*
X124697790Y-94671428D01*
X124697790Y-94671428D02*
X124735885Y-94709523D01*
X124735885Y-94709523D02*
X124812076Y-94747619D01*
X124812076Y-94747619D02*
X125002552Y-94747619D01*
X125002552Y-94747619D02*
X125078742Y-94709523D01*
X125078742Y-94709523D02*
X125116838Y-94671428D01*
X125116838Y-94671428D02*
X125154933Y-94595238D01*
X125154933Y-94595238D02*
X125154933Y-94442857D01*
X125154933Y-94442857D02*
X125116838Y-94366666D01*
X125116838Y-94366666D02*
X125078742Y-94328571D01*
X125078742Y-94328571D02*
X125002552Y-94290476D01*
X151259695Y-72114285D02*
X150878742Y-72380952D01*
X151259695Y-72571428D02*
X150459695Y-72571428D01*
X150459695Y-72571428D02*
X150459695Y-72266666D01*
X150459695Y-72266666D02*
X150497790Y-72190476D01*
X150497790Y-72190476D02*
X150535885Y-72152381D01*
X150535885Y-72152381D02*
X150612076Y-72114285D01*
X150612076Y-72114285D02*
X150726361Y-72114285D01*
X150726361Y-72114285D02*
X150802552Y-72152381D01*
X150802552Y-72152381D02*
X150840647Y-72190476D01*
X150840647Y-72190476D02*
X150878742Y-72266666D01*
X150878742Y-72266666D02*
X150878742Y-72571428D01*
X151259695Y-71352381D02*
X151259695Y-71809524D01*
X151259695Y-71580952D02*
X150459695Y-71580952D01*
X150459695Y-71580952D02*
X150573980Y-71657143D01*
X150573980Y-71657143D02*
X150650171Y-71733333D01*
X150650171Y-71733333D02*
X150688266Y-71809524D01*
X151259695Y-70590476D02*
X151259695Y-71047619D01*
X151259695Y-70819047D02*
X150459695Y-70819047D01*
X150459695Y-70819047D02*
X150573980Y-70895238D01*
X150573980Y-70895238D02*
X150650171Y-70971428D01*
X150650171Y-70971428D02*
X150688266Y-71047619D01*
X151559695Y-60161785D02*
X151178742Y-60428452D01*
X151559695Y-60618928D02*
X150759695Y-60618928D01*
X150759695Y-60618928D02*
X150759695Y-60314166D01*
X150759695Y-60314166D02*
X150797790Y-60237976D01*
X150797790Y-60237976D02*
X150835885Y-60199881D01*
X150835885Y-60199881D02*
X150912076Y-60161785D01*
X150912076Y-60161785D02*
X151026361Y-60161785D01*
X151026361Y-60161785D02*
X151102552Y-60199881D01*
X151102552Y-60199881D02*
X151140647Y-60237976D01*
X151140647Y-60237976D02*
X151178742Y-60314166D01*
X151178742Y-60314166D02*
X151178742Y-60618928D01*
X151559695Y-59399881D02*
X151559695Y-59857024D01*
X151559695Y-59628452D02*
X150759695Y-59628452D01*
X150759695Y-59628452D02*
X150873980Y-59704643D01*
X150873980Y-59704643D02*
X150950171Y-59780833D01*
X150950171Y-59780833D02*
X150988266Y-59857024D01*
X150759695Y-58676071D02*
X150759695Y-59057023D01*
X150759695Y-59057023D02*
X151140647Y-59095119D01*
X151140647Y-59095119D02*
X151102552Y-59057023D01*
X151102552Y-59057023D02*
X151064457Y-58980833D01*
X151064457Y-58980833D02*
X151064457Y-58790357D01*
X151064457Y-58790357D02*
X151102552Y-58714166D01*
X151102552Y-58714166D02*
X151140647Y-58676071D01*
X151140647Y-58676071D02*
X151216838Y-58637976D01*
X151216838Y-58637976D02*
X151407314Y-58637976D01*
X151407314Y-58637976D02*
X151483504Y-58676071D01*
X151483504Y-58676071D02*
X151521600Y-58714166D01*
X151521600Y-58714166D02*
X151559695Y-58790357D01*
X151559695Y-58790357D02*
X151559695Y-58980833D01*
X151559695Y-58980833D02*
X151521600Y-59057023D01*
X151521600Y-59057023D02*
X151483504Y-59095119D01*
X125359695Y-74414285D02*
X124978742Y-74680952D01*
X125359695Y-74871428D02*
X124559695Y-74871428D01*
X124559695Y-74871428D02*
X124559695Y-74566666D01*
X124559695Y-74566666D02*
X124597790Y-74490476D01*
X124597790Y-74490476D02*
X124635885Y-74452381D01*
X124635885Y-74452381D02*
X124712076Y-74414285D01*
X124712076Y-74414285D02*
X124826361Y-74414285D01*
X124826361Y-74414285D02*
X124902552Y-74452381D01*
X124902552Y-74452381D02*
X124940647Y-74490476D01*
X124940647Y-74490476D02*
X124978742Y-74566666D01*
X124978742Y-74566666D02*
X124978742Y-74871428D01*
X125359695Y-73652381D02*
X125359695Y-74109524D01*
X125359695Y-73880952D02*
X124559695Y-73880952D01*
X124559695Y-73880952D02*
X124673980Y-73957143D01*
X124673980Y-73957143D02*
X124750171Y-74033333D01*
X124750171Y-74033333D02*
X124788266Y-74109524D01*
X124826361Y-72966666D02*
X125359695Y-72966666D01*
X124521600Y-73157142D02*
X125093028Y-73347619D01*
X125093028Y-73347619D02*
X125093028Y-72852380D01*
D11*
X161238095Y-126254819D02*
X161238095Y-125254819D01*
X161238095Y-125731009D02*
X161809523Y-125731009D01*
X161809523Y-126254819D02*
X161809523Y-125254819D01*
X162714285Y-125588152D02*
X162714285Y-126254819D01*
X162476190Y-125207200D02*
X162238095Y-125921485D01*
X162238095Y-125921485D02*
X162857142Y-125921485D01*
X140066667Y-127786104D02*
X140028571Y-127824200D01*
X140028571Y-127824200D02*
X139914286Y-127862295D01*
X139914286Y-127862295D02*
X139838095Y-127862295D01*
X139838095Y-127862295D02*
X139723809Y-127824200D01*
X139723809Y-127824200D02*
X139647619Y-127748009D01*
X139647619Y-127748009D02*
X139609524Y-127671819D01*
X139609524Y-127671819D02*
X139571428Y-127519438D01*
X139571428Y-127519438D02*
X139571428Y-127405152D01*
X139571428Y-127405152D02*
X139609524Y-127252771D01*
X139609524Y-127252771D02*
X139647619Y-127176580D01*
X139647619Y-127176580D02*
X139723809Y-127100390D01*
X139723809Y-127100390D02*
X139838095Y-127062295D01*
X139838095Y-127062295D02*
X139914286Y-127062295D01*
X139914286Y-127062295D02*
X140028571Y-127100390D01*
X140028571Y-127100390D02*
X140066667Y-127138485D01*
X140790476Y-127062295D02*
X140409524Y-127062295D01*
X140409524Y-127062295D02*
X140371428Y-127443247D01*
X140371428Y-127443247D02*
X140409524Y-127405152D01*
X140409524Y-127405152D02*
X140485714Y-127367057D01*
X140485714Y-127367057D02*
X140676190Y-127367057D01*
X140676190Y-127367057D02*
X140752381Y-127405152D01*
X140752381Y-127405152D02*
X140790476Y-127443247D01*
X140790476Y-127443247D02*
X140828571Y-127519438D01*
X140828571Y-127519438D02*
X140828571Y-127709914D01*
X140828571Y-127709914D02*
X140790476Y-127786104D01*
X140790476Y-127786104D02*
X140752381Y-127824200D01*
X140752381Y-127824200D02*
X140676190Y-127862295D01*
X140676190Y-127862295D02*
X140485714Y-127862295D01*
X140485714Y-127862295D02*
X140409524Y-127824200D01*
X140409524Y-127824200D02*
X140371428Y-127786104D01*
X153704166Y-127454819D02*
X153704166Y-128169104D01*
X153704166Y-128169104D02*
X153656547Y-128311961D01*
X153656547Y-128311961D02*
X153561309Y-128407200D01*
X153561309Y-128407200D02*
X153418452Y-128454819D01*
X153418452Y-128454819D02*
X153323214Y-128454819D01*
X154704166Y-128454819D02*
X154132738Y-128454819D01*
X154418452Y-128454819D02*
X154418452Y-127454819D01*
X154418452Y-127454819D02*
X154323214Y-127597676D01*
X154323214Y-127597676D02*
X154227976Y-127692914D01*
X154227976Y-127692914D02*
X154132738Y-127740533D01*
D10*
X150983504Y-86714285D02*
X151021600Y-86752381D01*
X151021600Y-86752381D02*
X151059695Y-86866666D01*
X151059695Y-86866666D02*
X151059695Y-86942857D01*
X151059695Y-86942857D02*
X151021600Y-87057143D01*
X151021600Y-87057143D02*
X150945409Y-87133333D01*
X150945409Y-87133333D02*
X150869219Y-87171428D01*
X150869219Y-87171428D02*
X150716838Y-87209524D01*
X150716838Y-87209524D02*
X150602552Y-87209524D01*
X150602552Y-87209524D02*
X150450171Y-87171428D01*
X150450171Y-87171428D02*
X150373980Y-87133333D01*
X150373980Y-87133333D02*
X150297790Y-87057143D01*
X150297790Y-87057143D02*
X150259695Y-86942857D01*
X150259695Y-86942857D02*
X150259695Y-86866666D01*
X150259695Y-86866666D02*
X150297790Y-86752381D01*
X150297790Y-86752381D02*
X150335885Y-86714285D01*
X151059695Y-85952381D02*
X151059695Y-86409524D01*
X151059695Y-86180952D02*
X150259695Y-86180952D01*
X150259695Y-86180952D02*
X150373980Y-86257143D01*
X150373980Y-86257143D02*
X150450171Y-86333333D01*
X150450171Y-86333333D02*
X150488266Y-86409524D01*
X151059695Y-85190476D02*
X151059695Y-85647619D01*
X151059695Y-85419047D02*
X150259695Y-85419047D01*
X150259695Y-85419047D02*
X150373980Y-85495238D01*
X150373980Y-85495238D02*
X150450171Y-85571428D01*
X150450171Y-85571428D02*
X150488266Y-85647619D01*
X164683504Y-97933332D02*
X164721600Y-97971428D01*
X164721600Y-97971428D02*
X164759695Y-98085713D01*
X164759695Y-98085713D02*
X164759695Y-98161904D01*
X164759695Y-98161904D02*
X164721600Y-98276190D01*
X164721600Y-98276190D02*
X164645409Y-98352380D01*
X164645409Y-98352380D02*
X164569219Y-98390475D01*
X164569219Y-98390475D02*
X164416838Y-98428571D01*
X164416838Y-98428571D02*
X164302552Y-98428571D01*
X164302552Y-98428571D02*
X164150171Y-98390475D01*
X164150171Y-98390475D02*
X164073980Y-98352380D01*
X164073980Y-98352380D02*
X163997790Y-98276190D01*
X163997790Y-98276190D02*
X163959695Y-98161904D01*
X163959695Y-98161904D02*
X163959695Y-98085713D01*
X163959695Y-98085713D02*
X163997790Y-97971428D01*
X163997790Y-97971428D02*
X164035885Y-97933332D01*
X164302552Y-97476190D02*
X164264457Y-97552380D01*
X164264457Y-97552380D02*
X164226361Y-97590475D01*
X164226361Y-97590475D02*
X164150171Y-97628571D01*
X164150171Y-97628571D02*
X164112076Y-97628571D01*
X164112076Y-97628571D02*
X164035885Y-97590475D01*
X164035885Y-97590475D02*
X163997790Y-97552380D01*
X163997790Y-97552380D02*
X163959695Y-97476190D01*
X163959695Y-97476190D02*
X163959695Y-97323809D01*
X163959695Y-97323809D02*
X163997790Y-97247618D01*
X163997790Y-97247618D02*
X164035885Y-97209523D01*
X164035885Y-97209523D02*
X164112076Y-97171428D01*
X164112076Y-97171428D02*
X164150171Y-97171428D01*
X164150171Y-97171428D02*
X164226361Y-97209523D01*
X164226361Y-97209523D02*
X164264457Y-97247618D01*
X164264457Y-97247618D02*
X164302552Y-97323809D01*
X164302552Y-97323809D02*
X164302552Y-97476190D01*
X164302552Y-97476190D02*
X164340647Y-97552380D01*
X164340647Y-97552380D02*
X164378742Y-97590475D01*
X164378742Y-97590475D02*
X164454933Y-97628571D01*
X164454933Y-97628571D02*
X164607314Y-97628571D01*
X164607314Y-97628571D02*
X164683504Y-97590475D01*
X164683504Y-97590475D02*
X164721600Y-97552380D01*
X164721600Y-97552380D02*
X164759695Y-97476190D01*
X164759695Y-97476190D02*
X164759695Y-97323809D01*
X164759695Y-97323809D02*
X164721600Y-97247618D01*
X164721600Y-97247618D02*
X164683504Y-97209523D01*
X164683504Y-97209523D02*
X164607314Y-97171428D01*
X164607314Y-97171428D02*
X164454933Y-97171428D01*
X164454933Y-97171428D02*
X164378742Y-97209523D01*
X164378742Y-97209523D02*
X164340647Y-97247618D01*
X164340647Y-97247618D02*
X164302552Y-97323809D01*
X144409524Y-91059695D02*
X144409524Y-90259695D01*
X144409524Y-90259695D02*
X144600000Y-90259695D01*
X144600000Y-90259695D02*
X144714286Y-90297790D01*
X144714286Y-90297790D02*
X144790476Y-90373980D01*
X144790476Y-90373980D02*
X144828571Y-90450171D01*
X144828571Y-90450171D02*
X144866667Y-90602552D01*
X144866667Y-90602552D02*
X144866667Y-90716838D01*
X144866667Y-90716838D02*
X144828571Y-90869219D01*
X144828571Y-90869219D02*
X144790476Y-90945409D01*
X144790476Y-90945409D02*
X144714286Y-91021600D01*
X144714286Y-91021600D02*
X144600000Y-91059695D01*
X144600000Y-91059695D02*
X144409524Y-91059695D01*
X145552381Y-90526361D02*
X145552381Y-91059695D01*
X145361905Y-90221600D02*
X145171428Y-90793028D01*
X145171428Y-90793028D02*
X145666667Y-90793028D01*
X131509524Y-125359695D02*
X131509524Y-124559695D01*
X131509524Y-124559695D02*
X131700000Y-124559695D01*
X131700000Y-124559695D02*
X131814286Y-124597790D01*
X131814286Y-124597790D02*
X131890476Y-124673980D01*
X131890476Y-124673980D02*
X131928571Y-124750171D01*
X131928571Y-124750171D02*
X131966667Y-124902552D01*
X131966667Y-124902552D02*
X131966667Y-125016838D01*
X131966667Y-125016838D02*
X131928571Y-125169219D01*
X131928571Y-125169219D02*
X131890476Y-125245409D01*
X131890476Y-125245409D02*
X131814286Y-125321600D01*
X131814286Y-125321600D02*
X131700000Y-125359695D01*
X131700000Y-125359695D02*
X131509524Y-125359695D01*
X132728571Y-125359695D02*
X132271428Y-125359695D01*
X132500000Y-125359695D02*
X132500000Y-124559695D01*
X132500000Y-124559695D02*
X132423809Y-124673980D01*
X132423809Y-124673980D02*
X132347619Y-124750171D01*
X132347619Y-124750171D02*
X132271428Y-124788266D01*
X164459695Y-107733332D02*
X164078742Y-107999999D01*
X164459695Y-108190475D02*
X163659695Y-108190475D01*
X163659695Y-108190475D02*
X163659695Y-107885713D01*
X163659695Y-107885713D02*
X163697790Y-107809523D01*
X163697790Y-107809523D02*
X163735885Y-107771428D01*
X163735885Y-107771428D02*
X163812076Y-107733332D01*
X163812076Y-107733332D02*
X163926361Y-107733332D01*
X163926361Y-107733332D02*
X164002552Y-107771428D01*
X164002552Y-107771428D02*
X164040647Y-107809523D01*
X164040647Y-107809523D02*
X164078742Y-107885713D01*
X164078742Y-107885713D02*
X164078742Y-108190475D01*
X163735885Y-107428571D02*
X163697790Y-107390475D01*
X163697790Y-107390475D02*
X163659695Y-107314285D01*
X163659695Y-107314285D02*
X163659695Y-107123809D01*
X163659695Y-107123809D02*
X163697790Y-107047618D01*
X163697790Y-107047618D02*
X163735885Y-107009523D01*
X163735885Y-107009523D02*
X163812076Y-106971428D01*
X163812076Y-106971428D02*
X163888266Y-106971428D01*
X163888266Y-106971428D02*
X164002552Y-107009523D01*
X164002552Y-107009523D02*
X164459695Y-107466666D01*
X164459695Y-107466666D02*
X164459695Y-106971428D01*
D13*
X147078571Y-94824809D02*
X146911905Y-94586714D01*
X146792857Y-94824809D02*
X146792857Y-94324809D01*
X146792857Y-94324809D02*
X146983333Y-94324809D01*
X146983333Y-94324809D02*
X147030952Y-94348619D01*
X147030952Y-94348619D02*
X147054762Y-94372428D01*
X147054762Y-94372428D02*
X147078571Y-94420047D01*
X147078571Y-94420047D02*
X147078571Y-94491476D01*
X147078571Y-94491476D02*
X147054762Y-94539095D01*
X147054762Y-94539095D02*
X147030952Y-94562904D01*
X147030952Y-94562904D02*
X146983333Y-94586714D01*
X146983333Y-94586714D02*
X146792857Y-94586714D01*
X147269048Y-94372428D02*
X147292857Y-94348619D01*
X147292857Y-94348619D02*
X147340476Y-94324809D01*
X147340476Y-94324809D02*
X147459524Y-94324809D01*
X147459524Y-94324809D02*
X147507143Y-94348619D01*
X147507143Y-94348619D02*
X147530952Y-94372428D01*
X147530952Y-94372428D02*
X147554762Y-94420047D01*
X147554762Y-94420047D02*
X147554762Y-94467666D01*
X147554762Y-94467666D02*
X147530952Y-94539095D01*
X147530952Y-94539095D02*
X147245238Y-94824809D01*
X147245238Y-94824809D02*
X147554762Y-94824809D01*
X147721428Y-94324809D02*
X148054761Y-94324809D01*
X148054761Y-94324809D02*
X147840476Y-94824809D01*
D10*
X125559695Y-84014285D02*
X125178742Y-84280952D01*
X125559695Y-84471428D02*
X124759695Y-84471428D01*
X124759695Y-84471428D02*
X124759695Y-84166666D01*
X124759695Y-84166666D02*
X124797790Y-84090476D01*
X124797790Y-84090476D02*
X124835885Y-84052381D01*
X124835885Y-84052381D02*
X124912076Y-84014285D01*
X124912076Y-84014285D02*
X125026361Y-84014285D01*
X125026361Y-84014285D02*
X125102552Y-84052381D01*
X125102552Y-84052381D02*
X125140647Y-84090476D01*
X125140647Y-84090476D02*
X125178742Y-84166666D01*
X125178742Y-84166666D02*
X125178742Y-84471428D01*
X125559695Y-83252381D02*
X125559695Y-83709524D01*
X125559695Y-83480952D02*
X124759695Y-83480952D01*
X124759695Y-83480952D02*
X124873980Y-83557143D01*
X124873980Y-83557143D02*
X124950171Y-83633333D01*
X124950171Y-83633333D02*
X124988266Y-83709524D01*
X124759695Y-82985714D02*
X124759695Y-82452380D01*
X124759695Y-82452380D02*
X125559695Y-82795238D01*
D14*
%TO.C,C16*%
X135927500Y-93315835D02*
X135927500Y-93084165D01*
X136647500Y-93315835D02*
X136647500Y-93084165D01*
%TO.C,C6*%
X148440000Y-103484165D02*
X148440000Y-103715835D01*
X149160000Y-103484165D02*
X149160000Y-103715835D01*
%TO.C,R5*%
X152407500Y-83765121D02*
X152407500Y-83429879D01*
X153167500Y-83765121D02*
X153167500Y-83429879D01*
%TO.C,R10*%
X139407500Y-81179879D02*
X139407500Y-81515121D01*
X140167500Y-81179879D02*
X140167500Y-81515121D01*
%TO.C,SW4*%
X155057500Y-68320000D02*
X161517500Y-68320000D01*
X155057500Y-68350000D02*
X155057500Y-68320000D01*
X155057500Y-70250000D02*
X155057500Y-72850000D01*
X155057500Y-74780000D02*
X155057500Y-74750000D01*
X155057500Y-74780000D02*
X161517500Y-74780000D01*
X161517500Y-68320000D02*
X161517500Y-68350000D01*
X161517500Y-70250000D02*
X161517500Y-72850000D01*
X161517500Y-74780000D02*
X161517500Y-74750000D01*
%TO.C,J3*%
X160177500Y-111840000D02*
X160177500Y-114340000D01*
X160477500Y-112140000D02*
X160477500Y-124860000D01*
X160477500Y-124860000D02*
X164497500Y-124860000D01*
X161977500Y-112140000D02*
X161977500Y-113140000D01*
X161977500Y-113140000D02*
X160477500Y-113140000D01*
X161977500Y-123860000D02*
X160477500Y-123860000D01*
X161977500Y-124860000D02*
X161977500Y-123860000D01*
X162677500Y-111840000D02*
X160177500Y-111840000D01*
X162787500Y-112140000D02*
X162787500Y-112640000D01*
X162787500Y-112640000D02*
X163997500Y-112640000D01*
X162787500Y-124360000D02*
X162787500Y-124860000D01*
X163997500Y-112640000D02*
X163997500Y-124360000D01*
X163997500Y-124360000D02*
X162787500Y-124360000D01*
X164497500Y-112140000D02*
X160477500Y-112140000D01*
X164497500Y-124860000D02*
X164497500Y-112140000D01*
%TO.C,R18*%
X135907500Y-85852621D02*
X135907500Y-85517379D01*
X136667500Y-85852621D02*
X136667500Y-85517379D01*
%TO.C,R12*%
X139407500Y-69232379D02*
X139407500Y-69567621D01*
X140167500Y-69232379D02*
X140167500Y-69567621D01*
%TO.C,C2*%
X142227500Y-111616665D02*
X142227500Y-111848335D01*
X142947500Y-111616665D02*
X142947500Y-111848335D01*
%TO.C,R9*%
X139407500Y-83765121D02*
X139407500Y-83429879D01*
X140167500Y-83765121D02*
X140167500Y-83429879D01*
%TO.C,C13*%
X135927500Y-69315835D02*
X135927500Y-69084165D01*
X136647500Y-69315835D02*
X136647500Y-69084165D01*
%TO.C,SW3*%
X155057500Y-80320000D02*
X161517500Y-80320000D01*
X155057500Y-80350000D02*
X155057500Y-80320000D01*
X155057500Y-82250000D02*
X155057500Y-84850000D01*
X155057500Y-86780000D02*
X155057500Y-86750000D01*
X155057500Y-86780000D02*
X161517500Y-86780000D01*
X161517500Y-80320000D02*
X161517500Y-80350000D01*
X161517500Y-82250000D02*
X161517500Y-84850000D01*
X161517500Y-86780000D02*
X161517500Y-86750000D01*
%TO.C,SW2*%
X155057500Y-92320000D02*
X161517500Y-92320000D01*
X155057500Y-92350000D02*
X155057500Y-92320000D01*
X155057500Y-94250000D02*
X155057500Y-96850000D01*
X155057500Y-98780000D02*
X155057500Y-98750000D01*
X155057500Y-98780000D02*
X161517500Y-98780000D01*
X161517500Y-92320000D02*
X161517500Y-92350000D01*
X161517500Y-94250000D02*
X161517500Y-96850000D01*
X161517500Y-98780000D02*
X161517500Y-98750000D01*
%TO.C,R25*%
X134867621Y-121520000D02*
X134532379Y-121520000D01*
X134867621Y-122280000D02*
X134532379Y-122280000D01*
%TO.C,C20*%
X158790000Y-115659420D02*
X158790000Y-115940580D01*
X159810000Y-115659420D02*
X159810000Y-115940580D01*
%TO.C,C7*%
X152277500Y-124190580D02*
X152277500Y-123909420D01*
X153297500Y-124190580D02*
X153297500Y-123909420D01*
%TO.C,R6*%
X152407500Y-81179879D02*
X152407500Y-81515121D01*
X153167500Y-81179879D02*
X153167500Y-81515121D01*
%TO.C,R26*%
X134867621Y-123120000D02*
X134532379Y-123120000D01*
X134867621Y-123880000D02*
X134532379Y-123880000D01*
%TO.C,R3*%
X152407500Y-95770121D02*
X152407500Y-95434879D01*
X153167500Y-95770121D02*
X153167500Y-95434879D01*
%TO.C,C12*%
X139427500Y-73684165D02*
X139427500Y-73915835D01*
X140147500Y-73684165D02*
X140147500Y-73915835D01*
%TO.C,C19*%
X152427500Y-109684165D02*
X152427500Y-109915835D01*
X153147500Y-109684165D02*
X153147500Y-109915835D01*
%TO.C,R28*%
X147767621Y-91620000D02*
X147432379Y-91620000D01*
X147767621Y-92380000D02*
X147432379Y-92380000D01*
%TO.C,J2*%
X131140000Y-128690000D02*
X131140000Y-132710000D01*
X131140000Y-130190000D02*
X132140000Y-130190000D01*
X131140000Y-132710000D02*
X148860000Y-132710000D01*
X131640000Y-131000000D02*
X131140000Y-131000000D01*
X131640000Y-132210000D02*
X131640000Y-131000000D01*
X132140000Y-130190000D02*
X132140000Y-128690000D01*
X147860000Y-130190000D02*
X147860000Y-128690000D01*
X148360000Y-131000000D02*
X148360000Y-132210000D01*
X148360000Y-132210000D02*
X131640000Y-132210000D01*
X148860000Y-128690000D02*
X131140000Y-128690000D01*
X148860000Y-130190000D02*
X147860000Y-130190000D01*
X148860000Y-131000000D02*
X148360000Y-131000000D01*
X148860000Y-132710000D02*
X148860000Y-128690000D01*
X149160000Y-128390000D02*
X146660000Y-128390000D01*
X149160000Y-130890000D02*
X149160000Y-128390000D01*
%TO.C,C15*%
X135927500Y-81348335D02*
X135927500Y-81116665D01*
X136647500Y-81348335D02*
X136647500Y-81116665D01*
%TO.C,R24*%
X154820000Y-114729879D02*
X154820000Y-115065121D01*
X155580000Y-114729879D02*
X155580000Y-115065121D01*
%TO.C,SW8*%
X142057500Y-56320000D02*
X148517500Y-56320000D01*
X142057500Y-56350000D02*
X142057500Y-56320000D01*
X142057500Y-58250000D02*
X142057500Y-60850000D01*
X142057500Y-62780000D02*
X142057500Y-62750000D01*
X142057500Y-62780000D02*
X148517500Y-62780000D01*
X148517500Y-56320000D02*
X148517500Y-56350000D01*
X148517500Y-58250000D02*
X148517500Y-60850000D01*
X148517500Y-62780000D02*
X148517500Y-62750000D01*
%TO.C,R21*%
X135907500Y-116032379D02*
X135907500Y-116367621D01*
X136667500Y-116032379D02*
X136667500Y-116367621D01*
%TO.C,C4*%
X147371665Y-100340000D02*
X147603335Y-100340000D01*
X147371665Y-101060000D02*
X147603335Y-101060000D01*
%TO.C,J4*%
X126947500Y-101630000D02*
X128272500Y-101630000D01*
X128272500Y-101565000D02*
X128272500Y-101630000D01*
X128272500Y-101565000D02*
X131802500Y-101565000D01*
X128272500Y-110510000D02*
X128272500Y-110575000D01*
X128272500Y-110575000D02*
X131802500Y-110575000D01*
X131802500Y-101565000D02*
X131802500Y-101630000D01*
X131802500Y-110510000D02*
X131802500Y-110575000D01*
%TO.C,SW10*%
X127557500Y-92220000D02*
X127557500Y-92250000D01*
X127557500Y-96750000D02*
X127557500Y-94150000D01*
X127557500Y-98680000D02*
X127557500Y-98650000D01*
X134017500Y-92220000D02*
X127557500Y-92220000D01*
X134017500Y-92220000D02*
X134017500Y-92250000D01*
X134017500Y-96750000D02*
X134017500Y-94150000D01*
X134017500Y-98650000D02*
X134017500Y-98680000D01*
X134017500Y-98680000D02*
X127557500Y-98680000D01*
%TO.C,R16*%
X139407500Y-57227379D02*
X139407500Y-57562621D01*
X140167500Y-57227379D02*
X140167500Y-57562621D01*
%TO.C,R20*%
X135907500Y-97817621D02*
X135907500Y-97482379D01*
X136667500Y-97817621D02*
X136667500Y-97482379D01*
%TO.C,SW7*%
X127557500Y-68220000D02*
X127557500Y-68250000D01*
X127557500Y-72750000D02*
X127557500Y-70150000D01*
X127557500Y-74680000D02*
X127557500Y-74650000D01*
X134017500Y-68220000D02*
X127557500Y-68220000D01*
X134017500Y-68220000D02*
X134017500Y-68250000D01*
X134017500Y-72750000D02*
X134017500Y-70150000D01*
X134017500Y-74650000D02*
X134017500Y-74680000D01*
X134017500Y-74680000D02*
X127557500Y-74680000D01*
%TO.C,R8*%
X152407500Y-69134879D02*
X152407500Y-69470121D01*
X153167500Y-69134879D02*
X153167500Y-69470121D01*
%TO.C,C10*%
X152427500Y-73636665D02*
X152427500Y-73868335D01*
X153147500Y-73636665D02*
X153147500Y-73868335D01*
%TO.C,R4*%
X152407500Y-93184879D02*
X152407500Y-93520121D01*
X153167500Y-93184879D02*
X153167500Y-93520121D01*
%TO.C,R23*%
X154820000Y-118167621D02*
X154820000Y-117832379D01*
X155580000Y-118167621D02*
X155580000Y-117832379D01*
%TO.C,C1*%
X138640580Y-110690000D02*
X138359420Y-110690000D01*
X138640580Y-111710000D02*
X138359420Y-111710000D01*
%TO.C,R22*%
X135907500Y-118617621D02*
X135907500Y-118282379D01*
X136667500Y-118617621D02*
X136667500Y-118282379D01*
%TO.C,D3*%
X143515000Y-92865000D02*
X143515000Y-94335000D01*
X143515000Y-94335000D02*
X145800000Y-94335000D01*
X145800000Y-92865000D02*
X143515000Y-92865000D01*
%TO.C,C18*%
X138727500Y-120104437D02*
X138727500Y-124560000D01*
X138727500Y-124560000D02*
X140427500Y-124560000D01*
X139791937Y-119040000D02*
X138727500Y-120104437D01*
X139791937Y-119040000D02*
X140427500Y-119040000D01*
X143183063Y-119040000D02*
X142547500Y-119040000D01*
X143183063Y-119040000D02*
X144247500Y-120104437D01*
X144247500Y-120104437D02*
X144247500Y-124560000D01*
X144247500Y-124560000D02*
X142547500Y-124560000D01*
%TO.C,C3*%
X138803335Y-109640000D02*
X138571665Y-109640000D01*
X138803335Y-110360000D02*
X138571665Y-110360000D01*
%TO.C,SW11*%
X127557500Y-113020000D02*
X127557500Y-113050000D01*
X127557500Y-117550000D02*
X127557500Y-114950000D01*
X127557500Y-119480000D02*
X127557500Y-119450000D01*
X134017500Y-113020000D02*
X127557500Y-113020000D01*
X134017500Y-113020000D02*
X134017500Y-113050000D01*
X134017500Y-117550000D02*
X134017500Y-114950000D01*
X134017500Y-119450000D02*
X134017500Y-119480000D01*
X134017500Y-119480000D02*
X127557500Y-119480000D01*
%TO.C,C17*%
X135927500Y-114115835D02*
X135927500Y-113884165D01*
X136647500Y-114115835D02*
X136647500Y-113884165D01*
%TO.C,D2*%
X130615000Y-121165000D02*
X130615000Y-122635000D01*
X130615000Y-122635000D02*
X132900000Y-122635000D01*
X132900000Y-121165000D02*
X130615000Y-121165000D01*
%TO.C,SW1*%
X155057500Y-104320000D02*
X161517500Y-104320000D01*
X155057500Y-104350000D02*
X155057500Y-104320000D01*
X155057500Y-106250000D02*
X155057500Y-108850000D01*
X155057500Y-110780000D02*
X155057500Y-110750000D01*
X155057500Y-110780000D02*
X161517500Y-110780000D01*
X161517500Y-104320000D02*
X161517500Y-104350000D01*
X161517500Y-106250000D02*
X161517500Y-108850000D01*
X161517500Y-110780000D02*
X161517500Y-110750000D01*
%TO.C,SW9*%
X127557500Y-80220000D02*
X127557500Y-80250000D01*
X127557500Y-84750000D02*
X127557500Y-82150000D01*
X127557500Y-86680000D02*
X127557500Y-86650000D01*
X134017500Y-80220000D02*
X127557500Y-80220000D01*
X134017500Y-80220000D02*
X134017500Y-80250000D01*
X134017500Y-84750000D02*
X134017500Y-82150000D01*
X134017500Y-86650000D02*
X134017500Y-86680000D01*
X134017500Y-86680000D02*
X127557500Y-86680000D01*
%TO.C,U2*%
X144977500Y-119290000D02*
X146237500Y-119290000D01*
X144977500Y-123050000D02*
X144977500Y-119290000D01*
X151797500Y-119290000D02*
X150537500Y-119290000D01*
X151797500Y-123050000D02*
X151797500Y-119290000D01*
X145077500Y-124330000D02*
X144747500Y-124570000D01*
X144747500Y-124090000D01*
X145077500Y-124330000D01*
G36*
X145077500Y-124330000D02*
G01*
X144747500Y-124570000D01*
X144747500Y-124090000D01*
X145077500Y-124330000D01*
G37*
%TO.C,SW6*%
X142057500Y-68320000D02*
X148517500Y-68320000D01*
X142057500Y-68350000D02*
X142057500Y-68320000D01*
X142057500Y-70250000D02*
X142057500Y-72850000D01*
X142057500Y-74780000D02*
X142057500Y-74750000D01*
X142057500Y-74780000D02*
X148517500Y-74780000D01*
X148517500Y-68320000D02*
X148517500Y-68350000D01*
X148517500Y-70250000D02*
X148517500Y-72850000D01*
X148517500Y-74780000D02*
X148517500Y-74750000D01*
%TO.C,R1*%
X152407500Y-105182379D02*
X152407500Y-105517621D01*
X153167500Y-105182379D02*
X153167500Y-105517621D01*
%TO.C,C9*%
X152427500Y-85681665D02*
X152427500Y-85913335D01*
X153147500Y-85681665D02*
X153147500Y-85913335D01*
%TO.C,SW5*%
X142057500Y-80320000D02*
X148517500Y-80320000D01*
X142057500Y-80350000D02*
X142057500Y-80320000D01*
X142057500Y-82250000D02*
X142057500Y-84850000D01*
X142057500Y-86780000D02*
X142057500Y-86750000D01*
X142057500Y-86780000D02*
X148517500Y-86780000D01*
X148517500Y-80320000D02*
X148517500Y-80350000D01*
X148517500Y-82250000D02*
X148517500Y-84850000D01*
X148517500Y-86780000D02*
X148517500Y-86750000D01*
%TO.C,R7*%
X152407500Y-71720121D02*
X152407500Y-71384879D01*
X153167500Y-71720121D02*
X153167500Y-71384879D01*
%TO.C,C14*%
X139427500Y-61681665D02*
X139427500Y-61913335D01*
X140147500Y-61681665D02*
X140147500Y-61913335D01*
%TO.C,U1*%
X139477500Y-101390000D02*
X139777500Y-101390000D01*
X139477500Y-101690000D02*
X139477500Y-101390000D01*
X139477500Y-108310000D02*
X139477500Y-108610000D01*
X139477500Y-108610000D02*
X139777500Y-108610000D01*
X146697500Y-101390000D02*
X146397500Y-101390000D01*
X146697500Y-101690000D02*
X146697500Y-101390000D01*
X146697500Y-108310000D02*
X146697500Y-108610000D01*
X146697500Y-108610000D02*
X146397500Y-108610000D01*
X139777500Y-109212500D02*
X139307500Y-109552500D01*
X139307500Y-108872500D01*
X139777500Y-109212500D01*
G36*
X139777500Y-109212500D02*
G01*
X139307500Y-109552500D01*
X139307500Y-108872500D01*
X139777500Y-109212500D01*
G37*
%TO.C,R13*%
X135907500Y-71232379D02*
X135907500Y-71567621D01*
X136667500Y-71232379D02*
X136667500Y-71567621D01*
%TO.C,R19*%
X135907500Y-95229879D02*
X135907500Y-95565121D01*
X136667500Y-95229879D02*
X136667500Y-95565121D01*
%TO.C,R11*%
X139407500Y-71767621D02*
X139407500Y-71432379D01*
X140167500Y-71767621D02*
X140167500Y-71432379D01*
%TO.C,R15*%
X139407500Y-59765121D02*
X139407500Y-59429879D01*
X140167500Y-59765121D02*
X140167500Y-59429879D01*
%TO.C,R14*%
X135907500Y-73817621D02*
X135907500Y-73482379D01*
X136667500Y-73817621D02*
X136667500Y-73482379D01*
%TO.C,C5*%
X142640580Y-126990000D02*
X142359420Y-126990000D01*
X142640580Y-128010000D02*
X142359420Y-128010000D01*
%TO.C,J1*%
X150177500Y-128690000D02*
X150177500Y-132710000D01*
X150177500Y-130190000D02*
X151177500Y-130190000D01*
X150177500Y-132710000D02*
X157897500Y-132710000D01*
X150677500Y-131000000D02*
X150177500Y-131000000D01*
X150677500Y-132210000D02*
X150677500Y-131000000D01*
X151177500Y-130190000D02*
X151177500Y-128690000D01*
X156897500Y-130190000D02*
X156897500Y-128690000D01*
X157397500Y-131000000D02*
X157397500Y-132210000D01*
X157397500Y-132210000D02*
X150677500Y-132210000D01*
X157897500Y-128690000D02*
X150177500Y-128690000D01*
X157897500Y-130190000D02*
X156897500Y-130190000D01*
X157897500Y-131000000D02*
X157397500Y-131000000D01*
X157897500Y-132710000D02*
X157897500Y-128690000D01*
X158197500Y-128390000D02*
X155697500Y-128390000D01*
X158197500Y-130890000D02*
X158197500Y-128390000D01*
%TO.C,C11*%
X139427500Y-85681665D02*
X139427500Y-85913335D01*
X140147500Y-85681665D02*
X140147500Y-85913335D01*
%TO.C,C8*%
X152427500Y-97719165D02*
X152427500Y-97950835D01*
X153147500Y-97719165D02*
X153147500Y-97950835D01*
%TO.C,D4*%
X143515000Y-91265000D02*
X143515000Y-92735000D01*
X143515000Y-92735000D02*
X145800000Y-92735000D01*
X145800000Y-91265000D02*
X143515000Y-91265000D01*
%TO.C,D1*%
X130615000Y-122765000D02*
X130615000Y-124235000D01*
X130615000Y-124235000D02*
X132900000Y-124235000D01*
X132900000Y-122765000D02*
X130615000Y-122765000D01*
%TO.C,R2*%
X152407500Y-107767621D02*
X152407500Y-107432379D01*
X153167500Y-107767621D02*
X153167500Y-107432379D01*
%TO.C,R27*%
X147767621Y-93220000D02*
X147432379Y-93220000D01*
X147767621Y-93980000D02*
X147432379Y-93980000D01*
%TO.C,R17*%
X135907500Y-83264879D02*
X135907500Y-83600121D01*
X136667500Y-83264879D02*
X136667500Y-83600121D01*
%TD*%
M02*
