M48
; DRILL file {KiCad 9.0.0-9.0.0-2~ubuntu22.04.1} date 2025-03-23T14:44:24+0100
; FORMAT={-:-/ absolute / metric / decimal}
; #@! TF.CreationDate,2025-03-23T14:44:24+01:00
; #@! TF.GenerationSoftware,Kicad,Pcbnew,9.0.0-9.0.0-2~ubuntu22.04.1
; #@! TF.FileFunction,Plated,1,4,PTH
FMAT,2
METRIC
; #@! TA.AperFunction,Plated,PTH,ViaDrill
T1C0.300
; #@! TA.AperFunction,Plated,PTH,ComponentDrill
T2C0.500
; #@! TA.AperFunction,Plated,PTH,ViaDrill
T3C0.600
; #@! TA.AperFunction,Plated,PTH,ComponentDrill
T4C0.950
; #@! TA.AperFunction,Plated,PTH,ComponentDrill
T5C1.000
; #@! TA.AperFunction,Plated,PTH,ComponentDrill
T6C3.200
%
G90
G05
T1
X124.5Y-111.5
X126.1Y-105.6
X126.25Y-77.25
X126.4Y-103.4
X126.5Y-108.6
X127.25Y-90.0
X127.5Y-99.25
X127.8Y-69.2
X127.8Y-81.2
X127.9Y-93.2
X127.9Y-114.0
X130.0Y-109.9
X130.5Y-78.0
X130.6Y-121.9
X130.6Y-123.5
X131.0Y-65.0
X131.25Y-89.25
X132.5Y-126.75
X133.6Y-69.2
X133.7Y-81.2
X133.7Y-93.2
X133.7Y-114.0
X133.75Y-60.25
X133.8Y-110.0
X133.9Y-103.5
X134.5Y-56.75
X135.3Y-102.975
X135.8Y-87.0
X135.9Y-99.1
X135.9Y-123.9
X136.1Y-75.0
X136.3Y-67.9
X136.3Y-80.1
X136.3Y-91.9
X136.3Y-112.8
X136.75Y-66.25
X137.0Y-111.2
X137.1Y-119.4
X137.7Y-72.1
X138.7Y-63.5
X138.8Y-108.9
X138.8Y-127.6
X139.0Y-56.8
X139.3Y-110.6
X139.5Y-113.3
X139.8Y-63.0
X139.8Y-75.0
X139.8Y-87.0
X140.0Y-80.1
X140.1Y-68.0
X140.729Y-102.329
X141.2Y-105.8
X141.3Y-99.6
X141.6Y-102.2
X141.7Y-126.8
X142.1Y-106.7
X142.3Y-61.8
X142.3Y-73.8
X142.3Y-85.8
X142.6Y-112.9
X142.6Y-123.9
X143.0Y-77.75
X143.1Y-107.525
X143.4Y-101.9
X143.5Y-92.0
X143.5Y-93.6
X144.2Y-101.9
X144.75Y-116.25
X145.0Y-64.25
X145.1Y-110.6
X145.225Y-102.6
X145.9Y-102.2
X145.971Y-103.629
X146.0Y-125.6
X146.1Y-104.5
X146.8Y-100.0
X147.0Y-113.5
X148.0Y-78.25
X148.1Y-61.8
X148.1Y-92.6
X148.1Y-100.1
X148.2Y-73.8
X148.2Y-95.3
X148.3Y-85.8
X148.3Y-103.0
X148.7Y-102.0
X148.7Y-105.5
X149.0Y-66.0
X149.0Y-127.25
X149.25Y-89.25
X149.4Y-104.2
X150.0Y-110.0
X151.9Y-73.7
X152.2Y-110.3
X152.5Y-68.0
X152.7Y-99.1
X152.8Y-75.0
X152.8Y-87.0
X153.0Y-80.2
X153.1Y-92.0
X153.2Y-104.0
X153.6Y-123.3
X154.0Y-115.5
X154.3Y-117.3
X154.4Y-114.0
X154.4Y-118.7
X155.3Y-73.8
X155.3Y-85.8
X155.3Y-97.8
X155.3Y-109.8
X155.5Y-102.25
X155.75Y-59.75
X155.75Y-90.75
X156.75Y-125.0
X157.25Y-112.0
X157.5Y-121.25
X157.75Y-63.75
X157.75Y-77.0
X158.25Y-89.0
X159.3Y-114.2
X160.25Y-101.5
X161.2Y-73.8
X161.2Y-85.8
X161.75Y-78.75
X163.2Y-109.8
X163.3Y-97.8
T2
X124.6Y-59.0
X124.6Y-130.0
X125.303Y-57.303
X125.303Y-60.697
X125.303Y-128.303
X125.303Y-131.697
X127.0Y-56.6
X127.0Y-61.4
X127.0Y-127.6
X127.0Y-132.4
X128.697Y-57.303
X128.697Y-60.697
X128.697Y-128.303
X128.697Y-131.697
X129.4Y-59.0
X129.4Y-130.0
X159.6Y-59.0
X159.6Y-130.0
X160.303Y-57.303
X160.303Y-60.697
X160.303Y-128.303
X160.303Y-131.697
X162.0Y-56.6
X162.0Y-61.4
X162.0Y-127.6
X162.0Y-132.4
X163.697Y-57.303
X163.697Y-60.697
X163.697Y-128.303
X163.697Y-131.697
X164.4Y-59.0
X164.4Y-130.0
T3
X136.2Y-121.2
X148.0Y-116.3
X151.6Y-126.1
T4
X133.75Y-131.0
X136.25Y-131.0
X138.75Y-131.0
X141.25Y-131.0
X143.75Y-131.0
X146.25Y-131.0
X162.787Y-114.75
X162.787Y-117.25
X162.787Y-119.75
X162.787Y-122.25
T5
X152.787Y-131.0
X155.287Y-131.0
T6
X127.0Y-59.0
X127.0Y-130.0
X162.0Y-59.0
X162.0Y-130.0
M30
