%TF.GenerationSoftware,KiCad,Pcbnew,9.0.0-9.0.0-2~ubuntu24.04.1*%
%TF.CreationDate,2025-03-20T14:26:08+01:00*%
%TF.ProjectId,PCB_controller,5043425f-636f-46e7-9472-6f6c6c65722e,rev?*%
%TF.SameCoordinates,Original*%
%TF.FileFunction,Copper,L3,Inr*%
%TF.FilePolarity,Positive*%
%FSLAX46Y46*%
G04 Gerber Fmt 4.6, Leading zero omitted, Abs format (unit mm)*
G04 Created by KiCad (PCBNEW 9.0.0-9.0.0-2~ubuntu24.04.1) date 2025-03-20 14:26:08*
%MOMM*%
%LPD*%
G01*
G04 APERTURE LIST*
G04 Aperture macros list*
%AMRoundRect*
0 Rectangle with rounded corners*
0 $1 Rounding radius*
0 $2 $3 $4 $5 $6 $7 $8 $9 X,Y pos of 4 corners*
0 Add a 4 corners polygon primitive as box body*
4,1,4,$2,$3,$4,$5,$6,$7,$8,$9,$2,$3,0*
0 Add four circle primitives for the rounded corners*
1,1,$1+$1,$2,$3*
1,1,$1+$1,$4,$5*
1,1,$1+$1,$6,$7*
1,1,$1+$1,$8,$9*
0 Add four rect primitives between the rounded corners*
20,1,$1+$1,$2,$3,$4,$5,0*
20,1,$1+$1,$4,$5,$6,$7,0*
20,1,$1+$1,$6,$7,$8,$9,0*
20,1,$1+$1,$8,$9,$2,$3,0*%
G04 Aperture macros list end*
%TA.AperFunction,ComponentPad*%
%ADD10RoundRect,0.250000X-0.725000X0.600000X-0.725000X-0.600000X0.725000X-0.600000X0.725000X0.600000X0*%
%TD*%
%TA.AperFunction,ComponentPad*%
%ADD11O,1.950000X1.700000*%
%TD*%
%TA.AperFunction,ComponentPad*%
%ADD12C,0.800000*%
%TD*%
%TA.AperFunction,ComponentPad*%
%ADD13C,6.400000*%
%TD*%
%TA.AperFunction,ComponentPad*%
%ADD14RoundRect,0.250000X0.600000X0.725000X-0.600000X0.725000X-0.600000X-0.725000X0.600000X-0.725000X0*%
%TD*%
%TA.AperFunction,ComponentPad*%
%ADD15O,1.700000X1.950000*%
%TD*%
%TA.AperFunction,ComponentPad*%
%ADD16RoundRect,0.250000X0.600000X0.750000X-0.600000X0.750000X-0.600000X-0.750000X0.600000X-0.750000X0*%
%TD*%
%TA.AperFunction,ComponentPad*%
%ADD17O,1.700000X2.000000*%
%TD*%
%TA.AperFunction,ViaPad*%
%ADD18C,0.450000*%
%TD*%
%TA.AperFunction,ViaPad*%
%ADD19C,1.200000*%
%TD*%
G04 APERTURE END LIST*
D10*
%TO.N,GND*%
%TO.C,J3*%
X162787500Y-114750000D03*
D11*
%TO.N,+5V*%
X162787500Y-117250000D03*
%TO.N,I2C1_SDA*%
X162787500Y-119750000D03*
%TO.N,I2C1_SCL*%
X162787500Y-122250000D03*
%TD*%
D12*
%TO.N,GND*%
%TO.C,H1*%
X159600000Y-59000000D03*
X160302944Y-57302944D03*
X160302944Y-60697056D03*
X162000000Y-56600000D03*
D13*
X162000000Y-59000000D03*
D12*
X162000000Y-61400000D03*
X163697056Y-57302944D03*
X163697056Y-60697056D03*
X164400000Y-59000000D03*
%TD*%
D14*
%TO.N,unconnected-(J2-Pin_1-Pad1)*%
%TO.C,J2*%
X146250000Y-131000000D03*
D15*
%TO.N,+5V*%
X143750000Y-131000000D03*
%TO.N,GND*%
X141250000Y-131000000D03*
%TO.N,UART2_HC05_TX*%
X138750000Y-131000000D03*
%TO.N,UART2_HC05_RX*%
X136250000Y-131000000D03*
%TO.N,unconnected-(J2-Pin_6-Pad6)*%
X133750000Y-131000000D03*
%TD*%
D12*
%TO.N,GND*%
%TO.C,H3*%
X124600000Y-59000000D03*
X125302944Y-57302944D03*
X125302944Y-60697056D03*
X127000000Y-56600000D03*
D13*
X127000000Y-59000000D03*
D12*
X127000000Y-61400000D03*
X128697056Y-57302944D03*
X128697056Y-60697056D03*
X129400000Y-59000000D03*
%TD*%
%TO.N,GND*%
%TO.C,H2*%
X124600000Y-130000000D03*
X125302944Y-128302944D03*
X125302944Y-131697056D03*
X127000000Y-127600000D03*
D13*
X127000000Y-130000000D03*
D12*
X127000000Y-132400000D03*
X128697056Y-128302944D03*
X128697056Y-131697056D03*
X129400000Y-130000000D03*
%TD*%
%TO.N,GND*%
%TO.C,H4*%
X159600000Y-130000000D03*
X160302944Y-128302944D03*
X160302944Y-131697056D03*
X162000000Y-127600000D03*
D13*
X162000000Y-130000000D03*
D12*
X162000000Y-132400000D03*
X163697056Y-128302944D03*
X163697056Y-131697056D03*
X164400000Y-130000000D03*
%TD*%
D16*
%TO.N,+5V*%
%TO.C,J1*%
X155287500Y-131000000D03*
D17*
%TO.N,GND*%
X152787500Y-131000000D03*
%TD*%
D18*
%TO.N,GND*%
X157250000Y-112000000D03*
X155750000Y-90750000D03*
X145000000Y-64250000D03*
X127250000Y-90000000D03*
X127500000Y-99250000D03*
X150000000Y-110000000D03*
X147000000Y-113500000D03*
X149000000Y-127250000D03*
X157500000Y-121250000D03*
X156750000Y-125000000D03*
X132500000Y-126750000D03*
X124500000Y-111500000D03*
X144750000Y-116250000D03*
X155500000Y-102250000D03*
X160250000Y-101500000D03*
X158250000Y-89000000D03*
X161750000Y-78750000D03*
X157750000Y-77000000D03*
X143000000Y-77750000D03*
X148000000Y-78250000D03*
X126250000Y-77250000D03*
X130500000Y-78000000D03*
X131250000Y-89250000D03*
X149250000Y-89250000D03*
X136750000Y-66250000D03*
X134500000Y-56750000D03*
X149000000Y-66000000D03*
X133750000Y-60250000D03*
X131000000Y-65000000D03*
X157750000Y-63750000D03*
X155750000Y-59750000D03*
X141700000Y-126800000D03*
X133700000Y-93200000D03*
X142600000Y-112900000D03*
X146000000Y-125600000D03*
X138800000Y-108900000D03*
X127900000Y-114000000D03*
X143500000Y-93600000D03*
X155300000Y-73800000D03*
X126100000Y-105600000D03*
X142300000Y-73800000D03*
X155300000Y-109800000D03*
X153600000Y-123300000D03*
X139800000Y-63000000D03*
X145971232Y-103628768D03*
X127800000Y-81200000D03*
X148100000Y-61800000D03*
X136300000Y-67900000D03*
X161200000Y-85800000D03*
X133700000Y-81200000D03*
X163200000Y-109800000D03*
X149400000Y-104200000D03*
X136300000Y-112800000D03*
X142300000Y-85800000D03*
X152200000Y-110300000D03*
X136300000Y-91900000D03*
X139800000Y-87000000D03*
X143500000Y-92000000D03*
X148100000Y-100100000D03*
X133600000Y-69200000D03*
X163300000Y-97800000D03*
X152700000Y-99100000D03*
X152800000Y-87000000D03*
X133700000Y-114000000D03*
X159300000Y-114200000D03*
X130600000Y-123500000D03*
X155300000Y-85800000D03*
X127800000Y-69200000D03*
X130600000Y-121900000D03*
X139800000Y-75000000D03*
X142600000Y-123900000D03*
X142300000Y-61800000D03*
X148300000Y-85800000D03*
X161200000Y-73800000D03*
X127900000Y-93200000D03*
X148700000Y-102000000D03*
X137000000Y-111200000D03*
X155300000Y-97800000D03*
X152800000Y-75000000D03*
X136300000Y-80100000D03*
X126500000Y-108600000D03*
X148200000Y-73800000D03*
%TO.N,+3.3V*%
X152500000Y-68000000D03*
X153200000Y-104000000D03*
X136100000Y-75000000D03*
X135800000Y-87000000D03*
X139000000Y-56800000D03*
X139300000Y-110600000D03*
X154400000Y-118700000D03*
X135900000Y-99100000D03*
X153000000Y-80200000D03*
X153100000Y-92000000D03*
X140000000Y-80100000D03*
X137100000Y-119400000D03*
X126400000Y-103400000D03*
X146800000Y-100000000D03*
X135900000Y-123900000D03*
X140100000Y-68000000D03*
D19*
X148000000Y-116300000D03*
D18*
X154400000Y-114000000D03*
X148300000Y-103000000D03*
D19*
%TO.N,+5V*%
X151600000Y-126100000D03*
X136200000Y-121200000D03*
D18*
%TO.N,BTN_4*%
X148700000Y-105500000D03*
X151900000Y-73700000D03*
%TO.N,BTN_7*%
X137700000Y-72100000D03*
X141300000Y-99600000D03*
%TO.N,BTN_8*%
X146100000Y-104500000D03*
X138700000Y-63500000D03*
%TO.N,BTN_11*%
X139500000Y-113300000D03*
X141200000Y-105800000D03*
%TO.N,UART2_HC05_TX*%
X138800000Y-127600000D03*
X145100000Y-110600000D03*
%TO.N,I2C1_SDA*%
X154000000Y-115500000D03*
X142100000Y-106700000D03*
%TO.N,I2C1_SCL*%
X143100000Y-107525000D03*
X154300000Y-117300000D03*
%TO.N,UART1_DEBUG_RX*%
X130000000Y-109900000D03*
X143400000Y-101900000D03*
%TO.N,SWCLK*%
X140728768Y-102328768D03*
X135300000Y-102975000D03*
%TO.N,SWDIO*%
X141600000Y-102200000D03*
X133900000Y-103500000D03*
%TO.N,UART1_DEBUG_TX*%
X133800000Y-110000000D03*
X144200000Y-101900000D03*
%TO.N,LED2*%
X148200000Y-95300000D03*
X145900000Y-102200000D03*
%TO.N,LED1*%
X148100000Y-92600000D03*
X145225000Y-102600000D03*
%TD*%
%TA.AperFunction,Conductor*%
%TO.N,GND*%
G36*
X162590532Y-55000648D02*
G01*
X162924429Y-55017052D01*
X162936537Y-55018245D01*
X163039646Y-55033539D01*
X163264199Y-55066849D01*
X163276117Y-55069219D01*
X163597451Y-55149709D01*
X163609088Y-55153240D01*
X163680306Y-55178722D01*
X163920967Y-55264832D01*
X163932188Y-55269479D01*
X164231663Y-55411120D01*
X164242371Y-55416844D01*
X164526488Y-55587137D01*
X164536606Y-55593897D01*
X164802670Y-55791224D01*
X164812076Y-55798944D01*
X165057513Y-56021395D01*
X165066104Y-56029986D01*
X165199550Y-56177221D01*
X165288555Y-56275423D01*
X165296275Y-56284829D01*
X165493602Y-56550893D01*
X165500362Y-56561011D01*
X165646450Y-56804745D01*
X165670648Y-56845116D01*
X165676383Y-56855844D01*
X165789749Y-57095537D01*
X165818014Y-57155297D01*
X165822670Y-57166540D01*
X165934259Y-57478411D01*
X165937792Y-57490055D01*
X166018277Y-57811369D01*
X166020651Y-57823305D01*
X166069254Y-58150962D01*
X166070447Y-58163072D01*
X166086848Y-58496923D01*
X166086997Y-58503093D01*
X166037050Y-130425771D01*
X166037050Y-130425772D01*
X166037044Y-130433940D01*
X166037000Y-130434108D01*
X166037000Y-130497035D01*
X166036997Y-130497042D01*
X166036851Y-130503033D01*
X166020447Y-130836928D01*
X166019254Y-130849037D01*
X165970651Y-131176694D01*
X165968277Y-131188630D01*
X165887792Y-131509944D01*
X165884259Y-131521588D01*
X165772670Y-131833459D01*
X165768014Y-131844702D01*
X165626385Y-132144151D01*
X165620648Y-132154883D01*
X165450362Y-132438988D01*
X165443602Y-132449106D01*
X165246275Y-132715170D01*
X165238555Y-132724576D01*
X165016111Y-132970006D01*
X165007506Y-132978611D01*
X164762076Y-133201055D01*
X164752670Y-133208775D01*
X164486606Y-133406102D01*
X164476488Y-133412862D01*
X164192383Y-133583148D01*
X164181651Y-133588885D01*
X163882202Y-133730514D01*
X163870959Y-133735170D01*
X163559088Y-133846759D01*
X163547444Y-133850292D01*
X163226130Y-133930777D01*
X163214194Y-133933151D01*
X162886537Y-133981754D01*
X162874428Y-133982947D01*
X162559489Y-133998419D01*
X162540531Y-133999351D01*
X162534449Y-133999500D01*
X126540551Y-133999500D01*
X126534468Y-133999351D01*
X126514400Y-133998365D01*
X126200571Y-133982947D01*
X126188462Y-133981754D01*
X125860805Y-133933151D01*
X125848869Y-133930777D01*
X125527555Y-133850292D01*
X125515911Y-133846759D01*
X125204040Y-133735170D01*
X125192801Y-133730515D01*
X124893344Y-133588883D01*
X124882621Y-133583150D01*
X124598511Y-133412862D01*
X124588393Y-133406102D01*
X124322329Y-133208775D01*
X124312923Y-133201055D01*
X124273975Y-133165755D01*
X124067486Y-132978604D01*
X124058895Y-132970013D01*
X123836444Y-132724576D01*
X123828724Y-132715170D01*
X123631397Y-132449106D01*
X123624637Y-132438988D01*
X123454344Y-132154871D01*
X123448620Y-132144163D01*
X123306979Y-131844688D01*
X123302329Y-131833459D01*
X123302006Y-131832557D01*
X123217878Y-131597434D01*
X123190740Y-131521588D01*
X123187207Y-131509944D01*
X123106719Y-131188617D01*
X123104348Y-131176694D01*
X123087902Y-131065826D01*
X123055745Y-130849037D01*
X123054552Y-130836927D01*
X123051339Y-130771534D01*
X123038149Y-130503032D01*
X123038000Y-130497038D01*
X123038000Y-130497035D01*
X123038000Y-130434108D01*
X123037954Y-130433938D01*
X123037526Y-129818234D01*
X123300000Y-129818234D01*
X123300000Y-130181765D01*
X123335632Y-130543556D01*
X123406550Y-130900090D01*
X123406553Y-130900101D01*
X123512086Y-131247997D01*
X123651207Y-131583864D01*
X123651209Y-131583869D01*
X123822570Y-131904462D01*
X123822581Y-131904480D01*
X124024551Y-132206750D01*
X124211678Y-132434765D01*
X124211679Y-132434766D01*
X125705747Y-130940697D01*
X125779588Y-131042330D01*
X125957670Y-131220412D01*
X126059301Y-131294251D01*
X124565232Y-132788319D01*
X124565233Y-132788320D01*
X124793249Y-132975448D01*
X125095519Y-133177418D01*
X125095537Y-133177429D01*
X125416130Y-133348790D01*
X125416135Y-133348792D01*
X125752002Y-133487913D01*
X126099898Y-133593446D01*
X126099909Y-133593449D01*
X126456443Y-133664367D01*
X126818234Y-133700000D01*
X127181766Y-133700000D01*
X127543556Y-133664367D01*
X127900090Y-133593449D01*
X127900101Y-133593446D01*
X128247997Y-133487913D01*
X128583864Y-133348792D01*
X128583869Y-133348790D01*
X128904462Y-133177429D01*
X128904480Y-133177418D01*
X129206736Y-132975457D01*
X129206750Y-132975447D01*
X129434765Y-132788320D01*
X129434766Y-132788319D01*
X127940698Y-131294251D01*
X128042330Y-131220412D01*
X128220412Y-131042330D01*
X128294251Y-130940698D01*
X129788319Y-132434766D01*
X129788320Y-132434765D01*
X129975447Y-132206750D01*
X129975457Y-132206736D01*
X130177418Y-131904480D01*
X130177429Y-131904462D01*
X130348790Y-131583869D01*
X130348792Y-131583864D01*
X130487913Y-131247997D01*
X130593446Y-130900101D01*
X130593449Y-130900089D01*
X130619021Y-130771530D01*
X132699500Y-130771530D01*
X132699500Y-131228469D01*
X132739868Y-131431412D01*
X132739870Y-131431420D01*
X132809698Y-131600000D01*
X132819059Y-131622598D01*
X132876541Y-131708626D01*
X132934024Y-131794657D01*
X133080342Y-131940975D01*
X133080345Y-131940977D01*
X133252402Y-132055941D01*
X133443580Y-132135130D01*
X133632187Y-132172646D01*
X133646530Y-132175499D01*
X133646534Y-132175500D01*
X133646535Y-132175500D01*
X133853466Y-132175500D01*
X133853467Y-132175499D01*
X134056420Y-132135130D01*
X134247598Y-132055941D01*
X134419655Y-131940977D01*
X134565977Y-131794655D01*
X134680941Y-131622598D01*
X134760130Y-131431420D01*
X134800500Y-131228465D01*
X134800500Y-130771535D01*
X134800499Y-130771530D01*
X135199500Y-130771530D01*
X135199500Y-131228469D01*
X135239868Y-131431412D01*
X135239870Y-131431420D01*
X135309698Y-131600000D01*
X135319059Y-131622598D01*
X135376541Y-131708626D01*
X135434024Y-131794657D01*
X135580342Y-131940975D01*
X135580345Y-131940977D01*
X135752402Y-132055941D01*
X135943580Y-132135130D01*
X136132187Y-132172646D01*
X136146530Y-132175499D01*
X136146534Y-132175500D01*
X136146535Y-132175500D01*
X136353466Y-132175500D01*
X136353467Y-132175499D01*
X136556420Y-132135130D01*
X136747598Y-132055941D01*
X136919655Y-131940977D01*
X137065977Y-131794655D01*
X137180941Y-131622598D01*
X137260130Y-131431420D01*
X137300500Y-131228465D01*
X137300500Y-130771535D01*
X137300499Y-130771530D01*
X137699500Y-130771530D01*
X137699500Y-131228469D01*
X137739868Y-131431412D01*
X137739870Y-131431420D01*
X137809698Y-131600000D01*
X137819059Y-131622598D01*
X137876541Y-131708626D01*
X137934024Y-131794657D01*
X138080342Y-131940975D01*
X138080345Y-131940977D01*
X138252402Y-132055941D01*
X138443580Y-132135130D01*
X138632187Y-132172646D01*
X138646530Y-132175499D01*
X138646534Y-132175500D01*
X138646535Y-132175500D01*
X138853466Y-132175500D01*
X138853467Y-132175499D01*
X139056420Y-132135130D01*
X139247598Y-132055941D01*
X139419655Y-131940977D01*
X139565977Y-131794655D01*
X139680941Y-131622598D01*
X139726748Y-131512009D01*
X139770589Y-131457606D01*
X139836883Y-131435541D01*
X139904582Y-131452820D01*
X139952193Y-131503957D01*
X139959240Y-131521144D01*
X139998904Y-131643216D01*
X140095379Y-131832557D01*
X140220272Y-132004459D01*
X140220276Y-132004464D01*
X140370535Y-132154723D01*
X140370540Y-132154727D01*
X140542442Y-132279620D01*
X140731782Y-132376095D01*
X140933871Y-132441757D01*
X141000000Y-132452231D01*
X141000000Y-131404145D01*
X141066657Y-131442630D01*
X141187465Y-131475000D01*
X141312535Y-131475000D01*
X141433343Y-131442630D01*
X141500000Y-131404145D01*
X141500000Y-132452230D01*
X141566126Y-132441757D01*
X141566129Y-132441757D01*
X141768217Y-132376095D01*
X141957557Y-132279620D01*
X142129459Y-132154727D01*
X142129464Y-132154723D01*
X142279723Y-132004464D01*
X142279727Y-132004459D01*
X142404620Y-131832558D01*
X142501466Y-131642488D01*
X142549440Y-131591692D01*
X142617261Y-131574897D01*
X142683396Y-131597434D01*
X142722435Y-131642488D01*
X142766002Y-131727992D01*
X142766003Y-131727993D01*
X142872441Y-131874494D01*
X142872445Y-131874499D01*
X143000500Y-132002554D01*
X143000505Y-132002558D01*
X143128287Y-132095396D01*
X143147006Y-132108996D01*
X143236750Y-132154723D01*
X143308360Y-132191211D01*
X143308363Y-132191212D01*
X143394476Y-132219191D01*
X143480591Y-132247171D01*
X143563429Y-132260291D01*
X143659449Y-132275500D01*
X143659454Y-132275500D01*
X143840551Y-132275500D01*
X143927259Y-132261765D01*
X144019409Y-132247171D01*
X144191639Y-132191211D01*
X144352994Y-132108996D01*
X144499501Y-132002553D01*
X144627553Y-131874501D01*
X144733996Y-131727994D01*
X144816211Y-131566639D01*
X144872171Y-131394409D01*
X144894054Y-131256246D01*
X144900500Y-131215551D01*
X144900500Y-130784448D01*
X144873532Y-130614187D01*
X144872171Y-130605591D01*
X144839348Y-130504570D01*
X144816212Y-130433363D01*
X144816211Y-130433360D01*
X144735078Y-130274130D01*
X144735077Y-130274128D01*
X144733995Y-130272004D01*
X144696743Y-130220730D01*
X145199500Y-130220730D01*
X145199500Y-131779269D01*
X145202353Y-131809699D01*
X145202353Y-131809701D01*
X145235519Y-131904480D01*
X145247207Y-131937882D01*
X145327850Y-132047150D01*
X145437118Y-132127793D01*
X145458089Y-132135131D01*
X145565299Y-132172646D01*
X145595730Y-132175500D01*
X145595734Y-132175500D01*
X146904270Y-132175500D01*
X146934699Y-132172646D01*
X146934701Y-132172646D01*
X147016133Y-132144151D01*
X147062882Y-132127793D01*
X147172150Y-132047150D01*
X147252793Y-131937882D01*
X147281929Y-131854616D01*
X147297646Y-131809701D01*
X147297646Y-131809699D01*
X147300500Y-131779269D01*
X147300500Y-130743753D01*
X151437500Y-130743753D01*
X151437500Y-130750000D01*
X152354488Y-130750000D01*
X152321575Y-130807007D01*
X152287500Y-130934174D01*
X152287500Y-131065826D01*
X152321575Y-131192993D01*
X152354488Y-131250000D01*
X151437500Y-131250000D01*
X151437500Y-131256246D01*
X151470742Y-131466127D01*
X151470742Y-131466130D01*
X151536404Y-131668217D01*
X151632879Y-131857557D01*
X151757772Y-132029459D01*
X151757776Y-132029464D01*
X151908035Y-132179723D01*
X151908040Y-132179727D01*
X152079942Y-132304620D01*
X152269282Y-132401095D01*
X152471371Y-132466757D01*
X152537500Y-132477231D01*
X152537500Y-131433012D01*
X152594507Y-131465925D01*
X152721674Y-131500000D01*
X152853326Y-131500000D01*
X152980493Y-131465925D01*
X153037500Y-131433012D01*
X153037500Y-132477230D01*
X153103626Y-132466757D01*
X153103629Y-132466757D01*
X153305717Y-132401095D01*
X153495057Y-132304620D01*
X153666959Y-132179727D01*
X153666964Y-132179723D01*
X153817221Y-132029466D01*
X153936393Y-131865439D01*
X153991723Y-131822773D01*
X154061336Y-131816794D01*
X154123132Y-131849399D01*
X154152066Y-131892833D01*
X154203138Y-132022341D01*
X154294577Y-132142922D01*
X154415156Y-132234360D01*
X154415157Y-132234360D01*
X154415158Y-132234361D01*
X154555936Y-132289877D01*
X154644398Y-132300500D01*
X154644403Y-132300500D01*
X155930597Y-132300500D01*
X155930602Y-132300500D01*
X156019064Y-132289877D01*
X156159842Y-132234361D01*
X156280422Y-132142922D01*
X156371861Y-132022342D01*
X156427377Y-131881564D01*
X156438000Y-131793102D01*
X156438000Y-130206898D01*
X156427377Y-130118436D01*
X156371861Y-129977658D01*
X156371860Y-129977657D01*
X156371860Y-129977656D01*
X156305473Y-129890112D01*
X156280422Y-129857077D01*
X156229200Y-129818234D01*
X158300000Y-129818234D01*
X158300000Y-130181765D01*
X158335632Y-130543556D01*
X158406550Y-130900090D01*
X158406553Y-130900101D01*
X158512086Y-131247997D01*
X158651207Y-131583864D01*
X158651209Y-131583869D01*
X158822570Y-131904462D01*
X158822581Y-131904480D01*
X159024551Y-132206750D01*
X159211678Y-132434765D01*
X159211679Y-132434766D01*
X160705747Y-130940697D01*
X160779588Y-131042330D01*
X160957670Y-131220412D01*
X161059301Y-131294251D01*
X159565232Y-132788319D01*
X159565233Y-132788320D01*
X159793249Y-132975448D01*
X160095519Y-133177418D01*
X160095537Y-133177429D01*
X160416130Y-133348790D01*
X160416135Y-133348792D01*
X160752002Y-133487913D01*
X161099898Y-133593446D01*
X161099909Y-133593449D01*
X161456443Y-133664367D01*
X161818234Y-133700000D01*
X162181766Y-133700000D01*
X162543556Y-133664367D01*
X162900090Y-133593449D01*
X162900101Y-133593446D01*
X163247997Y-133487913D01*
X163583864Y-133348792D01*
X163583869Y-133348790D01*
X163904462Y-133177429D01*
X163904480Y-133177418D01*
X164206736Y-132975457D01*
X164206750Y-132975447D01*
X164434765Y-132788320D01*
X164434766Y-132788319D01*
X162940698Y-131294251D01*
X163042330Y-131220412D01*
X163220412Y-131042330D01*
X163294251Y-130940698D01*
X164788319Y-132434766D01*
X164788320Y-132434765D01*
X164975447Y-132206750D01*
X164975457Y-132206736D01*
X165177418Y-131904480D01*
X165177429Y-131904462D01*
X165348790Y-131583869D01*
X165348792Y-131583864D01*
X165487913Y-131247997D01*
X165593446Y-130900101D01*
X165593449Y-130900090D01*
X165664367Y-130543556D01*
X165700000Y-130181765D01*
X165700000Y-129818234D01*
X165664367Y-129456443D01*
X165593449Y-129099909D01*
X165593446Y-129099898D01*
X165487913Y-128752002D01*
X165348792Y-128416135D01*
X165348790Y-128416130D01*
X165177429Y-128095537D01*
X165177418Y-128095519D01*
X164975448Y-127793249D01*
X164788320Y-127565233D01*
X164788319Y-127565232D01*
X163294251Y-129059300D01*
X163220412Y-128957670D01*
X163042330Y-128779588D01*
X162940698Y-128705748D01*
X164434766Y-127211679D01*
X164434765Y-127211678D01*
X164206750Y-127024551D01*
X163904480Y-126822581D01*
X163904462Y-126822570D01*
X163583869Y-126651209D01*
X163583864Y-126651207D01*
X163247997Y-126512086D01*
X162900101Y-126406553D01*
X162900090Y-126406550D01*
X162543556Y-126335632D01*
X162181766Y-126300000D01*
X161818234Y-126300000D01*
X161456443Y-126335632D01*
X161099909Y-126406550D01*
X161099898Y-126406553D01*
X160752002Y-126512086D01*
X160416135Y-126651207D01*
X160416130Y-126651209D01*
X160095537Y-126822570D01*
X160095519Y-126822581D01*
X159793258Y-127024545D01*
X159793254Y-127024548D01*
X159565233Y-127211679D01*
X159565233Y-127211680D01*
X161059301Y-128705748D01*
X160957670Y-128779588D01*
X160779588Y-128957670D01*
X160705748Y-129059301D01*
X159211680Y-127565233D01*
X159211679Y-127565233D01*
X159024548Y-127793254D01*
X159024545Y-127793258D01*
X158822581Y-128095519D01*
X158822570Y-128095537D01*
X158651209Y-128416130D01*
X158651207Y-128416135D01*
X158512086Y-128752002D01*
X158406553Y-129099898D01*
X158406550Y-129099909D01*
X158335632Y-129456443D01*
X158300000Y-129818234D01*
X156229200Y-129818234D01*
X156159843Y-129765639D01*
X156019061Y-129710122D01*
X155973426Y-129704642D01*
X155930602Y-129699500D01*
X154644398Y-129699500D01*
X154605353Y-129704188D01*
X154555938Y-129710122D01*
X154415156Y-129765639D01*
X154294577Y-129857077D01*
X154203138Y-129977658D01*
X154152066Y-130107166D01*
X154109160Y-130162309D01*
X154043252Y-130185502D01*
X153975268Y-130169381D01*
X153936394Y-130134560D01*
X153817227Y-129970540D01*
X153817223Y-129970535D01*
X153666964Y-129820276D01*
X153666959Y-129820272D01*
X153495057Y-129695379D01*
X153305715Y-129598903D01*
X153103624Y-129533241D01*
X153037500Y-129522768D01*
X153037500Y-130566988D01*
X152980493Y-130534075D01*
X152853326Y-130500000D01*
X152721674Y-130500000D01*
X152594507Y-130534075D01*
X152537500Y-130566988D01*
X152537500Y-129522768D01*
X152537499Y-129522768D01*
X152471375Y-129533241D01*
X152269284Y-129598903D01*
X152079942Y-129695379D01*
X151908040Y-129820272D01*
X151908035Y-129820276D01*
X151757776Y-129970535D01*
X151757772Y-129970540D01*
X151632879Y-130142442D01*
X151536404Y-130331782D01*
X151470742Y-130533869D01*
X151470742Y-130533872D01*
X151437500Y-130743753D01*
X147300500Y-130743753D01*
X147300500Y-130220730D01*
X147297646Y-130190300D01*
X147297646Y-130190298D01*
X147252793Y-130062119D01*
X147252792Y-130062117D01*
X147172150Y-129952850D01*
X147062882Y-129872207D01*
X147062880Y-129872206D01*
X146934700Y-129827353D01*
X146904270Y-129824500D01*
X146904266Y-129824500D01*
X145595734Y-129824500D01*
X145595730Y-129824500D01*
X145565300Y-129827353D01*
X145565298Y-129827353D01*
X145437119Y-129872206D01*
X145437117Y-129872207D01*
X145327850Y-129952850D01*
X145247207Y-130062117D01*
X145247206Y-130062119D01*
X145202353Y-130190298D01*
X145202353Y-130190300D01*
X145199500Y-130220730D01*
X144696743Y-130220730D01*
X144627558Y-130125505D01*
X144627554Y-130125500D01*
X144499499Y-129997445D01*
X144499494Y-129997441D01*
X144352997Y-129891006D01*
X144352996Y-129891005D01*
X144352994Y-129891004D01*
X144286409Y-129857077D01*
X144191639Y-129808788D01*
X144191636Y-129808787D01*
X144019410Y-129752829D01*
X143840551Y-129724500D01*
X143840546Y-129724500D01*
X143659454Y-129724500D01*
X143659449Y-129724500D01*
X143480589Y-129752829D01*
X143308363Y-129808787D01*
X143308360Y-129808788D01*
X143147002Y-129891006D01*
X143000505Y-129997441D01*
X143000500Y-129997445D01*
X142872445Y-130125500D01*
X142872441Y-130125505D01*
X142766004Y-130272004D01*
X142722435Y-130357512D01*
X142674460Y-130408307D01*
X142606639Y-130425102D01*
X142540504Y-130402564D01*
X142501466Y-130357511D01*
X142404620Y-130167442D01*
X142279727Y-129995540D01*
X142279723Y-129995535D01*
X142129464Y-129845276D01*
X142129459Y-129845272D01*
X141957557Y-129720379D01*
X141768215Y-129623903D01*
X141566124Y-129558241D01*
X141500000Y-129547768D01*
X141500000Y-130595854D01*
X141433343Y-130557370D01*
X141312535Y-130525000D01*
X141187465Y-130525000D01*
X141066657Y-130557370D01*
X141000000Y-130595854D01*
X141000000Y-129547768D01*
X140999999Y-129547768D01*
X140933875Y-129558241D01*
X140731784Y-129623903D01*
X140542442Y-129720379D01*
X140370540Y-129845272D01*
X140370535Y-129845276D01*
X140220276Y-129995535D01*
X140220272Y-129995540D01*
X140095379Y-130167442D01*
X139998905Y-130356781D01*
X139959240Y-130478856D01*
X139919802Y-130536531D01*
X139855443Y-130563729D01*
X139786597Y-130551814D01*
X139735121Y-130504570D01*
X139726748Y-130487990D01*
X139722965Y-130478856D01*
X139680941Y-130377402D01*
X139565977Y-130205345D01*
X139565975Y-130205342D01*
X139419657Y-130059024D01*
X139287222Y-129970535D01*
X139247598Y-129944059D01*
X139056420Y-129864870D01*
X139056412Y-129864868D01*
X138853469Y-129824500D01*
X138853465Y-129824500D01*
X138646535Y-129824500D01*
X138646530Y-129824500D01*
X138443587Y-129864868D01*
X138443579Y-129864870D01*
X138252403Y-129944058D01*
X138080342Y-130059024D01*
X137934024Y-130205342D01*
X137819058Y-130377403D01*
X137739870Y-130568579D01*
X137739868Y-130568587D01*
X137699500Y-130771530D01*
X137300499Y-130771530D01*
X137260130Y-130568580D01*
X137180941Y-130377402D01*
X137065977Y-130205345D01*
X137065975Y-130205342D01*
X136919657Y-130059024D01*
X136787222Y-129970535D01*
X136747598Y-129944059D01*
X136556420Y-129864870D01*
X136556412Y-129864868D01*
X136353469Y-129824500D01*
X136353465Y-129824500D01*
X136146535Y-129824500D01*
X136146530Y-129824500D01*
X135943587Y-129864868D01*
X135943579Y-129864870D01*
X135752403Y-129944058D01*
X135580342Y-130059024D01*
X135434024Y-130205342D01*
X135319058Y-130377403D01*
X135239870Y-130568579D01*
X135239868Y-130568587D01*
X135199500Y-130771530D01*
X134800499Y-130771530D01*
X134760130Y-130568580D01*
X134680941Y-130377402D01*
X134565977Y-130205345D01*
X134565975Y-130205342D01*
X134419657Y-130059024D01*
X134287222Y-129970535D01*
X134247598Y-129944059D01*
X134056420Y-129864870D01*
X134056412Y-129864868D01*
X133853469Y-129824500D01*
X133853465Y-129824500D01*
X133646535Y-129824500D01*
X133646530Y-129824500D01*
X133443587Y-129864868D01*
X133443579Y-129864870D01*
X133252403Y-129944058D01*
X133080342Y-130059024D01*
X132934024Y-130205342D01*
X132819058Y-130377403D01*
X132739870Y-130568579D01*
X132739868Y-130568587D01*
X132699500Y-130771530D01*
X130619021Y-130771530D01*
X130625044Y-130741252D01*
X130664367Y-130543556D01*
X130700000Y-130181765D01*
X130700000Y-129818234D01*
X130664367Y-129456443D01*
X130593449Y-129099909D01*
X130593446Y-129099898D01*
X130487913Y-128752002D01*
X130348792Y-128416135D01*
X130348790Y-128416130D01*
X130177429Y-128095537D01*
X130177418Y-128095519D01*
X129975448Y-127793249D01*
X129828769Y-127614520D01*
X129828768Y-127614519D01*
X129788319Y-127565232D01*
X128294251Y-129059300D01*
X128220412Y-128957670D01*
X128042330Y-128779588D01*
X127940698Y-128705748D01*
X129102463Y-127543982D01*
X138374500Y-127543982D01*
X138374500Y-127656018D01*
X138403497Y-127764237D01*
X138459515Y-127861263D01*
X138538737Y-127940485D01*
X138635763Y-127996503D01*
X138743982Y-128025500D01*
X138743984Y-128025500D01*
X138856016Y-128025500D01*
X138856018Y-128025500D01*
X138964237Y-127996503D01*
X139061263Y-127940485D01*
X139140485Y-127861263D01*
X139196503Y-127764237D01*
X139225500Y-127656018D01*
X139225500Y-127543982D01*
X139196503Y-127435763D01*
X139140485Y-127338737D01*
X139061263Y-127259515D01*
X138996579Y-127222169D01*
X138964239Y-127203498D01*
X138964238Y-127203497D01*
X138964237Y-127203497D01*
X138856018Y-127174500D01*
X138743982Y-127174500D01*
X138635763Y-127203497D01*
X138635760Y-127203498D01*
X138538740Y-127259513D01*
X138538734Y-127259517D01*
X138459517Y-127338734D01*
X138459513Y-127338740D01*
X138403498Y-127435760D01*
X138403497Y-127435763D01*
X138374500Y-127543982D01*
X129102463Y-127543982D01*
X129434766Y-127211679D01*
X129434765Y-127211678D01*
X129206750Y-127024551D01*
X128904480Y-126822581D01*
X128904462Y-126822570D01*
X128583869Y-126651209D01*
X128583864Y-126651207D01*
X128247997Y-126512086D01*
X127900101Y-126406553D01*
X127900090Y-126406550D01*
X127543556Y-126335632D01*
X127181766Y-126300000D01*
X126818234Y-126300000D01*
X126456443Y-126335632D01*
X126099909Y-126406550D01*
X126099898Y-126406553D01*
X125752002Y-126512086D01*
X125416135Y-126651207D01*
X125416130Y-126651209D01*
X125095537Y-126822570D01*
X125095519Y-126822581D01*
X124793258Y-127024545D01*
X124793254Y-127024548D01*
X124565233Y-127211679D01*
X124565233Y-127211680D01*
X126059301Y-128705748D01*
X125957670Y-128779588D01*
X125779588Y-128957670D01*
X125705748Y-129059301D01*
X124211680Y-127565233D01*
X124211679Y-127565233D01*
X124024548Y-127793254D01*
X124024545Y-127793258D01*
X123822581Y-128095519D01*
X123822570Y-128095537D01*
X123651209Y-128416130D01*
X123651207Y-128416135D01*
X123512086Y-128752002D01*
X123406553Y-129099898D01*
X123406550Y-129099909D01*
X123335632Y-129456443D01*
X123300000Y-129818234D01*
X123037526Y-129818234D01*
X123034883Y-126011304D01*
X150699500Y-126011304D01*
X150699500Y-126188695D01*
X150734103Y-126362658D01*
X150734106Y-126362667D01*
X150801983Y-126526540D01*
X150801990Y-126526553D01*
X150900535Y-126674034D01*
X150900538Y-126674038D01*
X151025961Y-126799461D01*
X151025965Y-126799464D01*
X151173446Y-126898009D01*
X151173459Y-126898016D01*
X151296363Y-126948923D01*
X151337334Y-126965894D01*
X151337336Y-126965894D01*
X151337341Y-126965896D01*
X151511304Y-127000499D01*
X151511307Y-127000500D01*
X151511309Y-127000500D01*
X151688693Y-127000500D01*
X151688694Y-127000499D01*
X151746682Y-126988964D01*
X151862658Y-126965896D01*
X151862661Y-126965894D01*
X151862666Y-126965894D01*
X152026547Y-126898013D01*
X152174035Y-126799464D01*
X152299464Y-126674035D01*
X152398013Y-126526547D01*
X152465894Y-126362666D01*
X152471272Y-126335632D01*
X152500499Y-126188695D01*
X152500500Y-126188693D01*
X152500500Y-126011306D01*
X152500499Y-126011304D01*
X152465896Y-125837341D01*
X152465893Y-125837332D01*
X152398016Y-125673459D01*
X152398009Y-125673446D01*
X152299464Y-125525965D01*
X152299461Y-125525961D01*
X152174038Y-125400538D01*
X152174034Y-125400535D01*
X152026553Y-125301990D01*
X152026540Y-125301983D01*
X151862667Y-125234106D01*
X151862658Y-125234103D01*
X151688694Y-125199500D01*
X151688691Y-125199500D01*
X151511309Y-125199500D01*
X151511306Y-125199500D01*
X151337341Y-125234103D01*
X151337332Y-125234106D01*
X151173459Y-125301983D01*
X151173446Y-125301990D01*
X151025965Y-125400535D01*
X151025961Y-125400538D01*
X150900538Y-125525961D01*
X150900535Y-125525965D01*
X150801990Y-125673446D01*
X150801983Y-125673459D01*
X150734106Y-125837332D01*
X150734103Y-125837341D01*
X150699500Y-126011304D01*
X123034883Y-126011304D01*
X123033378Y-123843982D01*
X135474500Y-123843982D01*
X135474500Y-123956018D01*
X135503497Y-124064237D01*
X135559515Y-124161263D01*
X135638737Y-124240485D01*
X135735763Y-124296503D01*
X135843982Y-124325500D01*
X135843984Y-124325500D01*
X135956016Y-124325500D01*
X135956018Y-124325500D01*
X136064237Y-124296503D01*
X136161263Y-124240485D01*
X136240485Y-124161263D01*
X136296503Y-124064237D01*
X136325500Y-123956018D01*
X136325500Y-123843982D01*
X136296503Y-123735763D01*
X136240485Y-123638737D01*
X136161263Y-123559515D01*
X136064237Y-123503497D01*
X135956018Y-123474500D01*
X135843982Y-123474500D01*
X135735763Y-123503497D01*
X135735760Y-123503498D01*
X135638740Y-123559513D01*
X135638734Y-123559517D01*
X135559517Y-123638734D01*
X135559513Y-123638740D01*
X135503498Y-123735760D01*
X135503497Y-123735763D01*
X135474500Y-123843982D01*
X123033378Y-123843982D01*
X123032199Y-122146530D01*
X161612000Y-122146530D01*
X161612000Y-122353469D01*
X161652368Y-122556412D01*
X161652370Y-122556420D01*
X161731558Y-122747596D01*
X161846524Y-122919657D01*
X161992842Y-123065975D01*
X161992845Y-123065977D01*
X162164902Y-123180941D01*
X162356080Y-123260130D01*
X162559030Y-123300499D01*
X162559034Y-123300500D01*
X162559035Y-123300500D01*
X163015966Y-123300500D01*
X163015967Y-123300499D01*
X163218920Y-123260130D01*
X163410098Y-123180941D01*
X163582155Y-123065977D01*
X163728477Y-122919655D01*
X163843441Y-122747598D01*
X163922630Y-122556420D01*
X163963000Y-122353465D01*
X163963000Y-122146535D01*
X163922630Y-121943580D01*
X163843441Y-121752402D01*
X163728477Y-121580345D01*
X163728475Y-121580342D01*
X163582157Y-121434024D01*
X163496126Y-121376541D01*
X163410098Y-121319059D01*
X163336793Y-121288695D01*
X163218920Y-121239870D01*
X163218912Y-121239868D01*
X163015969Y-121199500D01*
X163015965Y-121199500D01*
X162559035Y-121199500D01*
X162559030Y-121199500D01*
X162356087Y-121239868D01*
X162356079Y-121239870D01*
X162164903Y-121319058D01*
X161992842Y-121434024D01*
X161846524Y-121580342D01*
X161731558Y-121752403D01*
X161652370Y-121943579D01*
X161652368Y-121943587D01*
X161612000Y-122146530D01*
X123032199Y-122146530D01*
X123031480Y-121111304D01*
X135299500Y-121111304D01*
X135299500Y-121288695D01*
X135334103Y-121462658D01*
X135334106Y-121462667D01*
X135401983Y-121626540D01*
X135401990Y-121626553D01*
X135500535Y-121774034D01*
X135500538Y-121774038D01*
X135625961Y-121899461D01*
X135625965Y-121899464D01*
X135773446Y-121998009D01*
X135773459Y-121998016D01*
X135840735Y-122025882D01*
X135937334Y-122065894D01*
X135937336Y-122065894D01*
X135937341Y-122065896D01*
X136111304Y-122100499D01*
X136111307Y-122100500D01*
X136111309Y-122100500D01*
X136288693Y-122100500D01*
X136288694Y-122100499D01*
X136346682Y-122088964D01*
X136462658Y-122065896D01*
X136462661Y-122065894D01*
X136462666Y-122065894D01*
X136559265Y-122025882D01*
X136626541Y-121998016D01*
X136626544Y-121998014D01*
X136626547Y-121998013D01*
X136774035Y-121899464D01*
X136899464Y-121774035D01*
X136998013Y-121626547D01*
X137065894Y-121462666D01*
X137071592Y-121434024D01*
X137094459Y-121319059D01*
X137100500Y-121288691D01*
X137100500Y-121111309D01*
X137100500Y-121111306D01*
X137100499Y-121111304D01*
X137065896Y-120937341D01*
X137065893Y-120937332D01*
X136998016Y-120773459D01*
X136998009Y-120773446D01*
X136899464Y-120625965D01*
X136899461Y-120625961D01*
X136774038Y-120500538D01*
X136774034Y-120500535D01*
X136626553Y-120401990D01*
X136626540Y-120401983D01*
X136462667Y-120334106D01*
X136462658Y-120334103D01*
X136288694Y-120299500D01*
X136288691Y-120299500D01*
X136111309Y-120299500D01*
X136111306Y-120299500D01*
X135937341Y-120334103D01*
X135937332Y-120334106D01*
X135773459Y-120401983D01*
X135773446Y-120401990D01*
X135625965Y-120500535D01*
X135625961Y-120500538D01*
X135500538Y-120625961D01*
X135500535Y-120625965D01*
X135401990Y-120773446D01*
X135401983Y-120773459D01*
X135334106Y-120937332D01*
X135334103Y-120937341D01*
X135299500Y-121111304D01*
X123031480Y-121111304D01*
X123031245Y-120773459D01*
X123030253Y-119343982D01*
X136674500Y-119343982D01*
X136674500Y-119456018D01*
X136703497Y-119564237D01*
X136759515Y-119661263D01*
X136838737Y-119740485D01*
X136935763Y-119796503D01*
X137043982Y-119825500D01*
X137043984Y-119825500D01*
X137156016Y-119825500D01*
X137156018Y-119825500D01*
X137264237Y-119796503D01*
X137361263Y-119740485D01*
X137440485Y-119661263D01*
X137448991Y-119646530D01*
X161612000Y-119646530D01*
X161612000Y-119853469D01*
X161652368Y-120056412D01*
X161652370Y-120056420D01*
X161731558Y-120247596D01*
X161846524Y-120419657D01*
X161992842Y-120565975D01*
X161992845Y-120565977D01*
X162164902Y-120680941D01*
X162356080Y-120760130D01*
X162559030Y-120800499D01*
X162559034Y-120800500D01*
X162559035Y-120800500D01*
X163015966Y-120800500D01*
X163015967Y-120800499D01*
X163218920Y-120760130D01*
X163410098Y-120680941D01*
X163582155Y-120565977D01*
X163728477Y-120419655D01*
X163843441Y-120247598D01*
X163922630Y-120056420D01*
X163963000Y-119853465D01*
X163963000Y-119646535D01*
X163922630Y-119443580D01*
X163843441Y-119252402D01*
X163728477Y-119080345D01*
X163728475Y-119080342D01*
X163582157Y-118934024D01*
X163477711Y-118864236D01*
X163410098Y-118819059D01*
X163257904Y-118756018D01*
X163218920Y-118739870D01*
X163218912Y-118739868D01*
X163015969Y-118699500D01*
X163015965Y-118699500D01*
X162559035Y-118699500D01*
X162559030Y-118699500D01*
X162356087Y-118739868D01*
X162356079Y-118739870D01*
X162164903Y-118819058D01*
X161992842Y-118934024D01*
X161846524Y-119080342D01*
X161731558Y-119252403D01*
X161652370Y-119443579D01*
X161652368Y-119443587D01*
X161612000Y-119646530D01*
X137448991Y-119646530D01*
X137496503Y-119564237D01*
X137525500Y-119456018D01*
X137525500Y-119343982D01*
X137496503Y-119235763D01*
X137440485Y-119138737D01*
X137361263Y-119059515D01*
X137264237Y-119003497D01*
X137156018Y-118974500D01*
X137043982Y-118974500D01*
X136935763Y-119003497D01*
X136935760Y-119003498D01*
X136838740Y-119059513D01*
X136838734Y-119059517D01*
X136759517Y-119138734D01*
X136759513Y-119138740D01*
X136703498Y-119235760D01*
X136703497Y-119235763D01*
X136674500Y-119343982D01*
X123030253Y-119343982D01*
X123030247Y-119335941D01*
X123030177Y-119235763D01*
X123029766Y-118643982D01*
X153974500Y-118643982D01*
X153974500Y-118756018D01*
X154003497Y-118864237D01*
X154059515Y-118961263D01*
X154138737Y-119040485D01*
X154235763Y-119096503D01*
X154343982Y-119125500D01*
X154343984Y-119125500D01*
X154456016Y-119125500D01*
X154456018Y-119125500D01*
X154564237Y-119096503D01*
X154661263Y-119040485D01*
X154740485Y-118961263D01*
X154796503Y-118864237D01*
X154825500Y-118756018D01*
X154825500Y-118643982D01*
X154796503Y-118535763D01*
X154740485Y-118438737D01*
X154661263Y-118359515D01*
X154564237Y-118303497D01*
X154456018Y-118274500D01*
X154343982Y-118274500D01*
X154235763Y-118303497D01*
X154235760Y-118303498D01*
X154138740Y-118359513D01*
X154138734Y-118359517D01*
X154059517Y-118438734D01*
X154059513Y-118438740D01*
X154003498Y-118535760D01*
X154003497Y-118535763D01*
X153974500Y-118643982D01*
X123029766Y-118643982D01*
X123029624Y-118438734D01*
X123028795Y-117243982D01*
X153874500Y-117243982D01*
X153874500Y-117356018D01*
X153903497Y-117464237D01*
X153959515Y-117561263D01*
X154038737Y-117640485D01*
X154135763Y-117696503D01*
X154243982Y-117725500D01*
X154243984Y-117725500D01*
X154356016Y-117725500D01*
X154356018Y-117725500D01*
X154464237Y-117696503D01*
X154561263Y-117640485D01*
X154640485Y-117561263D01*
X154696503Y-117464237D01*
X154725500Y-117356018D01*
X154725500Y-117243982D01*
X154696503Y-117135763D01*
X154640485Y-117038737D01*
X154561263Y-116959515D01*
X154464237Y-116903497D01*
X154356018Y-116874500D01*
X154243982Y-116874500D01*
X154135763Y-116903497D01*
X154135760Y-116903498D01*
X154038740Y-116959513D01*
X154038734Y-116959517D01*
X153959517Y-117038734D01*
X153959513Y-117038740D01*
X153903498Y-117135760D01*
X153903497Y-117135763D01*
X153874500Y-117243982D01*
X123028795Y-117243982D01*
X123028789Y-117235941D01*
X123028084Y-116221153D01*
X147199500Y-116221153D01*
X147199500Y-116378846D01*
X147230261Y-116533489D01*
X147230264Y-116533501D01*
X147290602Y-116679172D01*
X147290609Y-116679185D01*
X147378210Y-116810288D01*
X147378213Y-116810292D01*
X147489707Y-116921786D01*
X147489711Y-116921789D01*
X147620814Y-117009390D01*
X147620827Y-117009397D01*
X147766498Y-117069735D01*
X147766503Y-117069737D01*
X147921153Y-117100499D01*
X147921156Y-117100500D01*
X147921158Y-117100500D01*
X148078844Y-117100500D01*
X148078845Y-117100499D01*
X148233497Y-117069737D01*
X148379179Y-117009394D01*
X148510289Y-116921789D01*
X148621789Y-116810289D01*
X148709394Y-116679179D01*
X148769737Y-116533497D01*
X148800500Y-116378842D01*
X148800500Y-116221158D01*
X148800500Y-116221155D01*
X148800499Y-116221153D01*
X148782096Y-116128636D01*
X148769737Y-116066503D01*
X148756422Y-116034358D01*
X148709397Y-115920827D01*
X148709390Y-115920814D01*
X148621789Y-115789711D01*
X148621786Y-115789707D01*
X148510292Y-115678213D01*
X148510288Y-115678210D01*
X148379185Y-115590609D01*
X148379172Y-115590602D01*
X148282152Y-115550416D01*
X148233501Y-115530264D01*
X148233489Y-115530261D01*
X148078845Y-115499500D01*
X148078842Y-115499500D01*
X147921158Y-115499500D01*
X147921155Y-115499500D01*
X147766510Y-115530261D01*
X147766498Y-115530264D01*
X147620827Y-115590602D01*
X147620814Y-115590609D01*
X147489711Y-115678210D01*
X147489707Y-115678213D01*
X147378213Y-115789707D01*
X147378210Y-115789711D01*
X147290609Y-115920814D01*
X147290602Y-115920827D01*
X147230264Y-116066498D01*
X147230261Y-116066510D01*
X147199500Y-116221153D01*
X123028084Y-116221153D01*
X123028080Y-116215152D01*
X123027544Y-115443982D01*
X153574500Y-115443982D01*
X153574500Y-115556017D01*
X153603497Y-115664236D01*
X153603498Y-115664239D01*
X153611564Y-115678210D01*
X153659515Y-115761263D01*
X153738737Y-115840485D01*
X153835763Y-115896503D01*
X153943982Y-115925500D01*
X153943984Y-115925500D01*
X154056016Y-115925500D01*
X154056018Y-115925500D01*
X154164237Y-115896503D01*
X154261263Y-115840485D01*
X154340485Y-115761263D01*
X154396503Y-115664237D01*
X154425500Y-115556018D01*
X154425500Y-115443982D01*
X154396503Y-115335763D01*
X154340485Y-115238737D01*
X154261263Y-115159515D01*
X154164237Y-115103497D01*
X154056018Y-115074500D01*
X153943982Y-115074500D01*
X153835763Y-115103497D01*
X153835760Y-115103498D01*
X153738740Y-115159513D01*
X153738734Y-115159517D01*
X153659517Y-115238734D01*
X153659513Y-115238740D01*
X153603498Y-115335760D01*
X153603497Y-115335763D01*
X153574500Y-115443982D01*
X123027544Y-115443982D01*
X123027392Y-115225000D01*
X123026503Y-113943982D01*
X153974500Y-113943982D01*
X153974500Y-114056018D01*
X154003497Y-114164237D01*
X154059515Y-114261263D01*
X154138737Y-114340485D01*
X154235763Y-114396503D01*
X154343982Y-114425500D01*
X154343984Y-114425500D01*
X154456016Y-114425500D01*
X154456018Y-114425500D01*
X154564237Y-114396503D01*
X154661263Y-114340485D01*
X154740485Y-114261263D01*
X154796503Y-114164237D01*
X154813712Y-114100013D01*
X161312500Y-114100013D01*
X161312500Y-114500000D01*
X162383354Y-114500000D01*
X162344870Y-114566657D01*
X162312500Y-114687465D01*
X162312500Y-114812535D01*
X162344870Y-114933343D01*
X162383354Y-115000000D01*
X161312501Y-115000000D01*
X161312501Y-115399986D01*
X161322994Y-115502697D01*
X161378141Y-115669119D01*
X161378143Y-115669124D01*
X161470184Y-115818345D01*
X161594154Y-115942315D01*
X161743375Y-116034356D01*
X161743380Y-116034358D01*
X161909802Y-116089505D01*
X161909809Y-116089506D01*
X161931269Y-116091699D01*
X161995960Y-116118095D01*
X162036112Y-116175276D01*
X162038975Y-116245087D01*
X162003641Y-116305364D01*
X161991551Y-116315375D01*
X161913005Y-116372441D01*
X161913000Y-116372445D01*
X161784945Y-116500500D01*
X161784941Y-116500505D01*
X161678506Y-116647002D01*
X161596288Y-116808360D01*
X161596287Y-116808363D01*
X161540329Y-116980589D01*
X161512000Y-117159448D01*
X161512000Y-117340551D01*
X161540329Y-117519410D01*
X161596287Y-117691636D01*
X161596288Y-117691639D01*
X161678506Y-117852997D01*
X161784941Y-117999494D01*
X161784945Y-117999499D01*
X161913000Y-118127554D01*
X161913005Y-118127558D01*
X162040787Y-118220396D01*
X162059506Y-118233996D01*
X162164984Y-118287740D01*
X162220860Y-118316211D01*
X162220863Y-118316212D01*
X162306976Y-118344191D01*
X162393091Y-118372171D01*
X162475929Y-118385291D01*
X162571949Y-118400500D01*
X162571954Y-118400500D01*
X163003051Y-118400500D01*
X163089759Y-118386765D01*
X163181909Y-118372171D01*
X163354139Y-118316211D01*
X163515494Y-118233996D01*
X163662001Y-118127553D01*
X163790053Y-117999501D01*
X163896496Y-117852994D01*
X163978711Y-117691639D01*
X164034671Y-117519409D01*
X164049265Y-117427259D01*
X164063000Y-117340551D01*
X164063000Y-117159448D01*
X164039232Y-117009390D01*
X164034671Y-116980591D01*
X164000201Y-116874500D01*
X163978712Y-116808363D01*
X163978711Y-116808360D01*
X163950240Y-116752484D01*
X163896496Y-116647006D01*
X163882896Y-116628287D01*
X163790058Y-116500505D01*
X163790054Y-116500500D01*
X163661999Y-116372445D01*
X163661994Y-116372441D01*
X163583448Y-116315374D01*
X163540782Y-116260044D01*
X163534803Y-116190431D01*
X163567409Y-116128636D01*
X163628247Y-116094279D01*
X163643735Y-116091698D01*
X163665196Y-116089506D01*
X163831619Y-116034358D01*
X163831624Y-116034356D01*
X163980845Y-115942315D01*
X164104815Y-115818345D01*
X164196856Y-115669124D01*
X164196858Y-115669119D01*
X164252005Y-115502697D01*
X164252006Y-115502690D01*
X164262499Y-115399986D01*
X164262500Y-115399973D01*
X164262500Y-115000000D01*
X163191646Y-115000000D01*
X163230130Y-114933343D01*
X163262500Y-114812535D01*
X163262500Y-114687465D01*
X163230130Y-114566657D01*
X163191646Y-114500000D01*
X164262499Y-114500000D01*
X164262499Y-114100028D01*
X164262498Y-114100013D01*
X164252005Y-113997302D01*
X164196858Y-113830880D01*
X164196856Y-113830875D01*
X164104815Y-113681654D01*
X163980845Y-113557684D01*
X163831624Y-113465643D01*
X163831619Y-113465641D01*
X163665197Y-113410494D01*
X163665190Y-113410493D01*
X163562486Y-113400000D01*
X163037500Y-113400000D01*
X163037500Y-114345854D01*
X162970843Y-114307370D01*
X162850035Y-114275000D01*
X162724965Y-114275000D01*
X162604157Y-114307370D01*
X162537500Y-114345854D01*
X162537500Y-113400000D01*
X162012528Y-113400000D01*
X162012512Y-113400001D01*
X161909802Y-113410494D01*
X161743380Y-113465641D01*
X161743375Y-113465643D01*
X161594154Y-113557684D01*
X161470184Y-113681654D01*
X161378143Y-113830875D01*
X161378141Y-113830880D01*
X161322994Y-113997302D01*
X161322993Y-113997309D01*
X161312500Y-114100013D01*
X154813712Y-114100013D01*
X154825500Y-114056018D01*
X154825500Y-113943982D01*
X154796503Y-113835763D01*
X154740485Y-113738737D01*
X154661263Y-113659515D01*
X154564237Y-113603497D01*
X154456018Y-113574500D01*
X154343982Y-113574500D01*
X154235763Y-113603497D01*
X154235760Y-113603498D01*
X154138740Y-113659513D01*
X154138734Y-113659517D01*
X154059517Y-113738734D01*
X154059513Y-113738740D01*
X154003498Y-113835760D01*
X154003497Y-113835763D01*
X153974500Y-113943982D01*
X123026503Y-113943982D01*
X123026017Y-113243982D01*
X139074500Y-113243982D01*
X139074500Y-113356018D01*
X139089097Y-113410493D01*
X139103497Y-113464236D01*
X139103498Y-113464239D01*
X139104309Y-113465643D01*
X139159515Y-113561263D01*
X139238737Y-113640485D01*
X139335763Y-113696503D01*
X139443982Y-113725500D01*
X139443984Y-113725500D01*
X139556016Y-113725500D01*
X139556018Y-113725500D01*
X139664237Y-113696503D01*
X139761263Y-113640485D01*
X139840485Y-113561263D01*
X139896503Y-113464237D01*
X139925500Y-113356018D01*
X139925500Y-113243982D01*
X139896503Y-113135763D01*
X139840485Y-113038737D01*
X139761263Y-112959515D01*
X139664237Y-112903497D01*
X139556018Y-112874500D01*
X139443982Y-112874500D01*
X139335763Y-112903497D01*
X139335760Y-112903498D01*
X139238740Y-112959513D01*
X139238734Y-112959517D01*
X139159517Y-113038734D01*
X139159513Y-113038740D01*
X139103498Y-113135760D01*
X139103497Y-113135763D01*
X139074500Y-113243982D01*
X123026017Y-113243982D01*
X123024142Y-110543982D01*
X138874500Y-110543982D01*
X138874500Y-110656018D01*
X138903497Y-110764237D01*
X138959515Y-110861263D01*
X139038737Y-110940485D01*
X139135763Y-110996503D01*
X139243982Y-111025500D01*
X139243984Y-111025500D01*
X139356016Y-111025500D01*
X139356018Y-111025500D01*
X139464237Y-110996503D01*
X139561263Y-110940485D01*
X139640485Y-110861263D01*
X139696503Y-110764237D01*
X139725500Y-110656018D01*
X139725500Y-110543982D01*
X144674500Y-110543982D01*
X144674500Y-110656018D01*
X144703497Y-110764237D01*
X144759515Y-110861263D01*
X144838737Y-110940485D01*
X144935763Y-110996503D01*
X145043982Y-111025500D01*
X145043984Y-111025500D01*
X145156016Y-111025500D01*
X145156018Y-111025500D01*
X145264237Y-110996503D01*
X145361263Y-110940485D01*
X145440485Y-110861263D01*
X145496503Y-110764237D01*
X145525500Y-110656018D01*
X145525500Y-110543982D01*
X145496503Y-110435763D01*
X145440485Y-110338737D01*
X145361263Y-110259515D01*
X145264237Y-110203497D01*
X145156018Y-110174500D01*
X145043982Y-110174500D01*
X144935763Y-110203497D01*
X144935760Y-110203498D01*
X144838740Y-110259513D01*
X144838734Y-110259517D01*
X144759517Y-110338734D01*
X144759513Y-110338740D01*
X144703498Y-110435760D01*
X144703497Y-110435763D01*
X144674500Y-110543982D01*
X139725500Y-110543982D01*
X139696503Y-110435763D01*
X139640485Y-110338737D01*
X139561263Y-110259515D01*
X139464237Y-110203497D01*
X139356018Y-110174500D01*
X139243982Y-110174500D01*
X139135763Y-110203497D01*
X139135760Y-110203498D01*
X139038740Y-110259513D01*
X139038734Y-110259517D01*
X138959517Y-110338734D01*
X138959513Y-110338740D01*
X138903498Y-110435760D01*
X138903497Y-110435763D01*
X138874500Y-110543982D01*
X123024142Y-110543982D01*
X123023656Y-109843982D01*
X129574500Y-109843982D01*
X129574500Y-109956018D01*
X129603497Y-110064237D01*
X129659515Y-110161263D01*
X129738737Y-110240485D01*
X129835763Y-110296503D01*
X129943982Y-110325500D01*
X129943984Y-110325500D01*
X130056016Y-110325500D01*
X130056018Y-110325500D01*
X130164237Y-110296503D01*
X130261263Y-110240485D01*
X130340485Y-110161263D01*
X130396503Y-110064237D01*
X130425500Y-109956018D01*
X130425500Y-109943982D01*
X133374500Y-109943982D01*
X133374500Y-110056018D01*
X133403497Y-110164237D01*
X133459515Y-110261263D01*
X133538737Y-110340485D01*
X133635763Y-110396503D01*
X133743982Y-110425500D01*
X133743984Y-110425500D01*
X133856016Y-110425500D01*
X133856018Y-110425500D01*
X133964237Y-110396503D01*
X134061263Y-110340485D01*
X134140485Y-110261263D01*
X134196503Y-110164237D01*
X134225500Y-110056018D01*
X134225500Y-109943982D01*
X134196503Y-109835763D01*
X134140485Y-109738737D01*
X134061263Y-109659515D01*
X133964237Y-109603497D01*
X133856018Y-109574500D01*
X133743982Y-109574500D01*
X133635763Y-109603497D01*
X133635760Y-109603498D01*
X133538740Y-109659513D01*
X133538734Y-109659517D01*
X133459517Y-109738734D01*
X133459513Y-109738740D01*
X133403498Y-109835760D01*
X133403497Y-109835763D01*
X133374500Y-109943982D01*
X130425500Y-109943982D01*
X130425500Y-109843982D01*
X130396503Y-109735763D01*
X130340485Y-109638737D01*
X130261263Y-109559515D01*
X130164237Y-109503497D01*
X130056018Y-109474500D01*
X129943982Y-109474500D01*
X129835763Y-109503497D01*
X129835760Y-109503498D01*
X129738740Y-109559513D01*
X129738734Y-109559517D01*
X129659517Y-109638734D01*
X129659513Y-109638740D01*
X129603498Y-109735760D01*
X129603497Y-109735763D01*
X129574500Y-109843982D01*
X123023656Y-109843982D01*
X123023650Y-109835941D01*
X123022007Y-107468982D01*
X142674500Y-107468982D01*
X142674500Y-107581018D01*
X142703497Y-107689237D01*
X142759515Y-107786263D01*
X142838737Y-107865485D01*
X142935763Y-107921503D01*
X143043982Y-107950500D01*
X143043984Y-107950500D01*
X143156016Y-107950500D01*
X143156018Y-107950500D01*
X143264237Y-107921503D01*
X143361263Y-107865485D01*
X143440485Y-107786263D01*
X143496503Y-107689237D01*
X143525500Y-107581018D01*
X143525500Y-107468982D01*
X143496503Y-107360763D01*
X143440485Y-107263737D01*
X143361263Y-107184515D01*
X143264237Y-107128497D01*
X143156018Y-107099500D01*
X143043982Y-107099500D01*
X142935763Y-107128497D01*
X142935760Y-107128498D01*
X142838740Y-107184513D01*
X142838734Y-107184517D01*
X142759517Y-107263734D01*
X142759513Y-107263740D01*
X142703498Y-107360760D01*
X142703497Y-107360763D01*
X142674500Y-107468982D01*
X123022007Y-107468982D01*
X123022001Y-107460941D01*
X123021434Y-106643982D01*
X141674500Y-106643982D01*
X141674500Y-106756018D01*
X141703497Y-106864237D01*
X141759515Y-106961263D01*
X141838737Y-107040485D01*
X141935763Y-107096503D01*
X142043982Y-107125500D01*
X142043984Y-107125500D01*
X142156016Y-107125500D01*
X142156018Y-107125500D01*
X142264237Y-107096503D01*
X142361263Y-107040485D01*
X142440485Y-106961263D01*
X142496503Y-106864237D01*
X142525500Y-106756018D01*
X142525500Y-106643982D01*
X142496503Y-106535763D01*
X142440485Y-106438737D01*
X142361263Y-106359515D01*
X142264237Y-106303497D01*
X142156018Y-106274500D01*
X142043982Y-106274500D01*
X141935763Y-106303497D01*
X141935760Y-106303498D01*
X141838740Y-106359513D01*
X141838734Y-106359517D01*
X141759517Y-106438734D01*
X141759513Y-106438740D01*
X141703498Y-106535760D01*
X141703497Y-106535763D01*
X141674500Y-106643982D01*
X123021434Y-106643982D01*
X123021428Y-106635941D01*
X123020809Y-105743982D01*
X140774500Y-105743982D01*
X140774500Y-105856018D01*
X140803497Y-105964237D01*
X140859515Y-106061263D01*
X140938737Y-106140485D01*
X141035763Y-106196503D01*
X141143982Y-106225500D01*
X141143984Y-106225500D01*
X141256016Y-106225500D01*
X141256018Y-106225500D01*
X141364237Y-106196503D01*
X141461263Y-106140485D01*
X141540485Y-106061263D01*
X141596503Y-105964237D01*
X141625500Y-105856018D01*
X141625500Y-105743982D01*
X141596503Y-105635763D01*
X141540485Y-105538737D01*
X141461263Y-105459515D01*
X141434359Y-105443982D01*
X148274500Y-105443982D01*
X148274500Y-105556018D01*
X148303497Y-105664237D01*
X148359515Y-105761263D01*
X148438737Y-105840485D01*
X148535763Y-105896503D01*
X148643982Y-105925500D01*
X148643984Y-105925500D01*
X148756016Y-105925500D01*
X148756018Y-105925500D01*
X148864237Y-105896503D01*
X148961263Y-105840485D01*
X149040485Y-105761263D01*
X149096503Y-105664237D01*
X149125500Y-105556018D01*
X149125500Y-105443982D01*
X149096503Y-105335763D01*
X149040485Y-105238737D01*
X148961263Y-105159515D01*
X148864237Y-105103497D01*
X148756018Y-105074500D01*
X148643982Y-105074500D01*
X148535763Y-105103497D01*
X148535760Y-105103498D01*
X148438740Y-105159513D01*
X148438734Y-105159517D01*
X148359517Y-105238734D01*
X148359513Y-105238740D01*
X148303498Y-105335760D01*
X148303497Y-105335763D01*
X148274500Y-105443982D01*
X141434359Y-105443982D01*
X141364237Y-105403497D01*
X141256018Y-105374500D01*
X141143982Y-105374500D01*
X141035763Y-105403497D01*
X141035760Y-105403498D01*
X140938740Y-105459513D01*
X140938734Y-105459517D01*
X140859517Y-105538734D01*
X140859513Y-105538740D01*
X140803498Y-105635760D01*
X140803497Y-105635763D01*
X140774500Y-105743982D01*
X123020809Y-105743982D01*
X123020803Y-105735941D01*
X123019906Y-104443982D01*
X145674500Y-104443982D01*
X145674500Y-104556018D01*
X145703497Y-104664237D01*
X145759515Y-104761263D01*
X145838737Y-104840485D01*
X145935763Y-104896503D01*
X146043982Y-104925500D01*
X146043984Y-104925500D01*
X146156016Y-104925500D01*
X146156018Y-104925500D01*
X146264237Y-104896503D01*
X146361263Y-104840485D01*
X146440485Y-104761263D01*
X146496503Y-104664237D01*
X146525500Y-104556018D01*
X146525500Y-104443982D01*
X146496503Y-104335763D01*
X146440485Y-104238737D01*
X146361263Y-104159515D01*
X146264237Y-104103497D01*
X146156018Y-104074500D01*
X146043982Y-104074500D01*
X145935763Y-104103497D01*
X145935760Y-104103498D01*
X145838740Y-104159513D01*
X145838734Y-104159517D01*
X145759517Y-104238734D01*
X145759513Y-104238740D01*
X145703498Y-104335760D01*
X145703497Y-104335763D01*
X145674500Y-104443982D01*
X123019906Y-104443982D01*
X123019900Y-104435941D01*
X123019558Y-103943982D01*
X152774500Y-103943982D01*
X152774500Y-104056018D01*
X152803497Y-104164237D01*
X152859515Y-104261263D01*
X152938737Y-104340485D01*
X153035763Y-104396503D01*
X153143982Y-104425500D01*
X153143984Y-104425500D01*
X153256016Y-104425500D01*
X153256018Y-104425500D01*
X153364237Y-104396503D01*
X153461263Y-104340485D01*
X153540485Y-104261263D01*
X153596503Y-104164237D01*
X153625500Y-104056018D01*
X153625500Y-103943982D01*
X153596503Y-103835763D01*
X153540485Y-103738737D01*
X153461263Y-103659515D01*
X153364237Y-103603497D01*
X153256018Y-103574500D01*
X153143982Y-103574500D01*
X153035763Y-103603497D01*
X153035760Y-103603498D01*
X152938740Y-103659513D01*
X152938734Y-103659517D01*
X152859517Y-103738734D01*
X152859513Y-103738740D01*
X152803498Y-103835760D01*
X152803497Y-103835763D01*
X152774500Y-103943982D01*
X123019558Y-103943982D01*
X123019142Y-103343982D01*
X125974500Y-103343982D01*
X125974500Y-103456018D01*
X126003497Y-103564237D01*
X126059515Y-103661263D01*
X126138737Y-103740485D01*
X126235763Y-103796503D01*
X126343982Y-103825500D01*
X126343984Y-103825500D01*
X126456016Y-103825500D01*
X126456018Y-103825500D01*
X126564237Y-103796503D01*
X126661263Y-103740485D01*
X126740485Y-103661263D01*
X126796503Y-103564237D01*
X126825500Y-103456018D01*
X126825500Y-103443982D01*
X133474500Y-103443982D01*
X133474500Y-103556018D01*
X133503497Y-103664237D01*
X133559515Y-103761263D01*
X133638737Y-103840485D01*
X133735763Y-103896503D01*
X133843982Y-103925500D01*
X133843984Y-103925500D01*
X133956016Y-103925500D01*
X133956018Y-103925500D01*
X134064237Y-103896503D01*
X134161263Y-103840485D01*
X134240485Y-103761263D01*
X134296503Y-103664237D01*
X134325500Y-103556018D01*
X134325500Y-103443982D01*
X134296503Y-103335763D01*
X134240485Y-103238737D01*
X134161263Y-103159515D01*
X134064237Y-103103497D01*
X133956018Y-103074500D01*
X133843982Y-103074500D01*
X133735763Y-103103497D01*
X133735760Y-103103498D01*
X133638740Y-103159513D01*
X133638734Y-103159517D01*
X133559517Y-103238734D01*
X133559513Y-103238740D01*
X133503498Y-103335760D01*
X133503497Y-103335763D01*
X133474500Y-103443982D01*
X126825500Y-103443982D01*
X126825500Y-103343982D01*
X126796503Y-103235763D01*
X126740485Y-103138737D01*
X126661263Y-103059515D01*
X126564237Y-103003497D01*
X126456018Y-102974500D01*
X126343982Y-102974500D01*
X126235763Y-103003497D01*
X126235760Y-103003498D01*
X126138740Y-103059513D01*
X126138734Y-103059517D01*
X126059517Y-103138734D01*
X126059513Y-103138740D01*
X126003498Y-103235760D01*
X126003497Y-103235763D01*
X125974500Y-103343982D01*
X123019142Y-103343982D01*
X123019136Y-103335941D01*
X123018847Y-102918982D01*
X134874500Y-102918982D01*
X134874500Y-103031018D01*
X134882137Y-103059517D01*
X134903497Y-103139236D01*
X134903498Y-103139239D01*
X134915206Y-103159517D01*
X134959515Y-103236263D01*
X135038737Y-103315485D01*
X135135763Y-103371503D01*
X135243982Y-103400500D01*
X135243984Y-103400500D01*
X135356016Y-103400500D01*
X135356018Y-103400500D01*
X135464237Y-103371503D01*
X135561263Y-103315485D01*
X135640485Y-103236263D01*
X135696503Y-103139237D01*
X135725500Y-103031018D01*
X135725500Y-102918982D01*
X135696503Y-102810763D01*
X135640485Y-102713737D01*
X135561263Y-102634515D01*
X135484218Y-102590033D01*
X135464239Y-102578498D01*
X135464238Y-102578497D01*
X135464237Y-102578497D01*
X135356018Y-102549500D01*
X135243982Y-102549500D01*
X135135763Y-102578497D01*
X135135760Y-102578498D01*
X135038740Y-102634513D01*
X135038734Y-102634517D01*
X134959517Y-102713734D01*
X134959513Y-102713740D01*
X134903498Y-102810760D01*
X134903497Y-102810763D01*
X134874500Y-102918982D01*
X123018847Y-102918982D01*
X123018643Y-102625499D01*
X123018398Y-102272750D01*
X140303268Y-102272750D01*
X140303268Y-102384786D01*
X140332064Y-102492252D01*
X140332265Y-102493004D01*
X140332266Y-102493007D01*
X140350937Y-102525347D01*
X140388283Y-102590031D01*
X140467505Y-102669253D01*
X140564531Y-102725271D01*
X140672750Y-102754268D01*
X140672752Y-102754268D01*
X140784784Y-102754268D01*
X140784786Y-102754268D01*
X140893005Y-102725271D01*
X140990031Y-102669253D01*
X141069253Y-102590031D01*
X141105226Y-102527724D01*
X141155792Y-102479508D01*
X141224399Y-102466284D01*
X141289264Y-102492252D01*
X141300294Y-102502042D01*
X141338737Y-102540485D01*
X141435763Y-102596503D01*
X141543982Y-102625500D01*
X141543984Y-102625500D01*
X141656016Y-102625500D01*
X141656018Y-102625500D01*
X141764237Y-102596503D01*
X141855206Y-102543982D01*
X144799500Y-102543982D01*
X144799500Y-102656018D01*
X144828497Y-102764237D01*
X144884515Y-102861263D01*
X144963737Y-102940485D01*
X145060763Y-102996503D01*
X145168982Y-103025500D01*
X145168984Y-103025500D01*
X145281016Y-103025500D01*
X145281018Y-103025500D01*
X145389237Y-102996503D01*
X145480206Y-102943982D01*
X147874500Y-102943982D01*
X147874500Y-103056018D01*
X147903497Y-103164237D01*
X147959515Y-103261263D01*
X148038737Y-103340485D01*
X148135763Y-103396503D01*
X148243982Y-103425500D01*
X148243984Y-103425500D01*
X148356016Y-103425500D01*
X148356018Y-103425500D01*
X148464237Y-103396503D01*
X148561263Y-103340485D01*
X148640485Y-103261263D01*
X148696503Y-103164237D01*
X148725500Y-103056018D01*
X148725500Y-102943982D01*
X148696503Y-102835763D01*
X148640485Y-102738737D01*
X148561263Y-102659515D01*
X148477695Y-102611267D01*
X148464239Y-102603498D01*
X148464238Y-102603497D01*
X148464237Y-102603497D01*
X148356018Y-102574500D01*
X148243982Y-102574500D01*
X148135763Y-102603497D01*
X148135760Y-102603498D01*
X148038740Y-102659513D01*
X148038734Y-102659517D01*
X147959517Y-102738734D01*
X147959513Y-102738740D01*
X147903498Y-102835760D01*
X147903497Y-102835763D01*
X147874500Y-102943982D01*
X145480206Y-102943982D01*
X145486263Y-102940485D01*
X145565485Y-102861263D01*
X145621503Y-102764237D01*
X145641723Y-102688772D01*
X145646120Y-102679216D01*
X145662435Y-102660492D01*
X145675360Y-102639288D01*
X145684989Y-102634610D01*
X145692022Y-102626540D01*
X145715868Y-102619609D01*
X145738207Y-102608758D01*
X145751095Y-102609372D01*
X145759116Y-102607041D01*
X145770012Y-102610273D01*
X145790862Y-102611266D01*
X145843982Y-102625500D01*
X145843984Y-102625500D01*
X145956016Y-102625500D01*
X145956018Y-102625500D01*
X146064237Y-102596503D01*
X146161263Y-102540485D01*
X146240485Y-102461263D01*
X146296503Y-102364237D01*
X146325500Y-102256018D01*
X146325500Y-102143982D01*
X146296503Y-102035763D01*
X146240485Y-101938737D01*
X146161263Y-101859515D01*
X146064237Y-101803497D01*
X145956018Y-101774500D01*
X145843982Y-101774500D01*
X145735763Y-101803497D01*
X145735760Y-101803498D01*
X145638740Y-101859513D01*
X145638734Y-101859517D01*
X145559517Y-101938734D01*
X145559513Y-101938740D01*
X145503498Y-102035760D01*
X145503497Y-102035761D01*
X145486003Y-102101052D01*
X145449637Y-102160712D01*
X145386790Y-102191241D01*
X145334136Y-102188733D01*
X145281018Y-102174500D01*
X145168982Y-102174500D01*
X145060763Y-102203497D01*
X145060760Y-102203498D01*
X144963740Y-102259513D01*
X144963734Y-102259517D01*
X144884517Y-102338734D01*
X144884513Y-102338740D01*
X144828498Y-102435760D01*
X144828497Y-102435763D01*
X144799500Y-102543982D01*
X141855206Y-102543982D01*
X141861263Y-102540485D01*
X141940485Y-102461263D01*
X141996503Y-102364237D01*
X142025500Y-102256018D01*
X142025500Y-102143982D01*
X141996503Y-102035763D01*
X141940485Y-101938737D01*
X141861263Y-101859515D01*
X141834359Y-101843982D01*
X142974500Y-101843982D01*
X142974500Y-101956018D01*
X142995868Y-102035763D01*
X143003497Y-102064236D01*
X143003498Y-102064239D01*
X143022169Y-102096579D01*
X143059515Y-102161263D01*
X143138737Y-102240485D01*
X143235763Y-102296503D01*
X143343982Y-102325500D01*
X143343984Y-102325500D01*
X143456016Y-102325500D01*
X143456018Y-102325500D01*
X143564237Y-102296503D01*
X143661263Y-102240485D01*
X143712319Y-102189429D01*
X143773642Y-102155944D01*
X143843334Y-102160928D01*
X143887681Y-102189429D01*
X143938737Y-102240485D01*
X144035763Y-102296503D01*
X144143982Y-102325500D01*
X144143984Y-102325500D01*
X144256016Y-102325500D01*
X144256018Y-102325500D01*
X144364237Y-102296503D01*
X144461263Y-102240485D01*
X144540485Y-102161263D01*
X144596503Y-102064237D01*
X144625500Y-101956018D01*
X144625500Y-101843982D01*
X144596503Y-101735763D01*
X144540485Y-101638737D01*
X144461263Y-101559515D01*
X144364237Y-101503497D01*
X144256018Y-101474500D01*
X144143982Y-101474500D01*
X144035763Y-101503497D01*
X144035760Y-101503498D01*
X143938740Y-101559513D01*
X143938734Y-101559517D01*
X143887681Y-101610571D01*
X143826358Y-101644056D01*
X143756666Y-101639072D01*
X143712319Y-101610571D01*
X143661265Y-101559517D01*
X143661263Y-101559515D01*
X143564237Y-101503497D01*
X143456018Y-101474500D01*
X143343982Y-101474500D01*
X143235763Y-101503497D01*
X143235760Y-101503498D01*
X143138740Y-101559513D01*
X143138734Y-101559517D01*
X143059517Y-101638734D01*
X143059513Y-101638740D01*
X143003498Y-101735760D01*
X143003497Y-101735763D01*
X142974500Y-101843982D01*
X141834359Y-101843982D01*
X141764237Y-101803497D01*
X141656018Y-101774500D01*
X141543982Y-101774500D01*
X141435763Y-101803497D01*
X141435760Y-101803498D01*
X141338740Y-101859513D01*
X141338734Y-101859517D01*
X141259517Y-101938734D01*
X141259511Y-101938743D01*
X141223540Y-102001045D01*
X141172973Y-102049260D01*
X141104366Y-102062482D01*
X141039501Y-102036514D01*
X141028473Y-102026725D01*
X140990033Y-101988285D01*
X140990031Y-101988283D01*
X140893005Y-101932265D01*
X140784786Y-101903268D01*
X140672750Y-101903268D01*
X140564531Y-101932265D01*
X140564528Y-101932266D01*
X140467508Y-101988281D01*
X140467502Y-101988285D01*
X140388285Y-102067502D01*
X140388281Y-102067508D01*
X140332266Y-102164528D01*
X140332265Y-102164531D01*
X140303268Y-102272750D01*
X123018398Y-102272750D01*
X123016817Y-99996501D01*
X123016503Y-99543982D01*
X140874500Y-99543982D01*
X140874500Y-99656018D01*
X140903497Y-99764237D01*
X140959515Y-99861263D01*
X141038737Y-99940485D01*
X141135763Y-99996503D01*
X141243982Y-100025500D01*
X141243984Y-100025500D01*
X141356016Y-100025500D01*
X141356018Y-100025500D01*
X141464237Y-99996503D01*
X141555206Y-99943982D01*
X146374500Y-99943982D01*
X146374500Y-100056018D01*
X146403497Y-100164237D01*
X146459515Y-100261263D01*
X146538737Y-100340485D01*
X146635763Y-100396503D01*
X146743982Y-100425500D01*
X146743984Y-100425500D01*
X146856016Y-100425500D01*
X146856018Y-100425500D01*
X146964237Y-100396503D01*
X147061263Y-100340485D01*
X147140485Y-100261263D01*
X147196503Y-100164237D01*
X147225500Y-100056018D01*
X147225500Y-99943982D01*
X147196503Y-99835763D01*
X147140485Y-99738737D01*
X147061263Y-99659515D01*
X146964237Y-99603497D01*
X146856018Y-99574500D01*
X146743982Y-99574500D01*
X146635763Y-99603497D01*
X146635760Y-99603498D01*
X146538740Y-99659513D01*
X146538734Y-99659517D01*
X146459517Y-99738734D01*
X146459513Y-99738740D01*
X146403498Y-99835760D01*
X146403497Y-99835763D01*
X146374500Y-99943982D01*
X141555206Y-99943982D01*
X141561263Y-99940485D01*
X141640485Y-99861263D01*
X141696503Y-99764237D01*
X141725500Y-99656018D01*
X141725500Y-99543982D01*
X141696503Y-99435763D01*
X141640485Y-99338737D01*
X141561263Y-99259515D01*
X141464237Y-99203497D01*
X141356018Y-99174500D01*
X141243982Y-99174500D01*
X141135763Y-99203497D01*
X141135760Y-99203498D01*
X141038740Y-99259513D01*
X141038734Y-99259517D01*
X140959517Y-99338734D01*
X140959513Y-99338740D01*
X140903498Y-99435760D01*
X140903497Y-99435763D01*
X140874500Y-99543982D01*
X123016503Y-99543982D01*
X123016156Y-99043982D01*
X135474500Y-99043982D01*
X135474500Y-99156018D01*
X135503497Y-99264237D01*
X135559515Y-99361263D01*
X135638737Y-99440485D01*
X135735763Y-99496503D01*
X135843982Y-99525500D01*
X135843984Y-99525500D01*
X135956016Y-99525500D01*
X135956018Y-99525500D01*
X136064237Y-99496503D01*
X136161263Y-99440485D01*
X136240485Y-99361263D01*
X136296503Y-99264237D01*
X136325500Y-99156018D01*
X136325500Y-99043982D01*
X136296503Y-98935763D01*
X136240485Y-98838737D01*
X136161263Y-98759515D01*
X136064237Y-98703497D01*
X135956018Y-98674500D01*
X135843982Y-98674500D01*
X135735763Y-98703497D01*
X135735760Y-98703498D01*
X135638740Y-98759513D01*
X135638734Y-98759517D01*
X135559517Y-98838734D01*
X135559513Y-98838740D01*
X135503498Y-98935760D01*
X135503497Y-98935763D01*
X135474500Y-99043982D01*
X123016156Y-99043982D01*
X123016150Y-99035941D01*
X123013517Y-95243982D01*
X147774500Y-95243982D01*
X147774500Y-95356018D01*
X147803497Y-95464237D01*
X147859515Y-95561263D01*
X147938737Y-95640485D01*
X148035763Y-95696503D01*
X148143982Y-95725500D01*
X148143984Y-95725500D01*
X148256016Y-95725500D01*
X148256018Y-95725500D01*
X148364237Y-95696503D01*
X148461263Y-95640485D01*
X148540485Y-95561263D01*
X148596503Y-95464237D01*
X148625500Y-95356018D01*
X148625500Y-95243982D01*
X148596503Y-95135763D01*
X148540485Y-95038737D01*
X148461263Y-94959515D01*
X148364237Y-94903497D01*
X148256018Y-94874500D01*
X148143982Y-94874500D01*
X148035763Y-94903497D01*
X148035760Y-94903498D01*
X147938740Y-94959513D01*
X147938734Y-94959517D01*
X147859517Y-95038734D01*
X147859513Y-95038740D01*
X147803498Y-95135760D01*
X147803497Y-95135763D01*
X147774500Y-95243982D01*
X123013517Y-95243982D01*
X123013511Y-95235941D01*
X123011642Y-92543982D01*
X147674500Y-92543982D01*
X147674500Y-92656018D01*
X147703497Y-92764237D01*
X147759515Y-92861263D01*
X147838737Y-92940485D01*
X147935763Y-92996503D01*
X148043982Y-93025500D01*
X148043984Y-93025500D01*
X148156016Y-93025500D01*
X148156018Y-93025500D01*
X148264237Y-92996503D01*
X148361263Y-92940485D01*
X148440485Y-92861263D01*
X148496503Y-92764237D01*
X148525500Y-92656018D01*
X148525500Y-92543982D01*
X148496503Y-92435763D01*
X148440485Y-92338737D01*
X148361263Y-92259515D01*
X148264237Y-92203497D01*
X148156018Y-92174500D01*
X148043982Y-92174500D01*
X147935763Y-92203497D01*
X147935760Y-92203498D01*
X147838740Y-92259513D01*
X147838734Y-92259517D01*
X147759517Y-92338734D01*
X147759513Y-92338740D01*
X147703498Y-92435760D01*
X147703497Y-92435763D01*
X147674500Y-92543982D01*
X123011642Y-92543982D01*
X123011636Y-92535941D01*
X123011378Y-92164236D01*
X123011225Y-91943982D01*
X152674500Y-91943982D01*
X152674500Y-92056018D01*
X152703497Y-92164237D01*
X152759515Y-92261263D01*
X152838737Y-92340485D01*
X152935763Y-92396503D01*
X153043982Y-92425500D01*
X153043984Y-92425500D01*
X153156016Y-92425500D01*
X153156018Y-92425500D01*
X153264237Y-92396503D01*
X153361263Y-92340485D01*
X153440485Y-92261263D01*
X153496503Y-92164237D01*
X153525500Y-92056018D01*
X153525500Y-91943982D01*
X153496503Y-91835763D01*
X153440485Y-91738737D01*
X153361263Y-91659515D01*
X153264237Y-91603497D01*
X153156018Y-91574500D01*
X153043982Y-91574500D01*
X152935763Y-91603497D01*
X152935760Y-91603498D01*
X152838740Y-91659513D01*
X152838734Y-91659517D01*
X152759517Y-91738734D01*
X152759513Y-91738740D01*
X152703498Y-91835760D01*
X152703497Y-91835763D01*
X152674500Y-91943982D01*
X123011225Y-91943982D01*
X123007753Y-86943982D01*
X135374500Y-86943982D01*
X135374500Y-87056018D01*
X135403497Y-87164237D01*
X135459515Y-87261263D01*
X135538737Y-87340485D01*
X135635763Y-87396503D01*
X135743982Y-87425500D01*
X135743984Y-87425500D01*
X135856016Y-87425500D01*
X135856018Y-87425500D01*
X135964237Y-87396503D01*
X136061263Y-87340485D01*
X136140485Y-87261263D01*
X136196503Y-87164237D01*
X136225500Y-87056018D01*
X136225500Y-86943982D01*
X136196503Y-86835763D01*
X136140485Y-86738737D01*
X136061263Y-86659515D01*
X135964237Y-86603497D01*
X135856018Y-86574500D01*
X135743982Y-86574500D01*
X135635763Y-86603497D01*
X135635760Y-86603498D01*
X135538740Y-86659513D01*
X135538734Y-86659517D01*
X135459517Y-86738734D01*
X135459513Y-86738740D01*
X135403498Y-86835760D01*
X135403497Y-86835763D01*
X135374500Y-86943982D01*
X123007753Y-86943982D01*
X123003306Y-80540482D01*
X123002962Y-80043982D01*
X139574500Y-80043982D01*
X139574500Y-80156018D01*
X139603497Y-80264237D01*
X139659515Y-80361263D01*
X139738737Y-80440485D01*
X139835763Y-80496503D01*
X139943982Y-80525500D01*
X139943984Y-80525500D01*
X140056016Y-80525500D01*
X140056018Y-80525500D01*
X140164237Y-80496503D01*
X140261263Y-80440485D01*
X140340485Y-80361263D01*
X140396503Y-80264237D01*
X140425500Y-80156018D01*
X140425500Y-80143982D01*
X152574500Y-80143982D01*
X152574500Y-80256018D01*
X152603497Y-80364237D01*
X152659515Y-80461263D01*
X152738737Y-80540485D01*
X152835763Y-80596503D01*
X152943982Y-80625500D01*
X152943984Y-80625500D01*
X153056016Y-80625500D01*
X153056018Y-80625500D01*
X153164237Y-80596503D01*
X153261263Y-80540485D01*
X153340485Y-80461263D01*
X153396503Y-80364237D01*
X153425500Y-80256018D01*
X153425500Y-80143982D01*
X153396503Y-80035763D01*
X153340485Y-79938737D01*
X153261263Y-79859515D01*
X153164237Y-79803497D01*
X153056018Y-79774500D01*
X152943982Y-79774500D01*
X152835763Y-79803497D01*
X152835760Y-79803498D01*
X152738740Y-79859513D01*
X152738734Y-79859517D01*
X152659517Y-79938734D01*
X152659513Y-79938740D01*
X152603498Y-80035760D01*
X152603497Y-80035763D01*
X152574500Y-80143982D01*
X140425500Y-80143982D01*
X140425500Y-80043982D01*
X140396503Y-79935763D01*
X140340485Y-79838737D01*
X140261263Y-79759515D01*
X140164237Y-79703497D01*
X140056018Y-79674500D01*
X139943982Y-79674500D01*
X139835763Y-79703497D01*
X139835760Y-79703498D01*
X139738740Y-79759513D01*
X139738734Y-79759517D01*
X139659517Y-79838734D01*
X139659513Y-79838740D01*
X139603498Y-79935760D01*
X139603497Y-79935763D01*
X139574500Y-80043982D01*
X123002962Y-80043982D01*
X123002956Y-80035941D01*
X122999420Y-74943982D01*
X135674500Y-74943982D01*
X135674500Y-75056018D01*
X135703497Y-75164237D01*
X135759515Y-75261263D01*
X135838737Y-75340485D01*
X135935763Y-75396503D01*
X136043982Y-75425500D01*
X136043984Y-75425500D01*
X136156016Y-75425500D01*
X136156018Y-75425500D01*
X136264237Y-75396503D01*
X136361263Y-75340485D01*
X136440485Y-75261263D01*
X136496503Y-75164237D01*
X136525500Y-75056018D01*
X136525500Y-74943982D01*
X136496503Y-74835763D01*
X136440485Y-74738737D01*
X136361263Y-74659515D01*
X136264237Y-74603497D01*
X136156018Y-74574500D01*
X136043982Y-74574500D01*
X135935763Y-74603497D01*
X135935760Y-74603498D01*
X135838740Y-74659513D01*
X135838734Y-74659517D01*
X135759517Y-74738734D01*
X135759513Y-74738740D01*
X135703498Y-74835760D01*
X135703497Y-74835763D01*
X135674500Y-74943982D01*
X122999420Y-74943982D01*
X122999414Y-74935941D01*
X122998517Y-73643982D01*
X151474500Y-73643982D01*
X151474500Y-73756018D01*
X151503497Y-73864237D01*
X151559515Y-73961263D01*
X151638737Y-74040485D01*
X151735763Y-74096503D01*
X151843982Y-74125500D01*
X151843984Y-74125500D01*
X151956016Y-74125500D01*
X151956018Y-74125500D01*
X152064237Y-74096503D01*
X152161263Y-74040485D01*
X152240485Y-73961263D01*
X152296503Y-73864237D01*
X152325500Y-73756018D01*
X152325500Y-73643982D01*
X152296503Y-73535763D01*
X152240485Y-73438737D01*
X152161263Y-73359515D01*
X152064237Y-73303497D01*
X151956018Y-73274500D01*
X151843982Y-73274500D01*
X151735763Y-73303497D01*
X151735760Y-73303498D01*
X151638740Y-73359513D01*
X151638734Y-73359517D01*
X151559517Y-73438734D01*
X151559513Y-73438740D01*
X151503498Y-73535760D01*
X151503497Y-73535763D01*
X151474500Y-73643982D01*
X122998517Y-73643982D01*
X122998511Y-73635941D01*
X122997406Y-72043982D01*
X137274500Y-72043982D01*
X137274500Y-72156018D01*
X137303497Y-72264237D01*
X137359515Y-72361263D01*
X137438737Y-72440485D01*
X137535763Y-72496503D01*
X137643982Y-72525500D01*
X137643984Y-72525500D01*
X137756016Y-72525500D01*
X137756018Y-72525500D01*
X137864237Y-72496503D01*
X137961263Y-72440485D01*
X138040485Y-72361263D01*
X138096503Y-72264237D01*
X138125500Y-72156018D01*
X138125500Y-72043982D01*
X138096503Y-71935763D01*
X138040485Y-71838737D01*
X137961263Y-71759515D01*
X137864237Y-71703497D01*
X137756018Y-71674500D01*
X137643982Y-71674500D01*
X137535763Y-71703497D01*
X137535760Y-71703498D01*
X137438740Y-71759513D01*
X137438734Y-71759517D01*
X137359517Y-71838734D01*
X137359513Y-71838740D01*
X137303498Y-71935760D01*
X137303497Y-71935763D01*
X137274500Y-72043982D01*
X122997406Y-72043982D01*
X122997400Y-72035941D01*
X122994559Y-67943982D01*
X139674500Y-67943982D01*
X139674500Y-68056018D01*
X139703497Y-68164237D01*
X139759515Y-68261263D01*
X139838737Y-68340485D01*
X139935763Y-68396503D01*
X140043982Y-68425500D01*
X140043984Y-68425500D01*
X140156016Y-68425500D01*
X140156018Y-68425500D01*
X140264237Y-68396503D01*
X140361263Y-68340485D01*
X140440485Y-68261263D01*
X140496503Y-68164237D01*
X140525500Y-68056018D01*
X140525500Y-67943982D01*
X152074500Y-67943982D01*
X152074500Y-68056018D01*
X152103497Y-68164237D01*
X152159515Y-68261263D01*
X152238737Y-68340485D01*
X152335763Y-68396503D01*
X152443982Y-68425500D01*
X152443984Y-68425500D01*
X152556016Y-68425500D01*
X152556018Y-68425500D01*
X152664237Y-68396503D01*
X152761263Y-68340485D01*
X152840485Y-68261263D01*
X152896503Y-68164237D01*
X152925500Y-68056018D01*
X152925500Y-67943982D01*
X152896503Y-67835763D01*
X152840485Y-67738737D01*
X152761263Y-67659515D01*
X152664237Y-67603497D01*
X152556018Y-67574500D01*
X152443982Y-67574500D01*
X152335763Y-67603497D01*
X152335760Y-67603498D01*
X152238740Y-67659513D01*
X152238734Y-67659517D01*
X152159517Y-67738734D01*
X152159513Y-67738740D01*
X152103498Y-67835760D01*
X152103497Y-67835763D01*
X152074500Y-67943982D01*
X140525500Y-67943982D01*
X140496503Y-67835763D01*
X140440485Y-67738737D01*
X140361263Y-67659515D01*
X140264237Y-67603497D01*
X140156018Y-67574500D01*
X140043982Y-67574500D01*
X139935763Y-67603497D01*
X139935760Y-67603498D01*
X139838740Y-67659513D01*
X139838734Y-67659517D01*
X139759517Y-67738734D01*
X139759513Y-67738740D01*
X139703498Y-67835760D01*
X139703497Y-67835763D01*
X139674500Y-67943982D01*
X122994559Y-67943982D01*
X122994553Y-67935941D01*
X122991434Y-63443982D01*
X138274500Y-63443982D01*
X138274500Y-63556018D01*
X138303497Y-63664237D01*
X138359515Y-63761263D01*
X138438737Y-63840485D01*
X138535763Y-63896503D01*
X138643982Y-63925500D01*
X138643984Y-63925500D01*
X138756016Y-63925500D01*
X138756018Y-63925500D01*
X138864237Y-63896503D01*
X138961263Y-63840485D01*
X139040485Y-63761263D01*
X139096503Y-63664237D01*
X139125500Y-63556018D01*
X139125500Y-63443982D01*
X139096503Y-63335763D01*
X139040485Y-63238737D01*
X138961263Y-63159515D01*
X138864237Y-63103497D01*
X138756018Y-63074500D01*
X138643982Y-63074500D01*
X138535763Y-63103497D01*
X138535760Y-63103498D01*
X138438740Y-63159513D01*
X138438734Y-63159517D01*
X138359517Y-63238734D01*
X138359513Y-63238740D01*
X138303498Y-63335760D01*
X138303497Y-63335763D01*
X138274500Y-63443982D01*
X122991434Y-63443982D01*
X122991428Y-63435941D01*
X122990250Y-61739591D01*
X122988221Y-58818234D01*
X123300000Y-58818234D01*
X123300000Y-59181765D01*
X123335632Y-59543556D01*
X123406550Y-59900090D01*
X123406553Y-59900101D01*
X123512086Y-60247997D01*
X123651207Y-60583864D01*
X123651209Y-60583869D01*
X123822570Y-60904462D01*
X123822581Y-60904480D01*
X124024551Y-61206750D01*
X124211678Y-61434765D01*
X124211679Y-61434766D01*
X125705747Y-59940697D01*
X125779588Y-60042330D01*
X125957670Y-60220412D01*
X126059301Y-60294251D01*
X124565232Y-61788319D01*
X124565233Y-61788320D01*
X124793249Y-61975448D01*
X125095519Y-62177418D01*
X125095537Y-62177429D01*
X125416130Y-62348790D01*
X125416135Y-62348792D01*
X125752002Y-62487913D01*
X126099898Y-62593446D01*
X126099909Y-62593449D01*
X126456443Y-62664367D01*
X126818234Y-62700000D01*
X127181766Y-62700000D01*
X127543556Y-62664367D01*
X127900090Y-62593449D01*
X127900101Y-62593446D01*
X128247997Y-62487913D01*
X128583864Y-62348792D01*
X128583869Y-62348790D01*
X128904462Y-62177429D01*
X128904480Y-62177418D01*
X129206736Y-61975457D01*
X129206750Y-61975447D01*
X129434765Y-61788320D01*
X129434766Y-61788319D01*
X127940698Y-60294251D01*
X128042330Y-60220412D01*
X128220412Y-60042330D01*
X128294251Y-59940698D01*
X129788319Y-61434766D01*
X129788320Y-61434765D01*
X129975447Y-61206750D01*
X129975457Y-61206736D01*
X130177418Y-60904480D01*
X130177429Y-60904462D01*
X130348790Y-60583869D01*
X130348792Y-60583864D01*
X130487913Y-60247997D01*
X130593446Y-59900101D01*
X130593449Y-59900090D01*
X130664367Y-59543556D01*
X130700000Y-59181765D01*
X130700000Y-58818234D01*
X158300000Y-58818234D01*
X158300000Y-59181765D01*
X158335632Y-59543556D01*
X158406550Y-59900090D01*
X158406553Y-59900101D01*
X158512086Y-60247997D01*
X158651207Y-60583864D01*
X158651209Y-60583869D01*
X158822570Y-60904462D01*
X158822581Y-60904480D01*
X159024551Y-61206750D01*
X159211678Y-61434765D01*
X159211679Y-61434766D01*
X160705747Y-59940697D01*
X160779588Y-60042330D01*
X160957670Y-60220412D01*
X161059301Y-60294251D01*
X159565232Y-61788319D01*
X159565233Y-61788320D01*
X159793249Y-61975448D01*
X160095519Y-62177418D01*
X160095537Y-62177429D01*
X160416130Y-62348790D01*
X160416135Y-62348792D01*
X160752002Y-62487913D01*
X161099898Y-62593446D01*
X161099909Y-62593449D01*
X161456443Y-62664367D01*
X161818234Y-62700000D01*
X162181766Y-62700000D01*
X162543556Y-62664367D01*
X162900090Y-62593449D01*
X162900101Y-62593446D01*
X163247997Y-62487913D01*
X163583864Y-62348792D01*
X163583869Y-62348790D01*
X163904462Y-62177429D01*
X163904480Y-62177418D01*
X164206736Y-61975457D01*
X164206750Y-61975447D01*
X164434765Y-61788320D01*
X164434766Y-61788319D01*
X162940698Y-60294251D01*
X163042330Y-60220412D01*
X163220412Y-60042330D01*
X163294251Y-59940698D01*
X164788319Y-61434766D01*
X164788320Y-61434765D01*
X164975447Y-61206750D01*
X164975457Y-61206736D01*
X165177418Y-60904480D01*
X165177429Y-60904462D01*
X165348790Y-60583869D01*
X165348792Y-60583864D01*
X165487913Y-60247997D01*
X165593446Y-59900101D01*
X165593449Y-59900090D01*
X165664367Y-59543556D01*
X165700000Y-59181765D01*
X165700000Y-58818234D01*
X165664367Y-58456443D01*
X165593449Y-58099909D01*
X165593446Y-58099898D01*
X165487913Y-57752002D01*
X165348792Y-57416135D01*
X165348790Y-57416130D01*
X165177429Y-57095537D01*
X165177418Y-57095519D01*
X164975448Y-56793249D01*
X164788320Y-56565233D01*
X164788319Y-56565232D01*
X163294251Y-58059300D01*
X163220412Y-57957670D01*
X163042330Y-57779588D01*
X162940698Y-57705748D01*
X164434766Y-56211679D01*
X164434765Y-56211678D01*
X164206750Y-56024551D01*
X163904480Y-55822581D01*
X163904462Y-55822570D01*
X163583869Y-55651209D01*
X163583864Y-55651207D01*
X163247997Y-55512086D01*
X162900101Y-55406553D01*
X162900090Y-55406550D01*
X162543556Y-55335632D01*
X162181766Y-55300000D01*
X161818234Y-55300000D01*
X161456443Y-55335632D01*
X161099909Y-55406550D01*
X161099898Y-55406553D01*
X160752002Y-55512086D01*
X160416135Y-55651207D01*
X160416130Y-55651209D01*
X160095537Y-55822570D01*
X160095519Y-55822581D01*
X159793258Y-56024545D01*
X159793254Y-56024548D01*
X159565233Y-56211679D01*
X159565233Y-56211680D01*
X161059301Y-57705748D01*
X160957670Y-57779588D01*
X160779588Y-57957670D01*
X160705748Y-58059301D01*
X159211680Y-56565233D01*
X159211679Y-56565233D01*
X159024548Y-56793254D01*
X159024545Y-56793258D01*
X158822581Y-57095519D01*
X158822570Y-57095537D01*
X158651209Y-57416130D01*
X158651207Y-57416135D01*
X158512086Y-57752002D01*
X158406553Y-58099898D01*
X158406550Y-58099909D01*
X158335632Y-58456443D01*
X158300000Y-58818234D01*
X130700000Y-58818234D01*
X130664367Y-58456443D01*
X130593449Y-58099909D01*
X130593446Y-58099898D01*
X130487913Y-57752002D01*
X130348792Y-57416135D01*
X130348790Y-57416130D01*
X130177429Y-57095537D01*
X130177418Y-57095519D01*
X129983130Y-56804746D01*
X129983129Y-56804745D01*
X129975446Y-56793247D01*
X129935015Y-56743982D01*
X138574500Y-56743982D01*
X138574500Y-56856018D01*
X138603497Y-56964237D01*
X138659515Y-57061263D01*
X138738737Y-57140485D01*
X138835763Y-57196503D01*
X138943982Y-57225500D01*
X138943984Y-57225500D01*
X139056016Y-57225500D01*
X139056018Y-57225500D01*
X139164237Y-57196503D01*
X139261263Y-57140485D01*
X139340485Y-57061263D01*
X139396503Y-56964237D01*
X139425500Y-56856018D01*
X139425500Y-56743982D01*
X139396503Y-56635763D01*
X139340485Y-56538737D01*
X139261263Y-56459515D01*
X139164237Y-56403497D01*
X139056018Y-56374500D01*
X138943982Y-56374500D01*
X138835763Y-56403497D01*
X138835760Y-56403498D01*
X138738740Y-56459513D01*
X138738734Y-56459517D01*
X138659517Y-56538734D01*
X138659513Y-56538740D01*
X138603498Y-56635760D01*
X138603497Y-56635763D01*
X138574500Y-56743982D01*
X129935015Y-56743982D01*
X129788320Y-56565233D01*
X129788319Y-56565232D01*
X128294251Y-58059300D01*
X128220412Y-57957670D01*
X128042330Y-57779588D01*
X127940698Y-57705748D01*
X129434766Y-56211679D01*
X129434765Y-56211678D01*
X129206750Y-56024551D01*
X128904480Y-55822581D01*
X128904462Y-55822570D01*
X128583869Y-55651209D01*
X128583864Y-55651207D01*
X128247997Y-55512086D01*
X127900101Y-55406553D01*
X127900090Y-55406550D01*
X127543556Y-55335632D01*
X127181766Y-55300000D01*
X126818234Y-55300000D01*
X126456443Y-55335632D01*
X126099909Y-55406550D01*
X126099898Y-55406553D01*
X125752002Y-55512086D01*
X125416135Y-55651207D01*
X125416130Y-55651209D01*
X125095537Y-55822570D01*
X125095519Y-55822581D01*
X124793258Y-56024545D01*
X124793254Y-56024548D01*
X124565233Y-56211679D01*
X124565233Y-56211680D01*
X126059301Y-57705748D01*
X125957670Y-57779588D01*
X125779588Y-57957670D01*
X125705748Y-58059301D01*
X124211680Y-56565233D01*
X124211679Y-56565233D01*
X124024548Y-56793254D01*
X124024545Y-56793258D01*
X123822581Y-57095519D01*
X123822570Y-57095537D01*
X123651209Y-57416130D01*
X123651207Y-57416135D01*
X123512086Y-57752002D01*
X123406553Y-58099898D01*
X123406550Y-58099909D01*
X123335632Y-58456443D01*
X123300000Y-58818234D01*
X122988221Y-58818234D01*
X122988219Y-58815273D01*
X122988002Y-58503092D01*
X122988151Y-58496922D01*
X122993610Y-58385813D01*
X123004552Y-58163068D01*
X123005745Y-58150962D01*
X123034417Y-57957670D01*
X123054349Y-57823296D01*
X123056718Y-57811385D01*
X123137210Y-57490043D01*
X123140740Y-57478411D01*
X123252335Y-57166525D01*
X123256976Y-57155318D01*
X123398624Y-56855828D01*
X123404340Y-56845136D01*
X123574645Y-56560998D01*
X123581388Y-56550905D01*
X123778732Y-56284818D01*
X123786435Y-56275433D01*
X124008905Y-56029975D01*
X124017475Y-56021405D01*
X124262933Y-55798935D01*
X124272318Y-55791232D01*
X124538405Y-55593888D01*
X124548498Y-55587145D01*
X124832636Y-55416840D01*
X124843328Y-55411124D01*
X125142818Y-55269476D01*
X125154025Y-55264835D01*
X125465912Y-55153239D01*
X125477543Y-55149710D01*
X125798885Y-55069218D01*
X125810796Y-55066849D01*
X126138462Y-55018244D01*
X126150568Y-55017052D01*
X126484467Y-55000648D01*
X126490551Y-55000500D01*
X126553392Y-55000500D01*
X162521608Y-55000500D01*
X162584449Y-55000500D01*
X162590532Y-55000648D01*
G37*
%TD.AperFunction*%
%TD*%
M02*
