%TF.GenerationSoftware,KiCad,Pcbnew,9.0.0-9.0.0-2~ubuntu24.04.1*%
%TF.CreationDate,2025-03-20T14:05:47+01:00*%
%TF.ProjectId,PCB_main_unit,5043425f-6d61-4696-9e5f-756e69742e6b,rev?*%
%TF.SameCoordinates,Original*%
%TF.FileFunction,Soldermask,Bot*%
%TF.FilePolarity,Negative*%
%FSLAX46Y46*%
G04 Gerber Fmt 4.6, Leading zero omitted, Abs format (unit mm)*
G04 Created by KiCad (PCBNEW 9.0.0-9.0.0-2~ubuntu24.04.1) date 2025-03-20 14:05:47*
%MOMM*%
%LPD*%
G01*
G04 APERTURE LIST*
G04 Aperture macros list*
%AMRoundRect*
0 Rectangle with rounded corners*
0 $1 Rounding radius*
0 $2 $3 $4 $5 $6 $7 $8 $9 X,Y pos of 4 corners*
0 Add a 4 corners polygon primitive as box body*
4,1,4,$2,$3,$4,$5,$6,$7,$8,$9,$2,$3,0*
0 Add four circle primitives for the rounded corners*
1,1,$1+$1,$2,$3*
1,1,$1+$1,$4,$5*
1,1,$1+$1,$6,$7*
1,1,$1+$1,$8,$9*
0 Add four rect primitives between the rounded corners*
20,1,$1+$1,$2,$3,$4,$5,0*
20,1,$1+$1,$4,$5,$6,$7,0*
20,1,$1+$1,$6,$7,$8,$9,0*
20,1,$1+$1,$8,$9,$2,$3,0*%
G04 Aperture macros list end*
%ADD10C,0.800000*%
%ADD11C,6.400000*%
%ADD12RoundRect,0.250000X-0.600000X-0.725000X0.600000X-0.725000X0.600000X0.725000X-0.600000X0.725000X0*%
%ADD13O,1.700000X1.950000*%
%ADD14RoundRect,0.250000X0.725000X-0.600000X0.725000X0.600000X-0.725000X0.600000X-0.725000X-0.600000X0*%
%ADD15O,1.950000X1.700000*%
%ADD16RoundRect,1.500000X1.500000X1.500000X-1.500000X1.500000X-1.500000X-1.500000X1.500000X-1.500000X0*%
%ADD17C,6.000000*%
%ADD18C,3.000000*%
%ADD19RoundRect,0.250000X-0.725000X0.600000X-0.725000X-0.600000X0.725000X-0.600000X0.725000X0.600000X0*%
%ADD20C,1.600000*%
G04 APERTURE END LIST*
D10*
%TO.C,H2*%
X170600000Y-132000000D03*
X171302944Y-130302944D03*
X171302944Y-133697056D03*
X173000000Y-129600000D03*
D11*
X173000000Y-132000000D03*
D10*
X173000000Y-134400000D03*
X174697056Y-130302944D03*
X174697056Y-133697056D03*
X175400000Y-132000000D03*
%TD*%
D12*
%TO.C,J1*%
X160500000Y-87200000D03*
D13*
X163000000Y-87200000D03*
X165500000Y-87200000D03*
%TD*%
D14*
%TO.C,J11*%
X129200000Y-108500000D03*
D15*
X129200000Y-106000000D03*
X129200000Y-103500000D03*
%TD*%
D10*
%TO.C,H4*%
X120600000Y-86500000D03*
X121302944Y-84802944D03*
X121302944Y-88197056D03*
X123000000Y-84100000D03*
D11*
X123000000Y-86500000D03*
D10*
X123000000Y-88900000D03*
X124697056Y-84802944D03*
X124697056Y-88197056D03*
X125400000Y-86500000D03*
%TD*%
D12*
%TO.C,J5*%
X123300000Y-95000000D03*
D13*
X125800000Y-95000000D03*
X128300000Y-95000000D03*
%TD*%
D12*
%TO.C,J4*%
X136000000Y-95050000D03*
D13*
X138500000Y-95050000D03*
X141000000Y-95050000D03*
%TD*%
D14*
%TO.C,J10*%
X129200000Y-121200000D03*
D15*
X129200000Y-118700000D03*
X129200000Y-116200000D03*
%TD*%
D10*
%TO.C,H1*%
X170600000Y-86500000D03*
X171302944Y-84802944D03*
X171302944Y-88197056D03*
X173000000Y-84100000D03*
D11*
X173000000Y-86500000D03*
D10*
X173000000Y-88900000D03*
X174697056Y-84802944D03*
X174697056Y-88197056D03*
X175400000Y-86500000D03*
%TD*%
D16*
%TO.C,J16*%
X163000000Y-132000000D03*
D17*
X155800000Y-132000000D03*
%TD*%
D14*
%TO.C,J9*%
X122000000Y-118750000D03*
D15*
X122000000Y-116250000D03*
X122000000Y-113750000D03*
X122000000Y-111250000D03*
X122000000Y-108750000D03*
X122000000Y-106250000D03*
%TD*%
D12*
%TO.C,J3*%
X136000000Y-87200000D03*
D13*
X138500000Y-87200000D03*
X141000000Y-87200000D03*
%TD*%
D10*
%TO.C,H3*%
X120600000Y-132000000D03*
X121302944Y-130302944D03*
X121302944Y-133697056D03*
X123000000Y-129600000D03*
D11*
X123000000Y-132000000D03*
D10*
X123000000Y-134400000D03*
X124697056Y-130302944D03*
X124697056Y-133697056D03*
X125400000Y-132000000D03*
%TD*%
D18*
%TO.C,SW1*%
X139100000Y-132000000D03*
X143800000Y-132000000D03*
X148500000Y-132000000D03*
%TD*%
D19*
%TO.C,J13*%
X173500000Y-96000000D03*
D15*
X173500000Y-98500000D03*
X173500000Y-101000000D03*
X173500000Y-103500000D03*
X173500000Y-106000000D03*
X173500000Y-108500000D03*
X173500000Y-111000000D03*
%TD*%
D12*
%TO.C,J2*%
X148162500Y-87200000D03*
D13*
X150662500Y-87200000D03*
X153162500Y-87200000D03*
%TD*%
D19*
%TO.C,J12*%
X166500000Y-100500000D03*
D15*
X166500000Y-103000000D03*
X166500000Y-105500000D03*
X166500000Y-108000000D03*
%TD*%
D20*
%TO.C,U1*%
X141400000Y-125500000D03*
X143940000Y-125500000D03*
X146480000Y-125500000D03*
%TD*%
M02*
