%TF.GenerationSoftware,KiCad,Pcbnew,9.0.0-9.0.0-2~ubuntu22.04.1*%
%TF.CreationDate,2025-03-23T14:41:49+01:00*%
%TF.ProjectId,PCB_main_unit,5043425f-6d61-4696-9e5f-756e69742e6b,rev?*%
%TF.SameCoordinates,Original*%
%TF.FileFunction,Copper,L3,Inr*%
%TF.FilePolarity,Positive*%
%FSLAX46Y46*%
G04 Gerber Fmt 4.6, Leading zero omitted, Abs format (unit mm)*
G04 Created by KiCad (PCBNEW 9.0.0-9.0.0-2~ubuntu22.04.1) date 2025-03-23 14:41:49*
%MOMM*%
%LPD*%
G01*
G04 APERTURE LIST*
G04 Aperture macros list*
%AMRoundRect*
0 Rectangle with rounded corners*
0 $1 Rounding radius*
0 $2 $3 $4 $5 $6 $7 $8 $9 X,Y pos of 4 corners*
0 Add a 4 corners polygon primitive as box body*
4,1,4,$2,$3,$4,$5,$6,$7,$8,$9,$2,$3,0*
0 Add four circle primitives for the rounded corners*
1,1,$1+$1,$2,$3*
1,1,$1+$1,$4,$5*
1,1,$1+$1,$6,$7*
1,1,$1+$1,$8,$9*
0 Add four rect primitives between the rounded corners*
20,1,$1+$1,$2,$3,$4,$5,0*
20,1,$1+$1,$4,$5,$6,$7,0*
20,1,$1+$1,$6,$7,$8,$9,0*
20,1,$1+$1,$8,$9,$2,$3,0*%
G04 Aperture macros list end*
%TA.AperFunction,ComponentPad*%
%ADD10C,0.800000*%
%TD*%
%TA.AperFunction,ComponentPad*%
%ADD11C,6.400000*%
%TD*%
%TA.AperFunction,ComponentPad*%
%ADD12RoundRect,0.250000X-0.600000X-0.725000X0.600000X-0.725000X0.600000X0.725000X-0.600000X0.725000X0*%
%TD*%
%TA.AperFunction,ComponentPad*%
%ADD13O,1.700000X1.950000*%
%TD*%
%TA.AperFunction,ComponentPad*%
%ADD14RoundRect,0.250000X0.725000X-0.600000X0.725000X0.600000X-0.725000X0.600000X-0.725000X-0.600000X0*%
%TD*%
%TA.AperFunction,ComponentPad*%
%ADD15O,1.950000X1.700000*%
%TD*%
%TA.AperFunction,ComponentPad*%
%ADD16RoundRect,1.500000X1.500000X1.500000X-1.500000X1.500000X-1.500000X-1.500000X1.500000X-1.500000X0*%
%TD*%
%TA.AperFunction,ComponentPad*%
%ADD17C,6.000000*%
%TD*%
%TA.AperFunction,ComponentPad*%
%ADD18C,3.000000*%
%TD*%
%TA.AperFunction,ComponentPad*%
%ADD19RoundRect,0.250000X-0.725000X0.600000X-0.725000X-0.600000X0.725000X-0.600000X0.725000X0.600000X0*%
%TD*%
%TA.AperFunction,ComponentPad*%
%ADD20C,1.600000*%
%TD*%
%TA.AperFunction,ViaPad*%
%ADD21C,0.450000*%
%TD*%
%TA.AperFunction,ViaPad*%
%ADD22C,1.200000*%
%TD*%
G04 APERTURE END LIST*
D10*
%TO.N,GND*%
%TO.C,H2*%
X170600000Y-132000000D03*
X171302944Y-130302944D03*
X171302944Y-133697056D03*
X173000000Y-129600000D03*
D11*
X173000000Y-132000000D03*
D10*
X173000000Y-134400000D03*
X174697056Y-130302944D03*
X174697056Y-133697056D03*
X175400000Y-132000000D03*
%TD*%
D12*
%TO.N,GND*%
%TO.C,J1*%
X160500000Y-87200000D03*
D13*
%TO.N,+5V*%
X163000000Y-87200000D03*
%TO.N,TIM1_CH1_DOOR1*%
X165500000Y-87200000D03*
%TD*%
D14*
%TO.N,GND*%
%TO.C,J11*%
X129200000Y-108500000D03*
D15*
%TO.N,+5V*%
X129200000Y-106000000D03*
%TO.N,TIM3_CH1_FOOD*%
X129200000Y-103500000D03*
%TD*%
D10*
%TO.N,GND*%
%TO.C,H4*%
X120600000Y-86500000D03*
X121302944Y-84802944D03*
X121302944Y-88197056D03*
X123000000Y-84100000D03*
D11*
X123000000Y-86500000D03*
D10*
X123000000Y-88900000D03*
X124697056Y-84802944D03*
X124697056Y-88197056D03*
X125400000Y-86500000D03*
%TD*%
D12*
%TO.N,GND*%
%TO.C,J5*%
X123300000Y-95000000D03*
D13*
%TO.N,TIM2_CH2_LIGHT1*%
X125800000Y-95000000D03*
%TO.N,+5V*%
X128300000Y-95000000D03*
%TD*%
D12*
%TO.N,GND*%
%TO.C,J4*%
X136000000Y-95050000D03*
D13*
%TO.N,+5V*%
X138500000Y-95050000D03*
%TO.N,TIM1_CH4_GARAGE*%
X141000000Y-95050000D03*
%TD*%
D14*
%TO.N,GND*%
%TO.C,J10*%
X129200000Y-121200000D03*
D15*
%TO.N,+12V*%
X129200000Y-118700000D03*
%TO.N,USART2_HD_XL430*%
X129200000Y-116200000D03*
%TD*%
D10*
%TO.N,GND*%
%TO.C,H1*%
X170600000Y-86500000D03*
X171302944Y-84802944D03*
X171302944Y-88197056D03*
X173000000Y-84100000D03*
D11*
X173000000Y-86500000D03*
D10*
X173000000Y-88900000D03*
X174697056Y-84802944D03*
X174697056Y-88197056D03*
X175400000Y-86500000D03*
%TD*%
D16*
%TO.N,GND*%
%TO.C,J16*%
X163000000Y-132000000D03*
D17*
%TO.N,Net-(J16-Pin_2)*%
X155800000Y-132000000D03*
%TD*%
D14*
%TO.N,unconnected-(J9-Pin_1-Pad1)*%
%TO.C,J9*%
X122000000Y-118750000D03*
D15*
%TO.N,+5V*%
X122000000Y-116250000D03*
%TO.N,GND*%
X122000000Y-113750000D03*
%TO.N,UART3_TX_HC05*%
X122000000Y-111250000D03*
%TO.N,UART3_RX_HC05*%
X122000000Y-108750000D03*
%TO.N,unconnected-(J9-Pin_6-Pad6)*%
X122000000Y-106250000D03*
%TD*%
D12*
%TO.N,GND*%
%TO.C,J3*%
X136000000Y-87200000D03*
D13*
%TO.N,+5V*%
X138500000Y-87200000D03*
%TO.N,TIM1_CH3_DOOR3*%
X141000000Y-87200000D03*
%TD*%
D10*
%TO.N,GND*%
%TO.C,H3*%
X120600000Y-132000000D03*
X121302944Y-130302944D03*
X121302944Y-133697056D03*
X123000000Y-129600000D03*
D11*
X123000000Y-132000000D03*
D10*
X123000000Y-134400000D03*
X124697056Y-130302944D03*
X124697056Y-133697056D03*
X125400000Y-132000000D03*
%TD*%
D18*
%TO.N,+12V*%
%TO.C,SW1*%
X139100000Y-132000000D03*
%TO.N,Net-(J16-Pin_2)*%
X143800000Y-132000000D03*
%TO.N,unconnected-(SW1-C-Pad3)*%
X148500000Y-132000000D03*
%TD*%
D19*
%TO.N,+5V*%
%TO.C,J13*%
X173500000Y-96000000D03*
D15*
%TO.N,GND*%
X173500000Y-98500000D03*
%TO.N,SPI1_SCK*%
X173500000Y-101000000D03*
%TO.N,SPI1_MOSI*%
X173500000Y-103500000D03*
%TO.N,SPI_CS*%
X173500000Y-106000000D03*
%TO.N,SPI_RST*%
X173500000Y-108500000D03*
%TO.N,SPI_DC*%
X173500000Y-111000000D03*
%TD*%
D12*
%TO.N,GND*%
%TO.C,J2*%
X148162500Y-87200000D03*
D13*
%TO.N,+5V*%
X150662500Y-87200000D03*
%TO.N,TIM1_CH2_DOOR2*%
X153162500Y-87200000D03*
%TD*%
D19*
%TO.N,UART4_RX_MP3*%
%TO.C,J12*%
X166500000Y-100500000D03*
D15*
%TO.N,UART4_TX_MP3*%
X166500000Y-103000000D03*
%TO.N,+5V*%
X166500000Y-105500000D03*
%TO.N,GND*%
X166500000Y-108000000D03*
%TD*%
D20*
%TO.N,+12V*%
%TO.C,U1*%
X141400000Y-125500000D03*
%TO.N,GND*%
X143940000Y-125500000D03*
%TO.N,+5V*%
X146480000Y-125500000D03*
%TD*%
D21*
%TO.N,GND*%
X144400000Y-104400000D03*
X145950000Y-116250000D03*
X159300000Y-90700000D03*
X148950000Y-120000000D03*
X133700000Y-121400000D03*
X157750000Y-97500000D03*
X125900000Y-102100000D03*
X129650000Y-98950000D03*
X157050000Y-125650000D03*
X143650000Y-117750000D03*
X154950000Y-125050000D03*
X152150000Y-104900000D03*
X141000000Y-92250000D03*
X131000000Y-84300000D03*
X120550000Y-99250000D03*
X164100000Y-115550000D03*
X150250000Y-116050000D03*
X139650000Y-113450000D03*
X143333135Y-110293365D03*
X128650000Y-125200000D03*
X149800000Y-99600000D03*
X134100000Y-118650000D03*
X129500000Y-89000000D03*
X124400000Y-91800000D03*
X145250000Y-94250000D03*
X168700000Y-134050000D03*
X138400000Y-111000000D03*
X130500000Y-132000000D03*
X175750000Y-91750000D03*
X157200000Y-90200000D03*
X134250000Y-90700000D03*
X163300000Y-109200000D03*
X139900000Y-83400000D03*
X141450000Y-99550000D03*
X169300000Y-93700000D03*
X122000000Y-122500000D03*
X140250000Y-121850000D03*
X136350000Y-130250000D03*
X132100000Y-132050000D03*
X174300000Y-117650000D03*
X157600000Y-101300000D03*
X170000000Y-98700000D03*
X138650000Y-101450000D03*
X157750000Y-95900000D03*
X155100000Y-107050000D03*
X133200000Y-102450000D03*
X128250000Y-134300000D03*
X157800000Y-94300000D03*
X169500000Y-89250000D03*
X147750000Y-128050000D03*
X138300000Y-109800000D03*
X143350000Y-112100000D03*
X133300000Y-108400000D03*
X174350000Y-120200000D03*
X158200000Y-114300000D03*
X125700000Y-114200000D03*
X174350000Y-121450000D03*
X138200000Y-107900000D03*
X144675000Y-101900612D03*
X164900000Y-123750000D03*
X169400000Y-128100000D03*
X164450000Y-95450000D03*
X135950000Y-91600000D03*
X151050000Y-112900000D03*
X136000000Y-99250000D03*
X134550000Y-113550000D03*
X133800000Y-132050000D03*
X146862500Y-90700000D03*
D22*
%TO.N,+5V*%
X133050000Y-125600000D03*
X166900000Y-127700000D03*
D21*
%TO.N,+3.3V*%
X136200000Y-121850000D03*
X143300000Y-100900000D03*
X156000000Y-105000000D03*
X160300000Y-117700000D03*
X142100000Y-113100000D03*
X152000000Y-115300000D03*
X135300000Y-109400000D03*
X140800000Y-111000000D03*
X140900000Y-110100000D03*
X174400000Y-123200000D03*
X152000000Y-102200000D03*
%TO.N,NRST*%
X165500000Y-117000000D03*
X159400000Y-106300000D03*
%TO.N,TIM2_CH2_LIGHT1*%
X145750000Y-101750000D03*
%TO.N,UART3_RX_HC05*%
X138300000Y-114500000D03*
%TO.N,USART2_HD_XL430*%
X144400000Y-112900000D03*
D22*
%TO.N,+12V*%
X135400000Y-126400000D03*
D21*
%TO.N,SPI_CS*%
X150800000Y-118575000D03*
%TO.N,SPI_DC*%
X151600000Y-119900000D03*
%TO.N,SPI_RST*%
X151500000Y-119100000D03*
%TO.N,SPI1_MOSI*%
X144170022Y-106753052D03*
%TO.N,SPI1_SCK*%
X143900000Y-106000000D03*
%TO.N,UART1_DEBUG_RX*%
X161300000Y-113000000D03*
X143324389Y-108099999D03*
%TO.N,UART1_DEBUG_TX*%
X143821345Y-107473072D03*
X160000000Y-112400000D03*
%TO.N,LED3*%
X151200000Y-105200000D03*
X152100000Y-97500000D03*
%TO.N,LED2*%
X150200000Y-105100000D03*
X152100000Y-95900000D03*
%TO.N,LED1*%
X149200000Y-105200000D03*
X152000000Y-94300000D03*
%TD*%
%TA.AperFunction,Conductor*%
%TO.N,GND*%
G36*
X173002702Y-82000617D02*
G01*
X173386771Y-82017386D01*
X173397506Y-82018326D01*
X173775971Y-82068152D01*
X173786597Y-82070025D01*
X174159284Y-82152648D01*
X174169710Y-82155442D01*
X174533765Y-82270227D01*
X174543911Y-82273920D01*
X174896578Y-82420000D01*
X174906369Y-82424566D01*
X175244942Y-82600816D01*
X175254310Y-82606224D01*
X175576244Y-82811318D01*
X175585105Y-82817523D01*
X175887930Y-83049889D01*
X175896217Y-83056843D01*
X176177635Y-83314715D01*
X176185284Y-83322364D01*
X176443156Y-83603782D01*
X176450110Y-83612069D01*
X176682476Y-83914894D01*
X176688681Y-83923755D01*
X176893775Y-84245689D01*
X176899183Y-84255057D01*
X177075430Y-84593623D01*
X177080002Y-84603427D01*
X177226075Y-84956078D01*
X177229775Y-84966244D01*
X177344554Y-85330278D01*
X177347354Y-85340727D01*
X177429971Y-85713389D01*
X177431849Y-85724042D01*
X177481671Y-86102473D01*
X177482614Y-86113249D01*
X177499382Y-86497297D01*
X177499500Y-86502706D01*
X177499500Y-131997293D01*
X177499382Y-132002702D01*
X177482614Y-132386750D01*
X177481671Y-132397526D01*
X177431849Y-132775957D01*
X177429971Y-132786610D01*
X177347354Y-133159272D01*
X177344554Y-133169721D01*
X177229775Y-133533755D01*
X177226075Y-133543921D01*
X177080002Y-133896572D01*
X177075430Y-133906376D01*
X176899183Y-134244942D01*
X176893775Y-134254310D01*
X176688681Y-134576244D01*
X176682476Y-134585105D01*
X176450110Y-134887930D01*
X176443156Y-134896217D01*
X176185284Y-135177635D01*
X176177635Y-135185284D01*
X175896217Y-135443156D01*
X175887930Y-135450110D01*
X175585105Y-135682476D01*
X175576244Y-135688681D01*
X175254310Y-135893775D01*
X175244942Y-135899183D01*
X174906376Y-136075430D01*
X174896572Y-136080002D01*
X174543921Y-136226075D01*
X174533755Y-136229775D01*
X174169721Y-136344554D01*
X174159272Y-136347354D01*
X173786610Y-136429971D01*
X173775957Y-136431849D01*
X173397526Y-136481671D01*
X173386750Y-136482614D01*
X173002703Y-136499382D01*
X172997294Y-136499500D01*
X123002706Y-136499500D01*
X122997297Y-136499382D01*
X122613249Y-136482614D01*
X122602473Y-136481671D01*
X122224042Y-136431849D01*
X122213389Y-136429971D01*
X121840727Y-136347354D01*
X121830278Y-136344554D01*
X121466244Y-136229775D01*
X121456078Y-136226075D01*
X121103427Y-136080002D01*
X121093623Y-136075430D01*
X120755057Y-135899183D01*
X120745689Y-135893775D01*
X120423755Y-135688681D01*
X120414894Y-135682476D01*
X120112069Y-135450110D01*
X120103782Y-135443156D01*
X119822364Y-135185284D01*
X119814715Y-135177635D01*
X119556843Y-134896217D01*
X119549889Y-134887930D01*
X119493921Y-134814991D01*
X119317523Y-134585105D01*
X119311318Y-134576244D01*
X119106224Y-134254310D01*
X119100816Y-134244942D01*
X119083408Y-134211502D01*
X118924566Y-133906369D01*
X118919997Y-133896572D01*
X118773920Y-133543911D01*
X118770224Y-133533755D01*
X118655442Y-133169710D01*
X118652648Y-133159284D01*
X118570025Y-132786597D01*
X118568152Y-132775971D01*
X118518326Y-132397506D01*
X118517386Y-132386771D01*
X118500618Y-132002702D01*
X118500500Y-131997293D01*
X118500500Y-131818234D01*
X119300000Y-131818234D01*
X119300000Y-132181765D01*
X119335632Y-132543556D01*
X119406550Y-132900090D01*
X119406553Y-132900101D01*
X119512086Y-133247997D01*
X119651207Y-133583864D01*
X119651209Y-133583869D01*
X119822570Y-133904462D01*
X119822581Y-133904480D01*
X120024551Y-134206750D01*
X120211678Y-134434765D01*
X120211679Y-134434766D01*
X121705747Y-132940697D01*
X121779588Y-133042330D01*
X121957670Y-133220412D01*
X122059301Y-133294251D01*
X120565232Y-134788319D01*
X120565233Y-134788320D01*
X120793249Y-134975448D01*
X121095519Y-135177418D01*
X121095537Y-135177429D01*
X121416130Y-135348790D01*
X121416135Y-135348792D01*
X121752002Y-135487913D01*
X122099898Y-135593446D01*
X122099909Y-135593449D01*
X122456443Y-135664367D01*
X122818234Y-135700000D01*
X123181766Y-135700000D01*
X123543556Y-135664367D01*
X123900090Y-135593449D01*
X123900101Y-135593446D01*
X124247997Y-135487913D01*
X124583864Y-135348792D01*
X124583869Y-135348790D01*
X124904462Y-135177429D01*
X124904480Y-135177418D01*
X125206736Y-134975457D01*
X125206750Y-134975447D01*
X125434765Y-134788320D01*
X125434766Y-134788319D01*
X123940698Y-133294251D01*
X124042330Y-133220412D01*
X124220412Y-133042330D01*
X124294251Y-132940698D01*
X125788319Y-134434766D01*
X125788320Y-134434765D01*
X125975447Y-134206750D01*
X125975457Y-134206736D01*
X126177418Y-133904480D01*
X126177429Y-133904462D01*
X126348790Y-133583869D01*
X126348792Y-133583864D01*
X126487913Y-133247997D01*
X126593446Y-132900101D01*
X126593449Y-132900090D01*
X126664367Y-132543556D01*
X126700000Y-132181765D01*
X126700000Y-131881995D01*
X137299500Y-131881995D01*
X137299500Y-132118004D01*
X137299501Y-132118020D01*
X137330306Y-132352010D01*
X137391394Y-132579993D01*
X137481714Y-132798045D01*
X137481719Y-132798056D01*
X137505118Y-132838583D01*
X137599727Y-133002450D01*
X137599729Y-133002453D01*
X137599730Y-133002454D01*
X137743406Y-133189697D01*
X137743412Y-133189704D01*
X137910295Y-133356587D01*
X137910302Y-133356593D01*
X137983614Y-133412847D01*
X138097550Y-133500273D01*
X138220808Y-133571436D01*
X138301943Y-133618280D01*
X138301948Y-133618282D01*
X138301951Y-133618284D01*
X138520007Y-133708606D01*
X138747986Y-133769693D01*
X138981989Y-133800500D01*
X138981996Y-133800500D01*
X139218004Y-133800500D01*
X139218011Y-133800500D01*
X139452014Y-133769693D01*
X139679993Y-133708606D01*
X139898049Y-133618284D01*
X140102450Y-133500273D01*
X140289699Y-133356592D01*
X140456592Y-133189699D01*
X140600273Y-133002450D01*
X140718284Y-132798049D01*
X140808606Y-132579993D01*
X140869693Y-132352014D01*
X140900500Y-132118011D01*
X140900500Y-131881995D01*
X141999500Y-131881995D01*
X141999500Y-132118004D01*
X141999501Y-132118020D01*
X142030306Y-132352010D01*
X142091394Y-132579993D01*
X142181714Y-132798045D01*
X142181719Y-132798056D01*
X142205118Y-132838583D01*
X142299727Y-133002450D01*
X142299729Y-133002453D01*
X142299730Y-133002454D01*
X142443406Y-133189697D01*
X142443412Y-133189704D01*
X142610295Y-133356587D01*
X142610302Y-133356593D01*
X142683614Y-133412847D01*
X142797550Y-133500273D01*
X142920808Y-133571436D01*
X143001943Y-133618280D01*
X143001948Y-133618282D01*
X143001951Y-133618284D01*
X143220007Y-133708606D01*
X143447986Y-133769693D01*
X143681989Y-133800500D01*
X143681996Y-133800500D01*
X143918004Y-133800500D01*
X143918011Y-133800500D01*
X144152014Y-133769693D01*
X144379993Y-133708606D01*
X144598049Y-133618284D01*
X144802450Y-133500273D01*
X144989699Y-133356592D01*
X145156592Y-133189699D01*
X145300273Y-133002450D01*
X145418284Y-132798049D01*
X145508606Y-132579993D01*
X145569693Y-132352014D01*
X145600500Y-132118011D01*
X145600500Y-131881995D01*
X146699500Y-131881995D01*
X146699500Y-132118004D01*
X146699501Y-132118020D01*
X146730306Y-132352010D01*
X146791394Y-132579993D01*
X146881714Y-132798045D01*
X146881719Y-132798056D01*
X146905118Y-132838583D01*
X146999727Y-133002450D01*
X146999729Y-133002453D01*
X146999730Y-133002454D01*
X147143406Y-133189697D01*
X147143412Y-133189704D01*
X147310295Y-133356587D01*
X147310302Y-133356593D01*
X147383614Y-133412847D01*
X147497550Y-133500273D01*
X147620808Y-133571436D01*
X147701943Y-133618280D01*
X147701948Y-133618282D01*
X147701951Y-133618284D01*
X147920007Y-133708606D01*
X148147986Y-133769693D01*
X148381989Y-133800500D01*
X148381996Y-133800500D01*
X148618004Y-133800500D01*
X148618011Y-133800500D01*
X148852014Y-133769693D01*
X149079993Y-133708606D01*
X149298049Y-133618284D01*
X149502450Y-133500273D01*
X149689699Y-133356592D01*
X149856592Y-133189699D01*
X150000273Y-133002450D01*
X150118284Y-132798049D01*
X150208606Y-132579993D01*
X150269693Y-132352014D01*
X150300500Y-132118011D01*
X150300500Y-131881989D01*
X150294690Y-131837857D01*
X152499500Y-131837857D01*
X152499500Y-132162143D01*
X152508153Y-132250000D01*
X152531284Y-132484857D01*
X152531287Y-132484874D01*
X152594545Y-132802902D01*
X152594548Y-132802913D01*
X152688686Y-133113247D01*
X152812786Y-133412849D01*
X152812788Y-133412854D01*
X152965646Y-133698830D01*
X152965657Y-133698848D01*
X153145811Y-133968467D01*
X153145821Y-133968481D01*
X153351546Y-134219158D01*
X153580841Y-134448453D01*
X153580846Y-134448457D01*
X153580847Y-134448458D01*
X153831524Y-134654183D01*
X154101158Y-134834347D01*
X154101167Y-134834352D01*
X154101169Y-134834353D01*
X154387145Y-134987211D01*
X154387147Y-134987211D01*
X154387153Y-134987215D01*
X154686754Y-135111314D01*
X154997077Y-135205449D01*
X154997083Y-135205450D01*
X154997086Y-135205451D01*
X154997097Y-135205454D01*
X155196528Y-135245122D01*
X155315132Y-135268714D01*
X155637857Y-135300500D01*
X155637860Y-135300500D01*
X155962140Y-135300500D01*
X155962143Y-135300500D01*
X156284868Y-135268714D01*
X156442295Y-135237399D01*
X156602902Y-135205454D01*
X156602913Y-135205451D01*
X156602913Y-135205450D01*
X156602923Y-135205449D01*
X156913246Y-135111314D01*
X157212847Y-134987215D01*
X157498842Y-134834347D01*
X157768476Y-134654183D01*
X158019153Y-134448458D01*
X158248458Y-134219153D01*
X158454183Y-133968476D01*
X158634347Y-133698842D01*
X158787215Y-133412847D01*
X158911314Y-133113246D01*
X159005449Y-132802923D01*
X159005451Y-132802913D01*
X159005454Y-132802902D01*
X159057040Y-132543556D01*
X159068714Y-132484868D01*
X159100500Y-132162143D01*
X159100500Y-131837857D01*
X159068714Y-131515132D01*
X159042991Y-131385813D01*
X159005454Y-131197097D01*
X159005451Y-131197086D01*
X159005450Y-131197083D01*
X159005449Y-131197077D01*
X158911314Y-130886754D01*
X158787215Y-130587153D01*
X158787211Y-130587145D01*
X158732509Y-130484805D01*
X158702447Y-130428563D01*
X159500000Y-130428563D01*
X159500000Y-131750000D01*
X160763498Y-131750000D01*
X160750000Y-131852527D01*
X160750000Y-132147473D01*
X160763498Y-132250000D01*
X159500000Y-132250000D01*
X159500000Y-133571436D01*
X159515300Y-133785362D01*
X159576109Y-134064895D01*
X159676091Y-134332958D01*
X159813191Y-134584038D01*
X159813192Y-134584039D01*
X159984639Y-134813065D01*
X159984649Y-134813077D01*
X160186922Y-135015350D01*
X160186934Y-135015360D01*
X160415960Y-135186807D01*
X160415961Y-135186808D01*
X160667042Y-135323908D01*
X160667041Y-135323908D01*
X160935104Y-135423890D01*
X161214637Y-135484699D01*
X161428563Y-135499999D01*
X161428566Y-135500000D01*
X162750000Y-135500000D01*
X162750000Y-134236502D01*
X162852527Y-134250000D01*
X163147473Y-134250000D01*
X163250000Y-134236502D01*
X163250000Y-135500000D01*
X164571434Y-135500000D01*
X164571436Y-135499999D01*
X164785362Y-135484699D01*
X165064895Y-135423890D01*
X165332958Y-135323908D01*
X165584038Y-135186808D01*
X165584039Y-135186807D01*
X165813065Y-135015360D01*
X165813077Y-135015350D01*
X166015350Y-134813077D01*
X166015366Y-134813059D01*
X166126056Y-134665195D01*
X166126056Y-134665194D01*
X166186807Y-134584039D01*
X166186808Y-134584038D01*
X166323908Y-134332958D01*
X166423890Y-134064895D01*
X166484699Y-133785362D01*
X166499999Y-133571436D01*
X166500000Y-133571434D01*
X166500000Y-132250000D01*
X165236502Y-132250000D01*
X165250000Y-132147473D01*
X165250000Y-131852527D01*
X165245485Y-131818234D01*
X169300000Y-131818234D01*
X169300000Y-132181765D01*
X169335632Y-132543556D01*
X169406550Y-132900090D01*
X169406553Y-132900101D01*
X169512086Y-133247997D01*
X169651207Y-133583864D01*
X169651209Y-133583869D01*
X169822570Y-133904462D01*
X169822581Y-133904480D01*
X170024551Y-134206750D01*
X170211678Y-134434765D01*
X170211679Y-134434766D01*
X171705747Y-132940697D01*
X171779588Y-133042330D01*
X171957670Y-133220412D01*
X172059301Y-133294251D01*
X170565232Y-134788319D01*
X170565233Y-134788320D01*
X170793249Y-134975448D01*
X171095519Y-135177418D01*
X171095537Y-135177429D01*
X171416130Y-135348790D01*
X171416135Y-135348792D01*
X171752002Y-135487913D01*
X172099898Y-135593446D01*
X172099909Y-135593449D01*
X172456443Y-135664367D01*
X172818234Y-135700000D01*
X173181766Y-135700000D01*
X173543556Y-135664367D01*
X173900090Y-135593449D01*
X173900101Y-135593446D01*
X174247997Y-135487913D01*
X174583864Y-135348792D01*
X174583869Y-135348790D01*
X174904462Y-135177429D01*
X174904480Y-135177418D01*
X175206736Y-134975457D01*
X175206750Y-134975447D01*
X175434765Y-134788320D01*
X175434766Y-134788319D01*
X173940698Y-133294251D01*
X174042330Y-133220412D01*
X174220412Y-133042330D01*
X174294251Y-132940698D01*
X175788319Y-134434766D01*
X175788320Y-134434765D01*
X175975447Y-134206750D01*
X175975457Y-134206736D01*
X176177418Y-133904480D01*
X176177429Y-133904462D01*
X176348790Y-133583869D01*
X176348792Y-133583864D01*
X176487913Y-133247997D01*
X176593446Y-132900101D01*
X176593449Y-132900090D01*
X176664367Y-132543556D01*
X176700000Y-132181765D01*
X176700000Y-131818234D01*
X176664367Y-131456443D01*
X176593449Y-131099909D01*
X176593446Y-131099898D01*
X176487913Y-130752002D01*
X176348792Y-130416135D01*
X176348790Y-130416130D01*
X176177429Y-130095537D01*
X176177418Y-130095519D01*
X175975448Y-129793249D01*
X175788320Y-129565233D01*
X175788319Y-129565232D01*
X174294251Y-131059300D01*
X174220412Y-130957670D01*
X174042330Y-130779588D01*
X173940698Y-130705748D01*
X175434766Y-129211679D01*
X175434765Y-129211678D01*
X175206750Y-129024551D01*
X174904480Y-128822581D01*
X174904462Y-128822570D01*
X174583869Y-128651209D01*
X174583864Y-128651207D01*
X174247997Y-128512086D01*
X173900101Y-128406553D01*
X173900090Y-128406550D01*
X173543556Y-128335632D01*
X173181766Y-128300000D01*
X172818234Y-128300000D01*
X172456443Y-128335632D01*
X172099909Y-128406550D01*
X172099898Y-128406553D01*
X171752002Y-128512086D01*
X171416135Y-128651207D01*
X171416130Y-128651209D01*
X171095537Y-128822570D01*
X171095519Y-128822581D01*
X170793258Y-129024545D01*
X170793254Y-129024548D01*
X170565233Y-129211679D01*
X170565233Y-129211680D01*
X172059301Y-130705748D01*
X171957670Y-130779588D01*
X171779588Y-130957670D01*
X171705748Y-131059301D01*
X170211680Y-129565233D01*
X170211679Y-129565233D01*
X170024548Y-129793254D01*
X170024545Y-129793258D01*
X169822581Y-130095519D01*
X169822570Y-130095537D01*
X169651209Y-130416130D01*
X169651207Y-130416135D01*
X169512086Y-130752002D01*
X169406553Y-131099898D01*
X169406550Y-131099909D01*
X169335632Y-131456443D01*
X169300000Y-131818234D01*
X165245485Y-131818234D01*
X165236502Y-131750000D01*
X166500000Y-131750000D01*
X166500000Y-130428566D01*
X166499999Y-130428563D01*
X166484699Y-130214637D01*
X166423890Y-129935104D01*
X166323908Y-129667041D01*
X166186808Y-129415961D01*
X166186803Y-129415953D01*
X166126058Y-129334807D01*
X166126056Y-129334805D01*
X166015360Y-129186934D01*
X166015350Y-129186922D01*
X165813077Y-128984649D01*
X165813065Y-128984639D01*
X165584039Y-128813192D01*
X165584038Y-128813191D01*
X165332957Y-128676091D01*
X165332958Y-128676091D01*
X165064895Y-128576109D01*
X164785362Y-128515300D01*
X164571436Y-128500000D01*
X163250000Y-128500000D01*
X163250000Y-129763497D01*
X163147473Y-129750000D01*
X162852527Y-129750000D01*
X162750000Y-129763497D01*
X162750000Y-128500000D01*
X161428563Y-128500000D01*
X161214637Y-128515300D01*
X160935104Y-128576109D01*
X160667041Y-128676091D01*
X160415961Y-128813191D01*
X160415960Y-128813192D01*
X160186934Y-128984639D01*
X160186922Y-128984649D01*
X159984649Y-129186922D01*
X159984639Y-129186934D01*
X159813192Y-129415960D01*
X159813191Y-129415961D01*
X159676091Y-129667041D01*
X159576109Y-129935104D01*
X159515300Y-130214637D01*
X159500000Y-130428563D01*
X158702447Y-130428563D01*
X158634353Y-130301169D01*
X158634352Y-130301167D01*
X158634347Y-130301158D01*
X158454183Y-130031524D01*
X158248458Y-129780847D01*
X158248457Y-129780846D01*
X158248453Y-129780841D01*
X158019158Y-129551546D01*
X157768481Y-129345821D01*
X157768480Y-129345820D01*
X157768476Y-129345817D01*
X157498842Y-129165653D01*
X157498837Y-129165650D01*
X157498830Y-129165646D01*
X157212854Y-129012788D01*
X157212849Y-129012786D01*
X156913247Y-128888686D01*
X156602913Y-128794548D01*
X156602902Y-128794545D01*
X156284874Y-128731287D01*
X156284857Y-128731284D01*
X156040812Y-128707248D01*
X155962143Y-128699500D01*
X155637857Y-128699500D01*
X155565099Y-128706666D01*
X155315142Y-128731284D01*
X155315125Y-128731287D01*
X154997097Y-128794545D01*
X154997086Y-128794548D01*
X154686752Y-128888686D01*
X154387150Y-129012786D01*
X154387145Y-129012788D01*
X154101169Y-129165646D01*
X154101151Y-129165657D01*
X153831532Y-129345811D01*
X153831518Y-129345821D01*
X153580841Y-129551546D01*
X153351546Y-129780841D01*
X153145821Y-130031518D01*
X153145811Y-130031532D01*
X152965657Y-130301151D01*
X152965646Y-130301169D01*
X152812788Y-130587145D01*
X152812786Y-130587150D01*
X152688686Y-130886752D01*
X152594548Y-131197086D01*
X152594545Y-131197097D01*
X152531287Y-131515125D01*
X152531284Y-131515142D01*
X152508153Y-131750000D01*
X152499500Y-131837857D01*
X150294690Y-131837857D01*
X150269693Y-131647986D01*
X150208606Y-131420007D01*
X150118284Y-131201951D01*
X150118282Y-131201948D01*
X150118280Y-131201943D01*
X150059370Y-131099909D01*
X150000273Y-130997550D01*
X149856592Y-130810301D01*
X149856587Y-130810295D01*
X149689704Y-130643412D01*
X149689697Y-130643406D01*
X149502454Y-130499730D01*
X149502453Y-130499729D01*
X149502450Y-130499727D01*
X149420957Y-130452677D01*
X149298056Y-130381719D01*
X149298045Y-130381714D01*
X149079993Y-130291394D01*
X148852010Y-130230306D01*
X148618020Y-130199501D01*
X148618017Y-130199500D01*
X148618011Y-130199500D01*
X148381989Y-130199500D01*
X148381983Y-130199500D01*
X148381979Y-130199501D01*
X148147989Y-130230306D01*
X147920006Y-130291394D01*
X147701954Y-130381714D01*
X147701943Y-130381719D01*
X147497545Y-130499730D01*
X147310302Y-130643406D01*
X147310295Y-130643412D01*
X147143412Y-130810295D01*
X147143406Y-130810302D01*
X146999730Y-130997545D01*
X146881719Y-131201943D01*
X146881714Y-131201954D01*
X146791394Y-131420006D01*
X146730306Y-131647989D01*
X146699501Y-131881979D01*
X146699500Y-131881995D01*
X145600500Y-131881995D01*
X145600500Y-131881989D01*
X145569693Y-131647986D01*
X145508606Y-131420007D01*
X145418284Y-131201951D01*
X145418282Y-131201948D01*
X145418280Y-131201943D01*
X145359370Y-131099909D01*
X145300273Y-130997550D01*
X145156592Y-130810301D01*
X145156587Y-130810295D01*
X144989704Y-130643412D01*
X144989697Y-130643406D01*
X144802454Y-130499730D01*
X144802453Y-130499729D01*
X144802450Y-130499727D01*
X144720957Y-130452677D01*
X144598056Y-130381719D01*
X144598045Y-130381714D01*
X144379993Y-130291394D01*
X144152010Y-130230306D01*
X143918020Y-130199501D01*
X143918017Y-130199500D01*
X143918011Y-130199500D01*
X143681989Y-130199500D01*
X143681983Y-130199500D01*
X143681979Y-130199501D01*
X143447989Y-130230306D01*
X143220006Y-130291394D01*
X143001954Y-130381714D01*
X143001943Y-130381719D01*
X142797545Y-130499730D01*
X142610302Y-130643406D01*
X142610295Y-130643412D01*
X142443412Y-130810295D01*
X142443406Y-130810302D01*
X142299730Y-130997545D01*
X142181719Y-131201943D01*
X142181714Y-131201954D01*
X142091394Y-131420006D01*
X142030306Y-131647989D01*
X141999501Y-131881979D01*
X141999500Y-131881995D01*
X140900500Y-131881995D01*
X140900500Y-131881989D01*
X140869693Y-131647986D01*
X140808606Y-131420007D01*
X140718284Y-131201951D01*
X140718282Y-131201948D01*
X140718280Y-131201943D01*
X140659370Y-131099909D01*
X140600273Y-130997550D01*
X140456592Y-130810301D01*
X140456587Y-130810295D01*
X140289704Y-130643412D01*
X140289697Y-130643406D01*
X140102454Y-130499730D01*
X140102453Y-130499729D01*
X140102450Y-130499727D01*
X140020957Y-130452677D01*
X139898056Y-130381719D01*
X139898045Y-130381714D01*
X139679993Y-130291394D01*
X139452010Y-130230306D01*
X139218020Y-130199501D01*
X139218017Y-130199500D01*
X139218011Y-130199500D01*
X138981989Y-130199500D01*
X138981983Y-130199500D01*
X138981979Y-130199501D01*
X138747989Y-130230306D01*
X138520006Y-130291394D01*
X138301954Y-130381714D01*
X138301943Y-130381719D01*
X138097545Y-130499730D01*
X137910302Y-130643406D01*
X137910295Y-130643412D01*
X137743412Y-130810295D01*
X137743406Y-130810302D01*
X137599730Y-130997545D01*
X137481719Y-131201943D01*
X137481714Y-131201954D01*
X137391394Y-131420006D01*
X137330306Y-131647989D01*
X137299501Y-131881979D01*
X137299500Y-131881995D01*
X126700000Y-131881995D01*
X126700000Y-131818234D01*
X126664367Y-131456443D01*
X126593449Y-131099909D01*
X126593446Y-131099898D01*
X126487913Y-130752002D01*
X126348792Y-130416135D01*
X126348790Y-130416130D01*
X126177429Y-130095537D01*
X126177418Y-130095519D01*
X125975448Y-129793249D01*
X125788320Y-129565233D01*
X125788319Y-129565232D01*
X124294251Y-131059300D01*
X124220412Y-130957670D01*
X124042330Y-130779588D01*
X123940698Y-130705748D01*
X125434766Y-129211679D01*
X125434765Y-129211678D01*
X125206750Y-129024551D01*
X124904480Y-128822581D01*
X124904462Y-128822570D01*
X124583869Y-128651209D01*
X124583864Y-128651207D01*
X124247997Y-128512086D01*
X123900101Y-128406553D01*
X123900090Y-128406550D01*
X123543556Y-128335632D01*
X123181766Y-128300000D01*
X122818234Y-128300000D01*
X122456443Y-128335632D01*
X122099909Y-128406550D01*
X122099898Y-128406553D01*
X121752002Y-128512086D01*
X121416135Y-128651207D01*
X121416130Y-128651209D01*
X121095537Y-128822570D01*
X121095519Y-128822581D01*
X120793258Y-129024545D01*
X120793254Y-129024548D01*
X120565233Y-129211679D01*
X120565233Y-129211680D01*
X122059301Y-130705748D01*
X121957670Y-130779588D01*
X121779588Y-130957670D01*
X121705748Y-131059301D01*
X120211680Y-129565233D01*
X120211679Y-129565233D01*
X120024548Y-129793254D01*
X120024545Y-129793258D01*
X119822581Y-130095519D01*
X119822570Y-130095537D01*
X119651209Y-130416130D01*
X119651207Y-130416135D01*
X119512086Y-130752002D01*
X119406553Y-131099898D01*
X119406550Y-131099909D01*
X119335632Y-131456443D01*
X119300000Y-131818234D01*
X118500500Y-131818234D01*
X118500500Y-127611304D01*
X165999500Y-127611304D01*
X165999500Y-127788695D01*
X166034103Y-127962658D01*
X166034106Y-127962667D01*
X166101983Y-128126540D01*
X166101990Y-128126553D01*
X166200535Y-128274034D01*
X166200538Y-128274038D01*
X166325961Y-128399461D01*
X166325965Y-128399464D01*
X166473446Y-128498009D01*
X166473459Y-128498016D01*
X166596363Y-128548923D01*
X166637334Y-128565894D01*
X166637336Y-128565894D01*
X166637341Y-128565896D01*
X166811304Y-128600499D01*
X166811307Y-128600500D01*
X166811309Y-128600500D01*
X166988693Y-128600500D01*
X166988694Y-128600499D01*
X167046682Y-128588964D01*
X167162658Y-128565896D01*
X167162661Y-128565894D01*
X167162666Y-128565894D01*
X167326547Y-128498013D01*
X167474035Y-128399464D01*
X167599464Y-128274035D01*
X167698013Y-128126547D01*
X167765894Y-127962666D01*
X167800500Y-127788691D01*
X167800500Y-127611309D01*
X167800500Y-127611306D01*
X167800499Y-127611304D01*
X167765896Y-127437341D01*
X167765893Y-127437332D01*
X167698016Y-127273459D01*
X167698009Y-127273446D01*
X167599464Y-127125965D01*
X167599461Y-127125961D01*
X167474038Y-127000538D01*
X167474034Y-127000535D01*
X167326553Y-126901990D01*
X167326540Y-126901983D01*
X167162667Y-126834106D01*
X167162658Y-126834103D01*
X166988694Y-126799500D01*
X166988691Y-126799500D01*
X166811309Y-126799500D01*
X166811306Y-126799500D01*
X166637341Y-126834103D01*
X166637332Y-126834106D01*
X166473459Y-126901983D01*
X166473446Y-126901990D01*
X166325965Y-127000535D01*
X166325961Y-127000538D01*
X166200538Y-127125961D01*
X166200535Y-127125965D01*
X166101990Y-127273446D01*
X166101983Y-127273459D01*
X166034106Y-127437332D01*
X166034103Y-127437341D01*
X165999500Y-127611304D01*
X118500500Y-127611304D01*
X118500500Y-125511304D01*
X132149500Y-125511304D01*
X132149500Y-125688695D01*
X132184103Y-125862658D01*
X132184106Y-125862667D01*
X132251983Y-126026540D01*
X132251990Y-126026553D01*
X132350535Y-126174034D01*
X132350538Y-126174038D01*
X132475961Y-126299461D01*
X132475965Y-126299464D01*
X132623446Y-126398009D01*
X132623459Y-126398016D01*
X132727794Y-126441232D01*
X132787334Y-126465894D01*
X132787336Y-126465894D01*
X132787341Y-126465896D01*
X132961304Y-126500499D01*
X132961307Y-126500500D01*
X132961309Y-126500500D01*
X133138693Y-126500500D01*
X133138694Y-126500499D01*
X133198058Y-126488691D01*
X133312658Y-126465896D01*
X133312661Y-126465894D01*
X133312666Y-126465894D01*
X133476547Y-126398013D01*
X133606315Y-126311304D01*
X134499500Y-126311304D01*
X134499500Y-126488695D01*
X134534103Y-126662658D01*
X134534106Y-126662667D01*
X134601983Y-126826540D01*
X134601990Y-126826553D01*
X134700535Y-126974034D01*
X134700538Y-126974038D01*
X134825961Y-127099461D01*
X134825965Y-127099464D01*
X134973446Y-127198009D01*
X134973459Y-127198016D01*
X135096363Y-127248923D01*
X135137334Y-127265894D01*
X135137336Y-127265894D01*
X135137341Y-127265896D01*
X135311304Y-127300499D01*
X135311307Y-127300500D01*
X135311309Y-127300500D01*
X135488693Y-127300500D01*
X135488694Y-127300499D01*
X135546682Y-127288964D01*
X135662658Y-127265896D01*
X135662661Y-127265894D01*
X135662666Y-127265894D01*
X135826547Y-127198013D01*
X135974035Y-127099464D01*
X136099464Y-126974035D01*
X136198013Y-126826547D01*
X136265894Y-126662666D01*
X136300500Y-126488691D01*
X136300500Y-126311309D01*
X136300500Y-126311306D01*
X136300499Y-126311304D01*
X136265896Y-126137341D01*
X136265893Y-126137332D01*
X136198016Y-125973459D01*
X136198009Y-125973446D01*
X136099464Y-125825965D01*
X136099461Y-125825961D01*
X135974038Y-125700538D01*
X135974034Y-125700535D01*
X135826553Y-125601990D01*
X135826540Y-125601983D01*
X135662667Y-125534106D01*
X135662658Y-125534103D01*
X135642700Y-125530134D01*
X135488694Y-125499500D01*
X135488691Y-125499500D01*
X135311309Y-125499500D01*
X135311306Y-125499500D01*
X135137341Y-125534103D01*
X135137332Y-125534106D01*
X134973459Y-125601983D01*
X134973446Y-125601990D01*
X134825965Y-125700535D01*
X134825961Y-125700538D01*
X134700538Y-125825961D01*
X134700535Y-125825965D01*
X134601990Y-125973446D01*
X134601983Y-125973459D01*
X134534106Y-126137332D01*
X134534103Y-126137341D01*
X134499500Y-126311304D01*
X133606315Y-126311304D01*
X133624035Y-126299464D01*
X133624038Y-126299461D01*
X133705964Y-126217536D01*
X133749461Y-126174038D01*
X133749464Y-126174035D01*
X133848013Y-126026547D01*
X133915894Y-125862666D01*
X133923195Y-125825965D01*
X133950499Y-125688695D01*
X133950500Y-125688693D01*
X133950500Y-125511306D01*
X133950499Y-125511304D01*
X133931023Y-125413389D01*
X140299500Y-125413389D01*
X140299500Y-125586610D01*
X140325934Y-125753512D01*
X140326598Y-125757701D01*
X140380127Y-125922445D01*
X140458768Y-126076788D01*
X140560586Y-126216928D01*
X140683072Y-126339414D01*
X140823212Y-126441232D01*
X140977555Y-126519873D01*
X141142299Y-126573402D01*
X141313389Y-126600500D01*
X141313390Y-126600500D01*
X141486610Y-126600500D01*
X141486611Y-126600500D01*
X141657701Y-126573402D01*
X141822445Y-126519873D01*
X141976788Y-126441232D01*
X142116928Y-126339414D01*
X142239414Y-126216928D01*
X142341232Y-126076788D01*
X142419873Y-125922445D01*
X142447186Y-125838384D01*
X142486622Y-125780711D01*
X142550981Y-125753512D01*
X142619827Y-125765427D01*
X142671303Y-125812671D01*
X142683047Y-125838385D01*
X142735244Y-125999031D01*
X142828141Y-126181350D01*
X142828147Y-126181359D01*
X142860523Y-126225921D01*
X142860524Y-126225922D01*
X143457037Y-125629409D01*
X143474075Y-125692993D01*
X143539901Y-125807007D01*
X143632993Y-125900099D01*
X143747007Y-125965925D01*
X143810590Y-125982962D01*
X143214076Y-126579474D01*
X143258650Y-126611859D01*
X143440968Y-126704755D01*
X143635582Y-126767990D01*
X143837683Y-126800000D01*
X144042317Y-126800000D01*
X144244417Y-126767990D01*
X144439031Y-126704755D01*
X144621349Y-126611859D01*
X144665921Y-126579474D01*
X144069409Y-125982962D01*
X144132993Y-125965925D01*
X144247007Y-125900099D01*
X144340099Y-125807007D01*
X144405925Y-125692993D01*
X144422962Y-125629410D01*
X145019474Y-126225922D01*
X145019474Y-126225921D01*
X145051859Y-126181349D01*
X145144755Y-125999029D01*
X145196952Y-125838386D01*
X145236389Y-125780710D01*
X145300748Y-125753512D01*
X145369594Y-125765427D01*
X145421070Y-125812671D01*
X145432814Y-125838385D01*
X145460128Y-125922449D01*
X145513169Y-126026547D01*
X145538768Y-126076788D01*
X145640586Y-126216928D01*
X145763072Y-126339414D01*
X145903212Y-126441232D01*
X146057555Y-126519873D01*
X146222299Y-126573402D01*
X146393389Y-126600500D01*
X146393390Y-126600500D01*
X146566610Y-126600500D01*
X146566611Y-126600500D01*
X146737701Y-126573402D01*
X146902445Y-126519873D01*
X147056788Y-126441232D01*
X147196928Y-126339414D01*
X147319414Y-126216928D01*
X147421232Y-126076788D01*
X147499873Y-125922445D01*
X147553402Y-125757701D01*
X147580500Y-125586611D01*
X147580500Y-125413389D01*
X147553402Y-125242299D01*
X147499873Y-125077555D01*
X147421232Y-124923212D01*
X147319414Y-124783072D01*
X147196928Y-124660586D01*
X147056788Y-124558768D01*
X146902445Y-124480127D01*
X146737701Y-124426598D01*
X146737699Y-124426597D01*
X146737698Y-124426597D01*
X146606271Y-124405781D01*
X146566611Y-124399500D01*
X146393389Y-124399500D01*
X146353728Y-124405781D01*
X146222302Y-124426597D01*
X146057552Y-124480128D01*
X145903211Y-124558768D01*
X145823256Y-124616859D01*
X145763072Y-124660586D01*
X145763070Y-124660588D01*
X145763069Y-124660588D01*
X145640588Y-124783069D01*
X145640588Y-124783070D01*
X145640586Y-124783072D01*
X145614737Y-124818650D01*
X145538768Y-124923211D01*
X145460129Y-125077549D01*
X145432814Y-125161615D01*
X145393375Y-125219290D01*
X145329016Y-125246487D01*
X145260170Y-125234572D01*
X145208695Y-125187327D01*
X145196952Y-125161613D01*
X145144755Y-125000970D01*
X145051859Y-124818650D01*
X145019474Y-124774077D01*
X145019474Y-124774076D01*
X144422962Y-125370589D01*
X144405925Y-125307007D01*
X144340099Y-125192993D01*
X144247007Y-125099901D01*
X144132993Y-125034075D01*
X144069408Y-125017037D01*
X144665922Y-124420524D01*
X144665921Y-124420523D01*
X144621359Y-124388147D01*
X144621350Y-124388141D01*
X144439031Y-124295244D01*
X144244417Y-124232009D01*
X144042317Y-124200000D01*
X143837683Y-124200000D01*
X143635582Y-124232009D01*
X143440968Y-124295244D01*
X143258644Y-124388143D01*
X143214077Y-124420523D01*
X143214077Y-124420524D01*
X143810591Y-125017037D01*
X143747007Y-125034075D01*
X143632993Y-125099901D01*
X143539901Y-125192993D01*
X143474075Y-125307007D01*
X143457037Y-125370590D01*
X142860524Y-124774077D01*
X142860523Y-124774077D01*
X142828143Y-124818644D01*
X142735244Y-125000968D01*
X142683047Y-125161614D01*
X142643609Y-125219289D01*
X142579250Y-125246487D01*
X142510404Y-125234572D01*
X142458928Y-125187328D01*
X142447186Y-125161615D01*
X142419873Y-125077555D01*
X142341232Y-124923212D01*
X142239414Y-124783072D01*
X142116928Y-124660586D01*
X141976788Y-124558768D01*
X141976789Y-124558768D01*
X141976787Y-124558767D01*
X141822447Y-124480128D01*
X141822446Y-124480127D01*
X141822445Y-124480127D01*
X141657701Y-124426598D01*
X141657699Y-124426597D01*
X141657698Y-124426597D01*
X141526271Y-124405781D01*
X141486611Y-124399500D01*
X141313389Y-124399500D01*
X141273728Y-124405781D01*
X141142302Y-124426597D01*
X140977552Y-124480128D01*
X140823211Y-124558768D01*
X140743256Y-124616859D01*
X140683072Y-124660586D01*
X140683070Y-124660588D01*
X140683069Y-124660588D01*
X140560588Y-124783069D01*
X140560588Y-124783070D01*
X140560586Y-124783072D01*
X140534737Y-124818650D01*
X140458768Y-124923211D01*
X140380128Y-125077552D01*
X140326597Y-125242302D01*
X140299500Y-125413389D01*
X133931023Y-125413389D01*
X133915896Y-125337341D01*
X133915893Y-125337332D01*
X133848016Y-125173459D01*
X133848009Y-125173446D01*
X133749464Y-125025965D01*
X133749461Y-125025961D01*
X133624038Y-124900538D01*
X133624034Y-124900535D01*
X133476553Y-124801990D01*
X133476540Y-124801983D01*
X133312667Y-124734106D01*
X133312658Y-124734103D01*
X133138694Y-124699500D01*
X133138691Y-124699500D01*
X132961309Y-124699500D01*
X132961306Y-124699500D01*
X132787341Y-124734103D01*
X132787332Y-124734106D01*
X132623459Y-124801983D01*
X132623446Y-124801990D01*
X132475965Y-124900535D01*
X132475961Y-124900538D01*
X132350538Y-125025961D01*
X132350535Y-125025965D01*
X132251990Y-125173446D01*
X132251983Y-125173459D01*
X132184106Y-125337332D01*
X132184103Y-125337341D01*
X132149500Y-125511304D01*
X118500500Y-125511304D01*
X118500500Y-123130817D01*
X173874500Y-123130817D01*
X173874500Y-123269182D01*
X173910312Y-123402835D01*
X173910313Y-123402838D01*
X173979492Y-123522661D01*
X173979494Y-123522664D01*
X173979495Y-123522665D01*
X174077335Y-123620505D01*
X174197164Y-123689688D01*
X174330817Y-123725500D01*
X174330819Y-123725500D01*
X174469181Y-123725500D01*
X174469183Y-123725500D01*
X174602836Y-123689688D01*
X174722665Y-123620505D01*
X174820505Y-123522665D01*
X174889688Y-123402836D01*
X174925500Y-123269183D01*
X174925500Y-123130817D01*
X174889688Y-122997164D01*
X174820505Y-122877335D01*
X174722665Y-122779495D01*
X174722664Y-122779494D01*
X174722661Y-122779492D01*
X174602838Y-122710313D01*
X174602837Y-122710312D01*
X174602836Y-122710312D01*
X174469183Y-122674500D01*
X174330817Y-122674500D01*
X174197164Y-122710312D01*
X174197161Y-122710313D01*
X174077338Y-122779492D01*
X174077333Y-122779496D01*
X173979496Y-122877333D01*
X173979492Y-122877338D01*
X173910313Y-122997161D01*
X173910312Y-122997164D01*
X173874500Y-123130817D01*
X118500500Y-123130817D01*
X118500500Y-120550013D01*
X127725000Y-120550013D01*
X127725000Y-120950000D01*
X128795854Y-120950000D01*
X128757370Y-121016657D01*
X128725000Y-121137465D01*
X128725000Y-121262535D01*
X128757370Y-121383343D01*
X128795854Y-121450000D01*
X127725001Y-121450000D01*
X127725001Y-121849986D01*
X127735494Y-121952697D01*
X127790641Y-122119119D01*
X127790643Y-122119124D01*
X127882684Y-122268345D01*
X128006654Y-122392315D01*
X128155875Y-122484356D01*
X128155880Y-122484358D01*
X128322302Y-122539505D01*
X128322309Y-122539506D01*
X128425019Y-122549999D01*
X128949999Y-122549999D01*
X128950000Y-122549998D01*
X128950000Y-121604145D01*
X129016657Y-121642630D01*
X129137465Y-121675000D01*
X129262535Y-121675000D01*
X129383343Y-121642630D01*
X129450000Y-121604145D01*
X129450000Y-122549999D01*
X129974972Y-122549999D01*
X129974986Y-122549998D01*
X130077697Y-122539505D01*
X130244119Y-122484358D01*
X130244124Y-122484356D01*
X130393345Y-122392315D01*
X130517315Y-122268345D01*
X130609356Y-122119124D01*
X130609358Y-122119119D01*
X130664505Y-121952697D01*
X130664506Y-121952690D01*
X130674999Y-121849986D01*
X130675000Y-121849973D01*
X130675000Y-121780817D01*
X135674500Y-121780817D01*
X135674500Y-121919182D01*
X135710312Y-122052835D01*
X135710313Y-122052838D01*
X135779492Y-122172661D01*
X135779494Y-122172664D01*
X135779495Y-122172665D01*
X135877335Y-122270505D01*
X135997164Y-122339688D01*
X136130817Y-122375500D01*
X136130819Y-122375500D01*
X136269181Y-122375500D01*
X136269183Y-122375500D01*
X136402836Y-122339688D01*
X136522665Y-122270505D01*
X136620505Y-122172665D01*
X136689688Y-122052836D01*
X136725500Y-121919183D01*
X136725500Y-121780817D01*
X136689688Y-121647164D01*
X136620505Y-121527335D01*
X136522665Y-121429495D01*
X136522664Y-121429494D01*
X136522661Y-121429492D01*
X136402838Y-121360313D01*
X136402837Y-121360312D01*
X136402836Y-121360312D01*
X136269183Y-121324500D01*
X136130817Y-121324500D01*
X135997164Y-121360312D01*
X135997161Y-121360313D01*
X135877338Y-121429492D01*
X135877333Y-121429496D01*
X135779496Y-121527333D01*
X135779492Y-121527338D01*
X135710313Y-121647161D01*
X135710312Y-121647164D01*
X135674500Y-121780817D01*
X130675000Y-121780817D01*
X130675000Y-121450000D01*
X129604146Y-121450000D01*
X129642630Y-121383343D01*
X129675000Y-121262535D01*
X129675000Y-121137465D01*
X129642630Y-121016657D01*
X129604146Y-120950000D01*
X130674999Y-120950000D01*
X130674999Y-120550028D01*
X130674998Y-120550013D01*
X130664505Y-120447302D01*
X130609358Y-120280880D01*
X130609356Y-120280875D01*
X130517315Y-120131654D01*
X130393345Y-120007684D01*
X130244124Y-119915643D01*
X130244119Y-119915641D01*
X130077697Y-119860494D01*
X130077692Y-119860493D01*
X130056226Y-119858300D01*
X129991536Y-119831901D01*
X129951386Y-119774719D01*
X129948525Y-119704908D01*
X129983861Y-119644633D01*
X129995938Y-119634631D01*
X130074501Y-119577553D01*
X130202553Y-119449501D01*
X130308996Y-119302994D01*
X130391211Y-119141639D01*
X130447171Y-118969409D01*
X130461765Y-118877259D01*
X130475500Y-118790551D01*
X130475500Y-118609449D01*
X130460871Y-118517089D01*
X130460871Y-118517088D01*
X130459086Y-118505817D01*
X150274500Y-118505817D01*
X150274500Y-118644182D01*
X150310312Y-118777835D01*
X150310313Y-118777838D01*
X150379492Y-118897661D01*
X150379494Y-118897664D01*
X150379495Y-118897665D01*
X150477335Y-118995505D01*
X150597164Y-119064688D01*
X150730817Y-119100500D01*
X150730819Y-119100500D01*
X150860948Y-119100500D01*
X150927987Y-119120185D01*
X150973742Y-119172989D01*
X150980721Y-119192401D01*
X151010312Y-119302836D01*
X151010313Y-119302837D01*
X151010313Y-119302838D01*
X151079492Y-119422661D01*
X151079496Y-119422666D01*
X151132225Y-119475395D01*
X151165710Y-119536718D01*
X151160726Y-119606410D01*
X151151932Y-119625075D01*
X151110312Y-119697163D01*
X151110312Y-119697164D01*
X151074500Y-119830817D01*
X151074500Y-119969183D01*
X151084817Y-120007684D01*
X151110312Y-120102835D01*
X151110313Y-120102838D01*
X151179492Y-120222661D01*
X151179494Y-120222664D01*
X151179495Y-120222665D01*
X151277335Y-120320505D01*
X151397164Y-120389688D01*
X151530817Y-120425500D01*
X151530819Y-120425500D01*
X151669181Y-120425500D01*
X151669183Y-120425500D01*
X151802836Y-120389688D01*
X151922665Y-120320505D01*
X152020505Y-120222665D01*
X152089688Y-120102836D01*
X152125500Y-119969183D01*
X152125500Y-119830817D01*
X152089688Y-119697164D01*
X152046490Y-119622342D01*
X152020507Y-119577338D01*
X152020503Y-119577333D01*
X151967774Y-119524604D01*
X151934289Y-119463281D01*
X151939273Y-119393589D01*
X151948062Y-119374934D01*
X151989688Y-119302836D01*
X152025500Y-119169183D01*
X152025500Y-119030817D01*
X151989688Y-118897164D01*
X151928135Y-118790551D01*
X151920507Y-118777338D01*
X151920503Y-118777333D01*
X151822666Y-118679496D01*
X151822661Y-118679492D01*
X151702838Y-118610313D01*
X151702837Y-118610312D01*
X151702836Y-118610312D01*
X151569183Y-118574500D01*
X151439052Y-118574500D01*
X151372013Y-118554815D01*
X151326258Y-118502011D01*
X151319277Y-118482594D01*
X151289688Y-118372164D01*
X151220505Y-118252335D01*
X151122665Y-118154495D01*
X151122664Y-118154494D01*
X151122661Y-118154492D01*
X151002838Y-118085313D01*
X151002837Y-118085312D01*
X151002836Y-118085312D01*
X150869183Y-118049500D01*
X150730817Y-118049500D01*
X150597164Y-118085312D01*
X150597161Y-118085313D01*
X150477338Y-118154492D01*
X150477333Y-118154496D01*
X150379496Y-118252333D01*
X150379492Y-118252338D01*
X150310313Y-118372161D01*
X150310312Y-118372164D01*
X150274500Y-118505817D01*
X130459086Y-118505817D01*
X130455407Y-118482594D01*
X130447171Y-118430591D01*
X130391211Y-118258361D01*
X130391211Y-118258360D01*
X130356219Y-118189686D01*
X130308996Y-118097006D01*
X130254985Y-118022666D01*
X130202558Y-117950505D01*
X130202554Y-117950500D01*
X130074495Y-117822441D01*
X129937650Y-117723019D01*
X129937634Y-117723008D01*
X129927994Y-117716004D01*
X129766639Y-117633788D01*
X129766636Y-117633787D01*
X129757495Y-117630817D01*
X159774500Y-117630817D01*
X159774500Y-117769183D01*
X159788772Y-117822445D01*
X159810312Y-117902835D01*
X159810313Y-117902838D01*
X159879492Y-118022661D01*
X159879494Y-118022664D01*
X159879495Y-118022665D01*
X159977335Y-118120505D01*
X160097164Y-118189688D01*
X160230817Y-118225500D01*
X160230819Y-118225500D01*
X160369181Y-118225500D01*
X160369183Y-118225500D01*
X160502836Y-118189688D01*
X160622665Y-118120505D01*
X160720505Y-118022665D01*
X160789688Y-117902836D01*
X160825500Y-117769183D01*
X160825500Y-117630817D01*
X160789688Y-117497164D01*
X160720505Y-117377335D01*
X160622665Y-117279495D01*
X160622664Y-117279494D01*
X160622661Y-117279492D01*
X160502838Y-117210313D01*
X160502837Y-117210312D01*
X160502836Y-117210312D01*
X160369183Y-117174500D01*
X160230817Y-117174500D01*
X160097164Y-117210312D01*
X160097161Y-117210313D01*
X159977338Y-117279492D01*
X159977333Y-117279496D01*
X159879496Y-117377333D01*
X159879492Y-117377338D01*
X159810313Y-117497161D01*
X159810312Y-117497164D01*
X159774500Y-117630817D01*
X129757495Y-117630817D01*
X129594410Y-117577829D01*
X129560594Y-117572473D01*
X129497459Y-117542544D01*
X129460528Y-117483232D01*
X129461526Y-117413370D01*
X129500136Y-117355137D01*
X129560594Y-117327527D01*
X129568388Y-117326292D01*
X129594409Y-117322171D01*
X129766639Y-117266211D01*
X129927994Y-117183996D01*
X130074501Y-117077553D01*
X130202553Y-116949501D01*
X130216128Y-116930817D01*
X164974500Y-116930817D01*
X164974500Y-117069183D01*
X165002720Y-117174500D01*
X165010312Y-117202835D01*
X165010313Y-117202838D01*
X165079492Y-117322661D01*
X165079494Y-117322664D01*
X165079495Y-117322665D01*
X165177335Y-117420505D01*
X165297164Y-117489688D01*
X165430817Y-117525500D01*
X165430819Y-117525500D01*
X165569181Y-117525500D01*
X165569183Y-117525500D01*
X165702836Y-117489688D01*
X165822665Y-117420505D01*
X165920505Y-117322665D01*
X165989688Y-117202836D01*
X166025500Y-117069183D01*
X166025500Y-116930817D01*
X165989688Y-116797164D01*
X165955096Y-116737249D01*
X165920507Y-116677338D01*
X165920503Y-116677333D01*
X165822666Y-116579496D01*
X165822661Y-116579492D01*
X165702838Y-116510313D01*
X165702837Y-116510312D01*
X165702836Y-116510312D01*
X165569183Y-116474500D01*
X165430817Y-116474500D01*
X165297164Y-116510312D01*
X165297161Y-116510313D01*
X165177338Y-116579492D01*
X165177333Y-116579496D01*
X165079496Y-116677333D01*
X165079492Y-116677338D01*
X165010313Y-116797161D01*
X165010312Y-116797164D01*
X164974500Y-116930817D01*
X130216128Y-116930817D01*
X130308996Y-116802994D01*
X130391211Y-116641639D01*
X130447171Y-116469409D01*
X130467581Y-116340546D01*
X130475500Y-116290551D01*
X130475500Y-116109448D01*
X130455090Y-115980589D01*
X130447171Y-115930591D01*
X130419191Y-115844476D01*
X130391212Y-115758363D01*
X130391211Y-115758360D01*
X130334470Y-115647002D01*
X130308996Y-115597006D01*
X130295396Y-115578287D01*
X130202558Y-115450505D01*
X130202554Y-115450500D01*
X130074499Y-115322445D01*
X130074492Y-115322439D01*
X129948383Y-115230817D01*
X151474500Y-115230817D01*
X151474500Y-115369183D01*
X151509688Y-115500505D01*
X151510312Y-115502835D01*
X151510313Y-115502838D01*
X151579492Y-115622661D01*
X151579494Y-115622664D01*
X151579495Y-115622665D01*
X151677335Y-115720505D01*
X151797164Y-115789688D01*
X151930817Y-115825500D01*
X151930819Y-115825500D01*
X152069181Y-115825500D01*
X152069183Y-115825500D01*
X152202836Y-115789688D01*
X152322665Y-115720505D01*
X152420505Y-115622665D01*
X152489688Y-115502836D01*
X152525500Y-115369183D01*
X152525500Y-115230817D01*
X152489688Y-115097164D01*
X152427637Y-114989688D01*
X152420507Y-114977338D01*
X152420503Y-114977333D01*
X152322666Y-114879496D01*
X152322661Y-114879492D01*
X152202838Y-114810313D01*
X152202837Y-114810312D01*
X152202836Y-114810312D01*
X152069183Y-114774500D01*
X151930817Y-114774500D01*
X151797164Y-114810312D01*
X151797161Y-114810313D01*
X151677338Y-114879492D01*
X151677333Y-114879496D01*
X151579496Y-114977333D01*
X151579492Y-114977338D01*
X151510313Y-115097161D01*
X151510312Y-115097164D01*
X151474500Y-115230817D01*
X129948383Y-115230817D01*
X129927997Y-115216006D01*
X129927996Y-115216005D01*
X129927994Y-115216004D01*
X129846462Y-115174461D01*
X129766639Y-115133788D01*
X129766636Y-115133787D01*
X129594410Y-115077829D01*
X129415551Y-115049500D01*
X129415546Y-115049500D01*
X128984454Y-115049500D01*
X128984449Y-115049500D01*
X128805589Y-115077829D01*
X128633363Y-115133787D01*
X128633360Y-115133788D01*
X128472002Y-115216006D01*
X128325505Y-115322441D01*
X128325500Y-115322445D01*
X128197445Y-115450500D01*
X128197441Y-115450505D01*
X128091006Y-115597002D01*
X128008788Y-115758360D01*
X128008787Y-115758363D01*
X127952829Y-115930589D01*
X127924500Y-116109448D01*
X127924500Y-116290551D01*
X127952829Y-116469410D01*
X128008787Y-116641636D01*
X128008788Y-116641639D01*
X128034265Y-116691639D01*
X128091003Y-116802993D01*
X128091006Y-116802997D01*
X128197441Y-116949494D01*
X128197445Y-116949499D01*
X128325500Y-117077554D01*
X128325505Y-117077558D01*
X128394325Y-117127558D01*
X128472006Y-117183996D01*
X128570130Y-117233993D01*
X128633360Y-117266211D01*
X128633363Y-117266212D01*
X128719476Y-117294191D01*
X128805591Y-117322171D01*
X128830291Y-117326083D01*
X128839406Y-117327527D01*
X128902540Y-117357457D01*
X128939471Y-117416768D01*
X128938473Y-117486631D01*
X128899863Y-117544863D01*
X128839406Y-117572473D01*
X128805589Y-117577829D01*
X128633363Y-117633787D01*
X128633360Y-117633788D01*
X128472002Y-117716006D01*
X128325505Y-117822441D01*
X128325500Y-117822445D01*
X128197445Y-117950500D01*
X128197441Y-117950505D01*
X128091006Y-118097002D01*
X128008788Y-118258360D01*
X128008787Y-118258363D01*
X127952829Y-118430589D01*
X127924500Y-118609448D01*
X127924500Y-118790551D01*
X127952829Y-118969410D01*
X128008787Y-119141636D01*
X128008788Y-119141639D01*
X128034656Y-119192406D01*
X128090923Y-119302836D01*
X128091006Y-119302997D01*
X128197441Y-119449494D01*
X128197445Y-119449499D01*
X128325500Y-119577554D01*
X128325505Y-119577558D01*
X128404051Y-119634625D01*
X128446717Y-119689954D01*
X128452696Y-119759568D01*
X128420091Y-119821363D01*
X128359252Y-119855720D01*
X128343769Y-119858301D01*
X128322302Y-119860494D01*
X128155880Y-119915641D01*
X128155875Y-119915643D01*
X128006654Y-120007684D01*
X127882684Y-120131654D01*
X127790643Y-120280875D01*
X127790641Y-120280880D01*
X127735494Y-120447302D01*
X127735493Y-120447309D01*
X127725000Y-120550013D01*
X118500500Y-120550013D01*
X118500500Y-113500000D01*
X120547769Y-113500000D01*
X121595854Y-113500000D01*
X121557370Y-113566657D01*
X121525000Y-113687465D01*
X121525000Y-113812535D01*
X121557370Y-113933343D01*
X121595854Y-114000000D01*
X120547769Y-114000000D01*
X120558242Y-114066126D01*
X120558242Y-114066129D01*
X120623904Y-114268217D01*
X120720379Y-114457557D01*
X120845272Y-114629459D01*
X120845276Y-114629464D01*
X120995535Y-114779723D01*
X120995540Y-114779727D01*
X121167442Y-114904620D01*
X121357511Y-115001466D01*
X121408307Y-115049441D01*
X121425102Y-115117262D01*
X121402565Y-115183397D01*
X121357512Y-115222435D01*
X121272004Y-115266004D01*
X121125505Y-115372441D01*
X121125500Y-115372445D01*
X120997445Y-115500500D01*
X120997441Y-115500505D01*
X120891006Y-115647002D01*
X120808788Y-115808360D01*
X120808787Y-115808363D01*
X120752829Y-115980589D01*
X120724500Y-116159448D01*
X120724500Y-116340551D01*
X120752829Y-116519410D01*
X120808787Y-116691636D01*
X120808788Y-116691639D01*
X120862555Y-116797161D01*
X120889379Y-116849805D01*
X120891006Y-116852997D01*
X120997441Y-116999494D01*
X120997445Y-116999499D01*
X121125500Y-117127554D01*
X121125505Y-117127558D01*
X121229116Y-117202835D01*
X121272006Y-117233996D01*
X121377484Y-117287740D01*
X121433360Y-117316211D01*
X121433363Y-117316212D01*
X121560649Y-117357569D01*
X121618324Y-117397006D01*
X121645523Y-117461364D01*
X121633609Y-117530211D01*
X121586365Y-117581687D01*
X121522331Y-117599500D01*
X121231898Y-117599500D01*
X121192853Y-117604188D01*
X121143438Y-117610122D01*
X121002656Y-117665639D01*
X120882077Y-117757077D01*
X120790639Y-117877656D01*
X120735122Y-118018438D01*
X120729188Y-118067853D01*
X120724500Y-118106898D01*
X120724500Y-119393102D01*
X120728050Y-119422661D01*
X120735122Y-119481561D01*
X120790639Y-119622343D01*
X120882077Y-119742922D01*
X121002656Y-119834360D01*
X121002657Y-119834360D01*
X121002658Y-119834361D01*
X121143436Y-119889877D01*
X121231898Y-119900500D01*
X121231903Y-119900500D01*
X122768097Y-119900500D01*
X122768102Y-119900500D01*
X122856564Y-119889877D01*
X122997342Y-119834361D01*
X123117922Y-119742922D01*
X123209361Y-119622342D01*
X123264877Y-119481564D01*
X123275500Y-119393102D01*
X123275500Y-118106898D01*
X123264877Y-118018436D01*
X123209361Y-117877658D01*
X123209360Y-117877657D01*
X123209360Y-117877656D01*
X123117922Y-117757077D01*
X122997343Y-117665639D01*
X122856561Y-117610122D01*
X122810926Y-117604642D01*
X122768102Y-117599500D01*
X122477669Y-117599500D01*
X122410630Y-117579815D01*
X122364875Y-117527011D01*
X122354931Y-117457853D01*
X122383956Y-117394297D01*
X122439351Y-117357569D01*
X122566636Y-117316212D01*
X122566639Y-117316211D01*
X122727994Y-117233996D01*
X122874501Y-117127553D01*
X123002553Y-116999501D01*
X123108996Y-116852994D01*
X123191211Y-116691639D01*
X123247171Y-116519409D01*
X123261765Y-116427259D01*
X123275500Y-116340551D01*
X123275500Y-116159448D01*
X123259019Y-116055397D01*
X123247171Y-115980591D01*
X123196780Y-115825500D01*
X123191212Y-115808363D01*
X123191211Y-115808360D01*
X123146445Y-115720503D01*
X123108996Y-115647006D01*
X123072666Y-115597002D01*
X123002558Y-115500505D01*
X123002554Y-115500500D01*
X122874499Y-115372445D01*
X122874494Y-115372441D01*
X122727993Y-115266003D01*
X122727992Y-115266002D01*
X122642488Y-115222435D01*
X122591692Y-115174461D01*
X122574897Y-115106640D01*
X122597435Y-115040505D01*
X122642488Y-115001466D01*
X122832558Y-114904620D01*
X123004459Y-114779727D01*
X123004464Y-114779723D01*
X123154723Y-114629464D01*
X123154727Y-114629459D01*
X123279620Y-114457557D01*
X123293245Y-114430817D01*
X137774500Y-114430817D01*
X137774500Y-114569182D01*
X137810312Y-114702835D01*
X137810313Y-114702838D01*
X137879492Y-114822661D01*
X137879494Y-114822664D01*
X137879495Y-114822665D01*
X137977335Y-114920505D01*
X138097164Y-114989688D01*
X138230817Y-115025500D01*
X138230819Y-115025500D01*
X138369181Y-115025500D01*
X138369183Y-115025500D01*
X138502836Y-114989688D01*
X138622665Y-114920505D01*
X138720505Y-114822665D01*
X138789688Y-114702836D01*
X138825500Y-114569183D01*
X138825500Y-114430817D01*
X138789688Y-114297164D01*
X138720505Y-114177335D01*
X138622665Y-114079495D01*
X138622664Y-114079494D01*
X138622661Y-114079492D01*
X138502838Y-114010313D01*
X138502837Y-114010312D01*
X138502836Y-114010312D01*
X138369183Y-113974500D01*
X138230817Y-113974500D01*
X138097164Y-114010312D01*
X138097161Y-114010313D01*
X137977338Y-114079492D01*
X137977333Y-114079496D01*
X137879496Y-114177333D01*
X137879492Y-114177338D01*
X137810313Y-114297161D01*
X137810312Y-114297164D01*
X137774500Y-114430817D01*
X123293245Y-114430817D01*
X123326071Y-114366395D01*
X123376095Y-114268217D01*
X123441757Y-114066129D01*
X123441757Y-114066126D01*
X123452231Y-114000000D01*
X122404146Y-114000000D01*
X122442630Y-113933343D01*
X122475000Y-113812535D01*
X122475000Y-113687465D01*
X122442630Y-113566657D01*
X122404146Y-113500000D01*
X123452231Y-113500000D01*
X123441757Y-113433873D01*
X123441757Y-113433870D01*
X123376095Y-113231782D01*
X123298241Y-113078985D01*
X123298240Y-113078983D01*
X123279622Y-113042444D01*
X123271175Y-113030817D01*
X141574500Y-113030817D01*
X141574500Y-113169183D01*
X141602854Y-113275000D01*
X141610312Y-113302835D01*
X141610313Y-113302838D01*
X141679492Y-113422661D01*
X141679494Y-113422664D01*
X141679495Y-113422665D01*
X141777335Y-113520505D01*
X141777336Y-113520506D01*
X141777338Y-113520507D01*
X141837249Y-113555096D01*
X141897164Y-113589688D01*
X142030817Y-113625500D01*
X142030819Y-113625500D01*
X142169181Y-113625500D01*
X142169183Y-113625500D01*
X142302836Y-113589688D01*
X142422665Y-113520505D01*
X142520505Y-113422665D01*
X142589688Y-113302836D01*
X142625500Y-113169183D01*
X142625500Y-113030817D01*
X142589688Y-112897164D01*
X142582485Y-112884688D01*
X142582485Y-112884687D01*
X142551383Y-112830817D01*
X143874500Y-112830817D01*
X143874500Y-112969183D01*
X143901295Y-113069182D01*
X143910312Y-113102835D01*
X143910313Y-113102838D01*
X143979492Y-113222661D01*
X143979494Y-113222664D01*
X143979495Y-113222665D01*
X144077335Y-113320505D01*
X144197164Y-113389688D01*
X144330817Y-113425500D01*
X144330819Y-113425500D01*
X144469181Y-113425500D01*
X144469183Y-113425500D01*
X144602836Y-113389688D01*
X144722665Y-113320505D01*
X144820505Y-113222665D01*
X144889688Y-113102836D01*
X144925500Y-112969183D01*
X144925500Y-112930817D01*
X160774500Y-112930817D01*
X160774500Y-113069183D01*
X160801295Y-113169182D01*
X160810312Y-113202835D01*
X160810313Y-113202838D01*
X160879492Y-113322661D01*
X160879494Y-113322664D01*
X160879495Y-113322665D01*
X160977335Y-113420505D01*
X160977336Y-113420506D01*
X160977338Y-113420507D01*
X161000484Y-113433870D01*
X161097164Y-113489688D01*
X161230817Y-113525500D01*
X161230819Y-113525500D01*
X161369181Y-113525500D01*
X161369183Y-113525500D01*
X161502836Y-113489688D01*
X161622665Y-113420505D01*
X161720505Y-113322665D01*
X161789688Y-113202836D01*
X161825500Y-113069183D01*
X161825500Y-112930817D01*
X161789688Y-112797164D01*
X161731953Y-112697164D01*
X161720507Y-112677338D01*
X161720503Y-112677333D01*
X161622666Y-112579496D01*
X161622661Y-112579492D01*
X161502838Y-112510313D01*
X161502837Y-112510312D01*
X161502836Y-112510312D01*
X161369183Y-112474500D01*
X161230817Y-112474500D01*
X161097164Y-112510312D01*
X161097161Y-112510313D01*
X160977338Y-112579492D01*
X160977333Y-112579496D01*
X160879496Y-112677333D01*
X160879492Y-112677338D01*
X160810313Y-112797161D01*
X160810312Y-112797164D01*
X160774500Y-112930817D01*
X144925500Y-112930817D01*
X144925500Y-112830817D01*
X144889688Y-112697164D01*
X144835228Y-112602836D01*
X144820507Y-112577338D01*
X144820503Y-112577333D01*
X144722666Y-112479496D01*
X144722658Y-112479490D01*
X144637071Y-112430077D01*
X144637070Y-112430077D01*
X144602838Y-112410313D01*
X144602837Y-112410312D01*
X144602836Y-112410312D01*
X144469183Y-112374500D01*
X144330817Y-112374500D01*
X144197164Y-112410312D01*
X144197161Y-112410313D01*
X144077338Y-112479492D01*
X144077333Y-112479496D01*
X143979496Y-112577333D01*
X143979492Y-112577338D01*
X143910313Y-112697161D01*
X143910312Y-112697164D01*
X143874500Y-112830817D01*
X142551383Y-112830817D01*
X142520509Y-112777341D01*
X142520503Y-112777333D01*
X142422666Y-112679496D01*
X142422661Y-112679492D01*
X142302838Y-112610313D01*
X142302837Y-112610312D01*
X142302836Y-112610312D01*
X142169183Y-112574500D01*
X142030817Y-112574500D01*
X141897164Y-112610312D01*
X141897161Y-112610313D01*
X141777338Y-112679492D01*
X141777333Y-112679496D01*
X141679496Y-112777333D01*
X141679492Y-112777338D01*
X141610313Y-112897161D01*
X141610312Y-112897164D01*
X141574500Y-113030817D01*
X123271175Y-113030817D01*
X123154727Y-112870540D01*
X123154723Y-112870535D01*
X123004464Y-112720276D01*
X123004459Y-112720272D01*
X122832557Y-112595379D01*
X122642488Y-112498533D01*
X122591692Y-112450558D01*
X122574897Y-112382737D01*
X122592591Y-112330817D01*
X159474500Y-112330817D01*
X159474500Y-112469183D01*
X159502720Y-112574500D01*
X159510312Y-112602835D01*
X159510313Y-112602838D01*
X159579492Y-112722661D01*
X159579494Y-112722664D01*
X159579495Y-112722665D01*
X159677335Y-112820505D01*
X159797164Y-112889688D01*
X159930817Y-112925500D01*
X159930819Y-112925500D01*
X160069181Y-112925500D01*
X160069183Y-112925500D01*
X160202836Y-112889688D01*
X160322665Y-112820505D01*
X160420505Y-112722665D01*
X160489688Y-112602836D01*
X160525500Y-112469183D01*
X160525500Y-112330817D01*
X160489688Y-112197164D01*
X160420505Y-112077335D01*
X160322665Y-111979495D01*
X160322664Y-111979494D01*
X160322661Y-111979492D01*
X160202838Y-111910313D01*
X160202837Y-111910312D01*
X160202836Y-111910312D01*
X160069183Y-111874500D01*
X159930817Y-111874500D01*
X159797164Y-111910312D01*
X159797161Y-111910313D01*
X159677338Y-111979492D01*
X159677333Y-111979496D01*
X159579496Y-112077333D01*
X159579492Y-112077338D01*
X159510313Y-112197161D01*
X159510312Y-112197164D01*
X159474500Y-112330817D01*
X122592591Y-112330817D01*
X122597435Y-112316602D01*
X122642489Y-112277563D01*
X122727994Y-112233996D01*
X122874501Y-112127553D01*
X123002553Y-111999501D01*
X123108996Y-111852994D01*
X123191211Y-111691639D01*
X123247171Y-111519409D01*
X123261765Y-111427259D01*
X123275500Y-111340551D01*
X123275500Y-111159448D01*
X123247171Y-110980591D01*
X123240808Y-110961006D01*
X123240807Y-110961004D01*
X123230999Y-110930817D01*
X140274500Y-110930817D01*
X140274500Y-111069183D01*
X140298687Y-111159448D01*
X140310312Y-111202835D01*
X140310313Y-111202838D01*
X140379492Y-111322661D01*
X140379494Y-111322664D01*
X140379495Y-111322665D01*
X140477335Y-111420505D01*
X140597164Y-111489688D01*
X140730817Y-111525500D01*
X140730819Y-111525500D01*
X140869181Y-111525500D01*
X140869183Y-111525500D01*
X141002836Y-111489688D01*
X141122665Y-111420505D01*
X141220505Y-111322665D01*
X141289688Y-111202836D01*
X141325500Y-111069183D01*
X141325500Y-110930817D01*
X141289688Y-110797164D01*
X141220505Y-110677335D01*
X141219555Y-110676097D01*
X141219077Y-110674861D01*
X141216442Y-110670297D01*
X141217153Y-110669886D01*
X141194357Y-110610930D01*
X141208391Y-110542484D01*
X141230239Y-110512930D01*
X141320505Y-110422665D01*
X141389688Y-110302836D01*
X141425500Y-110169183D01*
X141425500Y-110030817D01*
X141389688Y-109897164D01*
X141320505Y-109777335D01*
X141222665Y-109679495D01*
X141222664Y-109679494D01*
X141222661Y-109679492D01*
X141102838Y-109610313D01*
X141102837Y-109610312D01*
X141102836Y-109610312D01*
X140969183Y-109574500D01*
X140830817Y-109574500D01*
X140697164Y-109610312D01*
X140697161Y-109610313D01*
X140577338Y-109679492D01*
X140577333Y-109679496D01*
X140479496Y-109777333D01*
X140479492Y-109777338D01*
X140410313Y-109897161D01*
X140410312Y-109897164D01*
X140374500Y-110030817D01*
X140374500Y-110169183D01*
X140400444Y-110266006D01*
X140410312Y-110302835D01*
X140410313Y-110302838D01*
X140479492Y-110422662D01*
X140480446Y-110423904D01*
X140480924Y-110425141D01*
X140483558Y-110429703D01*
X140482846Y-110430113D01*
X140505643Y-110489072D01*
X140491607Y-110557517D01*
X140469755Y-110587075D01*
X140379492Y-110677338D01*
X140310313Y-110797161D01*
X140310312Y-110797164D01*
X140274500Y-110930817D01*
X123230999Y-110930817D01*
X123191212Y-110808363D01*
X123191211Y-110808360D01*
X123151584Y-110730589D01*
X123108996Y-110647006D01*
X123059947Y-110579495D01*
X123002558Y-110500505D01*
X123002554Y-110500500D01*
X122874499Y-110372445D01*
X122874494Y-110372441D01*
X122727997Y-110266006D01*
X122727996Y-110266005D01*
X122727994Y-110266004D01*
X122676300Y-110239664D01*
X122566639Y-110183788D01*
X122566636Y-110183787D01*
X122394410Y-110127829D01*
X122360594Y-110122473D01*
X122297459Y-110092544D01*
X122260528Y-110033232D01*
X122261526Y-109963370D01*
X122300136Y-109905137D01*
X122360594Y-109877527D01*
X122368388Y-109876292D01*
X122394409Y-109872171D01*
X122566639Y-109816211D01*
X122727994Y-109733996D01*
X122874501Y-109627553D01*
X123002553Y-109499501D01*
X123108996Y-109352994D01*
X123191211Y-109191639D01*
X123247171Y-109019409D01*
X123264450Y-108910312D01*
X123275500Y-108840551D01*
X123275500Y-108659448D01*
X123253493Y-108520506D01*
X123247171Y-108480591D01*
X123214518Y-108380095D01*
X123191212Y-108308363D01*
X123191211Y-108308360D01*
X123140249Y-108208343D01*
X123108996Y-108147006D01*
X123089306Y-108119905D01*
X123002558Y-108000505D01*
X123002554Y-108000500D01*
X122874499Y-107872445D01*
X122874494Y-107872441D01*
X122843624Y-107850013D01*
X127725000Y-107850013D01*
X127725000Y-108250000D01*
X128795854Y-108250000D01*
X128757370Y-108316657D01*
X128725000Y-108437465D01*
X128725000Y-108562535D01*
X128757370Y-108683343D01*
X128795854Y-108750000D01*
X127725001Y-108750000D01*
X127725001Y-109149986D01*
X127735494Y-109252697D01*
X127790641Y-109419119D01*
X127790643Y-109419124D01*
X127882684Y-109568345D01*
X128006654Y-109692315D01*
X128155875Y-109784356D01*
X128155880Y-109784358D01*
X128322302Y-109839505D01*
X128322309Y-109839506D01*
X128425019Y-109849999D01*
X128949999Y-109849999D01*
X128950000Y-109849998D01*
X128950000Y-108904145D01*
X129016657Y-108942630D01*
X129137465Y-108975000D01*
X129262535Y-108975000D01*
X129383343Y-108942630D01*
X129450000Y-108904145D01*
X129450000Y-109849999D01*
X129974972Y-109849999D01*
X129974986Y-109849998D01*
X130077697Y-109839505D01*
X130244119Y-109784358D01*
X130244124Y-109784356D01*
X130393345Y-109692315D01*
X130517315Y-109568345D01*
X130609356Y-109419124D01*
X130609358Y-109419119D01*
X130638619Y-109330817D01*
X134774500Y-109330817D01*
X134774500Y-109469183D01*
X134802720Y-109574500D01*
X134810312Y-109602835D01*
X134810313Y-109602838D01*
X134879492Y-109722661D01*
X134879494Y-109722664D01*
X134879495Y-109722665D01*
X134977335Y-109820505D01*
X135097164Y-109889688D01*
X135230817Y-109925500D01*
X135230819Y-109925500D01*
X135369181Y-109925500D01*
X135369183Y-109925500D01*
X135502836Y-109889688D01*
X135622665Y-109820505D01*
X135720505Y-109722665D01*
X135789688Y-109602836D01*
X135825500Y-109469183D01*
X135825500Y-109330817D01*
X135789688Y-109197164D01*
X135720505Y-109077335D01*
X135622665Y-108979495D01*
X135622664Y-108979494D01*
X135622661Y-108979492D01*
X135502838Y-108910313D01*
X135502837Y-108910312D01*
X135502836Y-108910312D01*
X135369183Y-108874500D01*
X135230817Y-108874500D01*
X135097164Y-108910312D01*
X135097161Y-108910313D01*
X134977338Y-108979492D01*
X134977333Y-108979496D01*
X134879496Y-109077333D01*
X134879492Y-109077338D01*
X134810313Y-109197161D01*
X134810312Y-109197164D01*
X134774500Y-109330817D01*
X130638619Y-109330817D01*
X130654237Y-109283686D01*
X130654237Y-109283685D01*
X130664504Y-109252701D01*
X130664506Y-109252690D01*
X130674999Y-109149986D01*
X130675000Y-109149973D01*
X130675000Y-108750000D01*
X129604146Y-108750000D01*
X129642630Y-108683343D01*
X129675000Y-108562535D01*
X129675000Y-108437465D01*
X129642630Y-108316657D01*
X129604146Y-108250000D01*
X130674999Y-108250000D01*
X130674999Y-108030816D01*
X142798889Y-108030816D01*
X142798889Y-108169182D01*
X142815344Y-108230591D01*
X142834701Y-108302834D01*
X142834702Y-108302837D01*
X142903881Y-108422660D01*
X142903883Y-108422663D01*
X142903884Y-108422664D01*
X143001724Y-108520504D01*
X143121553Y-108589687D01*
X143255206Y-108625499D01*
X143255208Y-108625499D01*
X143393570Y-108625499D01*
X143393572Y-108625499D01*
X143527225Y-108589687D01*
X143647054Y-108520504D01*
X143744894Y-108422664D01*
X143814077Y-108302835D01*
X143849889Y-108169182D01*
X143849889Y-108100400D01*
X143850173Y-108096215D01*
X143860869Y-108067213D01*
X143869574Y-108037570D01*
X143872850Y-108034731D01*
X143874351Y-108030662D01*
X143899030Y-108012045D01*
X143922378Y-107991815D01*
X143929012Y-107989429D01*
X143930131Y-107988586D01*
X143931684Y-107988469D01*
X143941786Y-107984837D01*
X144024181Y-107962760D01*
X144144010Y-107893577D01*
X144241850Y-107795737D01*
X144268256Y-107750000D01*
X165047769Y-107750000D01*
X166095854Y-107750000D01*
X166057370Y-107816657D01*
X166025000Y-107937465D01*
X166025000Y-108062535D01*
X166057370Y-108183343D01*
X166095854Y-108250000D01*
X165047769Y-108250000D01*
X165058242Y-108316126D01*
X165058242Y-108316129D01*
X165123904Y-108518217D01*
X165220379Y-108707557D01*
X165345272Y-108879459D01*
X165345276Y-108879464D01*
X165495535Y-109029723D01*
X165495540Y-109029727D01*
X165667442Y-109154620D01*
X165856782Y-109251095D01*
X166058872Y-109316757D01*
X166250000Y-109347029D01*
X166250000Y-108404145D01*
X166316657Y-108442630D01*
X166437465Y-108475000D01*
X166562535Y-108475000D01*
X166683343Y-108442630D01*
X166750000Y-108404145D01*
X166750000Y-109347028D01*
X166941127Y-109316757D01*
X167143217Y-109251095D01*
X167332557Y-109154620D01*
X167504459Y-109029727D01*
X167504464Y-109029723D01*
X167654723Y-108879464D01*
X167654727Y-108879459D01*
X167779620Y-108707557D01*
X167876095Y-108518217D01*
X167941757Y-108316129D01*
X167941757Y-108316126D01*
X167952231Y-108250000D01*
X166904146Y-108250000D01*
X166942630Y-108183343D01*
X166975000Y-108062535D01*
X166975000Y-107937465D01*
X166942630Y-107816657D01*
X166904146Y-107750000D01*
X167952231Y-107750000D01*
X167941757Y-107683873D01*
X167941757Y-107683870D01*
X167876095Y-107481782D01*
X167779620Y-107292442D01*
X167654727Y-107120540D01*
X167654723Y-107120535D01*
X167504464Y-106970276D01*
X167504459Y-106970272D01*
X167332557Y-106845379D01*
X167142488Y-106748533D01*
X167091692Y-106700558D01*
X167074897Y-106632737D01*
X167097435Y-106566602D01*
X167142489Y-106527563D01*
X167227994Y-106483996D01*
X167374501Y-106377553D01*
X167502553Y-106249501D01*
X167608996Y-106102994D01*
X167691211Y-105941639D01*
X167747171Y-105769409D01*
X167766558Y-105647006D01*
X167775500Y-105590551D01*
X167775500Y-105409448D01*
X167752780Y-105266006D01*
X167747171Y-105230591D01*
X167713782Y-105127829D01*
X167691212Y-105058363D01*
X167691211Y-105058360D01*
X167653672Y-104984687D01*
X167608996Y-104897006D01*
X167582650Y-104860744D01*
X167502558Y-104750505D01*
X167502554Y-104750500D01*
X167374499Y-104622445D01*
X167374494Y-104622441D01*
X167227997Y-104516006D01*
X167227996Y-104516005D01*
X167227994Y-104516004D01*
X167165169Y-104483993D01*
X167066639Y-104433788D01*
X167066636Y-104433787D01*
X166894410Y-104377829D01*
X166860594Y-104372473D01*
X166797459Y-104342544D01*
X166760528Y-104283232D01*
X166761526Y-104213370D01*
X166800136Y-104155137D01*
X166860594Y-104127527D01*
X166868388Y-104126292D01*
X166894409Y-104122171D01*
X167066639Y-104066211D01*
X167227994Y-103983996D01*
X167374501Y-103877553D01*
X167502553Y-103749501D01*
X167608996Y-103602994D01*
X167691211Y-103441639D01*
X167747171Y-103269409D01*
X167761765Y-103177259D01*
X167775500Y-103090551D01*
X167775500Y-102909448D01*
X167750324Y-102750499D01*
X167747171Y-102730591D01*
X167719191Y-102644476D01*
X167691212Y-102558363D01*
X167691211Y-102558360D01*
X167662740Y-102502484D01*
X167608996Y-102397006D01*
X167569427Y-102342544D01*
X167502558Y-102250505D01*
X167502554Y-102250500D01*
X167374499Y-102122445D01*
X167374494Y-102122441D01*
X167227997Y-102016006D01*
X167227996Y-102016005D01*
X167227994Y-102016004D01*
X167165169Y-101983993D01*
X167066639Y-101933788D01*
X167066636Y-101933787D01*
X166939351Y-101892431D01*
X166881676Y-101852994D01*
X166854477Y-101788636D01*
X166866391Y-101719789D01*
X166913635Y-101668313D01*
X166977669Y-101650500D01*
X167268097Y-101650500D01*
X167268102Y-101650500D01*
X167356564Y-101639877D01*
X167497342Y-101584361D01*
X167617922Y-101492922D01*
X167709361Y-101372342D01*
X167764877Y-101231564D01*
X167775500Y-101143102D01*
X167775500Y-99856898D01*
X167764877Y-99768436D01*
X167709361Y-99627658D01*
X167709360Y-99627657D01*
X167709360Y-99627656D01*
X167617922Y-99507077D01*
X167497343Y-99415639D01*
X167356561Y-99360122D01*
X167310926Y-99354642D01*
X167268102Y-99349500D01*
X165731898Y-99349500D01*
X165692853Y-99354188D01*
X165643438Y-99360122D01*
X165502656Y-99415639D01*
X165382077Y-99507077D01*
X165290639Y-99627656D01*
X165235122Y-99768438D01*
X165229188Y-99817853D01*
X165224500Y-99856898D01*
X165224500Y-101143102D01*
X165230126Y-101189954D01*
X165235122Y-101231561D01*
X165290639Y-101372343D01*
X165382077Y-101492922D01*
X165502656Y-101584360D01*
X165502657Y-101584360D01*
X165502658Y-101584361D01*
X165643436Y-101639877D01*
X165731898Y-101650500D01*
X165731903Y-101650500D01*
X166022331Y-101650500D01*
X166089370Y-101670185D01*
X166135125Y-101722989D01*
X166145069Y-101792147D01*
X166116044Y-101855703D01*
X166060649Y-101892431D01*
X165933363Y-101933787D01*
X165933360Y-101933788D01*
X165772002Y-102016006D01*
X165625505Y-102122441D01*
X165625500Y-102122445D01*
X165497445Y-102250500D01*
X165497441Y-102250505D01*
X165391006Y-102397002D01*
X165308788Y-102558360D01*
X165308787Y-102558363D01*
X165252829Y-102730589D01*
X165224500Y-102909448D01*
X165224500Y-103090551D01*
X165252829Y-103269410D01*
X165308787Y-103441636D01*
X165308788Y-103441639D01*
X165364664Y-103551300D01*
X165384661Y-103590546D01*
X165391006Y-103602997D01*
X165497441Y-103749494D01*
X165497445Y-103749499D01*
X165625500Y-103877554D01*
X165625505Y-103877558D01*
X165713702Y-103941636D01*
X165772006Y-103983996D01*
X165877484Y-104037740D01*
X165933360Y-104066211D01*
X165933363Y-104066212D01*
X166019476Y-104094191D01*
X166105591Y-104122171D01*
X166130291Y-104126083D01*
X166139406Y-104127527D01*
X166202540Y-104157457D01*
X166239471Y-104216768D01*
X166238473Y-104286631D01*
X166199863Y-104344863D01*
X166139406Y-104372473D01*
X166105589Y-104377829D01*
X165933363Y-104433787D01*
X165933360Y-104433788D01*
X165772002Y-104516006D01*
X165625505Y-104622441D01*
X165625500Y-104622445D01*
X165497445Y-104750500D01*
X165497441Y-104750505D01*
X165391006Y-104897002D01*
X165308788Y-105058360D01*
X165308787Y-105058363D01*
X165252829Y-105230589D01*
X165224500Y-105409448D01*
X165224500Y-105590551D01*
X165252829Y-105769410D01*
X165308787Y-105941636D01*
X165308788Y-105941639D01*
X165328636Y-105980591D01*
X165388033Y-106097164D01*
X165391006Y-106102997D01*
X165497441Y-106249494D01*
X165497445Y-106249499D01*
X165625500Y-106377554D01*
X165625505Y-106377558D01*
X165753287Y-106470396D01*
X165772006Y-106483996D01*
X165857511Y-106527563D01*
X165908307Y-106575538D01*
X165925102Y-106643359D01*
X165902565Y-106709494D01*
X165857511Y-106748533D01*
X165667442Y-106845379D01*
X165495540Y-106970272D01*
X165495535Y-106970276D01*
X165345276Y-107120535D01*
X165345272Y-107120540D01*
X165220379Y-107292442D01*
X165123904Y-107481782D01*
X165058242Y-107683870D01*
X165058242Y-107683873D01*
X165047769Y-107750000D01*
X144268256Y-107750000D01*
X144311033Y-107675908D01*
X144346845Y-107542255D01*
X144346845Y-107403889D01*
X144337561Y-107369240D01*
X144339224Y-107299393D01*
X144378386Y-107241530D01*
X144395330Y-107229765D01*
X144492687Y-107173557D01*
X144590527Y-107075717D01*
X144659710Y-106955888D01*
X144695522Y-106822235D01*
X144695522Y-106683869D01*
X144659710Y-106550216D01*
X144621476Y-106483993D01*
X144590529Y-106430390D01*
X144590525Y-106430385D01*
X144492688Y-106332548D01*
X144492683Y-106332544D01*
X144488411Y-106330078D01*
X144488409Y-106330077D01*
X144455786Y-106311242D01*
X144407572Y-106260675D01*
X144401818Y-106230817D01*
X158874500Y-106230817D01*
X158874500Y-106369183D01*
X158893960Y-106441807D01*
X158910312Y-106502835D01*
X158910313Y-106502838D01*
X158979492Y-106622661D01*
X158979494Y-106622664D01*
X158979495Y-106622665D01*
X159077335Y-106720505D01*
X159197164Y-106789688D01*
X159330817Y-106825500D01*
X159330819Y-106825500D01*
X159469181Y-106825500D01*
X159469183Y-106825500D01*
X159602836Y-106789688D01*
X159722665Y-106720505D01*
X159820505Y-106622665D01*
X159889688Y-106502836D01*
X159925500Y-106369183D01*
X159925500Y-106230817D01*
X159889688Y-106097164D01*
X159820505Y-105977335D01*
X159722665Y-105879495D01*
X159722664Y-105879494D01*
X159722661Y-105879492D01*
X159602838Y-105810313D01*
X159602837Y-105810312D01*
X159602836Y-105810312D01*
X159469183Y-105774500D01*
X159330817Y-105774500D01*
X159197164Y-105810312D01*
X159197161Y-105810313D01*
X159077338Y-105879492D01*
X159077333Y-105879496D01*
X158979496Y-105977333D01*
X158979492Y-105977338D01*
X158910313Y-106097161D01*
X158910312Y-106097164D01*
X158874500Y-106230817D01*
X144401818Y-106230817D01*
X144394350Y-106192068D01*
X144398010Y-106171775D01*
X144425500Y-106069183D01*
X144425500Y-105930817D01*
X144389688Y-105797164D01*
X144327637Y-105689688D01*
X144320507Y-105677338D01*
X144320503Y-105677333D01*
X144222666Y-105579496D01*
X144222661Y-105579492D01*
X144102838Y-105510313D01*
X144102837Y-105510312D01*
X144102836Y-105510312D01*
X143969183Y-105474500D01*
X143830817Y-105474500D01*
X143697164Y-105510312D01*
X143697161Y-105510313D01*
X143577338Y-105579492D01*
X143577333Y-105579496D01*
X143479496Y-105677333D01*
X143479492Y-105677338D01*
X143410313Y-105797161D01*
X143410312Y-105797164D01*
X143374500Y-105930817D01*
X143374500Y-106069183D01*
X143398687Y-106159448D01*
X143410312Y-106202835D01*
X143410313Y-106202838D01*
X143479492Y-106322661D01*
X143479494Y-106322664D01*
X143479495Y-106322665D01*
X143577335Y-106420505D01*
X143614232Y-106441807D01*
X143662448Y-106492374D01*
X143675672Y-106560981D01*
X143672008Y-106581288D01*
X143644522Y-106683869D01*
X143644522Y-106822236D01*
X143653805Y-106856882D01*
X143652141Y-106926732D01*
X143612978Y-106984594D01*
X143596030Y-106996361D01*
X143498683Y-107052564D01*
X143498678Y-107052568D01*
X143400841Y-107150405D01*
X143400837Y-107150410D01*
X143331658Y-107270233D01*
X143331657Y-107270236D01*
X143295845Y-107403889D01*
X143295845Y-107468461D01*
X143276160Y-107535500D01*
X143223356Y-107581255D01*
X143203939Y-107588236D01*
X143121551Y-107610311D01*
X143121550Y-107610312D01*
X143001727Y-107679491D01*
X143001722Y-107679495D01*
X142903885Y-107777332D01*
X142903881Y-107777337D01*
X142834702Y-107897160D01*
X142834701Y-107897163D01*
X142798889Y-108030816D01*
X130674999Y-108030816D01*
X130674999Y-107850028D01*
X130674998Y-107850013D01*
X130664505Y-107747302D01*
X130609358Y-107580880D01*
X130609356Y-107580875D01*
X130517315Y-107431654D01*
X130393345Y-107307684D01*
X130244124Y-107215643D01*
X130244119Y-107215641D01*
X130077697Y-107160494D01*
X130077692Y-107160493D01*
X130056226Y-107158300D01*
X129991536Y-107131901D01*
X129951386Y-107074719D01*
X129948525Y-107004908D01*
X129983861Y-106944633D01*
X129995938Y-106934631D01*
X130074501Y-106877553D01*
X130202553Y-106749501D01*
X130308996Y-106602994D01*
X130391211Y-106441639D01*
X130447171Y-106269409D01*
X130464587Y-106159448D01*
X130475500Y-106090551D01*
X130475500Y-105909448D01*
X130453319Y-105769409D01*
X130447171Y-105730591D01*
X130419191Y-105644476D01*
X130391212Y-105558363D01*
X130391211Y-105558360D01*
X130347585Y-105472741D01*
X130308996Y-105397006D01*
X130291153Y-105372447D01*
X130202558Y-105250505D01*
X130202554Y-105250500D01*
X130082871Y-105130817D01*
X148674500Y-105130817D01*
X148674500Y-105269183D01*
X148702170Y-105372447D01*
X148710312Y-105402835D01*
X148710313Y-105402838D01*
X148779492Y-105522661D01*
X148779494Y-105522664D01*
X148779495Y-105522665D01*
X148877335Y-105620505D01*
X148877336Y-105620506D01*
X148877338Y-105620507D01*
X148923229Y-105647002D01*
X148997164Y-105689688D01*
X149130817Y-105725500D01*
X149130819Y-105725500D01*
X149269181Y-105725500D01*
X149269183Y-105725500D01*
X149402836Y-105689688D01*
X149522665Y-105620505D01*
X149620505Y-105522665D01*
X149634501Y-105498422D01*
X149685067Y-105450206D01*
X149753674Y-105436982D01*
X149818539Y-105462949D01*
X149829570Y-105472740D01*
X149877335Y-105520505D01*
X149877336Y-105520506D01*
X149877338Y-105520507D01*
X149937249Y-105555096D01*
X149997164Y-105589688D01*
X150130817Y-105625500D01*
X150130819Y-105625500D01*
X150269181Y-105625500D01*
X150269183Y-105625500D01*
X150402836Y-105589688D01*
X150522665Y-105520505D01*
X150570430Y-105472739D01*
X150631751Y-105439255D01*
X150701442Y-105444239D01*
X150757376Y-105486110D01*
X150765497Y-105498420D01*
X150779492Y-105522661D01*
X150779495Y-105522665D01*
X150877335Y-105620505D01*
X150877336Y-105620506D01*
X150877338Y-105620507D01*
X150923229Y-105647002D01*
X150997164Y-105689688D01*
X151130817Y-105725500D01*
X151130819Y-105725500D01*
X151269181Y-105725500D01*
X151269183Y-105725500D01*
X151402836Y-105689688D01*
X151522665Y-105620505D01*
X151620505Y-105522665D01*
X151689688Y-105402836D01*
X151725500Y-105269183D01*
X151725500Y-105130817D01*
X151689688Y-104997164D01*
X151682485Y-104984688D01*
X151682485Y-104984687D01*
X151651383Y-104930817D01*
X155474500Y-104930817D01*
X155474500Y-105069183D01*
X155505209Y-105183789D01*
X155510312Y-105202835D01*
X155510313Y-105202838D01*
X155579492Y-105322661D01*
X155579494Y-105322664D01*
X155579495Y-105322665D01*
X155677335Y-105420505D01*
X155797164Y-105489688D01*
X155930817Y-105525500D01*
X155930819Y-105525500D01*
X156069181Y-105525500D01*
X156069183Y-105525500D01*
X156202836Y-105489688D01*
X156322665Y-105420505D01*
X156420505Y-105322665D01*
X156489688Y-105202836D01*
X156525500Y-105069183D01*
X156525500Y-104930817D01*
X156489688Y-104797164D01*
X156421752Y-104679495D01*
X156420507Y-104677338D01*
X156420503Y-104677333D01*
X156322666Y-104579496D01*
X156322661Y-104579492D01*
X156202838Y-104510313D01*
X156202837Y-104510312D01*
X156202836Y-104510312D01*
X156069183Y-104474500D01*
X155930817Y-104474500D01*
X155797164Y-104510312D01*
X155797161Y-104510313D01*
X155677338Y-104579492D01*
X155677333Y-104579496D01*
X155579496Y-104677333D01*
X155579492Y-104677338D01*
X155510313Y-104797161D01*
X155510312Y-104797164D01*
X155474500Y-104930817D01*
X151651383Y-104930817D01*
X151620509Y-104877341D01*
X151620503Y-104877333D01*
X151522666Y-104779496D01*
X151522661Y-104779492D01*
X151402838Y-104710313D01*
X151402837Y-104710312D01*
X151402836Y-104710312D01*
X151269183Y-104674500D01*
X151130817Y-104674500D01*
X150997164Y-104710312D01*
X150997161Y-104710313D01*
X150877338Y-104779492D01*
X150877333Y-104779496D01*
X150829569Y-104827260D01*
X150768246Y-104860744D01*
X150698554Y-104855759D01*
X150642621Y-104813888D01*
X150634502Y-104801578D01*
X150620507Y-104777338D01*
X150620503Y-104777333D01*
X150522666Y-104679496D01*
X150522661Y-104679492D01*
X150402838Y-104610313D01*
X150402837Y-104610312D01*
X150402836Y-104610312D01*
X150269183Y-104574500D01*
X150130817Y-104574500D01*
X149997164Y-104610312D01*
X149997161Y-104610313D01*
X149877338Y-104679492D01*
X149877333Y-104679496D01*
X149779496Y-104777333D01*
X149779492Y-104777338D01*
X149765496Y-104801580D01*
X149714928Y-104849795D01*
X149646320Y-104863016D01*
X149581456Y-104837047D01*
X149570429Y-104827259D01*
X149522666Y-104779496D01*
X149522661Y-104779492D01*
X149402838Y-104710313D01*
X149402837Y-104710312D01*
X149402836Y-104710312D01*
X149269183Y-104674500D01*
X149130817Y-104674500D01*
X148997164Y-104710312D01*
X148997161Y-104710313D01*
X148877338Y-104779492D01*
X148877333Y-104779496D01*
X148779496Y-104877333D01*
X148779492Y-104877338D01*
X148710313Y-104997161D01*
X148710312Y-104997164D01*
X148674500Y-105130817D01*
X130082871Y-105130817D01*
X130074499Y-105122445D01*
X130074494Y-105122441D01*
X129927997Y-105016006D01*
X129927996Y-105016005D01*
X129927994Y-105016004D01*
X129866531Y-104984687D01*
X129766639Y-104933788D01*
X129766636Y-104933787D01*
X129594410Y-104877829D01*
X129560594Y-104872473D01*
X129497459Y-104842544D01*
X129460528Y-104783232D01*
X129461526Y-104713370D01*
X129500136Y-104655137D01*
X129560594Y-104627527D01*
X129568388Y-104626292D01*
X129594409Y-104622171D01*
X129766639Y-104566211D01*
X129927994Y-104483996D01*
X130074501Y-104377553D01*
X130202553Y-104249501D01*
X130308996Y-104102994D01*
X130391211Y-103941639D01*
X130447171Y-103769409D01*
X130461765Y-103677259D01*
X130475500Y-103590551D01*
X130475500Y-103409448D01*
X130453319Y-103269409D01*
X130447171Y-103230591D01*
X130401670Y-103090551D01*
X130391212Y-103058363D01*
X130391211Y-103058360D01*
X130362740Y-103002484D01*
X130308996Y-102897006D01*
X130295396Y-102878287D01*
X130202558Y-102750505D01*
X130202554Y-102750500D01*
X130074499Y-102622445D01*
X130074494Y-102622441D01*
X129927997Y-102516006D01*
X129927996Y-102516005D01*
X129927994Y-102516004D01*
X129876300Y-102489664D01*
X129766639Y-102433788D01*
X129766636Y-102433787D01*
X129594410Y-102377829D01*
X129415551Y-102349500D01*
X129415546Y-102349500D01*
X128984454Y-102349500D01*
X128984449Y-102349500D01*
X128805589Y-102377829D01*
X128633363Y-102433787D01*
X128633360Y-102433788D01*
X128472002Y-102516006D01*
X128325505Y-102622441D01*
X128325500Y-102622445D01*
X128197445Y-102750500D01*
X128197441Y-102750505D01*
X128091006Y-102897002D01*
X128008788Y-103058360D01*
X128008787Y-103058363D01*
X127952829Y-103230589D01*
X127924500Y-103409448D01*
X127924500Y-103590551D01*
X127952829Y-103769410D01*
X128008787Y-103941636D01*
X128008788Y-103941639D01*
X128091006Y-104102997D01*
X128197441Y-104249494D01*
X128197445Y-104249499D01*
X128325500Y-104377554D01*
X128325505Y-104377558D01*
X128453287Y-104470396D01*
X128472006Y-104483996D01*
X128577484Y-104537740D01*
X128633360Y-104566211D01*
X128633363Y-104566212D01*
X128719476Y-104594191D01*
X128805591Y-104622171D01*
X128830291Y-104626083D01*
X128839406Y-104627527D01*
X128902540Y-104657457D01*
X128939471Y-104716768D01*
X128938473Y-104786631D01*
X128899863Y-104844863D01*
X128839406Y-104872473D01*
X128805589Y-104877829D01*
X128633363Y-104933787D01*
X128633360Y-104933788D01*
X128472002Y-105016006D01*
X128325505Y-105122441D01*
X128325500Y-105122445D01*
X128197445Y-105250500D01*
X128197441Y-105250505D01*
X128091006Y-105397002D01*
X128008788Y-105558360D01*
X128008787Y-105558363D01*
X127952829Y-105730589D01*
X127924500Y-105909448D01*
X127924500Y-106090551D01*
X127952829Y-106269410D01*
X128008787Y-106441636D01*
X128008788Y-106441639D01*
X128052570Y-106527563D01*
X128077014Y-106575538D01*
X128091006Y-106602997D01*
X128197441Y-106749494D01*
X128197445Y-106749499D01*
X128325500Y-106877554D01*
X128325505Y-106877558D01*
X128404051Y-106934625D01*
X128446717Y-106989954D01*
X128452696Y-107059568D01*
X128420091Y-107121363D01*
X128359252Y-107155720D01*
X128343769Y-107158301D01*
X128322302Y-107160494D01*
X128155880Y-107215641D01*
X128155875Y-107215643D01*
X128006654Y-107307684D01*
X127882684Y-107431654D01*
X127790643Y-107580875D01*
X127790641Y-107580880D01*
X127735494Y-107747302D01*
X127735493Y-107747309D01*
X127725000Y-107850013D01*
X122843624Y-107850013D01*
X122727997Y-107766006D01*
X122727996Y-107766005D01*
X122727994Y-107766004D01*
X122676300Y-107739664D01*
X122566639Y-107683788D01*
X122566636Y-107683787D01*
X122394410Y-107627829D01*
X122360594Y-107622473D01*
X122297459Y-107592544D01*
X122260528Y-107533232D01*
X122261526Y-107463370D01*
X122300136Y-107405137D01*
X122360594Y-107377527D01*
X122368388Y-107376292D01*
X122394409Y-107372171D01*
X122566639Y-107316211D01*
X122727994Y-107233996D01*
X122874501Y-107127553D01*
X123002553Y-106999501D01*
X123108996Y-106852994D01*
X123191211Y-106691639D01*
X123247171Y-106519409D01*
X123269639Y-106377553D01*
X123275500Y-106340551D01*
X123275500Y-106159448D01*
X123259019Y-106055397D01*
X123247171Y-105980591D01*
X123214324Y-105879496D01*
X123191212Y-105808363D01*
X123191211Y-105808360D01*
X123148990Y-105725499D01*
X123108996Y-105647006D01*
X123067351Y-105589686D01*
X123002558Y-105500505D01*
X123002554Y-105500500D01*
X122874499Y-105372445D01*
X122874494Y-105372441D01*
X122727997Y-105266006D01*
X122727996Y-105266005D01*
X122727994Y-105266004D01*
X122658489Y-105230589D01*
X122566639Y-105183788D01*
X122566636Y-105183787D01*
X122394410Y-105127829D01*
X122215551Y-105099500D01*
X122215546Y-105099500D01*
X121784454Y-105099500D01*
X121784449Y-105099500D01*
X121605589Y-105127829D01*
X121433363Y-105183787D01*
X121433360Y-105183788D01*
X121272002Y-105266006D01*
X121125505Y-105372441D01*
X121125500Y-105372445D01*
X120997445Y-105500500D01*
X120997441Y-105500505D01*
X120891006Y-105647002D01*
X120808788Y-105808360D01*
X120808787Y-105808363D01*
X120752829Y-105980589D01*
X120724500Y-106159448D01*
X120724500Y-106340551D01*
X120752829Y-106519410D01*
X120808787Y-106691636D01*
X120808788Y-106691639D01*
X120838270Y-106749499D01*
X120875331Y-106822235D01*
X120891006Y-106852997D01*
X120997441Y-106999494D01*
X120997445Y-106999499D01*
X121125500Y-107127554D01*
X121125505Y-107127558D01*
X121188818Y-107173557D01*
X121272006Y-107233996D01*
X121375307Y-107286631D01*
X121433360Y-107316211D01*
X121433363Y-107316212D01*
X121514407Y-107342544D01*
X121605591Y-107372171D01*
X121630291Y-107376083D01*
X121639406Y-107377527D01*
X121702540Y-107407457D01*
X121739471Y-107466768D01*
X121738473Y-107536631D01*
X121699863Y-107594863D01*
X121639406Y-107622473D01*
X121605589Y-107627829D01*
X121433363Y-107683787D01*
X121433360Y-107683788D01*
X121272002Y-107766006D01*
X121125505Y-107872441D01*
X121125500Y-107872445D01*
X120997445Y-108000500D01*
X120997441Y-108000505D01*
X120891006Y-108147002D01*
X120808788Y-108308360D01*
X120808787Y-108308363D01*
X120752829Y-108480589D01*
X120724500Y-108659448D01*
X120724500Y-108840551D01*
X120752829Y-109019410D01*
X120808787Y-109191636D01*
X120808788Y-109191639D01*
X120864664Y-109301300D01*
X120887964Y-109347028D01*
X120891006Y-109352997D01*
X120997441Y-109499494D01*
X120997445Y-109499499D01*
X121125500Y-109627554D01*
X121125505Y-109627558D01*
X121243617Y-109713370D01*
X121272006Y-109733996D01*
X121370846Y-109784358D01*
X121433360Y-109816211D01*
X121433363Y-109816212D01*
X121505054Y-109839505D01*
X121605591Y-109872171D01*
X121630291Y-109876083D01*
X121639406Y-109877527D01*
X121702540Y-109907457D01*
X121739471Y-109966768D01*
X121738473Y-110036631D01*
X121699863Y-110094863D01*
X121639406Y-110122473D01*
X121605589Y-110127829D01*
X121433363Y-110183787D01*
X121433360Y-110183788D01*
X121272002Y-110266006D01*
X121125505Y-110372441D01*
X121125500Y-110372445D01*
X120997445Y-110500500D01*
X120997441Y-110500505D01*
X120891006Y-110647002D01*
X120808788Y-110808360D01*
X120808787Y-110808363D01*
X120752829Y-110980589D01*
X120724500Y-111159448D01*
X120724500Y-111340551D01*
X120752829Y-111519410D01*
X120808787Y-111691636D01*
X120808788Y-111691639D01*
X120891006Y-111852997D01*
X120997441Y-111999494D01*
X120997445Y-111999499D01*
X121125500Y-112127554D01*
X121125505Y-112127558D01*
X121221311Y-112197164D01*
X121272006Y-112233996D01*
X121357511Y-112277563D01*
X121408307Y-112325538D01*
X121425102Y-112393359D01*
X121402565Y-112459494D01*
X121357511Y-112498533D01*
X121167442Y-112595379D01*
X120995540Y-112720272D01*
X120995535Y-112720276D01*
X120845276Y-112870535D01*
X120845272Y-112870540D01*
X120720379Y-113042442D01*
X120623904Y-113231782D01*
X120558242Y-113433870D01*
X120558242Y-113433873D01*
X120547769Y-113500000D01*
X118500500Y-113500000D01*
X118500500Y-101680817D01*
X145224500Y-101680817D01*
X145224500Y-101819183D01*
X145255209Y-101933789D01*
X145260312Y-101952835D01*
X145260313Y-101952838D01*
X145329492Y-102072661D01*
X145329494Y-102072663D01*
X145329495Y-102072665D01*
X145427335Y-102170505D01*
X145547164Y-102239688D01*
X145680817Y-102275500D01*
X145680819Y-102275500D01*
X145819181Y-102275500D01*
X145819183Y-102275500D01*
X145952836Y-102239688D01*
X146072665Y-102170505D01*
X146112353Y-102130817D01*
X151474500Y-102130817D01*
X151474500Y-102269183D01*
X151503612Y-102377829D01*
X151510312Y-102402835D01*
X151510313Y-102402838D01*
X151579492Y-102522661D01*
X151579494Y-102522664D01*
X151579495Y-102522665D01*
X151677335Y-102620505D01*
X151677336Y-102620506D01*
X151677338Y-102620507D01*
X151737249Y-102655096D01*
X151797164Y-102689688D01*
X151930817Y-102725500D01*
X151930819Y-102725500D01*
X152069181Y-102725500D01*
X152069183Y-102725500D01*
X152202836Y-102689688D01*
X152322665Y-102620505D01*
X152420505Y-102522665D01*
X152489688Y-102402836D01*
X152525500Y-102269183D01*
X152525500Y-102130817D01*
X152489688Y-101997164D01*
X152420634Y-101877558D01*
X152420507Y-101877338D01*
X152420503Y-101877333D01*
X152322666Y-101779496D01*
X152322661Y-101779492D01*
X152202838Y-101710313D01*
X152202837Y-101710312D01*
X152202836Y-101710312D01*
X152069183Y-101674500D01*
X151930817Y-101674500D01*
X151797164Y-101710312D01*
X151797161Y-101710313D01*
X151677338Y-101779492D01*
X151677333Y-101779496D01*
X151579496Y-101877333D01*
X151579492Y-101877338D01*
X151510313Y-101997161D01*
X151510312Y-101997164D01*
X151474500Y-102130817D01*
X146112353Y-102130817D01*
X146170505Y-102072665D01*
X146239688Y-101952836D01*
X146275500Y-101819183D01*
X146275500Y-101680817D01*
X146239688Y-101547164D01*
X146205096Y-101487249D01*
X146170507Y-101427338D01*
X146170503Y-101427333D01*
X146072666Y-101329496D01*
X146072661Y-101329492D01*
X145952838Y-101260313D01*
X145952837Y-101260312D01*
X145952836Y-101260312D01*
X145819183Y-101224500D01*
X145680817Y-101224500D01*
X145547164Y-101260312D01*
X145547161Y-101260313D01*
X145427338Y-101329492D01*
X145427333Y-101329496D01*
X145329496Y-101427333D01*
X145329492Y-101427338D01*
X145260313Y-101547161D01*
X145260312Y-101547164D01*
X145224500Y-101680817D01*
X118500500Y-101680817D01*
X118500500Y-100830817D01*
X142774500Y-100830817D01*
X142774500Y-100969183D01*
X142807021Y-101090551D01*
X142810312Y-101102835D01*
X142810313Y-101102838D01*
X142879492Y-101222661D01*
X142879494Y-101222664D01*
X142879495Y-101222665D01*
X142977335Y-101320505D01*
X143097164Y-101389688D01*
X143230817Y-101425500D01*
X143230819Y-101425500D01*
X143369181Y-101425500D01*
X143369183Y-101425500D01*
X143502836Y-101389688D01*
X143622665Y-101320505D01*
X143720505Y-101222665D01*
X143789688Y-101102836D01*
X143825500Y-100969183D01*
X143825500Y-100830817D01*
X143789688Y-100697164D01*
X143720505Y-100577335D01*
X143622665Y-100479495D01*
X143622664Y-100479494D01*
X143622661Y-100479492D01*
X143502838Y-100410313D01*
X143502837Y-100410312D01*
X143502836Y-100410312D01*
X143369183Y-100374500D01*
X143230817Y-100374500D01*
X143097164Y-100410312D01*
X143097161Y-100410313D01*
X142977338Y-100479492D01*
X142977333Y-100479496D01*
X142879496Y-100577333D01*
X142879492Y-100577338D01*
X142810313Y-100697161D01*
X142810312Y-100697164D01*
X142774500Y-100830817D01*
X118500500Y-100830817D01*
X118500500Y-98250000D01*
X172047769Y-98250000D01*
X173095854Y-98250000D01*
X173057370Y-98316657D01*
X173025000Y-98437465D01*
X173025000Y-98562535D01*
X173057370Y-98683343D01*
X173095854Y-98750000D01*
X172047769Y-98750000D01*
X172058242Y-98816126D01*
X172058242Y-98816129D01*
X172123904Y-99018217D01*
X172220379Y-99207557D01*
X172345272Y-99379459D01*
X172345276Y-99379464D01*
X172495535Y-99529723D01*
X172495540Y-99529727D01*
X172667442Y-99654620D01*
X172857511Y-99751466D01*
X172908307Y-99799441D01*
X172925102Y-99867262D01*
X172902565Y-99933397D01*
X172857512Y-99972435D01*
X172772004Y-100016004D01*
X172625505Y-100122441D01*
X172625500Y-100122445D01*
X172497445Y-100250500D01*
X172497441Y-100250505D01*
X172391006Y-100397002D01*
X172308788Y-100558360D01*
X172308787Y-100558363D01*
X172252829Y-100730589D01*
X172224500Y-100909448D01*
X172224500Y-101090551D01*
X172252829Y-101269410D01*
X172308787Y-101441636D01*
X172308788Y-101441639D01*
X172334919Y-101492922D01*
X172381509Y-101584360D01*
X172391006Y-101602997D01*
X172497441Y-101749494D01*
X172497445Y-101749499D01*
X172625500Y-101877554D01*
X172625505Y-101877558D01*
X172729116Y-101952835D01*
X172772006Y-101983996D01*
X172877484Y-102037740D01*
X172933360Y-102066211D01*
X172933363Y-102066212D01*
X173019476Y-102094191D01*
X173105591Y-102122171D01*
X173130291Y-102126083D01*
X173139406Y-102127527D01*
X173202540Y-102157457D01*
X173239471Y-102216768D01*
X173238473Y-102286631D01*
X173199863Y-102344863D01*
X173139406Y-102372473D01*
X173105589Y-102377829D01*
X172933363Y-102433787D01*
X172933360Y-102433788D01*
X172772002Y-102516006D01*
X172625505Y-102622441D01*
X172625500Y-102622445D01*
X172497445Y-102750500D01*
X172497441Y-102750505D01*
X172391006Y-102897002D01*
X172308788Y-103058360D01*
X172308787Y-103058363D01*
X172252829Y-103230589D01*
X172224500Y-103409448D01*
X172224500Y-103590551D01*
X172252829Y-103769410D01*
X172308787Y-103941636D01*
X172308788Y-103941639D01*
X172391006Y-104102997D01*
X172497441Y-104249494D01*
X172497445Y-104249499D01*
X172625500Y-104377554D01*
X172625505Y-104377558D01*
X172753287Y-104470396D01*
X172772006Y-104483996D01*
X172877484Y-104537740D01*
X172933360Y-104566211D01*
X172933363Y-104566212D01*
X173019476Y-104594191D01*
X173105591Y-104622171D01*
X173130291Y-104626083D01*
X173139406Y-104627527D01*
X173202540Y-104657457D01*
X173239471Y-104716768D01*
X173238473Y-104786631D01*
X173199863Y-104844863D01*
X173139406Y-104872473D01*
X173105589Y-104877829D01*
X172933363Y-104933787D01*
X172933360Y-104933788D01*
X172772002Y-105016006D01*
X172625505Y-105122441D01*
X172625500Y-105122445D01*
X172497445Y-105250500D01*
X172497441Y-105250505D01*
X172391006Y-105397002D01*
X172308788Y-105558360D01*
X172308787Y-105558363D01*
X172252829Y-105730589D01*
X172224500Y-105909448D01*
X172224500Y-106090551D01*
X172252829Y-106269410D01*
X172308787Y-106441636D01*
X172308788Y-106441639D01*
X172352570Y-106527563D01*
X172377014Y-106575538D01*
X172391006Y-106602997D01*
X172497441Y-106749494D01*
X172497445Y-106749499D01*
X172625500Y-106877554D01*
X172625505Y-106877558D01*
X172704052Y-106934625D01*
X172772006Y-106983996D01*
X172877484Y-107037740D01*
X172933360Y-107066211D01*
X172933363Y-107066212D01*
X173019476Y-107094191D01*
X173105591Y-107122171D01*
X173130291Y-107126083D01*
X173139406Y-107127527D01*
X173202540Y-107157457D01*
X173239471Y-107216768D01*
X173238473Y-107286631D01*
X173199863Y-107344863D01*
X173139406Y-107372473D01*
X173105589Y-107377829D01*
X172933363Y-107433787D01*
X172933360Y-107433788D01*
X172772002Y-107516006D01*
X172625505Y-107622441D01*
X172625500Y-107622445D01*
X172497445Y-107750500D01*
X172497441Y-107750505D01*
X172391006Y-107897002D01*
X172308788Y-108058360D01*
X172308787Y-108058363D01*
X172252829Y-108230589D01*
X172224500Y-108409448D01*
X172224500Y-108590551D01*
X172252829Y-108769410D01*
X172308787Y-108941636D01*
X172308788Y-108941639D01*
X172391006Y-109102997D01*
X172497441Y-109249494D01*
X172497445Y-109249499D01*
X172625500Y-109377554D01*
X172625505Y-109377558D01*
X172751615Y-109469181D01*
X172772006Y-109483996D01*
X172877484Y-109537740D01*
X172933360Y-109566211D01*
X172933363Y-109566212D01*
X172958872Y-109574500D01*
X173105591Y-109622171D01*
X173130291Y-109626083D01*
X173139406Y-109627527D01*
X173202540Y-109657457D01*
X173239471Y-109716768D01*
X173238473Y-109786631D01*
X173199863Y-109844863D01*
X173139406Y-109872473D01*
X173105589Y-109877829D01*
X172933363Y-109933787D01*
X172933360Y-109933788D01*
X172772002Y-110016006D01*
X172625505Y-110122441D01*
X172625500Y-110122445D01*
X172497445Y-110250500D01*
X172497441Y-110250505D01*
X172391006Y-110397002D01*
X172308788Y-110558360D01*
X172308787Y-110558363D01*
X172252829Y-110730589D01*
X172224500Y-110909448D01*
X172224500Y-111090551D01*
X172252829Y-111269410D01*
X172308787Y-111441636D01*
X172308788Y-111441639D01*
X172391006Y-111602997D01*
X172497441Y-111749494D01*
X172497445Y-111749499D01*
X172625500Y-111877554D01*
X172625505Y-111877558D01*
X172753287Y-111970396D01*
X172772006Y-111983996D01*
X172877484Y-112037740D01*
X172933360Y-112066211D01*
X172933363Y-112066212D01*
X173019476Y-112094191D01*
X173105591Y-112122171D01*
X173188429Y-112135291D01*
X173284449Y-112150500D01*
X173284454Y-112150500D01*
X173715551Y-112150500D01*
X173802259Y-112136765D01*
X173894409Y-112122171D01*
X174066639Y-112066211D01*
X174227994Y-111983996D01*
X174374501Y-111877553D01*
X174502553Y-111749501D01*
X174608996Y-111602994D01*
X174691211Y-111441639D01*
X174747171Y-111269409D01*
X174764587Y-111159448D01*
X174775500Y-111090551D01*
X174775500Y-110909448D01*
X174757715Y-110797161D01*
X174747171Y-110730591D01*
X174719191Y-110644476D01*
X174691212Y-110558363D01*
X174691211Y-110558360D01*
X174655906Y-110489072D01*
X174608996Y-110397006D01*
X174591153Y-110372447D01*
X174502558Y-110250505D01*
X174502554Y-110250500D01*
X174374499Y-110122445D01*
X174374494Y-110122441D01*
X174227997Y-110016006D01*
X174227996Y-110016005D01*
X174227994Y-110016004D01*
X174131364Y-109966768D01*
X174066639Y-109933788D01*
X174066636Y-109933787D01*
X173894410Y-109877829D01*
X173860594Y-109872473D01*
X173797459Y-109842544D01*
X173760528Y-109783232D01*
X173761526Y-109713370D01*
X173800136Y-109655137D01*
X173860594Y-109627527D01*
X173868388Y-109626292D01*
X173894409Y-109622171D01*
X174066639Y-109566211D01*
X174227994Y-109483996D01*
X174374501Y-109377553D01*
X174502553Y-109249501D01*
X174608996Y-109102994D01*
X174691211Y-108941639D01*
X174747171Y-108769409D01*
X174769964Y-108625499D01*
X174775500Y-108590551D01*
X174775500Y-108409448D01*
X174750245Y-108250000D01*
X174747171Y-108230591D01*
X174711208Y-108119905D01*
X174691212Y-108058363D01*
X174691211Y-108058360D01*
X174653747Y-107984834D01*
X174608996Y-107897006D01*
X174591153Y-107872447D01*
X174502558Y-107750505D01*
X174502554Y-107750500D01*
X174374499Y-107622445D01*
X174374494Y-107622441D01*
X174227997Y-107516006D01*
X174227996Y-107516005D01*
X174227994Y-107516004D01*
X174160830Y-107481782D01*
X174066639Y-107433788D01*
X174066636Y-107433787D01*
X173894410Y-107377829D01*
X173860594Y-107372473D01*
X173797459Y-107342544D01*
X173760528Y-107283232D01*
X173761526Y-107213370D01*
X173800136Y-107155137D01*
X173860594Y-107127527D01*
X173868388Y-107126292D01*
X173894409Y-107122171D01*
X174066639Y-107066211D01*
X174227994Y-106983996D01*
X174374501Y-106877553D01*
X174502553Y-106749501D01*
X174608996Y-106602994D01*
X174691211Y-106441639D01*
X174747171Y-106269409D01*
X174764587Y-106159448D01*
X174775500Y-106090551D01*
X174775500Y-105909448D01*
X174753319Y-105769409D01*
X174747171Y-105730591D01*
X174719191Y-105644476D01*
X174691212Y-105558363D01*
X174691211Y-105558360D01*
X174647585Y-105472741D01*
X174608996Y-105397006D01*
X174591153Y-105372447D01*
X174502558Y-105250505D01*
X174502554Y-105250500D01*
X174374499Y-105122445D01*
X174374494Y-105122441D01*
X174227997Y-105016006D01*
X174227996Y-105016005D01*
X174227994Y-105016004D01*
X174166531Y-104984687D01*
X174066639Y-104933788D01*
X174066636Y-104933787D01*
X173894410Y-104877829D01*
X173860594Y-104872473D01*
X173797459Y-104842544D01*
X173760528Y-104783232D01*
X173761526Y-104713370D01*
X173800136Y-104655137D01*
X173860594Y-104627527D01*
X173868388Y-104626292D01*
X173894409Y-104622171D01*
X174066639Y-104566211D01*
X174227994Y-104483996D01*
X174374501Y-104377553D01*
X174502553Y-104249501D01*
X174608996Y-104102994D01*
X174691211Y-103941639D01*
X174747171Y-103769409D01*
X174761765Y-103677259D01*
X174775500Y-103590551D01*
X174775500Y-103409448D01*
X174753319Y-103269409D01*
X174747171Y-103230591D01*
X174701670Y-103090551D01*
X174691212Y-103058363D01*
X174691211Y-103058360D01*
X174662740Y-103002484D01*
X174608996Y-102897006D01*
X174595396Y-102878287D01*
X174502558Y-102750505D01*
X174502554Y-102750500D01*
X174374499Y-102622445D01*
X174374494Y-102622441D01*
X174227997Y-102516006D01*
X174227996Y-102516005D01*
X174227994Y-102516004D01*
X174176300Y-102489664D01*
X174066639Y-102433788D01*
X174066636Y-102433787D01*
X173894410Y-102377829D01*
X173860594Y-102372473D01*
X173797459Y-102342544D01*
X173760528Y-102283232D01*
X173761526Y-102213370D01*
X173800136Y-102155137D01*
X173860594Y-102127527D01*
X173868388Y-102126292D01*
X173894409Y-102122171D01*
X174066639Y-102066211D01*
X174227994Y-101983996D01*
X174374501Y-101877553D01*
X174502553Y-101749501D01*
X174608996Y-101602994D01*
X174691211Y-101441639D01*
X174747171Y-101269409D01*
X174767177Y-101143096D01*
X174775500Y-101090551D01*
X174775500Y-100909448D01*
X174759019Y-100805397D01*
X174747171Y-100730591D01*
X174697376Y-100577335D01*
X174691212Y-100558363D01*
X174691211Y-100558360D01*
X174651027Y-100479496D01*
X174608996Y-100397006D01*
X174592645Y-100374500D01*
X174502558Y-100250505D01*
X174502554Y-100250500D01*
X174374499Y-100122445D01*
X174374494Y-100122441D01*
X174227993Y-100016003D01*
X174227992Y-100016002D01*
X174142488Y-99972435D01*
X174091692Y-99924461D01*
X174074897Y-99856640D01*
X174097435Y-99790505D01*
X174142488Y-99751466D01*
X174332558Y-99654620D01*
X174504459Y-99529727D01*
X174504464Y-99529723D01*
X174654723Y-99379464D01*
X174654727Y-99379459D01*
X174779620Y-99207557D01*
X174876095Y-99018217D01*
X174941757Y-98816129D01*
X174941757Y-98816126D01*
X174952231Y-98750000D01*
X173904146Y-98750000D01*
X173942630Y-98683343D01*
X173975000Y-98562535D01*
X173975000Y-98437465D01*
X173942630Y-98316657D01*
X173904146Y-98250000D01*
X174952231Y-98250000D01*
X174941757Y-98183873D01*
X174941757Y-98183870D01*
X174876095Y-97981782D01*
X174779620Y-97792442D01*
X174654727Y-97620540D01*
X174654723Y-97620535D01*
X174504464Y-97470276D01*
X174504459Y-97470272D01*
X174340439Y-97351105D01*
X174297773Y-97295775D01*
X174291794Y-97226162D01*
X174324399Y-97164367D01*
X174367831Y-97135433D01*
X174497342Y-97084361D01*
X174617922Y-96992922D01*
X174709361Y-96872342D01*
X174764877Y-96731564D01*
X174775500Y-96643102D01*
X174775500Y-95356898D01*
X174764877Y-95268436D01*
X174709361Y-95127658D01*
X174709360Y-95127657D01*
X174709360Y-95127656D01*
X174617922Y-95007077D01*
X174497343Y-94915639D01*
X174356561Y-94860122D01*
X174310926Y-94854642D01*
X174268102Y-94849500D01*
X172731898Y-94849500D01*
X172692853Y-94854188D01*
X172643438Y-94860122D01*
X172502656Y-94915639D01*
X172382077Y-95007077D01*
X172290639Y-95127656D01*
X172235122Y-95268438D01*
X172229188Y-95317853D01*
X172224500Y-95356898D01*
X172224500Y-96643102D01*
X172230126Y-96689954D01*
X172235122Y-96731561D01*
X172290639Y-96872343D01*
X172382077Y-96992922D01*
X172502658Y-97084361D01*
X172502660Y-97084362D01*
X172632165Y-97135433D01*
X172687309Y-97178338D01*
X172710502Y-97244246D01*
X172694381Y-97312231D01*
X172659560Y-97351105D01*
X172495540Y-97470272D01*
X172495535Y-97470276D01*
X172345276Y-97620535D01*
X172345272Y-97620540D01*
X172220379Y-97792442D01*
X172123904Y-97981782D01*
X172058242Y-98183870D01*
X172058242Y-98183873D01*
X172047769Y-98250000D01*
X118500500Y-98250000D01*
X118500500Y-97430817D01*
X151574500Y-97430817D01*
X151574500Y-97569182D01*
X151610312Y-97702835D01*
X151610313Y-97702838D01*
X151679492Y-97822661D01*
X151679494Y-97822664D01*
X151679495Y-97822665D01*
X151777335Y-97920505D01*
X151897164Y-97989688D01*
X152030817Y-98025500D01*
X152030819Y-98025500D01*
X152169181Y-98025500D01*
X152169183Y-98025500D01*
X152302836Y-97989688D01*
X152422665Y-97920505D01*
X152520505Y-97822665D01*
X152589688Y-97702836D01*
X152625500Y-97569183D01*
X152625500Y-97430817D01*
X152589688Y-97297164D01*
X152520505Y-97177335D01*
X152422665Y-97079495D01*
X152422664Y-97079494D01*
X152422661Y-97079492D01*
X152302838Y-97010313D01*
X152302837Y-97010312D01*
X152302836Y-97010312D01*
X152169183Y-96974500D01*
X152030817Y-96974500D01*
X151897164Y-97010312D01*
X151897161Y-97010313D01*
X151777338Y-97079492D01*
X151777333Y-97079496D01*
X151679496Y-97177333D01*
X151679492Y-97177338D01*
X151610313Y-97297161D01*
X151610312Y-97297164D01*
X151574500Y-97430817D01*
X118500500Y-97430817D01*
X118500500Y-94225013D01*
X121950000Y-94225013D01*
X121950000Y-94750000D01*
X122895854Y-94750000D01*
X122857370Y-94816657D01*
X122825000Y-94937465D01*
X122825000Y-95062535D01*
X122857370Y-95183343D01*
X122895854Y-95250000D01*
X121950001Y-95250000D01*
X121950001Y-95774986D01*
X121960494Y-95877697D01*
X122015641Y-96044119D01*
X122015643Y-96044124D01*
X122107684Y-96193345D01*
X122231654Y-96317315D01*
X122380875Y-96409356D01*
X122380880Y-96409358D01*
X122547302Y-96464505D01*
X122547309Y-96464506D01*
X122650019Y-96474999D01*
X123049999Y-96474999D01*
X123050000Y-96474998D01*
X123050000Y-95404145D01*
X123116657Y-95442630D01*
X123237465Y-95475000D01*
X123362535Y-95475000D01*
X123483343Y-95442630D01*
X123550000Y-95404145D01*
X123550000Y-96474999D01*
X123949972Y-96474999D01*
X123949986Y-96474998D01*
X124052697Y-96464505D01*
X124219119Y-96409358D01*
X124219124Y-96409356D01*
X124368345Y-96317315D01*
X124492315Y-96193345D01*
X124584356Y-96044124D01*
X124584358Y-96044119D01*
X124639505Y-95877697D01*
X124639506Y-95877689D01*
X124641699Y-95856231D01*
X124668095Y-95791539D01*
X124725276Y-95751388D01*
X124795087Y-95748524D01*
X124855363Y-95783858D01*
X124865376Y-95795949D01*
X124922443Y-95874497D01*
X125050500Y-96002554D01*
X125050505Y-96002558D01*
X125119325Y-96052558D01*
X125197006Y-96108996D01*
X125295130Y-96158993D01*
X125358360Y-96191211D01*
X125358363Y-96191212D01*
X125444476Y-96219191D01*
X125530591Y-96247171D01*
X125613429Y-96260291D01*
X125709449Y-96275500D01*
X125709454Y-96275500D01*
X125890551Y-96275500D01*
X125977259Y-96261765D01*
X126069409Y-96247171D01*
X126241639Y-96191211D01*
X126402994Y-96108996D01*
X126549501Y-96002553D01*
X126677553Y-95874501D01*
X126783996Y-95727994D01*
X126866211Y-95566639D01*
X126922171Y-95394409D01*
X126927527Y-95360594D01*
X126957456Y-95297459D01*
X127016768Y-95260528D01*
X127086630Y-95261526D01*
X127144863Y-95300136D01*
X127172473Y-95360594D01*
X127177829Y-95394410D01*
X127233787Y-95566636D01*
X127233788Y-95566639D01*
X127316006Y-95727997D01*
X127422441Y-95874494D01*
X127422445Y-95874499D01*
X127550500Y-96002554D01*
X127550505Y-96002558D01*
X127619325Y-96052558D01*
X127697006Y-96108996D01*
X127795130Y-96158993D01*
X127858360Y-96191211D01*
X127858363Y-96191212D01*
X127944476Y-96219191D01*
X128030591Y-96247171D01*
X128113429Y-96260291D01*
X128209449Y-96275500D01*
X128209454Y-96275500D01*
X128390551Y-96275500D01*
X128477259Y-96261765D01*
X128569409Y-96247171D01*
X128741639Y-96191211D01*
X128902994Y-96108996D01*
X129049501Y-96002553D01*
X129177553Y-95874501D01*
X129283996Y-95727994D01*
X129366211Y-95566639D01*
X129422171Y-95394409D01*
X129442123Y-95268438D01*
X129448332Y-95229240D01*
X129448332Y-95229239D01*
X129450500Y-95215552D01*
X129450500Y-94784448D01*
X129430090Y-94655589D01*
X129422171Y-94605591D01*
X129388784Y-94502835D01*
X129366212Y-94433363D01*
X129366211Y-94433360D01*
X129312608Y-94328159D01*
X129312607Y-94328157D01*
X129285528Y-94275013D01*
X134650000Y-94275013D01*
X134650000Y-94800000D01*
X135595854Y-94800000D01*
X135557370Y-94866657D01*
X135525000Y-94987465D01*
X135525000Y-95112535D01*
X135557370Y-95233343D01*
X135595854Y-95300000D01*
X134650001Y-95300000D01*
X134650001Y-95824986D01*
X134660494Y-95927697D01*
X134715641Y-96094119D01*
X134715643Y-96094124D01*
X134807684Y-96243345D01*
X134931654Y-96367315D01*
X135080875Y-96459356D01*
X135080880Y-96459358D01*
X135247302Y-96514505D01*
X135247309Y-96514506D01*
X135350019Y-96524999D01*
X135749999Y-96524999D01*
X135750000Y-96524998D01*
X135750000Y-95454145D01*
X135816657Y-95492630D01*
X135937465Y-95525000D01*
X136062535Y-95525000D01*
X136183343Y-95492630D01*
X136250000Y-95454145D01*
X136250000Y-96524999D01*
X136649972Y-96524999D01*
X136649986Y-96524998D01*
X136752697Y-96514505D01*
X136919119Y-96459358D01*
X136919124Y-96459356D01*
X137068345Y-96367315D01*
X137192315Y-96243345D01*
X137284356Y-96094124D01*
X137284358Y-96094119D01*
X137339505Y-95927697D01*
X137339506Y-95927689D01*
X137341699Y-95906231D01*
X137368095Y-95841539D01*
X137425276Y-95801388D01*
X137495087Y-95798524D01*
X137555363Y-95833858D01*
X137565376Y-95845949D01*
X137622443Y-95924497D01*
X137750500Y-96052554D01*
X137750505Y-96052558D01*
X137878287Y-96145396D01*
X137897006Y-96158996D01*
X138002484Y-96212740D01*
X138058360Y-96241211D01*
X138058363Y-96241212D01*
X138144476Y-96269191D01*
X138230591Y-96297171D01*
X138313429Y-96310291D01*
X138409449Y-96325500D01*
X138409454Y-96325500D01*
X138590551Y-96325500D01*
X138677259Y-96311765D01*
X138769409Y-96297171D01*
X138941639Y-96241211D01*
X139102994Y-96158996D01*
X139249501Y-96052553D01*
X139377553Y-95924501D01*
X139483996Y-95777994D01*
X139566211Y-95616639D01*
X139622171Y-95444409D01*
X139627527Y-95410594D01*
X139657456Y-95347459D01*
X139716768Y-95310528D01*
X139786630Y-95311526D01*
X139844863Y-95350136D01*
X139872473Y-95410594D01*
X139877829Y-95444410D01*
X139933787Y-95616636D01*
X139933788Y-95616639D01*
X139974817Y-95697161D01*
X140014471Y-95774986D01*
X140016006Y-95777997D01*
X140122441Y-95924494D01*
X140122445Y-95924499D01*
X140250500Y-96052554D01*
X140250505Y-96052558D01*
X140378287Y-96145396D01*
X140397006Y-96158996D01*
X140502484Y-96212740D01*
X140558360Y-96241211D01*
X140558363Y-96241212D01*
X140644476Y-96269191D01*
X140730591Y-96297171D01*
X140813429Y-96310291D01*
X140909449Y-96325500D01*
X140909454Y-96325500D01*
X141090551Y-96325500D01*
X141177259Y-96311765D01*
X141269409Y-96297171D01*
X141441639Y-96241211D01*
X141602994Y-96158996D01*
X141749501Y-96052553D01*
X141877553Y-95924501D01*
X141945618Y-95830817D01*
X151574500Y-95830817D01*
X151574500Y-95969183D01*
X151607977Y-96094119D01*
X151610312Y-96102835D01*
X151610313Y-96102838D01*
X151679492Y-96222661D01*
X151679494Y-96222664D01*
X151679495Y-96222665D01*
X151777335Y-96320505D01*
X151777336Y-96320506D01*
X151777338Y-96320507D01*
X151837249Y-96355096D01*
X151897164Y-96389688D01*
X152030817Y-96425500D01*
X152030819Y-96425500D01*
X152169181Y-96425500D01*
X152169183Y-96425500D01*
X152302836Y-96389688D01*
X152422665Y-96320505D01*
X152520505Y-96222665D01*
X152589688Y-96102836D01*
X152625500Y-95969183D01*
X152625500Y-95830817D01*
X152589688Y-95697164D01*
X152520505Y-95577335D01*
X152422665Y-95479495D01*
X152422664Y-95479494D01*
X152422661Y-95479492D01*
X152302838Y-95410313D01*
X152302837Y-95410312D01*
X152302836Y-95410312D01*
X152169183Y-95374500D01*
X152030817Y-95374500D01*
X151897164Y-95410312D01*
X151897161Y-95410313D01*
X151777338Y-95479492D01*
X151777333Y-95479496D01*
X151679496Y-95577333D01*
X151679492Y-95577338D01*
X151610313Y-95697161D01*
X151610312Y-95697164D01*
X151574500Y-95830817D01*
X141945618Y-95830817D01*
X141983996Y-95777994D01*
X142009473Y-95727994D01*
X142066211Y-95616639D01*
X142066212Y-95616636D01*
X142082458Y-95566636D01*
X142122171Y-95444409D01*
X142145022Y-95300136D01*
X142150500Y-95265551D01*
X142150500Y-94834448D01*
X142129183Y-94699863D01*
X142122171Y-94655591D01*
X142079740Y-94525000D01*
X142066212Y-94483363D01*
X142066211Y-94483360D01*
X142008034Y-94369183D01*
X141983996Y-94322006D01*
X141965623Y-94296717D01*
X141964793Y-94295574D01*
X141964792Y-94295573D01*
X141917744Y-94230817D01*
X151474500Y-94230817D01*
X151474500Y-94369183D01*
X151505095Y-94483363D01*
X151510312Y-94502835D01*
X151510313Y-94502838D01*
X151579492Y-94622661D01*
X151579494Y-94622664D01*
X151579495Y-94622665D01*
X151677335Y-94720505D01*
X151677336Y-94720506D01*
X151677338Y-94720507D01*
X151710185Y-94739471D01*
X151797164Y-94789688D01*
X151930817Y-94825500D01*
X151930819Y-94825500D01*
X152069181Y-94825500D01*
X152069183Y-94825500D01*
X152202836Y-94789688D01*
X152322665Y-94720505D01*
X152420505Y-94622665D01*
X152489688Y-94502836D01*
X152525500Y-94369183D01*
X152525500Y-94230817D01*
X152489688Y-94097164D01*
X152455096Y-94037249D01*
X152420507Y-93977338D01*
X152420503Y-93977333D01*
X152322666Y-93879496D01*
X152322661Y-93879492D01*
X152202838Y-93810313D01*
X152202837Y-93810312D01*
X152202836Y-93810312D01*
X152069183Y-93774500D01*
X151930817Y-93774500D01*
X151797164Y-93810312D01*
X151797161Y-93810313D01*
X151677338Y-93879492D01*
X151677333Y-93879496D01*
X151579496Y-93977333D01*
X151579492Y-93977338D01*
X151510313Y-94097161D01*
X151510312Y-94097164D01*
X151474500Y-94230817D01*
X141917744Y-94230817D01*
X141877558Y-94175505D01*
X141877554Y-94175500D01*
X141749499Y-94047445D01*
X141749494Y-94047441D01*
X141602997Y-93941006D01*
X141602996Y-93941005D01*
X141602994Y-93941004D01*
X141551300Y-93914664D01*
X141441639Y-93858788D01*
X141441636Y-93858787D01*
X141269410Y-93802829D01*
X141090551Y-93774500D01*
X141090546Y-93774500D01*
X140909454Y-93774500D01*
X140909449Y-93774500D01*
X140730589Y-93802829D01*
X140558363Y-93858787D01*
X140558360Y-93858788D01*
X140397002Y-93941006D01*
X140250505Y-94047441D01*
X140250500Y-94047445D01*
X140122445Y-94175500D01*
X140122441Y-94175505D01*
X140016006Y-94322002D01*
X139933788Y-94483360D01*
X139933787Y-94483363D01*
X139877829Y-94655589D01*
X139872473Y-94689406D01*
X139842543Y-94752540D01*
X139783232Y-94789471D01*
X139713369Y-94788473D01*
X139655137Y-94749863D01*
X139627527Y-94689406D01*
X139624438Y-94669905D01*
X139622171Y-94655591D01*
X139579740Y-94525000D01*
X139566212Y-94483363D01*
X139566211Y-94483360D01*
X139508034Y-94369183D01*
X139483996Y-94322006D01*
X139413527Y-94225013D01*
X139377558Y-94175505D01*
X139377554Y-94175500D01*
X139249499Y-94047445D01*
X139249494Y-94047441D01*
X139102997Y-93941006D01*
X139102996Y-93941005D01*
X139102994Y-93941004D01*
X139051300Y-93914664D01*
X138941639Y-93858788D01*
X138941636Y-93858787D01*
X138769410Y-93802829D01*
X138590551Y-93774500D01*
X138590546Y-93774500D01*
X138409454Y-93774500D01*
X138409449Y-93774500D01*
X138230589Y-93802829D01*
X138058363Y-93858787D01*
X138058360Y-93858788D01*
X137897002Y-93941006D01*
X137750505Y-94047441D01*
X137750500Y-94047445D01*
X137622445Y-94175500D01*
X137565374Y-94254052D01*
X137510044Y-94296717D01*
X137440430Y-94302696D01*
X137378635Y-94270090D01*
X137344278Y-94209251D01*
X137341698Y-94193765D01*
X137339506Y-94172303D01*
X137284358Y-94005880D01*
X137284356Y-94005875D01*
X137192315Y-93856654D01*
X137068345Y-93732684D01*
X136919124Y-93640643D01*
X136919119Y-93640641D01*
X136752697Y-93585494D01*
X136752690Y-93585493D01*
X136649986Y-93575000D01*
X136250000Y-93575000D01*
X136250000Y-94645854D01*
X136183343Y-94607370D01*
X136062535Y-94575000D01*
X135937465Y-94575000D01*
X135816657Y-94607370D01*
X135750000Y-94645854D01*
X135750000Y-93575000D01*
X135350028Y-93575000D01*
X135350012Y-93575001D01*
X135247302Y-93585494D01*
X135080880Y-93640641D01*
X135080875Y-93640643D01*
X134931654Y-93732684D01*
X134807684Y-93856654D01*
X134715643Y-94005875D01*
X134715641Y-94005880D01*
X134660494Y-94172302D01*
X134660493Y-94172309D01*
X134650000Y-94275013D01*
X129285528Y-94275013D01*
X129283995Y-94272004D01*
X129177558Y-94125505D01*
X129177554Y-94125500D01*
X129049499Y-93997445D01*
X129049494Y-93997441D01*
X128902997Y-93891006D01*
X128902996Y-93891005D01*
X128902994Y-93891004D01*
X128835579Y-93856654D01*
X128741639Y-93808788D01*
X128741636Y-93808787D01*
X128569410Y-93752829D01*
X128390551Y-93724500D01*
X128390546Y-93724500D01*
X128209454Y-93724500D01*
X128209449Y-93724500D01*
X128030589Y-93752829D01*
X127858363Y-93808787D01*
X127858360Y-93808788D01*
X127697002Y-93891006D01*
X127550505Y-93997441D01*
X127550500Y-93997445D01*
X127422445Y-94125500D01*
X127422441Y-94125505D01*
X127316006Y-94272002D01*
X127233788Y-94433360D01*
X127233787Y-94433363D01*
X127177829Y-94605589D01*
X127172473Y-94639406D01*
X127142543Y-94702540D01*
X127083232Y-94739471D01*
X127013369Y-94738473D01*
X126955137Y-94699863D01*
X126927527Y-94639406D01*
X126924875Y-94622665D01*
X126922171Y-94605591D01*
X126888784Y-94502835D01*
X126866212Y-94433363D01*
X126866211Y-94433360D01*
X126833509Y-94369181D01*
X126783996Y-94272006D01*
X126727151Y-94193765D01*
X126677558Y-94125505D01*
X126677554Y-94125500D01*
X126549499Y-93997445D01*
X126549494Y-93997441D01*
X126402997Y-93891006D01*
X126402996Y-93891005D01*
X126402994Y-93891004D01*
X126335579Y-93856654D01*
X126241639Y-93808788D01*
X126241636Y-93808787D01*
X126069410Y-93752829D01*
X125890551Y-93724500D01*
X125890546Y-93724500D01*
X125709454Y-93724500D01*
X125709449Y-93724500D01*
X125530589Y-93752829D01*
X125358363Y-93808787D01*
X125358360Y-93808788D01*
X125197002Y-93891006D01*
X125050505Y-93997441D01*
X125050500Y-93997445D01*
X124922445Y-94125500D01*
X124865374Y-94204052D01*
X124810044Y-94246717D01*
X124740430Y-94252696D01*
X124678635Y-94220090D01*
X124644278Y-94159251D01*
X124641698Y-94143765D01*
X124639506Y-94122303D01*
X124584358Y-93955880D01*
X124584356Y-93955875D01*
X124492315Y-93806654D01*
X124368345Y-93682684D01*
X124219124Y-93590643D01*
X124219119Y-93590641D01*
X124052697Y-93535494D01*
X124052690Y-93535493D01*
X123949986Y-93525000D01*
X123550000Y-93525000D01*
X123550000Y-94595854D01*
X123483343Y-94557370D01*
X123362535Y-94525000D01*
X123237465Y-94525000D01*
X123116657Y-94557370D01*
X123050000Y-94595854D01*
X123050000Y-93525000D01*
X122650028Y-93525000D01*
X122650012Y-93525001D01*
X122547302Y-93535494D01*
X122380880Y-93590641D01*
X122380875Y-93590643D01*
X122231654Y-93682684D01*
X122107684Y-93806654D01*
X122015643Y-93955875D01*
X122015641Y-93955880D01*
X121960494Y-94122302D01*
X121960493Y-94122309D01*
X121950000Y-94225013D01*
X118500500Y-94225013D01*
X118500500Y-86502706D01*
X118500618Y-86497297D01*
X118507321Y-86343765D01*
X118508436Y-86318234D01*
X119300000Y-86318234D01*
X119300000Y-86681765D01*
X119335632Y-87043556D01*
X119406550Y-87400090D01*
X119406553Y-87400101D01*
X119512086Y-87747997D01*
X119651207Y-88083864D01*
X119651209Y-88083869D01*
X119822570Y-88404462D01*
X119822581Y-88404480D01*
X120024551Y-88706750D01*
X120211678Y-88934765D01*
X120211679Y-88934766D01*
X121705747Y-87440697D01*
X121779588Y-87542330D01*
X121957670Y-87720412D01*
X122059301Y-87794251D01*
X120565232Y-89288319D01*
X120565233Y-89288320D01*
X120793249Y-89475448D01*
X121095519Y-89677418D01*
X121095537Y-89677429D01*
X121416130Y-89848790D01*
X121416135Y-89848792D01*
X121752002Y-89987913D01*
X122099898Y-90093446D01*
X122099909Y-90093449D01*
X122456443Y-90164367D01*
X122818234Y-90200000D01*
X123181766Y-90200000D01*
X123543556Y-90164367D01*
X123900090Y-90093449D01*
X123900101Y-90093446D01*
X124247997Y-89987913D01*
X124583864Y-89848792D01*
X124583869Y-89848790D01*
X124904462Y-89677429D01*
X124904480Y-89677418D01*
X125206736Y-89475457D01*
X125206750Y-89475447D01*
X125434765Y-89288320D01*
X125434766Y-89288319D01*
X123940698Y-87794251D01*
X124042330Y-87720412D01*
X124220412Y-87542330D01*
X124294251Y-87440698D01*
X125788319Y-88934766D01*
X125788320Y-88934765D01*
X125975447Y-88706750D01*
X125975457Y-88706736D01*
X126177418Y-88404480D01*
X126177429Y-88404462D01*
X126348790Y-88083869D01*
X126348792Y-88083864D01*
X126487913Y-87747997D01*
X126593446Y-87400101D01*
X126593448Y-87400093D01*
X126598550Y-87374446D01*
X126598550Y-87374445D01*
X126664367Y-87043556D01*
X126700000Y-86681765D01*
X126700000Y-86425013D01*
X134650000Y-86425013D01*
X134650000Y-86950000D01*
X135595854Y-86950000D01*
X135557370Y-87016657D01*
X135525000Y-87137465D01*
X135525000Y-87262535D01*
X135557370Y-87383343D01*
X135595854Y-87450000D01*
X134650001Y-87450000D01*
X134650001Y-87974986D01*
X134660494Y-88077697D01*
X134715641Y-88244119D01*
X134715643Y-88244124D01*
X134807684Y-88393345D01*
X134931654Y-88517315D01*
X135080875Y-88609356D01*
X135080880Y-88609358D01*
X135247302Y-88664505D01*
X135247309Y-88664506D01*
X135350019Y-88674999D01*
X135749999Y-88674999D01*
X135750000Y-88674998D01*
X135750000Y-87604145D01*
X135816657Y-87642630D01*
X135937465Y-87675000D01*
X136062535Y-87675000D01*
X136183343Y-87642630D01*
X136250000Y-87604145D01*
X136250000Y-88674999D01*
X136649972Y-88674999D01*
X136649986Y-88674998D01*
X136752697Y-88664505D01*
X136919119Y-88609358D01*
X136919124Y-88609356D01*
X137068345Y-88517315D01*
X137192315Y-88393345D01*
X137284356Y-88244124D01*
X137284358Y-88244119D01*
X137339505Y-88077697D01*
X137339506Y-88077689D01*
X137341699Y-88056231D01*
X137368095Y-87991539D01*
X137425276Y-87951388D01*
X137495087Y-87948524D01*
X137555363Y-87983858D01*
X137565376Y-87995949D01*
X137622443Y-88074497D01*
X137750500Y-88202554D01*
X137750505Y-88202558D01*
X137878287Y-88295396D01*
X137897006Y-88308996D01*
X138002484Y-88362740D01*
X138058360Y-88391211D01*
X138058363Y-88391212D01*
X138099199Y-88404480D01*
X138230591Y-88447171D01*
X138313429Y-88460291D01*
X138409449Y-88475500D01*
X138409454Y-88475500D01*
X138590551Y-88475500D01*
X138677259Y-88461765D01*
X138769409Y-88447171D01*
X138941639Y-88391211D01*
X139102994Y-88308996D01*
X139249501Y-88202553D01*
X139377553Y-88074501D01*
X139483996Y-87927994D01*
X139566211Y-87766639D01*
X139622171Y-87594409D01*
X139627527Y-87560594D01*
X139657456Y-87497459D01*
X139716768Y-87460528D01*
X139786630Y-87461526D01*
X139844863Y-87500136D01*
X139872473Y-87560594D01*
X139877829Y-87594410D01*
X139933787Y-87766636D01*
X139933788Y-87766639D01*
X140016006Y-87927997D01*
X140122441Y-88074494D01*
X140122445Y-88074499D01*
X140250500Y-88202554D01*
X140250505Y-88202558D01*
X140378287Y-88295396D01*
X140397006Y-88308996D01*
X140502484Y-88362740D01*
X140558360Y-88391211D01*
X140558363Y-88391212D01*
X140599199Y-88404480D01*
X140730591Y-88447171D01*
X140813429Y-88460291D01*
X140909449Y-88475500D01*
X140909454Y-88475500D01*
X141090551Y-88475500D01*
X141177259Y-88461765D01*
X141269409Y-88447171D01*
X141441639Y-88391211D01*
X141602994Y-88308996D01*
X141749501Y-88202553D01*
X141877553Y-88074501D01*
X141983996Y-87927994D01*
X142066211Y-87766639D01*
X142122171Y-87594409D01*
X142143376Y-87460528D01*
X142150500Y-87415551D01*
X142150500Y-86984448D01*
X142133112Y-86874668D01*
X142122171Y-86805591D01*
X142066211Y-86633361D01*
X142066211Y-86633360D01*
X141987131Y-86478159D01*
X141983996Y-86472006D01*
X141949854Y-86425013D01*
X146812500Y-86425013D01*
X146812500Y-86950000D01*
X147758354Y-86950000D01*
X147719870Y-87016657D01*
X147687500Y-87137465D01*
X147687500Y-87262535D01*
X147719870Y-87383343D01*
X147758354Y-87450000D01*
X146812501Y-87450000D01*
X146812501Y-87974986D01*
X146822994Y-88077697D01*
X146878141Y-88244119D01*
X146878143Y-88244124D01*
X146970184Y-88393345D01*
X147094154Y-88517315D01*
X147243375Y-88609356D01*
X147243380Y-88609358D01*
X147409802Y-88664505D01*
X147409809Y-88664506D01*
X147512519Y-88674999D01*
X147912499Y-88674999D01*
X147912500Y-88674998D01*
X147912500Y-87604145D01*
X147979157Y-87642630D01*
X148099965Y-87675000D01*
X148225035Y-87675000D01*
X148345843Y-87642630D01*
X148412500Y-87604145D01*
X148412500Y-88674999D01*
X148812472Y-88674999D01*
X148812486Y-88674998D01*
X148915197Y-88664505D01*
X149081619Y-88609358D01*
X149081624Y-88609356D01*
X149230845Y-88517315D01*
X149354815Y-88393345D01*
X149446856Y-88244124D01*
X149446858Y-88244119D01*
X149502005Y-88077697D01*
X149502006Y-88077689D01*
X149504199Y-88056231D01*
X149530595Y-87991539D01*
X149587776Y-87951388D01*
X149657587Y-87948524D01*
X149717863Y-87983858D01*
X149727876Y-87995949D01*
X149784943Y-88074497D01*
X149913000Y-88202554D01*
X149913005Y-88202558D01*
X150040787Y-88295396D01*
X150059506Y-88308996D01*
X150164984Y-88362740D01*
X150220860Y-88391211D01*
X150220863Y-88391212D01*
X150261699Y-88404480D01*
X150393091Y-88447171D01*
X150475929Y-88460291D01*
X150571949Y-88475500D01*
X150571954Y-88475500D01*
X150753051Y-88475500D01*
X150839759Y-88461765D01*
X150931909Y-88447171D01*
X151104139Y-88391211D01*
X151265494Y-88308996D01*
X151412001Y-88202553D01*
X151540053Y-88074501D01*
X151646496Y-87927994D01*
X151728711Y-87766639D01*
X151784671Y-87594409D01*
X151790027Y-87560594D01*
X151819956Y-87497459D01*
X151879268Y-87460528D01*
X151949130Y-87461526D01*
X152007363Y-87500136D01*
X152034973Y-87560594D01*
X152040329Y-87594410D01*
X152096287Y-87766636D01*
X152096288Y-87766639D01*
X152178506Y-87927997D01*
X152284941Y-88074494D01*
X152284945Y-88074499D01*
X152413000Y-88202554D01*
X152413005Y-88202558D01*
X152540787Y-88295396D01*
X152559506Y-88308996D01*
X152664984Y-88362740D01*
X152720860Y-88391211D01*
X152720863Y-88391212D01*
X152761699Y-88404480D01*
X152893091Y-88447171D01*
X152975929Y-88460291D01*
X153071949Y-88475500D01*
X153071954Y-88475500D01*
X153253051Y-88475500D01*
X153339759Y-88461765D01*
X153431909Y-88447171D01*
X153604139Y-88391211D01*
X153765494Y-88308996D01*
X153912001Y-88202553D01*
X154040053Y-88074501D01*
X154146496Y-87927994D01*
X154228711Y-87766639D01*
X154284671Y-87594409D01*
X154305876Y-87460528D01*
X154313000Y-87415551D01*
X154313000Y-86984448D01*
X154295612Y-86874668D01*
X154284671Y-86805591D01*
X154228711Y-86633361D01*
X154228711Y-86633360D01*
X154149631Y-86478159D01*
X154146496Y-86472006D01*
X154112354Y-86425013D01*
X159150000Y-86425013D01*
X159150000Y-86950000D01*
X160095854Y-86950000D01*
X160057370Y-87016657D01*
X160025000Y-87137465D01*
X160025000Y-87262535D01*
X160057370Y-87383343D01*
X160095854Y-87450000D01*
X159150001Y-87450000D01*
X159150001Y-87974986D01*
X159160494Y-88077697D01*
X159215641Y-88244119D01*
X159215643Y-88244124D01*
X159307684Y-88393345D01*
X159431654Y-88517315D01*
X159580875Y-88609356D01*
X159580880Y-88609358D01*
X159747302Y-88664505D01*
X159747309Y-88664506D01*
X159850019Y-88674999D01*
X160249999Y-88674999D01*
X160250000Y-88674998D01*
X160250000Y-87604145D01*
X160316657Y-87642630D01*
X160437465Y-87675000D01*
X160562535Y-87675000D01*
X160683343Y-87642630D01*
X160750000Y-87604145D01*
X160750000Y-88674999D01*
X161149972Y-88674999D01*
X161149986Y-88674998D01*
X161252697Y-88664505D01*
X161419119Y-88609358D01*
X161419124Y-88609356D01*
X161568345Y-88517315D01*
X161692315Y-88393345D01*
X161784356Y-88244124D01*
X161784358Y-88244119D01*
X161839505Y-88077697D01*
X161839506Y-88077689D01*
X161841699Y-88056231D01*
X161868095Y-87991539D01*
X161925276Y-87951388D01*
X161995087Y-87948524D01*
X162055363Y-87983858D01*
X162065376Y-87995949D01*
X162122443Y-88074497D01*
X162250500Y-88202554D01*
X162250505Y-88202558D01*
X162378287Y-88295396D01*
X162397006Y-88308996D01*
X162502484Y-88362740D01*
X162558360Y-88391211D01*
X162558363Y-88391212D01*
X162599199Y-88404480D01*
X162730591Y-88447171D01*
X162813429Y-88460291D01*
X162909449Y-88475500D01*
X162909454Y-88475500D01*
X163090551Y-88475500D01*
X163177259Y-88461765D01*
X163269409Y-88447171D01*
X163441639Y-88391211D01*
X163602994Y-88308996D01*
X163749501Y-88202553D01*
X163877553Y-88074501D01*
X163983996Y-87927994D01*
X164066211Y-87766639D01*
X164122171Y-87594409D01*
X164127527Y-87560594D01*
X164157456Y-87497459D01*
X164216768Y-87460528D01*
X164286630Y-87461526D01*
X164344863Y-87500136D01*
X164372473Y-87560594D01*
X164377829Y-87594410D01*
X164433787Y-87766636D01*
X164433788Y-87766639D01*
X164516006Y-87927997D01*
X164622441Y-88074494D01*
X164622445Y-88074499D01*
X164750500Y-88202554D01*
X164750505Y-88202558D01*
X164878287Y-88295396D01*
X164897006Y-88308996D01*
X165002484Y-88362740D01*
X165058360Y-88391211D01*
X165058363Y-88391212D01*
X165099199Y-88404480D01*
X165230591Y-88447171D01*
X165313429Y-88460291D01*
X165409449Y-88475500D01*
X165409454Y-88475500D01*
X165590551Y-88475500D01*
X165677259Y-88461765D01*
X165769409Y-88447171D01*
X165941639Y-88391211D01*
X166102994Y-88308996D01*
X166249501Y-88202553D01*
X166377553Y-88074501D01*
X166483996Y-87927994D01*
X166566211Y-87766639D01*
X166622171Y-87594409D01*
X166643376Y-87460528D01*
X166650500Y-87415551D01*
X166650500Y-86984448D01*
X166633112Y-86874668D01*
X166622171Y-86805591D01*
X166566211Y-86633361D01*
X166566211Y-86633360D01*
X166483996Y-86472006D01*
X166423015Y-86388072D01*
X166423014Y-86388069D01*
X166377558Y-86325505D01*
X166377554Y-86325500D01*
X166370288Y-86318234D01*
X169300000Y-86318234D01*
X169300000Y-86681765D01*
X169335632Y-87043556D01*
X169406550Y-87400090D01*
X169406553Y-87400101D01*
X169512086Y-87747997D01*
X169651207Y-88083864D01*
X169651209Y-88083869D01*
X169822570Y-88404462D01*
X169822581Y-88404480D01*
X170024551Y-88706750D01*
X170211678Y-88934765D01*
X170211679Y-88934766D01*
X171705747Y-87440697D01*
X171779588Y-87542330D01*
X171957670Y-87720412D01*
X172059301Y-87794251D01*
X170565232Y-89288319D01*
X170565233Y-89288320D01*
X170793249Y-89475448D01*
X171095519Y-89677418D01*
X171095537Y-89677429D01*
X171416130Y-89848790D01*
X171416135Y-89848792D01*
X171752002Y-89987913D01*
X172099898Y-90093446D01*
X172099909Y-90093449D01*
X172456443Y-90164367D01*
X172818234Y-90200000D01*
X173181766Y-90200000D01*
X173543556Y-90164367D01*
X173900090Y-90093449D01*
X173900101Y-90093446D01*
X174247997Y-89987913D01*
X174583864Y-89848792D01*
X174583869Y-89848790D01*
X174904462Y-89677429D01*
X174904480Y-89677418D01*
X175206736Y-89475457D01*
X175206750Y-89475447D01*
X175434765Y-89288320D01*
X175434766Y-89288319D01*
X173940698Y-87794251D01*
X174042330Y-87720412D01*
X174220412Y-87542330D01*
X174294251Y-87440698D01*
X175788319Y-88934766D01*
X175788320Y-88934765D01*
X175975447Y-88706750D01*
X175975457Y-88706736D01*
X176177418Y-88404480D01*
X176177429Y-88404462D01*
X176348790Y-88083869D01*
X176348792Y-88083864D01*
X176487913Y-87747997D01*
X176593446Y-87400101D01*
X176593449Y-87400090D01*
X176664367Y-87043556D01*
X176700000Y-86681765D01*
X176700000Y-86318234D01*
X176664367Y-85956443D01*
X176593449Y-85599909D01*
X176593446Y-85599898D01*
X176487913Y-85252002D01*
X176348792Y-84916135D01*
X176348790Y-84916130D01*
X176177429Y-84595537D01*
X176177418Y-84595519D01*
X175975448Y-84293249D01*
X175788320Y-84065233D01*
X175788319Y-84065232D01*
X174294251Y-85559300D01*
X174220412Y-85457670D01*
X174042330Y-85279588D01*
X173940698Y-85205748D01*
X175434766Y-83711679D01*
X175434765Y-83711678D01*
X175206750Y-83524551D01*
X174904480Y-83322581D01*
X174904462Y-83322570D01*
X174583869Y-83151209D01*
X174583864Y-83151207D01*
X174247997Y-83012086D01*
X173900101Y-82906553D01*
X173900090Y-82906550D01*
X173543556Y-82835632D01*
X173181766Y-82800000D01*
X172818234Y-82800000D01*
X172456443Y-82835632D01*
X172099909Y-82906550D01*
X172099898Y-82906553D01*
X171752002Y-83012086D01*
X171416135Y-83151207D01*
X171416130Y-83151209D01*
X171095537Y-83322570D01*
X171095519Y-83322581D01*
X170793258Y-83524545D01*
X170793254Y-83524548D01*
X170565233Y-83711679D01*
X170565233Y-83711680D01*
X172059301Y-85205748D01*
X171957670Y-85279588D01*
X171779588Y-85457670D01*
X171705748Y-85559301D01*
X170211680Y-84065233D01*
X170211679Y-84065233D01*
X170024548Y-84293254D01*
X170024545Y-84293258D01*
X169822581Y-84595519D01*
X169822570Y-84595537D01*
X169651209Y-84916130D01*
X169651207Y-84916135D01*
X169512086Y-85252002D01*
X169406553Y-85599898D01*
X169406550Y-85599909D01*
X169335632Y-85956443D01*
X169300000Y-86318234D01*
X166370288Y-86318234D01*
X166249499Y-86197445D01*
X166249494Y-86197441D01*
X166102997Y-86091006D01*
X166102996Y-86091005D01*
X166102994Y-86091004D01*
X166051300Y-86064664D01*
X165941639Y-86008788D01*
X165941636Y-86008787D01*
X165769410Y-85952829D01*
X165590551Y-85924500D01*
X165590546Y-85924500D01*
X165409454Y-85924500D01*
X165409449Y-85924500D01*
X165230589Y-85952829D01*
X165058363Y-86008787D01*
X165058360Y-86008788D01*
X164897002Y-86091006D01*
X164750505Y-86197441D01*
X164750500Y-86197445D01*
X164622445Y-86325500D01*
X164622441Y-86325505D01*
X164516006Y-86472002D01*
X164433788Y-86633360D01*
X164433787Y-86633363D01*
X164377829Y-86805589D01*
X164372473Y-86839406D01*
X164342543Y-86902540D01*
X164283232Y-86939471D01*
X164213369Y-86938473D01*
X164155137Y-86899863D01*
X164127527Y-86839406D01*
X164124438Y-86819905D01*
X164122171Y-86805591D01*
X164066211Y-86633361D01*
X164066211Y-86633360D01*
X164037740Y-86577484D01*
X163983996Y-86472006D01*
X163912847Y-86374077D01*
X163877558Y-86325505D01*
X163877554Y-86325500D01*
X163749499Y-86197445D01*
X163749494Y-86197441D01*
X163602997Y-86091006D01*
X163602996Y-86091005D01*
X163602994Y-86091004D01*
X163551300Y-86064664D01*
X163441639Y-86008788D01*
X163441636Y-86008787D01*
X163269410Y-85952829D01*
X163090551Y-85924500D01*
X163090546Y-85924500D01*
X162909454Y-85924500D01*
X162909449Y-85924500D01*
X162730589Y-85952829D01*
X162558363Y-86008787D01*
X162558360Y-86008788D01*
X162397002Y-86091006D01*
X162250505Y-86197441D01*
X162250500Y-86197445D01*
X162122445Y-86325500D01*
X162065374Y-86404052D01*
X162010044Y-86446717D01*
X161940430Y-86452696D01*
X161878635Y-86420090D01*
X161844278Y-86359251D01*
X161841698Y-86343765D01*
X161839506Y-86322303D01*
X161784358Y-86155880D01*
X161784356Y-86155875D01*
X161692315Y-86006654D01*
X161568345Y-85882684D01*
X161419124Y-85790643D01*
X161419119Y-85790641D01*
X161252697Y-85735494D01*
X161252690Y-85735493D01*
X161149986Y-85725000D01*
X160750000Y-85725000D01*
X160750000Y-86795854D01*
X160683343Y-86757370D01*
X160562535Y-86725000D01*
X160437465Y-86725000D01*
X160316657Y-86757370D01*
X160250000Y-86795854D01*
X160250000Y-85725000D01*
X159850028Y-85725000D01*
X159850012Y-85725001D01*
X159747302Y-85735494D01*
X159580880Y-85790641D01*
X159580875Y-85790643D01*
X159431654Y-85882684D01*
X159307684Y-86006654D01*
X159215643Y-86155875D01*
X159215641Y-86155880D01*
X159160494Y-86322302D01*
X159160493Y-86322309D01*
X159150000Y-86425013D01*
X154112354Y-86425013D01*
X154075347Y-86374077D01*
X154040058Y-86325505D01*
X154040054Y-86325500D01*
X153911999Y-86197445D01*
X153911994Y-86197441D01*
X153765497Y-86091006D01*
X153765496Y-86091005D01*
X153765494Y-86091004D01*
X153713800Y-86064664D01*
X153604139Y-86008788D01*
X153604136Y-86008787D01*
X153431910Y-85952829D01*
X153253051Y-85924500D01*
X153253046Y-85924500D01*
X153071954Y-85924500D01*
X153071949Y-85924500D01*
X152893089Y-85952829D01*
X152720863Y-86008787D01*
X152720860Y-86008788D01*
X152559502Y-86091006D01*
X152413005Y-86197441D01*
X152413000Y-86197445D01*
X152284945Y-86325500D01*
X152284941Y-86325505D01*
X152178506Y-86472002D01*
X152096288Y-86633360D01*
X152096287Y-86633363D01*
X152040329Y-86805589D01*
X152034973Y-86839406D01*
X152005043Y-86902540D01*
X151945732Y-86939471D01*
X151875869Y-86938473D01*
X151817637Y-86899863D01*
X151790027Y-86839406D01*
X151786938Y-86819905D01*
X151784671Y-86805591D01*
X151728711Y-86633361D01*
X151728711Y-86633360D01*
X151700240Y-86577484D01*
X151646496Y-86472006D01*
X151575347Y-86374077D01*
X151540058Y-86325505D01*
X151540054Y-86325500D01*
X151411999Y-86197445D01*
X151411994Y-86197441D01*
X151265497Y-86091006D01*
X151265496Y-86091005D01*
X151265494Y-86091004D01*
X151213800Y-86064664D01*
X151104139Y-86008788D01*
X151104136Y-86008787D01*
X150931910Y-85952829D01*
X150753051Y-85924500D01*
X150753046Y-85924500D01*
X150571954Y-85924500D01*
X150571949Y-85924500D01*
X150393089Y-85952829D01*
X150220863Y-86008787D01*
X150220860Y-86008788D01*
X150059502Y-86091006D01*
X149913005Y-86197441D01*
X149913000Y-86197445D01*
X149784945Y-86325500D01*
X149727874Y-86404052D01*
X149672544Y-86446717D01*
X149602930Y-86452696D01*
X149541135Y-86420090D01*
X149506778Y-86359251D01*
X149504198Y-86343765D01*
X149502006Y-86322303D01*
X149446858Y-86155880D01*
X149446856Y-86155875D01*
X149354815Y-86006654D01*
X149230845Y-85882684D01*
X149081624Y-85790643D01*
X149081619Y-85790641D01*
X148915197Y-85735494D01*
X148915190Y-85735493D01*
X148812486Y-85725000D01*
X148412500Y-85725000D01*
X148412500Y-86795854D01*
X148345843Y-86757370D01*
X148225035Y-86725000D01*
X148099965Y-86725000D01*
X147979157Y-86757370D01*
X147912500Y-86795854D01*
X147912500Y-85725000D01*
X147512528Y-85725000D01*
X147512512Y-85725001D01*
X147409802Y-85735494D01*
X147243380Y-85790641D01*
X147243375Y-85790643D01*
X147094154Y-85882684D01*
X146970184Y-86006654D01*
X146878143Y-86155875D01*
X146878141Y-86155880D01*
X146822994Y-86322302D01*
X146822993Y-86322309D01*
X146812500Y-86425013D01*
X141949854Y-86425013D01*
X141912847Y-86374077D01*
X141877558Y-86325505D01*
X141877554Y-86325500D01*
X141749499Y-86197445D01*
X141749494Y-86197441D01*
X141602997Y-86091006D01*
X141602996Y-86091005D01*
X141602994Y-86091004D01*
X141551300Y-86064664D01*
X141441639Y-86008788D01*
X141441636Y-86008787D01*
X141269410Y-85952829D01*
X141090551Y-85924500D01*
X141090546Y-85924500D01*
X140909454Y-85924500D01*
X140909449Y-85924500D01*
X140730589Y-85952829D01*
X140558363Y-86008787D01*
X140558360Y-86008788D01*
X140397002Y-86091006D01*
X140250505Y-86197441D01*
X140250500Y-86197445D01*
X140122445Y-86325500D01*
X140122441Y-86325505D01*
X140016006Y-86472002D01*
X139933788Y-86633360D01*
X139933787Y-86633363D01*
X139877829Y-86805589D01*
X139872473Y-86839406D01*
X139842543Y-86902540D01*
X139783232Y-86939471D01*
X139713369Y-86938473D01*
X139655137Y-86899863D01*
X139627527Y-86839406D01*
X139624438Y-86819905D01*
X139622171Y-86805591D01*
X139566211Y-86633361D01*
X139566211Y-86633360D01*
X139537740Y-86577484D01*
X139483996Y-86472006D01*
X139412847Y-86374077D01*
X139377558Y-86325505D01*
X139377554Y-86325500D01*
X139249499Y-86197445D01*
X139249494Y-86197441D01*
X139102997Y-86091006D01*
X139102996Y-86091005D01*
X139102994Y-86091004D01*
X139051300Y-86064664D01*
X138941639Y-86008788D01*
X138941636Y-86008787D01*
X138769410Y-85952829D01*
X138590551Y-85924500D01*
X138590546Y-85924500D01*
X138409454Y-85924500D01*
X138409449Y-85924500D01*
X138230589Y-85952829D01*
X138058363Y-86008787D01*
X138058360Y-86008788D01*
X137897002Y-86091006D01*
X137750505Y-86197441D01*
X137750500Y-86197445D01*
X137622445Y-86325500D01*
X137565374Y-86404052D01*
X137510044Y-86446717D01*
X137440430Y-86452696D01*
X137378635Y-86420090D01*
X137344278Y-86359251D01*
X137341698Y-86343765D01*
X137339506Y-86322303D01*
X137284358Y-86155880D01*
X137284356Y-86155875D01*
X137192315Y-86006654D01*
X137068345Y-85882684D01*
X136919124Y-85790643D01*
X136919119Y-85790641D01*
X136752697Y-85735494D01*
X136752690Y-85735493D01*
X136649986Y-85725000D01*
X136250000Y-85725000D01*
X136250000Y-86795854D01*
X136183343Y-86757370D01*
X136062535Y-86725000D01*
X135937465Y-86725000D01*
X135816657Y-86757370D01*
X135750000Y-86795854D01*
X135750000Y-85725000D01*
X135350028Y-85725000D01*
X135350012Y-85725001D01*
X135247302Y-85735494D01*
X135080880Y-85790641D01*
X135080875Y-85790643D01*
X134931654Y-85882684D01*
X134807684Y-86006654D01*
X134715643Y-86155875D01*
X134715641Y-86155880D01*
X134660494Y-86322302D01*
X134660493Y-86322309D01*
X134650000Y-86425013D01*
X126700000Y-86425013D01*
X126700000Y-86318234D01*
X126664367Y-85956443D01*
X126593449Y-85599909D01*
X126593446Y-85599898D01*
X126487913Y-85252002D01*
X126348792Y-84916135D01*
X126348790Y-84916130D01*
X126177429Y-84595537D01*
X126177418Y-84595519D01*
X125975448Y-84293249D01*
X125788320Y-84065233D01*
X125788319Y-84065232D01*
X124294251Y-85559300D01*
X124220412Y-85457670D01*
X124042330Y-85279588D01*
X123940698Y-85205748D01*
X125434766Y-83711679D01*
X125434765Y-83711678D01*
X125206750Y-83524551D01*
X124904480Y-83322581D01*
X124904462Y-83322570D01*
X124583869Y-83151209D01*
X124583864Y-83151207D01*
X124247997Y-83012086D01*
X123900101Y-82906553D01*
X123900090Y-82906550D01*
X123543556Y-82835632D01*
X123181766Y-82800000D01*
X122818234Y-82800000D01*
X122456443Y-82835632D01*
X122099909Y-82906550D01*
X122099898Y-82906553D01*
X121752002Y-83012086D01*
X121416135Y-83151207D01*
X121416130Y-83151209D01*
X121095537Y-83322570D01*
X121095519Y-83322581D01*
X120793258Y-83524545D01*
X120793254Y-83524548D01*
X120565233Y-83711679D01*
X120565233Y-83711680D01*
X122059301Y-85205748D01*
X121957670Y-85279588D01*
X121779588Y-85457670D01*
X121705748Y-85559301D01*
X120211680Y-84065233D01*
X120211679Y-84065233D01*
X120024548Y-84293254D01*
X120024545Y-84293258D01*
X119822581Y-84595519D01*
X119822570Y-84595537D01*
X119651209Y-84916130D01*
X119651207Y-84916135D01*
X119512086Y-85252002D01*
X119406553Y-85599898D01*
X119406550Y-85599909D01*
X119335632Y-85956443D01*
X119300000Y-86318234D01*
X118508436Y-86318234D01*
X118517386Y-86113228D01*
X118518326Y-86102495D01*
X118568152Y-85724025D01*
X118570025Y-85713405D01*
X118652649Y-85340709D01*
X118655440Y-85330295D01*
X118770230Y-84966227D01*
X118773917Y-84956095D01*
X118920003Y-84603412D01*
X118924561Y-84593638D01*
X119100822Y-84255045D01*
X119106217Y-84245700D01*
X119311325Y-83923744D01*
X119317515Y-83914905D01*
X119549896Y-83612060D01*
X119556834Y-83603791D01*
X119814726Y-83322352D01*
X119822352Y-83314726D01*
X120103791Y-83056834D01*
X120112060Y-83049896D01*
X120414905Y-82817515D01*
X120423744Y-82811325D01*
X120745700Y-82606217D01*
X120755045Y-82600822D01*
X121093638Y-82424561D01*
X121103412Y-82420003D01*
X121456095Y-82273917D01*
X121466227Y-82270230D01*
X121830295Y-82155440D01*
X121840709Y-82152649D01*
X122213405Y-82070025D01*
X122224025Y-82068152D01*
X122602495Y-82018326D01*
X122613226Y-82017386D01*
X122997297Y-82000617D01*
X123002706Y-82000500D01*
X123065892Y-82000500D01*
X172934108Y-82000500D01*
X172997294Y-82000500D01*
X173002702Y-82000617D01*
G37*
%TD.AperFunction*%
%TD*%
M02*
