%TF.GenerationSoftware,KiCad,Pcbnew,9.0.0-9.0.0-2~ubuntu24.04.1*%
%TF.CreationDate,2025-03-20T14:05:46+01:00*%
%TF.ProjectId,PCB_main_unit,5043425f-6d61-4696-9e5f-756e69742e6b,rev?*%
%TF.SameCoordinates,Original*%
%TF.FileFunction,Copper,L4,Bot*%
%TF.FilePolarity,Positive*%
%FSLAX46Y46*%
G04 Gerber Fmt 4.6, Leading zero omitted, Abs format (unit mm)*
G04 Created by KiCad (PCBNEW 9.0.0-9.0.0-2~ubuntu24.04.1) date 2025-03-20 14:05:46*
%MOMM*%
%LPD*%
G01*
G04 APERTURE LIST*
G04 Aperture macros list*
%AMRoundRect*
0 Rectangle with rounded corners*
0 $1 Rounding radius*
0 $2 $3 $4 $5 $6 $7 $8 $9 X,Y pos of 4 corners*
0 Add a 4 corners polygon primitive as box body*
4,1,4,$2,$3,$4,$5,$6,$7,$8,$9,$2,$3,0*
0 Add four circle primitives for the rounded corners*
1,1,$1+$1,$2,$3*
1,1,$1+$1,$4,$5*
1,1,$1+$1,$6,$7*
1,1,$1+$1,$8,$9*
0 Add four rect primitives between the rounded corners*
20,1,$1+$1,$2,$3,$4,$5,0*
20,1,$1+$1,$4,$5,$6,$7,0*
20,1,$1+$1,$6,$7,$8,$9,0*
20,1,$1+$1,$8,$9,$2,$3,0*%
G04 Aperture macros list end*
%TA.AperFunction,ComponentPad*%
%ADD10C,0.800000*%
%TD*%
%TA.AperFunction,ComponentPad*%
%ADD11C,6.400000*%
%TD*%
%TA.AperFunction,ComponentPad*%
%ADD12RoundRect,0.250000X-0.600000X-0.725000X0.600000X-0.725000X0.600000X0.725000X-0.600000X0.725000X0*%
%TD*%
%TA.AperFunction,ComponentPad*%
%ADD13O,1.700000X1.950000*%
%TD*%
%TA.AperFunction,ComponentPad*%
%ADD14RoundRect,0.250000X0.725000X-0.600000X0.725000X0.600000X-0.725000X0.600000X-0.725000X-0.600000X0*%
%TD*%
%TA.AperFunction,ComponentPad*%
%ADD15O,1.950000X1.700000*%
%TD*%
%TA.AperFunction,ComponentPad*%
%ADD16RoundRect,1.500000X1.500000X1.500000X-1.500000X1.500000X-1.500000X-1.500000X1.500000X-1.500000X0*%
%TD*%
%TA.AperFunction,ComponentPad*%
%ADD17C,6.000000*%
%TD*%
%TA.AperFunction,ComponentPad*%
%ADD18C,3.000000*%
%TD*%
%TA.AperFunction,ComponentPad*%
%ADD19RoundRect,0.250000X-0.725000X0.600000X-0.725000X-0.600000X0.725000X-0.600000X0.725000X0.600000X0*%
%TD*%
%TA.AperFunction,ComponentPad*%
%ADD20C,1.600000*%
%TD*%
%TA.AperFunction,ViaPad*%
%ADD21C,0.450000*%
%TD*%
%TA.AperFunction,ViaPad*%
%ADD22C,1.200000*%
%TD*%
%TA.AperFunction,Conductor*%
%ADD23C,0.200000*%
%TD*%
G04 APERTURE END LIST*
D10*
%TO.P,H2,1,1*%
%TO.N,GND*%
X170600000Y-132000000D03*
X171302944Y-130302944D03*
X171302944Y-133697056D03*
X173000000Y-129600000D03*
D11*
X173000000Y-132000000D03*
D10*
X173000000Y-134400000D03*
X174697056Y-130302944D03*
X174697056Y-133697056D03*
X175400000Y-132000000D03*
%TD*%
D12*
%TO.P,J1,1,Pin_1*%
%TO.N,GND*%
X160500000Y-87200000D03*
D13*
%TO.P,J1,2,Pin_2*%
%TO.N,+5V*%
X163000000Y-87200000D03*
%TO.P,J1,3,Pin_3*%
%TO.N,TIM1_CH1_DOOR1*%
X165500000Y-87200000D03*
%TD*%
D14*
%TO.P,J11,1,Pin_1*%
%TO.N,GND*%
X129200000Y-108500000D03*
D15*
%TO.P,J11,2,Pin_2*%
%TO.N,+5V*%
X129200000Y-106000000D03*
%TO.P,J11,3,Pin_3*%
%TO.N,TIM3_CH1_FOOD*%
X129200000Y-103500000D03*
%TD*%
D10*
%TO.P,H4,1,1*%
%TO.N,GND*%
X120600000Y-86500000D03*
X121302944Y-84802944D03*
X121302944Y-88197056D03*
X123000000Y-84100000D03*
D11*
X123000000Y-86500000D03*
D10*
X123000000Y-88900000D03*
X124697056Y-84802944D03*
X124697056Y-88197056D03*
X125400000Y-86500000D03*
%TD*%
D12*
%TO.P,J5,1,Pin_1*%
%TO.N,GND*%
X123300000Y-95000000D03*
D13*
%TO.P,J5,2,Pin_2*%
%TO.N,TIM2_CH2_LIGHT1*%
X125800000Y-95000000D03*
%TO.P,J5,3,Pin_3*%
%TO.N,+5V*%
X128300000Y-95000000D03*
%TD*%
D12*
%TO.P,J4,1,Pin_1*%
%TO.N,GND*%
X136000000Y-95050000D03*
D13*
%TO.P,J4,2,Pin_2*%
%TO.N,+5V*%
X138500000Y-95050000D03*
%TO.P,J4,3,Pin_3*%
%TO.N,TIM1_CH4_GARAGE*%
X141000000Y-95050000D03*
%TD*%
D14*
%TO.P,J10,1,Pin_1*%
%TO.N,GND*%
X129200000Y-121200000D03*
D15*
%TO.P,J10,2,Pin_2*%
%TO.N,+12V*%
X129200000Y-118700000D03*
%TO.P,J10,3,Pin_3*%
%TO.N,USART2_HD_XL430*%
X129200000Y-116200000D03*
%TD*%
D10*
%TO.P,H1,1,1*%
%TO.N,GND*%
X170600000Y-86500000D03*
X171302944Y-84802944D03*
X171302944Y-88197056D03*
X173000000Y-84100000D03*
D11*
X173000000Y-86500000D03*
D10*
X173000000Y-88900000D03*
X174697056Y-84802944D03*
X174697056Y-88197056D03*
X175400000Y-86500000D03*
%TD*%
D16*
%TO.P,J16,1,Pin_1*%
%TO.N,GND*%
X163000000Y-132000000D03*
D17*
%TO.P,J16,2,Pin_2*%
%TO.N,Net-(J16-Pin_2)*%
X155800000Y-132000000D03*
%TD*%
D14*
%TO.P,J9,1,Pin_1*%
%TO.N,unconnected-(J9-Pin_1-Pad1)*%
X122000000Y-118750000D03*
D15*
%TO.P,J9,2,Pin_2*%
%TO.N,+5V*%
X122000000Y-116250000D03*
%TO.P,J9,3,Pin_3*%
%TO.N,GND*%
X122000000Y-113750000D03*
%TO.P,J9,4,Pin_4*%
%TO.N,UART3_TX_HC05*%
X122000000Y-111250000D03*
%TO.P,J9,5,Pin_5*%
%TO.N,UART3_RX_HC05*%
X122000000Y-108750000D03*
%TO.P,J9,6,Pin_6*%
%TO.N,unconnected-(J9-Pin_6-Pad6)*%
X122000000Y-106250000D03*
%TD*%
D12*
%TO.P,J3,1,Pin_1*%
%TO.N,GND*%
X136000000Y-87200000D03*
D13*
%TO.P,J3,2,Pin_2*%
%TO.N,+5V*%
X138500000Y-87200000D03*
%TO.P,J3,3,Pin_3*%
%TO.N,TIM1_CH3_DOOR3*%
X141000000Y-87200000D03*
%TD*%
D10*
%TO.P,H3,1,1*%
%TO.N,GND*%
X120600000Y-132000000D03*
X121302944Y-130302944D03*
X121302944Y-133697056D03*
X123000000Y-129600000D03*
D11*
X123000000Y-132000000D03*
D10*
X123000000Y-134400000D03*
X124697056Y-130302944D03*
X124697056Y-133697056D03*
X125400000Y-132000000D03*
%TD*%
D18*
%TO.P,SW1,1,A*%
%TO.N,+12V*%
X139100000Y-132000000D03*
%TO.P,SW1,2,B*%
%TO.N,Net-(J16-Pin_2)*%
X143800000Y-132000000D03*
%TO.P,SW1,3,C*%
%TO.N,unconnected-(SW1-C-Pad3)*%
X148500000Y-132000000D03*
%TD*%
D19*
%TO.P,J13,1,Pin_1*%
%TO.N,+5V*%
X173500000Y-96000000D03*
D15*
%TO.P,J13,2,Pin_2*%
%TO.N,GND*%
X173500000Y-98500000D03*
%TO.P,J13,3,Pin_3*%
%TO.N,SPI1_SCK*%
X173500000Y-101000000D03*
%TO.P,J13,4,Pin_4*%
%TO.N,SPI1_MOSI*%
X173500000Y-103500000D03*
%TO.P,J13,5,Pin_5*%
%TO.N,SPI_CS*%
X173500000Y-106000000D03*
%TO.P,J13,6,Pin_6*%
%TO.N,SPI_RST*%
X173500000Y-108500000D03*
%TO.P,J13,7,Pin_7*%
%TO.N,SPI_DC*%
X173500000Y-111000000D03*
%TD*%
D12*
%TO.P,J2,1,Pin_1*%
%TO.N,GND*%
X148162500Y-87200000D03*
D13*
%TO.P,J2,2,Pin_2*%
%TO.N,+5V*%
X150662500Y-87200000D03*
%TO.P,J2,3,Pin_3*%
%TO.N,TIM1_CH2_DOOR2*%
X153162500Y-87200000D03*
%TD*%
D19*
%TO.P,J12,1,Pin_1*%
%TO.N,UART4_RX_MP3*%
X166500000Y-100500000D03*
D15*
%TO.P,J12,2,Pin_2*%
%TO.N,UART4_TX_MP3*%
X166500000Y-103000000D03*
%TO.P,J12,3,Pin_3*%
%TO.N,+5V*%
X166500000Y-105500000D03*
%TO.P,J12,4,Pin_4*%
%TO.N,GND*%
X166500000Y-108000000D03*
%TD*%
D20*
%TO.P,U1,1,VIN*%
%TO.N,+12V*%
X141400000Y-125500000D03*
%TO.P,U1,2,GND*%
%TO.N,GND*%
X143940000Y-125500000D03*
%TO.P,U1,3,VOUT*%
%TO.N,+5V*%
X146480000Y-125500000D03*
%TD*%
D21*
%TO.N,GND*%
X144400000Y-104400000D03*
X145950000Y-116250000D03*
X159300000Y-90700000D03*
X148950000Y-120000000D03*
X133700000Y-121400000D03*
X157750000Y-97500000D03*
X125900000Y-102100000D03*
X129650000Y-98950000D03*
X157050000Y-125650000D03*
X143650000Y-117750000D03*
X154950000Y-125050000D03*
X152150000Y-104900000D03*
X141000000Y-92250000D03*
X131000000Y-84300000D03*
X120550000Y-99250000D03*
X164100000Y-115550000D03*
X150250000Y-116050000D03*
X139650000Y-113450000D03*
X143333135Y-110293365D03*
X128650000Y-125200000D03*
X149800000Y-99600000D03*
X134100000Y-118650000D03*
X129500000Y-89000000D03*
X124400000Y-91800000D03*
X145250000Y-94250000D03*
X168700000Y-134050000D03*
X138400000Y-111000000D03*
X130500000Y-132000000D03*
X175750000Y-91750000D03*
X157200000Y-90200000D03*
X134250000Y-90700000D03*
X163300000Y-109200000D03*
X139900000Y-83400000D03*
X141450000Y-99550000D03*
X169300000Y-93700000D03*
X122000000Y-122500000D03*
X140250000Y-121850000D03*
X136350000Y-130250000D03*
X132100000Y-132050000D03*
X174300000Y-117650000D03*
X157600000Y-101300000D03*
X170000000Y-98700000D03*
X138650000Y-101450000D03*
X157750000Y-95900000D03*
X155100000Y-107050000D03*
X133200000Y-102450000D03*
X128250000Y-134300000D03*
X157800000Y-94300000D03*
X169500000Y-89250000D03*
X147750000Y-128050000D03*
X138300000Y-109800000D03*
X143350000Y-112100000D03*
X133300000Y-108400000D03*
X174350000Y-120200000D03*
X158200000Y-114300000D03*
X125700000Y-114200000D03*
X174350000Y-121450000D03*
X138200000Y-107900000D03*
X144675000Y-101900612D03*
X164900000Y-123750000D03*
X169400000Y-128100000D03*
X164450000Y-95450000D03*
X135950000Y-91600000D03*
X151050000Y-112900000D03*
X136000000Y-99250000D03*
X134550000Y-113550000D03*
X133800000Y-132050000D03*
X146862500Y-90700000D03*
D22*
%TO.N,+5V*%
X133050000Y-125600000D03*
X166900000Y-127700000D03*
D21*
%TO.N,+3.3V*%
X136200000Y-121850000D03*
X143300000Y-100900000D03*
X156000000Y-105000000D03*
X160300000Y-117700000D03*
X142100000Y-113100000D03*
X152000000Y-115300000D03*
X135300000Y-109400000D03*
X140800000Y-111000000D03*
X140900000Y-110100000D03*
X174400000Y-123200000D03*
X152000000Y-102200000D03*
%TO.N,NRST*%
X166600000Y-117200000D03*
X159400000Y-106300000D03*
%TO.N,TIM2_CH2_LIGHT1*%
X145750000Y-101750000D03*
%TO.N,UART3_RX_HC05*%
X138300000Y-114500000D03*
%TO.N,USART2_HD_XL430*%
X144400000Y-112900000D03*
D22*
%TO.N,+12V*%
X135400000Y-126400000D03*
D21*
%TO.N,SPI_CS*%
X149200000Y-117800000D03*
%TO.N,SPI_DC*%
X151600000Y-119900000D03*
%TO.N,SPI_RST*%
X151500000Y-119100000D03*
%TO.N,SPI1_MOSI*%
X144170022Y-106753052D03*
%TO.N,SPI1_SCK*%
X143900000Y-106000000D03*
%TO.N,UART1_DEBUG_RX*%
X161300000Y-113000000D03*
X143324389Y-108099999D03*
%TO.N,UART1_DEBUG_TX*%
X143821345Y-107473072D03*
X160000000Y-112400000D03*
%TO.N,LED3*%
X151200000Y-105200000D03*
X152100000Y-97500000D03*
%TO.N,LED2*%
X150200000Y-105100000D03*
X152100000Y-95900000D03*
%TO.N,LED1*%
X149200000Y-105200000D03*
X152000000Y-94300000D03*
%TD*%
D23*
%TO.N,NRST*%
X166600000Y-113500000D02*
X166600000Y-117200000D01*
X159400000Y-106300000D02*
X166600000Y-113500000D01*
%TO.N,TIM2_CH2_LIGHT1*%
X125800000Y-95800000D02*
X125800000Y-95000000D01*
X142797240Y-98047240D02*
X128047240Y-98047240D01*
X128047240Y-98047240D02*
X125800000Y-95800000D01*
X145750000Y-101750000D02*
X145750000Y-101000000D01*
X145750000Y-101000000D02*
X142797240Y-98047240D01*
%TO.N,UART3_RX_HC05*%
X127750000Y-114500000D02*
X122000000Y-108750000D01*
X138300000Y-114500000D02*
X127750000Y-114500000D01*
%TO.N,USART2_HD_XL430*%
X141100000Y-116200000D02*
X129200000Y-116200000D01*
X144400000Y-112900000D02*
X141100000Y-116200000D01*
%TO.N,SPI_CS*%
X149200000Y-117800000D02*
X149700000Y-118300000D01*
X166400000Y-118300000D02*
X170800000Y-113900000D01*
X170800000Y-108700000D02*
X173500000Y-106000000D01*
X149700000Y-118300000D02*
X166400000Y-118300000D01*
X170800000Y-113900000D02*
X170800000Y-108700000D01*
%TO.N,SPI_DC*%
X168100000Y-120000000D02*
X173500000Y-114600000D01*
X151700000Y-120000000D02*
X168100000Y-120000000D01*
X151600000Y-119900000D02*
X151700000Y-120000000D01*
X173500000Y-114600000D02*
X173500000Y-111000000D01*
%TO.N,SPI_RST*%
X171200000Y-116334314D02*
X171200000Y-110800000D01*
X171200000Y-110800000D02*
X173500000Y-108500000D01*
X168134314Y-119400000D02*
X171200000Y-116334314D01*
X151648529Y-119100000D02*
X151948529Y-119400000D01*
X151500000Y-119100000D02*
X151648529Y-119100000D01*
X151948529Y-119400000D02*
X168134314Y-119400000D01*
%TO.N,SPI1_MOSI*%
X144170022Y-106753052D02*
X144523074Y-106400000D01*
X172750000Y-104250000D02*
X173500000Y-103500000D01*
X144523074Y-106400000D02*
X158451471Y-106400000D01*
X158451471Y-106400000D02*
X160601471Y-104250000D01*
X160601471Y-104250000D02*
X172750000Y-104250000D01*
%TO.N,SPI1_SCK*%
X172850000Y-101650000D02*
X173500000Y-101000000D01*
X143900000Y-106000000D02*
X157900000Y-106000000D01*
X162250000Y-101650000D02*
X172850000Y-101650000D01*
X157900000Y-106000000D02*
X162250000Y-101650000D01*
%TO.N,UART1_DEBUG_RX*%
X158851471Y-112100000D02*
X159751471Y-113000000D01*
X143499999Y-108099999D02*
X147500000Y-112100000D01*
X143324389Y-108099999D02*
X143499999Y-108099999D01*
X159751471Y-113000000D02*
X161300000Y-113000000D01*
X147500000Y-112100000D02*
X158851471Y-112100000D01*
%TO.N,UART1_DEBUG_TX*%
X148231374Y-111700000D02*
X159300000Y-111700000D01*
X144004446Y-107473072D02*
X148231374Y-111700000D01*
X159300000Y-111700000D02*
X160000000Y-112400000D01*
X143821345Y-107473072D02*
X144004446Y-107473072D01*
%TO.N,LED3*%
X152100000Y-97500000D02*
X151200000Y-98400000D01*
X151200000Y-98400000D02*
X151200000Y-105200000D01*
%TO.N,LED2*%
X150200000Y-105100000D02*
X150550000Y-104750000D01*
X150550000Y-104750000D02*
X150550000Y-97450000D01*
X150550000Y-97450000D02*
X152100000Y-95900000D01*
%TO.N,LED1*%
X149200000Y-97100000D02*
X152000000Y-94300000D01*
X149200000Y-105200000D02*
X149200000Y-97100000D01*
%TD*%
%TA.AperFunction,Conductor*%
%TO.N,GND*%
G36*
X173002702Y-82000617D02*
G01*
X173386771Y-82017386D01*
X173397506Y-82018326D01*
X173775971Y-82068152D01*
X173786597Y-82070025D01*
X174159284Y-82152648D01*
X174169710Y-82155442D01*
X174533765Y-82270227D01*
X174543911Y-82273920D01*
X174896578Y-82420000D01*
X174906369Y-82424566D01*
X175244942Y-82600816D01*
X175254310Y-82606224D01*
X175576244Y-82811318D01*
X175585105Y-82817523D01*
X175887930Y-83049889D01*
X175896217Y-83056843D01*
X176177635Y-83314715D01*
X176185284Y-83322364D01*
X176443156Y-83603782D01*
X176450110Y-83612069D01*
X176682476Y-83914894D01*
X176688681Y-83923755D01*
X176893775Y-84245689D01*
X176899183Y-84255057D01*
X177075430Y-84593623D01*
X177080002Y-84603427D01*
X177226075Y-84956078D01*
X177229775Y-84966244D01*
X177344554Y-85330278D01*
X177347354Y-85340727D01*
X177429971Y-85713389D01*
X177431849Y-85724042D01*
X177481671Y-86102473D01*
X177482614Y-86113249D01*
X177499382Y-86497297D01*
X177499500Y-86502706D01*
X177499500Y-131997293D01*
X177499382Y-132002702D01*
X177482614Y-132386750D01*
X177481671Y-132397526D01*
X177431849Y-132775957D01*
X177429971Y-132786610D01*
X177347354Y-133159272D01*
X177344554Y-133169721D01*
X177229775Y-133533755D01*
X177226075Y-133543921D01*
X177080002Y-133896572D01*
X177075430Y-133906376D01*
X176899183Y-134244942D01*
X176893775Y-134254310D01*
X176688681Y-134576244D01*
X176682476Y-134585105D01*
X176450110Y-134887930D01*
X176443156Y-134896217D01*
X176185284Y-135177635D01*
X176177635Y-135185284D01*
X175896217Y-135443156D01*
X175887930Y-135450110D01*
X175585105Y-135682476D01*
X175576244Y-135688681D01*
X175254310Y-135893775D01*
X175244942Y-135899183D01*
X174906376Y-136075430D01*
X174896572Y-136080002D01*
X174543921Y-136226075D01*
X174533755Y-136229775D01*
X174169721Y-136344554D01*
X174159272Y-136347354D01*
X173786610Y-136429971D01*
X173775957Y-136431849D01*
X173397526Y-136481671D01*
X173386750Y-136482614D01*
X173002703Y-136499382D01*
X172997294Y-136499500D01*
X123002706Y-136499500D01*
X122997297Y-136499382D01*
X122613249Y-136482614D01*
X122602473Y-136481671D01*
X122224042Y-136431849D01*
X122213389Y-136429971D01*
X121840727Y-136347354D01*
X121830278Y-136344554D01*
X121466244Y-136229775D01*
X121456078Y-136226075D01*
X121103427Y-136080002D01*
X121093623Y-136075430D01*
X120755057Y-135899183D01*
X120745689Y-135893775D01*
X120423755Y-135688681D01*
X120414894Y-135682476D01*
X120112069Y-135450110D01*
X120103782Y-135443156D01*
X119822364Y-135185284D01*
X119814715Y-135177635D01*
X119556843Y-134896217D01*
X119549889Y-134887930D01*
X119493921Y-134814991D01*
X119317523Y-134585105D01*
X119311318Y-134576244D01*
X119106224Y-134254310D01*
X119100816Y-134244942D01*
X119083408Y-134211502D01*
X118924566Y-133906369D01*
X118919997Y-133896572D01*
X118773920Y-133543911D01*
X118770224Y-133533755D01*
X118655442Y-133169710D01*
X118652648Y-133159284D01*
X118570025Y-132786597D01*
X118568152Y-132775971D01*
X118518326Y-132397506D01*
X118517386Y-132386771D01*
X118500618Y-132002702D01*
X118500500Y-131997293D01*
X118500500Y-131818234D01*
X119300000Y-131818234D01*
X119300000Y-132181765D01*
X119335632Y-132543556D01*
X119406550Y-132900090D01*
X119406553Y-132900101D01*
X119512086Y-133247997D01*
X119651207Y-133583864D01*
X119651209Y-133583869D01*
X119822570Y-133904462D01*
X119822581Y-133904480D01*
X120024551Y-134206750D01*
X120211678Y-134434765D01*
X120211679Y-134434766D01*
X121705747Y-132940697D01*
X121779588Y-133042330D01*
X121957670Y-133220412D01*
X122059301Y-133294251D01*
X120565232Y-134788319D01*
X120565233Y-134788320D01*
X120793249Y-134975448D01*
X121095519Y-135177418D01*
X121095537Y-135177429D01*
X121416130Y-135348790D01*
X121416135Y-135348792D01*
X121752002Y-135487913D01*
X122099898Y-135593446D01*
X122099909Y-135593449D01*
X122456443Y-135664367D01*
X122818234Y-135700000D01*
X123181766Y-135700000D01*
X123543556Y-135664367D01*
X123900090Y-135593449D01*
X123900101Y-135593446D01*
X124247997Y-135487913D01*
X124583864Y-135348792D01*
X124583869Y-135348790D01*
X124904462Y-135177429D01*
X124904480Y-135177418D01*
X125206736Y-134975457D01*
X125206750Y-134975447D01*
X125434765Y-134788320D01*
X125434766Y-134788319D01*
X123940698Y-133294251D01*
X124042330Y-133220412D01*
X124220412Y-133042330D01*
X124294251Y-132940698D01*
X125788319Y-134434766D01*
X125788320Y-134434765D01*
X125975447Y-134206750D01*
X125975457Y-134206736D01*
X126177418Y-133904480D01*
X126177429Y-133904462D01*
X126348790Y-133583869D01*
X126348792Y-133583864D01*
X126487913Y-133247997D01*
X126593446Y-132900101D01*
X126593449Y-132900090D01*
X126664367Y-132543556D01*
X126700000Y-132181765D01*
X126700000Y-131881995D01*
X137299500Y-131881995D01*
X137299500Y-132118004D01*
X137299501Y-132118020D01*
X137330306Y-132352010D01*
X137391394Y-132579993D01*
X137481714Y-132798045D01*
X137481719Y-132798056D01*
X137505118Y-132838583D01*
X137599727Y-133002450D01*
X137599729Y-133002453D01*
X137599730Y-133002454D01*
X137743406Y-133189697D01*
X137743412Y-133189704D01*
X137910295Y-133356587D01*
X137910302Y-133356593D01*
X138020306Y-133441001D01*
X138097550Y-133500273D01*
X138220808Y-133571436D01*
X138301943Y-133618280D01*
X138301948Y-133618282D01*
X138301951Y-133618284D01*
X138520007Y-133708606D01*
X138747986Y-133769693D01*
X138981989Y-133800500D01*
X138981996Y-133800500D01*
X139218004Y-133800500D01*
X139218011Y-133800500D01*
X139452014Y-133769693D01*
X139679993Y-133708606D01*
X139898049Y-133618284D01*
X140102450Y-133500273D01*
X140289699Y-133356592D01*
X140456592Y-133189699D01*
X140600273Y-133002450D01*
X140718284Y-132798049D01*
X140808606Y-132579993D01*
X140869693Y-132352014D01*
X140900500Y-132118011D01*
X140900500Y-131888549D01*
X142099500Y-131888549D01*
X142099500Y-132111450D01*
X142099501Y-132111466D01*
X142128594Y-132332452D01*
X142128595Y-132332457D01*
X142128596Y-132332463D01*
X142183388Y-132536951D01*
X142186290Y-132547780D01*
X142186293Y-132547790D01*
X142271593Y-132753722D01*
X142271595Y-132753726D01*
X142383052Y-132946774D01*
X142383057Y-132946780D01*
X142383058Y-132946782D01*
X142518751Y-133123622D01*
X142518757Y-133123629D01*
X142676370Y-133281242D01*
X142676377Y-133281248D01*
X142774568Y-133356592D01*
X142853226Y-133416948D01*
X143046274Y-133528405D01*
X143252219Y-133613710D01*
X143467537Y-133671404D01*
X143688543Y-133700500D01*
X143688550Y-133700500D01*
X143911450Y-133700500D01*
X143911457Y-133700500D01*
X144132463Y-133671404D01*
X144347781Y-133613710D01*
X144553726Y-133528405D01*
X144746774Y-133416948D01*
X144923624Y-133281247D01*
X145081247Y-133123624D01*
X145216948Y-132946774D01*
X145328405Y-132753726D01*
X145413710Y-132547781D01*
X145471404Y-132332463D01*
X145500500Y-132111457D01*
X145500500Y-131888549D01*
X146799500Y-131888549D01*
X146799500Y-132111450D01*
X146799501Y-132111466D01*
X146828594Y-132332452D01*
X146828595Y-132332457D01*
X146828596Y-132332463D01*
X146883388Y-132536951D01*
X146886290Y-132547780D01*
X146886293Y-132547790D01*
X146971593Y-132753722D01*
X146971595Y-132753726D01*
X147083052Y-132946774D01*
X147083057Y-132946780D01*
X147083058Y-132946782D01*
X147218751Y-133123622D01*
X147218757Y-133123629D01*
X147376370Y-133281242D01*
X147376377Y-133281248D01*
X147474568Y-133356592D01*
X147553226Y-133416948D01*
X147746274Y-133528405D01*
X147952219Y-133613710D01*
X148167537Y-133671404D01*
X148388543Y-133700500D01*
X148388550Y-133700500D01*
X148611450Y-133700500D01*
X148611457Y-133700500D01*
X148832463Y-133671404D01*
X149047781Y-133613710D01*
X149253726Y-133528405D01*
X149446774Y-133416948D01*
X149623624Y-133281247D01*
X149781247Y-133123624D01*
X149916948Y-132946774D01*
X150028405Y-132753726D01*
X150113710Y-132547781D01*
X150171404Y-132332463D01*
X150200500Y-132111457D01*
X150200500Y-131888543D01*
X150191510Y-131820259D01*
X152599500Y-131820259D01*
X152599500Y-132179740D01*
X152639746Y-132536935D01*
X152639748Y-132536951D01*
X152719737Y-132887407D01*
X152719741Y-132887419D01*
X152838465Y-133226711D01*
X152994432Y-133550579D01*
X153036974Y-133618284D01*
X153185685Y-133854956D01*
X153409812Y-134136003D01*
X153663997Y-134390188D01*
X153945044Y-134614315D01*
X154249418Y-134805566D01*
X154573292Y-134961536D01*
X154828119Y-135050703D01*
X154912580Y-135080258D01*
X154912592Y-135080262D01*
X155263052Y-135160252D01*
X155620260Y-135200499D01*
X155620261Y-135200500D01*
X155620264Y-135200500D01*
X155979739Y-135200500D01*
X155979739Y-135200499D01*
X156336948Y-135160252D01*
X156687408Y-135080262D01*
X157026708Y-134961536D01*
X157350582Y-134805566D01*
X157654956Y-134614315D01*
X157936003Y-134390188D01*
X158190188Y-134136003D01*
X158414315Y-133854956D01*
X158605566Y-133550582D01*
X158761536Y-133226708D01*
X158880262Y-132887408D01*
X158960252Y-132536948D01*
X159000500Y-132179736D01*
X159000500Y-131820264D01*
X158960252Y-131463052D01*
X158880262Y-131112592D01*
X158761536Y-130773292D01*
X158669921Y-130583052D01*
X158620368Y-130480154D01*
X158605567Y-130449420D01*
X158592462Y-130428563D01*
X159500000Y-130428563D01*
X159500000Y-131750000D01*
X160763498Y-131750000D01*
X160750000Y-131852527D01*
X160750000Y-132147473D01*
X160763498Y-132250000D01*
X159500000Y-132250000D01*
X159500000Y-133571436D01*
X159515300Y-133785362D01*
X159576109Y-134064895D01*
X159676091Y-134332958D01*
X159813191Y-134584038D01*
X159813192Y-134584039D01*
X159984639Y-134813065D01*
X159984649Y-134813077D01*
X160186922Y-135015350D01*
X160186934Y-135015360D01*
X160415960Y-135186807D01*
X160415961Y-135186808D01*
X160667042Y-135323908D01*
X160667041Y-135323908D01*
X160935104Y-135423890D01*
X161214637Y-135484699D01*
X161428563Y-135499999D01*
X161428566Y-135500000D01*
X162750000Y-135500000D01*
X162750000Y-134236502D01*
X162852527Y-134250000D01*
X163147473Y-134250000D01*
X163250000Y-134236502D01*
X163250000Y-135500000D01*
X164571434Y-135500000D01*
X164571436Y-135499999D01*
X164785362Y-135484699D01*
X165064895Y-135423890D01*
X165332958Y-135323908D01*
X165584038Y-135186808D01*
X165584039Y-135186807D01*
X165813065Y-135015360D01*
X165813077Y-135015350D01*
X166015350Y-134813077D01*
X166015366Y-134813059D01*
X166126056Y-134665195D01*
X166126056Y-134665194D01*
X166186807Y-134584039D01*
X166186808Y-134584038D01*
X166323908Y-134332958D01*
X166423890Y-134064895D01*
X166484699Y-133785362D01*
X166499999Y-133571436D01*
X166500000Y-133571434D01*
X166500000Y-132250000D01*
X165236502Y-132250000D01*
X165250000Y-132147473D01*
X165250000Y-131852527D01*
X165245485Y-131818234D01*
X169300000Y-131818234D01*
X169300000Y-132181765D01*
X169335632Y-132543556D01*
X169406550Y-132900090D01*
X169406553Y-132900101D01*
X169512086Y-133247997D01*
X169651207Y-133583864D01*
X169651209Y-133583869D01*
X169822570Y-133904462D01*
X169822581Y-133904480D01*
X170024551Y-134206750D01*
X170211678Y-134434765D01*
X170211679Y-134434766D01*
X171705747Y-132940697D01*
X171779588Y-133042330D01*
X171957670Y-133220412D01*
X172059301Y-133294251D01*
X170565232Y-134788319D01*
X170565233Y-134788320D01*
X170793249Y-134975448D01*
X171095519Y-135177418D01*
X171095537Y-135177429D01*
X171416130Y-135348790D01*
X171416135Y-135348792D01*
X171752002Y-135487913D01*
X172099898Y-135593446D01*
X172099909Y-135593449D01*
X172456443Y-135664367D01*
X172818234Y-135700000D01*
X173181766Y-135700000D01*
X173543556Y-135664367D01*
X173900090Y-135593449D01*
X173900101Y-135593446D01*
X174247997Y-135487913D01*
X174583864Y-135348792D01*
X174583869Y-135348790D01*
X174904462Y-135177429D01*
X174904480Y-135177418D01*
X175206736Y-134975457D01*
X175206750Y-134975447D01*
X175434765Y-134788320D01*
X175434766Y-134788319D01*
X173940698Y-133294251D01*
X174042330Y-133220412D01*
X174220412Y-133042330D01*
X174294251Y-132940698D01*
X175788319Y-134434766D01*
X175788320Y-134434765D01*
X175975447Y-134206750D01*
X175975457Y-134206736D01*
X176177418Y-133904480D01*
X176177429Y-133904462D01*
X176348790Y-133583869D01*
X176348792Y-133583864D01*
X176487913Y-133247997D01*
X176593446Y-132900101D01*
X176593449Y-132900090D01*
X176664367Y-132543556D01*
X176700000Y-132181765D01*
X176700000Y-131818234D01*
X176664367Y-131456443D01*
X176593449Y-131099909D01*
X176593446Y-131099898D01*
X176487913Y-130752002D01*
X176348792Y-130416135D01*
X176348790Y-130416130D01*
X176177429Y-130095537D01*
X176177418Y-130095519D01*
X175975448Y-129793249D01*
X175788320Y-129565233D01*
X175788319Y-129565232D01*
X174294251Y-131059300D01*
X174220412Y-130957670D01*
X174042330Y-130779588D01*
X173940698Y-130705748D01*
X175434766Y-129211679D01*
X175434765Y-129211678D01*
X175206750Y-129024551D01*
X174904480Y-128822581D01*
X174904462Y-128822570D01*
X174583869Y-128651209D01*
X174583864Y-128651207D01*
X174247997Y-128512086D01*
X173900101Y-128406553D01*
X173900090Y-128406550D01*
X173543556Y-128335632D01*
X173181766Y-128300000D01*
X172818234Y-128300000D01*
X172456443Y-128335632D01*
X172099909Y-128406550D01*
X172099898Y-128406553D01*
X171752002Y-128512086D01*
X171416135Y-128651207D01*
X171416130Y-128651209D01*
X171095537Y-128822570D01*
X171095519Y-128822581D01*
X170793258Y-129024545D01*
X170793254Y-129024548D01*
X170565233Y-129211679D01*
X170565233Y-129211680D01*
X172059301Y-130705748D01*
X171957670Y-130779588D01*
X171779588Y-130957670D01*
X171705748Y-131059301D01*
X170211680Y-129565233D01*
X170211679Y-129565233D01*
X170024548Y-129793254D01*
X170024545Y-129793258D01*
X169822581Y-130095519D01*
X169822570Y-130095537D01*
X169651209Y-130416130D01*
X169651207Y-130416135D01*
X169512086Y-130752002D01*
X169406553Y-131099898D01*
X169406550Y-131099909D01*
X169335632Y-131456443D01*
X169300000Y-131818234D01*
X165245485Y-131818234D01*
X165236502Y-131750000D01*
X166500000Y-131750000D01*
X166500000Y-130428566D01*
X166499999Y-130428563D01*
X166484699Y-130214637D01*
X166423890Y-129935104D01*
X166323908Y-129667041D01*
X166186808Y-129415961D01*
X166186803Y-129415953D01*
X166126058Y-129334807D01*
X166126056Y-129334805D01*
X166015360Y-129186934D01*
X166015350Y-129186922D01*
X165813077Y-128984649D01*
X165813065Y-128984639D01*
X165584039Y-128813192D01*
X165584038Y-128813191D01*
X165332957Y-128676091D01*
X165332958Y-128676091D01*
X165064895Y-128576109D01*
X164785362Y-128515300D01*
X164571436Y-128500000D01*
X163250000Y-128500000D01*
X163250000Y-129763497D01*
X163147473Y-129750000D01*
X162852527Y-129750000D01*
X162750000Y-129763497D01*
X162750000Y-128500000D01*
X161428563Y-128500000D01*
X161214637Y-128515300D01*
X160935104Y-128576109D01*
X160667041Y-128676091D01*
X160415961Y-128813191D01*
X160415960Y-128813192D01*
X160186934Y-128984639D01*
X160186922Y-128984649D01*
X159984649Y-129186922D01*
X159984639Y-129186934D01*
X159813192Y-129415960D01*
X159813191Y-129415961D01*
X159676091Y-129667041D01*
X159576109Y-129935104D01*
X159515300Y-130214637D01*
X159500000Y-130428563D01*
X158592462Y-130428563D01*
X158584653Y-130416135D01*
X158414315Y-130145044D01*
X158190188Y-129863997D01*
X157936003Y-129609812D01*
X157654956Y-129385685D01*
X157350582Y-129194434D01*
X157350579Y-129194432D01*
X157026711Y-129038465D01*
X156687419Y-128919741D01*
X156687407Y-128919737D01*
X156336951Y-128839748D01*
X156336935Y-128839746D01*
X155979740Y-128799500D01*
X155979736Y-128799500D01*
X155620264Y-128799500D01*
X155620259Y-128799500D01*
X155263064Y-128839746D01*
X155263048Y-128839748D01*
X154912592Y-128919737D01*
X154912580Y-128919741D01*
X154573288Y-129038465D01*
X154249420Y-129194432D01*
X153945045Y-129385684D01*
X153663997Y-129609811D01*
X153409811Y-129863997D01*
X153185684Y-130145045D01*
X152994432Y-130449420D01*
X152838465Y-130773288D01*
X152719741Y-131112580D01*
X152719737Y-131112592D01*
X152639748Y-131463048D01*
X152639746Y-131463064D01*
X152599500Y-131820259D01*
X150191510Y-131820259D01*
X150171404Y-131667537D01*
X150113710Y-131452219D01*
X150028405Y-131246274D01*
X149916948Y-131053226D01*
X149781247Y-130876376D01*
X149781242Y-130876370D01*
X149623629Y-130718757D01*
X149623622Y-130718751D01*
X149446782Y-130583058D01*
X149446780Y-130583057D01*
X149446774Y-130583052D01*
X149253726Y-130471595D01*
X149253722Y-130471593D01*
X149047790Y-130386293D01*
X149047783Y-130386291D01*
X149047781Y-130386290D01*
X148832463Y-130328596D01*
X148832457Y-130328595D01*
X148832452Y-130328594D01*
X148611466Y-130299501D01*
X148611463Y-130299500D01*
X148611457Y-130299500D01*
X148388543Y-130299500D01*
X148388537Y-130299500D01*
X148388533Y-130299501D01*
X148167547Y-130328594D01*
X148167540Y-130328595D01*
X148167537Y-130328596D01*
X147969278Y-130381719D01*
X147952219Y-130386290D01*
X147952209Y-130386293D01*
X147746277Y-130471593D01*
X147746273Y-130471595D01*
X147553226Y-130583052D01*
X147553217Y-130583058D01*
X147376377Y-130718751D01*
X147376370Y-130718757D01*
X147218757Y-130876370D01*
X147218751Y-130876377D01*
X147083058Y-131053217D01*
X147083052Y-131053226D01*
X146971595Y-131246273D01*
X146971593Y-131246277D01*
X146886293Y-131452209D01*
X146886290Y-131452219D01*
X146828597Y-131667534D01*
X146828594Y-131667547D01*
X146799501Y-131888533D01*
X146799500Y-131888549D01*
X145500500Y-131888549D01*
X145500500Y-131888543D01*
X145471404Y-131667537D01*
X145413710Y-131452219D01*
X145328405Y-131246274D01*
X145216948Y-131053226D01*
X145081247Y-130876376D01*
X145081242Y-130876370D01*
X144923629Y-130718757D01*
X144923622Y-130718751D01*
X144746782Y-130583058D01*
X144746780Y-130583057D01*
X144746774Y-130583052D01*
X144553726Y-130471595D01*
X144553722Y-130471593D01*
X144347790Y-130386293D01*
X144347783Y-130386291D01*
X144347781Y-130386290D01*
X144132463Y-130328596D01*
X144132457Y-130328595D01*
X144132452Y-130328594D01*
X143911466Y-130299501D01*
X143911463Y-130299500D01*
X143911457Y-130299500D01*
X143688543Y-130299500D01*
X143688537Y-130299500D01*
X143688533Y-130299501D01*
X143467547Y-130328594D01*
X143467540Y-130328595D01*
X143467537Y-130328596D01*
X143269278Y-130381719D01*
X143252219Y-130386290D01*
X143252209Y-130386293D01*
X143046277Y-130471593D01*
X143046273Y-130471595D01*
X142853226Y-130583052D01*
X142853217Y-130583058D01*
X142676377Y-130718751D01*
X142676370Y-130718757D01*
X142518757Y-130876370D01*
X142518751Y-130876377D01*
X142383058Y-131053217D01*
X142383052Y-131053226D01*
X142271595Y-131246273D01*
X142271593Y-131246277D01*
X142186293Y-131452209D01*
X142186290Y-131452219D01*
X142128597Y-131667534D01*
X142128594Y-131667547D01*
X142099501Y-131888533D01*
X142099500Y-131888549D01*
X140900500Y-131888549D01*
X140900500Y-131881989D01*
X140869693Y-131647986D01*
X140808606Y-131420007D01*
X140718284Y-131201951D01*
X140718282Y-131201948D01*
X140718280Y-131201943D01*
X140676118Y-131128918D01*
X140600273Y-130997550D01*
X140507293Y-130876376D01*
X140456593Y-130810302D01*
X140456587Y-130810295D01*
X140289704Y-130643412D01*
X140289697Y-130643406D01*
X140102454Y-130499730D01*
X140102453Y-130499729D01*
X140102450Y-130499727D01*
X140015312Y-130449418D01*
X139898056Y-130381719D01*
X139898045Y-130381714D01*
X139679993Y-130291394D01*
X139452010Y-130230306D01*
X139218020Y-130199501D01*
X139218017Y-130199500D01*
X139218011Y-130199500D01*
X138981989Y-130199500D01*
X138981983Y-130199500D01*
X138981979Y-130199501D01*
X138747989Y-130230306D01*
X138520006Y-130291394D01*
X138301954Y-130381714D01*
X138301943Y-130381719D01*
X138097545Y-130499730D01*
X137910302Y-130643406D01*
X137910295Y-130643412D01*
X137743412Y-130810295D01*
X137743406Y-130810302D01*
X137599730Y-130997545D01*
X137481719Y-131201943D01*
X137481714Y-131201954D01*
X137391394Y-131420006D01*
X137330306Y-131647989D01*
X137299501Y-131881979D01*
X137299500Y-131881995D01*
X126700000Y-131881995D01*
X126700000Y-131818234D01*
X126664367Y-131456443D01*
X126593449Y-131099909D01*
X126593446Y-131099898D01*
X126487913Y-130752002D01*
X126348792Y-130416135D01*
X126348790Y-130416130D01*
X126177429Y-130095537D01*
X126177418Y-130095519D01*
X125975448Y-129793249D01*
X125788320Y-129565233D01*
X125788319Y-129565232D01*
X124294251Y-131059300D01*
X124220412Y-130957670D01*
X124042330Y-130779588D01*
X123940698Y-130705748D01*
X125434766Y-129211679D01*
X125434765Y-129211678D01*
X125206750Y-129024551D01*
X124904480Y-128822581D01*
X124904462Y-128822570D01*
X124583869Y-128651209D01*
X124583864Y-128651207D01*
X124247997Y-128512086D01*
X123900101Y-128406553D01*
X123900090Y-128406550D01*
X123543556Y-128335632D01*
X123181766Y-128300000D01*
X122818234Y-128300000D01*
X122456443Y-128335632D01*
X122099909Y-128406550D01*
X122099898Y-128406553D01*
X121752002Y-128512086D01*
X121416135Y-128651207D01*
X121416130Y-128651209D01*
X121095537Y-128822570D01*
X121095519Y-128822581D01*
X120793258Y-129024545D01*
X120793254Y-129024548D01*
X120565233Y-129211679D01*
X120565233Y-129211680D01*
X122059301Y-130705748D01*
X121957670Y-130779588D01*
X121779588Y-130957670D01*
X121705748Y-131059301D01*
X120211680Y-129565233D01*
X120211679Y-129565233D01*
X120024548Y-129793254D01*
X120024545Y-129793258D01*
X119822581Y-130095519D01*
X119822570Y-130095537D01*
X119651209Y-130416130D01*
X119651207Y-130416135D01*
X119512086Y-130752002D01*
X119406553Y-131099898D01*
X119406550Y-131099909D01*
X119335632Y-131456443D01*
X119300000Y-131818234D01*
X118500500Y-131818234D01*
X118500500Y-127611304D01*
X165999500Y-127611304D01*
X165999500Y-127788695D01*
X166034103Y-127962658D01*
X166034106Y-127962667D01*
X166101983Y-128126540D01*
X166101990Y-128126553D01*
X166200535Y-128274034D01*
X166200538Y-128274038D01*
X166325961Y-128399461D01*
X166325965Y-128399464D01*
X166473446Y-128498009D01*
X166473459Y-128498016D01*
X166596363Y-128548923D01*
X166637334Y-128565894D01*
X166637336Y-128565894D01*
X166637341Y-128565896D01*
X166811304Y-128600499D01*
X166811307Y-128600500D01*
X166811309Y-128600500D01*
X166988693Y-128600500D01*
X166988694Y-128600499D01*
X167046682Y-128588964D01*
X167162658Y-128565896D01*
X167162661Y-128565894D01*
X167162666Y-128565894D01*
X167326547Y-128498013D01*
X167474035Y-128399464D01*
X167599464Y-128274035D01*
X167698013Y-128126547D01*
X167765894Y-127962666D01*
X167800500Y-127788691D01*
X167800500Y-127611309D01*
X167800500Y-127611306D01*
X167800499Y-127611304D01*
X167765896Y-127437341D01*
X167765893Y-127437332D01*
X167698016Y-127273459D01*
X167698009Y-127273446D01*
X167599464Y-127125965D01*
X167599461Y-127125961D01*
X167474038Y-127000538D01*
X167474034Y-127000535D01*
X167326553Y-126901990D01*
X167326540Y-126901983D01*
X167162667Y-126834106D01*
X167162658Y-126834103D01*
X166988694Y-126799500D01*
X166988691Y-126799500D01*
X166811309Y-126799500D01*
X166811306Y-126799500D01*
X166637341Y-126834103D01*
X166637332Y-126834106D01*
X166473459Y-126901983D01*
X166473446Y-126901990D01*
X166325965Y-127000535D01*
X166325961Y-127000538D01*
X166200538Y-127125961D01*
X166200535Y-127125965D01*
X166101990Y-127273446D01*
X166101983Y-127273459D01*
X166034106Y-127437332D01*
X166034103Y-127437341D01*
X165999500Y-127611304D01*
X118500500Y-127611304D01*
X118500500Y-125511304D01*
X132149500Y-125511304D01*
X132149500Y-125688695D01*
X132184103Y-125862658D01*
X132184106Y-125862667D01*
X132251983Y-126026540D01*
X132251990Y-126026553D01*
X132350535Y-126174034D01*
X132350538Y-126174038D01*
X132475961Y-126299461D01*
X132475965Y-126299464D01*
X132623446Y-126398009D01*
X132623459Y-126398016D01*
X132727794Y-126441232D01*
X132787334Y-126465894D01*
X132787336Y-126465894D01*
X132787341Y-126465896D01*
X132961304Y-126500499D01*
X132961307Y-126500500D01*
X132961309Y-126500500D01*
X133138693Y-126500500D01*
X133138694Y-126500499D01*
X133198058Y-126488691D01*
X133312658Y-126465896D01*
X133312661Y-126465894D01*
X133312666Y-126465894D01*
X133476547Y-126398013D01*
X133606315Y-126311304D01*
X134499500Y-126311304D01*
X134499500Y-126488695D01*
X134534103Y-126662658D01*
X134534106Y-126662667D01*
X134601983Y-126826540D01*
X134601990Y-126826553D01*
X134700535Y-126974034D01*
X134700538Y-126974038D01*
X134825961Y-127099461D01*
X134825965Y-127099464D01*
X134973446Y-127198009D01*
X134973459Y-127198016D01*
X135096363Y-127248923D01*
X135137334Y-127265894D01*
X135137336Y-127265894D01*
X135137341Y-127265896D01*
X135311304Y-127300499D01*
X135311307Y-127300500D01*
X135311309Y-127300500D01*
X135488693Y-127300500D01*
X135488694Y-127300499D01*
X135546682Y-127288964D01*
X135662658Y-127265896D01*
X135662661Y-127265894D01*
X135662666Y-127265894D01*
X135826547Y-127198013D01*
X135974035Y-127099464D01*
X136099464Y-126974035D01*
X136198013Y-126826547D01*
X136265894Y-126662666D01*
X136300500Y-126488691D01*
X136300500Y-126311309D01*
X136300500Y-126311306D01*
X136300499Y-126311304D01*
X136265896Y-126137341D01*
X136265893Y-126137332D01*
X136198016Y-125973459D01*
X136198009Y-125973446D01*
X136099464Y-125825965D01*
X136099461Y-125825961D01*
X135974038Y-125700538D01*
X135974034Y-125700535D01*
X135826553Y-125601990D01*
X135826540Y-125601983D01*
X135662667Y-125534106D01*
X135662658Y-125534103D01*
X135642700Y-125530134D01*
X135488694Y-125499500D01*
X135488691Y-125499500D01*
X135311309Y-125499500D01*
X135311306Y-125499500D01*
X135137341Y-125534103D01*
X135137332Y-125534106D01*
X134973459Y-125601983D01*
X134973446Y-125601990D01*
X134825965Y-125700535D01*
X134825961Y-125700538D01*
X134700538Y-125825961D01*
X134700535Y-125825965D01*
X134601990Y-125973446D01*
X134601983Y-125973459D01*
X134534106Y-126137332D01*
X134534103Y-126137341D01*
X134499500Y-126311304D01*
X133606315Y-126311304D01*
X133624035Y-126299464D01*
X133624038Y-126299461D01*
X133705964Y-126217536D01*
X133749461Y-126174038D01*
X133749464Y-126174035D01*
X133848013Y-126026547D01*
X133915894Y-125862666D01*
X133923195Y-125825965D01*
X133950499Y-125688695D01*
X133950500Y-125688693D01*
X133950500Y-125511306D01*
X133950499Y-125511304D01*
X133931023Y-125413389D01*
X140299500Y-125413389D01*
X140299500Y-125586610D01*
X140325934Y-125753512D01*
X140326598Y-125757701D01*
X140380127Y-125922445D01*
X140458768Y-126076788D01*
X140560586Y-126216928D01*
X140683072Y-126339414D01*
X140823212Y-126441232D01*
X140977555Y-126519873D01*
X141142299Y-126573402D01*
X141313389Y-126600500D01*
X141313390Y-126600500D01*
X141486610Y-126600500D01*
X141486611Y-126600500D01*
X141657701Y-126573402D01*
X141822445Y-126519873D01*
X141976788Y-126441232D01*
X142116928Y-126339414D01*
X142239414Y-126216928D01*
X142341232Y-126076788D01*
X142419873Y-125922445D01*
X142447186Y-125838384D01*
X142486622Y-125780711D01*
X142550981Y-125753512D01*
X142619827Y-125765427D01*
X142671303Y-125812671D01*
X142683047Y-125838385D01*
X142735244Y-125999031D01*
X142828141Y-126181350D01*
X142828147Y-126181359D01*
X142860523Y-126225921D01*
X142860524Y-126225922D01*
X143457037Y-125629409D01*
X143474075Y-125692993D01*
X143539901Y-125807007D01*
X143632993Y-125900099D01*
X143747007Y-125965925D01*
X143810590Y-125982962D01*
X143214076Y-126579474D01*
X143258650Y-126611859D01*
X143440968Y-126704755D01*
X143635582Y-126767990D01*
X143837683Y-126800000D01*
X144042317Y-126800000D01*
X144244417Y-126767990D01*
X144439031Y-126704755D01*
X144621349Y-126611859D01*
X144665921Y-126579474D01*
X144069409Y-125982962D01*
X144132993Y-125965925D01*
X144247007Y-125900099D01*
X144340099Y-125807007D01*
X144405925Y-125692993D01*
X144422962Y-125629410D01*
X145019474Y-126225922D01*
X145019474Y-126225921D01*
X145051859Y-126181349D01*
X145144755Y-125999029D01*
X145196952Y-125838386D01*
X145236389Y-125780710D01*
X145300748Y-125753512D01*
X145369594Y-125765427D01*
X145421070Y-125812671D01*
X145432814Y-125838385D01*
X145460128Y-125922449D01*
X145513169Y-126026547D01*
X145538768Y-126076788D01*
X145640586Y-126216928D01*
X145763072Y-126339414D01*
X145903212Y-126441232D01*
X146057555Y-126519873D01*
X146222299Y-126573402D01*
X146393389Y-126600500D01*
X146393390Y-126600500D01*
X146566610Y-126600500D01*
X146566611Y-126600500D01*
X146737701Y-126573402D01*
X146902445Y-126519873D01*
X147056788Y-126441232D01*
X147196928Y-126339414D01*
X147319414Y-126216928D01*
X147421232Y-126076788D01*
X147499873Y-125922445D01*
X147553402Y-125757701D01*
X147580500Y-125586611D01*
X147580500Y-125413389D01*
X147553402Y-125242299D01*
X147499873Y-125077555D01*
X147421232Y-124923212D01*
X147319414Y-124783072D01*
X147196928Y-124660586D01*
X147056788Y-124558768D01*
X146902445Y-124480127D01*
X146737701Y-124426598D01*
X146737699Y-124426597D01*
X146737698Y-124426597D01*
X146606271Y-124405781D01*
X146566611Y-124399500D01*
X146393389Y-124399500D01*
X146353728Y-124405781D01*
X146222302Y-124426597D01*
X146057552Y-124480128D01*
X145903211Y-124558768D01*
X145823256Y-124616859D01*
X145763072Y-124660586D01*
X145763070Y-124660588D01*
X145763069Y-124660588D01*
X145640588Y-124783069D01*
X145640588Y-124783070D01*
X145640586Y-124783072D01*
X145614737Y-124818650D01*
X145538768Y-124923211D01*
X145460129Y-125077549D01*
X145432814Y-125161615D01*
X145393375Y-125219290D01*
X145329016Y-125246487D01*
X145260170Y-125234572D01*
X145208695Y-125187327D01*
X145196952Y-125161613D01*
X145144755Y-125000970D01*
X145051859Y-124818650D01*
X145019474Y-124774077D01*
X145019474Y-124774076D01*
X144422962Y-125370589D01*
X144405925Y-125307007D01*
X144340099Y-125192993D01*
X144247007Y-125099901D01*
X144132993Y-125034075D01*
X144069408Y-125017037D01*
X144665922Y-124420524D01*
X144665921Y-124420523D01*
X144621359Y-124388147D01*
X144621350Y-124388141D01*
X144439031Y-124295244D01*
X144244417Y-124232009D01*
X144042317Y-124200000D01*
X143837683Y-124200000D01*
X143635582Y-124232009D01*
X143440968Y-124295244D01*
X143258644Y-124388143D01*
X143214077Y-124420523D01*
X143214077Y-124420524D01*
X143810591Y-125017037D01*
X143747007Y-125034075D01*
X143632993Y-125099901D01*
X143539901Y-125192993D01*
X143474075Y-125307007D01*
X143457037Y-125370590D01*
X142860524Y-124774077D01*
X142860523Y-124774077D01*
X142828143Y-124818644D01*
X142735244Y-125000968D01*
X142683047Y-125161614D01*
X142643609Y-125219289D01*
X142579250Y-125246487D01*
X142510404Y-125234572D01*
X142458928Y-125187328D01*
X142447186Y-125161615D01*
X142419873Y-125077555D01*
X142341232Y-124923212D01*
X142239414Y-124783072D01*
X142116928Y-124660586D01*
X141976788Y-124558768D01*
X141976789Y-124558768D01*
X141976787Y-124558767D01*
X141822447Y-124480128D01*
X141822446Y-124480127D01*
X141822445Y-124480127D01*
X141657701Y-124426598D01*
X141657699Y-124426597D01*
X141657698Y-124426597D01*
X141526271Y-124405781D01*
X141486611Y-124399500D01*
X141313389Y-124399500D01*
X141273728Y-124405781D01*
X141142302Y-124426597D01*
X140977552Y-124480128D01*
X140823211Y-124558768D01*
X140743256Y-124616859D01*
X140683072Y-124660586D01*
X140683070Y-124660588D01*
X140683069Y-124660588D01*
X140560588Y-124783069D01*
X140560588Y-124783070D01*
X140560586Y-124783072D01*
X140534737Y-124818650D01*
X140458768Y-124923211D01*
X140380128Y-125077552D01*
X140326597Y-125242302D01*
X140299500Y-125413389D01*
X133931023Y-125413389D01*
X133915896Y-125337341D01*
X133915893Y-125337332D01*
X133848016Y-125173459D01*
X133848009Y-125173446D01*
X133749464Y-125025965D01*
X133749461Y-125025961D01*
X133624038Y-124900538D01*
X133624034Y-124900535D01*
X133476553Y-124801990D01*
X133476540Y-124801983D01*
X133312667Y-124734106D01*
X133312658Y-124734103D01*
X133138694Y-124699500D01*
X133138691Y-124699500D01*
X132961309Y-124699500D01*
X132961306Y-124699500D01*
X132787341Y-124734103D01*
X132787332Y-124734106D01*
X132623459Y-124801983D01*
X132623446Y-124801990D01*
X132475965Y-124900535D01*
X132475961Y-124900538D01*
X132350538Y-125025961D01*
X132350535Y-125025965D01*
X132251990Y-125173446D01*
X132251983Y-125173459D01*
X132184106Y-125337332D01*
X132184103Y-125337341D01*
X132149500Y-125511304D01*
X118500500Y-125511304D01*
X118500500Y-123143982D01*
X173974500Y-123143982D01*
X173974500Y-123256018D01*
X174003497Y-123364237D01*
X174059515Y-123461263D01*
X174138737Y-123540485D01*
X174235763Y-123596503D01*
X174343982Y-123625500D01*
X174343984Y-123625500D01*
X174456016Y-123625500D01*
X174456018Y-123625500D01*
X174564237Y-123596503D01*
X174661263Y-123540485D01*
X174740485Y-123461263D01*
X174796503Y-123364237D01*
X174825500Y-123256018D01*
X174825500Y-123143982D01*
X174796503Y-123035763D01*
X174740485Y-122938737D01*
X174661263Y-122859515D01*
X174564237Y-122803497D01*
X174456018Y-122774500D01*
X174343982Y-122774500D01*
X174235763Y-122803497D01*
X174235760Y-122803498D01*
X174138740Y-122859513D01*
X174138734Y-122859517D01*
X174059517Y-122938734D01*
X174059513Y-122938740D01*
X174003498Y-123035760D01*
X174003497Y-123035763D01*
X173974500Y-123143982D01*
X118500500Y-123143982D01*
X118500500Y-120550013D01*
X127725000Y-120550013D01*
X127725000Y-120950000D01*
X128795854Y-120950000D01*
X128757370Y-121016657D01*
X128725000Y-121137465D01*
X128725000Y-121262535D01*
X128757370Y-121383343D01*
X128795854Y-121450000D01*
X127725001Y-121450000D01*
X127725001Y-121849986D01*
X127735494Y-121952697D01*
X127790641Y-122119119D01*
X127790643Y-122119124D01*
X127882684Y-122268345D01*
X128006654Y-122392315D01*
X128155875Y-122484356D01*
X128155880Y-122484358D01*
X128322302Y-122539505D01*
X128322309Y-122539506D01*
X128425019Y-122549999D01*
X128949999Y-122549999D01*
X128950000Y-122549998D01*
X128950000Y-121604145D01*
X129016657Y-121642630D01*
X129137465Y-121675000D01*
X129262535Y-121675000D01*
X129383343Y-121642630D01*
X129450000Y-121604145D01*
X129450000Y-122549999D01*
X129974972Y-122549999D01*
X129974986Y-122549998D01*
X130077697Y-122539505D01*
X130244119Y-122484358D01*
X130244124Y-122484356D01*
X130393345Y-122392315D01*
X130517315Y-122268345D01*
X130609356Y-122119124D01*
X130609358Y-122119119D01*
X130664505Y-121952697D01*
X130664506Y-121952690D01*
X130674999Y-121849986D01*
X130675000Y-121849973D01*
X130675000Y-121793982D01*
X135774500Y-121793982D01*
X135774500Y-121906018D01*
X135803497Y-122014237D01*
X135859515Y-122111263D01*
X135938737Y-122190485D01*
X136035763Y-122246503D01*
X136143982Y-122275500D01*
X136143984Y-122275500D01*
X136256016Y-122275500D01*
X136256018Y-122275500D01*
X136364237Y-122246503D01*
X136461263Y-122190485D01*
X136540485Y-122111263D01*
X136596503Y-122014237D01*
X136625500Y-121906018D01*
X136625500Y-121793982D01*
X136596503Y-121685763D01*
X136540485Y-121588737D01*
X136461263Y-121509515D01*
X136364237Y-121453497D01*
X136256018Y-121424500D01*
X136143982Y-121424500D01*
X136035763Y-121453497D01*
X136035760Y-121453498D01*
X135938740Y-121509513D01*
X135938734Y-121509517D01*
X135859517Y-121588734D01*
X135859513Y-121588740D01*
X135803498Y-121685760D01*
X135803497Y-121685763D01*
X135774500Y-121793982D01*
X130675000Y-121793982D01*
X130675000Y-121450000D01*
X129604146Y-121450000D01*
X129642630Y-121383343D01*
X129675000Y-121262535D01*
X129675000Y-121137465D01*
X129642630Y-121016657D01*
X129604146Y-120950000D01*
X130674999Y-120950000D01*
X130674999Y-120550028D01*
X130674998Y-120550013D01*
X130664505Y-120447302D01*
X130609358Y-120280880D01*
X130609356Y-120280875D01*
X130517315Y-120131654D01*
X130393345Y-120007684D01*
X130244124Y-119915643D01*
X130244119Y-119915641D01*
X130077697Y-119860494D01*
X130077692Y-119860493D01*
X130056226Y-119858300D01*
X129991536Y-119831901D01*
X129951386Y-119774719D01*
X129948525Y-119704908D01*
X129983861Y-119644633D01*
X129995938Y-119634631D01*
X130074501Y-119577553D01*
X130202553Y-119449501D01*
X130308996Y-119302994D01*
X130391211Y-119141639D01*
X130447171Y-118969409D01*
X130467867Y-118838740D01*
X130475500Y-118790551D01*
X130475500Y-118609448D01*
X130455711Y-118484511D01*
X130447171Y-118430591D01*
X130391211Y-118258361D01*
X130391211Y-118258360D01*
X130331150Y-118140486D01*
X130308996Y-118097006D01*
X130283027Y-118061263D01*
X130202558Y-117950505D01*
X130202554Y-117950500D01*
X130074499Y-117822445D01*
X130074494Y-117822441D01*
X129927997Y-117716006D01*
X129927996Y-117716005D01*
X129927994Y-117716004D01*
X129876300Y-117689664D01*
X129766639Y-117633788D01*
X129766636Y-117633787D01*
X129594410Y-117577829D01*
X129415551Y-117549500D01*
X129415546Y-117549500D01*
X128984454Y-117549500D01*
X128984449Y-117549500D01*
X128805589Y-117577829D01*
X128633363Y-117633787D01*
X128633360Y-117633788D01*
X128472002Y-117716006D01*
X128325505Y-117822441D01*
X128325500Y-117822445D01*
X128197445Y-117950500D01*
X128197441Y-117950505D01*
X128091006Y-118097002D01*
X128008788Y-118258360D01*
X128008787Y-118258363D01*
X127952829Y-118430589D01*
X127924500Y-118609448D01*
X127924500Y-118790551D01*
X127952829Y-118969410D01*
X128008787Y-119141636D01*
X128008788Y-119141639D01*
X128091006Y-119302997D01*
X128197441Y-119449494D01*
X128197445Y-119449499D01*
X128325500Y-119577554D01*
X128325505Y-119577558D01*
X128404051Y-119634625D01*
X128446717Y-119689954D01*
X128452696Y-119759568D01*
X128420091Y-119821363D01*
X128359252Y-119855720D01*
X128343769Y-119858301D01*
X128322302Y-119860494D01*
X128155880Y-119915641D01*
X128155875Y-119915643D01*
X128006654Y-120007684D01*
X127882684Y-120131654D01*
X127790643Y-120280875D01*
X127790641Y-120280880D01*
X127735494Y-120447302D01*
X127735493Y-120447309D01*
X127725000Y-120550013D01*
X118500500Y-120550013D01*
X118500500Y-118095730D01*
X120824500Y-118095730D01*
X120824500Y-119404269D01*
X120827353Y-119434699D01*
X120827353Y-119434701D01*
X120870855Y-119559019D01*
X120872207Y-119562882D01*
X120952850Y-119672150D01*
X121062118Y-119752793D01*
X121081480Y-119759568D01*
X121190299Y-119797646D01*
X121220730Y-119800500D01*
X121220734Y-119800500D01*
X122779270Y-119800500D01*
X122809699Y-119797646D01*
X122809701Y-119797646D01*
X122899535Y-119766211D01*
X122937882Y-119752793D01*
X123047150Y-119672150D01*
X123127793Y-119562882D01*
X123167467Y-119449501D01*
X123172646Y-119434701D01*
X123172646Y-119434699D01*
X123175500Y-119404269D01*
X123175500Y-118095730D01*
X123172646Y-118065300D01*
X123172646Y-118065298D01*
X123132477Y-117950505D01*
X123127793Y-117937118D01*
X123047150Y-117827850D01*
X122937882Y-117747207D01*
X122937880Y-117747206D01*
X122809700Y-117702353D01*
X122779270Y-117699500D01*
X122779266Y-117699500D01*
X121220734Y-117699500D01*
X121220730Y-117699500D01*
X121190300Y-117702353D01*
X121190298Y-117702353D01*
X121062119Y-117747206D01*
X121062117Y-117747207D01*
X120952850Y-117827850D01*
X120872207Y-117937117D01*
X120872206Y-117937119D01*
X120827353Y-118065298D01*
X120827353Y-118065300D01*
X120824500Y-118095730D01*
X118500500Y-118095730D01*
X118500500Y-113500000D01*
X120547769Y-113500000D01*
X121595854Y-113500000D01*
X121557370Y-113566657D01*
X121525000Y-113687465D01*
X121525000Y-113812535D01*
X121557370Y-113933343D01*
X121595854Y-114000000D01*
X120547769Y-114000000D01*
X120558242Y-114066126D01*
X120558242Y-114066129D01*
X120623904Y-114268217D01*
X120720379Y-114457557D01*
X120845272Y-114629459D01*
X120845276Y-114629464D01*
X120995535Y-114779723D01*
X120995540Y-114779727D01*
X121167442Y-114904620D01*
X121357511Y-115001466D01*
X121408307Y-115049441D01*
X121425102Y-115117262D01*
X121402565Y-115183397D01*
X121357512Y-115222435D01*
X121272004Y-115266004D01*
X121125505Y-115372441D01*
X121125500Y-115372445D01*
X120997445Y-115500500D01*
X120997441Y-115500505D01*
X120891006Y-115647002D01*
X120808788Y-115808360D01*
X120808787Y-115808363D01*
X120752829Y-115980589D01*
X120724500Y-116159448D01*
X120724500Y-116340551D01*
X120752829Y-116519410D01*
X120808787Y-116691636D01*
X120808788Y-116691639D01*
X120891006Y-116852997D01*
X120997441Y-116999494D01*
X120997445Y-116999499D01*
X121125500Y-117127554D01*
X121125505Y-117127558D01*
X121239156Y-117210129D01*
X121272006Y-117233996D01*
X121377484Y-117287740D01*
X121433360Y-117316211D01*
X121433363Y-117316212D01*
X121519476Y-117344191D01*
X121605591Y-117372171D01*
X121688429Y-117385291D01*
X121784449Y-117400500D01*
X121784454Y-117400500D01*
X122215551Y-117400500D01*
X122302259Y-117386765D01*
X122394409Y-117372171D01*
X122566639Y-117316211D01*
X122727994Y-117233996D01*
X122874501Y-117127553D01*
X123002553Y-116999501D01*
X123108996Y-116852994D01*
X123191211Y-116691639D01*
X123247171Y-116519409D01*
X123268537Y-116384511D01*
X123275500Y-116340551D01*
X123275500Y-116159448D01*
X123267643Y-116109841D01*
X123265535Y-116096530D01*
X128024500Y-116096530D01*
X128024500Y-116303469D01*
X128064868Y-116506412D01*
X128064870Y-116506420D01*
X128144058Y-116697596D01*
X128259024Y-116869657D01*
X128405342Y-117015975D01*
X128405345Y-117015977D01*
X128577402Y-117130941D01*
X128768580Y-117210130D01*
X128966653Y-117249529D01*
X128971530Y-117250499D01*
X128971534Y-117250500D01*
X128971535Y-117250500D01*
X129428466Y-117250500D01*
X129428467Y-117250499D01*
X129631420Y-117210130D01*
X129822598Y-117130941D01*
X129994655Y-117015977D01*
X130140977Y-116869655D01*
X130255941Y-116697598D01*
X130305875Y-116577046D01*
X130349716Y-116522644D01*
X130416010Y-116500579D01*
X130420436Y-116500500D01*
X141139560Y-116500500D01*
X141139562Y-116500500D01*
X141215989Y-116480021D01*
X141284511Y-116440460D01*
X141340460Y-116384511D01*
X142480989Y-115243982D01*
X151574500Y-115243982D01*
X151574500Y-115356018D01*
X151603497Y-115464237D01*
X151659515Y-115561263D01*
X151738737Y-115640485D01*
X151835763Y-115696503D01*
X151943982Y-115725500D01*
X151943984Y-115725500D01*
X152056016Y-115725500D01*
X152056018Y-115725500D01*
X152164237Y-115696503D01*
X152261263Y-115640485D01*
X152340485Y-115561263D01*
X152396503Y-115464237D01*
X152425500Y-115356018D01*
X152425500Y-115243982D01*
X152396503Y-115135763D01*
X152340485Y-115038737D01*
X152261263Y-114959515D01*
X152164237Y-114903497D01*
X152056018Y-114874500D01*
X151943982Y-114874500D01*
X151835763Y-114903497D01*
X151835760Y-114903498D01*
X151738740Y-114959513D01*
X151738734Y-114959517D01*
X151659517Y-115038734D01*
X151659513Y-115038740D01*
X151603498Y-115135760D01*
X151603497Y-115135763D01*
X151574500Y-115243982D01*
X142480989Y-115243982D01*
X144363152Y-113361819D01*
X144424475Y-113328334D01*
X144450833Y-113325500D01*
X144456016Y-113325500D01*
X144456018Y-113325500D01*
X144564237Y-113296503D01*
X144661263Y-113240485D01*
X144740485Y-113161263D01*
X144796503Y-113064237D01*
X144825500Y-112956018D01*
X144825500Y-112843982D01*
X144796503Y-112735763D01*
X144740485Y-112638737D01*
X144661263Y-112559515D01*
X144564237Y-112503497D01*
X144456018Y-112474500D01*
X144343982Y-112474500D01*
X144235763Y-112503497D01*
X144235760Y-112503498D01*
X144138740Y-112559513D01*
X144138734Y-112559517D01*
X144059517Y-112638734D01*
X144059513Y-112638740D01*
X144003498Y-112735760D01*
X144003497Y-112735763D01*
X143974500Y-112843982D01*
X143974500Y-112849167D01*
X143954815Y-112916206D01*
X143938181Y-112936848D01*
X141011848Y-115863181D01*
X140950525Y-115896666D01*
X140924167Y-115899500D01*
X130420436Y-115899500D01*
X130353397Y-115879815D01*
X130307642Y-115827011D01*
X130305875Y-115822953D01*
X130299831Y-115808361D01*
X130255941Y-115702402D01*
X130140977Y-115530345D01*
X130140975Y-115530342D01*
X129994657Y-115384024D01*
X129908626Y-115326541D01*
X129822598Y-115269059D01*
X129815220Y-115266003D01*
X129631420Y-115189870D01*
X129631412Y-115189868D01*
X129428469Y-115149500D01*
X129428465Y-115149500D01*
X128971535Y-115149500D01*
X128971530Y-115149500D01*
X128768587Y-115189868D01*
X128768579Y-115189870D01*
X128577403Y-115269058D01*
X128405342Y-115384024D01*
X128259024Y-115530342D01*
X128144058Y-115702403D01*
X128064870Y-115893579D01*
X128064868Y-115893587D01*
X128024500Y-116096530D01*
X123265535Y-116096530D01*
X123247171Y-115980589D01*
X123191212Y-115808363D01*
X123191211Y-115808360D01*
X123137222Y-115702403D01*
X123108996Y-115647006D01*
X123046702Y-115561265D01*
X123002558Y-115500505D01*
X123002554Y-115500500D01*
X122874499Y-115372445D01*
X122874494Y-115372441D01*
X122727993Y-115266003D01*
X122727992Y-115266002D01*
X122642488Y-115222435D01*
X122591692Y-115174461D01*
X122574897Y-115106640D01*
X122597435Y-115040505D01*
X122642488Y-115001466D01*
X122832558Y-114904620D01*
X123004459Y-114779727D01*
X123004464Y-114779723D01*
X123154723Y-114629464D01*
X123154727Y-114629459D01*
X123279620Y-114457557D01*
X123376095Y-114268217D01*
X123441757Y-114066129D01*
X123441757Y-114066126D01*
X123452231Y-114000000D01*
X122404146Y-114000000D01*
X122442630Y-113933343D01*
X122475000Y-113812535D01*
X122475000Y-113687465D01*
X122442630Y-113566657D01*
X122404146Y-113500000D01*
X123452231Y-113500000D01*
X123441757Y-113433873D01*
X123441757Y-113433870D01*
X123376095Y-113231782D01*
X123279620Y-113042442D01*
X123154727Y-112870540D01*
X123154723Y-112870535D01*
X123004464Y-112720276D01*
X123004459Y-112720272D01*
X122832557Y-112595379D01*
X122643216Y-112498904D01*
X122521144Y-112459240D01*
X122463468Y-112419802D01*
X122436270Y-112355444D01*
X122448185Y-112286597D01*
X122495429Y-112235122D01*
X122512006Y-112226749D01*
X122622598Y-112180941D01*
X122794655Y-112065977D01*
X122940977Y-111919655D01*
X123055941Y-111747598D01*
X123135130Y-111556420D01*
X123175500Y-111353465D01*
X123175500Y-111146535D01*
X123135130Y-110943580D01*
X123055941Y-110752402D01*
X122940977Y-110580345D01*
X122940975Y-110580342D01*
X122794657Y-110434024D01*
X122685755Y-110361259D01*
X122622598Y-110319059D01*
X122431420Y-110239870D01*
X122431412Y-110239868D01*
X122228469Y-110199500D01*
X122228465Y-110199500D01*
X121771535Y-110199500D01*
X121771530Y-110199500D01*
X121568587Y-110239868D01*
X121568579Y-110239870D01*
X121377403Y-110319058D01*
X121205342Y-110434024D01*
X121059024Y-110580342D01*
X120944058Y-110752403D01*
X120864870Y-110943579D01*
X120864868Y-110943587D01*
X120824500Y-111146530D01*
X120824500Y-111353469D01*
X120864868Y-111556412D01*
X120864870Y-111556420D01*
X120944058Y-111747596D01*
X121059024Y-111919657D01*
X121205342Y-112065975D01*
X121205345Y-112065977D01*
X121377402Y-112180941D01*
X121487990Y-112226748D01*
X121542393Y-112270589D01*
X121564458Y-112336883D01*
X121547179Y-112404582D01*
X121496042Y-112452193D01*
X121478856Y-112459240D01*
X121356781Y-112498905D01*
X121167442Y-112595379D01*
X120995540Y-112720272D01*
X120995535Y-112720276D01*
X120845276Y-112870535D01*
X120845272Y-112870540D01*
X120720379Y-113042442D01*
X120623904Y-113231782D01*
X120558242Y-113433870D01*
X120558242Y-113433873D01*
X120547769Y-113500000D01*
X118500500Y-113500000D01*
X118500500Y-108646530D01*
X120824500Y-108646530D01*
X120824500Y-108853469D01*
X120864868Y-109056412D01*
X120864870Y-109056420D01*
X120939155Y-109235760D01*
X120944059Y-109247598D01*
X120958019Y-109268491D01*
X121059024Y-109419657D01*
X121205342Y-109565975D01*
X121205345Y-109565977D01*
X121377402Y-109680941D01*
X121568580Y-109760130D01*
X121751431Y-109796501D01*
X121771530Y-109800499D01*
X121771534Y-109800500D01*
X121771535Y-109800500D01*
X122228466Y-109800500D01*
X122228467Y-109800499D01*
X122431420Y-109760130D01*
X122463582Y-109746807D01*
X122533048Y-109739338D01*
X122595528Y-109770611D01*
X122598716Y-109773687D01*
X127509540Y-114684511D01*
X127565489Y-114740460D01*
X127565491Y-114740461D01*
X127565495Y-114740464D01*
X127574937Y-114745915D01*
X127634011Y-114780021D01*
X127710438Y-114800500D01*
X137947390Y-114800500D01*
X138014429Y-114820185D01*
X138035071Y-114836819D01*
X138038737Y-114840485D01*
X138135763Y-114896503D01*
X138243982Y-114925500D01*
X138243984Y-114925500D01*
X138356016Y-114925500D01*
X138356018Y-114925500D01*
X138464237Y-114896503D01*
X138561263Y-114840485D01*
X138640485Y-114761263D01*
X138696503Y-114664237D01*
X138725500Y-114556018D01*
X138725500Y-114443982D01*
X138696503Y-114335763D01*
X138640485Y-114238737D01*
X138561263Y-114159515D01*
X138464237Y-114103497D01*
X138356018Y-114074500D01*
X138243982Y-114074500D01*
X138135763Y-114103497D01*
X138135760Y-114103498D01*
X138038740Y-114159513D01*
X138038734Y-114159517D01*
X138035071Y-114163181D01*
X137973748Y-114196666D01*
X137947390Y-114199500D01*
X127925833Y-114199500D01*
X127858794Y-114179815D01*
X127838152Y-114163181D01*
X126718953Y-113043982D01*
X141674500Y-113043982D01*
X141674500Y-113156018D01*
X141703497Y-113264237D01*
X141759515Y-113361263D01*
X141838737Y-113440485D01*
X141935763Y-113496503D01*
X142043982Y-113525500D01*
X142043984Y-113525500D01*
X142156016Y-113525500D01*
X142156018Y-113525500D01*
X142264237Y-113496503D01*
X142361263Y-113440485D01*
X142440485Y-113361263D01*
X142496503Y-113264237D01*
X142525500Y-113156018D01*
X142525500Y-113043982D01*
X142496503Y-112935763D01*
X142440485Y-112838737D01*
X142361263Y-112759515D01*
X142264237Y-112703497D01*
X142156018Y-112674500D01*
X142043982Y-112674500D01*
X141935763Y-112703497D01*
X141935760Y-112703498D01*
X141838740Y-112759513D01*
X141838734Y-112759517D01*
X141759517Y-112838734D01*
X141759513Y-112838740D01*
X141703498Y-112935760D01*
X141703497Y-112935763D01*
X141674500Y-113043982D01*
X126718953Y-113043982D01*
X124618953Y-110943982D01*
X140374500Y-110943982D01*
X140374500Y-111056018D01*
X140403497Y-111164237D01*
X140459515Y-111261263D01*
X140538737Y-111340485D01*
X140635763Y-111396503D01*
X140743982Y-111425500D01*
X140743984Y-111425500D01*
X140856016Y-111425500D01*
X140856018Y-111425500D01*
X140964237Y-111396503D01*
X141061263Y-111340485D01*
X141140485Y-111261263D01*
X141196503Y-111164237D01*
X141225500Y-111056018D01*
X141225500Y-110943982D01*
X141196503Y-110835763D01*
X141140485Y-110738737D01*
X141073274Y-110671526D01*
X141039789Y-110610203D01*
X141044773Y-110540511D01*
X141086645Y-110484578D01*
X141098956Y-110476458D01*
X141102297Y-110474529D01*
X141161263Y-110440485D01*
X141240485Y-110361263D01*
X141296503Y-110264237D01*
X141325500Y-110156018D01*
X141325500Y-110043982D01*
X141296503Y-109935763D01*
X141240485Y-109838737D01*
X141161263Y-109759515D01*
X141064237Y-109703497D01*
X140956018Y-109674500D01*
X140843982Y-109674500D01*
X140735763Y-109703497D01*
X140735760Y-109703498D01*
X140638740Y-109759513D01*
X140638734Y-109759517D01*
X140559517Y-109838734D01*
X140559513Y-109838740D01*
X140503498Y-109935760D01*
X140503497Y-109935763D01*
X140474500Y-110043982D01*
X140474500Y-110156018D01*
X140503497Y-110264237D01*
X140559515Y-110361263D01*
X140559517Y-110361265D01*
X140626725Y-110428473D01*
X140660210Y-110489796D01*
X140655226Y-110559488D01*
X140613354Y-110615421D01*
X140601045Y-110623540D01*
X140538743Y-110659511D01*
X140538734Y-110659517D01*
X140459517Y-110738734D01*
X140459513Y-110738740D01*
X140403498Y-110835760D01*
X140403497Y-110835763D01*
X140374500Y-110943982D01*
X124618953Y-110943982D01*
X123074477Y-109399506D01*
X123040992Y-109338183D01*
X123045976Y-109268491D01*
X123053753Y-109253329D01*
X123053072Y-109252965D01*
X123055935Y-109247605D01*
X123055941Y-109247598D01*
X123135130Y-109056420D01*
X123175500Y-108853465D01*
X123175500Y-108646535D01*
X123135130Y-108443580D01*
X123055941Y-108252402D01*
X122940977Y-108080345D01*
X122940975Y-108080342D01*
X122794657Y-107934024D01*
X122701238Y-107871604D01*
X122668924Y-107850013D01*
X127725000Y-107850013D01*
X127725000Y-108250000D01*
X128795854Y-108250000D01*
X128757370Y-108316657D01*
X128725000Y-108437465D01*
X128725000Y-108562535D01*
X128757370Y-108683343D01*
X128795854Y-108750000D01*
X127725001Y-108750000D01*
X127725001Y-109149986D01*
X127735494Y-109252697D01*
X127790641Y-109419119D01*
X127790643Y-109419124D01*
X127882684Y-109568345D01*
X128006654Y-109692315D01*
X128155875Y-109784356D01*
X128155880Y-109784358D01*
X128322302Y-109839505D01*
X128322309Y-109839506D01*
X128425019Y-109849999D01*
X128949999Y-109849999D01*
X128950000Y-109849998D01*
X128950000Y-108904145D01*
X129016657Y-108942630D01*
X129137465Y-108975000D01*
X129262535Y-108975000D01*
X129383343Y-108942630D01*
X129450000Y-108904145D01*
X129450000Y-109849999D01*
X129974972Y-109849999D01*
X129974986Y-109849998D01*
X130077697Y-109839505D01*
X130244119Y-109784358D01*
X130244124Y-109784356D01*
X130393345Y-109692315D01*
X130517315Y-109568345D01*
X130609356Y-109419124D01*
X130609358Y-109419119D01*
X130634256Y-109343982D01*
X134874500Y-109343982D01*
X134874500Y-109456018D01*
X134889000Y-109510131D01*
X134903497Y-109564236D01*
X134903498Y-109564239D01*
X134905869Y-109568345D01*
X134959515Y-109661263D01*
X135038737Y-109740485D01*
X135135763Y-109796503D01*
X135243982Y-109825500D01*
X135243984Y-109825500D01*
X135356016Y-109825500D01*
X135356018Y-109825500D01*
X135464237Y-109796503D01*
X135561263Y-109740485D01*
X135640485Y-109661263D01*
X135696503Y-109564237D01*
X135725500Y-109456018D01*
X135725500Y-109343982D01*
X135696503Y-109235763D01*
X135640485Y-109138737D01*
X135561263Y-109059515D01*
X135464237Y-109003497D01*
X135356018Y-108974500D01*
X135243982Y-108974500D01*
X135135763Y-109003497D01*
X135135760Y-109003498D01*
X135038740Y-109059513D01*
X135038734Y-109059517D01*
X134959517Y-109138734D01*
X134959513Y-109138740D01*
X134903498Y-109235760D01*
X134903497Y-109235763D01*
X134874500Y-109343982D01*
X130634256Y-109343982D01*
X130649874Y-109296851D01*
X130664505Y-109252697D01*
X130664506Y-109252690D01*
X130674999Y-109149986D01*
X130675000Y-109149973D01*
X130675000Y-108750000D01*
X129604146Y-108750000D01*
X129642630Y-108683343D01*
X129675000Y-108562535D01*
X129675000Y-108437465D01*
X129642630Y-108316657D01*
X129604146Y-108250000D01*
X130674999Y-108250000D01*
X130674999Y-108043981D01*
X142898889Y-108043981D01*
X142898889Y-108156017D01*
X142927886Y-108264236D01*
X142983904Y-108361262D01*
X143063126Y-108440484D01*
X143160152Y-108496502D01*
X143268371Y-108525499D01*
X143268373Y-108525499D01*
X143380406Y-108525499D01*
X143380407Y-108525499D01*
X143405990Y-108518644D01*
X143475840Y-108520306D01*
X143525766Y-108550737D01*
X147315489Y-112340460D01*
X147384012Y-112380022D01*
X147460438Y-112400500D01*
X158675638Y-112400500D01*
X158742677Y-112420185D01*
X158763319Y-112436819D01*
X159511011Y-113184511D01*
X159566960Y-113240460D01*
X159566962Y-113240461D01*
X159566966Y-113240464D01*
X159626785Y-113275000D01*
X159635482Y-113280021D01*
X159711909Y-113300500D01*
X160947390Y-113300500D01*
X161014429Y-113320185D01*
X161035071Y-113336819D01*
X161038737Y-113340485D01*
X161135763Y-113396503D01*
X161243982Y-113425500D01*
X161243984Y-113425500D01*
X161356016Y-113425500D01*
X161356018Y-113425500D01*
X161464237Y-113396503D01*
X161561263Y-113340485D01*
X161640485Y-113261263D01*
X161696503Y-113164237D01*
X161725500Y-113056018D01*
X161725500Y-112943982D01*
X161696503Y-112835763D01*
X161640485Y-112738737D01*
X161561263Y-112659515D01*
X161464237Y-112603497D01*
X161356018Y-112574500D01*
X161243982Y-112574500D01*
X161135763Y-112603497D01*
X161135760Y-112603498D01*
X161038740Y-112659513D01*
X161038734Y-112659517D01*
X161035071Y-112663181D01*
X160973748Y-112696666D01*
X160947390Y-112699500D01*
X160521859Y-112699500D01*
X160454820Y-112679815D01*
X160409065Y-112627011D01*
X160399121Y-112557853D01*
X160402084Y-112543407D01*
X160425500Y-112456018D01*
X160425500Y-112343982D01*
X160396503Y-112235763D01*
X160340485Y-112138737D01*
X160261263Y-112059515D01*
X160164237Y-112003497D01*
X160056018Y-111974500D01*
X160056017Y-111974500D01*
X160050833Y-111974500D01*
X159983794Y-111954815D01*
X159963152Y-111938181D01*
X159484512Y-111459541D01*
X159484504Y-111459535D01*
X159415995Y-111419982D01*
X159415990Y-111419979D01*
X159390513Y-111413152D01*
X159339562Y-111399500D01*
X159339560Y-111399500D01*
X148407207Y-111399500D01*
X148340168Y-111379815D01*
X148319526Y-111363181D01*
X144303753Y-107347408D01*
X144270268Y-107286085D01*
X144275252Y-107216393D01*
X144317124Y-107160460D01*
X144329434Y-107152340D01*
X144334256Y-107149555D01*
X144334259Y-107149555D01*
X144431285Y-107093537D01*
X144510507Y-107014315D01*
X144566525Y-106917289D01*
X144595522Y-106809070D01*
X144595522Y-106809058D01*
X144595620Y-106808318D01*
X144595881Y-106807726D01*
X144597625Y-106801220D01*
X144598639Y-106801491D01*
X144623885Y-106744421D01*
X144682208Y-106705948D01*
X144718560Y-106700500D01*
X158491031Y-106700500D01*
X158491033Y-106700500D01*
X158567460Y-106680021D01*
X158635982Y-106640460D01*
X158691931Y-106584511D01*
X158819214Y-106457227D01*
X158880533Y-106423745D01*
X158950225Y-106428729D01*
X159006159Y-106470600D01*
X159014274Y-106482904D01*
X159059515Y-106561263D01*
X159138737Y-106640485D01*
X159235763Y-106696503D01*
X159343982Y-106725500D01*
X159349167Y-106725500D01*
X159416206Y-106745185D01*
X159436848Y-106761819D01*
X166263181Y-113588152D01*
X166296666Y-113649475D01*
X166299500Y-113675833D01*
X166299500Y-116847390D01*
X166279815Y-116914429D01*
X166263181Y-116935071D01*
X166259517Y-116938734D01*
X166259513Y-116938740D01*
X166203498Y-117035760D01*
X166203497Y-117035763D01*
X166174500Y-117143982D01*
X166174500Y-117256018D01*
X166203497Y-117364237D01*
X166259515Y-117461263D01*
X166338737Y-117540485D01*
X166435763Y-117596503D01*
X166435770Y-117596505D01*
X166435961Y-117596584D01*
X166436106Y-117596701D01*
X166442802Y-117600567D01*
X166442199Y-117601610D01*
X166461509Y-117617169D01*
X166487784Y-117636838D01*
X166488584Y-117638985D01*
X166490368Y-117640422D01*
X166500734Y-117671558D01*
X166512201Y-117702303D01*
X166511714Y-117704540D01*
X166512438Y-117706714D01*
X166504323Y-117738514D01*
X166497349Y-117770576D01*
X166495518Y-117773021D01*
X166495163Y-117774415D01*
X166476199Y-117798830D01*
X166311846Y-117963182D01*
X166250525Y-117996666D01*
X166224167Y-117999500D01*
X160821859Y-117999500D01*
X160754820Y-117979815D01*
X160709065Y-117927011D01*
X160699121Y-117857853D01*
X160702084Y-117843407D01*
X160725500Y-117756018D01*
X160725500Y-117643982D01*
X160696503Y-117535763D01*
X160640485Y-117438737D01*
X160561263Y-117359515D01*
X160464237Y-117303497D01*
X160356018Y-117274500D01*
X160243982Y-117274500D01*
X160135763Y-117303497D01*
X160135760Y-117303498D01*
X160038740Y-117359513D01*
X160038734Y-117359517D01*
X159959517Y-117438734D01*
X159959513Y-117438740D01*
X159903498Y-117535760D01*
X159903497Y-117535763D01*
X159874500Y-117643982D01*
X159874500Y-117756018D01*
X159896158Y-117836848D01*
X159897916Y-117843407D01*
X159896253Y-117913257D01*
X159857090Y-117971119D01*
X159792862Y-117998623D01*
X159778141Y-117999500D01*
X149875833Y-117999500D01*
X149846392Y-117990855D01*
X149816406Y-117984332D01*
X149811390Y-117980577D01*
X149808794Y-117979815D01*
X149788152Y-117963181D01*
X149661819Y-117836848D01*
X149628334Y-117775525D01*
X149625500Y-117749167D01*
X149625500Y-117743984D01*
X149625500Y-117743982D01*
X149596503Y-117635763D01*
X149540485Y-117538737D01*
X149461263Y-117459515D01*
X149364237Y-117403497D01*
X149256018Y-117374500D01*
X149143982Y-117374500D01*
X149035763Y-117403497D01*
X149035760Y-117403498D01*
X148938740Y-117459513D01*
X148938734Y-117459517D01*
X148859517Y-117538734D01*
X148859513Y-117538740D01*
X148803498Y-117635760D01*
X148803497Y-117635763D01*
X148774500Y-117743982D01*
X148774500Y-117856018D01*
X148803497Y-117964237D01*
X148859515Y-118061263D01*
X148938737Y-118140485D01*
X149035763Y-118196503D01*
X149143982Y-118225500D01*
X149149167Y-118225500D01*
X149216206Y-118245185D01*
X149236848Y-118261819D01*
X149515489Y-118540460D01*
X149574829Y-118574720D01*
X149584008Y-118580020D01*
X149584012Y-118580022D01*
X149660438Y-118600500D01*
X149660440Y-118600500D01*
X151098390Y-118600500D01*
X151165429Y-118620185D01*
X151211184Y-118672989D01*
X151221128Y-118742147D01*
X151192103Y-118805703D01*
X151186071Y-118812181D01*
X151159517Y-118838734D01*
X151159513Y-118838740D01*
X151103498Y-118935760D01*
X151103497Y-118935763D01*
X151074500Y-119043982D01*
X151074500Y-119156018D01*
X151103497Y-119264237D01*
X151159515Y-119361263D01*
X151238737Y-119440485D01*
X151238740Y-119440487D01*
X151245186Y-119445433D01*
X151244194Y-119446725D01*
X151285858Y-119490413D01*
X151299086Y-119559019D01*
X151273124Y-119623886D01*
X151263333Y-119634919D01*
X151259516Y-119638735D01*
X151259513Y-119638740D01*
X151203498Y-119735760D01*
X151203497Y-119735763D01*
X151174500Y-119843982D01*
X151174500Y-119956018D01*
X151203497Y-120064237D01*
X151259515Y-120161263D01*
X151338737Y-120240485D01*
X151435763Y-120296503D01*
X151543982Y-120325500D01*
X151543984Y-120325500D01*
X151656016Y-120325500D01*
X151656018Y-120325500D01*
X151733552Y-120304725D01*
X151765645Y-120300500D01*
X168139560Y-120300500D01*
X168139562Y-120300500D01*
X168215989Y-120280021D01*
X168284511Y-120240460D01*
X168340460Y-120184511D01*
X173740460Y-114784511D01*
X173762744Y-114745913D01*
X173780021Y-114715989D01*
X173800500Y-114639562D01*
X173800500Y-112137935D01*
X173820185Y-112070896D01*
X173872989Y-112025141D01*
X173900306Y-112016318D01*
X173931420Y-112010130D01*
X174122598Y-111930941D01*
X174294655Y-111815977D01*
X174440977Y-111669655D01*
X174555941Y-111497598D01*
X174635130Y-111306420D01*
X174675500Y-111103465D01*
X174675500Y-110896535D01*
X174635130Y-110693580D01*
X174555941Y-110502402D01*
X174440977Y-110330345D01*
X174440975Y-110330342D01*
X174294657Y-110184024D01*
X174208626Y-110126541D01*
X174122598Y-110069059D01*
X173931420Y-109989870D01*
X173931412Y-109989868D01*
X173728469Y-109949500D01*
X173728465Y-109949500D01*
X173271535Y-109949500D01*
X173271530Y-109949500D01*
X173068587Y-109989868D01*
X173068579Y-109989870D01*
X172877403Y-110069058D01*
X172705342Y-110184024D01*
X172559024Y-110330342D01*
X172444058Y-110502403D01*
X172364870Y-110693579D01*
X172364868Y-110693587D01*
X172324500Y-110896530D01*
X172324500Y-111103469D01*
X172364868Y-111306412D01*
X172364870Y-111306420D01*
X172444058Y-111497596D01*
X172559024Y-111669657D01*
X172705342Y-111815975D01*
X172705345Y-111815977D01*
X172877402Y-111930941D01*
X173068580Y-112010130D01*
X173099689Y-112016318D01*
X173161600Y-112048701D01*
X173196176Y-112109416D01*
X173199500Y-112137935D01*
X173199500Y-114424167D01*
X173179815Y-114491206D01*
X173163181Y-114511848D01*
X171712181Y-115962848D01*
X171650858Y-115996333D01*
X171581166Y-115991349D01*
X171525233Y-115949477D01*
X171500816Y-115884013D01*
X171500500Y-115875167D01*
X171500500Y-110975832D01*
X171520185Y-110908793D01*
X171536814Y-110888156D01*
X172901284Y-109523685D01*
X172962605Y-109490202D01*
X173032297Y-109495186D01*
X173036416Y-109496807D01*
X173068580Y-109510130D01*
X173271530Y-109550499D01*
X173271534Y-109550500D01*
X173271535Y-109550500D01*
X173728466Y-109550500D01*
X173728467Y-109550499D01*
X173931420Y-109510130D01*
X174122598Y-109430941D01*
X174294655Y-109315977D01*
X174440977Y-109169655D01*
X174555941Y-108997598D01*
X174635130Y-108806420D01*
X174675500Y-108603465D01*
X174675500Y-108396535D01*
X174635130Y-108193580D01*
X174555941Y-108002402D01*
X174440977Y-107830345D01*
X174440975Y-107830342D01*
X174294657Y-107684024D01*
X174173912Y-107603346D01*
X174122598Y-107569059D01*
X174094378Y-107557370D01*
X173931420Y-107489870D01*
X173931412Y-107489868D01*
X173728469Y-107449500D01*
X173728465Y-107449500D01*
X173271535Y-107449500D01*
X173271530Y-107449500D01*
X173068587Y-107489868D01*
X173068579Y-107489870D01*
X172877403Y-107569058D01*
X172705342Y-107684024D01*
X172559024Y-107830342D01*
X172444058Y-108002403D01*
X172364870Y-108193579D01*
X172364868Y-108193587D01*
X172324500Y-108396530D01*
X172324500Y-108603469D01*
X172364868Y-108806412D01*
X172364870Y-108806420D01*
X172444057Y-108997595D01*
X172446932Y-109002973D01*
X172444491Y-109004277D01*
X172461820Y-109059599D01*
X172443342Y-109126981D01*
X172425521Y-109149506D01*
X171312181Y-110262847D01*
X171250858Y-110296332D01*
X171181166Y-110291348D01*
X171125233Y-110249476D01*
X171100816Y-110184012D01*
X171100500Y-110175166D01*
X171100500Y-108875832D01*
X171120185Y-108808793D01*
X171136814Y-108788156D01*
X172901284Y-107023685D01*
X172962605Y-106990202D01*
X173032297Y-106995186D01*
X173036416Y-106996807D01*
X173068580Y-107010130D01*
X173256815Y-107047572D01*
X173271530Y-107050499D01*
X173271534Y-107050500D01*
X173271535Y-107050500D01*
X173728466Y-107050500D01*
X173728467Y-107050499D01*
X173931420Y-107010130D01*
X174122598Y-106930941D01*
X174294655Y-106815977D01*
X174440977Y-106669655D01*
X174555941Y-106497598D01*
X174635130Y-106306420D01*
X174675500Y-106103465D01*
X174675500Y-105896535D01*
X174635130Y-105693580D01*
X174555941Y-105502402D01*
X174440977Y-105330345D01*
X174440975Y-105330342D01*
X174294657Y-105184024D01*
X174168113Y-105099471D01*
X174122598Y-105069059D01*
X174096768Y-105058360D01*
X173931420Y-104989870D01*
X173931412Y-104989868D01*
X173728469Y-104949500D01*
X173728465Y-104949500D01*
X173271535Y-104949500D01*
X173271530Y-104949500D01*
X173068587Y-104989868D01*
X173068579Y-104989870D01*
X172877403Y-105069058D01*
X172705342Y-105184024D01*
X172559024Y-105330342D01*
X172444058Y-105502403D01*
X172364870Y-105693579D01*
X172364868Y-105693587D01*
X172324500Y-105896530D01*
X172324500Y-106103469D01*
X172364868Y-106306412D01*
X172364870Y-106306420D01*
X172444057Y-106497595D01*
X172446932Y-106502973D01*
X172444491Y-106504277D01*
X172461820Y-106559599D01*
X172443342Y-106626981D01*
X172425521Y-106649506D01*
X170615489Y-108459540D01*
X170559541Y-108515487D01*
X170559535Y-108515495D01*
X170519982Y-108584004D01*
X170519979Y-108584009D01*
X170514766Y-108603465D01*
X170503226Y-108646535D01*
X170499500Y-108660439D01*
X170499500Y-113724167D01*
X170479815Y-113791206D01*
X170463181Y-113811848D01*
X167198830Y-117076198D01*
X167137507Y-117109683D01*
X167067815Y-117104699D01*
X167011882Y-117062827D01*
X167005477Y-117053397D01*
X166997937Y-117041117D01*
X166996503Y-117035763D01*
X166940485Y-116938737D01*
X166926478Y-116924730D01*
X166918828Y-116912270D01*
X166913351Y-116892094D01*
X166903334Y-116873748D01*
X166900500Y-116847390D01*
X166900500Y-113460440D01*
X166900500Y-113460438D01*
X166880022Y-113384012D01*
X166840460Y-113315489D01*
X159861819Y-106336848D01*
X159828334Y-106275525D01*
X159825500Y-106249167D01*
X159825500Y-106243984D01*
X159825500Y-106243982D01*
X159796503Y-106135763D01*
X159740485Y-106038737D01*
X159661263Y-105959515D01*
X159582909Y-105914277D01*
X159534696Y-105863713D01*
X159521472Y-105795106D01*
X159547440Y-105730241D01*
X159557222Y-105719219D01*
X160689623Y-104586819D01*
X160750946Y-104553334D01*
X160777304Y-104550500D01*
X165399390Y-104550500D01*
X165466429Y-104570185D01*
X165512184Y-104622989D01*
X165522128Y-104692147D01*
X165499709Y-104747385D01*
X165391003Y-104897006D01*
X165308788Y-105058360D01*
X165308787Y-105058363D01*
X165252829Y-105230589D01*
X165224500Y-105409448D01*
X165224500Y-105590551D01*
X165252829Y-105769410D01*
X165308787Y-105941636D01*
X165308788Y-105941639D01*
X165317898Y-105959517D01*
X165384661Y-106090546D01*
X165391006Y-106102997D01*
X165497441Y-106249494D01*
X165497445Y-106249499D01*
X165625500Y-106377554D01*
X165625505Y-106377558D01*
X165744810Y-106464237D01*
X165772006Y-106483996D01*
X165857511Y-106527563D01*
X165908307Y-106575538D01*
X165925102Y-106643359D01*
X165902565Y-106709494D01*
X165857511Y-106748533D01*
X165667442Y-106845379D01*
X165495540Y-106970272D01*
X165495535Y-106970276D01*
X165345276Y-107120535D01*
X165345272Y-107120540D01*
X165220379Y-107292442D01*
X165123904Y-107481782D01*
X165058242Y-107683870D01*
X165058242Y-107683873D01*
X165047769Y-107750000D01*
X166095854Y-107750000D01*
X166057370Y-107816657D01*
X166025000Y-107937465D01*
X166025000Y-108062535D01*
X166057370Y-108183343D01*
X166095854Y-108250000D01*
X165047769Y-108250000D01*
X165058242Y-108316126D01*
X165058242Y-108316129D01*
X165123904Y-108518217D01*
X165220379Y-108707557D01*
X165345272Y-108879459D01*
X165345276Y-108879464D01*
X165495535Y-109029723D01*
X165495540Y-109029727D01*
X165667442Y-109154620D01*
X165856782Y-109251095D01*
X166058872Y-109316757D01*
X166250000Y-109347029D01*
X166250000Y-108404145D01*
X166316657Y-108442630D01*
X166437465Y-108475000D01*
X166562535Y-108475000D01*
X166683343Y-108442630D01*
X166750000Y-108404145D01*
X166750000Y-109347028D01*
X166941127Y-109316757D01*
X167143217Y-109251095D01*
X167332557Y-109154620D01*
X167504459Y-109029727D01*
X167504464Y-109029723D01*
X167654723Y-108879464D01*
X167654727Y-108879459D01*
X167779620Y-108707557D01*
X167876095Y-108518217D01*
X167941757Y-108316129D01*
X167941757Y-108316126D01*
X167952231Y-108250000D01*
X166904146Y-108250000D01*
X166942630Y-108183343D01*
X166975000Y-108062535D01*
X166975000Y-107937465D01*
X166942630Y-107816657D01*
X166904146Y-107750000D01*
X167952231Y-107750000D01*
X167941757Y-107683873D01*
X167941757Y-107683870D01*
X167876095Y-107481782D01*
X167779620Y-107292442D01*
X167654727Y-107120540D01*
X167654723Y-107120535D01*
X167504464Y-106970276D01*
X167504459Y-106970272D01*
X167332557Y-106845379D01*
X167142488Y-106748533D01*
X167091692Y-106700558D01*
X167074897Y-106632737D01*
X167097435Y-106566602D01*
X167142489Y-106527563D01*
X167227994Y-106483996D01*
X167374501Y-106377553D01*
X167502553Y-106249501D01*
X167608996Y-106102994D01*
X167691211Y-105941639D01*
X167747171Y-105769409D01*
X167764576Y-105659517D01*
X167775500Y-105590551D01*
X167775500Y-105409448D01*
X167755217Y-105281391D01*
X167747171Y-105230591D01*
X167719030Y-105143982D01*
X167691212Y-105058363D01*
X167691211Y-105058360D01*
X167608996Y-104897006D01*
X167500291Y-104747385D01*
X167476812Y-104681578D01*
X167492638Y-104613525D01*
X167542744Y-104564830D01*
X167600610Y-104550500D01*
X172789560Y-104550500D01*
X172789562Y-104550500D01*
X172865989Y-104530021D01*
X172917723Y-104500152D01*
X172985620Y-104483680D01*
X173027173Y-104492979D01*
X173068575Y-104510128D01*
X173068580Y-104510130D01*
X173271530Y-104550499D01*
X173271534Y-104550500D01*
X173271535Y-104550500D01*
X173728466Y-104550500D01*
X173728467Y-104550499D01*
X173931420Y-104510130D01*
X174122598Y-104430941D01*
X174294655Y-104315977D01*
X174440977Y-104169655D01*
X174555941Y-103997598D01*
X174635130Y-103806420D01*
X174675500Y-103603465D01*
X174675500Y-103396535D01*
X174635130Y-103193580D01*
X174555941Y-103002402D01*
X174440977Y-102830345D01*
X174440975Y-102830342D01*
X174294657Y-102684024D01*
X174163671Y-102596503D01*
X174122598Y-102569059D01*
X174053607Y-102540482D01*
X173931420Y-102489870D01*
X173931412Y-102489868D01*
X173728469Y-102449500D01*
X173728465Y-102449500D01*
X173271535Y-102449500D01*
X173271530Y-102449500D01*
X173068587Y-102489868D01*
X173068579Y-102489870D01*
X172877403Y-102569058D01*
X172705342Y-102684024D01*
X172559024Y-102830342D01*
X172444058Y-103002403D01*
X172364870Y-103193579D01*
X172364868Y-103193587D01*
X172324500Y-103396530D01*
X172324500Y-103603469D01*
X172363853Y-103801309D01*
X172357626Y-103870900D01*
X172314763Y-103926078D01*
X172248873Y-103949322D01*
X172242236Y-103949500D01*
X167460495Y-103949500D01*
X167393456Y-103929815D01*
X167347701Y-103877011D01*
X167337757Y-103807853D01*
X167366782Y-103744297D01*
X167372814Y-103737819D01*
X167440974Y-103669658D01*
X167440975Y-103669657D01*
X167440977Y-103669655D01*
X167555941Y-103497598D01*
X167635130Y-103306420D01*
X167675500Y-103103465D01*
X167675500Y-102896535D01*
X167635130Y-102693580D01*
X167555941Y-102502402D01*
X167440977Y-102330345D01*
X167440975Y-102330342D01*
X167294658Y-102184025D01*
X167294654Y-102184022D01*
X167285046Y-102177602D01*
X167240241Y-102123989D01*
X167231534Y-102054664D01*
X167261689Y-101991637D01*
X167321132Y-101954918D01*
X167353937Y-101950500D01*
X172897691Y-101950500D01*
X172897691Y-101953248D01*
X172946861Y-101959711D01*
X173068580Y-102010130D01*
X173197432Y-102035760D01*
X173271530Y-102050499D01*
X173271534Y-102050500D01*
X173271535Y-102050500D01*
X173728466Y-102050500D01*
X173728467Y-102050499D01*
X173931420Y-102010130D01*
X174122598Y-101930941D01*
X174294655Y-101815977D01*
X174440977Y-101669655D01*
X174555941Y-101497598D01*
X174635130Y-101306420D01*
X174675500Y-101103465D01*
X174675500Y-100896535D01*
X174635130Y-100693580D01*
X174555941Y-100502402D01*
X174440977Y-100330345D01*
X174440975Y-100330342D01*
X174294657Y-100184024D01*
X174122596Y-100069057D01*
X174012009Y-100023251D01*
X173957606Y-99979410D01*
X173935541Y-99913116D01*
X173952820Y-99845416D01*
X174003958Y-99797806D01*
X174021144Y-99790759D01*
X174143217Y-99751095D01*
X174332557Y-99654620D01*
X174504459Y-99529727D01*
X174504464Y-99529723D01*
X174654723Y-99379464D01*
X174654727Y-99379459D01*
X174779620Y-99207557D01*
X174876095Y-99018217D01*
X174941757Y-98816129D01*
X174941757Y-98816126D01*
X174952231Y-98750000D01*
X173904146Y-98750000D01*
X173942630Y-98683343D01*
X173975000Y-98562535D01*
X173975000Y-98437465D01*
X173942630Y-98316657D01*
X173904146Y-98250000D01*
X174952231Y-98250000D01*
X174941757Y-98183873D01*
X174941757Y-98183870D01*
X174876095Y-97981782D01*
X174779620Y-97792442D01*
X174654727Y-97620540D01*
X174654723Y-97620535D01*
X174504464Y-97470276D01*
X174504459Y-97470272D01*
X174340439Y-97351105D01*
X174297773Y-97295775D01*
X174291794Y-97226162D01*
X174324399Y-97164367D01*
X174367831Y-97135433D01*
X174497342Y-97084361D01*
X174617922Y-96992922D01*
X174709361Y-96872342D01*
X174764877Y-96731564D01*
X174775500Y-96643102D01*
X174775500Y-95356898D01*
X174764877Y-95268436D01*
X174709361Y-95127658D01*
X174709360Y-95127657D01*
X174709360Y-95127656D01*
X174617922Y-95007077D01*
X174497343Y-94915639D01*
X174356561Y-94860122D01*
X174310926Y-94854642D01*
X174268102Y-94849500D01*
X172731898Y-94849500D01*
X172692853Y-94854188D01*
X172643438Y-94860122D01*
X172502656Y-94915639D01*
X172382077Y-95007077D01*
X172290639Y-95127656D01*
X172235122Y-95268438D01*
X172229188Y-95317853D01*
X172224500Y-95356898D01*
X172224500Y-96643102D01*
X172230126Y-96689954D01*
X172235122Y-96731561D01*
X172290639Y-96872343D01*
X172382077Y-96992922D01*
X172502658Y-97084361D01*
X172502660Y-97084362D01*
X172632165Y-97135433D01*
X172687309Y-97178338D01*
X172710502Y-97244246D01*
X172694381Y-97312231D01*
X172659560Y-97351105D01*
X172495540Y-97470272D01*
X172495535Y-97470276D01*
X172345276Y-97620535D01*
X172345272Y-97620540D01*
X172220379Y-97792442D01*
X172123904Y-97981782D01*
X172058242Y-98183870D01*
X172058242Y-98183873D01*
X172047769Y-98250000D01*
X173095854Y-98250000D01*
X173057370Y-98316657D01*
X173025000Y-98437465D01*
X173025000Y-98562535D01*
X173057370Y-98683343D01*
X173095854Y-98750000D01*
X172047769Y-98750000D01*
X172058242Y-98816126D01*
X172058242Y-98816129D01*
X172123904Y-99018217D01*
X172220379Y-99207557D01*
X172345272Y-99379459D01*
X172345276Y-99379464D01*
X172495535Y-99529723D01*
X172495540Y-99529727D01*
X172667442Y-99654620D01*
X172856782Y-99751095D01*
X172978855Y-99790759D01*
X173036530Y-99830196D01*
X173063729Y-99894555D01*
X173051815Y-99963401D01*
X173004570Y-100014877D01*
X172987990Y-100023251D01*
X172877404Y-100069057D01*
X172705342Y-100184024D01*
X172559024Y-100330342D01*
X172444058Y-100502403D01*
X172364870Y-100693579D01*
X172364868Y-100693587D01*
X172324500Y-100896530D01*
X172324500Y-101103468D01*
X172343962Y-101201309D01*
X172337735Y-101270900D01*
X172294872Y-101326078D01*
X172228982Y-101349322D01*
X172222345Y-101349500D01*
X167789742Y-101349500D01*
X167722703Y-101329815D01*
X167676948Y-101277011D01*
X167667004Y-101207853D01*
X167672513Y-101185307D01*
X167672646Y-101184699D01*
X167675500Y-101154269D01*
X167675500Y-99845730D01*
X167672646Y-99815300D01*
X167672646Y-99815298D01*
X167627793Y-99687119D01*
X167627792Y-99687117D01*
X167547150Y-99577850D01*
X167437882Y-99497207D01*
X167437880Y-99497206D01*
X167309700Y-99452353D01*
X167279270Y-99449500D01*
X167279266Y-99449500D01*
X165720734Y-99449500D01*
X165720730Y-99449500D01*
X165690300Y-99452353D01*
X165690298Y-99452353D01*
X165562119Y-99497206D01*
X165562117Y-99497207D01*
X165452850Y-99577850D01*
X165372207Y-99687117D01*
X165372206Y-99687119D01*
X165327353Y-99815298D01*
X165327353Y-99815300D01*
X165324500Y-99845730D01*
X165324500Y-101154269D01*
X165327353Y-101184699D01*
X165328964Y-101192073D01*
X165327698Y-101192349D01*
X165330861Y-101254327D01*
X165296130Y-101314954D01*
X165234136Y-101347179D01*
X165210258Y-101349500D01*
X162210438Y-101349500D01*
X162172224Y-101359739D01*
X162134009Y-101369979D01*
X162134008Y-101369980D01*
X162065688Y-101409424D01*
X162065532Y-101409515D01*
X162065489Y-101409540D01*
X162065487Y-101409541D01*
X162065483Y-101409544D01*
X157811848Y-105663181D01*
X157750525Y-105696666D01*
X157724167Y-105699500D01*
X151601610Y-105699500D01*
X151534571Y-105679815D01*
X151488816Y-105627011D01*
X151478872Y-105557853D01*
X151507897Y-105494297D01*
X151513929Y-105487819D01*
X151540485Y-105461263D01*
X151596503Y-105364237D01*
X151625500Y-105256018D01*
X151625500Y-105143982D01*
X151596503Y-105035763D01*
X151543513Y-104943982D01*
X155574500Y-104943982D01*
X155574500Y-105056018D01*
X155603497Y-105164237D01*
X155659515Y-105261263D01*
X155738737Y-105340485D01*
X155835763Y-105396503D01*
X155943982Y-105425500D01*
X155943984Y-105425500D01*
X156056016Y-105425500D01*
X156056018Y-105425500D01*
X156164237Y-105396503D01*
X156261263Y-105340485D01*
X156340485Y-105261263D01*
X156396503Y-105164237D01*
X156425500Y-105056018D01*
X156425500Y-104943982D01*
X156396503Y-104835763D01*
X156340485Y-104738737D01*
X156261263Y-104659515D01*
X156164237Y-104603497D01*
X156056018Y-104574500D01*
X155943982Y-104574500D01*
X155835763Y-104603497D01*
X155835760Y-104603498D01*
X155738740Y-104659513D01*
X155738734Y-104659517D01*
X155659517Y-104738734D01*
X155659513Y-104738740D01*
X155603498Y-104835760D01*
X155603497Y-104835763D01*
X155574500Y-104943982D01*
X151543513Y-104943982D01*
X151540485Y-104938737D01*
X151527621Y-104925873D01*
X151520534Y-104914970D01*
X151514095Y-104893456D01*
X151503334Y-104873748D01*
X151500606Y-104848384D01*
X151500502Y-104848034D01*
X151500550Y-104847863D01*
X151500500Y-104847390D01*
X151500500Y-102601610D01*
X151520185Y-102534571D01*
X151572989Y-102488816D01*
X151642147Y-102478872D01*
X151705703Y-102507897D01*
X151712181Y-102513929D01*
X151738737Y-102540485D01*
X151835763Y-102596503D01*
X151943982Y-102625500D01*
X151943984Y-102625500D01*
X152056016Y-102625500D01*
X152056018Y-102625500D01*
X152164237Y-102596503D01*
X152261263Y-102540485D01*
X152340485Y-102461263D01*
X152396503Y-102364237D01*
X152425500Y-102256018D01*
X152425500Y-102143982D01*
X152396503Y-102035763D01*
X152340485Y-101938737D01*
X152261263Y-101859515D01*
X152170713Y-101807236D01*
X152164239Y-101803498D01*
X152164238Y-101803497D01*
X152164237Y-101803497D01*
X152056018Y-101774500D01*
X151943982Y-101774500D01*
X151835763Y-101803497D01*
X151835760Y-101803498D01*
X151738740Y-101859513D01*
X151738734Y-101859517D01*
X151712181Y-101886071D01*
X151650858Y-101919556D01*
X151581166Y-101914572D01*
X151525233Y-101872700D01*
X151500816Y-101807236D01*
X151500500Y-101798390D01*
X151500500Y-98575833D01*
X151520185Y-98508794D01*
X151536819Y-98488152D01*
X152063152Y-97961819D01*
X152124475Y-97928334D01*
X152150833Y-97925500D01*
X152156016Y-97925500D01*
X152156018Y-97925500D01*
X152264237Y-97896503D01*
X152361263Y-97840485D01*
X152440485Y-97761263D01*
X152496503Y-97664237D01*
X152525500Y-97556018D01*
X152525500Y-97443982D01*
X152496503Y-97335763D01*
X152440485Y-97238737D01*
X152361263Y-97159515D01*
X152264237Y-97103497D01*
X152156018Y-97074500D01*
X152043982Y-97074500D01*
X151935763Y-97103497D01*
X151935760Y-97103498D01*
X151838740Y-97159513D01*
X151838734Y-97159517D01*
X151759517Y-97238734D01*
X151759513Y-97238740D01*
X151703498Y-97335760D01*
X151703497Y-97335763D01*
X151674500Y-97443982D01*
X151674500Y-97449167D01*
X151654815Y-97516206D01*
X151638181Y-97536848D01*
X151062181Y-98112848D01*
X151000858Y-98146333D01*
X150931166Y-98141349D01*
X150875233Y-98099477D01*
X150850816Y-98034013D01*
X150850500Y-98025167D01*
X150850500Y-97625833D01*
X150870185Y-97558794D01*
X150886819Y-97538152D01*
X152063152Y-96361819D01*
X152124475Y-96328334D01*
X152150833Y-96325500D01*
X152156016Y-96325500D01*
X152156018Y-96325500D01*
X152264237Y-96296503D01*
X152361263Y-96240485D01*
X152440485Y-96161263D01*
X152496503Y-96064237D01*
X152525500Y-95956018D01*
X152525500Y-95843982D01*
X152496503Y-95735763D01*
X152440485Y-95638737D01*
X152361263Y-95559515D01*
X152264237Y-95503497D01*
X152156018Y-95474500D01*
X152043982Y-95474500D01*
X151935763Y-95503497D01*
X151935760Y-95503498D01*
X151838740Y-95559513D01*
X151838734Y-95559517D01*
X151759517Y-95638734D01*
X151759513Y-95638740D01*
X151703498Y-95735760D01*
X151703497Y-95735763D01*
X151674500Y-95843982D01*
X151674500Y-95849167D01*
X151654815Y-95916206D01*
X151638181Y-95936848D01*
X150309541Y-97265487D01*
X150309535Y-97265495D01*
X150269982Y-97334004D01*
X150269979Y-97334009D01*
X150249500Y-97410439D01*
X150249500Y-104551863D01*
X150229815Y-104618902D01*
X150177011Y-104664657D01*
X150151705Y-104671925D01*
X150151832Y-104672397D01*
X150143983Y-104674500D01*
X150143982Y-104674500D01*
X150035763Y-104703497D01*
X150035760Y-104703498D01*
X149938740Y-104759513D01*
X149938734Y-104759517D01*
X149859517Y-104838734D01*
X149859513Y-104838740D01*
X149803498Y-104935760D01*
X149803495Y-104935767D01*
X149797061Y-104959780D01*
X149787358Y-104975697D01*
X149782292Y-104993639D01*
X149769549Y-105004913D01*
X149760695Y-105019440D01*
X149743927Y-105027584D01*
X149729965Y-105039939D01*
X149713150Y-105042534D01*
X149697848Y-105049968D01*
X149679337Y-105047754D01*
X149660914Y-105050599D01*
X149645366Y-105043692D01*
X149628473Y-105041673D01*
X149614097Y-105029802D01*
X149597060Y-105022235D01*
X149579623Y-105001337D01*
X149574595Y-104997186D01*
X149573672Y-104995803D01*
X149571701Y-104992806D01*
X149540485Y-104938737D01*
X149527848Y-104926100D01*
X149520885Y-104915508D01*
X149514244Y-104893728D01*
X149503334Y-104873748D01*
X149500709Y-104849341D01*
X149500507Y-104848676D01*
X149500602Y-104848339D01*
X149500500Y-104847390D01*
X149500500Y-97275833D01*
X149520185Y-97208794D01*
X149536819Y-97188152D01*
X151963152Y-94761819D01*
X152024475Y-94728334D01*
X152050833Y-94725500D01*
X152056016Y-94725500D01*
X152056018Y-94725500D01*
X152164237Y-94696503D01*
X152261263Y-94640485D01*
X152340485Y-94561263D01*
X152396503Y-94464237D01*
X152425500Y-94356018D01*
X152425500Y-94243982D01*
X152396503Y-94135763D01*
X152340485Y-94038737D01*
X152261263Y-93959515D01*
X152164237Y-93903497D01*
X152056018Y-93874500D01*
X151943982Y-93874500D01*
X151835763Y-93903497D01*
X151835760Y-93903498D01*
X151738740Y-93959513D01*
X151738734Y-93959517D01*
X151659517Y-94038734D01*
X151659513Y-94038740D01*
X151603498Y-94135760D01*
X151603497Y-94135763D01*
X151574500Y-94243982D01*
X151574500Y-94249167D01*
X151554815Y-94316206D01*
X151538181Y-94336848D01*
X148959541Y-96915487D01*
X148959535Y-96915495D01*
X148919982Y-96984004D01*
X148919979Y-96984009D01*
X148899500Y-97060439D01*
X148899500Y-104847390D01*
X148879815Y-104914429D01*
X148863181Y-104935071D01*
X148859517Y-104938734D01*
X148859513Y-104938740D01*
X148803498Y-105035760D01*
X148803497Y-105035763D01*
X148774500Y-105143982D01*
X148774500Y-105256018D01*
X148803497Y-105364237D01*
X148859515Y-105461263D01*
X148859517Y-105461265D01*
X148886071Y-105487819D01*
X148919556Y-105549142D01*
X148914572Y-105618834D01*
X148872700Y-105674767D01*
X148807236Y-105699184D01*
X148798390Y-105699500D01*
X144252610Y-105699500D01*
X144185571Y-105679815D01*
X144164929Y-105663181D01*
X144161265Y-105659517D01*
X144161263Y-105659515D01*
X144096579Y-105622169D01*
X144064239Y-105603498D01*
X144064238Y-105603497D01*
X144064237Y-105603497D01*
X143956018Y-105574500D01*
X143843982Y-105574500D01*
X143735763Y-105603497D01*
X143735760Y-105603498D01*
X143638740Y-105659513D01*
X143638734Y-105659517D01*
X143559517Y-105738734D01*
X143559513Y-105738740D01*
X143503498Y-105835760D01*
X143503497Y-105835763D01*
X143474500Y-105943982D01*
X143474500Y-106056018D01*
X143503497Y-106164237D01*
X143559515Y-106261263D01*
X143638737Y-106340485D01*
X143735763Y-106396503D01*
X143735764Y-106396503D01*
X143739966Y-106398929D01*
X143788181Y-106449495D01*
X143801405Y-106518102D01*
X143785355Y-106568313D01*
X143773520Y-106588812D01*
X143773519Y-106588815D01*
X143744522Y-106697034D01*
X143744522Y-106809069D01*
X143773447Y-106917022D01*
X143771784Y-106986872D01*
X143732621Y-107044735D01*
X143685768Y-107068889D01*
X143657110Y-107076568D01*
X143657105Y-107076570D01*
X143560085Y-107132585D01*
X143560079Y-107132589D01*
X143480862Y-107211806D01*
X143480858Y-107211812D01*
X143424843Y-107308832D01*
X143424842Y-107308835D01*
X143395845Y-107417054D01*
X143395845Y-107529090D01*
X143395846Y-107529094D01*
X143396533Y-107534310D01*
X143385769Y-107603346D01*
X143339390Y-107655603D01*
X143273594Y-107674499D01*
X143268371Y-107674499D01*
X143160152Y-107703496D01*
X143160149Y-107703497D01*
X143063129Y-107759512D01*
X143063123Y-107759516D01*
X142983906Y-107838733D01*
X142983902Y-107838739D01*
X142927887Y-107935759D01*
X142927886Y-107935762D01*
X142898889Y-108043981D01*
X130674999Y-108043981D01*
X130674999Y-107850028D01*
X130674998Y-107850013D01*
X130664505Y-107747302D01*
X130609358Y-107580880D01*
X130609356Y-107580875D01*
X130517315Y-107431654D01*
X130393345Y-107307684D01*
X130244124Y-107215643D01*
X130244119Y-107215641D01*
X130077697Y-107160494D01*
X130077692Y-107160493D01*
X130056226Y-107158300D01*
X129991536Y-107131901D01*
X129951386Y-107074719D01*
X129948525Y-107004908D01*
X129983861Y-106944633D01*
X129995938Y-106934631D01*
X130074501Y-106877553D01*
X130202553Y-106749501D01*
X130308996Y-106602994D01*
X130391211Y-106441639D01*
X130447171Y-106269409D01*
X130463829Y-106164236D01*
X130475500Y-106090551D01*
X130475500Y-105909448D01*
X130453319Y-105769409D01*
X130447171Y-105730591D01*
X130413516Y-105627011D01*
X130391212Y-105558363D01*
X130391211Y-105558360D01*
X130359693Y-105496503D01*
X130308996Y-105397006D01*
X130260562Y-105330342D01*
X130202558Y-105250505D01*
X130202554Y-105250500D01*
X130074499Y-105122445D01*
X130074494Y-105122441D01*
X129927997Y-105016006D01*
X129927996Y-105016005D01*
X129927994Y-105016004D01*
X129848888Y-104975697D01*
X129766639Y-104933788D01*
X129766636Y-104933787D01*
X129594410Y-104877829D01*
X129415551Y-104849500D01*
X129415546Y-104849500D01*
X128984454Y-104849500D01*
X128984449Y-104849500D01*
X128805589Y-104877829D01*
X128633363Y-104933787D01*
X128633360Y-104933788D01*
X128472002Y-105016006D01*
X128325505Y-105122441D01*
X128325500Y-105122445D01*
X128197445Y-105250500D01*
X128197441Y-105250505D01*
X128091006Y-105397002D01*
X128008788Y-105558360D01*
X128008787Y-105558363D01*
X127952829Y-105730589D01*
X127924500Y-105909448D01*
X127924500Y-106090551D01*
X127952829Y-106269410D01*
X128008787Y-106441636D01*
X128008788Y-106441639D01*
X128047749Y-106518102D01*
X128083779Y-106588815D01*
X128091006Y-106602997D01*
X128197441Y-106749494D01*
X128197445Y-106749499D01*
X128325500Y-106877554D01*
X128325505Y-106877558D01*
X128404051Y-106934625D01*
X128446717Y-106989954D01*
X128452696Y-107059568D01*
X128420091Y-107121363D01*
X128359252Y-107155720D01*
X128343769Y-107158301D01*
X128322302Y-107160494D01*
X128155880Y-107215641D01*
X128155875Y-107215643D01*
X128006654Y-107307684D01*
X127882684Y-107431654D01*
X127790643Y-107580875D01*
X127790641Y-107580880D01*
X127735494Y-107747302D01*
X127735493Y-107747309D01*
X127725000Y-107850013D01*
X122668924Y-107850013D01*
X122622598Y-107819059D01*
X122431420Y-107739870D01*
X122431412Y-107739868D01*
X122228469Y-107699500D01*
X122228465Y-107699500D01*
X121771535Y-107699500D01*
X121771530Y-107699500D01*
X121568587Y-107739868D01*
X121568579Y-107739870D01*
X121377403Y-107819058D01*
X121205342Y-107934024D01*
X121059024Y-108080342D01*
X120944058Y-108252403D01*
X120864870Y-108443579D01*
X120864868Y-108443587D01*
X120824500Y-108646530D01*
X118500500Y-108646530D01*
X118500500Y-106146530D01*
X120824500Y-106146530D01*
X120824500Y-106353469D01*
X120864868Y-106556412D01*
X120864870Y-106556420D01*
X120923114Y-106697034D01*
X120944059Y-106747598D01*
X120945331Y-106749501D01*
X121059024Y-106919657D01*
X121205342Y-107065975D01*
X121205345Y-107065977D01*
X121377402Y-107180941D01*
X121568580Y-107260130D01*
X121771530Y-107300499D01*
X121771534Y-107300500D01*
X121771535Y-107300500D01*
X122228466Y-107300500D01*
X122228467Y-107300499D01*
X122431420Y-107260130D01*
X122622598Y-107180941D01*
X122794655Y-107065977D01*
X122940977Y-106919655D01*
X123055941Y-106747598D01*
X123135130Y-106556420D01*
X123175500Y-106353465D01*
X123175500Y-106146535D01*
X123135130Y-105943580D01*
X123055941Y-105752402D01*
X122940977Y-105580345D01*
X122940975Y-105580342D01*
X122794657Y-105434024D01*
X122654666Y-105340486D01*
X122622598Y-105319059D01*
X122601488Y-105310315D01*
X122431420Y-105239870D01*
X122431412Y-105239868D01*
X122228469Y-105199500D01*
X122228465Y-105199500D01*
X121771535Y-105199500D01*
X121771530Y-105199500D01*
X121568587Y-105239868D01*
X121568579Y-105239870D01*
X121377403Y-105319058D01*
X121205342Y-105434024D01*
X121059024Y-105580342D01*
X120944058Y-105752403D01*
X120864870Y-105943579D01*
X120864868Y-105943587D01*
X120824500Y-106146530D01*
X118500500Y-106146530D01*
X118500500Y-103396530D01*
X128024500Y-103396530D01*
X128024500Y-103603469D01*
X128064868Y-103806412D01*
X128064870Y-103806420D01*
X128116448Y-103930941D01*
X128144059Y-103997598D01*
X128201541Y-104083626D01*
X128259024Y-104169657D01*
X128405342Y-104315975D01*
X128405345Y-104315977D01*
X128577402Y-104430941D01*
X128768580Y-104510130D01*
X128971530Y-104550499D01*
X128971534Y-104550500D01*
X128971535Y-104550500D01*
X129428466Y-104550500D01*
X129428467Y-104550499D01*
X129631420Y-104510130D01*
X129822598Y-104430941D01*
X129994655Y-104315977D01*
X130140977Y-104169655D01*
X130255941Y-103997598D01*
X130335130Y-103806420D01*
X130375500Y-103603465D01*
X130375500Y-103396535D01*
X130335130Y-103193580D01*
X130255941Y-103002402D01*
X130140977Y-102830345D01*
X130140975Y-102830342D01*
X129994657Y-102684024D01*
X129863671Y-102596503D01*
X129822598Y-102569059D01*
X129753607Y-102540482D01*
X129631420Y-102489870D01*
X129631412Y-102489868D01*
X129428469Y-102449500D01*
X129428465Y-102449500D01*
X128971535Y-102449500D01*
X128971530Y-102449500D01*
X128768587Y-102489868D01*
X128768579Y-102489870D01*
X128577403Y-102569058D01*
X128405342Y-102684024D01*
X128259024Y-102830342D01*
X128144058Y-103002403D01*
X128064870Y-103193579D01*
X128064868Y-103193587D01*
X128024500Y-103396530D01*
X118500500Y-103396530D01*
X118500500Y-100843982D01*
X142874500Y-100843982D01*
X142874500Y-100956018D01*
X142903497Y-101064237D01*
X142959515Y-101161263D01*
X143038737Y-101240485D01*
X143135763Y-101296503D01*
X143243982Y-101325500D01*
X143243984Y-101325500D01*
X143356016Y-101325500D01*
X143356018Y-101325500D01*
X143464237Y-101296503D01*
X143561263Y-101240485D01*
X143640485Y-101161263D01*
X143696503Y-101064237D01*
X143725500Y-100956018D01*
X143725500Y-100843982D01*
X143696503Y-100735763D01*
X143640485Y-100638737D01*
X143561263Y-100559515D01*
X143464237Y-100503497D01*
X143356018Y-100474500D01*
X143243982Y-100474500D01*
X143135763Y-100503497D01*
X143135760Y-100503498D01*
X143038740Y-100559513D01*
X143038734Y-100559517D01*
X142959517Y-100638734D01*
X142959513Y-100638740D01*
X142903498Y-100735760D01*
X142903497Y-100735763D01*
X142874500Y-100843982D01*
X118500500Y-100843982D01*
X118500500Y-94225013D01*
X121950000Y-94225013D01*
X121950000Y-94750000D01*
X122895854Y-94750000D01*
X122857370Y-94816657D01*
X122825000Y-94937465D01*
X122825000Y-95062535D01*
X122857370Y-95183343D01*
X122895854Y-95250000D01*
X121950001Y-95250000D01*
X121950001Y-95774986D01*
X121960494Y-95877697D01*
X122015641Y-96044119D01*
X122015643Y-96044124D01*
X122107684Y-96193345D01*
X122231654Y-96317315D01*
X122380875Y-96409356D01*
X122380880Y-96409358D01*
X122547302Y-96464505D01*
X122547309Y-96464506D01*
X122650019Y-96474999D01*
X123049999Y-96474999D01*
X123050000Y-96474998D01*
X123050000Y-95404145D01*
X123116657Y-95442630D01*
X123237465Y-95475000D01*
X123362535Y-95475000D01*
X123483343Y-95442630D01*
X123550000Y-95404145D01*
X123550000Y-96474999D01*
X123949972Y-96474999D01*
X123949986Y-96474998D01*
X124052697Y-96464505D01*
X124219119Y-96409358D01*
X124219124Y-96409356D01*
X124368345Y-96317315D01*
X124492315Y-96193345D01*
X124584356Y-96044124D01*
X124584358Y-96044119D01*
X124639505Y-95877697D01*
X124639506Y-95877690D01*
X124649999Y-95774986D01*
X124649999Y-95703528D01*
X124669683Y-95636488D01*
X124722486Y-95590732D01*
X124791644Y-95580788D01*
X124855200Y-95609812D01*
X124877101Y-95634635D01*
X124984022Y-95794655D01*
X125130342Y-95940975D01*
X125130345Y-95940977D01*
X125302402Y-96055941D01*
X125493580Y-96135130D01*
X125696530Y-96175499D01*
X125696534Y-96175500D01*
X125696535Y-96175500D01*
X125699167Y-96175500D01*
X125700495Y-96175890D01*
X125702596Y-96176097D01*
X125702556Y-96176495D01*
X125766206Y-96195185D01*
X125786848Y-96211819D01*
X127806780Y-98231751D01*
X127862729Y-98287700D01*
X127862731Y-98287701D01*
X127862735Y-98287704D01*
X127912884Y-98316657D01*
X127931251Y-98327261D01*
X128007678Y-98347740D01*
X128086802Y-98347740D01*
X142621407Y-98347740D01*
X142688446Y-98367425D01*
X142709088Y-98384059D01*
X145413181Y-101088152D01*
X145427884Y-101115079D01*
X145444477Y-101140898D01*
X145445368Y-101147098D01*
X145446666Y-101149475D01*
X145449500Y-101175833D01*
X145449500Y-101397390D01*
X145429815Y-101464429D01*
X145413181Y-101485071D01*
X145409517Y-101488734D01*
X145409513Y-101488740D01*
X145353498Y-101585760D01*
X145353497Y-101585763D01*
X145324500Y-101693982D01*
X145324500Y-101806018D01*
X145353497Y-101914237D01*
X145409515Y-102011263D01*
X145488737Y-102090485D01*
X145585763Y-102146503D01*
X145693982Y-102175500D01*
X145693984Y-102175500D01*
X145806016Y-102175500D01*
X145806018Y-102175500D01*
X145914237Y-102146503D01*
X146011263Y-102090485D01*
X146090485Y-102011263D01*
X146146503Y-101914237D01*
X146175500Y-101806018D01*
X146175500Y-101693982D01*
X146146503Y-101585763D01*
X146090485Y-101488737D01*
X146086819Y-101485071D01*
X146053334Y-101423748D01*
X146050500Y-101397390D01*
X146050500Y-100960439D01*
X146050500Y-100960438D01*
X146030021Y-100884011D01*
X146006912Y-100843984D01*
X145990464Y-100815495D01*
X145990458Y-100815487D01*
X142981752Y-97806781D01*
X142981744Y-97806775D01*
X142913235Y-97767222D01*
X142913230Y-97767219D01*
X142887753Y-97760392D01*
X142836802Y-97746740D01*
X142836800Y-97746740D01*
X128223073Y-97746740D01*
X128156034Y-97727055D01*
X128135392Y-97710421D01*
X126505483Y-96080512D01*
X126471998Y-96019189D01*
X126476982Y-95949497D01*
X126505483Y-95905150D01*
X126615974Y-95794658D01*
X126615975Y-95794657D01*
X126615977Y-95794655D01*
X126730941Y-95622598D01*
X126810130Y-95431420D01*
X126850500Y-95228465D01*
X126850500Y-94784448D01*
X127149500Y-94784448D01*
X127149500Y-95215551D01*
X127177829Y-95394410D01*
X127233787Y-95566636D01*
X127233788Y-95566639D01*
X127316006Y-95727997D01*
X127422441Y-95874494D01*
X127422445Y-95874499D01*
X127550500Y-96002554D01*
X127550505Y-96002558D01*
X127635399Y-96064236D01*
X127697006Y-96108996D01*
X127748299Y-96135131D01*
X127858360Y-96191211D01*
X127858363Y-96191212D01*
X127921787Y-96211819D01*
X128030591Y-96247171D01*
X128113429Y-96260291D01*
X128209449Y-96275500D01*
X128209454Y-96275500D01*
X128390551Y-96275500D01*
X128477259Y-96261765D01*
X128569409Y-96247171D01*
X128741639Y-96191211D01*
X128902994Y-96108996D01*
X129049501Y-96002553D01*
X129177553Y-95874501D01*
X129283996Y-95727994D01*
X129366211Y-95566639D01*
X129422171Y-95394409D01*
X129440534Y-95278469D01*
X129448332Y-95229240D01*
X129448332Y-95229239D01*
X129450500Y-95215552D01*
X129450500Y-94784448D01*
X129430090Y-94655589D01*
X129422171Y-94605591D01*
X129394191Y-94519476D01*
X129366212Y-94433363D01*
X129366211Y-94433360D01*
X129312608Y-94328159D01*
X129312607Y-94328157D01*
X129285528Y-94275013D01*
X134650000Y-94275013D01*
X134650000Y-94800000D01*
X135595854Y-94800000D01*
X135557370Y-94866657D01*
X135525000Y-94987465D01*
X135525000Y-95112535D01*
X135557370Y-95233343D01*
X135595854Y-95300000D01*
X134650001Y-95300000D01*
X134650001Y-95824986D01*
X134660494Y-95927697D01*
X134715641Y-96094119D01*
X134715643Y-96094124D01*
X134807684Y-96243345D01*
X134931654Y-96367315D01*
X135080875Y-96459356D01*
X135080880Y-96459358D01*
X135247302Y-96514505D01*
X135247309Y-96514506D01*
X135350019Y-96524999D01*
X135749999Y-96524999D01*
X135750000Y-96524998D01*
X135750000Y-95454145D01*
X135816657Y-95492630D01*
X135937465Y-95525000D01*
X136062535Y-95525000D01*
X136183343Y-95492630D01*
X136250000Y-95454145D01*
X136250000Y-96524999D01*
X136649972Y-96524999D01*
X136649986Y-96524998D01*
X136752697Y-96514505D01*
X136919119Y-96459358D01*
X136919124Y-96459356D01*
X137068345Y-96367315D01*
X137192315Y-96243345D01*
X137284356Y-96094124D01*
X137284358Y-96094119D01*
X137339505Y-95927697D01*
X137339506Y-95927689D01*
X137341699Y-95906231D01*
X137368095Y-95841539D01*
X137425276Y-95801388D01*
X137495087Y-95798524D01*
X137555363Y-95833858D01*
X137565376Y-95845949D01*
X137622443Y-95924497D01*
X137750500Y-96052554D01*
X137750505Y-96052558D01*
X137864156Y-96135129D01*
X137897006Y-96158996D01*
X138000676Y-96211819D01*
X138058360Y-96241211D01*
X138058363Y-96241212D01*
X138144476Y-96269191D01*
X138230591Y-96297171D01*
X138313429Y-96310291D01*
X138409449Y-96325500D01*
X138409454Y-96325500D01*
X138590551Y-96325500D01*
X138677259Y-96311765D01*
X138769409Y-96297171D01*
X138941639Y-96241211D01*
X139102994Y-96158996D01*
X139249501Y-96052553D01*
X139377553Y-95924501D01*
X139483996Y-95777994D01*
X139566211Y-95616639D01*
X139622171Y-95444409D01*
X139638445Y-95341657D01*
X139650500Y-95265551D01*
X139650500Y-94834449D01*
X139648454Y-94821530D01*
X139949500Y-94821530D01*
X139949500Y-95278469D01*
X139989868Y-95481412D01*
X139989870Y-95481420D01*
X140069058Y-95672596D01*
X140184024Y-95844657D01*
X140330342Y-95990975D01*
X140330345Y-95990977D01*
X140502402Y-96105941D01*
X140693580Y-96185130D01*
X140827756Y-96211819D01*
X140896530Y-96225499D01*
X140896534Y-96225500D01*
X140896535Y-96225500D01*
X141103466Y-96225500D01*
X141103467Y-96225499D01*
X141306420Y-96185130D01*
X141497598Y-96105941D01*
X141669655Y-95990977D01*
X141815977Y-95844655D01*
X141930941Y-95672598D01*
X142010130Y-95481420D01*
X142050500Y-95278465D01*
X142050500Y-94821535D01*
X142010130Y-94618580D01*
X141930941Y-94427402D01*
X141815977Y-94255345D01*
X141815975Y-94255342D01*
X141669657Y-94109024D01*
X141564459Y-94038734D01*
X141497598Y-93994059D01*
X141405426Y-93955880D01*
X141306420Y-93914870D01*
X141306412Y-93914868D01*
X141103469Y-93874500D01*
X141103465Y-93874500D01*
X140896535Y-93874500D01*
X140896530Y-93874500D01*
X140693587Y-93914868D01*
X140693579Y-93914870D01*
X140502403Y-93994058D01*
X140330342Y-94109024D01*
X140184024Y-94255342D01*
X140069058Y-94427403D01*
X139989870Y-94618579D01*
X139989868Y-94618587D01*
X139949500Y-94821530D01*
X139648454Y-94821530D01*
X139630526Y-94708343D01*
X139622171Y-94655591D01*
X139591523Y-94561265D01*
X139566212Y-94483363D01*
X139566211Y-94483360D01*
X139533355Y-94418878D01*
X139483996Y-94322006D01*
X139413527Y-94225013D01*
X139377558Y-94175505D01*
X139377554Y-94175500D01*
X139249499Y-94047445D01*
X139249494Y-94047441D01*
X139102997Y-93941006D01*
X139102996Y-93941005D01*
X139102994Y-93941004D01*
X139029383Y-93903497D01*
X138941639Y-93858788D01*
X138941636Y-93858787D01*
X138769410Y-93802829D01*
X138590551Y-93774500D01*
X138590546Y-93774500D01*
X138409454Y-93774500D01*
X138409449Y-93774500D01*
X138230589Y-93802829D01*
X138058363Y-93858787D01*
X138058360Y-93858788D01*
X137897002Y-93941006D01*
X137750505Y-94047441D01*
X137750500Y-94047445D01*
X137622445Y-94175500D01*
X137565374Y-94254052D01*
X137510044Y-94296717D01*
X137440430Y-94302696D01*
X137378635Y-94270090D01*
X137344278Y-94209251D01*
X137341698Y-94193765D01*
X137339506Y-94172303D01*
X137284358Y-94005880D01*
X137284356Y-94005875D01*
X137192315Y-93856654D01*
X137068345Y-93732684D01*
X136919124Y-93640643D01*
X136919119Y-93640641D01*
X136752697Y-93585494D01*
X136752690Y-93585493D01*
X136649986Y-93575000D01*
X136250000Y-93575000D01*
X136250000Y-94645854D01*
X136183343Y-94607370D01*
X136062535Y-94575000D01*
X135937465Y-94575000D01*
X135816657Y-94607370D01*
X135750000Y-94645854D01*
X135750000Y-93575000D01*
X135350028Y-93575000D01*
X135350012Y-93575001D01*
X135247302Y-93585494D01*
X135080880Y-93640641D01*
X135080875Y-93640643D01*
X134931654Y-93732684D01*
X134807684Y-93856654D01*
X134715643Y-94005875D01*
X134715641Y-94005880D01*
X134660494Y-94172302D01*
X134660493Y-94172309D01*
X134650000Y-94275013D01*
X129285528Y-94275013D01*
X129283995Y-94272004D01*
X129177558Y-94125505D01*
X129177554Y-94125500D01*
X129049499Y-93997445D01*
X129049494Y-93997441D01*
X128902997Y-93891006D01*
X128902996Y-93891005D01*
X128902994Y-93891004D01*
X128835579Y-93856654D01*
X128741639Y-93808788D01*
X128741636Y-93808787D01*
X128569410Y-93752829D01*
X128390551Y-93724500D01*
X128390546Y-93724500D01*
X128209454Y-93724500D01*
X128209449Y-93724500D01*
X128030589Y-93752829D01*
X127858363Y-93808787D01*
X127858360Y-93808788D01*
X127697002Y-93891006D01*
X127550505Y-93997441D01*
X127550500Y-93997445D01*
X127422445Y-94125500D01*
X127422441Y-94125505D01*
X127316006Y-94272002D01*
X127233788Y-94433360D01*
X127233787Y-94433363D01*
X127177829Y-94605589D01*
X127149500Y-94784448D01*
X126850500Y-94784448D01*
X126850500Y-94771535D01*
X126810130Y-94568580D01*
X126730941Y-94377402D01*
X126615977Y-94205345D01*
X126615975Y-94205342D01*
X126469657Y-94059024D01*
X126372427Y-93994058D01*
X126297598Y-93944059D01*
X126290227Y-93941006D01*
X126106420Y-93864870D01*
X126106412Y-93864868D01*
X125903469Y-93824500D01*
X125903465Y-93824500D01*
X125696535Y-93824500D01*
X125696530Y-93824500D01*
X125493587Y-93864868D01*
X125493579Y-93864870D01*
X125302403Y-93944058D01*
X125130342Y-94059024D01*
X124984024Y-94205342D01*
X124877102Y-94365365D01*
X124823489Y-94410171D01*
X124754165Y-94418878D01*
X124691137Y-94388724D01*
X124654417Y-94329281D01*
X124649999Y-94296475D01*
X124649999Y-94225028D01*
X124649998Y-94225012D01*
X124639505Y-94122302D01*
X124584358Y-93955880D01*
X124584356Y-93955875D01*
X124492315Y-93806654D01*
X124368345Y-93682684D01*
X124219124Y-93590643D01*
X124219119Y-93590641D01*
X124052697Y-93535494D01*
X124052690Y-93535493D01*
X123949986Y-93525000D01*
X123550000Y-93525000D01*
X123550000Y-94595854D01*
X123483343Y-94557370D01*
X123362535Y-94525000D01*
X123237465Y-94525000D01*
X123116657Y-94557370D01*
X123050000Y-94595854D01*
X123050000Y-93525000D01*
X122650028Y-93525000D01*
X122650012Y-93525001D01*
X122547302Y-93535494D01*
X122380880Y-93590641D01*
X122380875Y-93590643D01*
X122231654Y-93682684D01*
X122107684Y-93806654D01*
X122015643Y-93955875D01*
X122015641Y-93955880D01*
X121960494Y-94122302D01*
X121960493Y-94122309D01*
X121950000Y-94225013D01*
X118500500Y-94225013D01*
X118500500Y-86502706D01*
X118500618Y-86497297D01*
X118503989Y-86420090D01*
X118508436Y-86318234D01*
X119300000Y-86318234D01*
X119300000Y-86681765D01*
X119335632Y-87043556D01*
X119406550Y-87400090D01*
X119406553Y-87400101D01*
X119512086Y-87747997D01*
X119651207Y-88083864D01*
X119651209Y-88083869D01*
X119822570Y-88404462D01*
X119822581Y-88404480D01*
X120024551Y-88706750D01*
X120211678Y-88934765D01*
X120211679Y-88934766D01*
X121705747Y-87440697D01*
X121779588Y-87542330D01*
X121957670Y-87720412D01*
X122059301Y-87794251D01*
X120565232Y-89288319D01*
X120565233Y-89288320D01*
X120793249Y-89475448D01*
X121095519Y-89677418D01*
X121095537Y-89677429D01*
X121416130Y-89848790D01*
X121416135Y-89848792D01*
X121752002Y-89987913D01*
X122099898Y-90093446D01*
X122099909Y-90093449D01*
X122456443Y-90164367D01*
X122818234Y-90200000D01*
X123181766Y-90200000D01*
X123543556Y-90164367D01*
X123900090Y-90093449D01*
X123900101Y-90093446D01*
X124247997Y-89987913D01*
X124583864Y-89848792D01*
X124583869Y-89848790D01*
X124904462Y-89677429D01*
X124904480Y-89677418D01*
X125206736Y-89475457D01*
X125206750Y-89475447D01*
X125434765Y-89288320D01*
X125434766Y-89288319D01*
X123940698Y-87794251D01*
X124042330Y-87720412D01*
X124220412Y-87542330D01*
X124294251Y-87440698D01*
X125788319Y-88934766D01*
X125788320Y-88934765D01*
X125975447Y-88706750D01*
X125975457Y-88706736D01*
X126177418Y-88404480D01*
X126177429Y-88404462D01*
X126348790Y-88083869D01*
X126348792Y-88083864D01*
X126487913Y-87747997D01*
X126593446Y-87400101D01*
X126593448Y-87400093D01*
X126598550Y-87374446D01*
X126598550Y-87374445D01*
X126664367Y-87043556D01*
X126700000Y-86681765D01*
X126700000Y-86425013D01*
X134650000Y-86425013D01*
X134650000Y-86950000D01*
X135595854Y-86950000D01*
X135557370Y-87016657D01*
X135525000Y-87137465D01*
X135525000Y-87262535D01*
X135557370Y-87383343D01*
X135595854Y-87450000D01*
X134650001Y-87450000D01*
X134650001Y-87974986D01*
X134660494Y-88077697D01*
X134715641Y-88244119D01*
X134715643Y-88244124D01*
X134807684Y-88393345D01*
X134931654Y-88517315D01*
X135080875Y-88609356D01*
X135080880Y-88609358D01*
X135247302Y-88664505D01*
X135247309Y-88664506D01*
X135350019Y-88674999D01*
X135749999Y-88674999D01*
X135750000Y-88674998D01*
X135750000Y-87604145D01*
X135816657Y-87642630D01*
X135937465Y-87675000D01*
X136062535Y-87675000D01*
X136183343Y-87642630D01*
X136250000Y-87604145D01*
X136250000Y-88674999D01*
X136649972Y-88674999D01*
X136649986Y-88674998D01*
X136752697Y-88664505D01*
X136919119Y-88609358D01*
X136919124Y-88609356D01*
X137068345Y-88517315D01*
X137192315Y-88393345D01*
X137284356Y-88244124D01*
X137284358Y-88244119D01*
X137339505Y-88077697D01*
X137339506Y-88077689D01*
X137341699Y-88056231D01*
X137368095Y-87991539D01*
X137425276Y-87951388D01*
X137495087Y-87948524D01*
X137555363Y-87983858D01*
X137565376Y-87995949D01*
X137622443Y-88074497D01*
X137750500Y-88202554D01*
X137750505Y-88202558D01*
X137878287Y-88295396D01*
X137897006Y-88308996D01*
X137948299Y-88335131D01*
X138058360Y-88391211D01*
X138058363Y-88391212D01*
X138099199Y-88404480D01*
X138230591Y-88447171D01*
X138313429Y-88460291D01*
X138409449Y-88475500D01*
X138409454Y-88475500D01*
X138590551Y-88475500D01*
X138677259Y-88461765D01*
X138769409Y-88447171D01*
X138941639Y-88391211D01*
X139102994Y-88308996D01*
X139249501Y-88202553D01*
X139377553Y-88074501D01*
X139483996Y-87927994D01*
X139566211Y-87766639D01*
X139622171Y-87594409D01*
X139638445Y-87491657D01*
X139650500Y-87415551D01*
X139650500Y-86984449D01*
X139648454Y-86971530D01*
X139949500Y-86971530D01*
X139949500Y-87428469D01*
X139989868Y-87631412D01*
X139989870Y-87631420D01*
X140007921Y-87675000D01*
X140069059Y-87822598D01*
X140126541Y-87908626D01*
X140184024Y-87994657D01*
X140330342Y-88140975D01*
X140330345Y-88140977D01*
X140502402Y-88255941D01*
X140693580Y-88335130D01*
X140896530Y-88375499D01*
X140896534Y-88375500D01*
X140896535Y-88375500D01*
X141103466Y-88375500D01*
X141103467Y-88375499D01*
X141306420Y-88335130D01*
X141497598Y-88255941D01*
X141669655Y-88140977D01*
X141815977Y-87994655D01*
X141930941Y-87822598D01*
X142010130Y-87631420D01*
X142050500Y-87428465D01*
X142050500Y-86971535D01*
X142010130Y-86768580D01*
X141930941Y-86577402D01*
X141873044Y-86490753D01*
X141873044Y-86490751D01*
X141829119Y-86425013D01*
X146812500Y-86425013D01*
X146812500Y-86950000D01*
X147758354Y-86950000D01*
X147719870Y-87016657D01*
X147687500Y-87137465D01*
X147687500Y-87262535D01*
X147719870Y-87383343D01*
X147758354Y-87450000D01*
X146812501Y-87450000D01*
X146812501Y-87974986D01*
X146822994Y-88077697D01*
X146878141Y-88244119D01*
X146878143Y-88244124D01*
X146970184Y-88393345D01*
X147094154Y-88517315D01*
X147243375Y-88609356D01*
X147243380Y-88609358D01*
X147409802Y-88664505D01*
X147409809Y-88664506D01*
X147512519Y-88674999D01*
X147912499Y-88674999D01*
X147912500Y-88674998D01*
X147912500Y-87604145D01*
X147979157Y-87642630D01*
X148099965Y-87675000D01*
X148225035Y-87675000D01*
X148345843Y-87642630D01*
X148412500Y-87604145D01*
X148412500Y-88674999D01*
X148812472Y-88674999D01*
X148812486Y-88674998D01*
X148915197Y-88664505D01*
X149081619Y-88609358D01*
X149081624Y-88609356D01*
X149230845Y-88517315D01*
X149354815Y-88393345D01*
X149446856Y-88244124D01*
X149446858Y-88244119D01*
X149502005Y-88077697D01*
X149502006Y-88077689D01*
X149504199Y-88056231D01*
X149530595Y-87991539D01*
X149587776Y-87951388D01*
X149657587Y-87948524D01*
X149717863Y-87983858D01*
X149727876Y-87995949D01*
X149784943Y-88074497D01*
X149913000Y-88202554D01*
X149913005Y-88202558D01*
X150040787Y-88295396D01*
X150059506Y-88308996D01*
X150110799Y-88335131D01*
X150220860Y-88391211D01*
X150220863Y-88391212D01*
X150261699Y-88404480D01*
X150393091Y-88447171D01*
X150475929Y-88460291D01*
X150571949Y-88475500D01*
X150571954Y-88475500D01*
X150753051Y-88475500D01*
X150839759Y-88461765D01*
X150931909Y-88447171D01*
X151104139Y-88391211D01*
X151265494Y-88308996D01*
X151412001Y-88202553D01*
X151540053Y-88074501D01*
X151646496Y-87927994D01*
X151728711Y-87766639D01*
X151784671Y-87594409D01*
X151800945Y-87491657D01*
X151813000Y-87415551D01*
X151813000Y-86984449D01*
X151810954Y-86971530D01*
X152112000Y-86971530D01*
X152112000Y-87428469D01*
X152152368Y-87631412D01*
X152152370Y-87631420D01*
X152170421Y-87675000D01*
X152231559Y-87822598D01*
X152289041Y-87908626D01*
X152346524Y-87994657D01*
X152492842Y-88140975D01*
X152492845Y-88140977D01*
X152664902Y-88255941D01*
X152856080Y-88335130D01*
X153059030Y-88375499D01*
X153059034Y-88375500D01*
X153059035Y-88375500D01*
X153265966Y-88375500D01*
X153265967Y-88375499D01*
X153468920Y-88335130D01*
X153660098Y-88255941D01*
X153832155Y-88140977D01*
X153978477Y-87994655D01*
X154093441Y-87822598D01*
X154172630Y-87631420D01*
X154213000Y-87428465D01*
X154213000Y-86971535D01*
X154172630Y-86768580D01*
X154093441Y-86577402D01*
X154035544Y-86490753D01*
X154035544Y-86490751D01*
X153991619Y-86425013D01*
X159150000Y-86425013D01*
X159150000Y-86950000D01*
X160095854Y-86950000D01*
X160057370Y-87016657D01*
X160025000Y-87137465D01*
X160025000Y-87262535D01*
X160057370Y-87383343D01*
X160095854Y-87450000D01*
X159150001Y-87450000D01*
X159150001Y-87974986D01*
X159160494Y-88077697D01*
X159215641Y-88244119D01*
X159215643Y-88244124D01*
X159307684Y-88393345D01*
X159431654Y-88517315D01*
X159580875Y-88609356D01*
X159580880Y-88609358D01*
X159747302Y-88664505D01*
X159747309Y-88664506D01*
X159850019Y-88674999D01*
X160249999Y-88674999D01*
X160250000Y-88674998D01*
X160250000Y-87604145D01*
X160316657Y-87642630D01*
X160437465Y-87675000D01*
X160562535Y-87675000D01*
X160683343Y-87642630D01*
X160750000Y-87604145D01*
X160750000Y-88674999D01*
X161149972Y-88674999D01*
X161149986Y-88674998D01*
X161252697Y-88664505D01*
X161419119Y-88609358D01*
X161419124Y-88609356D01*
X161568345Y-88517315D01*
X161692315Y-88393345D01*
X161784356Y-88244124D01*
X161784358Y-88244119D01*
X161839505Y-88077697D01*
X161839506Y-88077689D01*
X161841699Y-88056231D01*
X161868095Y-87991539D01*
X161925276Y-87951388D01*
X161995087Y-87948524D01*
X162055363Y-87983858D01*
X162065376Y-87995949D01*
X162122443Y-88074497D01*
X162250500Y-88202554D01*
X162250505Y-88202558D01*
X162378287Y-88295396D01*
X162397006Y-88308996D01*
X162448299Y-88335131D01*
X162558360Y-88391211D01*
X162558363Y-88391212D01*
X162599199Y-88404480D01*
X162730591Y-88447171D01*
X162813429Y-88460291D01*
X162909449Y-88475500D01*
X162909454Y-88475500D01*
X163090551Y-88475500D01*
X163177259Y-88461765D01*
X163269409Y-88447171D01*
X163441639Y-88391211D01*
X163602994Y-88308996D01*
X163749501Y-88202553D01*
X163877553Y-88074501D01*
X163983996Y-87927994D01*
X164066211Y-87766639D01*
X164122171Y-87594409D01*
X164138445Y-87491657D01*
X164150500Y-87415551D01*
X164150500Y-86984449D01*
X164148454Y-86971530D01*
X164449500Y-86971530D01*
X164449500Y-87428469D01*
X164489868Y-87631412D01*
X164489870Y-87631420D01*
X164507921Y-87675000D01*
X164569059Y-87822598D01*
X164626541Y-87908626D01*
X164684024Y-87994657D01*
X164830342Y-88140975D01*
X164830345Y-88140977D01*
X165002402Y-88255941D01*
X165193580Y-88335130D01*
X165396530Y-88375499D01*
X165396534Y-88375500D01*
X165396535Y-88375500D01*
X165603466Y-88375500D01*
X165603467Y-88375499D01*
X165806420Y-88335130D01*
X165997598Y-88255941D01*
X166169655Y-88140977D01*
X166315977Y-87994655D01*
X166430941Y-87822598D01*
X166510130Y-87631420D01*
X166550500Y-87428465D01*
X166550500Y-86971535D01*
X166510130Y-86768580D01*
X166430941Y-86577402D01*
X166315977Y-86405345D01*
X166315975Y-86405342D01*
X166228867Y-86318234D01*
X169300000Y-86318234D01*
X169300000Y-86681765D01*
X169335632Y-87043556D01*
X169406550Y-87400090D01*
X169406553Y-87400101D01*
X169512086Y-87747997D01*
X169651207Y-88083864D01*
X169651209Y-88083869D01*
X169822570Y-88404462D01*
X169822581Y-88404480D01*
X170024551Y-88706750D01*
X170211678Y-88934765D01*
X170211679Y-88934766D01*
X171705747Y-87440697D01*
X171779588Y-87542330D01*
X171957670Y-87720412D01*
X172059301Y-87794251D01*
X170565232Y-89288319D01*
X170565233Y-89288320D01*
X170793249Y-89475448D01*
X171095519Y-89677418D01*
X171095537Y-89677429D01*
X171416130Y-89848790D01*
X171416135Y-89848792D01*
X171752002Y-89987913D01*
X172099898Y-90093446D01*
X172099909Y-90093449D01*
X172456443Y-90164367D01*
X172818234Y-90200000D01*
X173181766Y-90200000D01*
X173543556Y-90164367D01*
X173900090Y-90093449D01*
X173900101Y-90093446D01*
X174247997Y-89987913D01*
X174583864Y-89848792D01*
X174583869Y-89848790D01*
X174904462Y-89677429D01*
X174904480Y-89677418D01*
X175206736Y-89475457D01*
X175206750Y-89475447D01*
X175434765Y-89288320D01*
X175434766Y-89288319D01*
X173940698Y-87794251D01*
X174042330Y-87720412D01*
X174220412Y-87542330D01*
X174294251Y-87440698D01*
X175788319Y-88934766D01*
X175788320Y-88934765D01*
X175975447Y-88706750D01*
X175975457Y-88706736D01*
X176177418Y-88404480D01*
X176177429Y-88404462D01*
X176348790Y-88083869D01*
X176348792Y-88083864D01*
X176487913Y-87747997D01*
X176593446Y-87400101D01*
X176593449Y-87400090D01*
X176664367Y-87043556D01*
X176700000Y-86681765D01*
X176700000Y-86318234D01*
X176664367Y-85956443D01*
X176593449Y-85599909D01*
X176593446Y-85599898D01*
X176487913Y-85252002D01*
X176348792Y-84916135D01*
X176348790Y-84916130D01*
X176177429Y-84595537D01*
X176177418Y-84595519D01*
X175975448Y-84293249D01*
X175788320Y-84065233D01*
X175788319Y-84065232D01*
X174294251Y-85559300D01*
X174220412Y-85457670D01*
X174042330Y-85279588D01*
X173940698Y-85205748D01*
X175434766Y-83711679D01*
X175434765Y-83711678D01*
X175206750Y-83524551D01*
X174904480Y-83322581D01*
X174904462Y-83322570D01*
X174583869Y-83151209D01*
X174583864Y-83151207D01*
X174247997Y-83012086D01*
X173900101Y-82906553D01*
X173900090Y-82906550D01*
X173543556Y-82835632D01*
X173181766Y-82800000D01*
X172818234Y-82800000D01*
X172456443Y-82835632D01*
X172099909Y-82906550D01*
X172099898Y-82906553D01*
X171752002Y-83012086D01*
X171416135Y-83151207D01*
X171416130Y-83151209D01*
X171095537Y-83322570D01*
X171095519Y-83322581D01*
X170793258Y-83524545D01*
X170793254Y-83524548D01*
X170565233Y-83711679D01*
X170565233Y-83711680D01*
X172059301Y-85205748D01*
X171957670Y-85279588D01*
X171779588Y-85457670D01*
X171705748Y-85559301D01*
X170211680Y-84065233D01*
X170211679Y-84065233D01*
X170024548Y-84293254D01*
X170024545Y-84293258D01*
X169822581Y-84595519D01*
X169822570Y-84595537D01*
X169651209Y-84916130D01*
X169651207Y-84916135D01*
X169512086Y-85252002D01*
X169406553Y-85599898D01*
X169406550Y-85599909D01*
X169335632Y-85956443D01*
X169300000Y-86318234D01*
X166228867Y-86318234D01*
X166169657Y-86259024D01*
X166077490Y-86197441D01*
X165997598Y-86144059D01*
X165952387Y-86125332D01*
X165806420Y-86064870D01*
X165806412Y-86064868D01*
X165603469Y-86024500D01*
X165603465Y-86024500D01*
X165396535Y-86024500D01*
X165396530Y-86024500D01*
X165193587Y-86064868D01*
X165193579Y-86064870D01*
X165002403Y-86144058D01*
X164830342Y-86259024D01*
X164684024Y-86405342D01*
X164569058Y-86577403D01*
X164489870Y-86768579D01*
X164489868Y-86768587D01*
X164449500Y-86971530D01*
X164148454Y-86971530D01*
X164133112Y-86874668D01*
X164122171Y-86805591D01*
X164066211Y-86633361D01*
X164066211Y-86633360D01*
X164037698Y-86577402D01*
X163983996Y-86472006D01*
X163935562Y-86405342D01*
X163877558Y-86325505D01*
X163877554Y-86325500D01*
X163749499Y-86197445D01*
X163749494Y-86197441D01*
X163602997Y-86091006D01*
X163602996Y-86091005D01*
X163602994Y-86091004D01*
X163551300Y-86064664D01*
X163441639Y-86008788D01*
X163441636Y-86008787D01*
X163269410Y-85952829D01*
X163090551Y-85924500D01*
X163090546Y-85924500D01*
X162909454Y-85924500D01*
X162909449Y-85924500D01*
X162730589Y-85952829D01*
X162558363Y-86008787D01*
X162558360Y-86008788D01*
X162397002Y-86091006D01*
X162250505Y-86197441D01*
X162250500Y-86197445D01*
X162122445Y-86325500D01*
X162065374Y-86404052D01*
X162010044Y-86446717D01*
X161940430Y-86452696D01*
X161878635Y-86420090D01*
X161844278Y-86359251D01*
X161841698Y-86343765D01*
X161839506Y-86322303D01*
X161784358Y-86155880D01*
X161784356Y-86155875D01*
X161692315Y-86006654D01*
X161568345Y-85882684D01*
X161419124Y-85790643D01*
X161419119Y-85790641D01*
X161252697Y-85735494D01*
X161252690Y-85735493D01*
X161149986Y-85725000D01*
X160750000Y-85725000D01*
X160750000Y-86795854D01*
X160683343Y-86757370D01*
X160562535Y-86725000D01*
X160437465Y-86725000D01*
X160316657Y-86757370D01*
X160250000Y-86795854D01*
X160250000Y-85725000D01*
X159850028Y-85725000D01*
X159850012Y-85725001D01*
X159747302Y-85735494D01*
X159580880Y-85790641D01*
X159580875Y-85790643D01*
X159431654Y-85882684D01*
X159307684Y-86006654D01*
X159215643Y-86155875D01*
X159215641Y-86155880D01*
X159160494Y-86322302D01*
X159160493Y-86322309D01*
X159150000Y-86425013D01*
X153991619Y-86425013D01*
X153978480Y-86405349D01*
X153978474Y-86405341D01*
X153832157Y-86259024D01*
X153739990Y-86197441D01*
X153660098Y-86144059D01*
X153614887Y-86125332D01*
X153468920Y-86064870D01*
X153468912Y-86064868D01*
X153265969Y-86024500D01*
X153265965Y-86024500D01*
X153059035Y-86024500D01*
X153059030Y-86024500D01*
X152856087Y-86064868D01*
X152856079Y-86064870D01*
X152664903Y-86144058D01*
X152492842Y-86259024D01*
X152346524Y-86405342D01*
X152231558Y-86577403D01*
X152152370Y-86768579D01*
X152152368Y-86768587D01*
X152112000Y-86971530D01*
X151810954Y-86971530D01*
X151795612Y-86874668D01*
X151784671Y-86805591D01*
X151728711Y-86633361D01*
X151728711Y-86633360D01*
X151700198Y-86577402D01*
X151646496Y-86472006D01*
X151598062Y-86405342D01*
X151540058Y-86325505D01*
X151540054Y-86325500D01*
X151411999Y-86197445D01*
X151411994Y-86197441D01*
X151265497Y-86091006D01*
X151265496Y-86091005D01*
X151265494Y-86091004D01*
X151213800Y-86064664D01*
X151104139Y-86008788D01*
X151104136Y-86008787D01*
X150931910Y-85952829D01*
X150753051Y-85924500D01*
X150753046Y-85924500D01*
X150571954Y-85924500D01*
X150571949Y-85924500D01*
X150393089Y-85952829D01*
X150220863Y-86008787D01*
X150220860Y-86008788D01*
X150059502Y-86091006D01*
X149913005Y-86197441D01*
X149913000Y-86197445D01*
X149784945Y-86325500D01*
X149727874Y-86404052D01*
X149672544Y-86446717D01*
X149602930Y-86452696D01*
X149541135Y-86420090D01*
X149506778Y-86359251D01*
X149504198Y-86343765D01*
X149502006Y-86322303D01*
X149446858Y-86155880D01*
X149446856Y-86155875D01*
X149354815Y-86006654D01*
X149230845Y-85882684D01*
X149081624Y-85790643D01*
X149081619Y-85790641D01*
X148915197Y-85735494D01*
X148915190Y-85735493D01*
X148812486Y-85725000D01*
X148412500Y-85725000D01*
X148412500Y-86795854D01*
X148345843Y-86757370D01*
X148225035Y-86725000D01*
X148099965Y-86725000D01*
X147979157Y-86757370D01*
X147912500Y-86795854D01*
X147912500Y-85725000D01*
X147512528Y-85725000D01*
X147512512Y-85725001D01*
X147409802Y-85735494D01*
X147243380Y-85790641D01*
X147243375Y-85790643D01*
X147094154Y-85882684D01*
X146970184Y-86006654D01*
X146878143Y-86155875D01*
X146878141Y-86155880D01*
X146822994Y-86322302D01*
X146822993Y-86322309D01*
X146812500Y-86425013D01*
X141829119Y-86425013D01*
X141815980Y-86405349D01*
X141815974Y-86405341D01*
X141669657Y-86259024D01*
X141577490Y-86197441D01*
X141497598Y-86144059D01*
X141452387Y-86125332D01*
X141306420Y-86064870D01*
X141306412Y-86064868D01*
X141103469Y-86024500D01*
X141103465Y-86024500D01*
X140896535Y-86024500D01*
X140896530Y-86024500D01*
X140693587Y-86064868D01*
X140693579Y-86064870D01*
X140502403Y-86144058D01*
X140330342Y-86259024D01*
X140184024Y-86405342D01*
X140069058Y-86577403D01*
X139989870Y-86768579D01*
X139989868Y-86768587D01*
X139949500Y-86971530D01*
X139648454Y-86971530D01*
X139633112Y-86874668D01*
X139622171Y-86805591D01*
X139566211Y-86633361D01*
X139566211Y-86633360D01*
X139537698Y-86577402D01*
X139483996Y-86472006D01*
X139435562Y-86405342D01*
X139377558Y-86325505D01*
X139377554Y-86325500D01*
X139249499Y-86197445D01*
X139249494Y-86197441D01*
X139102997Y-86091006D01*
X139102996Y-86091005D01*
X139102994Y-86091004D01*
X139051300Y-86064664D01*
X138941639Y-86008788D01*
X138941636Y-86008787D01*
X138769410Y-85952829D01*
X138590551Y-85924500D01*
X138590546Y-85924500D01*
X138409454Y-85924500D01*
X138409449Y-85924500D01*
X138230589Y-85952829D01*
X138058363Y-86008787D01*
X138058360Y-86008788D01*
X137897002Y-86091006D01*
X137750505Y-86197441D01*
X137750500Y-86197445D01*
X137622445Y-86325500D01*
X137565374Y-86404052D01*
X137510044Y-86446717D01*
X137440430Y-86452696D01*
X137378635Y-86420090D01*
X137344278Y-86359251D01*
X137341698Y-86343765D01*
X137339506Y-86322303D01*
X137284358Y-86155880D01*
X137284356Y-86155875D01*
X137192315Y-86006654D01*
X137068345Y-85882684D01*
X136919124Y-85790643D01*
X136919119Y-85790641D01*
X136752697Y-85735494D01*
X136752690Y-85735493D01*
X136649986Y-85725000D01*
X136250000Y-85725000D01*
X136250000Y-86795854D01*
X136183343Y-86757370D01*
X136062535Y-86725000D01*
X135937465Y-86725000D01*
X135816657Y-86757370D01*
X135750000Y-86795854D01*
X135750000Y-85725000D01*
X135350028Y-85725000D01*
X135350012Y-85725001D01*
X135247302Y-85735494D01*
X135080880Y-85790641D01*
X135080875Y-85790643D01*
X134931654Y-85882684D01*
X134807684Y-86006654D01*
X134715643Y-86155875D01*
X134715641Y-86155880D01*
X134660494Y-86322302D01*
X134660493Y-86322309D01*
X134650000Y-86425013D01*
X126700000Y-86425013D01*
X126700000Y-86318234D01*
X126664367Y-85956443D01*
X126593449Y-85599909D01*
X126593446Y-85599898D01*
X126487913Y-85252002D01*
X126348792Y-84916135D01*
X126348790Y-84916130D01*
X126177429Y-84595537D01*
X126177418Y-84595519D01*
X125975448Y-84293249D01*
X125788320Y-84065233D01*
X125788319Y-84065232D01*
X124294251Y-85559300D01*
X124220412Y-85457670D01*
X124042330Y-85279588D01*
X123940698Y-85205748D01*
X125434766Y-83711679D01*
X125434765Y-83711678D01*
X125206750Y-83524551D01*
X124904480Y-83322581D01*
X124904462Y-83322570D01*
X124583869Y-83151209D01*
X124583864Y-83151207D01*
X124247997Y-83012086D01*
X123900101Y-82906553D01*
X123900090Y-82906550D01*
X123543556Y-82835632D01*
X123181766Y-82800000D01*
X122818234Y-82800000D01*
X122456443Y-82835632D01*
X122099909Y-82906550D01*
X122099898Y-82906553D01*
X121752002Y-83012086D01*
X121416135Y-83151207D01*
X121416130Y-83151209D01*
X121095537Y-83322570D01*
X121095519Y-83322581D01*
X120793258Y-83524545D01*
X120793254Y-83524548D01*
X120565233Y-83711679D01*
X120565233Y-83711680D01*
X122059301Y-85205748D01*
X121957670Y-85279588D01*
X121779588Y-85457670D01*
X121705748Y-85559301D01*
X120211680Y-84065233D01*
X120211679Y-84065233D01*
X120024548Y-84293254D01*
X120024545Y-84293258D01*
X119822581Y-84595519D01*
X119822570Y-84595537D01*
X119651209Y-84916130D01*
X119651207Y-84916135D01*
X119512086Y-85252002D01*
X119406553Y-85599898D01*
X119406550Y-85599909D01*
X119335632Y-85956443D01*
X119300000Y-86318234D01*
X118508436Y-86318234D01*
X118517386Y-86113228D01*
X118518326Y-86102495D01*
X118568152Y-85724025D01*
X118570025Y-85713405D01*
X118652649Y-85340709D01*
X118655440Y-85330295D01*
X118770230Y-84966227D01*
X118773917Y-84956095D01*
X118920003Y-84603412D01*
X118924561Y-84593638D01*
X119100822Y-84255045D01*
X119106217Y-84245700D01*
X119311325Y-83923744D01*
X119317515Y-83914905D01*
X119549896Y-83612060D01*
X119556834Y-83603791D01*
X119814726Y-83322352D01*
X119822352Y-83314726D01*
X120103791Y-83056834D01*
X120112060Y-83049896D01*
X120414905Y-82817515D01*
X120423744Y-82811325D01*
X120745700Y-82606217D01*
X120755045Y-82600822D01*
X121093638Y-82424561D01*
X121103412Y-82420003D01*
X121456095Y-82273917D01*
X121466227Y-82270230D01*
X121830295Y-82155440D01*
X121840709Y-82152649D01*
X122213405Y-82070025D01*
X122224025Y-82068152D01*
X122602495Y-82018326D01*
X122613226Y-82017386D01*
X122997297Y-82000617D01*
X123002706Y-82000500D01*
X123065892Y-82000500D01*
X172934108Y-82000500D01*
X172997294Y-82000500D01*
X173002702Y-82000617D01*
G37*
%TD.AperFunction*%
%TD*%
M02*
