%TF.GenerationSoftware,KiCad,Pcbnew,9.0.0-9.0.0-2~ubuntu22.04.1*%
%TF.CreationDate,2025-03-23T14:41:49+01:00*%
%TF.ProjectId,PCB_main_unit,5043425f-6d61-4696-9e5f-756e69742e6b,rev?*%
%TF.SameCoordinates,Original*%
%TF.FileFunction,Legend,Top*%
%TF.FilePolarity,Positive*%
%FSLAX46Y46*%
G04 Gerber Fmt 4.6, Leading zero omitted, Abs format (unit mm)*
G04 Created by KiCad (PCBNEW 9.0.0-9.0.0-2~ubuntu22.04.1) date 2025-03-23 14:41:49*
%MOMM*%
%LPD*%
G01*
G04 APERTURE LIST*
%ADD10C,0.100000*%
%ADD11C,0.200000*%
%ADD12C,0.150000*%
%ADD13C,0.125000*%
%ADD14C,0.120000*%
G04 APERTURE END LIST*
D10*
X132000000Y-83000000D02*
X132000000Y-99000000D01*
X142500000Y-98500000D02*
X143500000Y-98500000D01*
D11*
G36*
X134478330Y-135075770D02*
G01*
X133056108Y-135075770D01*
X133056108Y-134579836D01*
X133167219Y-134579836D01*
X133169140Y-134589441D01*
X133169140Y-134599240D01*
X133172929Y-134608388D01*
X133174871Y-134618096D01*
X133180322Y-134626236D01*
X133184072Y-134635288D01*
X133191071Y-134642287D01*
X133196582Y-134650516D01*
X133211588Y-134662804D01*
X133211662Y-134662878D01*
X133211694Y-134662891D01*
X133211749Y-134662936D01*
X133346365Y-134752680D01*
X133423129Y-134829444D01*
X133463490Y-134910166D01*
X133473933Y-134926756D01*
X133503410Y-134952321D01*
X133540426Y-134964659D01*
X133579346Y-134961894D01*
X133614244Y-134944445D01*
X133639809Y-134914968D01*
X133652148Y-134877952D01*
X133649382Y-134839032D01*
X133642376Y-134820723D01*
X133594757Y-134725486D01*
X133589470Y-134717087D01*
X133588461Y-134714650D01*
X133586209Y-134711906D01*
X133584314Y-134708895D01*
X133582316Y-134707162D01*
X133576025Y-134699496D01*
X133556260Y-134679731D01*
X134167219Y-134679731D01*
X134167219Y-134865445D01*
X134169140Y-134884954D01*
X134184072Y-134921002D01*
X134211662Y-134948592D01*
X134247710Y-134963524D01*
X134286728Y-134963524D01*
X134322776Y-134948592D01*
X134350366Y-134921002D01*
X134365298Y-134884954D01*
X134367219Y-134865445D01*
X134367219Y-134294017D01*
X134365298Y-134274508D01*
X134350366Y-134238460D01*
X134322776Y-134210870D01*
X134286728Y-134195938D01*
X134247710Y-134195938D01*
X134211662Y-134210870D01*
X134184072Y-134238460D01*
X134169140Y-134274508D01*
X134167219Y-134294017D01*
X134167219Y-134479731D01*
X133267219Y-134479731D01*
X133267148Y-134479737D01*
X133267114Y-134479731D01*
X133267012Y-134479751D01*
X133247710Y-134481652D01*
X133238561Y-134485441D01*
X133228854Y-134487383D01*
X133220713Y-134492834D01*
X133211662Y-134496584D01*
X133204662Y-134503583D01*
X133196434Y-134509094D01*
X133190998Y-134517247D01*
X133184072Y-134524174D01*
X133180283Y-134533320D01*
X133174791Y-134541559D01*
X133172889Y-134551169D01*
X133169140Y-134560222D01*
X133169140Y-134570125D01*
X133167219Y-134579836D01*
X133056108Y-134579836D01*
X133056108Y-133532112D01*
X133167219Y-133532112D01*
X133167219Y-133770207D01*
X133169140Y-133789716D01*
X133170515Y-133793036D01*
X133170770Y-133796620D01*
X133177776Y-133814928D01*
X133225395Y-133910166D01*
X133230680Y-133918562D01*
X133231691Y-133921002D01*
X133233944Y-133923748D01*
X133235838Y-133926756D01*
X133237832Y-133928485D01*
X133244127Y-133936156D01*
X133291746Y-133983774D01*
X133306899Y-133996211D01*
X133342948Y-134011142D01*
X133381966Y-134011142D01*
X133418014Y-133996211D01*
X133445604Y-133968621D01*
X133460535Y-133932573D01*
X133460535Y-133893555D01*
X133445604Y-133857506D01*
X133433167Y-133842353D01*
X133397024Y-133806209D01*
X133367219Y-133746599D01*
X133367219Y-133555719D01*
X133397024Y-133496109D01*
X133421692Y-133471440D01*
X133481302Y-133441636D01*
X133536706Y-133441636D01*
X133641770Y-133476657D01*
X134196508Y-134031394D01*
X134211662Y-134043830D01*
X134247710Y-134058762D01*
X134286728Y-134058762D01*
X134322776Y-134043830D01*
X134350366Y-134016240D01*
X134365298Y-133980192D01*
X134367219Y-133960683D01*
X134367219Y-133341636D01*
X134365298Y-133322127D01*
X134350366Y-133286079D01*
X134322776Y-133258489D01*
X134286728Y-133243557D01*
X134247710Y-133243557D01*
X134211662Y-133258489D01*
X134184072Y-133286079D01*
X134169140Y-133322127D01*
X134167219Y-133341636D01*
X134167219Y-133719261D01*
X133766501Y-133318544D01*
X133751347Y-133306108D01*
X133748028Y-133304733D01*
X133745313Y-133302378D01*
X133727412Y-133294387D01*
X133584556Y-133246768D01*
X133574884Y-133244568D01*
X133572442Y-133243557D01*
X133568903Y-133243208D01*
X133565440Y-133242421D01*
X133562806Y-133242608D01*
X133552933Y-133241636D01*
X133457695Y-133241636D01*
X133438186Y-133243557D01*
X133434865Y-133244932D01*
X133431282Y-133245187D01*
X133412973Y-133252193D01*
X133317736Y-133299812D01*
X133309339Y-133305097D01*
X133306899Y-133306108D01*
X133304153Y-133308361D01*
X133301145Y-133310255D01*
X133299412Y-133312252D01*
X133291746Y-133318545D01*
X133244127Y-133366163D01*
X133237832Y-133373833D01*
X133235838Y-133375563D01*
X133233944Y-133378570D01*
X133231691Y-133381317D01*
X133230680Y-133383756D01*
X133225395Y-133392153D01*
X133177776Y-133487391D01*
X133170770Y-133505699D01*
X133170515Y-133509282D01*
X133169140Y-133512603D01*
X133167219Y-133532112D01*
X133056108Y-133532112D01*
X133056108Y-132376748D01*
X133168004Y-132376748D01*
X133170770Y-132415668D01*
X133188220Y-132450567D01*
X133217696Y-132476132D01*
X133235596Y-132484123D01*
X133950991Y-132722588D01*
X133235596Y-132961053D01*
X133217696Y-132969044D01*
X133188220Y-132994609D01*
X133170770Y-133029508D01*
X133168004Y-133068428D01*
X133180342Y-133105444D01*
X133205907Y-133134920D01*
X133240806Y-133152370D01*
X133279726Y-133155136D01*
X133298842Y-133150789D01*
X134298841Y-132817456D01*
X134316742Y-132809465D01*
X134322143Y-132804780D01*
X134328530Y-132801587D01*
X134336742Y-132792118D01*
X134346218Y-132783900D01*
X134349413Y-132777508D01*
X134354095Y-132772111D01*
X134358061Y-132760213D01*
X134363667Y-132749001D01*
X134364173Y-132741876D01*
X134366434Y-132735095D01*
X134365544Y-132722588D01*
X134366434Y-132710081D01*
X134364173Y-132703299D01*
X134363667Y-132696175D01*
X134358061Y-132684962D01*
X134354095Y-132673065D01*
X134349413Y-132667667D01*
X134346218Y-132661276D01*
X134336742Y-132653057D01*
X134328530Y-132643589D01*
X134322143Y-132640395D01*
X134316742Y-132635711D01*
X134298841Y-132627720D01*
X133298842Y-132294387D01*
X133279726Y-132290040D01*
X133240806Y-132292806D01*
X133205907Y-132310256D01*
X133180342Y-132339732D01*
X133168004Y-132376748D01*
X133056108Y-132376748D01*
X133056108Y-132178929D01*
X134478330Y-132178929D01*
X134478330Y-135075770D01*
G37*
G36*
X160310891Y-97102240D02*
G01*
X160377964Y-97169313D01*
X160413416Y-97240218D01*
X160455387Y-97408099D01*
X160455387Y-97526337D01*
X160413416Y-97694218D01*
X160377963Y-97765124D01*
X160310892Y-97832197D01*
X160205827Y-97867219D01*
X160083959Y-97867219D01*
X160083959Y-97067219D01*
X160205827Y-97067219D01*
X160310891Y-97102240D01*
G37*
G36*
X161718879Y-98178330D02*
G01*
X158058562Y-98178330D01*
X158058562Y-96967219D01*
X158169673Y-96967219D01*
X158169673Y-97967219D01*
X158171594Y-97986728D01*
X158186526Y-98022776D01*
X158214116Y-98050366D01*
X158250164Y-98065298D01*
X158269673Y-98067219D01*
X158745863Y-98067219D01*
X158765372Y-98065298D01*
X158801420Y-98050366D01*
X158829010Y-98022776D01*
X158843942Y-97986728D01*
X158843942Y-97947710D01*
X158829010Y-97911662D01*
X158801420Y-97884072D01*
X158765372Y-97869140D01*
X158745863Y-97867219D01*
X158369673Y-97867219D01*
X158369673Y-96967219D01*
X158979197Y-96967219D01*
X158979197Y-97967219D01*
X158981118Y-97986728D01*
X158996050Y-98022776D01*
X159023640Y-98050366D01*
X159059688Y-98065298D01*
X159079197Y-98067219D01*
X159555387Y-98067219D01*
X159574896Y-98065298D01*
X159610944Y-98050366D01*
X159638534Y-98022776D01*
X159653466Y-97986728D01*
X159653466Y-97947710D01*
X159638534Y-97911662D01*
X159610944Y-97884072D01*
X159574896Y-97869140D01*
X159555387Y-97867219D01*
X159179197Y-97867219D01*
X159179197Y-97543409D01*
X159412530Y-97543409D01*
X159432039Y-97541488D01*
X159468087Y-97526556D01*
X159495677Y-97498966D01*
X159510609Y-97462918D01*
X159510609Y-97423900D01*
X159495677Y-97387852D01*
X159468087Y-97360262D01*
X159432039Y-97345330D01*
X159412530Y-97343409D01*
X159179197Y-97343409D01*
X159179197Y-97067219D01*
X159555387Y-97067219D01*
X159574896Y-97065298D01*
X159610944Y-97050366D01*
X159638534Y-97022776D01*
X159653466Y-96986728D01*
X159653466Y-96967219D01*
X159883959Y-96967219D01*
X159883959Y-97967219D01*
X159885880Y-97986728D01*
X159900812Y-98022776D01*
X159928402Y-98050366D01*
X159964450Y-98065298D01*
X159983959Y-98067219D01*
X160222054Y-98067219D01*
X160231927Y-98066246D01*
X160234561Y-98066434D01*
X160238024Y-98065646D01*
X160241563Y-98065298D01*
X160244005Y-98064286D01*
X160253677Y-98062087D01*
X160396533Y-98014468D01*
X160414434Y-98006477D01*
X160417149Y-98004122D01*
X160420469Y-98002747D01*
X160435622Y-97990310D01*
X160530860Y-97895071D01*
X160537152Y-97887404D01*
X160539149Y-97885673D01*
X160541042Y-97882665D01*
X160543297Y-97879918D01*
X160544308Y-97877476D01*
X160549592Y-97869082D01*
X160597211Y-97773845D01*
X160597757Y-97772416D01*
X160598187Y-97771837D01*
X160601108Y-97763660D01*
X160604217Y-97755536D01*
X160604268Y-97754815D01*
X160604782Y-97753377D01*
X160652401Y-97562901D01*
X160652901Y-97559519D01*
X160653466Y-97558156D01*
X160654189Y-97550805D01*
X160655269Y-97543508D01*
X160655051Y-97542049D01*
X160655387Y-97538647D01*
X160655387Y-97395790D01*
X160655051Y-97392387D01*
X160655269Y-97390929D01*
X160654189Y-97383631D01*
X160653466Y-97376281D01*
X160652901Y-97374917D01*
X160652401Y-97371536D01*
X160604782Y-97181060D01*
X160604268Y-97179621D01*
X160604217Y-97178901D01*
X160601108Y-97170776D01*
X160598187Y-97162600D01*
X160597757Y-97162020D01*
X160597211Y-97160592D01*
X160549592Y-97065355D01*
X160544305Y-97056956D01*
X160543296Y-97054519D01*
X160541044Y-97051775D01*
X160539149Y-97048764D01*
X160537151Y-97047031D01*
X160530860Y-97039365D01*
X160439205Y-96947710D01*
X160790642Y-96947710D01*
X160790642Y-96986728D01*
X160805574Y-97022776D01*
X160833164Y-97050366D01*
X160869212Y-97065298D01*
X160888721Y-97067219D01*
X161287391Y-97067219D01*
X161099177Y-97282321D01*
X161093147Y-97290754D01*
X161091288Y-97292614D01*
X161090557Y-97294377D01*
X161087776Y-97298268D01*
X161082571Y-97313656D01*
X161076356Y-97328662D01*
X161076356Y-97332035D01*
X161075276Y-97335229D01*
X161076356Y-97351431D01*
X161076356Y-97367680D01*
X161077646Y-97370795D01*
X161077871Y-97374161D01*
X161085071Y-97388721D01*
X161091288Y-97403728D01*
X161093672Y-97406112D01*
X161095168Y-97409136D01*
X161107393Y-97419833D01*
X161118878Y-97431318D01*
X161121992Y-97432608D01*
X161124532Y-97434830D01*
X161139920Y-97440034D01*
X161154926Y-97446250D01*
X161159685Y-97446718D01*
X161161493Y-97447330D01*
X161164117Y-97447155D01*
X161174435Y-97448171D01*
X161293685Y-97448171D01*
X161353294Y-97477976D01*
X161377963Y-97502644D01*
X161407768Y-97562254D01*
X161407768Y-97753135D01*
X161377963Y-97812743D01*
X161353294Y-97837413D01*
X161293685Y-97867219D01*
X161055185Y-97867219D01*
X160995575Y-97837414D01*
X160959432Y-97801270D01*
X160944279Y-97788833D01*
X160908231Y-97773902D01*
X160869213Y-97773901D01*
X160833164Y-97788832D01*
X160805574Y-97816422D01*
X160790643Y-97852470D01*
X160790642Y-97891488D01*
X160805573Y-97927537D01*
X160818010Y-97942690D01*
X160865628Y-97990310D01*
X160873296Y-97996603D01*
X160875028Y-97998600D01*
X160878036Y-98000493D01*
X160880782Y-98002747D01*
X160883222Y-98003757D01*
X160891619Y-98009043D01*
X160986856Y-98056662D01*
X161005165Y-98063668D01*
X161008748Y-98063922D01*
X161012069Y-98065298D01*
X161031578Y-98067219D01*
X161317292Y-98067219D01*
X161336801Y-98065298D01*
X161340121Y-98063922D01*
X161343705Y-98063668D01*
X161362013Y-98056662D01*
X161457251Y-98009043D01*
X161465646Y-98003758D01*
X161468088Y-98002747D01*
X161470835Y-98000491D01*
X161473841Y-97998600D01*
X161475571Y-97996605D01*
X161483241Y-97990310D01*
X161530860Y-97942690D01*
X161537152Y-97935023D01*
X161539149Y-97933292D01*
X161541042Y-97930284D01*
X161543297Y-97927537D01*
X161544308Y-97925095D01*
X161549592Y-97916701D01*
X161597211Y-97821464D01*
X161604217Y-97803155D01*
X161604471Y-97799571D01*
X161605847Y-97796251D01*
X161607768Y-97776742D01*
X161607768Y-97538647D01*
X161605847Y-97519138D01*
X161604471Y-97515817D01*
X161604217Y-97512234D01*
X161597211Y-97493925D01*
X161549592Y-97398688D01*
X161544306Y-97390291D01*
X161543296Y-97387851D01*
X161541042Y-97385105D01*
X161539149Y-97382097D01*
X161537151Y-97380364D01*
X161530859Y-97372698D01*
X161483241Y-97325079D01*
X161475570Y-97318784D01*
X161473841Y-97316790D01*
X161470833Y-97314896D01*
X161468087Y-97312643D01*
X161465647Y-97311632D01*
X161457251Y-97306347D01*
X161378403Y-97266923D01*
X161583026Y-97033069D01*
X161589055Y-97024635D01*
X161590915Y-97022776D01*
X161591645Y-97021012D01*
X161594427Y-97017122D01*
X161599631Y-97001733D01*
X161605847Y-96986728D01*
X161605847Y-96983354D01*
X161606927Y-96980161D01*
X161605847Y-96963958D01*
X161605847Y-96947710D01*
X161604556Y-96944594D01*
X161604332Y-96941229D01*
X161597129Y-96926663D01*
X161590915Y-96911662D01*
X161588531Y-96909278D01*
X161587036Y-96906254D01*
X161574802Y-96895549D01*
X161563325Y-96884072D01*
X161560211Y-96882782D01*
X161557672Y-96880560D01*
X161542280Y-96875354D01*
X161527277Y-96869140D01*
X161522517Y-96868671D01*
X161520710Y-96868060D01*
X161518085Y-96868234D01*
X161507768Y-96867219D01*
X160888721Y-96867219D01*
X160869212Y-96869140D01*
X160833164Y-96884072D01*
X160805574Y-96911662D01*
X160790642Y-96947710D01*
X160439205Y-96947710D01*
X160435622Y-96944127D01*
X160420468Y-96931691D01*
X160417149Y-96930316D01*
X160414434Y-96927961D01*
X160396533Y-96919970D01*
X160253677Y-96872351D01*
X160244005Y-96870151D01*
X160241563Y-96869140D01*
X160238024Y-96868791D01*
X160234561Y-96868004D01*
X160231927Y-96868191D01*
X160222054Y-96867219D01*
X159983959Y-96867219D01*
X159964450Y-96869140D01*
X159928402Y-96884072D01*
X159900812Y-96911662D01*
X159885880Y-96947710D01*
X159883959Y-96967219D01*
X159653466Y-96967219D01*
X159653466Y-96947710D01*
X159638534Y-96911662D01*
X159610944Y-96884072D01*
X159574896Y-96869140D01*
X159555387Y-96867219D01*
X159079197Y-96867219D01*
X159059688Y-96869140D01*
X159023640Y-96884072D01*
X158996050Y-96911662D01*
X158981118Y-96947710D01*
X158979197Y-96967219D01*
X158369673Y-96967219D01*
X158367752Y-96947710D01*
X158352820Y-96911662D01*
X158325230Y-96884072D01*
X158289182Y-96869140D01*
X158250164Y-96869140D01*
X158214116Y-96884072D01*
X158186526Y-96911662D01*
X158171594Y-96947710D01*
X158169673Y-96967219D01*
X158058562Y-96967219D01*
X158058562Y-96756108D01*
X161718879Y-96756108D01*
X161718879Y-98178330D01*
G37*
G36*
X160298391Y-95502240D02*
G01*
X160365464Y-95569313D01*
X160400916Y-95640218D01*
X160442887Y-95808099D01*
X160442887Y-95926337D01*
X160400916Y-96094218D01*
X160365463Y-96165124D01*
X160298392Y-96232197D01*
X160193327Y-96267219D01*
X160071459Y-96267219D01*
X160071459Y-95467219D01*
X160193327Y-95467219D01*
X160298391Y-95502240D01*
G37*
G36*
X161706379Y-96578330D02*
G01*
X158046062Y-96578330D01*
X158046062Y-95367219D01*
X158157173Y-95367219D01*
X158157173Y-96367219D01*
X158159094Y-96386728D01*
X158174026Y-96422776D01*
X158201616Y-96450366D01*
X158237664Y-96465298D01*
X158257173Y-96467219D01*
X158733363Y-96467219D01*
X158752872Y-96465298D01*
X158788920Y-96450366D01*
X158816510Y-96422776D01*
X158831442Y-96386728D01*
X158831442Y-96347710D01*
X158816510Y-96311662D01*
X158788920Y-96284072D01*
X158752872Y-96269140D01*
X158733363Y-96267219D01*
X158357173Y-96267219D01*
X158357173Y-95367219D01*
X158966697Y-95367219D01*
X158966697Y-96367219D01*
X158968618Y-96386728D01*
X158983550Y-96422776D01*
X159011140Y-96450366D01*
X159047188Y-96465298D01*
X159066697Y-96467219D01*
X159542887Y-96467219D01*
X159562396Y-96465298D01*
X159598444Y-96450366D01*
X159626034Y-96422776D01*
X159640966Y-96386728D01*
X159640966Y-96347710D01*
X159626034Y-96311662D01*
X159598444Y-96284072D01*
X159562396Y-96269140D01*
X159542887Y-96267219D01*
X159166697Y-96267219D01*
X159166697Y-95943409D01*
X159400030Y-95943409D01*
X159419539Y-95941488D01*
X159455587Y-95926556D01*
X159483177Y-95898966D01*
X159498109Y-95862918D01*
X159498109Y-95823900D01*
X159483177Y-95787852D01*
X159455587Y-95760262D01*
X159419539Y-95745330D01*
X159400030Y-95743409D01*
X159166697Y-95743409D01*
X159166697Y-95467219D01*
X159542887Y-95467219D01*
X159562396Y-95465298D01*
X159598444Y-95450366D01*
X159626034Y-95422776D01*
X159640966Y-95386728D01*
X159640966Y-95367219D01*
X159871459Y-95367219D01*
X159871459Y-96367219D01*
X159873380Y-96386728D01*
X159888312Y-96422776D01*
X159915902Y-96450366D01*
X159951950Y-96465298D01*
X159971459Y-96467219D01*
X160209554Y-96467219D01*
X160219427Y-96466246D01*
X160222061Y-96466434D01*
X160225524Y-96465646D01*
X160229063Y-96465298D01*
X160231505Y-96464286D01*
X160241177Y-96462087D01*
X160384033Y-96414468D01*
X160401934Y-96406477D01*
X160404649Y-96404122D01*
X160407969Y-96402747D01*
X160423122Y-96390310D01*
X160465722Y-96347710D01*
X160778142Y-96347710D01*
X160778142Y-96386728D01*
X160793074Y-96422776D01*
X160820664Y-96450366D01*
X160856712Y-96465298D01*
X160876221Y-96467219D01*
X161495268Y-96467219D01*
X161514777Y-96465298D01*
X161550825Y-96450366D01*
X161578415Y-96422776D01*
X161593347Y-96386728D01*
X161593347Y-96347710D01*
X161578415Y-96311662D01*
X161550825Y-96284072D01*
X161514777Y-96269140D01*
X161495268Y-96267219D01*
X161117643Y-96267219D01*
X161518360Y-95866501D01*
X161530796Y-95851347D01*
X161532170Y-95848028D01*
X161534526Y-95845313D01*
X161542517Y-95827413D01*
X161590136Y-95684556D01*
X161592335Y-95674883D01*
X161593347Y-95672442D01*
X161593695Y-95668904D01*
X161594483Y-95665441D01*
X161594295Y-95662806D01*
X161595268Y-95652933D01*
X161595268Y-95557695D01*
X161593347Y-95538186D01*
X161591971Y-95534865D01*
X161591717Y-95531282D01*
X161584711Y-95512973D01*
X161537092Y-95417736D01*
X161531806Y-95409339D01*
X161530796Y-95406899D01*
X161528542Y-95404153D01*
X161526649Y-95401145D01*
X161524651Y-95399412D01*
X161518359Y-95391746D01*
X161470741Y-95344127D01*
X161463070Y-95337832D01*
X161461341Y-95335838D01*
X161458333Y-95333944D01*
X161455587Y-95331691D01*
X161453147Y-95330680D01*
X161444751Y-95325395D01*
X161349513Y-95277776D01*
X161331205Y-95270770D01*
X161327621Y-95270515D01*
X161324301Y-95269140D01*
X161304792Y-95267219D01*
X161066697Y-95267219D01*
X161047188Y-95269140D01*
X161043867Y-95270515D01*
X161040284Y-95270770D01*
X161021975Y-95277776D01*
X160926738Y-95325395D01*
X160918341Y-95330680D01*
X160915901Y-95331691D01*
X160913155Y-95333944D01*
X160910147Y-95335838D01*
X160908414Y-95337835D01*
X160900748Y-95344128D01*
X160853129Y-95391746D01*
X160840693Y-95406900D01*
X160825761Y-95442948D01*
X160825761Y-95481966D01*
X160840693Y-95518014D01*
X160868283Y-95545604D01*
X160904331Y-95560536D01*
X160943349Y-95560536D01*
X160979397Y-95545604D01*
X160994551Y-95533168D01*
X161030694Y-95497023D01*
X161090304Y-95467219D01*
X161281185Y-95467219D01*
X161340794Y-95497024D01*
X161365463Y-95521692D01*
X161395268Y-95581302D01*
X161395268Y-95636706D01*
X161360246Y-95741770D01*
X160805510Y-96296508D01*
X160793074Y-96311662D01*
X160778142Y-96347710D01*
X160465722Y-96347710D01*
X160518360Y-96295071D01*
X160524652Y-96287404D01*
X160526649Y-96285673D01*
X160528542Y-96282665D01*
X160530797Y-96279918D01*
X160531808Y-96277476D01*
X160537092Y-96269082D01*
X160584711Y-96173845D01*
X160585257Y-96172416D01*
X160585687Y-96171837D01*
X160588608Y-96163660D01*
X160591717Y-96155536D01*
X160591768Y-96154815D01*
X160592282Y-96153377D01*
X160639901Y-95962901D01*
X160640401Y-95959519D01*
X160640966Y-95958156D01*
X160641689Y-95950805D01*
X160642769Y-95943508D01*
X160642551Y-95942049D01*
X160642887Y-95938647D01*
X160642887Y-95795790D01*
X160642551Y-95792387D01*
X160642769Y-95790929D01*
X160641689Y-95783631D01*
X160640966Y-95776281D01*
X160640401Y-95774917D01*
X160639901Y-95771536D01*
X160592282Y-95581060D01*
X160591768Y-95579621D01*
X160591717Y-95578901D01*
X160588608Y-95570776D01*
X160585687Y-95562600D01*
X160585257Y-95562020D01*
X160584711Y-95560592D01*
X160537092Y-95465355D01*
X160531805Y-95456956D01*
X160530796Y-95454519D01*
X160528544Y-95451775D01*
X160526649Y-95448764D01*
X160524651Y-95447031D01*
X160518360Y-95439365D01*
X160423122Y-95344127D01*
X160407968Y-95331691D01*
X160404649Y-95330316D01*
X160401934Y-95327961D01*
X160384033Y-95319970D01*
X160241177Y-95272351D01*
X160231505Y-95270151D01*
X160229063Y-95269140D01*
X160225524Y-95268791D01*
X160222061Y-95268004D01*
X160219427Y-95268191D01*
X160209554Y-95267219D01*
X159971459Y-95267219D01*
X159951950Y-95269140D01*
X159915902Y-95284072D01*
X159888312Y-95311662D01*
X159873380Y-95347710D01*
X159871459Y-95367219D01*
X159640966Y-95367219D01*
X159640966Y-95347710D01*
X159626034Y-95311662D01*
X159598444Y-95284072D01*
X159562396Y-95269140D01*
X159542887Y-95267219D01*
X159066697Y-95267219D01*
X159047188Y-95269140D01*
X159011140Y-95284072D01*
X158983550Y-95311662D01*
X158968618Y-95347710D01*
X158966697Y-95367219D01*
X158357173Y-95367219D01*
X158355252Y-95347710D01*
X158340320Y-95311662D01*
X158312730Y-95284072D01*
X158276682Y-95269140D01*
X158237664Y-95269140D01*
X158201616Y-95284072D01*
X158174026Y-95311662D01*
X158159094Y-95347710D01*
X158157173Y-95367219D01*
X158046062Y-95367219D01*
X158046062Y-95156108D01*
X161706379Y-95156108D01*
X161706379Y-96578330D01*
G37*
G36*
X132778330Y-134176089D02*
G01*
X131356108Y-134176089D01*
X131356108Y-133441636D01*
X131467219Y-133441636D01*
X131467219Y-133917826D01*
X131467929Y-133925042D01*
X131467686Y-133927479D01*
X131468403Y-133929857D01*
X131469140Y-133937335D01*
X131474736Y-133950844D01*
X131478957Y-133964834D01*
X131482144Y-133968730D01*
X131484072Y-133973383D01*
X131494408Y-133983719D01*
X131503664Y-133995032D01*
X131508101Y-133997412D01*
X131511662Y-134000973D01*
X131525167Y-134006567D01*
X131538048Y-134013477D01*
X131545412Y-134014953D01*
X131547710Y-134015905D01*
X131550160Y-134015905D01*
X131557269Y-134017330D01*
X132033459Y-134064949D01*
X132053062Y-134064978D01*
X132057884Y-134063523D01*
X132062918Y-134063523D01*
X132076422Y-134057929D01*
X132090417Y-134053707D01*
X132094313Y-134050519D01*
X132098966Y-134048592D01*
X132109302Y-134038255D01*
X132120615Y-134029000D01*
X132122995Y-134024562D01*
X132126556Y-134021002D01*
X132132148Y-134007499D01*
X132139060Y-133994616D01*
X132139561Y-133989603D01*
X132141487Y-133984954D01*
X132141487Y-133970343D01*
X132142942Y-133955792D01*
X132141487Y-133950969D01*
X132141487Y-133945936D01*
X132135893Y-133932430D01*
X132131671Y-133918437D01*
X132128483Y-133914541D01*
X132126556Y-133909887D01*
X132114119Y-133894734D01*
X132077976Y-133858590D01*
X132048171Y-133798980D01*
X132048171Y-133608100D01*
X132077976Y-133548490D01*
X132102644Y-133523821D01*
X132162254Y-133494017D01*
X132353135Y-133494017D01*
X132412746Y-133523823D01*
X132437414Y-133548490D01*
X132467219Y-133608100D01*
X132467219Y-133798981D01*
X132437414Y-133858590D01*
X132401270Y-133894734D01*
X132388833Y-133909887D01*
X132373902Y-133945935D01*
X132373901Y-133984953D01*
X132388832Y-134021002D01*
X132416422Y-134048592D01*
X132452470Y-134063523D01*
X132491488Y-134063524D01*
X132527537Y-134048593D01*
X132542690Y-134036156D01*
X132590310Y-133988538D01*
X132596603Y-133980869D01*
X132598600Y-133979138D01*
X132600493Y-133976129D01*
X132602747Y-133973384D01*
X132603757Y-133970943D01*
X132609043Y-133962547D01*
X132656662Y-133867310D01*
X132663668Y-133849001D01*
X132663922Y-133845417D01*
X132665298Y-133842097D01*
X132667219Y-133822588D01*
X132667219Y-133584493D01*
X132665298Y-133564984D01*
X132663922Y-133561663D01*
X132663668Y-133558080D01*
X132656662Y-133539771D01*
X132609043Y-133444534D01*
X132603757Y-133436137D01*
X132602747Y-133433697D01*
X132600493Y-133430951D01*
X132598600Y-133427943D01*
X132596603Y-133426211D01*
X132590310Y-133418543D01*
X132542690Y-133370925D01*
X132535020Y-133364630D01*
X132533291Y-133362636D01*
X132530286Y-133360744D01*
X132527537Y-133358488D01*
X132525093Y-133357476D01*
X132516701Y-133352193D01*
X132421463Y-133304574D01*
X132403155Y-133297568D01*
X132399571Y-133297313D01*
X132396251Y-133295938D01*
X132376742Y-133294017D01*
X132138647Y-133294017D01*
X132119138Y-133295938D01*
X132115817Y-133297313D01*
X132112234Y-133297568D01*
X132093925Y-133304574D01*
X131998688Y-133352193D01*
X131990291Y-133357478D01*
X131987851Y-133358489D01*
X131985105Y-133360742D01*
X131982097Y-133362636D01*
X131980364Y-133364633D01*
X131972698Y-133370926D01*
X131925079Y-133418544D01*
X131918784Y-133426214D01*
X131916790Y-133427944D01*
X131914896Y-133430951D01*
X131912643Y-133433698D01*
X131911632Y-133436137D01*
X131906347Y-133444534D01*
X131858728Y-133539772D01*
X131851722Y-133558080D01*
X131851467Y-133561663D01*
X131850092Y-133564984D01*
X131848171Y-133584493D01*
X131848171Y-133822588D01*
X131850092Y-133842097D01*
X131851467Y-133845417D01*
X131851491Y-133845754D01*
X131667219Y-133827327D01*
X131667219Y-133441636D01*
X131665298Y-133422127D01*
X131650366Y-133386079D01*
X131622776Y-133358489D01*
X131586728Y-133343557D01*
X131547710Y-133343557D01*
X131511662Y-133358489D01*
X131484072Y-133386079D01*
X131469140Y-133422127D01*
X131467219Y-133441636D01*
X131356108Y-133441636D01*
X131356108Y-132429129D01*
X131468004Y-132429129D01*
X131470770Y-132468049D01*
X131488220Y-132502948D01*
X131517696Y-132528513D01*
X131535596Y-132536504D01*
X132250991Y-132774969D01*
X131535596Y-133013434D01*
X131517696Y-133021425D01*
X131488220Y-133046990D01*
X131470770Y-133081889D01*
X131468004Y-133120809D01*
X131480342Y-133157825D01*
X131505907Y-133187301D01*
X131540806Y-133204751D01*
X131579726Y-133207517D01*
X131598842Y-133203170D01*
X132598841Y-132869837D01*
X132616742Y-132861846D01*
X132622143Y-132857161D01*
X132628530Y-132853968D01*
X132636742Y-132844499D01*
X132646218Y-132836281D01*
X132649413Y-132829889D01*
X132654095Y-132824492D01*
X132658061Y-132812594D01*
X132663667Y-132801382D01*
X132664173Y-132794257D01*
X132666434Y-132787476D01*
X132665544Y-132774969D01*
X132666434Y-132762462D01*
X132664173Y-132755680D01*
X132663667Y-132748556D01*
X132658061Y-132737343D01*
X132654095Y-132725446D01*
X132649413Y-132720048D01*
X132646218Y-132713657D01*
X132636742Y-132705438D01*
X132628530Y-132695970D01*
X132622143Y-132692776D01*
X132616742Y-132688092D01*
X132598841Y-132680101D01*
X131598842Y-132346768D01*
X131579726Y-132342421D01*
X131540806Y-132345187D01*
X131505907Y-132362637D01*
X131480342Y-132392113D01*
X131468004Y-132429129D01*
X131356108Y-132429129D01*
X131356108Y-132231310D01*
X132778330Y-132231310D01*
X132778330Y-134176089D01*
G37*
G36*
X131178330Y-135022254D02*
G01*
X129756108Y-135022254D01*
X129756108Y-134194017D01*
X129867219Y-134194017D01*
X129867219Y-134813064D01*
X129869140Y-134832573D01*
X129884072Y-134868621D01*
X129911662Y-134896211D01*
X129947710Y-134911143D01*
X129986728Y-134911143D01*
X130022776Y-134896211D01*
X130050366Y-134868621D01*
X130065298Y-134832573D01*
X130067219Y-134813064D01*
X130067219Y-134414393D01*
X130282321Y-134602608D01*
X130290754Y-134608637D01*
X130292614Y-134610497D01*
X130294377Y-134611227D01*
X130298268Y-134614009D01*
X130313656Y-134619213D01*
X130328662Y-134625429D01*
X130332036Y-134625429D01*
X130335229Y-134626509D01*
X130351432Y-134625429D01*
X130367680Y-134625429D01*
X130370795Y-134624138D01*
X130374161Y-134623914D01*
X130388726Y-134616711D01*
X130403728Y-134610497D01*
X130406111Y-134608113D01*
X130409136Y-134606618D01*
X130419840Y-134594384D01*
X130431318Y-134582907D01*
X130432607Y-134579793D01*
X130434830Y-134577254D01*
X130440035Y-134561862D01*
X130446250Y-134546859D01*
X130446718Y-134542099D01*
X130447330Y-134540292D01*
X130447155Y-134537667D01*
X130448171Y-134527350D01*
X130448171Y-134408100D01*
X130477976Y-134348490D01*
X130502644Y-134323821D01*
X130562254Y-134294017D01*
X130753135Y-134294017D01*
X130812746Y-134323823D01*
X130837414Y-134348490D01*
X130867219Y-134408100D01*
X130867219Y-134646600D01*
X130837414Y-134706209D01*
X130801270Y-134742353D01*
X130788833Y-134757506D01*
X130773902Y-134793554D01*
X130773901Y-134832572D01*
X130788832Y-134868621D01*
X130816422Y-134896211D01*
X130852470Y-134911142D01*
X130891488Y-134911143D01*
X130927537Y-134896212D01*
X130942690Y-134883775D01*
X130990310Y-134836157D01*
X130996603Y-134828488D01*
X130998600Y-134826757D01*
X131000493Y-134823748D01*
X131002747Y-134821003D01*
X131003757Y-134818562D01*
X131009043Y-134810166D01*
X131056662Y-134714929D01*
X131063668Y-134696620D01*
X131063922Y-134693036D01*
X131065298Y-134689716D01*
X131067219Y-134670207D01*
X131067219Y-134384493D01*
X131065298Y-134364984D01*
X131063922Y-134361663D01*
X131063668Y-134358080D01*
X131056662Y-134339771D01*
X131009043Y-134244534D01*
X131003757Y-134236137D01*
X131002747Y-134233697D01*
X131000493Y-134230951D01*
X130998600Y-134227943D01*
X130996603Y-134226211D01*
X130990310Y-134218543D01*
X130942690Y-134170925D01*
X130935020Y-134164630D01*
X130933291Y-134162636D01*
X130930286Y-134160744D01*
X130927537Y-134158488D01*
X130925093Y-134157476D01*
X130916701Y-134152193D01*
X130821463Y-134104574D01*
X130803155Y-134097568D01*
X130799571Y-134097313D01*
X130796251Y-134095938D01*
X130776742Y-134094017D01*
X130538647Y-134094017D01*
X130519138Y-134095938D01*
X130515817Y-134097313D01*
X130512234Y-134097568D01*
X130493925Y-134104574D01*
X130398688Y-134152193D01*
X130390291Y-134157478D01*
X130387851Y-134158489D01*
X130385105Y-134160742D01*
X130382097Y-134162636D01*
X130380364Y-134164633D01*
X130372698Y-134170926D01*
X130325079Y-134218544D01*
X130318784Y-134226214D01*
X130316790Y-134227944D01*
X130314896Y-134230951D01*
X130312643Y-134233698D01*
X130311632Y-134236137D01*
X130306347Y-134244534D01*
X130266923Y-134323381D01*
X130033069Y-134118759D01*
X130024635Y-134112729D01*
X130022776Y-134110870D01*
X130021012Y-134110139D01*
X130017122Y-134107358D01*
X130001733Y-134102153D01*
X129986728Y-134095938D01*
X129983354Y-134095938D01*
X129980161Y-134094858D01*
X129963958Y-134095938D01*
X129947710Y-134095938D01*
X129944594Y-134097228D01*
X129941229Y-134097453D01*
X129926668Y-134104653D01*
X129911662Y-134110870D01*
X129909277Y-134113254D01*
X129906254Y-134114750D01*
X129895556Y-134126975D01*
X129884072Y-134138460D01*
X129882781Y-134141574D01*
X129880560Y-134144114D01*
X129875355Y-134159502D01*
X129869140Y-134174508D01*
X129868671Y-134179267D01*
X129868060Y-134181075D01*
X129868234Y-134183699D01*
X129867219Y-134194017D01*
X129756108Y-134194017D01*
X129756108Y-133229129D01*
X129868004Y-133229129D01*
X129870770Y-133268049D01*
X129888220Y-133302948D01*
X129917696Y-133328513D01*
X129935596Y-133336504D01*
X130650991Y-133574969D01*
X129935596Y-133813434D01*
X129917696Y-133821425D01*
X129888220Y-133846990D01*
X129870770Y-133881889D01*
X129868004Y-133920809D01*
X129880342Y-133957825D01*
X129905907Y-133987301D01*
X129940806Y-134004751D01*
X129979726Y-134007517D01*
X129998842Y-134003170D01*
X130998841Y-133669837D01*
X131016742Y-133661846D01*
X131022143Y-133657161D01*
X131028530Y-133653968D01*
X131036742Y-133644499D01*
X131046218Y-133636281D01*
X131049413Y-133629889D01*
X131054095Y-133624492D01*
X131058061Y-133612594D01*
X131063667Y-133601382D01*
X131064173Y-133594257D01*
X131066434Y-133587476D01*
X131065544Y-133574969D01*
X131066434Y-133562462D01*
X131064173Y-133555680D01*
X131063667Y-133548556D01*
X131058061Y-133537343D01*
X131054095Y-133525446D01*
X131049413Y-133520048D01*
X131046218Y-133513657D01*
X131036742Y-133505438D01*
X131028530Y-133495970D01*
X131022143Y-133492776D01*
X131016742Y-133488092D01*
X130998841Y-133480101D01*
X129998842Y-133146768D01*
X129979726Y-133142421D01*
X129940806Y-133145187D01*
X129905907Y-133162637D01*
X129880342Y-133192113D01*
X129868004Y-133229129D01*
X129756108Y-133229129D01*
X129756108Y-132384493D01*
X129867219Y-132384493D01*
X129867219Y-133003540D01*
X129869140Y-133023049D01*
X129884072Y-133059097D01*
X129911662Y-133086687D01*
X129947710Y-133101619D01*
X129986728Y-133101619D01*
X130022776Y-133086687D01*
X130050366Y-133059097D01*
X130065298Y-133023049D01*
X130067219Y-133003540D01*
X130067219Y-132604869D01*
X130282321Y-132793084D01*
X130290754Y-132799113D01*
X130292614Y-132800973D01*
X130294377Y-132801703D01*
X130298268Y-132804485D01*
X130313656Y-132809689D01*
X130328662Y-132815905D01*
X130332036Y-132815905D01*
X130335229Y-132816985D01*
X130351432Y-132815905D01*
X130367680Y-132815905D01*
X130370795Y-132814614D01*
X130374161Y-132814390D01*
X130388726Y-132807187D01*
X130403728Y-132800973D01*
X130406111Y-132798589D01*
X130409136Y-132797094D01*
X130419840Y-132784860D01*
X130431318Y-132773383D01*
X130432607Y-132770269D01*
X130434830Y-132767730D01*
X130440035Y-132752338D01*
X130446250Y-132737335D01*
X130446718Y-132732575D01*
X130447330Y-132730768D01*
X130447155Y-132728143D01*
X130448171Y-132717826D01*
X130448171Y-132598576D01*
X130477976Y-132538966D01*
X130502644Y-132514297D01*
X130562254Y-132484493D01*
X130753135Y-132484493D01*
X130812746Y-132514299D01*
X130837414Y-132538966D01*
X130867219Y-132598576D01*
X130867219Y-132837076D01*
X130837414Y-132896685D01*
X130801270Y-132932829D01*
X130788833Y-132947982D01*
X130773902Y-132984030D01*
X130773901Y-133023048D01*
X130788832Y-133059097D01*
X130816422Y-133086687D01*
X130852470Y-133101618D01*
X130891488Y-133101619D01*
X130927537Y-133086688D01*
X130942690Y-133074251D01*
X130990310Y-133026633D01*
X130996603Y-133018964D01*
X130998600Y-133017233D01*
X131000493Y-133014224D01*
X131002747Y-133011479D01*
X131003757Y-133009038D01*
X131009043Y-133000642D01*
X131056662Y-132905405D01*
X131063668Y-132887096D01*
X131063922Y-132883512D01*
X131065298Y-132880192D01*
X131067219Y-132860683D01*
X131067219Y-132574969D01*
X131065298Y-132555460D01*
X131063922Y-132552139D01*
X131063668Y-132548556D01*
X131056662Y-132530247D01*
X131009043Y-132435010D01*
X131003757Y-132426613D01*
X131002747Y-132424173D01*
X131000493Y-132421427D01*
X130998600Y-132418419D01*
X130996603Y-132416687D01*
X130990310Y-132409019D01*
X130942690Y-132361401D01*
X130935020Y-132355106D01*
X130933291Y-132353112D01*
X130930286Y-132351220D01*
X130927537Y-132348964D01*
X130925093Y-132347952D01*
X130916701Y-132342669D01*
X130821463Y-132295050D01*
X130803155Y-132288044D01*
X130799571Y-132287789D01*
X130796251Y-132286414D01*
X130776742Y-132284493D01*
X130538647Y-132284493D01*
X130519138Y-132286414D01*
X130515817Y-132287789D01*
X130512234Y-132288044D01*
X130493925Y-132295050D01*
X130398688Y-132342669D01*
X130390291Y-132347954D01*
X130387851Y-132348965D01*
X130385105Y-132351218D01*
X130382097Y-132353112D01*
X130380364Y-132355109D01*
X130372698Y-132361402D01*
X130325079Y-132409020D01*
X130318784Y-132416690D01*
X130316790Y-132418420D01*
X130314896Y-132421427D01*
X130312643Y-132424174D01*
X130311632Y-132426613D01*
X130306347Y-132435010D01*
X130266923Y-132513857D01*
X130033069Y-132309235D01*
X130024635Y-132303205D01*
X130022776Y-132301346D01*
X130021012Y-132300615D01*
X130017122Y-132297834D01*
X130001733Y-132292629D01*
X129986728Y-132286414D01*
X129983354Y-132286414D01*
X129980161Y-132285334D01*
X129963958Y-132286414D01*
X129947710Y-132286414D01*
X129944594Y-132287704D01*
X129941229Y-132287929D01*
X129926668Y-132295129D01*
X129911662Y-132301346D01*
X129909277Y-132303730D01*
X129906254Y-132305226D01*
X129895556Y-132317451D01*
X129884072Y-132328936D01*
X129882781Y-132332050D01*
X129880560Y-132334590D01*
X129875355Y-132349978D01*
X129869140Y-132364984D01*
X129868671Y-132369743D01*
X129868060Y-132371551D01*
X129868234Y-132374175D01*
X129867219Y-132384493D01*
X129756108Y-132384493D01*
X129756108Y-132173382D01*
X131178330Y-132173382D01*
X131178330Y-135022254D01*
G37*
D12*
X128544295Y-131110839D02*
X127744295Y-131110839D01*
X127744295Y-131110839D02*
X127744295Y-130920363D01*
X127744295Y-130920363D02*
X127782390Y-130806077D01*
X127782390Y-130806077D02*
X127858580Y-130729887D01*
X127858580Y-130729887D02*
X127934771Y-130691792D01*
X127934771Y-130691792D02*
X128087152Y-130653696D01*
X128087152Y-130653696D02*
X128201438Y-130653696D01*
X128201438Y-130653696D02*
X128353819Y-130691792D01*
X128353819Y-130691792D02*
X128430009Y-130729887D01*
X128430009Y-130729887D02*
X128506200Y-130806077D01*
X128506200Y-130806077D02*
X128544295Y-130920363D01*
X128544295Y-130920363D02*
X128544295Y-131110839D01*
X127820485Y-130348935D02*
X127782390Y-130310839D01*
X127782390Y-130310839D02*
X127744295Y-130234649D01*
X127744295Y-130234649D02*
X127744295Y-130044173D01*
X127744295Y-130044173D02*
X127782390Y-129967982D01*
X127782390Y-129967982D02*
X127820485Y-129929887D01*
X127820485Y-129929887D02*
X127896676Y-129891792D01*
X127896676Y-129891792D02*
X127972866Y-129891792D01*
X127972866Y-129891792D02*
X128087152Y-129929887D01*
X128087152Y-129929887D02*
X128544295Y-130387030D01*
X128544295Y-130387030D02*
X128544295Y-129891792D01*
D11*
G36*
X126573236Y-110092051D02*
G01*
X126637414Y-110156228D01*
X126667219Y-110215838D01*
X126667219Y-110359100D01*
X126637414Y-110418709D01*
X126573236Y-110482886D01*
X126421575Y-110520802D01*
X126112861Y-110520802D01*
X125961202Y-110482887D01*
X125897023Y-110418708D01*
X125867219Y-110359099D01*
X125867219Y-110215838D01*
X125897023Y-110156229D01*
X125961202Y-110092050D01*
X126112861Y-110054136D01*
X126421575Y-110054136D01*
X126573236Y-110092051D01*
G37*
G36*
X126573236Y-109044432D02*
G01*
X126637414Y-109108609D01*
X126667219Y-109168219D01*
X126667219Y-109311481D01*
X126637414Y-109371090D01*
X126573236Y-109435267D01*
X126421575Y-109473183D01*
X126112861Y-109473183D01*
X125961202Y-109435268D01*
X125897023Y-109371089D01*
X125867219Y-109311480D01*
X125867219Y-109168219D01*
X125897023Y-109108610D01*
X125961202Y-109044431D01*
X126112861Y-109006517D01*
X126421575Y-109006517D01*
X126573236Y-109044432D01*
G37*
G36*
X126494218Y-108048487D02*
G01*
X126565127Y-108083941D01*
X126632197Y-108151011D01*
X126667219Y-108256076D01*
X126667219Y-108377945D01*
X125867219Y-108377945D01*
X125867219Y-108256077D01*
X125902240Y-108151012D01*
X125969313Y-108083940D01*
X126040218Y-108048487D01*
X126208099Y-108006517D01*
X126326337Y-108006517D01*
X126494218Y-108048487D01*
G37*
G36*
X126978330Y-111641437D02*
G01*
X125556108Y-111641437D01*
X125556108Y-110954136D01*
X125667219Y-110954136D01*
X125667219Y-111430326D01*
X125669140Y-111449835D01*
X125684072Y-111485883D01*
X125711662Y-111513473D01*
X125747710Y-111528405D01*
X125767219Y-111530326D01*
X126767219Y-111530326D01*
X126786728Y-111528405D01*
X126822776Y-111513473D01*
X126850366Y-111485883D01*
X126865298Y-111449835D01*
X126865298Y-111410817D01*
X126850366Y-111374769D01*
X126822776Y-111347179D01*
X126786728Y-111332247D01*
X126767219Y-111330326D01*
X126343409Y-111330326D01*
X126343409Y-111096993D01*
X126341488Y-111077484D01*
X126326556Y-111041436D01*
X126298966Y-111013846D01*
X126262918Y-110998914D01*
X126223900Y-110998914D01*
X126187852Y-111013846D01*
X126160262Y-111041436D01*
X126145330Y-111077484D01*
X126143409Y-111096993D01*
X126143409Y-111330326D01*
X125867219Y-111330326D01*
X125867219Y-110954136D01*
X125865298Y-110934627D01*
X125850366Y-110898579D01*
X125822776Y-110870989D01*
X125786728Y-110856057D01*
X125747710Y-110856057D01*
X125711662Y-110870989D01*
X125684072Y-110898579D01*
X125669140Y-110934627D01*
X125667219Y-110954136D01*
X125556108Y-110954136D01*
X125556108Y-110192231D01*
X125667219Y-110192231D01*
X125667219Y-110382707D01*
X125669140Y-110402216D01*
X125670515Y-110405536D01*
X125670770Y-110409120D01*
X125677776Y-110427428D01*
X125725395Y-110522666D01*
X125730680Y-110531062D01*
X125731691Y-110533502D01*
X125733944Y-110536248D01*
X125735838Y-110539256D01*
X125737832Y-110540985D01*
X125744127Y-110548656D01*
X125839365Y-110643894D01*
X125854519Y-110656330D01*
X125861387Y-110659175D01*
X125867362Y-110663602D01*
X125885822Y-110670197D01*
X126076298Y-110717816D01*
X126079679Y-110718316D01*
X126081043Y-110718881D01*
X126088393Y-110719604D01*
X126095691Y-110720684D01*
X126097149Y-110720466D01*
X126100552Y-110720802D01*
X126433885Y-110720802D01*
X126437287Y-110720466D01*
X126438746Y-110720684D01*
X126446043Y-110719604D01*
X126453394Y-110718881D01*
X126454757Y-110718316D01*
X126458139Y-110717816D01*
X126648614Y-110670197D01*
X126667075Y-110663602D01*
X126673047Y-110659176D01*
X126679918Y-110656331D01*
X126695071Y-110643894D01*
X126790311Y-110548656D01*
X126796604Y-110540987D01*
X126798600Y-110539257D01*
X126800493Y-110536249D01*
X126802747Y-110533503D01*
X126803757Y-110531062D01*
X126809043Y-110522666D01*
X126856662Y-110427429D01*
X126863668Y-110409120D01*
X126863922Y-110405536D01*
X126865298Y-110402216D01*
X126867219Y-110382707D01*
X126867219Y-110192231D01*
X126865298Y-110172722D01*
X126863922Y-110169401D01*
X126863668Y-110165818D01*
X126856662Y-110147509D01*
X126809043Y-110052272D01*
X126803757Y-110043875D01*
X126802747Y-110041435D01*
X126800493Y-110038688D01*
X126798600Y-110035681D01*
X126796604Y-110033950D01*
X126790311Y-110026282D01*
X126695071Y-109931044D01*
X126679918Y-109918607D01*
X126673047Y-109915761D01*
X126667075Y-109911336D01*
X126648614Y-109904741D01*
X126458139Y-109857122D01*
X126454757Y-109856621D01*
X126453394Y-109856057D01*
X126446043Y-109855333D01*
X126438746Y-109854254D01*
X126437287Y-109854471D01*
X126433885Y-109854136D01*
X126100552Y-109854136D01*
X126097149Y-109854471D01*
X126095691Y-109854254D01*
X126088393Y-109855333D01*
X126081043Y-109856057D01*
X126079679Y-109856621D01*
X126076298Y-109857122D01*
X125885822Y-109904741D01*
X125867362Y-109911336D01*
X125861387Y-109915762D01*
X125854519Y-109918608D01*
X125839365Y-109931044D01*
X125744127Y-110026282D01*
X125737832Y-110033952D01*
X125735838Y-110035682D01*
X125733944Y-110038689D01*
X125731691Y-110041436D01*
X125730680Y-110043875D01*
X125725395Y-110052272D01*
X125677776Y-110147510D01*
X125670770Y-110165818D01*
X125670515Y-110169401D01*
X125669140Y-110172722D01*
X125667219Y-110192231D01*
X125556108Y-110192231D01*
X125556108Y-109144612D01*
X125667219Y-109144612D01*
X125667219Y-109335088D01*
X125669140Y-109354597D01*
X125670515Y-109357917D01*
X125670770Y-109361501D01*
X125677776Y-109379809D01*
X125725395Y-109475047D01*
X125730680Y-109483443D01*
X125731691Y-109485883D01*
X125733944Y-109488629D01*
X125735838Y-109491637D01*
X125737832Y-109493366D01*
X125744127Y-109501037D01*
X125839365Y-109596275D01*
X125854519Y-109608711D01*
X125861387Y-109611556D01*
X125867362Y-109615983D01*
X125885822Y-109622578D01*
X126076298Y-109670197D01*
X126079679Y-109670697D01*
X126081043Y-109671262D01*
X126088393Y-109671985D01*
X126095691Y-109673065D01*
X126097149Y-109672847D01*
X126100552Y-109673183D01*
X126433885Y-109673183D01*
X126437287Y-109672847D01*
X126438746Y-109673065D01*
X126446043Y-109671985D01*
X126453394Y-109671262D01*
X126454757Y-109670697D01*
X126458139Y-109670197D01*
X126648614Y-109622578D01*
X126667075Y-109615983D01*
X126673047Y-109611557D01*
X126679918Y-109608712D01*
X126695071Y-109596275D01*
X126790311Y-109501037D01*
X126796604Y-109493368D01*
X126798600Y-109491638D01*
X126800493Y-109488630D01*
X126802747Y-109485884D01*
X126803757Y-109483443D01*
X126809043Y-109475047D01*
X126856662Y-109379810D01*
X126863668Y-109361501D01*
X126863922Y-109357917D01*
X126865298Y-109354597D01*
X126867219Y-109335088D01*
X126867219Y-109144612D01*
X126865298Y-109125103D01*
X126863922Y-109121782D01*
X126863668Y-109118199D01*
X126856662Y-109099890D01*
X126809043Y-109004653D01*
X126803757Y-108996256D01*
X126802747Y-108993816D01*
X126800493Y-108991069D01*
X126798600Y-108988062D01*
X126796604Y-108986331D01*
X126790311Y-108978663D01*
X126695071Y-108883425D01*
X126679918Y-108870988D01*
X126673047Y-108868142D01*
X126667075Y-108863717D01*
X126648614Y-108857122D01*
X126458139Y-108809503D01*
X126454757Y-108809002D01*
X126453394Y-108808438D01*
X126446043Y-108807714D01*
X126438746Y-108806635D01*
X126437287Y-108806852D01*
X126433885Y-108806517D01*
X126100552Y-108806517D01*
X126097149Y-108806852D01*
X126095691Y-108806635D01*
X126088393Y-108807714D01*
X126081043Y-108808438D01*
X126079679Y-108809002D01*
X126076298Y-108809503D01*
X125885822Y-108857122D01*
X125867362Y-108863717D01*
X125861387Y-108868143D01*
X125854519Y-108870989D01*
X125839365Y-108883425D01*
X125744127Y-108978663D01*
X125737832Y-108986333D01*
X125735838Y-108988063D01*
X125733944Y-108991070D01*
X125731691Y-108993817D01*
X125730680Y-108996256D01*
X125725395Y-109004653D01*
X125677776Y-109099891D01*
X125670770Y-109118199D01*
X125670515Y-109121782D01*
X125669140Y-109125103D01*
X125667219Y-109144612D01*
X125556108Y-109144612D01*
X125556108Y-108239850D01*
X125667219Y-108239850D01*
X125667219Y-108477945D01*
X125669140Y-108497454D01*
X125684072Y-108533502D01*
X125711662Y-108561092D01*
X125747710Y-108576024D01*
X125767219Y-108577945D01*
X126767219Y-108577945D01*
X126786728Y-108576024D01*
X126822776Y-108561092D01*
X126850366Y-108533502D01*
X126865298Y-108497454D01*
X126867219Y-108477945D01*
X126867219Y-108239850D01*
X126866246Y-108229976D01*
X126866434Y-108227342D01*
X126865646Y-108223878D01*
X126865298Y-108220341D01*
X126864286Y-108217899D01*
X126862087Y-108208227D01*
X126814468Y-108065370D01*
X126806477Y-108047470D01*
X126804122Y-108044754D01*
X126802747Y-108041435D01*
X126790311Y-108026282D01*
X126695071Y-107931044D01*
X126687401Y-107924749D01*
X126685672Y-107922755D01*
X126682667Y-107920863D01*
X126679918Y-107918607D01*
X126677474Y-107917594D01*
X126669082Y-107912312D01*
X126573844Y-107864693D01*
X126572417Y-107864147D01*
X126571837Y-107863717D01*
X126563660Y-107860795D01*
X126555536Y-107857687D01*
X126554813Y-107857635D01*
X126553376Y-107857122D01*
X126362901Y-107809503D01*
X126359519Y-107809002D01*
X126358156Y-107808438D01*
X126350805Y-107807714D01*
X126343508Y-107806635D01*
X126342049Y-107806852D01*
X126338647Y-107806517D01*
X126195790Y-107806517D01*
X126192387Y-107806852D01*
X126190929Y-107806635D01*
X126183631Y-107807714D01*
X126176281Y-107808438D01*
X126174917Y-107809002D01*
X126171536Y-107809503D01*
X125981060Y-107857122D01*
X125979621Y-107857635D01*
X125978901Y-107857687D01*
X125970776Y-107860795D01*
X125962600Y-107863717D01*
X125962020Y-107864146D01*
X125960592Y-107864693D01*
X125865355Y-107912312D01*
X125856956Y-107917598D01*
X125854519Y-107918608D01*
X125851775Y-107920859D01*
X125848764Y-107922755D01*
X125847031Y-107924752D01*
X125839365Y-107931044D01*
X125744127Y-108026282D01*
X125731691Y-108041436D01*
X125730316Y-108044754D01*
X125727961Y-108047470D01*
X125719970Y-108065371D01*
X125672351Y-108208227D01*
X125670151Y-108217898D01*
X125669140Y-108220341D01*
X125668791Y-108223879D01*
X125668004Y-108227343D01*
X125668191Y-108229976D01*
X125667219Y-108239850D01*
X125556108Y-108239850D01*
X125556108Y-107695406D01*
X126978330Y-107695406D01*
X126978330Y-111641437D01*
G37*
G36*
X160310891Y-93902240D02*
G01*
X160377964Y-93969313D01*
X160413416Y-94040218D01*
X160455387Y-94208099D01*
X160455387Y-94326337D01*
X160413416Y-94494218D01*
X160377963Y-94565124D01*
X160310892Y-94632197D01*
X160205827Y-94667219D01*
X160083959Y-94667219D01*
X160083959Y-93867219D01*
X160205827Y-93867219D01*
X160310891Y-93902240D01*
G37*
G36*
X161716958Y-94978330D02*
G01*
X158058562Y-94978330D01*
X158058562Y-93767219D01*
X158169673Y-93767219D01*
X158169673Y-94767219D01*
X158171594Y-94786728D01*
X158186526Y-94822776D01*
X158214116Y-94850366D01*
X158250164Y-94865298D01*
X158269673Y-94867219D01*
X158745863Y-94867219D01*
X158765372Y-94865298D01*
X158801420Y-94850366D01*
X158829010Y-94822776D01*
X158843942Y-94786728D01*
X158843942Y-94747710D01*
X158829010Y-94711662D01*
X158801420Y-94684072D01*
X158765372Y-94669140D01*
X158745863Y-94667219D01*
X158369673Y-94667219D01*
X158369673Y-93767219D01*
X158979197Y-93767219D01*
X158979197Y-94767219D01*
X158981118Y-94786728D01*
X158996050Y-94822776D01*
X159023640Y-94850366D01*
X159059688Y-94865298D01*
X159079197Y-94867219D01*
X159555387Y-94867219D01*
X159574896Y-94865298D01*
X159610944Y-94850366D01*
X159638534Y-94822776D01*
X159653466Y-94786728D01*
X159653466Y-94747710D01*
X159638534Y-94711662D01*
X159610944Y-94684072D01*
X159574896Y-94669140D01*
X159555387Y-94667219D01*
X159179197Y-94667219D01*
X159179197Y-94343409D01*
X159412530Y-94343409D01*
X159432039Y-94341488D01*
X159468087Y-94326556D01*
X159495677Y-94298966D01*
X159510609Y-94262918D01*
X159510609Y-94223900D01*
X159495677Y-94187852D01*
X159468087Y-94160262D01*
X159432039Y-94145330D01*
X159412530Y-94143409D01*
X159179197Y-94143409D01*
X159179197Y-93867219D01*
X159555387Y-93867219D01*
X159574896Y-93865298D01*
X159610944Y-93850366D01*
X159638534Y-93822776D01*
X159653466Y-93786728D01*
X159653466Y-93767219D01*
X159883959Y-93767219D01*
X159883959Y-94767219D01*
X159885880Y-94786728D01*
X159900812Y-94822776D01*
X159928402Y-94850366D01*
X159964450Y-94865298D01*
X159983959Y-94867219D01*
X160222054Y-94867219D01*
X160231927Y-94866246D01*
X160234561Y-94866434D01*
X160238024Y-94865646D01*
X160241563Y-94865298D01*
X160244005Y-94864286D01*
X160253677Y-94862087D01*
X160396533Y-94814468D01*
X160414434Y-94806477D01*
X160417149Y-94804122D01*
X160420469Y-94802747D01*
X160435622Y-94790310D01*
X160530860Y-94695071D01*
X160537152Y-94687404D01*
X160539149Y-94685673D01*
X160541042Y-94682665D01*
X160543297Y-94679918D01*
X160544308Y-94677476D01*
X160549592Y-94669082D01*
X160597211Y-94573845D01*
X160597757Y-94572416D01*
X160598187Y-94571837D01*
X160601108Y-94563660D01*
X160604217Y-94555536D01*
X160604268Y-94554815D01*
X160604782Y-94553377D01*
X160652401Y-94362901D01*
X160652901Y-94359519D01*
X160653466Y-94358156D01*
X160654189Y-94350805D01*
X160655269Y-94343508D01*
X160655051Y-94342049D01*
X160655387Y-94338647D01*
X160655387Y-94195790D01*
X160655051Y-94192387D01*
X160655269Y-94190929D01*
X160654189Y-94183631D01*
X160653466Y-94176281D01*
X160652901Y-94174917D01*
X160652401Y-94171536D01*
X160619623Y-94040426D01*
X160837125Y-94040426D01*
X160839891Y-94079346D01*
X160857340Y-94114245D01*
X160886817Y-94139809D01*
X160923833Y-94152148D01*
X160962753Y-94149382D01*
X160981061Y-94142376D01*
X161076299Y-94094757D01*
X161084695Y-94089471D01*
X161087135Y-94088461D01*
X161089881Y-94086207D01*
X161092889Y-94084314D01*
X161094618Y-94082319D01*
X161102289Y-94076025D01*
X161122054Y-94056260D01*
X161122054Y-94667219D01*
X160936340Y-94667219D01*
X160916831Y-94669140D01*
X160880783Y-94684072D01*
X160853193Y-94711662D01*
X160838261Y-94747710D01*
X160838261Y-94786728D01*
X160853193Y-94822776D01*
X160880783Y-94850366D01*
X160916831Y-94865298D01*
X160936340Y-94867219D01*
X161507768Y-94867219D01*
X161527277Y-94865298D01*
X161563325Y-94850366D01*
X161590915Y-94822776D01*
X161605847Y-94786728D01*
X161605847Y-94747710D01*
X161590915Y-94711662D01*
X161563325Y-94684072D01*
X161527277Y-94669140D01*
X161507768Y-94667219D01*
X161322054Y-94667219D01*
X161322054Y-93767219D01*
X161322047Y-93767148D01*
X161322054Y-93767114D01*
X161322033Y-93767012D01*
X161320133Y-93747710D01*
X161316343Y-93738561D01*
X161314402Y-93728854D01*
X161308950Y-93720713D01*
X161305201Y-93711662D01*
X161298201Y-93704662D01*
X161292691Y-93696434D01*
X161284536Y-93690997D01*
X161277611Y-93684072D01*
X161268467Y-93680284D01*
X161260226Y-93674790D01*
X161250612Y-93672888D01*
X161241563Y-93669140D01*
X161231662Y-93669140D01*
X161221950Y-93667219D01*
X161212345Y-93669140D01*
X161202545Y-93669140D01*
X161193396Y-93672929D01*
X161183689Y-93674871D01*
X161175548Y-93680322D01*
X161166497Y-93684072D01*
X161159497Y-93691071D01*
X161151269Y-93696582D01*
X161138980Y-93711588D01*
X161138907Y-93711662D01*
X161138893Y-93711694D01*
X161138849Y-93711749D01*
X161049105Y-93846365D01*
X160972341Y-93923128D01*
X160891619Y-93963490D01*
X160875028Y-93973933D01*
X160849464Y-94003410D01*
X160837125Y-94040426D01*
X160619623Y-94040426D01*
X160604782Y-93981060D01*
X160604268Y-93979621D01*
X160604217Y-93978901D01*
X160601108Y-93970776D01*
X160598187Y-93962600D01*
X160597757Y-93962020D01*
X160597211Y-93960592D01*
X160549592Y-93865355D01*
X160544305Y-93856956D01*
X160543296Y-93854519D01*
X160541044Y-93851775D01*
X160539149Y-93848764D01*
X160537151Y-93847031D01*
X160530860Y-93839365D01*
X160435622Y-93744127D01*
X160420468Y-93731691D01*
X160417149Y-93730316D01*
X160414434Y-93727961D01*
X160396533Y-93719970D01*
X160253677Y-93672351D01*
X160244005Y-93670151D01*
X160241563Y-93669140D01*
X160238024Y-93668791D01*
X160234561Y-93668004D01*
X160231927Y-93668191D01*
X160222054Y-93667219D01*
X159983959Y-93667219D01*
X159964450Y-93669140D01*
X159928402Y-93684072D01*
X159900812Y-93711662D01*
X159885880Y-93747710D01*
X159883959Y-93767219D01*
X159653466Y-93767219D01*
X159653466Y-93747710D01*
X159638534Y-93711662D01*
X159610944Y-93684072D01*
X159574896Y-93669140D01*
X159555387Y-93667219D01*
X159079197Y-93667219D01*
X159059688Y-93669140D01*
X159023640Y-93684072D01*
X158996050Y-93711662D01*
X158981118Y-93747710D01*
X158979197Y-93767219D01*
X158369673Y-93767219D01*
X158367752Y-93747710D01*
X158352820Y-93711662D01*
X158325230Y-93684072D01*
X158289182Y-93669140D01*
X158250164Y-93669140D01*
X158214116Y-93684072D01*
X158186526Y-93711662D01*
X158171594Y-93747710D01*
X158169673Y-93767219D01*
X158058562Y-93767219D01*
X158058562Y-93556108D01*
X161716958Y-93556108D01*
X161716958Y-94978330D01*
G37*
G36*
X127899831Y-99278330D02*
G01*
X122858562Y-99278330D01*
X122858562Y-98067219D01*
X122969673Y-98067219D01*
X122969673Y-99067219D01*
X122971594Y-99086728D01*
X122986526Y-99122776D01*
X123014116Y-99150366D01*
X123050164Y-99165298D01*
X123069673Y-99167219D01*
X123545863Y-99167219D01*
X123565372Y-99165298D01*
X123601420Y-99150366D01*
X123629010Y-99122776D01*
X123643942Y-99086728D01*
X123643942Y-99047710D01*
X123629010Y-99011662D01*
X123601420Y-98984072D01*
X123565372Y-98969140D01*
X123545863Y-98967219D01*
X123169673Y-98967219D01*
X123169673Y-98067219D01*
X123779197Y-98067219D01*
X123779197Y-99067219D01*
X123781118Y-99086728D01*
X123796050Y-99122776D01*
X123823640Y-99150366D01*
X123859688Y-99165298D01*
X123898706Y-99165298D01*
X123934754Y-99150366D01*
X123962344Y-99122776D01*
X123977276Y-99086728D01*
X123979197Y-99067219D01*
X123979197Y-98495790D01*
X124207768Y-98495790D01*
X124207768Y-98638647D01*
X124208103Y-98642049D01*
X124207886Y-98643508D01*
X124208965Y-98650805D01*
X124209689Y-98658156D01*
X124210253Y-98659519D01*
X124210754Y-98662901D01*
X124258373Y-98853376D01*
X124258886Y-98854813D01*
X124258938Y-98855536D01*
X124262046Y-98863660D01*
X124264968Y-98871837D01*
X124265398Y-98872417D01*
X124265944Y-98873844D01*
X124313563Y-98969082D01*
X124318845Y-98977474D01*
X124319858Y-98979918D01*
X124322114Y-98982667D01*
X124324006Y-98985672D01*
X124326000Y-98987401D01*
X124332295Y-98995071D01*
X124427533Y-99090311D01*
X124442686Y-99102747D01*
X124446005Y-99104122D01*
X124448721Y-99106477D01*
X124466621Y-99114468D01*
X124609478Y-99162087D01*
X124619150Y-99164286D01*
X124621592Y-99165298D01*
X124625129Y-99165646D01*
X124628593Y-99166434D01*
X124631227Y-99166246D01*
X124641101Y-99167219D01*
X124736339Y-99167219D01*
X124746212Y-99166246D01*
X124748846Y-99166434D01*
X124752309Y-99165646D01*
X124755848Y-99165298D01*
X124758290Y-99164286D01*
X124767962Y-99162087D01*
X124910818Y-99114468D01*
X124928719Y-99106477D01*
X124931434Y-99104122D01*
X124934754Y-99102747D01*
X124949907Y-99090310D01*
X124997526Y-99042690D01*
X125009963Y-99027537D01*
X125023410Y-98995071D01*
X125024894Y-98991489D01*
X125026815Y-98971980D01*
X125026815Y-98638647D01*
X125024894Y-98619138D01*
X125009962Y-98583090D01*
X124982372Y-98555500D01*
X124946324Y-98540568D01*
X124926815Y-98538647D01*
X124736339Y-98538647D01*
X124716830Y-98540568D01*
X124680782Y-98555500D01*
X124653192Y-98583090D01*
X124638260Y-98619138D01*
X124638260Y-98658156D01*
X124653192Y-98694204D01*
X124680782Y-98721794D01*
X124716830Y-98736726D01*
X124736339Y-98738647D01*
X124826815Y-98738647D01*
X124826815Y-98930559D01*
X124825176Y-98932197D01*
X124720112Y-98967219D01*
X124657327Y-98967219D01*
X124552262Y-98932197D01*
X124485192Y-98865127D01*
X124449738Y-98794218D01*
X124407768Y-98626337D01*
X124407768Y-98508100D01*
X124449738Y-98340218D01*
X124485191Y-98269312D01*
X124552263Y-98202240D01*
X124657327Y-98167219D01*
X124760351Y-98167219D01*
X124834474Y-98204281D01*
X124852783Y-98211287D01*
X124891703Y-98214053D01*
X124928719Y-98201714D01*
X124958196Y-98176149D01*
X124975645Y-98141251D01*
X124978410Y-98102331D01*
X124966707Y-98067219D01*
X125255387Y-98067219D01*
X125255387Y-99067219D01*
X125257308Y-99086728D01*
X125272240Y-99122776D01*
X125299830Y-99150366D01*
X125335878Y-99165298D01*
X125374896Y-99165298D01*
X125410944Y-99150366D01*
X125438534Y-99122776D01*
X125453466Y-99086728D01*
X125455387Y-99067219D01*
X125455387Y-98643409D01*
X125826815Y-98643409D01*
X125826815Y-99067219D01*
X125828736Y-99086728D01*
X125843668Y-99122776D01*
X125871258Y-99150366D01*
X125907306Y-99165298D01*
X125946324Y-99165298D01*
X125982372Y-99150366D01*
X126009962Y-99122776D01*
X126024894Y-99086728D01*
X126026815Y-99067219D01*
X126026815Y-98067219D01*
X126024894Y-98047710D01*
X126162070Y-98047710D01*
X126162070Y-98086728D01*
X126177002Y-98122776D01*
X126204592Y-98150366D01*
X126240640Y-98165298D01*
X126260149Y-98167219D01*
X126445863Y-98167219D01*
X126445863Y-99067219D01*
X126447784Y-99086728D01*
X126462716Y-99122776D01*
X126490306Y-99150366D01*
X126526354Y-99165298D01*
X126565372Y-99165298D01*
X126601420Y-99150366D01*
X126629010Y-99122776D01*
X126643942Y-99086728D01*
X126645863Y-99067219D01*
X126645863Y-98257695D01*
X127017292Y-98257695D01*
X127017292Y-98352933D01*
X127019213Y-98372442D01*
X127020588Y-98375762D01*
X127020843Y-98379346D01*
X127027849Y-98397654D01*
X127075468Y-98492892D01*
X127080753Y-98501288D01*
X127081764Y-98503728D01*
X127084017Y-98506474D01*
X127085911Y-98509482D01*
X127087905Y-98511211D01*
X127094200Y-98518882D01*
X127141819Y-98566500D01*
X127149485Y-98572792D01*
X127151218Y-98574790D01*
X127154226Y-98576683D01*
X127156972Y-98578937D01*
X127159412Y-98579947D01*
X127167809Y-98585233D01*
X127263046Y-98632852D01*
X127264474Y-98633398D01*
X127265054Y-98633828D01*
X127273230Y-98636749D01*
X127281355Y-98639858D01*
X127282075Y-98639909D01*
X127283514Y-98640423D01*
X127463339Y-98685379D01*
X127534246Y-98720833D01*
X127558915Y-98745501D01*
X127588720Y-98805111D01*
X127588720Y-98853135D01*
X127558915Y-98912743D01*
X127534246Y-98937413D01*
X127474637Y-98967219D01*
X127276375Y-98967219D01*
X127148915Y-98924732D01*
X127129799Y-98920385D01*
X127090879Y-98923151D01*
X127055980Y-98940601D01*
X127030415Y-98970077D01*
X127018077Y-99007093D01*
X127020843Y-99046013D01*
X127038293Y-99080912D01*
X127067769Y-99106477D01*
X127085669Y-99114468D01*
X127228526Y-99162087D01*
X127238198Y-99164286D01*
X127240640Y-99165298D01*
X127244177Y-99165646D01*
X127247641Y-99166434D01*
X127250275Y-99166246D01*
X127260149Y-99167219D01*
X127498244Y-99167219D01*
X127517753Y-99165298D01*
X127521073Y-99163922D01*
X127524657Y-99163668D01*
X127542965Y-99156662D01*
X127638203Y-99109043D01*
X127646598Y-99103758D01*
X127649040Y-99102747D01*
X127651787Y-99100491D01*
X127654793Y-99098600D01*
X127656523Y-99096605D01*
X127664193Y-99090310D01*
X127711812Y-99042690D01*
X127718104Y-99035023D01*
X127720101Y-99033292D01*
X127721994Y-99030284D01*
X127724249Y-99027537D01*
X127725260Y-99025095D01*
X127730544Y-99016701D01*
X127778163Y-98921464D01*
X127785169Y-98903155D01*
X127785423Y-98899571D01*
X127786799Y-98896251D01*
X127788720Y-98876742D01*
X127788720Y-98781504D01*
X127786799Y-98761995D01*
X127785423Y-98758674D01*
X127785169Y-98755091D01*
X127778163Y-98736782D01*
X127730544Y-98641545D01*
X127725258Y-98633148D01*
X127724248Y-98630708D01*
X127721994Y-98627962D01*
X127720101Y-98624954D01*
X127718103Y-98623221D01*
X127711811Y-98615555D01*
X127664193Y-98567936D01*
X127656522Y-98561641D01*
X127654793Y-98559647D01*
X127651785Y-98557753D01*
X127649039Y-98555500D01*
X127646599Y-98554489D01*
X127638203Y-98549204D01*
X127542965Y-98501585D01*
X127541538Y-98501039D01*
X127540958Y-98500609D01*
X127532781Y-98497687D01*
X127524657Y-98494579D01*
X127523934Y-98494527D01*
X127522497Y-98494014D01*
X127342672Y-98449057D01*
X127271765Y-98413604D01*
X127247097Y-98388935D01*
X127217292Y-98329325D01*
X127217292Y-98281302D01*
X127247097Y-98221692D01*
X127271765Y-98197023D01*
X127331375Y-98167219D01*
X127529636Y-98167219D01*
X127657097Y-98209706D01*
X127676212Y-98214053D01*
X127715132Y-98211287D01*
X127750031Y-98193837D01*
X127775596Y-98164361D01*
X127787935Y-98127345D01*
X127785168Y-98088425D01*
X127767719Y-98053526D01*
X127738243Y-98027961D01*
X127720342Y-98019970D01*
X127577486Y-97972351D01*
X127567814Y-97970151D01*
X127565372Y-97969140D01*
X127561833Y-97968791D01*
X127558370Y-97968004D01*
X127555736Y-97968191D01*
X127545863Y-97967219D01*
X127307768Y-97967219D01*
X127288259Y-97969140D01*
X127284938Y-97970515D01*
X127281355Y-97970770D01*
X127263046Y-97977776D01*
X127167809Y-98025395D01*
X127159412Y-98030680D01*
X127156972Y-98031691D01*
X127154226Y-98033944D01*
X127151218Y-98035838D01*
X127149485Y-98037835D01*
X127141819Y-98044128D01*
X127094200Y-98091746D01*
X127087905Y-98099416D01*
X127085911Y-98101146D01*
X127084017Y-98104153D01*
X127081764Y-98106900D01*
X127080753Y-98109339D01*
X127075468Y-98117736D01*
X127027849Y-98212974D01*
X127020843Y-98231282D01*
X127020588Y-98234865D01*
X127019213Y-98238186D01*
X127017292Y-98257695D01*
X126645863Y-98257695D01*
X126645863Y-98167219D01*
X126831577Y-98167219D01*
X126851086Y-98165298D01*
X126887134Y-98150366D01*
X126914724Y-98122776D01*
X126929656Y-98086728D01*
X126929656Y-98047710D01*
X126914724Y-98011662D01*
X126887134Y-97984072D01*
X126851086Y-97969140D01*
X126831577Y-97967219D01*
X126260149Y-97967219D01*
X126240640Y-97969140D01*
X126204592Y-97984072D01*
X126177002Y-98011662D01*
X126162070Y-98047710D01*
X126024894Y-98047710D01*
X126009962Y-98011662D01*
X125982372Y-97984072D01*
X125946324Y-97969140D01*
X125907306Y-97969140D01*
X125871258Y-97984072D01*
X125843668Y-98011662D01*
X125828736Y-98047710D01*
X125826815Y-98067219D01*
X125826815Y-98443409D01*
X125455387Y-98443409D01*
X125455387Y-98067219D01*
X125453466Y-98047710D01*
X125438534Y-98011662D01*
X125410944Y-97984072D01*
X125374896Y-97969140D01*
X125335878Y-97969140D01*
X125299830Y-97984072D01*
X125272240Y-98011662D01*
X125257308Y-98047710D01*
X125255387Y-98067219D01*
X124966707Y-98067219D01*
X124966072Y-98065315D01*
X124940507Y-98035838D01*
X124923917Y-98025395D01*
X124828679Y-97977776D01*
X124810371Y-97970770D01*
X124806787Y-97970515D01*
X124803467Y-97969140D01*
X124783958Y-97967219D01*
X124641101Y-97967219D01*
X124631227Y-97968191D01*
X124628593Y-97968004D01*
X124625129Y-97968791D01*
X124621592Y-97969140D01*
X124619150Y-97970151D01*
X124609478Y-97972351D01*
X124466621Y-98019970D01*
X124448721Y-98027961D01*
X124446005Y-98030316D01*
X124442687Y-98031691D01*
X124427533Y-98044127D01*
X124332295Y-98139365D01*
X124326000Y-98147035D01*
X124324006Y-98148765D01*
X124322112Y-98151772D01*
X124319859Y-98154519D01*
X124318848Y-98156958D01*
X124313563Y-98165355D01*
X124265944Y-98260593D01*
X124265398Y-98262019D01*
X124264968Y-98262600D01*
X124262046Y-98270776D01*
X124258938Y-98278901D01*
X124258886Y-98279623D01*
X124258373Y-98281061D01*
X124210754Y-98471536D01*
X124210253Y-98474917D01*
X124209689Y-98476281D01*
X124208965Y-98483631D01*
X124207886Y-98490929D01*
X124208103Y-98492387D01*
X124207768Y-98495790D01*
X123979197Y-98495790D01*
X123979197Y-98067219D01*
X123977276Y-98047710D01*
X123962344Y-98011662D01*
X123934754Y-97984072D01*
X123898706Y-97969140D01*
X123859688Y-97969140D01*
X123823640Y-97984072D01*
X123796050Y-98011662D01*
X123781118Y-98047710D01*
X123779197Y-98067219D01*
X123169673Y-98067219D01*
X123167752Y-98047710D01*
X123152820Y-98011662D01*
X123125230Y-97984072D01*
X123089182Y-97969140D01*
X123050164Y-97969140D01*
X123014116Y-97984072D01*
X122986526Y-98011662D01*
X122971594Y-98047710D01*
X122969673Y-98067219D01*
X122858562Y-98067219D01*
X122858562Y-97856108D01*
X127899831Y-97856108D01*
X127899831Y-99278330D01*
G37*
G36*
X126541837Y-120481820D02*
G01*
X126612746Y-120517275D01*
X126637414Y-120541942D01*
X126667219Y-120601552D01*
X126667219Y-120649576D01*
X126637414Y-120709185D01*
X126612746Y-120733852D01*
X126541837Y-120769307D01*
X126373956Y-120811278D01*
X126160480Y-120811278D01*
X125992599Y-120769307D01*
X125921692Y-120733854D01*
X125897024Y-120709185D01*
X125867219Y-120649575D01*
X125867219Y-120601552D01*
X125897024Y-120541942D01*
X125921692Y-120517273D01*
X125992599Y-120481820D01*
X126160480Y-120439850D01*
X126373956Y-120439850D01*
X126541837Y-120481820D01*
G37*
G36*
X126978330Y-124836675D02*
G01*
X125509274Y-124836675D01*
X125509274Y-123959003D01*
X125667219Y-123959003D01*
X125674871Y-123997263D01*
X125696582Y-124029683D01*
X125711749Y-124042103D01*
X126086941Y-124292231D01*
X125711749Y-124542359D01*
X125696582Y-124554779D01*
X125674871Y-124587199D01*
X125667219Y-124625459D01*
X125674791Y-124663736D01*
X125696434Y-124696201D01*
X125728854Y-124717912D01*
X125767114Y-124725564D01*
X125805391Y-124717992D01*
X125822689Y-124708769D01*
X126267219Y-124412415D01*
X126711749Y-124708769D01*
X126729047Y-124717992D01*
X126767324Y-124725564D01*
X126805584Y-124717912D01*
X126838004Y-124696201D01*
X126859647Y-124663736D01*
X126867219Y-124625459D01*
X126859567Y-124587199D01*
X126837856Y-124554779D01*
X126822689Y-124542359D01*
X126447496Y-124292231D01*
X126822689Y-124042103D01*
X126837856Y-124029683D01*
X126859567Y-123997263D01*
X126867219Y-123959003D01*
X126859647Y-123920726D01*
X126838004Y-123888261D01*
X126805584Y-123866550D01*
X126767324Y-123858898D01*
X126729047Y-123866470D01*
X126711749Y-123875693D01*
X126267219Y-124172046D01*
X125822689Y-123875693D01*
X125805391Y-123866470D01*
X125767114Y-123858898D01*
X125728854Y-123866550D01*
X125696434Y-123888261D01*
X125674791Y-123920726D01*
X125667219Y-123959003D01*
X125509274Y-123959003D01*
X125509274Y-123558436D01*
X125669140Y-123558436D01*
X125669140Y-123597454D01*
X125684072Y-123633502D01*
X125711662Y-123661092D01*
X125747710Y-123676024D01*
X125767219Y-123677945D01*
X126767219Y-123677945D01*
X126786728Y-123676024D01*
X126822776Y-123661092D01*
X126850366Y-123633502D01*
X126865298Y-123597454D01*
X126867219Y-123577945D01*
X126867219Y-123101755D01*
X126865298Y-123082246D01*
X126850366Y-123046198D01*
X126822776Y-123018608D01*
X126786728Y-123003676D01*
X126747710Y-123003676D01*
X126711662Y-123018608D01*
X126684072Y-123046198D01*
X126669140Y-123082246D01*
X126667219Y-123101755D01*
X126667219Y-123477945D01*
X125767219Y-123477945D01*
X125747710Y-123479866D01*
X125711662Y-123494798D01*
X125684072Y-123522388D01*
X125669140Y-123558436D01*
X125509274Y-123558436D01*
X125509274Y-122565438D01*
X125620385Y-122565438D01*
X125623151Y-122604358D01*
X125640601Y-122639257D01*
X125670077Y-122664822D01*
X125687977Y-122672813D01*
X126402262Y-122910908D01*
X126411934Y-122913107D01*
X126414376Y-122914119D01*
X126416382Y-122914119D01*
X126421377Y-122915255D01*
X126437361Y-122914119D01*
X126453394Y-122914119D01*
X126456714Y-122912743D01*
X126460297Y-122912489D01*
X126474627Y-122905323D01*
X126489442Y-122899187D01*
X126491983Y-122896645D01*
X126495196Y-122895039D01*
X126505693Y-122882935D01*
X126517032Y-122871597D01*
X126518407Y-122868276D01*
X126520761Y-122865563D01*
X126525828Y-122850361D01*
X126531964Y-122835549D01*
X126532466Y-122830448D01*
X126533100Y-122828547D01*
X126532912Y-122825913D01*
X126533885Y-122816040D01*
X126533885Y-122439850D01*
X126767219Y-122439850D01*
X126786728Y-122437929D01*
X126822776Y-122422997D01*
X126850366Y-122395407D01*
X126865298Y-122359359D01*
X126865298Y-122320341D01*
X126850366Y-122284293D01*
X126822776Y-122256703D01*
X126786728Y-122241771D01*
X126767219Y-122239850D01*
X126533885Y-122239850D01*
X126533885Y-122196993D01*
X126531964Y-122177484D01*
X126517032Y-122141436D01*
X126489442Y-122113846D01*
X126453394Y-122098914D01*
X126414376Y-122098914D01*
X126378328Y-122113846D01*
X126350738Y-122141436D01*
X126335806Y-122177484D01*
X126333885Y-122196993D01*
X126333885Y-122239850D01*
X126100552Y-122239850D01*
X126081043Y-122241771D01*
X126044995Y-122256703D01*
X126017405Y-122284293D01*
X126002473Y-122320341D01*
X126002473Y-122359359D01*
X126017405Y-122395407D01*
X126044995Y-122422997D01*
X126081043Y-122437929D01*
X126100552Y-122439850D01*
X126333885Y-122439850D01*
X126333885Y-122677297D01*
X125751223Y-122483077D01*
X125732107Y-122478730D01*
X125693187Y-122481496D01*
X125658288Y-122498946D01*
X125632723Y-122528422D01*
X125620385Y-122565438D01*
X125509274Y-122565438D01*
X125509274Y-121292231D01*
X125667219Y-121292231D01*
X125667219Y-121911278D01*
X125669140Y-121930787D01*
X125684072Y-121966835D01*
X125711662Y-121994425D01*
X125747710Y-122009357D01*
X125786728Y-122009357D01*
X125822776Y-121994425D01*
X125850366Y-121966835D01*
X125865298Y-121930787D01*
X125867219Y-121911278D01*
X125867219Y-121512607D01*
X126082321Y-121700822D01*
X126090754Y-121706851D01*
X126092614Y-121708711D01*
X126094377Y-121709441D01*
X126098268Y-121712223D01*
X126113656Y-121717427D01*
X126128662Y-121723643D01*
X126132036Y-121723643D01*
X126135229Y-121724723D01*
X126151432Y-121723643D01*
X126167680Y-121723643D01*
X126170795Y-121722352D01*
X126174161Y-121722128D01*
X126188726Y-121714925D01*
X126203728Y-121708711D01*
X126206111Y-121706327D01*
X126209136Y-121704832D01*
X126219840Y-121692598D01*
X126231318Y-121681121D01*
X126232607Y-121678007D01*
X126234830Y-121675468D01*
X126240035Y-121660076D01*
X126246250Y-121645073D01*
X126246718Y-121640313D01*
X126247330Y-121638506D01*
X126247155Y-121635881D01*
X126248171Y-121625564D01*
X126248171Y-121506314D01*
X126277976Y-121446704D01*
X126302644Y-121422035D01*
X126362254Y-121392231D01*
X126553135Y-121392231D01*
X126612746Y-121422037D01*
X126637414Y-121446704D01*
X126667219Y-121506314D01*
X126667219Y-121744814D01*
X126637414Y-121804423D01*
X126601270Y-121840567D01*
X126588833Y-121855720D01*
X126573902Y-121891768D01*
X126573901Y-121930786D01*
X126588832Y-121966835D01*
X126616422Y-121994425D01*
X126652470Y-122009356D01*
X126691488Y-122009357D01*
X126727537Y-121994426D01*
X126742690Y-121981989D01*
X126790310Y-121934371D01*
X126796603Y-121926702D01*
X126798600Y-121924971D01*
X126800493Y-121921962D01*
X126802747Y-121919217D01*
X126803757Y-121916776D01*
X126809043Y-121908380D01*
X126856662Y-121813143D01*
X126863668Y-121794834D01*
X126863922Y-121791250D01*
X126865298Y-121787930D01*
X126867219Y-121768421D01*
X126867219Y-121482707D01*
X126865298Y-121463198D01*
X126863922Y-121459877D01*
X126863668Y-121456294D01*
X126856662Y-121437985D01*
X126809043Y-121342748D01*
X126803757Y-121334351D01*
X126802747Y-121331911D01*
X126800493Y-121329165D01*
X126798600Y-121326157D01*
X126796603Y-121324425D01*
X126790310Y-121316757D01*
X126742690Y-121269139D01*
X126735020Y-121262844D01*
X126733291Y-121260850D01*
X126730286Y-121258958D01*
X126727537Y-121256702D01*
X126725093Y-121255690D01*
X126716701Y-121250407D01*
X126621463Y-121202788D01*
X126603155Y-121195782D01*
X126599571Y-121195527D01*
X126596251Y-121194152D01*
X126576742Y-121192231D01*
X126338647Y-121192231D01*
X126319138Y-121194152D01*
X126315817Y-121195527D01*
X126312234Y-121195782D01*
X126293925Y-121202788D01*
X126198688Y-121250407D01*
X126190291Y-121255692D01*
X126187851Y-121256703D01*
X126185105Y-121258956D01*
X126182097Y-121260850D01*
X126180364Y-121262847D01*
X126172698Y-121269140D01*
X126125079Y-121316758D01*
X126118784Y-121324428D01*
X126116790Y-121326158D01*
X126114896Y-121329165D01*
X126112643Y-121331912D01*
X126111632Y-121334351D01*
X126106347Y-121342748D01*
X126066923Y-121421595D01*
X125833069Y-121216973D01*
X125824635Y-121210943D01*
X125822776Y-121209084D01*
X125821012Y-121208353D01*
X125817122Y-121205572D01*
X125801733Y-121200367D01*
X125786728Y-121194152D01*
X125783354Y-121194152D01*
X125780161Y-121193072D01*
X125763958Y-121194152D01*
X125747710Y-121194152D01*
X125744594Y-121195442D01*
X125741229Y-121195667D01*
X125726668Y-121202867D01*
X125711662Y-121209084D01*
X125709277Y-121211468D01*
X125706254Y-121212964D01*
X125695556Y-121225189D01*
X125684072Y-121236674D01*
X125682781Y-121239788D01*
X125680560Y-121242328D01*
X125675355Y-121257716D01*
X125669140Y-121272722D01*
X125668671Y-121277481D01*
X125668060Y-121279289D01*
X125668234Y-121281913D01*
X125667219Y-121292231D01*
X125509274Y-121292231D01*
X125509274Y-120577945D01*
X125667219Y-120577945D01*
X125667219Y-120673183D01*
X125669140Y-120692692D01*
X125670515Y-120696012D01*
X125670770Y-120699596D01*
X125677776Y-120717904D01*
X125725395Y-120813142D01*
X125730680Y-120821538D01*
X125731691Y-120823978D01*
X125733944Y-120826724D01*
X125735838Y-120829732D01*
X125737832Y-120831461D01*
X125744127Y-120839132D01*
X125791746Y-120886750D01*
X125799412Y-120893042D01*
X125801145Y-120895040D01*
X125804153Y-120896933D01*
X125806899Y-120899187D01*
X125809339Y-120900197D01*
X125817736Y-120905483D01*
X125912973Y-120953102D01*
X125914401Y-120953648D01*
X125914981Y-120954078D01*
X125923157Y-120956999D01*
X125931282Y-120960108D01*
X125932002Y-120960159D01*
X125933441Y-120960673D01*
X126123917Y-121008292D01*
X126127298Y-121008792D01*
X126128662Y-121009357D01*
X126136012Y-121010080D01*
X126143310Y-121011160D01*
X126144768Y-121010942D01*
X126148171Y-121011278D01*
X126386266Y-121011278D01*
X126389668Y-121010942D01*
X126391127Y-121011160D01*
X126398424Y-121010080D01*
X126405775Y-121009357D01*
X126407138Y-121008792D01*
X126410520Y-121008292D01*
X126600995Y-120960673D01*
X126602432Y-120960159D01*
X126603155Y-120960108D01*
X126611279Y-120956999D01*
X126619456Y-120954078D01*
X126620036Y-120953647D01*
X126621463Y-120953102D01*
X126716701Y-120905483D01*
X126725093Y-120900199D01*
X126727537Y-120899188D01*
X126730286Y-120896931D01*
X126733291Y-120895040D01*
X126735020Y-120893045D01*
X126742690Y-120886751D01*
X126790310Y-120839133D01*
X126796603Y-120831464D01*
X126798600Y-120829733D01*
X126800493Y-120826724D01*
X126802747Y-120823979D01*
X126803757Y-120821538D01*
X126809043Y-120813142D01*
X126856662Y-120717905D01*
X126863668Y-120699596D01*
X126863922Y-120696012D01*
X126865298Y-120692692D01*
X126867219Y-120673183D01*
X126867219Y-120577945D01*
X126865298Y-120558436D01*
X126863922Y-120555115D01*
X126863668Y-120551532D01*
X126856662Y-120533223D01*
X126809043Y-120437986D01*
X126803757Y-120429589D01*
X126802747Y-120427149D01*
X126800493Y-120424403D01*
X126798600Y-120421395D01*
X126796603Y-120419663D01*
X126790310Y-120411995D01*
X126742690Y-120364377D01*
X126735020Y-120358082D01*
X126733291Y-120356088D01*
X126730286Y-120354196D01*
X126727537Y-120351940D01*
X126725093Y-120350928D01*
X126716701Y-120345645D01*
X126621463Y-120298026D01*
X126620036Y-120297480D01*
X126619456Y-120297050D01*
X126611279Y-120294128D01*
X126603155Y-120291020D01*
X126602432Y-120290968D01*
X126600995Y-120290455D01*
X126410520Y-120242836D01*
X126407138Y-120242335D01*
X126405775Y-120241771D01*
X126398424Y-120241047D01*
X126391127Y-120239968D01*
X126389668Y-120240185D01*
X126386266Y-120239850D01*
X126148171Y-120239850D01*
X126144768Y-120240185D01*
X126143310Y-120239968D01*
X126136012Y-120241047D01*
X126128662Y-120241771D01*
X126127298Y-120242335D01*
X126123917Y-120242836D01*
X125933441Y-120290455D01*
X125932002Y-120290968D01*
X125931282Y-120291020D01*
X125923157Y-120294128D01*
X125914981Y-120297050D01*
X125914401Y-120297479D01*
X125912973Y-120298026D01*
X125817736Y-120345645D01*
X125809339Y-120350930D01*
X125806899Y-120351941D01*
X125804153Y-120354194D01*
X125801145Y-120356088D01*
X125799412Y-120358085D01*
X125791746Y-120364378D01*
X125744127Y-120411996D01*
X125737832Y-120419666D01*
X125735838Y-120421396D01*
X125733944Y-120424403D01*
X125731691Y-120427150D01*
X125730680Y-120429589D01*
X125725395Y-120437986D01*
X125677776Y-120533224D01*
X125670770Y-120551532D01*
X125670515Y-120555115D01*
X125669140Y-120558436D01*
X125667219Y-120577945D01*
X125509274Y-120577945D01*
X125509274Y-120128739D01*
X126978330Y-120128739D01*
X126978330Y-124836675D01*
G37*
G36*
X122939008Y-101997024D02*
G01*
X122963677Y-102021692D01*
X122999130Y-102092599D01*
X123041101Y-102260480D01*
X123041101Y-102473956D01*
X122999130Y-102641837D01*
X122963677Y-102712743D01*
X122939008Y-102737413D01*
X122879399Y-102767219D01*
X122831375Y-102767219D01*
X122771765Y-102737414D01*
X122747098Y-102712746D01*
X122711643Y-102641837D01*
X122669673Y-102473956D01*
X122669673Y-102260481D01*
X122711643Y-102092599D01*
X122747097Y-102021692D01*
X122771765Y-101997023D01*
X122831375Y-101967219D01*
X122879399Y-101967219D01*
X122939008Y-101997024D01*
G37*
G36*
X124304593Y-103078330D02*
G01*
X120358562Y-103078330D01*
X120358562Y-101867219D01*
X120469673Y-101867219D01*
X120469673Y-102867219D01*
X120471594Y-102886728D01*
X120486526Y-102922776D01*
X120514116Y-102950366D01*
X120550164Y-102965298D01*
X120589182Y-102965298D01*
X120625230Y-102950366D01*
X120652820Y-102922776D01*
X120667752Y-102886728D01*
X120669673Y-102867219D01*
X120669673Y-102443409D01*
X121041101Y-102443409D01*
X121041101Y-102867219D01*
X121043022Y-102886728D01*
X121057954Y-102922776D01*
X121085544Y-102950366D01*
X121121592Y-102965298D01*
X121160610Y-102965298D01*
X121196658Y-102950366D01*
X121224248Y-102922776D01*
X121239180Y-102886728D01*
X121241101Y-102867219D01*
X121241101Y-102295790D01*
X121469673Y-102295790D01*
X121469673Y-102438647D01*
X121470008Y-102442049D01*
X121469791Y-102443508D01*
X121470870Y-102450805D01*
X121471594Y-102458156D01*
X121472158Y-102459519D01*
X121472659Y-102462901D01*
X121520278Y-102653376D01*
X121520791Y-102654813D01*
X121520843Y-102655536D01*
X121523951Y-102663660D01*
X121526873Y-102671837D01*
X121527303Y-102672417D01*
X121527849Y-102673844D01*
X121575468Y-102769082D01*
X121580750Y-102777474D01*
X121581763Y-102779918D01*
X121584019Y-102782667D01*
X121585911Y-102785672D01*
X121587905Y-102787401D01*
X121594200Y-102795071D01*
X121689438Y-102890311D01*
X121704591Y-102902747D01*
X121707910Y-102904122D01*
X121710626Y-102906477D01*
X121728526Y-102914468D01*
X121871383Y-102962087D01*
X121881055Y-102964286D01*
X121883497Y-102965298D01*
X121887034Y-102965646D01*
X121890498Y-102966434D01*
X121893132Y-102966246D01*
X121903006Y-102967219D01*
X121998244Y-102967219D01*
X122008117Y-102966246D01*
X122010751Y-102966434D01*
X122014214Y-102965646D01*
X122017753Y-102965298D01*
X122020195Y-102964286D01*
X122029867Y-102962087D01*
X122172723Y-102914468D01*
X122190624Y-102906477D01*
X122193339Y-102904122D01*
X122196659Y-102902747D01*
X122211812Y-102890310D01*
X122259431Y-102842690D01*
X122271868Y-102827537D01*
X122286799Y-102791488D01*
X122286798Y-102752470D01*
X122271867Y-102716422D01*
X122244276Y-102688832D01*
X122208228Y-102673901D01*
X122169210Y-102673902D01*
X122133162Y-102688833D01*
X122118008Y-102701270D01*
X122087081Y-102732197D01*
X121982017Y-102767219D01*
X121919232Y-102767219D01*
X121814167Y-102732197D01*
X121747097Y-102665127D01*
X121711643Y-102594218D01*
X121669673Y-102426337D01*
X121669673Y-102308100D01*
X121684655Y-102248171D01*
X122469673Y-102248171D01*
X122469673Y-102486266D01*
X122470008Y-102489668D01*
X122469791Y-102491127D01*
X122470870Y-102498424D01*
X122471594Y-102505775D01*
X122472158Y-102507138D01*
X122472659Y-102510520D01*
X122520278Y-102700995D01*
X122520791Y-102702432D01*
X122520843Y-102703155D01*
X122523951Y-102711279D01*
X122526873Y-102719456D01*
X122527303Y-102720036D01*
X122527849Y-102721463D01*
X122575468Y-102816701D01*
X122580751Y-102825093D01*
X122581763Y-102827537D01*
X122584019Y-102830286D01*
X122585911Y-102833291D01*
X122587905Y-102835020D01*
X122594200Y-102842690D01*
X122641818Y-102890310D01*
X122649486Y-102896603D01*
X122651218Y-102898600D01*
X122654226Y-102900493D01*
X122656972Y-102902747D01*
X122659412Y-102903757D01*
X122667809Y-102909043D01*
X122763046Y-102956662D01*
X122781355Y-102963668D01*
X122784938Y-102963922D01*
X122788259Y-102965298D01*
X122807768Y-102967219D01*
X122903006Y-102967219D01*
X122922515Y-102965298D01*
X122925835Y-102963922D01*
X122929419Y-102963668D01*
X122947727Y-102956662D01*
X123042965Y-102909043D01*
X123051360Y-102903758D01*
X123053802Y-102902747D01*
X123056549Y-102900491D01*
X123059555Y-102898600D01*
X123061285Y-102896605D01*
X123068955Y-102890310D01*
X123116574Y-102842690D01*
X123122866Y-102835023D01*
X123124863Y-102833292D01*
X123126756Y-102830284D01*
X123129011Y-102827537D01*
X123130022Y-102825095D01*
X123135306Y-102816701D01*
X123182925Y-102721464D01*
X123183471Y-102720035D01*
X123183901Y-102719456D01*
X123186822Y-102711279D01*
X123189931Y-102703155D01*
X123189982Y-102702434D01*
X123190496Y-102700996D01*
X123238115Y-102510520D01*
X123238615Y-102507138D01*
X123239180Y-102505775D01*
X123239903Y-102498424D01*
X123240983Y-102491127D01*
X123240765Y-102489668D01*
X123241101Y-102486266D01*
X123241101Y-102353062D01*
X123422521Y-102353062D01*
X123423975Y-102357880D01*
X123423975Y-102362918D01*
X123429571Y-102376427D01*
X123433792Y-102390417D01*
X123436979Y-102394313D01*
X123438907Y-102398966D01*
X123449243Y-102409302D01*
X123458499Y-102420615D01*
X123462936Y-102422995D01*
X123466497Y-102426556D01*
X123480002Y-102432150D01*
X123492883Y-102439060D01*
X123497892Y-102439560D01*
X123502545Y-102441488D01*
X123517166Y-102441488D01*
X123531707Y-102442942D01*
X123536526Y-102441488D01*
X123541563Y-102441488D01*
X123555072Y-102435891D01*
X123569062Y-102431671D01*
X123572958Y-102428483D01*
X123577611Y-102426556D01*
X123592765Y-102414120D01*
X123628908Y-102377975D01*
X123688518Y-102348171D01*
X123879399Y-102348171D01*
X123939008Y-102377976D01*
X123963677Y-102402644D01*
X123993482Y-102462254D01*
X123993482Y-102653135D01*
X123963677Y-102712743D01*
X123939008Y-102737413D01*
X123879399Y-102767219D01*
X123688518Y-102767219D01*
X123628908Y-102737414D01*
X123592765Y-102701270D01*
X123577612Y-102688833D01*
X123541564Y-102673902D01*
X123502546Y-102673901D01*
X123466497Y-102688832D01*
X123438907Y-102716422D01*
X123423976Y-102752470D01*
X123423975Y-102791488D01*
X123438906Y-102827537D01*
X123451343Y-102842690D01*
X123498961Y-102890310D01*
X123506629Y-102896603D01*
X123508361Y-102898600D01*
X123511369Y-102900493D01*
X123514115Y-102902747D01*
X123516555Y-102903757D01*
X123524952Y-102909043D01*
X123620189Y-102956662D01*
X123638498Y-102963668D01*
X123642081Y-102963922D01*
X123645402Y-102965298D01*
X123664911Y-102967219D01*
X123903006Y-102967219D01*
X123922515Y-102965298D01*
X123925835Y-102963922D01*
X123929419Y-102963668D01*
X123947727Y-102956662D01*
X124042965Y-102909043D01*
X124051360Y-102903758D01*
X124053802Y-102902747D01*
X124056549Y-102900491D01*
X124059555Y-102898600D01*
X124061285Y-102896605D01*
X124068955Y-102890310D01*
X124116574Y-102842690D01*
X124122866Y-102835023D01*
X124124863Y-102833292D01*
X124126756Y-102830284D01*
X124129011Y-102827537D01*
X124130022Y-102825095D01*
X124135306Y-102816701D01*
X124182925Y-102721464D01*
X124189931Y-102703155D01*
X124190185Y-102699571D01*
X124191561Y-102696251D01*
X124193482Y-102676742D01*
X124193482Y-102438647D01*
X124191561Y-102419138D01*
X124190185Y-102415817D01*
X124189931Y-102412234D01*
X124182925Y-102393925D01*
X124135306Y-102298688D01*
X124130020Y-102290291D01*
X124129010Y-102287851D01*
X124126756Y-102285105D01*
X124124863Y-102282097D01*
X124122865Y-102280364D01*
X124116573Y-102272698D01*
X124068955Y-102225079D01*
X124061284Y-102218784D01*
X124059555Y-102216790D01*
X124056547Y-102214896D01*
X124053801Y-102212643D01*
X124051361Y-102211632D01*
X124042965Y-102206347D01*
X123947727Y-102158728D01*
X123929419Y-102151722D01*
X123925835Y-102151467D01*
X123922515Y-102150092D01*
X123903006Y-102148171D01*
X123664911Y-102148171D01*
X123645402Y-102150092D01*
X123642081Y-102151467D01*
X123641744Y-102151491D01*
X123660172Y-101967219D01*
X124045863Y-101967219D01*
X124065372Y-101965298D01*
X124101420Y-101950366D01*
X124129010Y-101922776D01*
X124143942Y-101886728D01*
X124143942Y-101847710D01*
X124129010Y-101811662D01*
X124101420Y-101784072D01*
X124065372Y-101769140D01*
X124045863Y-101767219D01*
X123569673Y-101767219D01*
X123562456Y-101767929D01*
X123560020Y-101767686D01*
X123557641Y-101768403D01*
X123550164Y-101769140D01*
X123536654Y-101774736D01*
X123522665Y-101778957D01*
X123518768Y-101782144D01*
X123514116Y-101784072D01*
X123503779Y-101794408D01*
X123492467Y-101803664D01*
X123490086Y-101808101D01*
X123486526Y-101811662D01*
X123480931Y-101825167D01*
X123474022Y-101838048D01*
X123472545Y-101845412D01*
X123471594Y-101847710D01*
X123471594Y-101850160D01*
X123470169Y-101857269D01*
X123422550Y-102333459D01*
X123422521Y-102353062D01*
X123241101Y-102353062D01*
X123241101Y-102248171D01*
X123240765Y-102244768D01*
X123240983Y-102243310D01*
X123239903Y-102236012D01*
X123239180Y-102228662D01*
X123238615Y-102227298D01*
X123238115Y-102223917D01*
X123190496Y-102033441D01*
X123189982Y-102032002D01*
X123189931Y-102031282D01*
X123186822Y-102023157D01*
X123183901Y-102014981D01*
X123183471Y-102014401D01*
X123182925Y-102012973D01*
X123135306Y-101917736D01*
X123130020Y-101909339D01*
X123129010Y-101906899D01*
X123126756Y-101904153D01*
X123124863Y-101901145D01*
X123122865Y-101899412D01*
X123116573Y-101891746D01*
X123068955Y-101844127D01*
X123061284Y-101837832D01*
X123059555Y-101835838D01*
X123056547Y-101833944D01*
X123053801Y-101831691D01*
X123051361Y-101830680D01*
X123042965Y-101825395D01*
X122947727Y-101777776D01*
X122929419Y-101770770D01*
X122925835Y-101770515D01*
X122922515Y-101769140D01*
X122903006Y-101767219D01*
X122807768Y-101767219D01*
X122788259Y-101769140D01*
X122784938Y-101770515D01*
X122781355Y-101770770D01*
X122763046Y-101777776D01*
X122667809Y-101825395D01*
X122659412Y-101830680D01*
X122656972Y-101831691D01*
X122654226Y-101833944D01*
X122651218Y-101835838D01*
X122649485Y-101837835D01*
X122641819Y-101844128D01*
X122594200Y-101891746D01*
X122587905Y-101899416D01*
X122585911Y-101901146D01*
X122584017Y-101904153D01*
X122581764Y-101906900D01*
X122580753Y-101909339D01*
X122575468Y-101917736D01*
X122527849Y-102012974D01*
X122527303Y-102014400D01*
X122526873Y-102014981D01*
X122523951Y-102023157D01*
X122520843Y-102031282D01*
X122520791Y-102032004D01*
X122520278Y-102033442D01*
X122472659Y-102223917D01*
X122472158Y-102227298D01*
X122471594Y-102228662D01*
X122470870Y-102236012D01*
X122469791Y-102243310D01*
X122470008Y-102244768D01*
X122469673Y-102248171D01*
X121684655Y-102248171D01*
X121711643Y-102140218D01*
X121747096Y-102069312D01*
X121814168Y-102002240D01*
X121919232Y-101967219D01*
X121982017Y-101967219D01*
X122087082Y-102002240D01*
X122118009Y-102033167D01*
X122133162Y-102045604D01*
X122169211Y-102060535D01*
X122208229Y-102060535D01*
X122244277Y-102045604D01*
X122271867Y-102018014D01*
X122286798Y-101981966D01*
X122286798Y-101942948D01*
X122271867Y-101906899D01*
X122259430Y-101891746D01*
X122211812Y-101844127D01*
X122196658Y-101831691D01*
X122193339Y-101830316D01*
X122190624Y-101827961D01*
X122172723Y-101819970D01*
X122029867Y-101772351D01*
X122020195Y-101770151D01*
X122017753Y-101769140D01*
X122014214Y-101768791D01*
X122010751Y-101768004D01*
X122008117Y-101768191D01*
X121998244Y-101767219D01*
X121903006Y-101767219D01*
X121893132Y-101768191D01*
X121890498Y-101768004D01*
X121887034Y-101768791D01*
X121883497Y-101769140D01*
X121881055Y-101770151D01*
X121871383Y-101772351D01*
X121728526Y-101819970D01*
X121710626Y-101827961D01*
X121707910Y-101830316D01*
X121704592Y-101831691D01*
X121689438Y-101844127D01*
X121594200Y-101939365D01*
X121587905Y-101947035D01*
X121585911Y-101948765D01*
X121584017Y-101951772D01*
X121581764Y-101954519D01*
X121580753Y-101956958D01*
X121575468Y-101965355D01*
X121527849Y-102060593D01*
X121527303Y-102062019D01*
X121526873Y-102062600D01*
X121523951Y-102070776D01*
X121520843Y-102078901D01*
X121520791Y-102079623D01*
X121520278Y-102081061D01*
X121472659Y-102271536D01*
X121472158Y-102274917D01*
X121471594Y-102276281D01*
X121470870Y-102283631D01*
X121469791Y-102290929D01*
X121470008Y-102292387D01*
X121469673Y-102295790D01*
X121241101Y-102295790D01*
X121241101Y-101867219D01*
X121239180Y-101847710D01*
X121224248Y-101811662D01*
X121196658Y-101784072D01*
X121160610Y-101769140D01*
X121121592Y-101769140D01*
X121085544Y-101784072D01*
X121057954Y-101811662D01*
X121043022Y-101847710D01*
X121041101Y-101867219D01*
X121041101Y-102243409D01*
X120669673Y-102243409D01*
X120669673Y-101867219D01*
X120667752Y-101847710D01*
X120652820Y-101811662D01*
X120625230Y-101784072D01*
X120589182Y-101769140D01*
X120550164Y-101769140D01*
X120514116Y-101784072D01*
X120486526Y-101811662D01*
X120471594Y-101847710D01*
X120469673Y-101867219D01*
X120358562Y-101867219D01*
X120358562Y-101656108D01*
X124304593Y-101656108D01*
X124304593Y-103078330D01*
G37*
G36*
X136896605Y-83702240D02*
G01*
X136963678Y-83769313D01*
X136999130Y-83840218D01*
X137041101Y-84008099D01*
X137041101Y-84126337D01*
X136999130Y-84294218D01*
X136963677Y-84365124D01*
X136896606Y-84432197D01*
X136791541Y-84467219D01*
X136669673Y-84467219D01*
X136669673Y-83667219D01*
X136791541Y-83667219D01*
X136896605Y-83702240D01*
G37*
G36*
X137986626Y-83697023D02*
G01*
X138050805Y-83761202D01*
X138088720Y-83912861D01*
X138088720Y-84221575D01*
X138050804Y-84373235D01*
X137986628Y-84437413D01*
X137927018Y-84467219D01*
X137783756Y-84467219D01*
X137724146Y-84437414D01*
X137659969Y-84373236D01*
X137622054Y-84221575D01*
X137622054Y-83912862D01*
X137659969Y-83761202D01*
X137724148Y-83697023D01*
X137783756Y-83667219D01*
X137927018Y-83667219D01*
X137986626Y-83697023D01*
G37*
G36*
X139034245Y-83697023D02*
G01*
X139098424Y-83761202D01*
X139136339Y-83912861D01*
X139136339Y-84221575D01*
X139098423Y-84373235D01*
X139034247Y-84437413D01*
X138974637Y-84467219D01*
X138831375Y-84467219D01*
X138771765Y-84437414D01*
X138707588Y-84373236D01*
X138669673Y-84221575D01*
X138669673Y-83912862D01*
X138707588Y-83761202D01*
X138771767Y-83697023D01*
X138831375Y-83667219D01*
X138974637Y-83667219D01*
X139034245Y-83697023D01*
G37*
G36*
X140081865Y-83697024D02*
G01*
X140106534Y-83721692D01*
X140136339Y-83781302D01*
X140136339Y-83876945D01*
X140106534Y-83936554D01*
X140081865Y-83961222D01*
X140022256Y-83991028D01*
X139764911Y-83991028D01*
X139764911Y-83667219D01*
X140022256Y-83667219D01*
X140081865Y-83697024D01*
G37*
G36*
X141399831Y-84778330D02*
G01*
X136358562Y-84778330D01*
X136358562Y-83567219D01*
X136469673Y-83567219D01*
X136469673Y-84567219D01*
X136471594Y-84586728D01*
X136486526Y-84622776D01*
X136514116Y-84650366D01*
X136550164Y-84665298D01*
X136569673Y-84667219D01*
X136807768Y-84667219D01*
X136817641Y-84666246D01*
X136820275Y-84666434D01*
X136823738Y-84665646D01*
X136827277Y-84665298D01*
X136829719Y-84664286D01*
X136839391Y-84662087D01*
X136982247Y-84614468D01*
X137000148Y-84606477D01*
X137002863Y-84604122D01*
X137006183Y-84602747D01*
X137021336Y-84590310D01*
X137116574Y-84495071D01*
X137122866Y-84487404D01*
X137124863Y-84485673D01*
X137126756Y-84482665D01*
X137129011Y-84479918D01*
X137130022Y-84477476D01*
X137135306Y-84469082D01*
X137182925Y-84373845D01*
X137183471Y-84372416D01*
X137183901Y-84371837D01*
X137186822Y-84363660D01*
X137189931Y-84355536D01*
X137189982Y-84354815D01*
X137190496Y-84353377D01*
X137238115Y-84162901D01*
X137238615Y-84159519D01*
X137239180Y-84158156D01*
X137239903Y-84150805D01*
X137240983Y-84143508D01*
X137240765Y-84142049D01*
X137241101Y-84138647D01*
X137241101Y-83995790D01*
X137240765Y-83992387D01*
X137240983Y-83990929D01*
X137239903Y-83983631D01*
X137239180Y-83976281D01*
X137238615Y-83974917D01*
X137238115Y-83971536D01*
X137220369Y-83900552D01*
X137422054Y-83900552D01*
X137422054Y-84233885D01*
X137422389Y-84237287D01*
X137422172Y-84238746D01*
X137423251Y-84246043D01*
X137423975Y-84253394D01*
X137424539Y-84254757D01*
X137425040Y-84258139D01*
X137472659Y-84448614D01*
X137479254Y-84467075D01*
X137483679Y-84473047D01*
X137486525Y-84479918D01*
X137498962Y-84495071D01*
X137594200Y-84590311D01*
X137601868Y-84596604D01*
X137603599Y-84598600D01*
X137606606Y-84600493D01*
X137609353Y-84602747D01*
X137611793Y-84603757D01*
X137620190Y-84609043D01*
X137715427Y-84656662D01*
X137733736Y-84663668D01*
X137737319Y-84663922D01*
X137740640Y-84665298D01*
X137760149Y-84667219D01*
X137950625Y-84667219D01*
X137970134Y-84665298D01*
X137973454Y-84663922D01*
X137977038Y-84663668D01*
X137995346Y-84656662D01*
X138090584Y-84609043D01*
X138098979Y-84603758D01*
X138101421Y-84602747D01*
X138104168Y-84600491D01*
X138107174Y-84598600D01*
X138108904Y-84596605D01*
X138116574Y-84590310D01*
X138211812Y-84495071D01*
X138224249Y-84479918D01*
X138227094Y-84473047D01*
X138231520Y-84467075D01*
X138238115Y-84448615D01*
X138285734Y-84258139D01*
X138286234Y-84254757D01*
X138286799Y-84253394D01*
X138287522Y-84246043D01*
X138288602Y-84238746D01*
X138288384Y-84237287D01*
X138288720Y-84233885D01*
X138288720Y-83900552D01*
X138469673Y-83900552D01*
X138469673Y-84233885D01*
X138470008Y-84237287D01*
X138469791Y-84238746D01*
X138470870Y-84246043D01*
X138471594Y-84253394D01*
X138472158Y-84254757D01*
X138472659Y-84258139D01*
X138520278Y-84448614D01*
X138526873Y-84467075D01*
X138531298Y-84473047D01*
X138534144Y-84479918D01*
X138546581Y-84495071D01*
X138641819Y-84590311D01*
X138649487Y-84596604D01*
X138651218Y-84598600D01*
X138654225Y-84600493D01*
X138656972Y-84602747D01*
X138659412Y-84603757D01*
X138667809Y-84609043D01*
X138763046Y-84656662D01*
X138781355Y-84663668D01*
X138784938Y-84663922D01*
X138788259Y-84665298D01*
X138807768Y-84667219D01*
X138998244Y-84667219D01*
X139017753Y-84665298D01*
X139021073Y-84663922D01*
X139024657Y-84663668D01*
X139042965Y-84656662D01*
X139138203Y-84609043D01*
X139146598Y-84603758D01*
X139149040Y-84602747D01*
X139151787Y-84600491D01*
X139154793Y-84598600D01*
X139156523Y-84596605D01*
X139164193Y-84590310D01*
X139259431Y-84495071D01*
X139271868Y-84479918D01*
X139274713Y-84473047D01*
X139279139Y-84467075D01*
X139285734Y-84448615D01*
X139333353Y-84258139D01*
X139333853Y-84254757D01*
X139334418Y-84253394D01*
X139335141Y-84246043D01*
X139336221Y-84238746D01*
X139336003Y-84237287D01*
X139336339Y-84233885D01*
X139336339Y-83900552D01*
X139336003Y-83897149D01*
X139336221Y-83895691D01*
X139335141Y-83888393D01*
X139334418Y-83881043D01*
X139333853Y-83879679D01*
X139333353Y-83876298D01*
X139285734Y-83685822D01*
X139279139Y-83667362D01*
X139274712Y-83661387D01*
X139271867Y-83654519D01*
X139259431Y-83639365D01*
X139187285Y-83567219D01*
X139564911Y-83567219D01*
X139564911Y-84567219D01*
X139566832Y-84586728D01*
X139581764Y-84622776D01*
X139609354Y-84650366D01*
X139645402Y-84665298D01*
X139684420Y-84665298D01*
X139720468Y-84650366D01*
X139748058Y-84622776D01*
X139762990Y-84586728D01*
X139764911Y-84567219D01*
X139764911Y-84191028D01*
X139850941Y-84191028D01*
X140154416Y-84624565D01*
X140167177Y-84639446D01*
X140200082Y-84660415D01*
X140238507Y-84667196D01*
X140276601Y-84658756D01*
X140308566Y-84636381D01*
X140329535Y-84603476D01*
X140336316Y-84565052D01*
X140327876Y-84526957D01*
X140318262Y-84509873D01*
X140088294Y-84181347D01*
X140090584Y-84180471D01*
X140185822Y-84132852D01*
X140194218Y-84127566D01*
X140196658Y-84126556D01*
X140199404Y-84124302D01*
X140202412Y-84122409D01*
X140204141Y-84120414D01*
X140211812Y-84114120D01*
X140259430Y-84066501D01*
X140265722Y-84058834D01*
X140267720Y-84057102D01*
X140269613Y-84054093D01*
X140271867Y-84051348D01*
X140272877Y-84048907D01*
X140278163Y-84040511D01*
X140325782Y-83945274D01*
X140332788Y-83926965D01*
X140333042Y-83923381D01*
X140334418Y-83920061D01*
X140336339Y-83900552D01*
X140336339Y-83757695D01*
X140517292Y-83757695D01*
X140517292Y-83852933D01*
X140519213Y-83872442D01*
X140520588Y-83875762D01*
X140520843Y-83879346D01*
X140527849Y-83897654D01*
X140575468Y-83992892D01*
X140580753Y-84001288D01*
X140581764Y-84003728D01*
X140584017Y-84006474D01*
X140585911Y-84009482D01*
X140587905Y-84011211D01*
X140594200Y-84018882D01*
X140641819Y-84066500D01*
X140649485Y-84072792D01*
X140651218Y-84074790D01*
X140654226Y-84076683D01*
X140656972Y-84078937D01*
X140659412Y-84079947D01*
X140667809Y-84085233D01*
X140763046Y-84132852D01*
X140764474Y-84133398D01*
X140765054Y-84133828D01*
X140773230Y-84136749D01*
X140781355Y-84139858D01*
X140782075Y-84139909D01*
X140783514Y-84140423D01*
X140963339Y-84185379D01*
X141034246Y-84220833D01*
X141058915Y-84245501D01*
X141088720Y-84305111D01*
X141088720Y-84353135D01*
X141058915Y-84412743D01*
X141034246Y-84437413D01*
X140974637Y-84467219D01*
X140776375Y-84467219D01*
X140648915Y-84424732D01*
X140629799Y-84420385D01*
X140590879Y-84423151D01*
X140555980Y-84440601D01*
X140530415Y-84470077D01*
X140518077Y-84507093D01*
X140520843Y-84546013D01*
X140538293Y-84580912D01*
X140567769Y-84606477D01*
X140585669Y-84614468D01*
X140728526Y-84662087D01*
X140738198Y-84664286D01*
X140740640Y-84665298D01*
X140744177Y-84665646D01*
X140747641Y-84666434D01*
X140750275Y-84666246D01*
X140760149Y-84667219D01*
X140998244Y-84667219D01*
X141017753Y-84665298D01*
X141021073Y-84663922D01*
X141024657Y-84663668D01*
X141042965Y-84656662D01*
X141138203Y-84609043D01*
X141146598Y-84603758D01*
X141149040Y-84602747D01*
X141151787Y-84600491D01*
X141154793Y-84598600D01*
X141156523Y-84596605D01*
X141164193Y-84590310D01*
X141211812Y-84542690D01*
X141218104Y-84535023D01*
X141220101Y-84533292D01*
X141221994Y-84530284D01*
X141224249Y-84527537D01*
X141225260Y-84525095D01*
X141230544Y-84516701D01*
X141278163Y-84421464D01*
X141285169Y-84403155D01*
X141285423Y-84399571D01*
X141286799Y-84396251D01*
X141288720Y-84376742D01*
X141288720Y-84281504D01*
X141286799Y-84261995D01*
X141285423Y-84258674D01*
X141285169Y-84255091D01*
X141278163Y-84236782D01*
X141230544Y-84141545D01*
X141225258Y-84133148D01*
X141224248Y-84130708D01*
X141221994Y-84127962D01*
X141220101Y-84124954D01*
X141218103Y-84123221D01*
X141211811Y-84115555D01*
X141164193Y-84067936D01*
X141156522Y-84061641D01*
X141154793Y-84059647D01*
X141151785Y-84057753D01*
X141149039Y-84055500D01*
X141146599Y-84054489D01*
X141138203Y-84049204D01*
X141042965Y-84001585D01*
X141041538Y-84001039D01*
X141040958Y-84000609D01*
X141032781Y-83997687D01*
X141024657Y-83994579D01*
X141023934Y-83994527D01*
X141022497Y-83994014D01*
X140842672Y-83949057D01*
X140771765Y-83913604D01*
X140747097Y-83888935D01*
X140717292Y-83829325D01*
X140717292Y-83781302D01*
X140747097Y-83721692D01*
X140771765Y-83697023D01*
X140831375Y-83667219D01*
X141029636Y-83667219D01*
X141157097Y-83709706D01*
X141176212Y-83714053D01*
X141215132Y-83711287D01*
X141250031Y-83693837D01*
X141275596Y-83664361D01*
X141287935Y-83627345D01*
X141285168Y-83588425D01*
X141267719Y-83553526D01*
X141238243Y-83527961D01*
X141220342Y-83519970D01*
X141077486Y-83472351D01*
X141067814Y-83470151D01*
X141065372Y-83469140D01*
X141061833Y-83468791D01*
X141058370Y-83468004D01*
X141055736Y-83468191D01*
X141045863Y-83467219D01*
X140807768Y-83467219D01*
X140788259Y-83469140D01*
X140784938Y-83470515D01*
X140781355Y-83470770D01*
X140763046Y-83477776D01*
X140667809Y-83525395D01*
X140659412Y-83530680D01*
X140656972Y-83531691D01*
X140654226Y-83533944D01*
X140651218Y-83535838D01*
X140649485Y-83537835D01*
X140641819Y-83544128D01*
X140594200Y-83591746D01*
X140587905Y-83599416D01*
X140585911Y-83601146D01*
X140584017Y-83604153D01*
X140581764Y-83606900D01*
X140580753Y-83609339D01*
X140575468Y-83617736D01*
X140527849Y-83712974D01*
X140520843Y-83731282D01*
X140520588Y-83734865D01*
X140519213Y-83738186D01*
X140517292Y-83757695D01*
X140336339Y-83757695D01*
X140334418Y-83738186D01*
X140333042Y-83734865D01*
X140332788Y-83731282D01*
X140325782Y-83712973D01*
X140278163Y-83617736D01*
X140272877Y-83609339D01*
X140271867Y-83606899D01*
X140269613Y-83604153D01*
X140267720Y-83601145D01*
X140265722Y-83599412D01*
X140259430Y-83591746D01*
X140211812Y-83544127D01*
X140204141Y-83537832D01*
X140202412Y-83535838D01*
X140199404Y-83533944D01*
X140196658Y-83531691D01*
X140194218Y-83530680D01*
X140185822Y-83525395D01*
X140090584Y-83477776D01*
X140072276Y-83470770D01*
X140068692Y-83470515D01*
X140065372Y-83469140D01*
X140045863Y-83467219D01*
X139664911Y-83467219D01*
X139645402Y-83469140D01*
X139609354Y-83484072D01*
X139581764Y-83511662D01*
X139566832Y-83547710D01*
X139564911Y-83567219D01*
X139187285Y-83567219D01*
X139164193Y-83544127D01*
X139156522Y-83537832D01*
X139154793Y-83535838D01*
X139151785Y-83533944D01*
X139149039Y-83531691D01*
X139146599Y-83530680D01*
X139138203Y-83525395D01*
X139042965Y-83477776D01*
X139024657Y-83470770D01*
X139021073Y-83470515D01*
X139017753Y-83469140D01*
X138998244Y-83467219D01*
X138807768Y-83467219D01*
X138788259Y-83469140D01*
X138784938Y-83470515D01*
X138781355Y-83470770D01*
X138763046Y-83477776D01*
X138667809Y-83525395D01*
X138659410Y-83530681D01*
X138656973Y-83531691D01*
X138654229Y-83533942D01*
X138651218Y-83535838D01*
X138649485Y-83537835D01*
X138641819Y-83544127D01*
X138546581Y-83639365D01*
X138534145Y-83654519D01*
X138531299Y-83661387D01*
X138526873Y-83667362D01*
X138520278Y-83685823D01*
X138472659Y-83876298D01*
X138472158Y-83879679D01*
X138471594Y-83881043D01*
X138470870Y-83888393D01*
X138469791Y-83895691D01*
X138470008Y-83897149D01*
X138469673Y-83900552D01*
X138288720Y-83900552D01*
X138288384Y-83897149D01*
X138288602Y-83895691D01*
X138287522Y-83888393D01*
X138286799Y-83881043D01*
X138286234Y-83879679D01*
X138285734Y-83876298D01*
X138238115Y-83685822D01*
X138231520Y-83667362D01*
X138227093Y-83661387D01*
X138224248Y-83654519D01*
X138211812Y-83639365D01*
X138116574Y-83544127D01*
X138108903Y-83537832D01*
X138107174Y-83535838D01*
X138104166Y-83533944D01*
X138101420Y-83531691D01*
X138098980Y-83530680D01*
X138090584Y-83525395D01*
X137995346Y-83477776D01*
X137977038Y-83470770D01*
X137973454Y-83470515D01*
X137970134Y-83469140D01*
X137950625Y-83467219D01*
X137760149Y-83467219D01*
X137740640Y-83469140D01*
X137737319Y-83470515D01*
X137733736Y-83470770D01*
X137715427Y-83477776D01*
X137620190Y-83525395D01*
X137611791Y-83530681D01*
X137609354Y-83531691D01*
X137606610Y-83533942D01*
X137603599Y-83535838D01*
X137601866Y-83537835D01*
X137594200Y-83544127D01*
X137498962Y-83639365D01*
X137486526Y-83654519D01*
X137483680Y-83661387D01*
X137479254Y-83667362D01*
X137472659Y-83685823D01*
X137425040Y-83876298D01*
X137424539Y-83879679D01*
X137423975Y-83881043D01*
X137423251Y-83888393D01*
X137422172Y-83895691D01*
X137422389Y-83897149D01*
X137422054Y-83900552D01*
X137220369Y-83900552D01*
X137190496Y-83781060D01*
X137189982Y-83779621D01*
X137189931Y-83778901D01*
X137186822Y-83770776D01*
X137183901Y-83762600D01*
X137183471Y-83762020D01*
X137182925Y-83760592D01*
X137135306Y-83665355D01*
X137130019Y-83656956D01*
X137129010Y-83654519D01*
X137126758Y-83651775D01*
X137124863Y-83648764D01*
X137122865Y-83647031D01*
X137116574Y-83639365D01*
X137021336Y-83544127D01*
X137006182Y-83531691D01*
X137002863Y-83530316D01*
X137000148Y-83527961D01*
X136982247Y-83519970D01*
X136839391Y-83472351D01*
X136829719Y-83470151D01*
X136827277Y-83469140D01*
X136823738Y-83468791D01*
X136820275Y-83468004D01*
X136817641Y-83468191D01*
X136807768Y-83467219D01*
X136569673Y-83467219D01*
X136550164Y-83469140D01*
X136514116Y-83484072D01*
X136486526Y-83511662D01*
X136471594Y-83547710D01*
X136469673Y-83567219D01*
X136358562Y-83567219D01*
X136358562Y-83356108D01*
X141399831Y-83356108D01*
X141399831Y-84778330D01*
G37*
G36*
X166429484Y-111497024D02*
G01*
X166454153Y-111521692D01*
X166483958Y-111581302D01*
X166483958Y-111676945D01*
X166454153Y-111736554D01*
X166429484Y-111761222D01*
X166369875Y-111791028D01*
X166112530Y-111791028D01*
X166112530Y-111467219D01*
X166369875Y-111467219D01*
X166429484Y-111497024D01*
G37*
G36*
X167747450Y-112578330D02*
G01*
X164658562Y-112578330D01*
X164658562Y-111367219D01*
X164769673Y-111367219D01*
X164769673Y-112367219D01*
X164771594Y-112386728D01*
X164786526Y-112422776D01*
X164814116Y-112450366D01*
X164850164Y-112465298D01*
X164889182Y-112465298D01*
X164925230Y-112450366D01*
X164952820Y-112422776D01*
X164967752Y-112386728D01*
X164969673Y-112367219D01*
X164969673Y-111817975D01*
X165112388Y-112123793D01*
X165116620Y-112130938D01*
X165117500Y-112133356D01*
X165119065Y-112135065D01*
X165122379Y-112140659D01*
X165133589Y-112150925D01*
X165143851Y-112162131D01*
X165147876Y-112164009D01*
X165151154Y-112167011D01*
X165165436Y-112172204D01*
X165179209Y-112178632D01*
X165183648Y-112178827D01*
X165187823Y-112180345D01*
X165203006Y-112179677D01*
X165218189Y-112180345D01*
X165222362Y-112178827D01*
X165226804Y-112178632D01*
X165240588Y-112172199D01*
X165254858Y-112167010D01*
X165258131Y-112164012D01*
X165262161Y-112162132D01*
X165272430Y-112150917D01*
X165283633Y-112140659D01*
X165286944Y-112135068D01*
X165288513Y-112133356D01*
X165289393Y-112130934D01*
X165293624Y-112123793D01*
X165436339Y-111817974D01*
X165436339Y-112367219D01*
X165438260Y-112386728D01*
X165453192Y-112422776D01*
X165480782Y-112450366D01*
X165516830Y-112465298D01*
X165555848Y-112465298D01*
X165591896Y-112450366D01*
X165619486Y-112422776D01*
X165634418Y-112386728D01*
X165636339Y-112367219D01*
X165636339Y-111367219D01*
X165912530Y-111367219D01*
X165912530Y-112367219D01*
X165914451Y-112386728D01*
X165929383Y-112422776D01*
X165956973Y-112450366D01*
X165993021Y-112465298D01*
X166032039Y-112465298D01*
X166068087Y-112450366D01*
X166095677Y-112422776D01*
X166110609Y-112386728D01*
X166112530Y-112367219D01*
X166112530Y-111991028D01*
X166393482Y-111991028D01*
X166412991Y-111989107D01*
X166416311Y-111987731D01*
X166419895Y-111987477D01*
X166438203Y-111980471D01*
X166533441Y-111932852D01*
X166541837Y-111927566D01*
X166544277Y-111926556D01*
X166547023Y-111924302D01*
X166550031Y-111922409D01*
X166551760Y-111920414D01*
X166559431Y-111914120D01*
X166607049Y-111866501D01*
X166613341Y-111858834D01*
X166615339Y-111857102D01*
X166617232Y-111854093D01*
X166619486Y-111851348D01*
X166620496Y-111848907D01*
X166625782Y-111840511D01*
X166673401Y-111745274D01*
X166680407Y-111726965D01*
X166680661Y-111723381D01*
X166682037Y-111720061D01*
X166683958Y-111700552D01*
X166683958Y-111557695D01*
X166682037Y-111538186D01*
X166680661Y-111534865D01*
X166680407Y-111531282D01*
X166673401Y-111512973D01*
X166625782Y-111417736D01*
X166620496Y-111409339D01*
X166619486Y-111406899D01*
X166617232Y-111404153D01*
X166615339Y-111401145D01*
X166613341Y-111399412D01*
X166607049Y-111391746D01*
X166563014Y-111347710D01*
X166819213Y-111347710D01*
X166819213Y-111386728D01*
X166834145Y-111422776D01*
X166861735Y-111450366D01*
X166897783Y-111465298D01*
X166917292Y-111467219D01*
X167315962Y-111467219D01*
X167127748Y-111682321D01*
X167121718Y-111690754D01*
X167119859Y-111692614D01*
X167119128Y-111694377D01*
X167116347Y-111698268D01*
X167111142Y-111713656D01*
X167104927Y-111728662D01*
X167104927Y-111732035D01*
X167103847Y-111735229D01*
X167104927Y-111751431D01*
X167104927Y-111767680D01*
X167106217Y-111770795D01*
X167106442Y-111774161D01*
X167113642Y-111788721D01*
X167119859Y-111803728D01*
X167122243Y-111806112D01*
X167123739Y-111809136D01*
X167135964Y-111819833D01*
X167147449Y-111831318D01*
X167150563Y-111832608D01*
X167153103Y-111834830D01*
X167168491Y-111840034D01*
X167183497Y-111846250D01*
X167188256Y-111846718D01*
X167190064Y-111847330D01*
X167192688Y-111847155D01*
X167203006Y-111848171D01*
X167322256Y-111848171D01*
X167381865Y-111877976D01*
X167406534Y-111902644D01*
X167436339Y-111962254D01*
X167436339Y-112153135D01*
X167406534Y-112212743D01*
X167381865Y-112237413D01*
X167322256Y-112267219D01*
X167083756Y-112267219D01*
X167024146Y-112237414D01*
X166988003Y-112201270D01*
X166972850Y-112188833D01*
X166936802Y-112173902D01*
X166897784Y-112173901D01*
X166861735Y-112188832D01*
X166834145Y-112216422D01*
X166819214Y-112252470D01*
X166819213Y-112291488D01*
X166834144Y-112327537D01*
X166846581Y-112342690D01*
X166894199Y-112390310D01*
X166901867Y-112396603D01*
X166903599Y-112398600D01*
X166906607Y-112400493D01*
X166909353Y-112402747D01*
X166911793Y-112403757D01*
X166920190Y-112409043D01*
X167015427Y-112456662D01*
X167033736Y-112463668D01*
X167037319Y-112463922D01*
X167040640Y-112465298D01*
X167060149Y-112467219D01*
X167345863Y-112467219D01*
X167365372Y-112465298D01*
X167368692Y-112463922D01*
X167372276Y-112463668D01*
X167390584Y-112456662D01*
X167485822Y-112409043D01*
X167494217Y-112403758D01*
X167496659Y-112402747D01*
X167499406Y-112400491D01*
X167502412Y-112398600D01*
X167504142Y-112396605D01*
X167511812Y-112390310D01*
X167559431Y-112342690D01*
X167565723Y-112335023D01*
X167567720Y-112333292D01*
X167569613Y-112330284D01*
X167571868Y-112327537D01*
X167572879Y-112325095D01*
X167578163Y-112316701D01*
X167625782Y-112221464D01*
X167632788Y-112203155D01*
X167633042Y-112199571D01*
X167634418Y-112196251D01*
X167636339Y-112176742D01*
X167636339Y-111938647D01*
X167634418Y-111919138D01*
X167633042Y-111915817D01*
X167632788Y-111912234D01*
X167625782Y-111893925D01*
X167578163Y-111798688D01*
X167572877Y-111790291D01*
X167571867Y-111787851D01*
X167569613Y-111785105D01*
X167567720Y-111782097D01*
X167565722Y-111780364D01*
X167559430Y-111772698D01*
X167511812Y-111725079D01*
X167504141Y-111718784D01*
X167502412Y-111716790D01*
X167499404Y-111714896D01*
X167496658Y-111712643D01*
X167494218Y-111711632D01*
X167485822Y-111706347D01*
X167406974Y-111666923D01*
X167611597Y-111433069D01*
X167617626Y-111424635D01*
X167619486Y-111422776D01*
X167620216Y-111421012D01*
X167622998Y-111417122D01*
X167628202Y-111401733D01*
X167634418Y-111386728D01*
X167634418Y-111383354D01*
X167635498Y-111380161D01*
X167634418Y-111363958D01*
X167634418Y-111347710D01*
X167633127Y-111344594D01*
X167632903Y-111341229D01*
X167625700Y-111326663D01*
X167619486Y-111311662D01*
X167617102Y-111309278D01*
X167615607Y-111306254D01*
X167603373Y-111295549D01*
X167591896Y-111284072D01*
X167588782Y-111282782D01*
X167586243Y-111280560D01*
X167570851Y-111275354D01*
X167555848Y-111269140D01*
X167551088Y-111268671D01*
X167549281Y-111268060D01*
X167546656Y-111268234D01*
X167536339Y-111267219D01*
X166917292Y-111267219D01*
X166897783Y-111269140D01*
X166861735Y-111284072D01*
X166834145Y-111311662D01*
X166819213Y-111347710D01*
X166563014Y-111347710D01*
X166559431Y-111344127D01*
X166551760Y-111337832D01*
X166550031Y-111335838D01*
X166547023Y-111333944D01*
X166544277Y-111331691D01*
X166541837Y-111330680D01*
X166533441Y-111325395D01*
X166438203Y-111277776D01*
X166419895Y-111270770D01*
X166416311Y-111270515D01*
X166412991Y-111269140D01*
X166393482Y-111267219D01*
X166012530Y-111267219D01*
X165993021Y-111269140D01*
X165956973Y-111284072D01*
X165929383Y-111311662D01*
X165914451Y-111347710D01*
X165912530Y-111367219D01*
X165636339Y-111367219D01*
X165635076Y-111354395D01*
X165635180Y-111352036D01*
X165634719Y-111350768D01*
X165634418Y-111347710D01*
X165627777Y-111331679D01*
X165621846Y-111315367D01*
X165620339Y-111313721D01*
X165619486Y-111311662D01*
X165607224Y-111299400D01*
X165595494Y-111286591D01*
X165593470Y-111285646D01*
X165591896Y-111284072D01*
X165575880Y-111277437D01*
X165560137Y-111270091D01*
X165557907Y-111269993D01*
X165555848Y-111269140D01*
X165538496Y-111269140D01*
X165521156Y-111268378D01*
X165519060Y-111269140D01*
X165516830Y-111269140D01*
X165500799Y-111275780D01*
X165484487Y-111281712D01*
X165482841Y-111283218D01*
X165480782Y-111284072D01*
X165468514Y-111296339D01*
X165455712Y-111308064D01*
X165454145Y-111310708D01*
X165453192Y-111311662D01*
X165452288Y-111313843D01*
X165445721Y-111324930D01*
X165203005Y-111845033D01*
X164960291Y-111324930D01*
X164953723Y-111313843D01*
X164952820Y-111311662D01*
X164951866Y-111310708D01*
X164950300Y-111308064D01*
X164937503Y-111296345D01*
X164925230Y-111284072D01*
X164923168Y-111283218D01*
X164921525Y-111281713D01*
X164905223Y-111275784D01*
X164889182Y-111269140D01*
X164886951Y-111269140D01*
X164884856Y-111268378D01*
X164867516Y-111269140D01*
X164850164Y-111269140D01*
X164848104Y-111269993D01*
X164845876Y-111270091D01*
X164830145Y-111277432D01*
X164814116Y-111284072D01*
X164812539Y-111285648D01*
X164810518Y-111286592D01*
X164798799Y-111299388D01*
X164786526Y-111311662D01*
X164785672Y-111313723D01*
X164784167Y-111315367D01*
X164778238Y-111331668D01*
X164771594Y-111347710D01*
X164771292Y-111350768D01*
X164770832Y-111352036D01*
X164770935Y-111354395D01*
X164769673Y-111367219D01*
X164658562Y-111367219D01*
X164658562Y-111156108D01*
X167747450Y-111156108D01*
X167747450Y-112578330D01*
G37*
D13*
X143066666Y-102477190D02*
X143042857Y-102501000D01*
X143042857Y-102501000D02*
X142971428Y-102524809D01*
X142971428Y-102524809D02*
X142923809Y-102524809D01*
X142923809Y-102524809D02*
X142852381Y-102501000D01*
X142852381Y-102501000D02*
X142804762Y-102453380D01*
X142804762Y-102453380D02*
X142780952Y-102405761D01*
X142780952Y-102405761D02*
X142757143Y-102310523D01*
X142757143Y-102310523D02*
X142757143Y-102239095D01*
X142757143Y-102239095D02*
X142780952Y-102143857D01*
X142780952Y-102143857D02*
X142804762Y-102096238D01*
X142804762Y-102096238D02*
X142852381Y-102048619D01*
X142852381Y-102048619D02*
X142923809Y-102024809D01*
X142923809Y-102024809D02*
X142971428Y-102024809D01*
X142971428Y-102024809D02*
X143042857Y-102048619D01*
X143042857Y-102048619D02*
X143066666Y-102072428D01*
X143495238Y-102191476D02*
X143495238Y-102524809D01*
X143376190Y-102001000D02*
X143257143Y-102358142D01*
X143257143Y-102358142D02*
X143566666Y-102358142D01*
D12*
X172238095Y-128254819D02*
X172238095Y-127254819D01*
X172238095Y-127731009D02*
X172809523Y-127731009D01*
X172809523Y-128254819D02*
X172809523Y-127254819D01*
X173238095Y-127350057D02*
X173285714Y-127302438D01*
X173285714Y-127302438D02*
X173380952Y-127254819D01*
X173380952Y-127254819D02*
X173619047Y-127254819D01*
X173619047Y-127254819D02*
X173714285Y-127302438D01*
X173714285Y-127302438D02*
X173761904Y-127350057D01*
X173761904Y-127350057D02*
X173809523Y-127445295D01*
X173809523Y-127445295D02*
X173809523Y-127540533D01*
X173809523Y-127540533D02*
X173761904Y-127683390D01*
X173761904Y-127683390D02*
X173190476Y-128254819D01*
X173190476Y-128254819D02*
X173809523Y-128254819D01*
X147607142Y-92609580D02*
X147559523Y-92657200D01*
X147559523Y-92657200D02*
X147416666Y-92704819D01*
X147416666Y-92704819D02*
X147321428Y-92704819D01*
X147321428Y-92704819D02*
X147178571Y-92657200D01*
X147178571Y-92657200D02*
X147083333Y-92561961D01*
X147083333Y-92561961D02*
X147035714Y-92466723D01*
X147035714Y-92466723D02*
X146988095Y-92276247D01*
X146988095Y-92276247D02*
X146988095Y-92133390D01*
X146988095Y-92133390D02*
X147035714Y-91942914D01*
X147035714Y-91942914D02*
X147083333Y-91847676D01*
X147083333Y-91847676D02*
X147178571Y-91752438D01*
X147178571Y-91752438D02*
X147321428Y-91704819D01*
X147321428Y-91704819D02*
X147416666Y-91704819D01*
X147416666Y-91704819D02*
X147559523Y-91752438D01*
X147559523Y-91752438D02*
X147607142Y-91800057D01*
X147988095Y-91800057D02*
X148035714Y-91752438D01*
X148035714Y-91752438D02*
X148130952Y-91704819D01*
X148130952Y-91704819D02*
X148369047Y-91704819D01*
X148369047Y-91704819D02*
X148464285Y-91752438D01*
X148464285Y-91752438D02*
X148511904Y-91800057D01*
X148511904Y-91800057D02*
X148559523Y-91895295D01*
X148559523Y-91895295D02*
X148559523Y-91990533D01*
X148559523Y-91990533D02*
X148511904Y-92133390D01*
X148511904Y-92133390D02*
X147940476Y-92704819D01*
X147940476Y-92704819D02*
X148559523Y-92704819D01*
X149178571Y-91704819D02*
X149273809Y-91704819D01*
X149273809Y-91704819D02*
X149369047Y-91752438D01*
X149369047Y-91752438D02*
X149416666Y-91800057D01*
X149416666Y-91800057D02*
X149464285Y-91895295D01*
X149464285Y-91895295D02*
X149511904Y-92085771D01*
X149511904Y-92085771D02*
X149511904Y-92323866D01*
X149511904Y-92323866D02*
X149464285Y-92514342D01*
X149464285Y-92514342D02*
X149416666Y-92609580D01*
X149416666Y-92609580D02*
X149369047Y-92657200D01*
X149369047Y-92657200D02*
X149273809Y-92704819D01*
X149273809Y-92704819D02*
X149178571Y-92704819D01*
X149178571Y-92704819D02*
X149083333Y-92657200D01*
X149083333Y-92657200D02*
X149035714Y-92609580D01*
X149035714Y-92609580D02*
X148988095Y-92514342D01*
X148988095Y-92514342D02*
X148940476Y-92323866D01*
X148940476Y-92323866D02*
X148940476Y-92085771D01*
X148940476Y-92085771D02*
X148988095Y-91895295D01*
X148988095Y-91895295D02*
X149035714Y-91800057D01*
X149035714Y-91800057D02*
X149083333Y-91752438D01*
X149083333Y-91752438D02*
X149178571Y-91704819D01*
X129512295Y-131140475D02*
X128712295Y-131140475D01*
X128712295Y-131140475D02*
X128712295Y-130949999D01*
X128712295Y-130949999D02*
X128750390Y-130835713D01*
X128750390Y-130835713D02*
X128826580Y-130759523D01*
X128826580Y-130759523D02*
X128902771Y-130721428D01*
X128902771Y-130721428D02*
X129055152Y-130683332D01*
X129055152Y-130683332D02*
X129169438Y-130683332D01*
X129169438Y-130683332D02*
X129321819Y-130721428D01*
X129321819Y-130721428D02*
X129398009Y-130759523D01*
X129398009Y-130759523D02*
X129474200Y-130835713D01*
X129474200Y-130835713D02*
X129512295Y-130949999D01*
X129512295Y-130949999D02*
X129512295Y-131140475D01*
X129512295Y-129921428D02*
X129512295Y-130378571D01*
X129512295Y-130149999D02*
X128712295Y-130149999D01*
X128712295Y-130149999D02*
X128826580Y-130226190D01*
X128826580Y-130226190D02*
X128902771Y-130302380D01*
X128902771Y-130302380D02*
X128940866Y-130378571D01*
X151359580Y-100166666D02*
X151407200Y-100214285D01*
X151407200Y-100214285D02*
X151454819Y-100357142D01*
X151454819Y-100357142D02*
X151454819Y-100452380D01*
X151454819Y-100452380D02*
X151407200Y-100595237D01*
X151407200Y-100595237D02*
X151311961Y-100690475D01*
X151311961Y-100690475D02*
X151216723Y-100738094D01*
X151216723Y-100738094D02*
X151026247Y-100785713D01*
X151026247Y-100785713D02*
X150883390Y-100785713D01*
X150883390Y-100785713D02*
X150692914Y-100738094D01*
X150692914Y-100738094D02*
X150597676Y-100690475D01*
X150597676Y-100690475D02*
X150502438Y-100595237D01*
X150502438Y-100595237D02*
X150454819Y-100452380D01*
X150454819Y-100452380D02*
X150454819Y-100357142D01*
X150454819Y-100357142D02*
X150502438Y-100214285D01*
X150502438Y-100214285D02*
X150550057Y-100166666D01*
X150883390Y-99595237D02*
X150835771Y-99690475D01*
X150835771Y-99690475D02*
X150788152Y-99738094D01*
X150788152Y-99738094D02*
X150692914Y-99785713D01*
X150692914Y-99785713D02*
X150645295Y-99785713D01*
X150645295Y-99785713D02*
X150550057Y-99738094D01*
X150550057Y-99738094D02*
X150502438Y-99690475D01*
X150502438Y-99690475D02*
X150454819Y-99595237D01*
X150454819Y-99595237D02*
X150454819Y-99404761D01*
X150454819Y-99404761D02*
X150502438Y-99309523D01*
X150502438Y-99309523D02*
X150550057Y-99261904D01*
X150550057Y-99261904D02*
X150645295Y-99214285D01*
X150645295Y-99214285D02*
X150692914Y-99214285D01*
X150692914Y-99214285D02*
X150788152Y-99261904D01*
X150788152Y-99261904D02*
X150835771Y-99309523D01*
X150835771Y-99309523D02*
X150883390Y-99404761D01*
X150883390Y-99404761D02*
X150883390Y-99595237D01*
X150883390Y-99595237D02*
X150931009Y-99690475D01*
X150931009Y-99690475D02*
X150978628Y-99738094D01*
X150978628Y-99738094D02*
X151073866Y-99785713D01*
X151073866Y-99785713D02*
X151264342Y-99785713D01*
X151264342Y-99785713D02*
X151359580Y-99738094D01*
X151359580Y-99738094D02*
X151407200Y-99690475D01*
X151407200Y-99690475D02*
X151454819Y-99595237D01*
X151454819Y-99595237D02*
X151454819Y-99404761D01*
X151454819Y-99404761D02*
X151407200Y-99309523D01*
X151407200Y-99309523D02*
X151359580Y-99261904D01*
X151359580Y-99261904D02*
X151264342Y-99214285D01*
X151264342Y-99214285D02*
X151073866Y-99214285D01*
X151073866Y-99214285D02*
X150978628Y-99261904D01*
X150978628Y-99261904D02*
X150931009Y-99309523D01*
X150931009Y-99309523D02*
X150883390Y-99404761D01*
X165366666Y-83154819D02*
X165366666Y-83869104D01*
X165366666Y-83869104D02*
X165319047Y-84011961D01*
X165319047Y-84011961D02*
X165223809Y-84107200D01*
X165223809Y-84107200D02*
X165080952Y-84154819D01*
X165080952Y-84154819D02*
X164985714Y-84154819D01*
X166366666Y-84154819D02*
X165795238Y-84154819D01*
X166080952Y-84154819D02*
X166080952Y-83154819D01*
X166080952Y-83154819D02*
X165985714Y-83297676D01*
X165985714Y-83297676D02*
X165890476Y-83392914D01*
X165890476Y-83392914D02*
X165795238Y-83440533D01*
X125257142Y-91029580D02*
X125209523Y-91077200D01*
X125209523Y-91077200D02*
X125066666Y-91124819D01*
X125066666Y-91124819D02*
X124971428Y-91124819D01*
X124971428Y-91124819D02*
X124828571Y-91077200D01*
X124828571Y-91077200D02*
X124733333Y-90981961D01*
X124733333Y-90981961D02*
X124685714Y-90886723D01*
X124685714Y-90886723D02*
X124638095Y-90696247D01*
X124638095Y-90696247D02*
X124638095Y-90553390D01*
X124638095Y-90553390D02*
X124685714Y-90362914D01*
X124685714Y-90362914D02*
X124733333Y-90267676D01*
X124733333Y-90267676D02*
X124828571Y-90172438D01*
X124828571Y-90172438D02*
X124971428Y-90124819D01*
X124971428Y-90124819D02*
X125066666Y-90124819D01*
X125066666Y-90124819D02*
X125209523Y-90172438D01*
X125209523Y-90172438D02*
X125257142Y-90220057D01*
X126209523Y-91124819D02*
X125638095Y-91124819D01*
X125923809Y-91124819D02*
X125923809Y-90124819D01*
X125923809Y-90124819D02*
X125828571Y-90267676D01*
X125828571Y-90267676D02*
X125733333Y-90362914D01*
X125733333Y-90362914D02*
X125638095Y-90410533D01*
X126542857Y-90124819D02*
X127161904Y-90124819D01*
X127161904Y-90124819D02*
X126828571Y-90505771D01*
X126828571Y-90505771D02*
X126971428Y-90505771D01*
X126971428Y-90505771D02*
X127066666Y-90553390D01*
X127066666Y-90553390D02*
X127114285Y-90601009D01*
X127114285Y-90601009D02*
X127161904Y-90696247D01*
X127161904Y-90696247D02*
X127161904Y-90934342D01*
X127161904Y-90934342D02*
X127114285Y-91029580D01*
X127114285Y-91029580D02*
X127066666Y-91077200D01*
X127066666Y-91077200D02*
X126971428Y-91124819D01*
X126971428Y-91124819D02*
X126685714Y-91124819D01*
X126685714Y-91124819D02*
X126590476Y-91077200D01*
X126590476Y-91077200D02*
X126542857Y-91029580D01*
X125854819Y-106809523D02*
X126569104Y-106809523D01*
X126569104Y-106809523D02*
X126711961Y-106857142D01*
X126711961Y-106857142D02*
X126807200Y-106952380D01*
X126807200Y-106952380D02*
X126854819Y-107095237D01*
X126854819Y-107095237D02*
X126854819Y-107190475D01*
X126854819Y-105809523D02*
X126854819Y-106380951D01*
X126854819Y-106095237D02*
X125854819Y-106095237D01*
X125854819Y-106095237D02*
X125997676Y-106190475D01*
X125997676Y-106190475D02*
X126092914Y-106285713D01*
X126092914Y-106285713D02*
X126140533Y-106380951D01*
X126854819Y-104857142D02*
X126854819Y-105428570D01*
X126854819Y-105142856D02*
X125854819Y-105142856D01*
X125854819Y-105142856D02*
X125997676Y-105238094D01*
X125997676Y-105238094D02*
X126092914Y-105333332D01*
X126092914Y-105333332D02*
X126140533Y-105428570D01*
X127562295Y-131140475D02*
X126762295Y-131140475D01*
X126762295Y-131140475D02*
X126762295Y-130949999D01*
X126762295Y-130949999D02*
X126800390Y-130835713D01*
X126800390Y-130835713D02*
X126876580Y-130759523D01*
X126876580Y-130759523D02*
X126952771Y-130721428D01*
X126952771Y-130721428D02*
X127105152Y-130683332D01*
X127105152Y-130683332D02*
X127219438Y-130683332D01*
X127219438Y-130683332D02*
X127371819Y-130721428D01*
X127371819Y-130721428D02*
X127448009Y-130759523D01*
X127448009Y-130759523D02*
X127524200Y-130835713D01*
X127524200Y-130835713D02*
X127562295Y-130949999D01*
X127562295Y-130949999D02*
X127562295Y-131140475D01*
X126762295Y-130416666D02*
X126762295Y-129921428D01*
X126762295Y-129921428D02*
X127067057Y-130188094D01*
X127067057Y-130188094D02*
X127067057Y-130073809D01*
X127067057Y-130073809D02*
X127105152Y-129997618D01*
X127105152Y-129997618D02*
X127143247Y-129959523D01*
X127143247Y-129959523D02*
X127219438Y-129921428D01*
X127219438Y-129921428D02*
X127409914Y-129921428D01*
X127409914Y-129921428D02*
X127486104Y-129959523D01*
X127486104Y-129959523D02*
X127524200Y-129997618D01*
X127524200Y-129997618D02*
X127562295Y-130073809D01*
X127562295Y-130073809D02*
X127562295Y-130302380D01*
X127562295Y-130302380D02*
X127524200Y-130378571D01*
X127524200Y-130378571D02*
X127486104Y-130416666D01*
X138957142Y-98909580D02*
X138909523Y-98957200D01*
X138909523Y-98957200D02*
X138766666Y-99004819D01*
X138766666Y-99004819D02*
X138671428Y-99004819D01*
X138671428Y-99004819D02*
X138528571Y-98957200D01*
X138528571Y-98957200D02*
X138433333Y-98861961D01*
X138433333Y-98861961D02*
X138385714Y-98766723D01*
X138385714Y-98766723D02*
X138338095Y-98576247D01*
X138338095Y-98576247D02*
X138338095Y-98433390D01*
X138338095Y-98433390D02*
X138385714Y-98242914D01*
X138385714Y-98242914D02*
X138433333Y-98147676D01*
X138433333Y-98147676D02*
X138528571Y-98052438D01*
X138528571Y-98052438D02*
X138671428Y-98004819D01*
X138671428Y-98004819D02*
X138766666Y-98004819D01*
X138766666Y-98004819D02*
X138909523Y-98052438D01*
X138909523Y-98052438D02*
X138957142Y-98100057D01*
X139909523Y-99004819D02*
X139338095Y-99004819D01*
X139623809Y-99004819D02*
X139623809Y-98004819D01*
X139623809Y-98004819D02*
X139528571Y-98147676D01*
X139528571Y-98147676D02*
X139433333Y-98242914D01*
X139433333Y-98242914D02*
X139338095Y-98290533D01*
X140385714Y-99004819D02*
X140576190Y-99004819D01*
X140576190Y-99004819D02*
X140671428Y-98957200D01*
X140671428Y-98957200D02*
X140719047Y-98909580D01*
X140719047Y-98909580D02*
X140814285Y-98766723D01*
X140814285Y-98766723D02*
X140861904Y-98576247D01*
X140861904Y-98576247D02*
X140861904Y-98195295D01*
X140861904Y-98195295D02*
X140814285Y-98100057D01*
X140814285Y-98100057D02*
X140766666Y-98052438D01*
X140766666Y-98052438D02*
X140671428Y-98004819D01*
X140671428Y-98004819D02*
X140480952Y-98004819D01*
X140480952Y-98004819D02*
X140385714Y-98052438D01*
X140385714Y-98052438D02*
X140338095Y-98100057D01*
X140338095Y-98100057D02*
X140290476Y-98195295D01*
X140290476Y-98195295D02*
X140290476Y-98433390D01*
X140290476Y-98433390D02*
X140338095Y-98528628D01*
X140338095Y-98528628D02*
X140385714Y-98576247D01*
X140385714Y-98576247D02*
X140480952Y-98623866D01*
X140480952Y-98623866D02*
X140671428Y-98623866D01*
X140671428Y-98623866D02*
X140766666Y-98576247D01*
X140766666Y-98576247D02*
X140814285Y-98528628D01*
X140814285Y-98528628D02*
X140861904Y-98433390D01*
X151258333Y-117569580D02*
X151210714Y-117617200D01*
X151210714Y-117617200D02*
X151067857Y-117664819D01*
X151067857Y-117664819D02*
X150972619Y-117664819D01*
X150972619Y-117664819D02*
X150829762Y-117617200D01*
X150829762Y-117617200D02*
X150734524Y-117521961D01*
X150734524Y-117521961D02*
X150686905Y-117426723D01*
X150686905Y-117426723D02*
X150639286Y-117236247D01*
X150639286Y-117236247D02*
X150639286Y-117093390D01*
X150639286Y-117093390D02*
X150686905Y-116902914D01*
X150686905Y-116902914D02*
X150734524Y-116807676D01*
X150734524Y-116807676D02*
X150829762Y-116712438D01*
X150829762Y-116712438D02*
X150972619Y-116664819D01*
X150972619Y-116664819D02*
X151067857Y-116664819D01*
X151067857Y-116664819D02*
X151210714Y-116712438D01*
X151210714Y-116712438D02*
X151258333Y-116760057D01*
X152163095Y-116664819D02*
X151686905Y-116664819D01*
X151686905Y-116664819D02*
X151639286Y-117141009D01*
X151639286Y-117141009D02*
X151686905Y-117093390D01*
X151686905Y-117093390D02*
X151782143Y-117045771D01*
X151782143Y-117045771D02*
X152020238Y-117045771D01*
X152020238Y-117045771D02*
X152115476Y-117093390D01*
X152115476Y-117093390D02*
X152163095Y-117141009D01*
X152163095Y-117141009D02*
X152210714Y-117236247D01*
X152210714Y-117236247D02*
X152210714Y-117474342D01*
X152210714Y-117474342D02*
X152163095Y-117569580D01*
X152163095Y-117569580D02*
X152115476Y-117617200D01*
X152115476Y-117617200D02*
X152020238Y-117664819D01*
X152020238Y-117664819D02*
X151782143Y-117664819D01*
X151782143Y-117664819D02*
X151686905Y-117617200D01*
X151686905Y-117617200D02*
X151639286Y-117569580D01*
X120238095Y-90954819D02*
X120238095Y-89954819D01*
X120238095Y-90431009D02*
X120809523Y-90431009D01*
X120809523Y-90954819D02*
X120809523Y-89954819D01*
X121714285Y-90288152D02*
X121714285Y-90954819D01*
X121476190Y-89907200D02*
X121238095Y-90621485D01*
X121238095Y-90621485D02*
X121857142Y-90621485D01*
X152059580Y-123116666D02*
X152107200Y-123164285D01*
X152107200Y-123164285D02*
X152154819Y-123307142D01*
X152154819Y-123307142D02*
X152154819Y-123402380D01*
X152154819Y-123402380D02*
X152107200Y-123545237D01*
X152107200Y-123545237D02*
X152011961Y-123640475D01*
X152011961Y-123640475D02*
X151916723Y-123688094D01*
X151916723Y-123688094D02*
X151726247Y-123735713D01*
X151726247Y-123735713D02*
X151583390Y-123735713D01*
X151583390Y-123735713D02*
X151392914Y-123688094D01*
X151392914Y-123688094D02*
X151297676Y-123640475D01*
X151297676Y-123640475D02*
X151202438Y-123545237D01*
X151202438Y-123545237D02*
X151154819Y-123402380D01*
X151154819Y-123402380D02*
X151154819Y-123307142D01*
X151154819Y-123307142D02*
X151202438Y-123164285D01*
X151202438Y-123164285D02*
X151250057Y-123116666D01*
X151250057Y-122735713D02*
X151202438Y-122688094D01*
X151202438Y-122688094D02*
X151154819Y-122592856D01*
X151154819Y-122592856D02*
X151154819Y-122354761D01*
X151154819Y-122354761D02*
X151202438Y-122259523D01*
X151202438Y-122259523D02*
X151250057Y-122211904D01*
X151250057Y-122211904D02*
X151345295Y-122164285D01*
X151345295Y-122164285D02*
X151440533Y-122164285D01*
X151440533Y-122164285D02*
X151583390Y-122211904D01*
X151583390Y-122211904D02*
X152154819Y-122783332D01*
X152154819Y-122783332D02*
X152154819Y-122164285D01*
D13*
X126777190Y-115921428D02*
X126801000Y-115945237D01*
X126801000Y-115945237D02*
X126824809Y-116016666D01*
X126824809Y-116016666D02*
X126824809Y-116064285D01*
X126824809Y-116064285D02*
X126801000Y-116135713D01*
X126801000Y-116135713D02*
X126753380Y-116183332D01*
X126753380Y-116183332D02*
X126705761Y-116207142D01*
X126705761Y-116207142D02*
X126610523Y-116230951D01*
X126610523Y-116230951D02*
X126539095Y-116230951D01*
X126539095Y-116230951D02*
X126443857Y-116207142D01*
X126443857Y-116207142D02*
X126396238Y-116183332D01*
X126396238Y-116183332D02*
X126348619Y-116135713D01*
X126348619Y-116135713D02*
X126324809Y-116064285D01*
X126324809Y-116064285D02*
X126324809Y-116016666D01*
X126324809Y-116016666D02*
X126348619Y-115945237D01*
X126348619Y-115945237D02*
X126372428Y-115921428D01*
X126824809Y-115445237D02*
X126824809Y-115730951D01*
X126824809Y-115588094D02*
X126324809Y-115588094D01*
X126324809Y-115588094D02*
X126396238Y-115635713D01*
X126396238Y-115635713D02*
X126443857Y-115683332D01*
X126443857Y-115683332D02*
X126467666Y-115730951D01*
X126324809Y-115016666D02*
X126324809Y-115111904D01*
X126324809Y-115111904D02*
X126348619Y-115159523D01*
X126348619Y-115159523D02*
X126372428Y-115183333D01*
X126372428Y-115183333D02*
X126443857Y-115230952D01*
X126443857Y-115230952D02*
X126539095Y-115254761D01*
X126539095Y-115254761D02*
X126729571Y-115254761D01*
X126729571Y-115254761D02*
X126777190Y-115230952D01*
X126777190Y-115230952D02*
X126801000Y-115207142D01*
X126801000Y-115207142D02*
X126824809Y-115159523D01*
X126824809Y-115159523D02*
X126824809Y-115064285D01*
X126824809Y-115064285D02*
X126801000Y-115016666D01*
X126801000Y-115016666D02*
X126777190Y-114992857D01*
X126777190Y-114992857D02*
X126729571Y-114969047D01*
X126729571Y-114969047D02*
X126610523Y-114969047D01*
X126610523Y-114969047D02*
X126562904Y-114992857D01*
X126562904Y-114992857D02*
X126539095Y-115016666D01*
X126539095Y-115016666D02*
X126515285Y-115064285D01*
X126515285Y-115064285D02*
X126515285Y-115159523D01*
X126515285Y-115159523D02*
X126539095Y-115207142D01*
X126539095Y-115207142D02*
X126562904Y-115230952D01*
X126562904Y-115230952D02*
X126610523Y-115254761D01*
X136716666Y-107877190D02*
X136692857Y-107901000D01*
X136692857Y-107901000D02*
X136621428Y-107924809D01*
X136621428Y-107924809D02*
X136573809Y-107924809D01*
X136573809Y-107924809D02*
X136502381Y-107901000D01*
X136502381Y-107901000D02*
X136454762Y-107853380D01*
X136454762Y-107853380D02*
X136430952Y-107805761D01*
X136430952Y-107805761D02*
X136407143Y-107710523D01*
X136407143Y-107710523D02*
X136407143Y-107639095D01*
X136407143Y-107639095D02*
X136430952Y-107543857D01*
X136430952Y-107543857D02*
X136454762Y-107496238D01*
X136454762Y-107496238D02*
X136502381Y-107448619D01*
X136502381Y-107448619D02*
X136573809Y-107424809D01*
X136573809Y-107424809D02*
X136621428Y-107424809D01*
X136621428Y-107424809D02*
X136692857Y-107448619D01*
X136692857Y-107448619D02*
X136716666Y-107472428D01*
X137145238Y-107424809D02*
X137050000Y-107424809D01*
X137050000Y-107424809D02*
X137002381Y-107448619D01*
X137002381Y-107448619D02*
X136978571Y-107472428D01*
X136978571Y-107472428D02*
X136930952Y-107543857D01*
X136930952Y-107543857D02*
X136907143Y-107639095D01*
X136907143Y-107639095D02*
X136907143Y-107829571D01*
X136907143Y-107829571D02*
X136930952Y-107877190D01*
X136930952Y-107877190D02*
X136954762Y-107901000D01*
X136954762Y-107901000D02*
X137002381Y-107924809D01*
X137002381Y-107924809D02*
X137097619Y-107924809D01*
X137097619Y-107924809D02*
X137145238Y-107901000D01*
X137145238Y-107901000D02*
X137169047Y-107877190D01*
X137169047Y-107877190D02*
X137192857Y-107829571D01*
X137192857Y-107829571D02*
X137192857Y-107710523D01*
X137192857Y-107710523D02*
X137169047Y-107662904D01*
X137169047Y-107662904D02*
X137145238Y-107639095D01*
X137145238Y-107639095D02*
X137097619Y-107615285D01*
X137097619Y-107615285D02*
X137002381Y-107615285D01*
X137002381Y-107615285D02*
X136954762Y-107639095D01*
X136954762Y-107639095D02*
X136930952Y-107662904D01*
X136930952Y-107662904D02*
X136907143Y-107710523D01*
D12*
X159738095Y-123054819D02*
X159738095Y-123864342D01*
X159738095Y-123864342D02*
X159785714Y-123959580D01*
X159785714Y-123959580D02*
X159833333Y-124007200D01*
X159833333Y-124007200D02*
X159928571Y-124054819D01*
X159928571Y-124054819D02*
X160119047Y-124054819D01*
X160119047Y-124054819D02*
X160214285Y-124007200D01*
X160214285Y-124007200D02*
X160261904Y-123959580D01*
X160261904Y-123959580D02*
X160309523Y-123864342D01*
X160309523Y-123864342D02*
X160309523Y-123054819D01*
X160690476Y-123054819D02*
X161309523Y-123054819D01*
X161309523Y-123054819D02*
X160976190Y-123435771D01*
X160976190Y-123435771D02*
X161119047Y-123435771D01*
X161119047Y-123435771D02*
X161214285Y-123483390D01*
X161214285Y-123483390D02*
X161261904Y-123531009D01*
X161261904Y-123531009D02*
X161309523Y-123626247D01*
X161309523Y-123626247D02*
X161309523Y-123864342D01*
X161309523Y-123864342D02*
X161261904Y-123959580D01*
X161261904Y-123959580D02*
X161214285Y-124007200D01*
X161214285Y-124007200D02*
X161119047Y-124054819D01*
X161119047Y-124054819D02*
X160833333Y-124054819D01*
X160833333Y-124054819D02*
X160738095Y-124007200D01*
X160738095Y-124007200D02*
X160690476Y-123959580D01*
D13*
X157928571Y-90927190D02*
X157904762Y-90951000D01*
X157904762Y-90951000D02*
X157833333Y-90974809D01*
X157833333Y-90974809D02*
X157785714Y-90974809D01*
X157785714Y-90974809D02*
X157714286Y-90951000D01*
X157714286Y-90951000D02*
X157666667Y-90903380D01*
X157666667Y-90903380D02*
X157642857Y-90855761D01*
X157642857Y-90855761D02*
X157619048Y-90760523D01*
X157619048Y-90760523D02*
X157619048Y-90689095D01*
X157619048Y-90689095D02*
X157642857Y-90593857D01*
X157642857Y-90593857D02*
X157666667Y-90546238D01*
X157666667Y-90546238D02*
X157714286Y-90498619D01*
X157714286Y-90498619D02*
X157785714Y-90474809D01*
X157785714Y-90474809D02*
X157833333Y-90474809D01*
X157833333Y-90474809D02*
X157904762Y-90498619D01*
X157904762Y-90498619D02*
X157928571Y-90522428D01*
X158119048Y-90522428D02*
X158142857Y-90498619D01*
X158142857Y-90498619D02*
X158190476Y-90474809D01*
X158190476Y-90474809D02*
X158309524Y-90474809D01*
X158309524Y-90474809D02*
X158357143Y-90498619D01*
X158357143Y-90498619D02*
X158380952Y-90522428D01*
X158380952Y-90522428D02*
X158404762Y-90570047D01*
X158404762Y-90570047D02*
X158404762Y-90617666D01*
X158404762Y-90617666D02*
X158380952Y-90689095D01*
X158380952Y-90689095D02*
X158095238Y-90974809D01*
X158095238Y-90974809D02*
X158404762Y-90974809D01*
X158595238Y-90522428D02*
X158619047Y-90498619D01*
X158619047Y-90498619D02*
X158666666Y-90474809D01*
X158666666Y-90474809D02*
X158785714Y-90474809D01*
X158785714Y-90474809D02*
X158833333Y-90498619D01*
X158833333Y-90498619D02*
X158857142Y-90522428D01*
X158857142Y-90522428D02*
X158880952Y-90570047D01*
X158880952Y-90570047D02*
X158880952Y-90617666D01*
X158880952Y-90617666D02*
X158857142Y-90689095D01*
X158857142Y-90689095D02*
X158571428Y-90974809D01*
X158571428Y-90974809D02*
X158880952Y-90974809D01*
D12*
X134559580Y-107867857D02*
X134607200Y-107915476D01*
X134607200Y-107915476D02*
X134654819Y-108058333D01*
X134654819Y-108058333D02*
X134654819Y-108153571D01*
X134654819Y-108153571D02*
X134607200Y-108296428D01*
X134607200Y-108296428D02*
X134511961Y-108391666D01*
X134511961Y-108391666D02*
X134416723Y-108439285D01*
X134416723Y-108439285D02*
X134226247Y-108486904D01*
X134226247Y-108486904D02*
X134083390Y-108486904D01*
X134083390Y-108486904D02*
X133892914Y-108439285D01*
X133892914Y-108439285D02*
X133797676Y-108391666D01*
X133797676Y-108391666D02*
X133702438Y-108296428D01*
X133702438Y-108296428D02*
X133654819Y-108153571D01*
X133654819Y-108153571D02*
X133654819Y-108058333D01*
X133654819Y-108058333D02*
X133702438Y-107915476D01*
X133702438Y-107915476D02*
X133750057Y-107867857D01*
X134654819Y-106915476D02*
X134654819Y-107486904D01*
X134654819Y-107201190D02*
X133654819Y-107201190D01*
X133654819Y-107201190D02*
X133797676Y-107296428D01*
X133797676Y-107296428D02*
X133892914Y-107391666D01*
X133892914Y-107391666D02*
X133940533Y-107486904D01*
X133988152Y-106058333D02*
X134654819Y-106058333D01*
X133607200Y-106296428D02*
X134321485Y-106534523D01*
X134321485Y-106534523D02*
X134321485Y-105915476D01*
X120666666Y-91754819D02*
X120666666Y-92469104D01*
X120666666Y-92469104D02*
X120619047Y-92611961D01*
X120619047Y-92611961D02*
X120523809Y-92707200D01*
X120523809Y-92707200D02*
X120380952Y-92754819D01*
X120380952Y-92754819D02*
X120285714Y-92754819D01*
X121619047Y-91754819D02*
X121142857Y-91754819D01*
X121142857Y-91754819D02*
X121095238Y-92231009D01*
X121095238Y-92231009D02*
X121142857Y-92183390D01*
X121142857Y-92183390D02*
X121238095Y-92135771D01*
X121238095Y-92135771D02*
X121476190Y-92135771D01*
X121476190Y-92135771D02*
X121571428Y-92183390D01*
X121571428Y-92183390D02*
X121619047Y-92231009D01*
X121619047Y-92231009D02*
X121666666Y-92326247D01*
X121666666Y-92326247D02*
X121666666Y-92564342D01*
X121666666Y-92564342D02*
X121619047Y-92659580D01*
X121619047Y-92659580D02*
X121571428Y-92707200D01*
X121571428Y-92707200D02*
X121476190Y-92754819D01*
X121476190Y-92754819D02*
X121238095Y-92754819D01*
X121238095Y-92754819D02*
X121142857Y-92707200D01*
X121142857Y-92707200D02*
X121095238Y-92659580D01*
X133466666Y-91704819D02*
X133466666Y-92419104D01*
X133466666Y-92419104D02*
X133419047Y-92561961D01*
X133419047Y-92561961D02*
X133323809Y-92657200D01*
X133323809Y-92657200D02*
X133180952Y-92704819D01*
X133180952Y-92704819D02*
X133085714Y-92704819D01*
X134371428Y-92038152D02*
X134371428Y-92704819D01*
X134133333Y-91657200D02*
X133895238Y-92371485D01*
X133895238Y-92371485D02*
X134514285Y-92371485D01*
X125854819Y-119509523D02*
X126569104Y-119509523D01*
X126569104Y-119509523D02*
X126711961Y-119557142D01*
X126711961Y-119557142D02*
X126807200Y-119652380D01*
X126807200Y-119652380D02*
X126854819Y-119795237D01*
X126854819Y-119795237D02*
X126854819Y-119890475D01*
X126854819Y-118509523D02*
X126854819Y-119080951D01*
X126854819Y-118795237D02*
X125854819Y-118795237D01*
X125854819Y-118795237D02*
X125997676Y-118890475D01*
X125997676Y-118890475D02*
X126092914Y-118985713D01*
X126092914Y-118985713D02*
X126140533Y-119080951D01*
X125854819Y-117890475D02*
X125854819Y-117795237D01*
X125854819Y-117795237D02*
X125902438Y-117699999D01*
X125902438Y-117699999D02*
X125950057Y-117652380D01*
X125950057Y-117652380D02*
X126045295Y-117604761D01*
X126045295Y-117604761D02*
X126235771Y-117557142D01*
X126235771Y-117557142D02*
X126473866Y-117557142D01*
X126473866Y-117557142D02*
X126664342Y-117604761D01*
X126664342Y-117604761D02*
X126759580Y-117652380D01*
X126759580Y-117652380D02*
X126807200Y-117699999D01*
X126807200Y-117699999D02*
X126854819Y-117795237D01*
X126854819Y-117795237D02*
X126854819Y-117890475D01*
X126854819Y-117890475D02*
X126807200Y-117985713D01*
X126807200Y-117985713D02*
X126759580Y-118033332D01*
X126759580Y-118033332D02*
X126664342Y-118080951D01*
X126664342Y-118080951D02*
X126473866Y-118128570D01*
X126473866Y-118128570D02*
X126235771Y-118128570D01*
X126235771Y-118128570D02*
X126045295Y-118080951D01*
X126045295Y-118080951D02*
X125950057Y-118033332D01*
X125950057Y-118033332D02*
X125902438Y-117985713D01*
X125902438Y-117985713D02*
X125854819Y-117890475D01*
X172238095Y-91454819D02*
X172238095Y-90454819D01*
X172238095Y-90931009D02*
X172809523Y-90931009D01*
X172809523Y-91454819D02*
X172809523Y-90454819D01*
X173809523Y-91454819D02*
X173238095Y-91454819D01*
X173523809Y-91454819D02*
X173523809Y-90454819D01*
X173523809Y-90454819D02*
X173428571Y-90597676D01*
X173428571Y-90597676D02*
X173333333Y-90692914D01*
X173333333Y-90692914D02*
X173238095Y-90740533D01*
X156684580Y-105516666D02*
X156732200Y-105564285D01*
X156732200Y-105564285D02*
X156779819Y-105707142D01*
X156779819Y-105707142D02*
X156779819Y-105802380D01*
X156779819Y-105802380D02*
X156732200Y-105945237D01*
X156732200Y-105945237D02*
X156636961Y-106040475D01*
X156636961Y-106040475D02*
X156541723Y-106088094D01*
X156541723Y-106088094D02*
X156351247Y-106135713D01*
X156351247Y-106135713D02*
X156208390Y-106135713D01*
X156208390Y-106135713D02*
X156017914Y-106088094D01*
X156017914Y-106088094D02*
X155922676Y-106040475D01*
X155922676Y-106040475D02*
X155827438Y-105945237D01*
X155827438Y-105945237D02*
X155779819Y-105802380D01*
X155779819Y-105802380D02*
X155779819Y-105707142D01*
X155779819Y-105707142D02*
X155827438Y-105564285D01*
X155827438Y-105564285D02*
X155875057Y-105516666D01*
X156779819Y-105040475D02*
X156779819Y-104849999D01*
X156779819Y-104849999D02*
X156732200Y-104754761D01*
X156732200Y-104754761D02*
X156684580Y-104707142D01*
X156684580Y-104707142D02*
X156541723Y-104611904D01*
X156541723Y-104611904D02*
X156351247Y-104564285D01*
X156351247Y-104564285D02*
X155970295Y-104564285D01*
X155970295Y-104564285D02*
X155875057Y-104611904D01*
X155875057Y-104611904D02*
X155827438Y-104659523D01*
X155827438Y-104659523D02*
X155779819Y-104754761D01*
X155779819Y-104754761D02*
X155779819Y-104945237D01*
X155779819Y-104945237D02*
X155827438Y-105040475D01*
X155827438Y-105040475D02*
X155875057Y-105088094D01*
X155875057Y-105088094D02*
X155970295Y-105135713D01*
X155970295Y-105135713D02*
X156208390Y-105135713D01*
X156208390Y-105135713D02*
X156303628Y-105088094D01*
X156303628Y-105088094D02*
X156351247Y-105040475D01*
X156351247Y-105040475D02*
X156398866Y-104945237D01*
X156398866Y-104945237D02*
X156398866Y-104754761D01*
X156398866Y-104754761D02*
X156351247Y-104659523D01*
X156351247Y-104659523D02*
X156303628Y-104611904D01*
X156303628Y-104611904D02*
X156208390Y-104564285D01*
D13*
X153078571Y-103177190D02*
X153054762Y-103201000D01*
X153054762Y-103201000D02*
X152983333Y-103224809D01*
X152983333Y-103224809D02*
X152935714Y-103224809D01*
X152935714Y-103224809D02*
X152864286Y-103201000D01*
X152864286Y-103201000D02*
X152816667Y-103153380D01*
X152816667Y-103153380D02*
X152792857Y-103105761D01*
X152792857Y-103105761D02*
X152769048Y-103010523D01*
X152769048Y-103010523D02*
X152769048Y-102939095D01*
X152769048Y-102939095D02*
X152792857Y-102843857D01*
X152792857Y-102843857D02*
X152816667Y-102796238D01*
X152816667Y-102796238D02*
X152864286Y-102748619D01*
X152864286Y-102748619D02*
X152935714Y-102724809D01*
X152935714Y-102724809D02*
X152983333Y-102724809D01*
X152983333Y-102724809D02*
X153054762Y-102748619D01*
X153054762Y-102748619D02*
X153078571Y-102772428D01*
X153554762Y-103224809D02*
X153269048Y-103224809D01*
X153411905Y-103224809D02*
X153411905Y-102724809D01*
X153411905Y-102724809D02*
X153364286Y-102796238D01*
X153364286Y-102796238D02*
X153316667Y-102843857D01*
X153316667Y-102843857D02*
X153269048Y-102867666D01*
X154030952Y-103224809D02*
X153745238Y-103224809D01*
X153888095Y-103224809D02*
X153888095Y-102724809D01*
X153888095Y-102724809D02*
X153840476Y-102796238D01*
X153840476Y-102796238D02*
X153792857Y-102843857D01*
X153792857Y-102843857D02*
X153745238Y-102867666D01*
D12*
X166690476Y-134954819D02*
X166690476Y-135669104D01*
X166690476Y-135669104D02*
X166642857Y-135811961D01*
X166642857Y-135811961D02*
X166547619Y-135907200D01*
X166547619Y-135907200D02*
X166404762Y-135954819D01*
X166404762Y-135954819D02*
X166309524Y-135954819D01*
X167690476Y-135954819D02*
X167119048Y-135954819D01*
X167404762Y-135954819D02*
X167404762Y-134954819D01*
X167404762Y-134954819D02*
X167309524Y-135097676D01*
X167309524Y-135097676D02*
X167214286Y-135192914D01*
X167214286Y-135192914D02*
X167119048Y-135240533D01*
X168547619Y-134954819D02*
X168357143Y-134954819D01*
X168357143Y-134954819D02*
X168261905Y-135002438D01*
X168261905Y-135002438D02*
X168214286Y-135050057D01*
X168214286Y-135050057D02*
X168119048Y-135192914D01*
X168119048Y-135192914D02*
X168071429Y-135383390D01*
X168071429Y-135383390D02*
X168071429Y-135764342D01*
X168071429Y-135764342D02*
X168119048Y-135859580D01*
X168119048Y-135859580D02*
X168166667Y-135907200D01*
X168166667Y-135907200D02*
X168261905Y-135954819D01*
X168261905Y-135954819D02*
X168452381Y-135954819D01*
X168452381Y-135954819D02*
X168547619Y-135907200D01*
X168547619Y-135907200D02*
X168595238Y-135859580D01*
X168595238Y-135859580D02*
X168642857Y-135764342D01*
X168642857Y-135764342D02*
X168642857Y-135526247D01*
X168642857Y-135526247D02*
X168595238Y-135431009D01*
X168595238Y-135431009D02*
X168547619Y-135383390D01*
X168547619Y-135383390D02*
X168452381Y-135335771D01*
X168452381Y-135335771D02*
X168261905Y-135335771D01*
X168261905Y-135335771D02*
X168166667Y-135383390D01*
X168166667Y-135383390D02*
X168119048Y-135431009D01*
X168119048Y-135431009D02*
X168071429Y-135526247D01*
D13*
X137178571Y-111177190D02*
X137154762Y-111201000D01*
X137154762Y-111201000D02*
X137083333Y-111224809D01*
X137083333Y-111224809D02*
X137035714Y-111224809D01*
X137035714Y-111224809D02*
X136964286Y-111201000D01*
X136964286Y-111201000D02*
X136916667Y-111153380D01*
X136916667Y-111153380D02*
X136892857Y-111105761D01*
X136892857Y-111105761D02*
X136869048Y-111010523D01*
X136869048Y-111010523D02*
X136869048Y-110939095D01*
X136869048Y-110939095D02*
X136892857Y-110843857D01*
X136892857Y-110843857D02*
X136916667Y-110796238D01*
X136916667Y-110796238D02*
X136964286Y-110748619D01*
X136964286Y-110748619D02*
X137035714Y-110724809D01*
X137035714Y-110724809D02*
X137083333Y-110724809D01*
X137083333Y-110724809D02*
X137154762Y-110748619D01*
X137154762Y-110748619D02*
X137178571Y-110772428D01*
X137654762Y-111224809D02*
X137369048Y-111224809D01*
X137511905Y-111224809D02*
X137511905Y-110724809D01*
X137511905Y-110724809D02*
X137464286Y-110796238D01*
X137464286Y-110796238D02*
X137416667Y-110843857D01*
X137416667Y-110843857D02*
X137369048Y-110867666D01*
X137845238Y-110772428D02*
X137869047Y-110748619D01*
X137869047Y-110748619D02*
X137916666Y-110724809D01*
X137916666Y-110724809D02*
X138035714Y-110724809D01*
X138035714Y-110724809D02*
X138083333Y-110748619D01*
X138083333Y-110748619D02*
X138107142Y-110772428D01*
X138107142Y-110772428D02*
X138130952Y-110820047D01*
X138130952Y-110820047D02*
X138130952Y-110867666D01*
X138130952Y-110867666D02*
X138107142Y-110939095D01*
X138107142Y-110939095D02*
X137821428Y-111224809D01*
X137821428Y-111224809D02*
X138130952Y-111224809D01*
D12*
X165259580Y-122966666D02*
X165307200Y-123014285D01*
X165307200Y-123014285D02*
X165354819Y-123157142D01*
X165354819Y-123157142D02*
X165354819Y-123252380D01*
X165354819Y-123252380D02*
X165307200Y-123395237D01*
X165307200Y-123395237D02*
X165211961Y-123490475D01*
X165211961Y-123490475D02*
X165116723Y-123538094D01*
X165116723Y-123538094D02*
X164926247Y-123585713D01*
X164926247Y-123585713D02*
X164783390Y-123585713D01*
X164783390Y-123585713D02*
X164592914Y-123538094D01*
X164592914Y-123538094D02*
X164497676Y-123490475D01*
X164497676Y-123490475D02*
X164402438Y-123395237D01*
X164402438Y-123395237D02*
X164354819Y-123252380D01*
X164354819Y-123252380D02*
X164354819Y-123157142D01*
X164354819Y-123157142D02*
X164402438Y-123014285D01*
X164402438Y-123014285D02*
X164450057Y-122966666D01*
X165354819Y-122014285D02*
X165354819Y-122585713D01*
X165354819Y-122299999D02*
X164354819Y-122299999D01*
X164354819Y-122299999D02*
X164497676Y-122395237D01*
X164497676Y-122395237D02*
X164592914Y-122490475D01*
X164592914Y-122490475D02*
X164640533Y-122585713D01*
X147063095Y-108204819D02*
X147063095Y-109014342D01*
X147063095Y-109014342D02*
X147110714Y-109109580D01*
X147110714Y-109109580D02*
X147158333Y-109157200D01*
X147158333Y-109157200D02*
X147253571Y-109204819D01*
X147253571Y-109204819D02*
X147444047Y-109204819D01*
X147444047Y-109204819D02*
X147539285Y-109157200D01*
X147539285Y-109157200D02*
X147586904Y-109109580D01*
X147586904Y-109109580D02*
X147634523Y-109014342D01*
X147634523Y-109014342D02*
X147634523Y-108204819D01*
X148063095Y-108300057D02*
X148110714Y-108252438D01*
X148110714Y-108252438D02*
X148205952Y-108204819D01*
X148205952Y-108204819D02*
X148444047Y-108204819D01*
X148444047Y-108204819D02*
X148539285Y-108252438D01*
X148539285Y-108252438D02*
X148586904Y-108300057D01*
X148586904Y-108300057D02*
X148634523Y-108395295D01*
X148634523Y-108395295D02*
X148634523Y-108490533D01*
X148634523Y-108490533D02*
X148586904Y-108633390D01*
X148586904Y-108633390D02*
X148015476Y-109204819D01*
X148015476Y-109204819D02*
X148634523Y-109204819D01*
X118654819Y-112833333D02*
X119369104Y-112833333D01*
X119369104Y-112833333D02*
X119511961Y-112880952D01*
X119511961Y-112880952D02*
X119607200Y-112976190D01*
X119607200Y-112976190D02*
X119654819Y-113119047D01*
X119654819Y-113119047D02*
X119654819Y-113214285D01*
X119654819Y-112309523D02*
X119654819Y-112119047D01*
X119654819Y-112119047D02*
X119607200Y-112023809D01*
X119607200Y-112023809D02*
X119559580Y-111976190D01*
X119559580Y-111976190D02*
X119416723Y-111880952D01*
X119416723Y-111880952D02*
X119226247Y-111833333D01*
X119226247Y-111833333D02*
X118845295Y-111833333D01*
X118845295Y-111833333D02*
X118750057Y-111880952D01*
X118750057Y-111880952D02*
X118702438Y-111928571D01*
X118702438Y-111928571D02*
X118654819Y-112023809D01*
X118654819Y-112023809D02*
X118654819Y-112214285D01*
X118654819Y-112214285D02*
X118702438Y-112309523D01*
X118702438Y-112309523D02*
X118750057Y-112357142D01*
X118750057Y-112357142D02*
X118845295Y-112404761D01*
X118845295Y-112404761D02*
X119083390Y-112404761D01*
X119083390Y-112404761D02*
X119178628Y-112357142D01*
X119178628Y-112357142D02*
X119226247Y-112309523D01*
X119226247Y-112309523D02*
X119273866Y-112214285D01*
X119273866Y-112214285D02*
X119273866Y-112023809D01*
X119273866Y-112023809D02*
X119226247Y-111928571D01*
X119226247Y-111928571D02*
X119178628Y-111880952D01*
X119178628Y-111880952D02*
X119083390Y-111833333D01*
X133266666Y-83954819D02*
X133266666Y-84669104D01*
X133266666Y-84669104D02*
X133219047Y-84811961D01*
X133219047Y-84811961D02*
X133123809Y-84907200D01*
X133123809Y-84907200D02*
X132980952Y-84954819D01*
X132980952Y-84954819D02*
X132885714Y-84954819D01*
X133647619Y-83954819D02*
X134266666Y-83954819D01*
X134266666Y-83954819D02*
X133933333Y-84335771D01*
X133933333Y-84335771D02*
X134076190Y-84335771D01*
X134076190Y-84335771D02*
X134171428Y-84383390D01*
X134171428Y-84383390D02*
X134219047Y-84431009D01*
X134219047Y-84431009D02*
X134266666Y-84526247D01*
X134266666Y-84526247D02*
X134266666Y-84764342D01*
X134266666Y-84764342D02*
X134219047Y-84859580D01*
X134219047Y-84859580D02*
X134171428Y-84907200D01*
X134171428Y-84907200D02*
X134076190Y-84954819D01*
X134076190Y-84954819D02*
X133790476Y-84954819D01*
X133790476Y-84954819D02*
X133695238Y-84907200D01*
X133695238Y-84907200D02*
X133647619Y-84859580D01*
X128454819Y-127916666D02*
X127978628Y-128249999D01*
X128454819Y-128488094D02*
X127454819Y-128488094D01*
X127454819Y-128488094D02*
X127454819Y-128107142D01*
X127454819Y-128107142D02*
X127502438Y-128011904D01*
X127502438Y-128011904D02*
X127550057Y-127964285D01*
X127550057Y-127964285D02*
X127645295Y-127916666D01*
X127645295Y-127916666D02*
X127788152Y-127916666D01*
X127788152Y-127916666D02*
X127883390Y-127964285D01*
X127883390Y-127964285D02*
X127931009Y-128011904D01*
X127931009Y-128011904D02*
X127978628Y-128107142D01*
X127978628Y-128107142D02*
X127978628Y-128488094D01*
X127550057Y-127535713D02*
X127502438Y-127488094D01*
X127502438Y-127488094D02*
X127454819Y-127392856D01*
X127454819Y-127392856D02*
X127454819Y-127154761D01*
X127454819Y-127154761D02*
X127502438Y-127059523D01*
X127502438Y-127059523D02*
X127550057Y-127011904D01*
X127550057Y-127011904D02*
X127645295Y-126964285D01*
X127645295Y-126964285D02*
X127740533Y-126964285D01*
X127740533Y-126964285D02*
X127883390Y-127011904D01*
X127883390Y-127011904D02*
X128454819Y-127583332D01*
X128454819Y-127583332D02*
X128454819Y-126964285D01*
X138357142Y-91059580D02*
X138309523Y-91107200D01*
X138309523Y-91107200D02*
X138166666Y-91154819D01*
X138166666Y-91154819D02*
X138071428Y-91154819D01*
X138071428Y-91154819D02*
X137928571Y-91107200D01*
X137928571Y-91107200D02*
X137833333Y-91011961D01*
X137833333Y-91011961D02*
X137785714Y-90916723D01*
X137785714Y-90916723D02*
X137738095Y-90726247D01*
X137738095Y-90726247D02*
X137738095Y-90583390D01*
X137738095Y-90583390D02*
X137785714Y-90392914D01*
X137785714Y-90392914D02*
X137833333Y-90297676D01*
X137833333Y-90297676D02*
X137928571Y-90202438D01*
X137928571Y-90202438D02*
X138071428Y-90154819D01*
X138071428Y-90154819D02*
X138166666Y-90154819D01*
X138166666Y-90154819D02*
X138309523Y-90202438D01*
X138309523Y-90202438D02*
X138357142Y-90250057D01*
X138738095Y-90250057D02*
X138785714Y-90202438D01*
X138785714Y-90202438D02*
X138880952Y-90154819D01*
X138880952Y-90154819D02*
X139119047Y-90154819D01*
X139119047Y-90154819D02*
X139214285Y-90202438D01*
X139214285Y-90202438D02*
X139261904Y-90250057D01*
X139261904Y-90250057D02*
X139309523Y-90345295D01*
X139309523Y-90345295D02*
X139309523Y-90440533D01*
X139309523Y-90440533D02*
X139261904Y-90583390D01*
X139261904Y-90583390D02*
X138690476Y-91154819D01*
X138690476Y-91154819D02*
X139309523Y-91154819D01*
X140261904Y-91154819D02*
X139690476Y-91154819D01*
X139976190Y-91154819D02*
X139976190Y-90154819D01*
X139976190Y-90154819D02*
X139880952Y-90297676D01*
X139880952Y-90297676D02*
X139785714Y-90392914D01*
X139785714Y-90392914D02*
X139690476Y-90440533D01*
D13*
X139178571Y-109227190D02*
X139154762Y-109251000D01*
X139154762Y-109251000D02*
X139083333Y-109274809D01*
X139083333Y-109274809D02*
X139035714Y-109274809D01*
X139035714Y-109274809D02*
X138964286Y-109251000D01*
X138964286Y-109251000D02*
X138916667Y-109203380D01*
X138916667Y-109203380D02*
X138892857Y-109155761D01*
X138892857Y-109155761D02*
X138869048Y-109060523D01*
X138869048Y-109060523D02*
X138869048Y-108989095D01*
X138869048Y-108989095D02*
X138892857Y-108893857D01*
X138892857Y-108893857D02*
X138916667Y-108846238D01*
X138916667Y-108846238D02*
X138964286Y-108798619D01*
X138964286Y-108798619D02*
X139035714Y-108774809D01*
X139035714Y-108774809D02*
X139083333Y-108774809D01*
X139083333Y-108774809D02*
X139154762Y-108798619D01*
X139154762Y-108798619D02*
X139178571Y-108822428D01*
X139654762Y-109274809D02*
X139369048Y-109274809D01*
X139511905Y-109274809D02*
X139511905Y-108774809D01*
X139511905Y-108774809D02*
X139464286Y-108846238D01*
X139464286Y-108846238D02*
X139416667Y-108893857D01*
X139416667Y-108893857D02*
X139369048Y-108917666D01*
X139964285Y-108774809D02*
X140011904Y-108774809D01*
X140011904Y-108774809D02*
X140059523Y-108798619D01*
X140059523Y-108798619D02*
X140083333Y-108822428D01*
X140083333Y-108822428D02*
X140107142Y-108870047D01*
X140107142Y-108870047D02*
X140130952Y-108965285D01*
X140130952Y-108965285D02*
X140130952Y-109084333D01*
X140130952Y-109084333D02*
X140107142Y-109179571D01*
X140107142Y-109179571D02*
X140083333Y-109227190D01*
X140083333Y-109227190D02*
X140059523Y-109251000D01*
X140059523Y-109251000D02*
X140011904Y-109274809D01*
X140011904Y-109274809D02*
X139964285Y-109274809D01*
X139964285Y-109274809D02*
X139916666Y-109251000D01*
X139916666Y-109251000D02*
X139892857Y-109227190D01*
X139892857Y-109227190D02*
X139869047Y-109179571D01*
X139869047Y-109179571D02*
X139845238Y-109084333D01*
X139845238Y-109084333D02*
X139845238Y-108965285D01*
X139845238Y-108965285D02*
X139869047Y-108870047D01*
X139869047Y-108870047D02*
X139892857Y-108822428D01*
X139892857Y-108822428D02*
X139916666Y-108798619D01*
X139916666Y-108798619D02*
X139964285Y-108774809D01*
D12*
X134459580Y-121042857D02*
X134507200Y-121090476D01*
X134507200Y-121090476D02*
X134554819Y-121233333D01*
X134554819Y-121233333D02*
X134554819Y-121328571D01*
X134554819Y-121328571D02*
X134507200Y-121471428D01*
X134507200Y-121471428D02*
X134411961Y-121566666D01*
X134411961Y-121566666D02*
X134316723Y-121614285D01*
X134316723Y-121614285D02*
X134126247Y-121661904D01*
X134126247Y-121661904D02*
X133983390Y-121661904D01*
X133983390Y-121661904D02*
X133792914Y-121614285D01*
X133792914Y-121614285D02*
X133697676Y-121566666D01*
X133697676Y-121566666D02*
X133602438Y-121471428D01*
X133602438Y-121471428D02*
X133554819Y-121328571D01*
X133554819Y-121328571D02*
X133554819Y-121233333D01*
X133554819Y-121233333D02*
X133602438Y-121090476D01*
X133602438Y-121090476D02*
X133650057Y-121042857D01*
X134554819Y-120090476D02*
X134554819Y-120661904D01*
X134554819Y-120376190D02*
X133554819Y-120376190D01*
X133554819Y-120376190D02*
X133697676Y-120471428D01*
X133697676Y-120471428D02*
X133792914Y-120566666D01*
X133792914Y-120566666D02*
X133840533Y-120661904D01*
X133554819Y-119185714D02*
X133554819Y-119661904D01*
X133554819Y-119661904D02*
X134031009Y-119709523D01*
X134031009Y-119709523D02*
X133983390Y-119661904D01*
X133983390Y-119661904D02*
X133935771Y-119566666D01*
X133935771Y-119566666D02*
X133935771Y-119328571D01*
X133935771Y-119328571D02*
X133983390Y-119233333D01*
X133983390Y-119233333D02*
X134031009Y-119185714D01*
X134031009Y-119185714D02*
X134126247Y-119138095D01*
X134126247Y-119138095D02*
X134364342Y-119138095D01*
X134364342Y-119138095D02*
X134459580Y-119185714D01*
X134459580Y-119185714D02*
X134507200Y-119233333D01*
X134507200Y-119233333D02*
X134554819Y-119328571D01*
X134554819Y-119328571D02*
X134554819Y-119566666D01*
X134554819Y-119566666D02*
X134507200Y-119661904D01*
X134507200Y-119661904D02*
X134459580Y-119709523D01*
D13*
X169077190Y-97396428D02*
X169101000Y-97420237D01*
X169101000Y-97420237D02*
X169124809Y-97491666D01*
X169124809Y-97491666D02*
X169124809Y-97539285D01*
X169124809Y-97539285D02*
X169101000Y-97610713D01*
X169101000Y-97610713D02*
X169053380Y-97658332D01*
X169053380Y-97658332D02*
X169005761Y-97682142D01*
X169005761Y-97682142D02*
X168910523Y-97705951D01*
X168910523Y-97705951D02*
X168839095Y-97705951D01*
X168839095Y-97705951D02*
X168743857Y-97682142D01*
X168743857Y-97682142D02*
X168696238Y-97658332D01*
X168696238Y-97658332D02*
X168648619Y-97610713D01*
X168648619Y-97610713D02*
X168624809Y-97539285D01*
X168624809Y-97539285D02*
X168624809Y-97491666D01*
X168624809Y-97491666D02*
X168648619Y-97420237D01*
X168648619Y-97420237D02*
X168672428Y-97396428D01*
X169124809Y-96920237D02*
X169124809Y-97205951D01*
X169124809Y-97063094D02*
X168624809Y-97063094D01*
X168624809Y-97063094D02*
X168696238Y-97110713D01*
X168696238Y-97110713D02*
X168743857Y-97158332D01*
X168743857Y-97158332D02*
X168767666Y-97205951D01*
X168839095Y-96634523D02*
X168815285Y-96682142D01*
X168815285Y-96682142D02*
X168791476Y-96705952D01*
X168791476Y-96705952D02*
X168743857Y-96729761D01*
X168743857Y-96729761D02*
X168720047Y-96729761D01*
X168720047Y-96729761D02*
X168672428Y-96705952D01*
X168672428Y-96705952D02*
X168648619Y-96682142D01*
X168648619Y-96682142D02*
X168624809Y-96634523D01*
X168624809Y-96634523D02*
X168624809Y-96539285D01*
X168624809Y-96539285D02*
X168648619Y-96491666D01*
X168648619Y-96491666D02*
X168672428Y-96467857D01*
X168672428Y-96467857D02*
X168720047Y-96444047D01*
X168720047Y-96444047D02*
X168743857Y-96444047D01*
X168743857Y-96444047D02*
X168791476Y-96467857D01*
X168791476Y-96467857D02*
X168815285Y-96491666D01*
X168815285Y-96491666D02*
X168839095Y-96539285D01*
X168839095Y-96539285D02*
X168839095Y-96634523D01*
X168839095Y-96634523D02*
X168862904Y-96682142D01*
X168862904Y-96682142D02*
X168886714Y-96705952D01*
X168886714Y-96705952D02*
X168934333Y-96729761D01*
X168934333Y-96729761D02*
X169029571Y-96729761D01*
X169029571Y-96729761D02*
X169077190Y-96705952D01*
X169077190Y-96705952D02*
X169101000Y-96682142D01*
X169101000Y-96682142D02*
X169124809Y-96634523D01*
X169124809Y-96634523D02*
X169124809Y-96539285D01*
X169124809Y-96539285D02*
X169101000Y-96491666D01*
X169101000Y-96491666D02*
X169077190Y-96467857D01*
X169077190Y-96467857D02*
X169029571Y-96444047D01*
X169029571Y-96444047D02*
X168934333Y-96444047D01*
X168934333Y-96444047D02*
X168886714Y-96467857D01*
X168886714Y-96467857D02*
X168862904Y-96491666D01*
X168862904Y-96491666D02*
X168839095Y-96539285D01*
D12*
X122238095Y-128254819D02*
X122238095Y-127254819D01*
X122238095Y-127731009D02*
X122809523Y-127731009D01*
X122809523Y-128254819D02*
X122809523Y-127254819D01*
X123190476Y-127254819D02*
X123809523Y-127254819D01*
X123809523Y-127254819D02*
X123476190Y-127635771D01*
X123476190Y-127635771D02*
X123619047Y-127635771D01*
X123619047Y-127635771D02*
X123714285Y-127683390D01*
X123714285Y-127683390D02*
X123761904Y-127731009D01*
X123761904Y-127731009D02*
X123809523Y-127826247D01*
X123809523Y-127826247D02*
X123809523Y-128064342D01*
X123809523Y-128064342D02*
X123761904Y-128159580D01*
X123761904Y-128159580D02*
X123714285Y-128207200D01*
X123714285Y-128207200D02*
X123619047Y-128254819D01*
X123619047Y-128254819D02*
X123333333Y-128254819D01*
X123333333Y-128254819D02*
X123238095Y-128207200D01*
X123238095Y-128207200D02*
X123190476Y-128159580D01*
D13*
X153516666Y-98624809D02*
X153350000Y-98386714D01*
X153230952Y-98624809D02*
X153230952Y-98124809D01*
X153230952Y-98124809D02*
X153421428Y-98124809D01*
X153421428Y-98124809D02*
X153469047Y-98148619D01*
X153469047Y-98148619D02*
X153492857Y-98172428D01*
X153492857Y-98172428D02*
X153516666Y-98220047D01*
X153516666Y-98220047D02*
X153516666Y-98291476D01*
X153516666Y-98291476D02*
X153492857Y-98339095D01*
X153492857Y-98339095D02*
X153469047Y-98362904D01*
X153469047Y-98362904D02*
X153421428Y-98386714D01*
X153421428Y-98386714D02*
X153230952Y-98386714D01*
X153945238Y-98291476D02*
X153945238Y-98624809D01*
X153826190Y-98101000D02*
X153707143Y-98458142D01*
X153707143Y-98458142D02*
X154016666Y-98458142D01*
X141216666Y-114402190D02*
X141192857Y-114426000D01*
X141192857Y-114426000D02*
X141121428Y-114449809D01*
X141121428Y-114449809D02*
X141073809Y-114449809D01*
X141073809Y-114449809D02*
X141002381Y-114426000D01*
X141002381Y-114426000D02*
X140954762Y-114378380D01*
X140954762Y-114378380D02*
X140930952Y-114330761D01*
X140930952Y-114330761D02*
X140907143Y-114235523D01*
X140907143Y-114235523D02*
X140907143Y-114164095D01*
X140907143Y-114164095D02*
X140930952Y-114068857D01*
X140930952Y-114068857D02*
X140954762Y-114021238D01*
X140954762Y-114021238D02*
X141002381Y-113973619D01*
X141002381Y-113973619D02*
X141073809Y-113949809D01*
X141073809Y-113949809D02*
X141121428Y-113949809D01*
X141121428Y-113949809D02*
X141192857Y-113973619D01*
X141192857Y-113973619D02*
X141216666Y-113997428D01*
X141383333Y-113949809D02*
X141716666Y-113949809D01*
X141716666Y-113949809D02*
X141502381Y-114449809D01*
D10*
X142466667Y-136509800D02*
X142609524Y-136557419D01*
X142609524Y-136557419D02*
X142847619Y-136557419D01*
X142847619Y-136557419D02*
X142942857Y-136509800D01*
X142942857Y-136509800D02*
X142990476Y-136462180D01*
X142990476Y-136462180D02*
X143038095Y-136366942D01*
X143038095Y-136366942D02*
X143038095Y-136271704D01*
X143038095Y-136271704D02*
X142990476Y-136176466D01*
X142990476Y-136176466D02*
X142942857Y-136128847D01*
X142942857Y-136128847D02*
X142847619Y-136081228D01*
X142847619Y-136081228D02*
X142657143Y-136033609D01*
X142657143Y-136033609D02*
X142561905Y-135985990D01*
X142561905Y-135985990D02*
X142514286Y-135938371D01*
X142514286Y-135938371D02*
X142466667Y-135843133D01*
X142466667Y-135843133D02*
X142466667Y-135747895D01*
X142466667Y-135747895D02*
X142514286Y-135652657D01*
X142514286Y-135652657D02*
X142561905Y-135605038D01*
X142561905Y-135605038D02*
X142657143Y-135557419D01*
X142657143Y-135557419D02*
X142895238Y-135557419D01*
X142895238Y-135557419D02*
X143038095Y-135605038D01*
X143371429Y-135557419D02*
X143609524Y-136557419D01*
X143609524Y-136557419D02*
X143800000Y-135843133D01*
X143800000Y-135843133D02*
X143990476Y-136557419D01*
X143990476Y-136557419D02*
X144228572Y-135557419D01*
X145133333Y-136557419D02*
X144561905Y-136557419D01*
X144847619Y-136557419D02*
X144847619Y-135557419D01*
X144847619Y-135557419D02*
X144752381Y-135700276D01*
X144752381Y-135700276D02*
X144657143Y-135795514D01*
X144657143Y-135795514D02*
X144561905Y-135843133D01*
D12*
X175754819Y-104309523D02*
X176469104Y-104309523D01*
X176469104Y-104309523D02*
X176611961Y-104357142D01*
X176611961Y-104357142D02*
X176707200Y-104452380D01*
X176707200Y-104452380D02*
X176754819Y-104595237D01*
X176754819Y-104595237D02*
X176754819Y-104690475D01*
X176754819Y-103309523D02*
X176754819Y-103880951D01*
X176754819Y-103595237D02*
X175754819Y-103595237D01*
X175754819Y-103595237D02*
X175897676Y-103690475D01*
X175897676Y-103690475D02*
X175992914Y-103785713D01*
X175992914Y-103785713D02*
X176040533Y-103880951D01*
X175754819Y-102976189D02*
X175754819Y-102357142D01*
X175754819Y-102357142D02*
X176135771Y-102690475D01*
X176135771Y-102690475D02*
X176135771Y-102547618D01*
X176135771Y-102547618D02*
X176183390Y-102452380D01*
X176183390Y-102452380D02*
X176231009Y-102404761D01*
X176231009Y-102404761D02*
X176326247Y-102357142D01*
X176326247Y-102357142D02*
X176564342Y-102357142D01*
X176564342Y-102357142D02*
X176659580Y-102404761D01*
X176659580Y-102404761D02*
X176707200Y-102452380D01*
X176707200Y-102452380D02*
X176754819Y-102547618D01*
X176754819Y-102547618D02*
X176754819Y-102833332D01*
X176754819Y-102833332D02*
X176707200Y-102928570D01*
X176707200Y-102928570D02*
X176659580Y-102976189D01*
D13*
X162077190Y-108221428D02*
X162101000Y-108245237D01*
X162101000Y-108245237D02*
X162124809Y-108316666D01*
X162124809Y-108316666D02*
X162124809Y-108364285D01*
X162124809Y-108364285D02*
X162101000Y-108435713D01*
X162101000Y-108435713D02*
X162053380Y-108483332D01*
X162053380Y-108483332D02*
X162005761Y-108507142D01*
X162005761Y-108507142D02*
X161910523Y-108530951D01*
X161910523Y-108530951D02*
X161839095Y-108530951D01*
X161839095Y-108530951D02*
X161743857Y-108507142D01*
X161743857Y-108507142D02*
X161696238Y-108483332D01*
X161696238Y-108483332D02*
X161648619Y-108435713D01*
X161648619Y-108435713D02*
X161624809Y-108364285D01*
X161624809Y-108364285D02*
X161624809Y-108316666D01*
X161624809Y-108316666D02*
X161648619Y-108245237D01*
X161648619Y-108245237D02*
X161672428Y-108221428D01*
X162124809Y-107745237D02*
X162124809Y-108030951D01*
X162124809Y-107888094D02*
X161624809Y-107888094D01*
X161624809Y-107888094D02*
X161696238Y-107935713D01*
X161696238Y-107935713D02*
X161743857Y-107983332D01*
X161743857Y-107983332D02*
X161767666Y-108030951D01*
X161624809Y-107578571D02*
X161624809Y-107245238D01*
X161624809Y-107245238D02*
X162124809Y-107459523D01*
D12*
X150329166Y-83854819D02*
X150329166Y-84569104D01*
X150329166Y-84569104D02*
X150281547Y-84711961D01*
X150281547Y-84711961D02*
X150186309Y-84807200D01*
X150186309Y-84807200D02*
X150043452Y-84854819D01*
X150043452Y-84854819D02*
X149948214Y-84854819D01*
X150757738Y-83950057D02*
X150805357Y-83902438D01*
X150805357Y-83902438D02*
X150900595Y-83854819D01*
X150900595Y-83854819D02*
X151138690Y-83854819D01*
X151138690Y-83854819D02*
X151233928Y-83902438D01*
X151233928Y-83902438D02*
X151281547Y-83950057D01*
X151281547Y-83950057D02*
X151329166Y-84045295D01*
X151329166Y-84045295D02*
X151329166Y-84140533D01*
X151329166Y-84140533D02*
X151281547Y-84283390D01*
X151281547Y-84283390D02*
X150710119Y-84854819D01*
X150710119Y-84854819D02*
X151329166Y-84854819D01*
X162454819Y-105059523D02*
X163169104Y-105059523D01*
X163169104Y-105059523D02*
X163311961Y-105107142D01*
X163311961Y-105107142D02*
X163407200Y-105202380D01*
X163407200Y-105202380D02*
X163454819Y-105345237D01*
X163454819Y-105345237D02*
X163454819Y-105440475D01*
X163454819Y-104059523D02*
X163454819Y-104630951D01*
X163454819Y-104345237D02*
X162454819Y-104345237D01*
X162454819Y-104345237D02*
X162597676Y-104440475D01*
X162597676Y-104440475D02*
X162692914Y-104535713D01*
X162692914Y-104535713D02*
X162740533Y-104630951D01*
X162550057Y-103678570D02*
X162502438Y-103630951D01*
X162502438Y-103630951D02*
X162454819Y-103535713D01*
X162454819Y-103535713D02*
X162454819Y-103297618D01*
X162454819Y-103297618D02*
X162502438Y-103202380D01*
X162502438Y-103202380D02*
X162550057Y-103154761D01*
X162550057Y-103154761D02*
X162645295Y-103107142D01*
X162645295Y-103107142D02*
X162740533Y-103107142D01*
X162740533Y-103107142D02*
X162883390Y-103154761D01*
X162883390Y-103154761D02*
X163454819Y-103726189D01*
X163454819Y-103726189D02*
X163454819Y-103107142D01*
X127154819Y-127916666D02*
X126678628Y-128249999D01*
X127154819Y-128488094D02*
X126154819Y-128488094D01*
X126154819Y-128488094D02*
X126154819Y-128107142D01*
X126154819Y-128107142D02*
X126202438Y-128011904D01*
X126202438Y-128011904D02*
X126250057Y-127964285D01*
X126250057Y-127964285D02*
X126345295Y-127916666D01*
X126345295Y-127916666D02*
X126488152Y-127916666D01*
X126488152Y-127916666D02*
X126583390Y-127964285D01*
X126583390Y-127964285D02*
X126631009Y-128011904D01*
X126631009Y-128011904D02*
X126678628Y-128107142D01*
X126678628Y-128107142D02*
X126678628Y-128488094D01*
X126154819Y-127583332D02*
X126154819Y-126964285D01*
X126154819Y-126964285D02*
X126535771Y-127297618D01*
X126535771Y-127297618D02*
X126535771Y-127154761D01*
X126535771Y-127154761D02*
X126583390Y-127059523D01*
X126583390Y-127059523D02*
X126631009Y-127011904D01*
X126631009Y-127011904D02*
X126726247Y-126964285D01*
X126726247Y-126964285D02*
X126964342Y-126964285D01*
X126964342Y-126964285D02*
X127059580Y-127011904D01*
X127059580Y-127011904D02*
X127107200Y-127059523D01*
X127107200Y-127059523D02*
X127154819Y-127154761D01*
X127154819Y-127154761D02*
X127154819Y-127440475D01*
X127154819Y-127440475D02*
X127107200Y-127535713D01*
X127107200Y-127535713D02*
X127059580Y-127583332D01*
X129704819Y-127916666D02*
X129228628Y-128249999D01*
X129704819Y-128488094D02*
X128704819Y-128488094D01*
X128704819Y-128488094D02*
X128704819Y-128107142D01*
X128704819Y-128107142D02*
X128752438Y-128011904D01*
X128752438Y-128011904D02*
X128800057Y-127964285D01*
X128800057Y-127964285D02*
X128895295Y-127916666D01*
X128895295Y-127916666D02*
X129038152Y-127916666D01*
X129038152Y-127916666D02*
X129133390Y-127964285D01*
X129133390Y-127964285D02*
X129181009Y-128011904D01*
X129181009Y-128011904D02*
X129228628Y-128107142D01*
X129228628Y-128107142D02*
X129228628Y-128488094D01*
X129704819Y-126964285D02*
X129704819Y-127535713D01*
X129704819Y-127249999D02*
X128704819Y-127249999D01*
X128704819Y-127249999D02*
X128847676Y-127345237D01*
X128847676Y-127345237D02*
X128942914Y-127440475D01*
X128942914Y-127440475D02*
X128990533Y-127535713D01*
D13*
X153516666Y-95324809D02*
X153350000Y-95086714D01*
X153230952Y-95324809D02*
X153230952Y-94824809D01*
X153230952Y-94824809D02*
X153421428Y-94824809D01*
X153421428Y-94824809D02*
X153469047Y-94848619D01*
X153469047Y-94848619D02*
X153492857Y-94872428D01*
X153492857Y-94872428D02*
X153516666Y-94920047D01*
X153516666Y-94920047D02*
X153516666Y-94991476D01*
X153516666Y-94991476D02*
X153492857Y-95039095D01*
X153492857Y-95039095D02*
X153469047Y-95062904D01*
X153469047Y-95062904D02*
X153421428Y-95086714D01*
X153421428Y-95086714D02*
X153230952Y-95086714D01*
X153945238Y-94824809D02*
X153850000Y-94824809D01*
X153850000Y-94824809D02*
X153802381Y-94848619D01*
X153802381Y-94848619D02*
X153778571Y-94872428D01*
X153778571Y-94872428D02*
X153730952Y-94943857D01*
X153730952Y-94943857D02*
X153707143Y-95039095D01*
X153707143Y-95039095D02*
X153707143Y-95229571D01*
X153707143Y-95229571D02*
X153730952Y-95277190D01*
X153730952Y-95277190D02*
X153754762Y-95301000D01*
X153754762Y-95301000D02*
X153802381Y-95324809D01*
X153802381Y-95324809D02*
X153897619Y-95324809D01*
X153897619Y-95324809D02*
X153945238Y-95301000D01*
X153945238Y-95301000D02*
X153969047Y-95277190D01*
X153969047Y-95277190D02*
X153992857Y-95229571D01*
X153992857Y-95229571D02*
X153992857Y-95110523D01*
X153992857Y-95110523D02*
X153969047Y-95062904D01*
X153969047Y-95062904D02*
X153945238Y-95039095D01*
X153945238Y-95039095D02*
X153897619Y-95015285D01*
X153897619Y-95015285D02*
X153802381Y-95015285D01*
X153802381Y-95015285D02*
X153754762Y-95039095D01*
X153754762Y-95039095D02*
X153730952Y-95062904D01*
X153730952Y-95062904D02*
X153707143Y-95110523D01*
X153516666Y-96924809D02*
X153350000Y-96686714D01*
X153230952Y-96924809D02*
X153230952Y-96424809D01*
X153230952Y-96424809D02*
X153421428Y-96424809D01*
X153421428Y-96424809D02*
X153469047Y-96448619D01*
X153469047Y-96448619D02*
X153492857Y-96472428D01*
X153492857Y-96472428D02*
X153516666Y-96520047D01*
X153516666Y-96520047D02*
X153516666Y-96591476D01*
X153516666Y-96591476D02*
X153492857Y-96639095D01*
X153492857Y-96639095D02*
X153469047Y-96662904D01*
X153469047Y-96662904D02*
X153421428Y-96686714D01*
X153421428Y-96686714D02*
X153230952Y-96686714D01*
X153969047Y-96424809D02*
X153730952Y-96424809D01*
X153730952Y-96424809D02*
X153707143Y-96662904D01*
X153707143Y-96662904D02*
X153730952Y-96639095D01*
X153730952Y-96639095D02*
X153778571Y-96615285D01*
X153778571Y-96615285D02*
X153897619Y-96615285D01*
X153897619Y-96615285D02*
X153945238Y-96639095D01*
X153945238Y-96639095D02*
X153969047Y-96662904D01*
X153969047Y-96662904D02*
X153992857Y-96710523D01*
X153992857Y-96710523D02*
X153992857Y-96829571D01*
X153992857Y-96829571D02*
X153969047Y-96877190D01*
X153969047Y-96877190D02*
X153945238Y-96901000D01*
X153945238Y-96901000D02*
X153897619Y-96924809D01*
X153897619Y-96924809D02*
X153778571Y-96924809D01*
X153778571Y-96924809D02*
X153730952Y-96901000D01*
X153730952Y-96901000D02*
X153707143Y-96877190D01*
D12*
X169690476Y-125149819D02*
X169690476Y-125864104D01*
X169690476Y-125864104D02*
X169642857Y-126006961D01*
X169642857Y-126006961D02*
X169547619Y-126102200D01*
X169547619Y-126102200D02*
X169404762Y-126149819D01*
X169404762Y-126149819D02*
X169309524Y-126149819D01*
X170690476Y-126149819D02*
X170119048Y-126149819D01*
X170404762Y-126149819D02*
X170404762Y-125149819D01*
X170404762Y-125149819D02*
X170309524Y-125292676D01*
X170309524Y-125292676D02*
X170214286Y-125387914D01*
X170214286Y-125387914D02*
X170119048Y-125435533D01*
X171547619Y-125483152D02*
X171547619Y-126149819D01*
X171309524Y-125102200D02*
X171071429Y-125816485D01*
X171071429Y-125816485D02*
X171690476Y-125816485D01*
D10*
X143238095Y-121467419D02*
X143238095Y-122276942D01*
X143238095Y-122276942D02*
X143285714Y-122372180D01*
X143285714Y-122372180D02*
X143333333Y-122419800D01*
X143333333Y-122419800D02*
X143428571Y-122467419D01*
X143428571Y-122467419D02*
X143619047Y-122467419D01*
X143619047Y-122467419D02*
X143714285Y-122419800D01*
X143714285Y-122419800D02*
X143761904Y-122372180D01*
X143761904Y-122372180D02*
X143809523Y-122276942D01*
X143809523Y-122276942D02*
X143809523Y-121467419D01*
X144809523Y-122467419D02*
X144238095Y-122467419D01*
X144523809Y-122467419D02*
X144523809Y-121467419D01*
X144523809Y-121467419D02*
X144428571Y-121610276D01*
X144428571Y-121610276D02*
X144333333Y-121705514D01*
X144333333Y-121705514D02*
X144238095Y-121753133D01*
D11*
X144316667Y-99133504D02*
X144278571Y-99171600D01*
X144278571Y-99171600D02*
X144164286Y-99209695D01*
X144164286Y-99209695D02*
X144088095Y-99209695D01*
X144088095Y-99209695D02*
X143973809Y-99171600D01*
X143973809Y-99171600D02*
X143897619Y-99095409D01*
X143897619Y-99095409D02*
X143859524Y-99019219D01*
X143859524Y-99019219D02*
X143821428Y-98866838D01*
X143821428Y-98866838D02*
X143821428Y-98752552D01*
X143821428Y-98752552D02*
X143859524Y-98600171D01*
X143859524Y-98600171D02*
X143897619Y-98523980D01*
X143897619Y-98523980D02*
X143973809Y-98447790D01*
X143973809Y-98447790D02*
X144088095Y-98409695D01*
X144088095Y-98409695D02*
X144164286Y-98409695D01*
X144164286Y-98409695D02*
X144278571Y-98447790D01*
X144278571Y-98447790D02*
X144316667Y-98485885D01*
X144583333Y-98409695D02*
X145078571Y-98409695D01*
X145078571Y-98409695D02*
X144811905Y-98714457D01*
X144811905Y-98714457D02*
X144926190Y-98714457D01*
X144926190Y-98714457D02*
X145002381Y-98752552D01*
X145002381Y-98752552D02*
X145040476Y-98790647D01*
X145040476Y-98790647D02*
X145078571Y-98866838D01*
X145078571Y-98866838D02*
X145078571Y-99057314D01*
X145078571Y-99057314D02*
X145040476Y-99133504D01*
X145040476Y-99133504D02*
X145002381Y-99171600D01*
X145002381Y-99171600D02*
X144926190Y-99209695D01*
X144926190Y-99209695D02*
X144697619Y-99209695D01*
X144697619Y-99209695D02*
X144621428Y-99171600D01*
X144621428Y-99171600D02*
X144583333Y-99133504D01*
D14*
%TO.C,C4*%
X144109165Y-101090000D02*
X144340835Y-101090000D01*
X144109165Y-101810000D02*
X144340835Y-101810000D01*
%TO.C,C20*%
X148421920Y-90190000D02*
X148703080Y-90190000D01*
X148421920Y-91210000D02*
X148703080Y-91210000D01*
%TO.C,D1*%
X133065000Y-129787500D02*
X133065000Y-132072500D01*
X133065000Y-132072500D02*
X134535000Y-132072500D01*
X134535000Y-132072500D02*
X134535000Y-129787500D01*
%TO.C,C8*%
X149165000Y-100998335D02*
X149165000Y-100766665D01*
X149885000Y-100998335D02*
X149885000Y-100766665D01*
%TO.C,J1*%
X157590000Y-87310000D02*
X157590000Y-89810000D01*
X157590000Y-89810000D02*
X160090000Y-89810000D01*
X157890000Y-85490000D02*
X157890000Y-89510000D01*
X157890000Y-87200000D02*
X158390000Y-87200000D01*
X157890000Y-88010000D02*
X158890000Y-88010000D01*
X157890000Y-89510000D02*
X168110000Y-89510000D01*
X158390000Y-85990000D02*
X167610000Y-85990000D01*
X158390000Y-87200000D02*
X158390000Y-85990000D01*
X158890000Y-88010000D02*
X158890000Y-89510000D01*
X167110000Y-88010000D02*
X167110000Y-89510000D01*
X167610000Y-85990000D02*
X167610000Y-87200000D01*
X167610000Y-87200000D02*
X168110000Y-87200000D01*
X168110000Y-85490000D02*
X157890000Y-85490000D01*
X168110000Y-88010000D02*
X167110000Y-88010000D01*
X168110000Y-89510000D02*
X168110000Y-85490000D01*
%TO.C,C13*%
X125759420Y-91590000D02*
X126040580Y-91590000D01*
X125759420Y-92610000D02*
X126040580Y-92610000D01*
%TO.C,J11*%
X127490000Y-100890000D02*
X127490000Y-111110000D01*
X127490000Y-111110000D02*
X131510000Y-111110000D01*
X127990000Y-101390000D02*
X129200000Y-101390000D01*
X127990000Y-110610000D02*
X127990000Y-101390000D01*
X129200000Y-101390000D02*
X129200000Y-100890000D01*
X129200000Y-110610000D02*
X127990000Y-110610000D01*
X129200000Y-111110000D02*
X129200000Y-110610000D01*
X129310000Y-111410000D02*
X131810000Y-111410000D01*
X130010000Y-100890000D02*
X130010000Y-101890000D01*
X130010000Y-101890000D02*
X131510000Y-101890000D01*
X130010000Y-110110000D02*
X131510000Y-110110000D01*
X130010000Y-111110000D02*
X130010000Y-110110000D01*
X131510000Y-100890000D02*
X127490000Y-100890000D01*
X131510000Y-111110000D02*
X131510000Y-100890000D01*
X131810000Y-111410000D02*
X131810000Y-108910000D01*
%TO.C,D3*%
X129765000Y-129787500D02*
X129765000Y-132072500D01*
X129765000Y-132072500D02*
X131235000Y-132072500D01*
X131235000Y-132072500D02*
X131235000Y-129787500D01*
%TO.C,C19*%
X136584420Y-98040000D02*
X136865580Y-98040000D01*
X136584420Y-99060000D02*
X136865580Y-99060000D01*
%TO.C,C5*%
X151540835Y-115690000D02*
X151309165Y-115690000D01*
X151540835Y-116410000D02*
X151309165Y-116410000D01*
%TO.C,C2*%
X150740000Y-121304437D02*
X150740000Y-125760000D01*
X150740000Y-125760000D02*
X152440000Y-125760000D01*
X151804437Y-120240000D02*
X150740000Y-121304437D01*
X151804437Y-120240000D02*
X152440000Y-120240000D01*
X155195563Y-120240000D02*
X154560000Y-120240000D01*
X155195563Y-120240000D02*
X156260000Y-121304437D01*
X156260000Y-121304437D02*
X156260000Y-125760000D01*
X156260000Y-125760000D02*
X154560000Y-125760000D01*
%TO.C,C16*%
X124990000Y-115740580D02*
X124990000Y-115459420D01*
X126010000Y-115740580D02*
X126010000Y-115459420D01*
%TO.C,C6*%
X136990580Y-108990000D02*
X136709420Y-108990000D01*
X136990580Y-110010000D02*
X136709420Y-110010000D01*
%TO.C,U3*%
X157090000Y-120590000D02*
X158350000Y-120590000D01*
X157090000Y-124350000D02*
X157090000Y-120590000D01*
X163910000Y-120590000D02*
X162650000Y-120590000D01*
X163910000Y-124350000D02*
X163910000Y-120590000D01*
X157190000Y-125630000D02*
X156860000Y-125870000D01*
X156860000Y-125390000D01*
X157190000Y-125630000D01*
G36*
X157190000Y-125630000D02*
G01*
X156860000Y-125870000D01*
X156860000Y-125390000D01*
X157190000Y-125630000D01*
G37*
%TO.C,D2*%
X131365000Y-129787500D02*
X131365000Y-132072500D01*
X131365000Y-132072500D02*
X132835000Y-132072500D01*
X132835000Y-132072500D02*
X132835000Y-129787500D01*
%TO.C,C22*%
X161065580Y-90190000D02*
X160784420Y-90190000D01*
X161065580Y-91210000D02*
X160784420Y-91210000D01*
%TO.C,C14*%
X132190000Y-107365580D02*
X132190000Y-107084420D01*
X133210000Y-107365580D02*
X133210000Y-107084420D01*
%TO.C,J5*%
X120390000Y-95110000D02*
X120390000Y-97610000D01*
X120390000Y-97610000D02*
X122890000Y-97610000D01*
X120690000Y-93290000D02*
X120690000Y-97310000D01*
X120690000Y-95000000D02*
X121190000Y-95000000D01*
X120690000Y-95810000D02*
X121690000Y-95810000D01*
X120690000Y-97310000D02*
X130910000Y-97310000D01*
X121190000Y-93790000D02*
X130410000Y-93790000D01*
X121190000Y-95000000D02*
X121190000Y-93790000D01*
X121690000Y-95810000D02*
X121690000Y-97310000D01*
X129910000Y-95810000D02*
X129910000Y-97310000D01*
X130410000Y-93790000D02*
X130410000Y-95000000D01*
X130410000Y-95000000D02*
X130910000Y-95000000D01*
X130910000Y-93290000D02*
X120690000Y-93290000D01*
X130910000Y-95810000D02*
X129910000Y-95810000D01*
X130910000Y-97310000D02*
X130910000Y-93290000D01*
%TO.C,J4*%
X133090000Y-95160000D02*
X133090000Y-97660000D01*
X133090000Y-97660000D02*
X135590000Y-97660000D01*
X133390000Y-93340000D02*
X133390000Y-97360000D01*
X133390000Y-95050000D02*
X133890000Y-95050000D01*
X133390000Y-95860000D02*
X134390000Y-95860000D01*
X133390000Y-97360000D02*
X143610000Y-97360000D01*
X133890000Y-93840000D02*
X143110000Y-93840000D01*
X133890000Y-95050000D02*
X133890000Y-93840000D01*
X134390000Y-95860000D02*
X134390000Y-97360000D01*
X142610000Y-95860000D02*
X142610000Y-97360000D01*
X143110000Y-93840000D02*
X143110000Y-95050000D01*
X143110000Y-95050000D02*
X143610000Y-95050000D01*
X143610000Y-93340000D02*
X133390000Y-93340000D01*
X143610000Y-95860000D02*
X142610000Y-95860000D01*
X143610000Y-97360000D02*
X143610000Y-93340000D01*
%TO.C,J10*%
X127490000Y-113590000D02*
X127490000Y-123810000D01*
X127490000Y-123810000D02*
X131510000Y-123810000D01*
X127990000Y-114090000D02*
X129200000Y-114090000D01*
X127990000Y-123310000D02*
X127990000Y-114090000D01*
X129200000Y-114090000D02*
X129200000Y-113590000D01*
X129200000Y-123310000D02*
X127990000Y-123310000D01*
X129200000Y-123810000D02*
X129200000Y-123310000D01*
X129310000Y-124110000D02*
X131810000Y-124110000D01*
X130010000Y-113590000D02*
X130010000Y-114590000D01*
X130010000Y-114590000D02*
X131510000Y-114590000D01*
X130010000Y-122810000D02*
X131510000Y-122810000D01*
X130010000Y-123810000D02*
X130010000Y-122810000D01*
X131510000Y-113590000D02*
X127490000Y-113590000D01*
X131510000Y-123810000D02*
X131510000Y-113590000D01*
X131810000Y-124110000D02*
X131810000Y-121610000D01*
%TO.C,C9*%
X154765000Y-105465835D02*
X154765000Y-105234165D01*
X155485000Y-105465835D02*
X155485000Y-105234165D01*
%TO.C,C11*%
X153284165Y-101740000D02*
X153515835Y-101740000D01*
X153284165Y-102460000D02*
X153515835Y-102460000D01*
%TO.C,J16*%
X151550000Y-127850000D02*
X151550000Y-136150000D01*
X151550000Y-136150000D02*
X164400000Y-136150000D01*
X164400000Y-127850000D02*
X151550000Y-127850000D01*
X164400000Y-136150000D02*
X167250000Y-133600000D01*
X167250000Y-130450000D02*
X164400000Y-127850000D01*
X167250000Y-133600000D02*
X167250000Y-130450000D01*
%TO.C,C12*%
X139615835Y-110640000D02*
X139384165Y-110640000D01*
X139615835Y-111360000D02*
X139384165Y-111360000D01*
%TO.C,C1*%
X164390000Y-125515580D02*
X164390000Y-125234420D01*
X165410000Y-125515580D02*
X165410000Y-125234420D01*
%TO.C,U2*%
X142715000Y-103640000D02*
X143665000Y-103640000D01*
X142715000Y-104590000D02*
X142715000Y-103640000D01*
X142715000Y-112910000D02*
X142715000Y-113860000D01*
X142715000Y-113860000D02*
X143665000Y-113860000D01*
X152935000Y-103640000D02*
X151985000Y-103640000D01*
X152935000Y-104590000D02*
X152935000Y-103640000D01*
X152935000Y-112910000D02*
X152935000Y-113860000D01*
X152935000Y-113860000D02*
X151985000Y-113860000D01*
X152455000Y-103365000D02*
X151985000Y-103025000D01*
X152455000Y-102685000D01*
X152455000Y-103365000D01*
G36*
X152455000Y-103365000D02*
G01*
X151985000Y-103025000D01*
X152455000Y-102685000D01*
X152455000Y-103365000D01*
G37*
%TO.C,D6*%
X155500000Y-95035000D02*
X157785000Y-95035000D01*
X157785000Y-93565000D02*
X155500000Y-93565000D01*
X157785000Y-95035000D02*
X157785000Y-93565000D01*
%TO.C,D5*%
X155487500Y-96635000D02*
X157772500Y-96635000D01*
X157772500Y-95165000D02*
X155487500Y-95165000D01*
X157772500Y-96635000D02*
X157772500Y-95165000D01*
%TO.C,J9*%
X120290000Y-103640000D02*
X120290000Y-121360000D01*
X120290000Y-121360000D02*
X124310000Y-121360000D01*
X120790000Y-104140000D02*
X122000000Y-104140000D01*
X120790000Y-120860000D02*
X120790000Y-104140000D01*
X122000000Y-104140000D02*
X122000000Y-103640000D01*
X122000000Y-120860000D02*
X120790000Y-120860000D01*
X122000000Y-121360000D02*
X122000000Y-120860000D01*
X122110000Y-121660000D02*
X124610000Y-121660000D01*
X122810000Y-103640000D02*
X122810000Y-104640000D01*
X122810000Y-104640000D02*
X124310000Y-104640000D01*
X122810000Y-120360000D02*
X124310000Y-120360000D01*
X122810000Y-121360000D02*
X122810000Y-120360000D01*
X124310000Y-103640000D02*
X120290000Y-103640000D01*
X124310000Y-121360000D02*
X124310000Y-103640000D01*
X124610000Y-121660000D02*
X124610000Y-119160000D01*
%TO.C,J3*%
X133090000Y-87310000D02*
X133090000Y-89810000D01*
X133090000Y-89810000D02*
X135590000Y-89810000D01*
X133390000Y-85490000D02*
X133390000Y-89510000D01*
X133390000Y-87200000D02*
X133890000Y-87200000D01*
X133390000Y-88010000D02*
X134390000Y-88010000D01*
X133390000Y-89510000D02*
X143610000Y-89510000D01*
X133890000Y-85990000D02*
X143110000Y-85990000D01*
X133890000Y-87200000D02*
X133890000Y-85990000D01*
X134390000Y-88010000D02*
X134390000Y-89510000D01*
X142610000Y-88010000D02*
X142610000Y-89510000D01*
X143110000Y-85990000D02*
X143110000Y-87200000D01*
X143110000Y-87200000D02*
X143610000Y-87200000D01*
X143610000Y-85490000D02*
X133390000Y-85490000D01*
X143610000Y-88010000D02*
X142610000Y-88010000D01*
X143610000Y-89510000D02*
X143610000Y-85490000D01*
%TO.C,R2*%
X131720000Y-127719879D02*
X131720000Y-128055121D01*
X132480000Y-127719879D02*
X132480000Y-128055121D01*
%TO.C,C21*%
X135884420Y-90190000D02*
X136165580Y-90190000D01*
X135884420Y-91210000D02*
X136165580Y-91210000D01*
%TO.C,D4*%
X155500000Y-98235000D02*
X157785000Y-98235000D01*
X157785000Y-96765000D02*
X155500000Y-96765000D01*
X157785000Y-98235000D02*
X157785000Y-96765000D01*
%TO.C,C10*%
X139583335Y-109540000D02*
X139351665Y-109540000D01*
X139583335Y-110260000D02*
X139351665Y-110260000D01*
%TO.C,C15*%
X132190000Y-120259420D02*
X132190000Y-120540580D01*
X133210000Y-120259420D02*
X133210000Y-120540580D01*
%TO.C,C18*%
X169490000Y-97215580D02*
X169490000Y-96934420D01*
X170510000Y-97215580D02*
X170510000Y-96934420D01*
%TO.C,R4*%
X153434879Y-97130000D02*
X153770121Y-97130000D01*
X153434879Y-97890000D02*
X153770121Y-97890000D01*
%TO.C,C7*%
X140915835Y-113040000D02*
X140684165Y-113040000D01*
X140915835Y-113760000D02*
X140684165Y-113760000D01*
%TO.C,SW1*%
D10*
X137350000Y-128600000D02*
X150250000Y-128600000D01*
X150250000Y-135400000D01*
X137350000Y-135400000D01*
X137350000Y-128600000D01*
D14*
%TO.C,J13*%
X170890000Y-93090000D02*
X170890000Y-95590000D01*
X171190000Y-93390000D02*
X171190000Y-113610000D01*
X171190000Y-113610000D02*
X175210000Y-113610000D01*
X172690000Y-93390000D02*
X172690000Y-94390000D01*
X172690000Y-94390000D02*
X171190000Y-94390000D01*
X172690000Y-112610000D02*
X171190000Y-112610000D01*
X172690000Y-113610000D02*
X172690000Y-112610000D01*
X173390000Y-93090000D02*
X170890000Y-93090000D01*
X173500000Y-93390000D02*
X173500000Y-93890000D01*
X173500000Y-93890000D02*
X174710000Y-93890000D01*
X173500000Y-113110000D02*
X173500000Y-113610000D01*
X174710000Y-93890000D02*
X174710000Y-113110000D01*
X174710000Y-113110000D02*
X173500000Y-113110000D01*
X175210000Y-93390000D02*
X171190000Y-93390000D01*
X175210000Y-113610000D02*
X175210000Y-93390000D01*
%TO.C,C17*%
X162490000Y-107359420D02*
X162490000Y-107640580D01*
X163510000Y-107359420D02*
X163510000Y-107640580D01*
%TO.C,J2*%
X145252500Y-87310000D02*
X145252500Y-89810000D01*
X145252500Y-89810000D02*
X147752500Y-89810000D01*
X145552500Y-85490000D02*
X145552500Y-89510000D01*
X145552500Y-87200000D02*
X146052500Y-87200000D01*
X145552500Y-88010000D02*
X146552500Y-88010000D01*
X145552500Y-89510000D02*
X155772500Y-89510000D01*
X146052500Y-85990000D02*
X155272500Y-85990000D01*
X146052500Y-87200000D02*
X146052500Y-85990000D01*
X146552500Y-88010000D02*
X146552500Y-89510000D01*
X154772500Y-88010000D02*
X154772500Y-89510000D01*
X155272500Y-85990000D02*
X155272500Y-87200000D01*
X155272500Y-87200000D02*
X155772500Y-87200000D01*
X155772500Y-85490000D02*
X145552500Y-85490000D01*
X155772500Y-88010000D02*
X154772500Y-88010000D01*
X155772500Y-89510000D02*
X155772500Y-85490000D01*
%TO.C,J12*%
X163890000Y-97590000D02*
X163890000Y-100090000D01*
X164190000Y-97890000D02*
X164190000Y-110610000D01*
X164190000Y-110610000D02*
X168210000Y-110610000D01*
X165690000Y-97890000D02*
X165690000Y-98890000D01*
X165690000Y-98890000D02*
X164190000Y-98890000D01*
X165690000Y-109610000D02*
X164190000Y-109610000D01*
X165690000Y-110610000D02*
X165690000Y-109610000D01*
X166390000Y-97590000D02*
X163890000Y-97590000D01*
X166500000Y-97890000D02*
X166500000Y-98390000D01*
X166500000Y-98390000D02*
X167710000Y-98390000D01*
X166500000Y-110110000D02*
X166500000Y-110610000D01*
X167710000Y-98390000D02*
X167710000Y-110110000D01*
X167710000Y-110110000D02*
X166500000Y-110110000D01*
X168210000Y-97890000D02*
X164190000Y-97890000D01*
X168210000Y-110610000D02*
X168210000Y-97890000D01*
%TO.C,R3*%
X130120000Y-127719879D02*
X130120000Y-128055121D01*
X130880000Y-127719879D02*
X130880000Y-128055121D01*
%TO.C,R1*%
X133420000Y-127719879D02*
X133420000Y-128055121D01*
X134180000Y-127719879D02*
X134180000Y-128055121D01*
%TO.C,R6*%
X153434879Y-93910000D02*
X153770121Y-93910000D01*
X153434879Y-94670000D02*
X153770121Y-94670000D01*
%TO.C,R5*%
X153422379Y-95520000D02*
X153757621Y-95520000D01*
X153422379Y-96280000D02*
X153757621Y-96280000D01*
%TO.C,J14*%
X168735000Y-115750000D02*
X168735000Y-115685000D01*
X168735000Y-124695000D02*
X168735000Y-124630000D01*
X172265000Y-115685000D02*
X168735000Y-115685000D01*
X172265000Y-115750000D02*
X172265000Y-115685000D01*
X172265000Y-124695000D02*
X168735000Y-124695000D01*
X172265000Y-124695000D02*
X172265000Y-124630000D01*
X173590000Y-124630000D02*
X172265000Y-124630000D01*
%TO.C,U1*%
D10*
X137940000Y-118800000D02*
X149940000Y-118800000D01*
X149940000Y-127700000D01*
X137940000Y-127700000D01*
X137940000Y-118800000D01*
D14*
%TO.C,C3*%
X143809420Y-99690000D02*
X144090580Y-99690000D01*
X143809420Y-100710000D02*
X144090580Y-100710000D01*
%TD*%
M02*
