M48
; DRILL file {KiCad 9.0.0-9.0.0-2~ubuntu22.04.1} date 2025-03-23T14:41:47+0100
; FORMAT={-:-/ absolute / metric / decimal}
; #@! TF.CreationDate,2025-03-23T14:41:47+01:00
; #@! TF.GenerationSoftware,Kicad,Pcbnew,9.0.0-9.0.0-2~ubuntu22.04.1
; #@! TF.FileFunction,Plated,1,4,PTH
FMAT,2
METRIC
; #@! TA.AperFunction,Plated,PTH,ViaDrill
T1C0.300
; #@! TA.AperFunction,Plated,PTH,ComponentDrill
T2C0.500
; #@! TA.AperFunction,Plated,PTH,ViaDrill
T3C0.600
; #@! TA.AperFunction,Plated,PTH,ComponentDrill
T4C0.950
; #@! TA.AperFunction,Plated,PTH,ComponentDrill
T5C1.000
; #@! TA.AperFunction,Plated,PTH,ComponentDrill
T6C1.850
; #@! TA.AperFunction,Plated,PTH,ComponentDrill
T7C3.200
; #@! TA.AperFunction,Plated,PTH,ComponentDrill
T8C4.500
%
G90
G05
T1
X120.55Y-99.25
X122.0Y-122.5
X124.4Y-91.8
X125.7Y-114.2
X125.9Y-102.1
X128.25Y-134.3
X128.65Y-125.2
X129.5Y-89.0
X129.65Y-98.95
X130.5Y-132.0
X131.0Y-84.3
X132.1Y-132.05
X133.2Y-102.45
X133.3Y-108.4
X133.7Y-121.4
X133.8Y-132.05
X134.1Y-118.65
X134.25Y-90.7
X134.55Y-113.55
X135.3Y-109.4
X135.95Y-91.6
X136.0Y-99.25
X136.2Y-121.85
X136.35Y-130.25
X138.2Y-107.9
X138.3Y-109.8
X138.3Y-114.5
X138.4Y-111.0
X138.65Y-101.45
X139.65Y-113.45
X139.9Y-83.4
X140.25Y-121.85
X140.8Y-111.0
X140.9Y-110.1
X141.0Y-92.25
X141.45Y-99.55
X142.1Y-113.1
X143.3Y-100.9
X143.324Y-108.1
X143.333Y-110.293
X143.35Y-112.1
X143.65Y-117.75
X143.821Y-107.473
X143.9Y-106.0
X144.17Y-106.753
X144.4Y-104.4
X144.4Y-112.9
X144.675Y-101.901
X145.25Y-94.25
X145.75Y-101.75
X145.95Y-116.25
X146.862Y-90.7
X147.75Y-128.05
X148.95Y-120.0
X149.2Y-105.2
X149.8Y-99.6
X150.2Y-105.1
X150.25Y-116.05
X150.8Y-118.575
X151.05Y-112.9
X151.2Y-105.2
X151.5Y-119.1
X151.6Y-119.9
X152.0Y-94.3
X152.0Y-102.2
X152.0Y-115.3
X152.1Y-95.9
X152.1Y-97.5
X152.15Y-104.9
X154.95Y-125.05
X155.1Y-107.05
X156.0Y-105.0
X157.05Y-125.65
X157.2Y-90.2
X157.6Y-101.3
X157.75Y-95.9
X157.75Y-97.5
X157.8Y-94.3
X158.2Y-114.3
X159.3Y-90.7
X159.4Y-106.3
X160.0Y-112.4
X160.3Y-117.7
X161.3Y-113.0
X163.3Y-109.2
X164.1Y-115.55
X164.45Y-95.45
X164.9Y-123.75
X165.5Y-117.0
X168.7Y-134.05
X169.3Y-93.7
X169.4Y-128.1
X169.5Y-89.25
X170.0Y-98.7
X174.3Y-117.65
X174.35Y-120.2
X174.35Y-121.45
X174.4Y-123.2
X175.75Y-91.75
T2
X120.6Y-86.5
X120.6Y-132.0
X121.303Y-84.803
X121.303Y-88.197
X121.303Y-130.303
X121.303Y-133.697
X123.0Y-84.1
X123.0Y-88.9
X123.0Y-129.6
X123.0Y-134.4
X124.697Y-84.803
X124.697Y-88.197
X124.697Y-130.303
X124.697Y-133.697
X125.4Y-86.5
X125.4Y-132.0
X170.6Y-86.5
X170.6Y-132.0
X171.303Y-84.803
X171.303Y-88.197
X171.303Y-130.303
X171.303Y-133.697
X173.0Y-84.1
X173.0Y-88.9
X173.0Y-129.6
X173.0Y-134.4
X174.697Y-84.803
X174.697Y-88.197
X174.697Y-130.303
X174.697Y-133.697
X175.4Y-86.5
X175.4Y-132.0
T3
X133.05Y-125.6
X135.4Y-126.4
X166.9Y-127.7
T4
X122.0Y-106.25
X122.0Y-108.75
X122.0Y-111.25
X122.0Y-113.75
X122.0Y-116.25
X122.0Y-118.75
X123.3Y-95.0
X125.8Y-95.0
X128.3Y-95.0
X129.2Y-103.5
X129.2Y-106.0
X129.2Y-108.5
X129.2Y-116.2
X129.2Y-118.7
X129.2Y-121.2
X136.0Y-87.2
X136.0Y-95.05
X138.5Y-87.2
X138.5Y-95.05
X141.0Y-87.2
X141.0Y-95.05
X148.162Y-87.2
X150.662Y-87.2
X153.162Y-87.2
X160.5Y-87.2
X163.0Y-87.2
X165.5Y-87.2
X166.5Y-100.5
X166.5Y-103.0
X166.5Y-105.5
X166.5Y-108.0
X173.5Y-96.0
X173.5Y-98.5
X173.5Y-101.0
X173.5Y-103.5
X173.5Y-106.0
X173.5Y-108.5
X173.5Y-111.0
T5
X141.4Y-125.5
X143.94Y-125.5
X146.48Y-125.5
T6
X139.1Y-132.0
X143.8Y-132.0
X148.5Y-132.0
T7
X123.0Y-86.5
X123.0Y-132.0
X173.0Y-86.5
X173.0Y-132.0
T8
X155.8Y-132.0
X163.0Y-132.0
M30
