%TF.GenerationSoftware,KiCad,Pcbnew,9.0.0-9.0.0-2~ubuntu24.04.1*%
%TF.CreationDate,2025-03-20T14:05:47+01:00*%
%TF.ProjectId,PCB_main_unit,5043425f-6d61-4696-9e5f-756e69742e6b,rev?*%
%TF.SameCoordinates,Original*%
%TF.FileFunction,Soldermask,Top*%
%TF.FilePolarity,Negative*%
%FSLAX46Y46*%
G04 Gerber Fmt 4.6, Leading zero omitted, Abs format (unit mm)*
G04 Created by KiCad (PCBNEW 9.0.0-9.0.0-2~ubuntu24.04.1) date 2025-03-20 14:05:47*
%MOMM*%
%LPD*%
G01*
G04 APERTURE LIST*
G04 Aperture macros list*
%AMRoundRect*
0 Rectangle with rounded corners*
0 $1 Rounding radius*
0 $2 $3 $4 $5 $6 $7 $8 $9 X,Y pos of 4 corners*
0 Add a 4 corners polygon primitive as box body*
4,1,4,$2,$3,$4,$5,$6,$7,$8,$9,$2,$3,0*
0 Add four circle primitives for the rounded corners*
1,1,$1+$1,$2,$3*
1,1,$1+$1,$4,$5*
1,1,$1+$1,$6,$7*
1,1,$1+$1,$8,$9*
0 Add four rect primitives between the rounded corners*
20,1,$1+$1,$2,$3,$4,$5,0*
20,1,$1+$1,$4,$5,$6,$7,0*
20,1,$1+$1,$6,$7,$8,$9,0*
20,1,$1+$1,$8,$9,$2,$3,0*%
G04 Aperture macros list end*
%ADD10RoundRect,0.155000X-0.212500X-0.155000X0.212500X-0.155000X0.212500X0.155000X-0.212500X0.155000X0*%
%ADD11C,0.800000*%
%ADD12C,6.400000*%
%ADD13RoundRect,0.225000X-0.225000X-0.250000X0.225000X-0.250000X0.225000X0.250000X-0.225000X0.250000X0*%
%ADD14RoundRect,0.218750X0.256250X-0.218750X0.256250X0.218750X-0.256250X0.218750X-0.256250X-0.218750X0*%
%ADD15RoundRect,0.155000X0.155000X-0.212500X0.155000X0.212500X-0.155000X0.212500X-0.155000X-0.212500X0*%
%ADD16RoundRect,0.250000X-0.600000X-0.725000X0.600000X-0.725000X0.600000X0.725000X-0.600000X0.725000X0*%
%ADD17O,1.700000X1.950000*%
%ADD18RoundRect,0.250000X0.725000X-0.600000X0.725000X0.600000X-0.725000X0.600000X-0.725000X-0.600000X0*%
%ADD19O,1.950000X1.700000*%
%ADD20RoundRect,0.155000X0.212500X0.155000X-0.212500X0.155000X-0.212500X-0.155000X0.212500X-0.155000X0*%
%ADD21RoundRect,0.250000X-0.550000X1.137500X-0.550000X-1.137500X0.550000X-1.137500X0.550000X1.137500X0*%
%ADD22RoundRect,0.225000X0.250000X-0.225000X0.250000X0.225000X-0.250000X0.225000X-0.250000X-0.225000X0*%
%ADD23RoundRect,0.225000X0.225000X0.250000X-0.225000X0.250000X-0.225000X-0.250000X0.225000X-0.250000X0*%
%ADD24RoundRect,0.375000X0.375000X-0.625000X0.375000X0.625000X-0.375000X0.625000X-0.375000X-0.625000X0*%
%ADD25RoundRect,0.500000X1.400000X-0.500000X1.400000X0.500000X-1.400000X0.500000X-1.400000X-0.500000X0*%
%ADD26RoundRect,1.500000X1.500000X1.500000X-1.500000X1.500000X-1.500000X-1.500000X1.500000X-1.500000X0*%
%ADD27C,6.000000*%
%ADD28RoundRect,0.075000X-0.075000X0.700000X-0.075000X-0.700000X0.075000X-0.700000X0.075000X0.700000X0*%
%ADD29RoundRect,0.075000X-0.700000X0.075000X-0.700000X-0.075000X0.700000X-0.075000X0.700000X0.075000X0*%
%ADD30RoundRect,0.218750X0.218750X0.256250X-0.218750X0.256250X-0.218750X-0.256250X0.218750X-0.256250X0*%
%ADD31RoundRect,0.160000X-0.160000X0.197500X-0.160000X-0.197500X0.160000X-0.197500X0.160000X0.197500X0*%
%ADD32RoundRect,0.225000X-0.250000X0.225000X-0.250000X-0.225000X0.250000X-0.225000X0.250000X0.225000X0*%
%ADD33RoundRect,0.160000X-0.197500X-0.160000X0.197500X-0.160000X0.197500X0.160000X-0.197500X0.160000X0*%
%ADD34C,3.000000*%
%ADD35RoundRect,0.250000X-0.725000X0.600000X-0.725000X-0.600000X0.725000X-0.600000X0.725000X0.600000X0*%
%ADD36R,2.400000X0.740000*%
%ADD37C,1.600000*%
G04 APERTURE END LIST*
D10*
%TO.C,C4*%
X143657500Y-101450000D03*
X144792500Y-101450000D03*
%TD*%
D11*
%TO.C,H2*%
X170600000Y-132000000D03*
X171302944Y-130302944D03*
X171302944Y-133697056D03*
X173000000Y-129600000D03*
D12*
X173000000Y-132000000D03*
D11*
X173000000Y-134400000D03*
X174697056Y-130302944D03*
X174697056Y-133697056D03*
X175400000Y-132000000D03*
%TD*%
D13*
%TO.C,C20*%
X147787500Y-90700000D03*
X149337500Y-90700000D03*
%TD*%
D14*
%TO.C,D1*%
X133800000Y-131375000D03*
X133800000Y-129800000D03*
%TD*%
D15*
%TO.C,C8*%
X149525000Y-101450000D03*
X149525000Y-100315000D03*
%TD*%
D16*
%TO.C,J1*%
X160500000Y-87200000D03*
D17*
X163000000Y-87200000D03*
X165500000Y-87200000D03*
%TD*%
D13*
%TO.C,C13*%
X125125000Y-92100000D03*
X126675000Y-92100000D03*
%TD*%
D18*
%TO.C,J11*%
X129200000Y-108500000D03*
D19*
X129200000Y-106000000D03*
X129200000Y-103500000D03*
%TD*%
D14*
%TO.C,D3*%
X130500000Y-131375000D03*
X130500000Y-129800000D03*
%TD*%
D13*
%TO.C,C19*%
X135950000Y-98550000D03*
X137500000Y-98550000D03*
%TD*%
D20*
%TO.C,C5*%
X151992500Y-116050000D03*
X150857500Y-116050000D03*
%TD*%
D11*
%TO.C,H4*%
X120600000Y-86500000D03*
X121302944Y-84802944D03*
X121302944Y-88197056D03*
X123000000Y-84100000D03*
D12*
X123000000Y-86500000D03*
D11*
X123000000Y-88900000D03*
X124697056Y-84802944D03*
X124697056Y-88197056D03*
X125400000Y-86500000D03*
%TD*%
D21*
%TO.C,C2*%
X153500000Y-120937500D03*
X153500000Y-125062500D03*
%TD*%
D22*
%TO.C,C16*%
X125500000Y-116375000D03*
X125500000Y-114825000D03*
%TD*%
D23*
%TO.C,C6*%
X137625000Y-109500000D03*
X136075000Y-109500000D03*
%TD*%
D24*
%TO.C,U3*%
X158200000Y-125650000D03*
X160500000Y-125650000D03*
D25*
X160500000Y-119350000D03*
D24*
X162800000Y-125650000D03*
%TD*%
D14*
%TO.C,D2*%
X132100000Y-131375000D03*
X132100000Y-129800000D03*
%TD*%
D23*
%TO.C,C22*%
X161700000Y-90700000D03*
X160150000Y-90700000D03*
%TD*%
D22*
%TO.C,C14*%
X132700000Y-108000000D03*
X132700000Y-106450000D03*
%TD*%
D16*
%TO.C,J5*%
X123300000Y-95000000D03*
D17*
X125800000Y-95000000D03*
X128300000Y-95000000D03*
%TD*%
D16*
%TO.C,J4*%
X136000000Y-95050000D03*
D17*
X138500000Y-95050000D03*
X141000000Y-95050000D03*
%TD*%
D18*
%TO.C,J10*%
X129200000Y-121200000D03*
D19*
X129200000Y-118700000D03*
X129200000Y-116200000D03*
%TD*%
D11*
%TO.C,H1*%
X170600000Y-86500000D03*
X171302944Y-84802944D03*
X171302944Y-88197056D03*
X173000000Y-84100000D03*
D12*
X173000000Y-86500000D03*
D11*
X173000000Y-88900000D03*
X174697056Y-84802944D03*
X174697056Y-88197056D03*
X175400000Y-86500000D03*
%TD*%
D15*
%TO.C,C9*%
X155125000Y-105917500D03*
X155125000Y-104782500D03*
%TD*%
D10*
%TO.C,C11*%
X152832500Y-102100000D03*
X153967500Y-102100000D03*
%TD*%
D26*
%TO.C,J16*%
X163000000Y-132000000D03*
D27*
X155800000Y-132000000D03*
%TD*%
D20*
%TO.C,C12*%
X140067500Y-111000000D03*
X138932500Y-111000000D03*
%TD*%
D22*
%TO.C,C1*%
X164900000Y-126150000D03*
X164900000Y-124600000D03*
%TD*%
D28*
%TO.C,U2*%
X151575000Y-103075000D03*
X151075000Y-103075000D03*
X150575000Y-103075000D03*
X150075000Y-103075000D03*
X149575000Y-103075000D03*
X149075000Y-103075000D03*
X148575000Y-103075000D03*
X148075000Y-103075000D03*
X147575000Y-103075000D03*
X147075000Y-103075000D03*
X146575000Y-103075000D03*
X146075000Y-103075000D03*
X145575000Y-103075000D03*
X145075000Y-103075000D03*
X144575000Y-103075000D03*
X144075000Y-103075000D03*
D29*
X142150000Y-105000000D03*
X142150000Y-105500000D03*
X142150000Y-106000000D03*
X142150000Y-106500000D03*
X142150000Y-107000000D03*
X142150000Y-107500000D03*
X142150000Y-108000000D03*
X142150000Y-108500000D03*
X142150000Y-109000000D03*
X142150000Y-109500000D03*
X142150000Y-110000000D03*
X142150000Y-110500000D03*
X142150000Y-111000000D03*
X142150000Y-111500000D03*
X142150000Y-112000000D03*
X142150000Y-112500000D03*
D28*
X144075000Y-114425000D03*
X144575000Y-114425000D03*
X145075000Y-114425000D03*
X145575000Y-114425000D03*
X146075000Y-114425000D03*
X146575000Y-114425000D03*
X147075000Y-114425000D03*
X147575000Y-114425000D03*
X148075000Y-114425000D03*
X148575000Y-114425000D03*
X149075000Y-114425000D03*
X149575000Y-114425000D03*
X150075000Y-114425000D03*
X150575000Y-114425000D03*
X151075000Y-114425000D03*
X151575000Y-114425000D03*
D29*
X153500000Y-112500000D03*
X153500000Y-112000000D03*
X153500000Y-111500000D03*
X153500000Y-111000000D03*
X153500000Y-110500000D03*
X153500000Y-110000000D03*
X153500000Y-109500000D03*
X153500000Y-109000000D03*
X153500000Y-108500000D03*
X153500000Y-108000000D03*
X153500000Y-107500000D03*
X153500000Y-107000000D03*
X153500000Y-106500000D03*
X153500000Y-106000000D03*
X153500000Y-105500000D03*
X153500000Y-105000000D03*
%TD*%
D30*
%TO.C,D6*%
X157087500Y-94300000D03*
X155512500Y-94300000D03*
%TD*%
%TO.C,D5*%
X157075000Y-95900000D03*
X155500000Y-95900000D03*
%TD*%
D18*
%TO.C,J9*%
X122000000Y-118750000D03*
D19*
X122000000Y-116250000D03*
X122000000Y-113750000D03*
X122000000Y-111250000D03*
X122000000Y-108750000D03*
X122000000Y-106250000D03*
%TD*%
D16*
%TO.C,J3*%
X136000000Y-87200000D03*
D17*
X138500000Y-87200000D03*
X141000000Y-87200000D03*
%TD*%
D31*
%TO.C,R2*%
X132100000Y-127290000D03*
X132100000Y-128485000D03*
%TD*%
D13*
%TO.C,C21*%
X135250000Y-90700000D03*
X136800000Y-90700000D03*
%TD*%
D30*
%TO.C,D4*%
X157087500Y-97500000D03*
X155512500Y-97500000D03*
%TD*%
D20*
%TO.C,C10*%
X140035000Y-109900000D03*
X138900000Y-109900000D03*
%TD*%
D32*
%TO.C,C15*%
X132700000Y-119625000D03*
X132700000Y-121175000D03*
%TD*%
D22*
%TO.C,C18*%
X170000000Y-97850000D03*
X170000000Y-96300000D03*
%TD*%
D11*
%TO.C,H3*%
X120600000Y-132000000D03*
X121302944Y-130302944D03*
X121302944Y-133697056D03*
X123000000Y-129600000D03*
D12*
X123000000Y-132000000D03*
D11*
X123000000Y-134400000D03*
X124697056Y-130302944D03*
X124697056Y-133697056D03*
X125400000Y-132000000D03*
%TD*%
D33*
%TO.C,R4*%
X153005000Y-97510000D03*
X154200000Y-97510000D03*
%TD*%
D20*
%TO.C,C7*%
X141367500Y-113400000D03*
X140232500Y-113400000D03*
%TD*%
D34*
%TO.C,SW1*%
X139100000Y-132000000D03*
X143800000Y-132000000D03*
X148500000Y-132000000D03*
%TD*%
D35*
%TO.C,J13*%
X173500000Y-96000000D03*
D19*
X173500000Y-98500000D03*
X173500000Y-101000000D03*
X173500000Y-103500000D03*
X173500000Y-106000000D03*
X173500000Y-108500000D03*
X173500000Y-111000000D03*
%TD*%
D32*
%TO.C,C17*%
X163000000Y-106725000D03*
X163000000Y-108275000D03*
%TD*%
D16*
%TO.C,J2*%
X148162500Y-87200000D03*
D17*
X150662500Y-87200000D03*
X153162500Y-87200000D03*
%TD*%
D35*
%TO.C,J12*%
X166500000Y-100500000D03*
D19*
X166500000Y-103000000D03*
X166500000Y-105500000D03*
X166500000Y-108000000D03*
%TD*%
D31*
%TO.C,R3*%
X130500000Y-127290000D03*
X130500000Y-128485000D03*
%TD*%
%TO.C,R1*%
X133800000Y-127290000D03*
X133800000Y-128485000D03*
%TD*%
D33*
%TO.C,R6*%
X153005000Y-94290000D03*
X154200000Y-94290000D03*
%TD*%
%TO.C,R5*%
X152992500Y-95900000D03*
X154187500Y-95900000D03*
%TD*%
D36*
%TO.C,J14*%
X172450000Y-124000000D03*
X168550000Y-124000000D03*
X172450000Y-122730000D03*
X168550000Y-122730000D03*
X172450000Y-121460000D03*
X168550000Y-121460000D03*
X172450000Y-120190000D03*
X168550000Y-120190000D03*
X172450000Y-118920000D03*
X168550000Y-118920000D03*
X172450000Y-117650000D03*
X168550000Y-117650000D03*
X172450000Y-116380000D03*
X168550000Y-116380000D03*
%TD*%
D37*
%TO.C,U1*%
X141400000Y-125500000D03*
X143940000Y-125500000D03*
X146480000Y-125500000D03*
%TD*%
D13*
%TO.C,C3*%
X143175000Y-100200000D03*
X144725000Y-100200000D03*
%TD*%
M02*
