M48
; DRILL file {KiCad 9.0.0-9.0.0-2~ubuntu24.04.1} date 2025-03-20T14:06:27+0100
; FORMAT={-:-/ absolute / inch / decimal}
; #@! TF.CreationDate,2025-03-20T14:06:27+01:00
; #@! TF.GenerationSoftware,Kicad,Pcbnew,9.0.0-9.0.0-2~ubuntu24.04.1
; #@! TF.FileFunction,Plated,1,4,PTH
FMAT,2
INCH
; #@! TA.AperFunction,Plated,PTH,ViaDrill
T1C0.0118
; #@! TA.AperFunction,Plated,PTH,ComponentDrill
T2C0.0197
; #@! TA.AperFunction,Plated,PTH,ViaDrill
T3C0.0236
; #@! TA.AperFunction,Plated,PTH,ComponentDrill
T4C0.0374
; #@! TA.AperFunction,Plated,PTH,ComponentDrill
T5C0.0394
; #@! TA.AperFunction,Plated,PTH,ComponentDrill
T6C0.0728
; #@! TA.AperFunction,Plated,PTH,ComponentDrill
T7C0.1260
; #@! TA.AperFunction,Plated,PTH,ComponentDrill
T8C0.1772
%
G90
G05
T1
X4.7461Y-3.9075
X4.8031Y-4.8228
X4.8976Y-3.6142
X4.9488Y-4.4961
X4.9567Y-4.0197
X5.0492Y-5.2874
X5.065Y-4.9291
X5.0984Y-3.5039
X5.1043Y-3.8957
X5.1378Y-5.1969
X5.1575Y-3.3189
X5.2008Y-5.1988
X5.2441Y-4.0335
X5.248Y-4.2677
X5.2638Y-4.7795
X5.2677Y-5.1988
X5.2795Y-4.6713
X5.2854Y-3.5709
X5.2972Y-4.4705
X5.3268Y-4.3071
X5.3524Y-3.6063
X5.3543Y-3.9075
X5.3622Y-4.7972
X5.3681Y-5.128
X5.4409Y-4.248
X5.4449Y-4.3228
X5.4449Y-4.5079
X5.4488Y-4.3701
X5.4587Y-3.9941
X5.498Y-4.4665
X5.5079Y-3.2835
X5.5217Y-4.7972
X5.5433Y-4.3701
X5.5472Y-4.3346
X5.5512Y-3.6319
X5.5689Y-3.9193
X5.5945Y-4.4528
X5.6417Y-3.9724
X5.6427Y-4.2559
X5.643Y-4.3423
X5.6437Y-4.4134
X5.6555Y-4.6358
X5.6623Y-4.2312
X5.6654Y-4.1732
X5.676Y-4.2029
X5.685Y-4.1102
X5.685Y-4.4449
X5.6959Y-4.0118
X5.7185Y-3.7106
X5.7382Y-4.0059
X5.7461Y-4.5768
X5.782Y-3.5709
X5.8169Y-5.0413
X5.8642Y-4.7244
X5.874Y-4.1417
X5.874Y-4.6378
X5.8976Y-3.9213
X5.9134Y-4.1378
X5.9154Y-4.5689
X5.9469Y-4.4449
X5.9528Y-4.1417
X5.9646Y-4.689
X5.9685Y-4.7205
X5.9843Y-3.7126
X5.9843Y-4.0236
X5.9843Y-4.5394
X5.9882Y-3.7756
X5.9882Y-3.8386
X5.9902Y-4.1299
X6.1004Y-4.9232
X6.1063Y-4.2146
X6.1417Y-4.1339
X6.1831Y-4.9469
X6.189Y-3.5512
X6.2047Y-3.9882
X6.2106Y-3.7756
X6.2106Y-3.8386
X6.2126Y-3.7126
X6.2283Y-4.5
X6.2717Y-3.5709
X6.2756Y-4.185
X6.2992Y-4.4252
X6.311Y-4.6339
X6.3504Y-4.4488
X6.4291Y-4.2992
X6.4606Y-4.5492
X6.4744Y-3.7579
X6.4921Y-4.872
X6.5591Y-4.6142
X6.6417Y-5.2776
X6.6654Y-3.689
X6.6693Y-5.0433
X6.6732Y-3.5138
X6.6929Y-3.8858
X6.8622Y-4.6319
X6.8642Y-4.7323
X6.8642Y-4.7815
X6.8661Y-4.8504
X6.9193Y-3.6122
T2
X4.748Y-3.4055
X4.748Y-5.1969
X4.7757Y-3.3387
X4.7757Y-3.4723
X4.7757Y-5.13
X4.7757Y-5.2637
X4.8425Y-3.311
X4.8425Y-3.5
X4.8425Y-5.1024
X4.8425Y-5.2913
X4.9093Y-3.3387
X4.9093Y-3.4723
X4.9093Y-5.13
X4.9093Y-5.2637
X4.937Y-3.4055
X4.937Y-5.1969
X6.7165Y-3.4055
X6.7165Y-5.1969
X6.7442Y-3.3387
X6.7442Y-3.4723
X6.7442Y-5.13
X6.7442Y-5.2637
X6.811Y-3.311
X6.811Y-3.5
X6.811Y-5.1024
X6.811Y-5.2913
X6.8778Y-3.3387
X6.8778Y-3.4723
X6.8778Y-5.13
X6.8778Y-5.2637
X6.9055Y-3.4055
X6.9055Y-5.1969
T3
X5.2382Y-4.9449
X5.3307Y-4.9764
X6.5709Y-5.0276
T4
X4.8031Y-4.1831
X4.8031Y-4.2815
X4.8031Y-4.3799
X4.8031Y-4.4783
X4.8031Y-4.5768
X4.8031Y-4.6752
X4.8543Y-3.7402
X4.9528Y-3.7402
X5.0512Y-3.7402
X5.0866Y-4.0748
X5.0866Y-4.1732
X5.0866Y-4.2717
X5.0866Y-4.5748
X5.0866Y-4.6732
X5.0866Y-4.7717
X5.3543Y-3.4331
X5.3543Y-3.7421
X5.4528Y-3.4331
X5.4528Y-3.7421
X5.5512Y-3.4331
X5.5512Y-3.7421
X5.8332Y-3.4331
X5.9316Y-3.4331
X6.03Y-3.4331
X6.3189Y-3.4331
X6.4173Y-3.4331
X6.5157Y-3.4331
X6.5551Y-3.9567
X6.5551Y-4.0551
X6.5551Y-4.1535
X6.5551Y-4.252
X6.8307Y-3.7795
X6.8307Y-3.878
X6.8307Y-3.9764
X6.8307Y-4.0748
X6.8307Y-4.1732
X6.8307Y-4.2717
X6.8307Y-4.3701
T5
X5.5669Y-4.9409
X5.6669Y-4.9409
X5.7669Y-4.9409
T6
X5.4764Y-5.1969
X5.6614Y-5.1969
X5.8465Y-5.1969
T7
X4.8425Y-3.4055
X4.8425Y-5.1969
X6.811Y-3.4055
X6.811Y-5.1969
T8
X6.1339Y-5.1969
X6.4173Y-5.1969
M30
