M48
; DRILL file {KiCad 8.0.8-8.0.8-0~ubuntu24.04.1} date 2025-03-16T15:22:04+0100
; FORMAT={-:-/ absolute / inch / decimal}
; #@! TF.CreationDate,2025-03-16T15:22:04+01:00
; #@! TF.GenerationSoftware,Kicad,Pcbnew,8.0.8-8.0.8-0~ubuntu24.04.1
; #@! TF.FileFunction,Plated,1,4,PTH
FMAT,2
INCH
; #@! TA.AperFunction,Plated,PTH,ViaDrill
T1C0.0118
; #@! TA.AperFunction,Plated,PTH,ComponentDrill
T2C0.0197
; #@! TA.AperFunction,Plated,PTH,ViaDrill
T3C0.0236
; #@! TA.AperFunction,Plated,PTH,ComponentDrill
T4C0.0374
; #@! TA.AperFunction,Plated,PTH,ComponentDrill
T5C0.0394
; #@! TA.AperFunction,Plated,PTH,ComponentDrill
T6C0.0728
; #@! TA.AperFunction,Plated,PTH,ComponentDrill
T7C0.1260
; #@! TA.AperFunction,Plated,PTH,ComponentDrill
T8C0.1772
%
G90
G05
T1
X5.2559Y-4.2795
X5.3425Y-4.3189
X5.3425Y-4.3701
X5.3622Y-4.7972
X5.4252Y-4.1732
X5.4449Y-4.5079
X5.5433Y-4.3622
X5.626Y-4.4626
X5.6427Y-4.2559
X5.6575Y-3.9213
X5.6623Y-4.2312
X5.6654Y-4.1732
X5.6693Y-4.374
X5.676Y-4.2029
X5.6791Y-4.1161
X5.685Y-4.4449
X5.748Y-4.1063
X5.748Y-4.4094
X5.874Y-4.1417
X5.874Y-4.6378
X5.9134Y-4.1378
X5.9528Y-4.1417
X5.9547Y-4.4567
X5.9646Y-4.689
X5.9685Y-4.7205
X5.9843Y-3.7126
X5.9843Y-4.0236
X5.9843Y-4.5394
X5.9882Y-3.7756
X5.9882Y-3.8386
X5.9921Y-4.1417
X6.1417Y-4.1339
X6.2756Y-4.185
X6.2992Y-4.4252
X6.311Y-4.6339
X6.3504Y-4.4488
X6.5591Y-4.6142
X6.8661Y-4.8504
T2
X4.748Y-3.2283
X4.748Y-5.1969
X4.7757Y-3.1615
X4.7757Y-3.2952
X4.7757Y-5.13
X4.7757Y-5.2637
X4.8425Y-3.1339
X4.8425Y-3.3228
X4.8425Y-5.1024
X4.8425Y-5.2913
X4.9093Y-3.1615
X4.9093Y-3.2952
X4.9093Y-5.13
X4.9093Y-5.2637
X4.937Y-3.2283
X4.937Y-5.1969
X6.7165Y-3.2283
X6.7165Y-5.1969
X6.7442Y-3.1615
X6.7442Y-3.2952
X6.7442Y-5.13
X6.7442Y-5.2637
X6.811Y-3.1339
X6.811Y-3.3228
X6.811Y-5.1024
X6.811Y-5.2913
X6.8778Y-3.1615
X6.8778Y-3.2952
X6.8778Y-5.13
X6.8778Y-5.2637
X6.9055Y-3.2283
X6.9055Y-5.1969
T3
X5.2382Y-4.9449
X5.3307Y-4.9764
X6.5709Y-5.0276
T4
X4.8031Y-3.4843
X4.8031Y-3.7402
X4.8031Y-4.1831
X4.8031Y-4.2815
X4.8031Y-4.3799
X4.8031Y-4.4783
X4.8031Y-4.5768
X4.8031Y-4.6752
X4.9016Y-3.4843
X4.9016Y-3.7402
X5.0Y-3.4843
X5.0Y-3.7402
X5.0866Y-4.0748
X5.0866Y-4.1732
X5.0866Y-4.2717
X5.0866Y-4.5748
X5.0866Y-4.6732
X5.0866Y-4.7717
X5.2756Y-3.1693
X5.2756Y-3.4055
X5.2756Y-3.6614
X5.374Y-3.1693
X5.374Y-3.4055
X5.374Y-3.6614
X5.4724Y-3.1693
X5.4724Y-3.4055
X5.4724Y-3.6614
X5.8465Y-3.2087
X5.8465Y-3.4646
X5.9449Y-3.2087
X5.9449Y-3.4646
X6.0433Y-3.2087
X6.0433Y-3.4646
X6.3189Y-3.2087
X6.3189Y-3.4646
X6.4173Y-3.2087
X6.4173Y-3.4646
X6.5157Y-3.2087
X6.5157Y-3.4646
X6.5551Y-3.9567
X6.5551Y-4.0551
X6.5551Y-4.1535
X6.5551Y-4.252
X6.8307Y-3.7795
X6.8307Y-3.878
X6.8307Y-3.9764
X6.8307Y-4.0748
X6.8307Y-4.1732
X6.8307Y-4.2717
X6.8307Y-4.3701
T5
X5.5669Y-4.9409
X5.6669Y-4.9409
X5.7669Y-4.9409
T6
X5.4764Y-5.1969
X5.6614Y-5.1969
X5.8465Y-5.1969
T7
X4.8425Y-3.2283
X4.8425Y-5.1969
X6.811Y-3.2283
X6.811Y-5.1969
T8
X6.1339Y-5.1969
X6.4173Y-5.1969
M30
